<?xml version="1.0" encoding="utf-8"?>
<!-- Generator: Adobe Illustrator 24.1.3, SVG Export Plug-In . SVG Version: 6.00 Build 0)  -->
<svg version="1.1" id="Layer_1" xmlns="http://www.w3.org/2000/svg" xmlns:xlink="http://www.w3.org/1999/xlink" x="0px" y="0px"
	 width="512px" height="512px" viewBox="0 0 512 512" enable-background="new 0 0 512 512" xml:space="preserve">
<g>
	<path fill="#525A7E" d="M509.6,119.1l-7.9-3.3l3.3-8c0.8-2-0.2-4.4-2.2-5.2c-2-0.8-4.4,0.2-5.2,2.2l-3.3,8l-8.1-3.3
		c-2-0.8-4.4,0.2-5.2,2.2c-0.8,2,0.2,4.4,2.2,5.2l8.1,3.3l-3.3,8c-0.8,2,0.2,4.4,2.2,5.2s4.4-0.2,5.2-2.2l3.3-8l7.9,3.3
		c2.1,0.8,4.3-0.1,5.2-2.2C512.5,122.3,511.5,120,509.6,119.1z"/>
	<path fill="#525A7E" d="M64.4,24.5h-8.6v-8.7c0-2.1-1.8-4-4-4s-4,1.8-4,4v8.7H39c-2.1,0-4,1.8-4,4s1.8,4,4,4h8.8v8.7
		c0,2.1,1.8,4,4,4s4-1.8,4-4v-8.7h8.6c2.2,0,4-1.7,4-4C68.3,26.3,66.5,24.5,64.4,24.5z"/>
	<path fill="#525A7E" d="M11.1,238.2c-6.1,0-11.1,5-11.1,11.1s5,11.1,11.1,11.1s11.1-5,11.1-11.1S17.2,238.2,11.1,238.2z
		 M11.1,255.5c-3.4,0-6.2-2.8-6.2-6.2s2.8-6.2,6.2-6.2s6.2,2.8,6.2,6.2S14.5,255.5,11.1,255.5z"/>
	<path fill="#525A7E" d="M477.8,463.7c-10.1,0-18.2,8.2-18.2,18.2c0,10.1,8.2,18.2,18.2,18.2S496,492,496,482
		C496,471.9,487.9,463.7,477.8,463.7z M477.8,492.1c-5.6,0-10.1-4.5-10.1-10.1s4.5-10.1,10.1-10.1s10.1,4.5,10.1,10.1
		C487.9,487.5,483.4,492.1,477.8,492.1z"/>
	<g>
		<g>
			<path fill="#FFFFFF" d="M348.6,147.6l-36.4-56.3C288.7,54.8,242,40.9,202.4,58.7l-63.1,28.2c-11.9,5.3-20.9,15.6-24.6,28.2
				L36.1,385.6c-4.1,14.2,4,29,18.2,33.1l187.9,54.6c14.2,4.1,29-4,33.1-18.2L354,184.2C357.5,171.8,355.6,158.4,348.6,147.6z"/>
		</g>
		<g>
			<path fill="#EAEDF7" d="M275.3,455L354,184.1c3.6-12.4,1.6-25.7-5.3-36.5l-36.4-56.3C288.7,54.8,242,40.9,202.4,58.7l-59.9,26.7
				c78,59.9,108.7,167.1,68,261.6c-17.1,39.7-44.5,71.8-77.7,94.5l109.5,31.8C256.4,477.3,271.2,469.2,275.3,455z"/>
		</g>
		<g>
			<path fill="#525A7E" d="M48.5,423.7c-6.8-2.9-12.4-8-16-14.5c-4.3-7.8-5.3-16.8-2.8-25.4l78.6-270.6
				c4.2-14.5,14.5-26.3,28.3-32.4l63.1-28.2c43-19.2,92.7-4.4,118.2,35.1l36.4,56.3c8,12.5,10.3,27.8,6.1,42l-78.7,270.9
				c-2.5,8.6-8.2,15.6-16,19.9s-16.8,5.3-25.4,2.8L52.4,425.1C51.1,424.7,49.8,424.2,48.5,423.7z M270.4,64.1
				c-20.2-8.7-43.8-9-65.3,0.6L142,92.9c-10.2,4.5-17.8,13.3-20.9,24L42.5,387.5c-1.5,5.1-0.9,10.5,1.7,15.2
				c2.6,4.7,6.8,8.1,11.9,9.6L244,466.9c5.1,1.5,10.5,0.9,15.2-1.7s8.1-6.8,9.6-12l78.7-270.9c3.1-10.5,1.4-21.8-4.5-31l0,0
				L306.6,95C297.5,80.8,284.8,70.3,270.4,64.1z"/>
		</g>
		<g>
			<path fill="#FFFFFF" d="M428.1,87.3l-50.5-44.1c-32.7-28.6-81.4-29.1-114.6-1.1l-52.9,44.5c-10,8.4-15.8,20.8-15.9,33.9
				l-0.9,281.8c0,14.7,11.9,26.7,26.6,26.8l195.7,0.6c14.7,0.1,26.7-11.9,26.8-26.6l0.9-282.1C443.3,108,437.8,95.7,428.1,87.3z"/>
		</g>
		<g>
			<path fill="#EAEDF7" d="M442.3,403l0.9-282.1c0-12.9-5.5-25.1-15.2-33.6l-50.5-44.1c-13.3-11.6-29.2-18.5-45.7-20.8
				c75.2,76.1,100.8,193.8,55.6,298.9c-19,44-48.1,80.5-83.4,107.9l111.5,0.4C430.3,429.6,442.3,417.7,442.3,403z"/>
		</g>
		<g>
			<path fill="#525A7E" d="M206.9,432.9c-11.9-5.1-20.2-17-20.2-30.8l0.9-281.8c0.1-15.1,6.7-29.3,18.2-39l52.9-44.5
				C294.7,6.5,346.6,7,382,38l50.5,44.1c11.2,9.8,17.5,23.8,17.5,38.7L449,403c-0.1,18.4-15.1,33.3-33.5,33.2l-195.7-0.7
				C215.3,435.6,210.9,434.6,206.9,432.9z M351.6,34.5c-27.6-11.9-60.1-7.7-84.3,12.6l-52.9,44.5c-8.5,7.2-13.4,17.7-13.5,28.8
				L200,402.2c0,11,8.9,20,19.9,20.1l195.7,0.7c11,0,20-8.9,20.1-20l0.9-282.1c0-11-4.7-21.4-12.9-28.6l0,0l-50.5-44.1
				C366.6,42.4,359.3,37.8,351.6,34.5z"/>
		</g>
		<g>
			<path fill="#525A7E" d="M300.3,152c-5.4-2.3-10.4-5.7-14.7-10c-8.8-8.8-13.6-20.6-13.6-33.1s4.9-24.2,13.8-33
				c8.8-8.8,20.6-13.6,33-13.6c12.5,0,24.2,4.9,33,13.8c8.8,8.8,13.6,20.6,13.6,33.1l0,0c0,12.5-4.9,24.2-13.8,33
				c-8.8,8.8-20.6,13.6-33,13.6C312.2,155.7,306,154.4,300.3,152z M332,78.4c-4.1-1.8-8.5-2.7-13.1-2.7c-8.9,0-17.3,3.4-23.6,9.7
				c-6.3,6.3-9.8,14.6-9.8,23.6c0,8.9,3.4,17.3,9.7,23.6c6.3,6.3,14.6,9.8,23.5,9.8s17.3-3.4,23.6-9.7c6.3-6.3,9.8-14.6,9.8-23.6
				l0,0c0-8.9-3.4-17.3-9.7-23.6C339.4,82.5,335.9,80.1,332,78.4z"/>
		</g>
		<g>
			<path fill="#525A7E" d="M327.5,125c-10.1-4.3-14-11.5-15.5-17c-3.3-11.9,1.7-26.6,14.1-41.3c2.4-2.8,6.6-3.2,9.4-0.8
				c2.8,2.4,3.2,6.6,0.8,9.4c-9.2,10.9-13.4,21.9-11.4,29.2c1.1,4.1,4.3,7.1,9.5,8.9c20.1,7,58.7-6.6,84.4-29.6
				c18.2-16.4,23-30.6,21.4-38.4c-0.9-4.6-4.2-7.8-9.7-9.7c-12.7-4.4-33.7-0.7-54.7,9.7c-3.3,1.6-7.3,0.3-8.9-3s-0.3-7.3,3-8.9
				c24.5-12.1,48.8-15.9,65-10.3c10,3.5,16.6,10.5,18.4,19.7c3,15-6.3,33.6-25.6,50.9c-29.8,26.8-72.7,41-97.7,32.3
				C329.1,125.7,328.3,125.3,327.5,125z"/>
		</g>
		<g>
			<path fill="#525A7E" d="M239.8,380c-0.8-0.3-1.5-0.8-2.1-1.4c-2.6-2.6-2.6-6.8,0-9.4l151.4-150.4c2.6-2.6,6.8-2.6,9.4,0
				s2.6,6.8,0,9.4L247.2,378.6C245.2,380.6,242.2,381,239.8,380z"/>
		</g>
		<g>
			<path fill="#FFFFFF" d="M296.8,250.1c0,14.9-12.2,26.9-27,26.9c-14.9-0.1-26.9-12.2-26.9-27c0-14.9,12.2-26.9,27-26.9
				C284.8,223.1,296.8,235.2,296.8,250.1z"/>
		</g>
		<g>
			<path fill="#525A7E" d="M256.5,280.9c-3.9-1.7-7.5-4.1-10.6-7.2c-6.3-6.4-9.8-14.8-9.8-23.8c0.1-18.5,15.2-33.6,33.7-33.5
				c18.6,0.1,33.6,15.2,33.5,33.7l0,0c0,9-3.6,17.4-9.9,23.7c-6.4,6.3-14.8,9.8-23.8,9.8C265.1,283.6,260.6,282.7,256.5,280.9z
				 M277.8,231.3c-2.4-1-5.1-1.6-7.9-1.6c-11.2,0-20.3,9-20.3,20.2c0,5.4,2.1,10.5,5.9,14.4c3.8,3.8,8.9,6,14.3,6s10.5-2.1,14.4-5.9
				c3.8-3.8,6-8.9,6-14.3C290.1,241.7,285.1,234.5,277.8,231.3z"/>
		</g>
		<g>
			<path fill="#FFFFFF" d="M393.5,347.4c0,14.9-12.2,26.9-27,26.9c-14.9,0-26.9-12.2-26.9-27c0.1-14.9,12.2-26.9,27-26.9
				C381.5,320.4,393.5,332.5,393.5,347.4z"/>
		</g>
		<g>
			<path fill="#525A7E" d="M353.3,378.2c-12-5.2-20.4-17.1-20.4-31c0.1-18.5,15.2-33.6,33.7-33.5c18.6,0.1,33.6,15.2,33.5,33.7
				c0,18.6-15.1,33.6-33.7,33.6C361.8,381,357.3,380,353.3,378.2z M374.5,328.7c-2.4-1-5.1-1.6-7.9-1.6c-11.2,0-20.3,9-20.3,20.2
				s9,20.3,20.2,20.4c11.2,0,20.3-9,20.3-20.2l0,0C386.8,339,381.8,331.8,374.5,328.7z"/>
		</g>
		<g>
			<path fill="#525A7E" d="M110.3,289.2c-3-1.3-4.7-4.7-3.8-8l36.8-126.6c1-3.5,4.7-5.6,8.3-4.5s5.6,4.7,4.5,8.3L119.3,285
				c-1,3.5-4.7,5.6-8.3,4.5C110.9,289.4,110.6,289.3,110.3,289.2z"/>
		</g>
		<g>
			<path fill="#525A7E" d="M89.1,362.2c-3-1.3-4.7-4.7-3.8-8l10-34.5c1-3.5,4.7-5.6,8.3-4.5c3.6,1.1,5.6,4.7,4.5,8.3l-10,34.5
				c-1,3.5-4.7,5.6-8.3,4.5C89.7,362.4,89.4,362.3,89.1,362.2z"/>
		</g>
	</g>
</g>
</svg>
