<svg xmlns="http://www.w3.org/2000/svg" width="512" height="512" viewBox="0 0 512 512"><g transform="translate(-116 -5698)"><g transform="translate(-3 36)"><g transform="translate(-1236 1463.689)"><rect width="359.2" height="2.7" transform="translate(1403.3 4609.406)" fill="#e4e8ea"/><rect width="49" height="2.7" transform="translate(1793 4609.406)" fill="#e4e8ea"/><rect width="15.9" height="2.7" transform="translate(1380 4609.406)" fill="#e4e8ea"/><rect width="15.6" height="2.699" transform="translate(1436.9 4631.106)" fill="#e4e8ea"/><rect width="28.2" height="2.699" transform="translate(1474.8 4631.106)" fill="#e4e8ea"/><rect width="12.6" height="2.699" transform="translate(1702.5 4631.106)" fill="#e4e8ea"/><rect width="54.6" height="2.699" transform="translate(1730.2 4631.106)" fill="#e4e8ea"/><rect width="13.8" height="2.7" transform="translate(1413.9 4649.506)" fill="#e4e8ea"/><rect width="13.8" height="2.7" transform="translate(1791.7 4649.506)" fill="#e4e8ea"/></g><g transform="translate(-1239.423 1450)"><path d="M121.6,48.406l-3-1.3,1.3-3a1.576,1.576,0,0,0-.8-2,1.461,1.461,0,0,0-2,.8l-1.3,3-3-1.3a1.523,1.523,0,0,0-1.2,2.8l3,1.3-1.3,3a1.523,1.523,0,1,0,2.8,1.2l1.3-3,3,1.3a1.541,1.541,0,0,0,2-.8,1.681,1.681,0,0,0-.8-2" transform="translate(1380 4270)" fill="#e4e8ea"/><path d="M15.7,116.206l-2-.9.9-2a.985.985,0,1,0-1.8-.8l-.9,2-2.1-.9a.985.985,0,1,0-.8,1.8l2.1.9-.9,2a.985.985,0,1,0,1.8.8l.9-2,2,.9a.992.992,0,0,0,1.3-.5c.3-.4,0-1-.5-1.3" transform="translate(1380 4270)" fill="#e4e8ea"/><path d="M459.9,120.106l-2-.9.9-2a.984.984,0,1,0-1.8-.8l-.9,2-2.1-.9a.985.985,0,0,0-.8,1.8l2.1.9-.9,2a.985.985,0,0,0,1.8.8l.9-2,2,.9a.993.993,0,0,0,1.3-.5,1.063,1.063,0,0,0-.5-1.3" transform="translate(1380 4270)" fill="#e4e8ea"/><path d="M353,19.806a6.124,6.124,0,0,0-6.1,6.1,6.1,6.1,0,0,0,12.2,0,6.124,6.124,0,0,0-6.1-6.1m0,9.4a3.4,3.4,0,1,1,3.4-3.4,3.372,3.372,0,0,1-3.4,3.4" transform="translate(1380 4270)" fill="#e4e8ea"/><path d="M66.6,84.206a6.124,6.124,0,0,0-6.1,6.1,6.1,6.1,0,1,0,6.1-6.1m0,9.4a3.4,3.4,0,1,1,3.4-3.4,3.372,3.372,0,0,1-3.4,3.4" transform="translate(1380 4270)" fill="#e4e8ea"/><path d="M305.2,56.906a3.8,3.8,0,1,0,3.8,3.8,3.736,3.736,0,0,0-3.8-3.8m0,5.8a2.1,2.1,0,1,1,2.1-2.1,2.051,2.051,0,0,1-2.1,2.1" transform="translate(1380 4270)" fill="#e4e8ea"/><path d="M259.7,37.006H175.3l-.2-.9c-1.1-5.3-.6-9.6,1.8-12.8a15.419,15.419,0,0,1,11.8-6.7,27.462,27.462,0,0,1,5.7.5,18.878,18.878,0,0,0,6.2.4c4.7-.6,8.2-4.4,11.8-8.3,3.7-4,7.6-8.2,13.1-9.1,5.9-.8,12.3,3,15.2,9.1l.9,2.1a11.567,11.567,0,0,0,2.4,4.2,10.85,10.85,0,0,0,4.6,2.1,22.429,22.429,0,0,1,2.4.8c6.4,2.6,10.2,10,8.9,17.7Zm-82.4-2.4h80.4c.6-6.2-2.5-12-7.6-14.1-.7-.3-1.5-.5-2.2-.8a13.471,13.471,0,0,1-5.5-2.7c-1.5-1.4-2.2-3.3-3-5-.3-.7-.5-1.3-.8-1.9-2.4-5.2-7.8-8.4-12.7-7.7-4.6.7-8.1,4.4-11.7,8.3-3.8,4.1-7.7,8.3-13.2,9.1a19.8,19.8,0,0,1-6.9-.4,23.473,23.473,0,0,0-5.2-.5,13.5,13.5,0,0,0-10,5.7c-1.9,2.6-2.4,5.8-1.6,10" transform="translate(1380 4270)" fill="#f0f0f2"/><path d="M439.6,83.406H381.3l-.3-.7a12.491,12.491,0,0,1,.7-12.7,13.085,13.085,0,0,1,12-5.3,27.409,27.409,0,0,1,2.8.5c2.3.5,4.5,1,6.1-.1,1.3-.9,1.8-2.5,2.4-4.4a12.2,12.2,0,0,1,2-4.5c2.5-3.5,7.3-3.9,10.7-2.5,3.1,1.2,5.6,3.9,7.5,7.9l.2.5c.8,1.6,1.6,3.3,2.9,4a5.123,5.123,0,0,0,2.5.2,12.745,12.745,0,0,1,2.7.2c2.9.5,5.5,3.2,6.4,6.6.7,2.6.3,5.7,0,8.4Zm-56.8-2.4h54.6c.3-2.5.6-5.2,0-7.4a6.272,6.272,0,0,0-4.6-4.8,7.411,7.411,0,0,0-2.1-.1,10.78,10.78,0,0,1-3.5-.4c-2.2-1-3.2-3.2-4.1-5.1l-.2-.5c-1.7-3.4-3.8-5.7-6.3-6.7s-6.1-.8-7.9,1.7a10.917,10.917,0,0,0-1.6,3.8c-.6,2.1-1.3,4.4-3.3,5.7-2.5,1.7-5.4,1-8,.5a23.765,23.765,0,0,0-2.6-.5,10.641,10.641,0,0,0-9.8,4.3,10.2,10.2,0,0,0-.6,9.5" transform="translate(1380 4270)" fill="#f0f0f2"/></g><g transform="translate(11.5)"><g transform="translate(-75 93.766)"><g transform="translate(-7895.05 11125.365)"><path d="M8371.782-5157.17a33.066,33.066,0,0,1,6.487.64v14.216a28.5,28.5,0,0,0-10.743-2.087h-1.066a2.127,2.127,0,0,0-2.125,2.131v8.635l-24-17.147,24-17.148v8.635a2.123,2.123,0,0,0,2.125,2.125Z" transform="translate(-55.219 -38.266)" fill="indigo"/><path d="M8323.051-5156.193a8.831,8.831,0,0,1-8.834,8.833h-88.333a8.832,8.832,0,0,1-8.834-8.833v-88.333a8.832,8.832,0,0,1,8.834-8.833h88.333a8.831,8.831,0,0,1,8.834,8.833Z" transform="translate(0 -0.001)" fill="#fff" stroke="#e4e8ea" stroke-width="4"/><path d="M8287.309-5253.361v41.325l13.175-12.608a1.275,1.275,0,0,1,1.8-.14,1.117,1.117,0,0,1,.141.14l13.176,12.608v-41.325Z" transform="translate(-31.47 -2)" fill="#7f9fb0"/><g transform="translate(8228.527 -5197.34)"><path d="M8262.727-5115.113a3.113,3.113,0,0,1-3.112,3.112h-18.661a3.111,3.111,0,0,1-3.111-3.107h0v0a3.111,3.111,0,0,1,3.11-3.112h18.661A3.115,3.115,0,0,1,8262.727-5115.113Z" transform="translate(-8237.841 5136.81)" fill="#e4e8ea"/><path d="M8271.844-5148.776a3.112,3.112,0,0,1-3.111,3.111h-27.78a3.109,3.109,0,0,1-3.112-3.106h0v0a3.111,3.111,0,0,1,3.11-3.112h27.781A3.114,3.114,0,0,1,8271.844-5148.776Z" transform="translate(-8237.84 5151.888)" fill="#e4e8ea"/></g><path d="M8217.05-5087.362h106v5.521a8.834,8.834,0,0,1-8.834,8.833h-88.333a8.834,8.834,0,0,1-8.834-8.833v-5.521Z" transform="translate(0 -74.354)" fill="#e4e8ea"/></g><g transform="translate(-7768.05 11125.365)"><path d="M8371.781-5157.17a33.076,33.076,0,0,1,6.488.64v14.216a28.5,28.5,0,0,0-10.743-2.087h-1.066a2.128,2.128,0,0,0-2.126,2.131v8.635l-24-17.147,24-17.148v8.635a2.123,2.123,0,0,0,2.126,2.125Z" transform="translate(-55.219 -38.266)" fill="indigo"/><path d="M8323.051-5156.193a8.832,8.832,0,0,1-8.834,8.833h-88.334a8.831,8.831,0,0,1-8.833-8.833v-88.333a8.831,8.831,0,0,1,8.833-8.833h88.334a8.832,8.832,0,0,1,8.834,8.833Z" transform="translate(0 -0.001)" fill="#fff" stroke="#e4e8ea" stroke-width="4"/><path d="M8287.309-5253.361v41.325l13.175-12.608a1.274,1.274,0,0,1,1.8-.14,1.194,1.194,0,0,1,.142.14l13.176,12.608v-41.325Z" transform="translate(-31.47 -2)" fill="#e4e8ea"/><g transform="translate(8228.527 -5197.34)"><path d="M8262.726-5115.113a3.113,3.113,0,0,1-3.111,3.112h-18.661a3.11,3.11,0,0,1-3.111-3.107h0v0a3.11,3.11,0,0,1,3.109-3.112h18.662A3.113,3.113,0,0,1,8262.726-5115.113Z" transform="translate(-8237.841 5136.81)" fill="#e4e8ea"/><path d="M8271.843-5148.776a3.111,3.111,0,0,1-3.11,3.112h-27.78a3.108,3.108,0,0,1-3.112-3.106h0v0a3.112,3.112,0,0,1,3.109-3.112h27.782A3.113,3.113,0,0,1,8271.843-5148.776Z" transform="translate(-8237.84 5151.888)" fill="#e4e8ea"/></g><path d="M8217.05-5087.362h106v5.521a8.834,8.834,0,0,1-8.834,8.833h-88.334a8.833,8.833,0,0,1-8.833-8.833v-5.521Z" transform="translate(0 -74.354)" fill="#e4e8ea"/></g></g><g transform="translate(-75 -54.238)"><g transform="translate(-7895.05 11125.365)"><path d="M8371.782-5157.17a33.066,33.066,0,0,1,6.487.64v14.216a28.5,28.5,0,0,0-10.743-2.087h-1.066a2.127,2.127,0,0,0-2.125,2.131v8.635l-24-17.147,24-17.148v8.635a2.123,2.123,0,0,0,2.125,2.125Z" transform="translate(-55.219 -38.266)" fill="indigo"/><path d="M8323.051-5156.193a8.831,8.831,0,0,1-8.834,8.833h-88.333a8.832,8.832,0,0,1-8.834-8.833v-88.333a8.832,8.832,0,0,1,8.834-8.833h88.333a8.831,8.831,0,0,1,8.834,8.833Z" transform="translate(0 -0.496)" fill="#fff" stroke="#e4e8ea" stroke-width="4"/><path d="M8287.309-5253.361v41.325l13.175-12.608a1.275,1.275,0,0,1,1.8-.14,1.117,1.117,0,0,1,.141.14l13.176,12.608v-41.325Z" transform="translate(-31.47 -1.995)" fill="indigo"/><g transform="translate(8228.527 -5197.34)"><path d="M8262.727-5115.113a3.113,3.113,0,0,1-3.112,3.112h-18.661a3.111,3.111,0,0,1-3.111-3.107h0v0a3.111,3.111,0,0,1,3.11-3.112h18.661A3.115,3.115,0,0,1,8262.727-5115.113Z" transform="translate(-8237.841 5136.81)" fill="#e4e8ea"/><path d="M8271.844-5148.776a3.112,3.112,0,0,1-3.111,3.111h-27.78a3.109,3.109,0,0,1-3.112-3.106h0v0a3.111,3.111,0,0,1,3.11-3.112h27.781A3.114,3.114,0,0,1,8271.844-5148.776Z" transform="translate(-8237.84 5151.888)" fill="#e4e8ea"/></g><path d="M8217.05-5087.362h106v5.521a8.834,8.834,0,0,1-8.834,8.833h-88.333a8.834,8.834,0,0,1-8.834-8.833v-5.521Z" transform="translate(0 -74.354)" fill="#e4e8ea"/></g><g transform="translate(-7768.05 11125.365)"><path d="M8371.781-5157.17a33.076,33.076,0,0,1,6.488.64v14.216a28.5,28.5,0,0,0-10.743-2.087h-1.066a2.128,2.128,0,0,0-2.126,2.131v8.635l-24-17.147,24-17.148v8.635a2.123,2.123,0,0,0,2.126,2.125Z" transform="translate(-55.219 -38.266)" fill="indigo"/><path d="M8323.051-5156.193a8.832,8.832,0,0,1-8.834,8.833h-88.334a8.831,8.831,0,0,1-8.833-8.833v-88.333a8.831,8.831,0,0,1,8.833-8.833h88.334a8.832,8.832,0,0,1,8.834,8.833Z" transform="translate(0 -0.001)" fill="#fff" stroke="#e4e8ea" stroke-width="4"/><path d="M8287.309-5253.361v41.325l13.175-12.608a1.274,1.274,0,0,1,1.8-.14,1.194,1.194,0,0,1,.142.14l13.176,12.608v-41.325Z" transform="translate(-31.47 -2)" fill="#ed7c8a"/><g transform="translate(8228.527 -5197.34)"><path d="M8262.726-5115.113a3.113,3.113,0,0,1-3.111,3.112h-18.661a3.11,3.11,0,0,1-3.111-3.107h0v0a3.11,3.11,0,0,1,3.109-3.112h18.662A3.113,3.113,0,0,1,8262.726-5115.113Z" transform="translate(-8237.841 5136.81)" fill="#e4e8ea"/><path d="M8271.843-5148.776a3.111,3.111,0,0,1-3.11,3.112h-27.78a3.108,3.108,0,0,1-3.112-3.106h0v0a3.112,3.112,0,0,1,3.109-3.112h27.782A3.113,3.113,0,0,1,8271.843-5148.776Z" transform="translate(-8237.84 5151.888)" fill="#e4e8ea"/></g><path d="M8217.05-5087.362h106v5.521a8.834,8.834,0,0,1-8.834,8.833h-88.334a8.833,8.833,0,0,1-8.833-8.833v-5.521Z" transform="translate(0 -74.354)" fill="#e4e8ea"/></g></g><path d="M0,0V262.061" transform="translate(232.5 5944.768) rotate(-90)" fill="none" stroke="#e4e8ea" stroke-width="4"/></g><g transform="translate(-673.218 158.458)"><path d="M9755.466-5685.27l-48.97-90.149a20.3,20.3,0,0,0-27.83-7.091,20.308,20.308,0,0,0-7.091,7.091c-.026.046-.051.095-.078.141l-48.808,89.867a20.3,20.3,0,0,0,7.083,27.821,20.333,20.333,0,0,0,10.373,2.848h97.509a20.518,20.518,0,0,0,17.924-10.264A20.014,20.014,0,0,0,9755.466-5685.27Z" transform="translate(-8499.839 11506.361)" fill="indigo"/><g transform="translate(1177.065 5752.643)"><path d="M9870.12-5476.368a12.2,12.2,0,0,1-12.184,12.181,12.183,12.183,0,0,1-12.181-12.181,12.183,12.183,0,0,1,12.181-12.184A12.184,12.184,0,0,1,9870.12-5476.368Z" transform="translate(-9845.756 5545.403)" fill="#fff"/><path d="M9877.009-5690.641v32.487a8.119,8.119,0,0,1-8.118,8.124,8.122,8.122,0,0,1-8.125-8.119v-32.492a8.122,8.122,0,0,1,8.123-8.122A8.12,8.12,0,0,1,9877.009-5690.641Z" transform="translate(-9856.706 5698.762)" fill="#fff"/></g></g></g><rect width="512" height="512" transform="translate(116 5698)" fill="none"/></g></svg>