<svg xmlns="http://www.w3.org/2000/svg" width="512" height="512" viewBox="0 0 512 512"><g transform="translate(-705 -5700)"><rect width="512" height="512" transform="translate(705 5700)" fill="none"/><g transform="translate(1 38)"><g transform="translate(-651 1463.689)"><rect width="359.2" height="2.7" transform="translate(1403.3 4609.406)" fill="#e4e8ea"/><rect width="49" height="2.7" transform="translate(1793 4609.406)" fill="#e4e8ea"/><rect width="15.9" height="2.7" transform="translate(1380 4609.406)" fill="#e4e8ea"/><rect width="15.6" height="2.699" transform="translate(1436.9 4631.106)" fill="#e4e8ea"/><rect width="28.2" height="2.699" transform="translate(1474.8 4631.106)" fill="#e4e8ea"/><rect width="12.6" height="2.699" transform="translate(1702.5 4631.106)" fill="#e4e8ea"/><rect width="54.6" height="2.699" transform="translate(1730.2 4631.106)" fill="#e4e8ea"/><rect width="13.8" height="2.7" transform="translate(1413.9 4649.506)" fill="#e4e8ea"/><rect width="13.8" height="2.7" transform="translate(1791.7 4649.506)" fill="#e4e8ea"/></g><g transform="translate(-654.424 1450)"><path d="M121.6,48.406l-3-1.3,1.3-3a1.576,1.576,0,0,0-.8-2,1.461,1.461,0,0,0-2,.8l-1.3,3-3-1.3a1.523,1.523,0,0,0-1.2,2.8l3,1.3-1.3,3a1.523,1.523,0,1,0,2.8,1.2l1.3-3,3,1.3a1.541,1.541,0,0,0,2-.8,1.681,1.681,0,0,0-.8-2" transform="translate(1380 4270)" fill="#e4e8ea"/><path d="M15.7,116.206l-2-.9.9-2a.985.985,0,1,0-1.8-.8l-.9,2-2.1-.9a.985.985,0,1,0-.8,1.8l2.1.9-.9,2a.985.985,0,1,0,1.8.8l.9-2,2,.9a.992.992,0,0,0,1.3-.5c.3-.4,0-1-.5-1.3" transform="translate(1380 4270)" fill="#e4e8ea"/><path d="M459.9,120.106l-2-.9.9-2a.984.984,0,1,0-1.8-.8l-.9,2-2.1-.9a.985.985,0,0,0-.8,1.8l2.1.9-.9,2a.985.985,0,0,0,1.8.8l.9-2,2,.9a.993.993,0,0,0,1.3-.5,1.063,1.063,0,0,0-.5-1.3" transform="translate(1380 4270)" fill="#e4e8ea"/><path d="M353,19.806a6.124,6.124,0,0,0-6.1,6.1,6.1,6.1,0,0,0,12.2,0,6.124,6.124,0,0,0-6.1-6.1m0,9.4a3.4,3.4,0,1,1,3.4-3.4,3.372,3.372,0,0,1-3.4,3.4" transform="translate(1380 4270)" fill="#e4e8ea"/><path d="M66.6,84.206a6.124,6.124,0,0,0-6.1,6.1,6.1,6.1,0,1,0,6.1-6.1m0,9.4a3.4,3.4,0,1,1,3.4-3.4,3.372,3.372,0,0,1-3.4,3.4" transform="translate(1380 4270)" fill="#e4e8ea"/><path d="M305.2,56.906a3.8,3.8,0,1,0,3.8,3.8,3.736,3.736,0,0,0-3.8-3.8m0,5.8a2.1,2.1,0,1,1,2.1-2.1,2.051,2.051,0,0,1-2.1,2.1" transform="translate(1380 4270)" fill="#e4e8ea"/><path d="M259.7,37.006H175.3l-.2-.9c-1.1-5.3-.6-9.6,1.8-12.8a15.419,15.419,0,0,1,11.8-6.7,27.462,27.462,0,0,1,5.7.5,18.878,18.878,0,0,0,6.2.4c4.7-.6,8.2-4.4,11.8-8.3,3.7-4,7.6-8.2,13.1-9.1,5.9-.8,12.3,3,15.2,9.1l.9,2.1a11.567,11.567,0,0,0,2.4,4.2,10.85,10.85,0,0,0,4.6,2.1,22.429,22.429,0,0,1,2.4.8c6.4,2.6,10.2,10,8.9,17.7Zm-82.4-2.4h80.4c.6-6.2-2.5-12-7.6-14.1-.7-.3-1.5-.5-2.2-.8a13.471,13.471,0,0,1-5.5-2.7c-1.5-1.4-2.2-3.3-3-5-.3-.7-.5-1.3-.8-1.9-2.4-5.2-7.8-8.4-12.7-7.7-4.6.7-8.1,4.4-11.7,8.3-3.8,4.1-7.7,8.3-13.2,9.1a19.8,19.8,0,0,1-6.9-.4,23.473,23.473,0,0,0-5.2-.5,13.5,13.5,0,0,0-10,5.7c-1.9,2.6-2.4,5.8-1.6,10" transform="translate(1380 4270)" fill="#f0f0f2"/><path d="M439.6,83.406H381.3l-.3-.7a12.491,12.491,0,0,1,.7-12.7,13.085,13.085,0,0,1,12-5.3,27.409,27.409,0,0,1,2.8.5c2.3.5,4.5,1,6.1-.1,1.3-.9,1.8-2.5,2.4-4.4a12.2,12.2,0,0,1,2-4.5c2.5-3.5,7.3-3.9,10.7-2.5,3.1,1.2,5.6,3.9,7.5,7.9l.2.5c.8,1.6,1.6,3.3,2.9,4a5.123,5.123,0,0,0,2.5.2,12.745,12.745,0,0,1,2.7.2c2.9.5,5.5,3.2,6.4,6.6.7,2.6.3,5.7,0,8.4Zm-56.8-2.4h54.6c.3-2.5.6-5.2,0-7.4a6.272,6.272,0,0,0-4.6-4.8,7.411,7.411,0,0,0-2.1-.1,10.78,10.78,0,0,1-3.5-.4c-2.2-1-3.2-3.2-4.1-5.1l-.2-.5c-1.7-3.4-3.8-5.7-6.3-6.7s-6.1-.8-7.9,1.7a10.917,10.917,0,0,0-1.6,3.8c-.6,2.1-1.3,4.4-3.3,5.7-2.5,1.7-5.4,1-8,.5a23.765,23.765,0,0,0-2.6-.5,10.641,10.641,0,0,0-9.8,4.3,10.2,10.2,0,0,0-.6,9.5" transform="translate(1380 4270)" fill="#f0f0f2"/></g><g transform="translate(1 66.5)"><g transform="translate(50 71)"><circle cx="38" cy="38" r="38" transform="translate(1036 5832)" fill="#7f9fb0"/><g transform="translate(1058.961 5851.83)"><path d="M95.456,16.848a8.151,8.151,0,0,0,5.956-2.468,8.151,8.151,0,0,0,2.468-5.956,8.152,8.152,0,0,0-2.468-5.956,8.422,8.422,0,0,0-11.912,0,8.151,8.151,0,0,0-2.468,5.956A8.151,8.151,0,0,0,89.5,14.38,8.153,8.153,0,0,0,95.456,16.848Zm0,0" transform="translate(-81.087 0)" fill="#fff"/><path d="M29.109,257.316a20.808,20.808,0,0,0-.283-2.21,17.413,17.413,0,0,0-.544-2.222,10.975,10.975,0,0,0-.913-2.072,7.82,7.82,0,0,0-1.377-1.795,6.073,6.073,0,0,0-1.979-1.243,6.838,6.838,0,0,0-2.526-.457,2.564,2.564,0,0,0-1.369.581c-.41.268-.89.577-1.426.919a8.172,8.172,0,0,1-1.845.813,7.166,7.166,0,0,1-4.514,0,8.154,8.154,0,0,1-1.844-.813c-.531-.339-1.011-.649-1.428-.92a2.56,2.56,0,0,0-1.369-.581,6.829,6.829,0,0,0-2.526.458,6.068,6.068,0,0,0-1.979,1.243,7.82,7.82,0,0,0-1.377,1.795A11,11,0,0,0,.9,252.884a17.454,17.454,0,0,0-.543,2.222,20.734,20.734,0,0,0-.283,2.211c-.046.669-.07,1.364-.07,2.065a5.808,5.808,0,0,0,1.725,4.394A6.209,6.209,0,0,0,6.169,265.4H23.01a6.208,6.208,0,0,0,4.444-1.621,5.805,5.805,0,0,0,1.725-4.394c0-.7-.024-1.4-.071-2.066Zm0,0" transform="translate(0 -230.422)" fill="#fff"/></g></g><path d="M26.22,3.475a2,2,0,0,1,3.56,0l6.576,12.837a2,2,0,0,0,1.468,1.064L52.109,19.63a2,2,0,0,1,1.1,3.393L43,33.191a2,2,0,0,0-.564,1.731L44.69,49.131a2,2,0,0,1-2.879,2.1L28.9,44.688a2,2,0,0,0-1.808,0L14.189,51.229a2,2,0,0,1-2.879-2.1l2.258-14.209A2,2,0,0,0,13,33.191L2.791,23.023a2,2,0,0,1,1.1-3.393l14.285-2.255a2,2,0,0,0,1.468-1.064Z" transform="translate(1096.5 5771)" fill="#fff" stroke="#e4e8ea" stroke-linecap="round" stroke-linejoin="round" stroke-width="4"/></g><g transform="translate(2 70.5)"><g transform="translate(21.026 37.5)"><circle cx="53" cy="53" r="53" transform="translate(733.974 5831.5)" fill="#ed7c8a"/><g transform="translate(766.488 5859.945)"><path d="M98.86,23.656a11.445,11.445,0,0,0,8.363-3.465,11.444,11.444,0,0,0,3.465-8.363,11.446,11.446,0,0,0-3.465-8.363,11.825,11.825,0,0,0-16.726,0,11.445,11.445,0,0,0-3.465,8.363A11.445,11.445,0,0,0,90.5,20.191,11.447,11.447,0,0,0,98.86,23.656Zm0,0" transform="translate(-78.684 0)" fill="#fff"/><path d="M40.872,261.357a29.216,29.216,0,0,0-.4-3.1,24.45,24.45,0,0,0-.763-3.12,15.411,15.411,0,0,0-1.283-2.91,10.98,10.98,0,0,0-1.934-2.52,8.527,8.527,0,0,0-2.778-1.746,9.6,9.6,0,0,0-3.547-.642,3.6,3.6,0,0,0-1.922.815c-.576.376-1.25.81-2,1.291a11.475,11.475,0,0,1-2.591,1.142,10.062,10.062,0,0,1-6.339,0,11.449,11.449,0,0,1-2.589-1.141c-.745-.476-1.42-.911-2-1.292a3.6,3.6,0,0,0-1.922-.815,9.589,9.589,0,0,0-3.546.643A8.52,8.52,0,0,0,4.475,249.7a10.981,10.981,0,0,0-1.933,2.52,15.44,15.44,0,0,0-1.283,2.91A24.507,24.507,0,0,0,.5,258.254a29.114,29.114,0,0,0-.4,3.1c-.065.94-.1,1.915-.1,2.9a8.155,8.155,0,0,0,2.422,6.169A8.719,8.719,0,0,0,8.663,272.7H32.309a8.717,8.717,0,0,0,6.241-2.277,8.151,8.151,0,0,0,2.422-6.17c0-.99-.034-1.966-.1-2.9Zm0,0" transform="translate(0 -223.595)" fill="#fff"/></g></g><path d="M23.442,6.932a4,4,0,0,1,7.117,0l4.018,7.827a4,4,0,0,0,2.936,2.125l8.692,1.369a4,4,0,0,1,2.2,6.789l-6.187,6.147a4,4,0,0,0-1.131,3.467l1.372,8.612a4,4,0,0,1-5.755,4.2l-7.895-3.993a4,4,0,0,0-3.61,0L17.3,47.467a4,4,0,0,1-5.755-4.2l1.372-8.612a4,4,0,0,0-1.131-3.467L5.6,25.042a4,4,0,0,1,2.2-6.789l8.692-1.369a4,4,0,0,0,2.936-2.125Z" transform="translate(781.5 5767)" fill="#fff" stroke="#e4e8ea" stroke-linecap="round" stroke-linejoin="round" stroke-width="4"/></g><g transform="translate(9 66)"><g transform="translate(23.5 -34.5)"><circle cx="72" cy="72" r="72" transform="translate(870.5 5759.5)" fill="indigo"/><g transform="translate(914.542 5797.988)"><path d="M103.175,32.285a15.619,15.619,0,0,0,11.414-4.729,15.619,15.619,0,0,0,4.729-11.414,15.622,15.622,0,0,0-4.729-11.414,16.139,16.139,0,0,0-22.827,0,15.62,15.62,0,0,0-4.729,11.413,15.619,15.619,0,0,0,4.73,11.414A15.623,15.623,0,0,0,103.175,32.285Zm0,0" transform="translate(-75.639)" fill="#fff"/><path d="M55.782,266.479a39.874,39.874,0,0,0-.543-4.235,33.368,33.368,0,0,0-1.042-4.258,21.032,21.032,0,0,0-1.75-3.971,14.985,14.985,0,0,0-2.64-3.44,11.638,11.638,0,0,0-3.792-2.382,13.1,13.1,0,0,0-4.84-.876,4.913,4.913,0,0,0-2.624,1.113c-.786.513-1.706,1.106-2.733,1.762a15.66,15.66,0,0,1-3.536,1.558,13.732,13.732,0,0,1-8.651,0,15.625,15.625,0,0,1-3.534-1.558c-1.017-.65-1.937-1.243-2.736-1.763a4.906,4.906,0,0,0-2.623-1.113,13.087,13.087,0,0,0-4.84.877,11.628,11.628,0,0,0-3.792,2.382,14.987,14.987,0,0,0-2.639,3.439,21.072,21.072,0,0,0-1.75,3.972,33.446,33.446,0,0,0-1.041,4.257,39.733,39.733,0,0,0-.543,4.237C.045,267.763,0,269.094,0,270.438a11.129,11.129,0,0,0,3.305,8.42,11.9,11.9,0,0,0,8.517,3.107H44.094a11.9,11.9,0,0,0,8.517-3.107,11.124,11.124,0,0,0,3.306-8.42c0-1.35-.046-2.682-.136-3.959Zm0,0" transform="translate(0 -214.941)" fill="#fff"/></g></g><path d="M39.434,7.012a4,4,0,0,1,7.131,0l9.055,17.809a4,4,0,0,0,2.937,2.137l19.709,3.134a4,4,0,0,1,2.2,6.775L66.352,51.028a4,4,0,0,0-1.118,3.448l3.119,19.768a4,4,0,0,1-5.77,4.186L44.819,69.36a4,4,0,0,0-3.638,0L23.418,78.429a4,4,0,0,1-5.77-4.186l3.119-19.768a4,4,0,0,0-1.119-3.448L5.529,36.866a4,4,0,0,1,2.2-6.775l19.709-3.134a4,4,0,0,0,2.937-2.137Z" transform="translate(923.5 5897.5)" fill="#fff" stroke="#e4e8ea" stroke-linecap="round" stroke-linejoin="round" stroke-width="4"/></g></g></g></svg>