<svg xmlns="http://www.w3.org/2000/svg" width="512" height="512" viewBox="0 0 512 512"><g transform="translate(-1287 -4974)"><g transform="translate(4 32)"><g transform="translate(478)"><g transform="translate(-7220.692 10399.361)"><rect width="140.713" height="140.713" rx="16" transform="translate(8104.692 -5202.36)" fill="#fff"/><rect width="136.713" height="136.713" rx="14" transform="translate(8106.692 -5200.36)" fill="none" stroke="#e4e8ea" stroke-width="4"/><path d="M8104.693-5079.752H8245.4v4.937a13.168,13.168,0,0,1-13.167,13.166H8117.858a13.165,13.165,0,0,1-13.165-13.165h0Z" fill="#e4e8ea"/><path d="M8193.966-5202.362v54.859l-17.489-16.736a1.471,1.471,0,0,0-.187-.187,1.691,1.691,0,0,0-2.385.187l-17.488,16.736v-54.859Z" fill="#456a7e"/><path d="M8153.192-5096.623a4.13,4.13,0,0,1-4.129,4.131h-24.771a4.128,4.128,0,0,1-4.13-4.125v-.006a4.13,4.13,0,0,1,4.129-4.13h24.771A4.133,4.133,0,0,1,8153.192-5096.623Z" fill="#e4e8ea"/><path d="M8165.3-5121.289a4.131,4.131,0,0,1-4.13,4.131h-36.878a4.127,4.127,0,0,1-4.13-4.124v0h0a4.13,4.13,0,0,1,4.129-4.131h36.872A4.133,4.133,0,0,1,8165.3-5121.289Z" fill="#e4e8ea"/><path d="M8397.3-5148.44a59.85,59.85,0,0,1,11.75,1.16v25.75a51.607,51.607,0,0,0-19.46-3.78h-1.93a3.854,3.854,0,0,0-3.851,3.86v15.64l-43.479-31.06,43.479-31.06v15.64a3.846,3.846,0,0,0,3.851,3.85Z" fill="indigo"/><path d="M8409.05-5077.36a16,16,0,0,1-16,16h-160a16,16,0,0,1-16-16v-160a16,16,0,0,1,16-16h160a16,16,0,0,1,16,16Z" fill="#fff" stroke="#e4e8ea" stroke-width="4"/><path d="M8287.309-5253.362v74.854l23.864-22.837a2.307,2.307,0,0,1,3.254-.254,2.158,2.158,0,0,1,.255.254l23.864,22.837v-74.854Z" transform="translate(0 -2)" fill="#ed7c8a"/><path d="M8282.914-5112.589a5.637,5.637,0,0,1-5.635,5.637h-33.8a5.633,5.633,0,0,1-5.637-5.627v-.009a5.636,5.636,0,0,1,5.634-5.637h33.8A5.641,5.641,0,0,1,8282.914-5112.589Z" fill="#e4e8ea"/><path d="M8299.43-5146.252a5.634,5.634,0,0,1-5.634,5.637h-50.319a5.63,5.63,0,0,1-5.637-5.627v-.009a5.636,5.636,0,0,1,5.633-5.637h50.321A5.638,5.638,0,0,1,8299.43-5146.252Z" fill="#e4e8ea"/><path d="M8217.05-5087.362h192v10a16,16,0,0,1-16,16h-160a16,16,0,0,1-16-16v-10Z" fill="#e4e8ea"/><path d="M8387.47-5175.04c-.12-.06-.229-.12-.35-.17l.689-.49v.85A3.673,3.673,0,0,0,8387.47-5175.04Z" fill="indigo"/><path d="M8387.47-5098.7a3.459,3.459,0,0,0,.34-.19v.85l-.689-.49C8387.24-5098.59,8387.35-5098.64,8387.47-5098.7Z" fill="indigo"/></g><g transform="translate(-550 728.045)"><rect width="359.2" height="2.7" transform="translate(1403.3 4609.406)" fill="#e4e8ea"/><rect width="49" height="2.7" transform="translate(1793 4609.406)" fill="#e4e8ea"/><rect width="15.9" height="2.7" transform="translate(1380 4609.406)" fill="#e4e8ea"/><rect width="15.6" height="2.699" transform="translate(1436.9 4631.106)" fill="#e4e8ea"/><rect width="28.2" height="2.699" transform="translate(1474.8 4631.106)" fill="#e4e8ea"/><rect width="12.6" height="2.699" transform="translate(1702.5 4631.106)" fill="#e4e8ea"/><rect width="54.6" height="2.699" transform="translate(1730.2 4631.106)" fill="#e4e8ea"/><rect width="13.8" height="2.7" transform="translate(1413.9 4649.506)" fill="#e4e8ea"/><rect width="13.8" height="2.7" transform="translate(1791.7 4649.506)" fill="#e4e8ea"/></g><g transform="translate(-554.423 746)"><path d="M121.6,48.406l-3-1.3,1.3-3a1.576,1.576,0,0,0-.8-2,1.461,1.461,0,0,0-2,.8l-1.3,3-3-1.3a1.523,1.523,0,0,0-1.2,2.8l3,1.3-1.3,3a1.523,1.523,0,1,0,2.8,1.2l1.3-3,3,1.3a1.541,1.541,0,0,0,2-.8,1.681,1.681,0,0,0-.8-2" transform="translate(1380 4270)" fill="#e4e8ea"/><path d="M15.7,116.206l-2-.9.9-2a.985.985,0,1,0-1.8-.8l-.9,2-2.1-.9a.985.985,0,1,0-.8,1.8l2.1.9-.9,2a.985.985,0,1,0,1.8.8l.9-2,2,.9a.992.992,0,0,0,1.3-.5c.3-.4,0-1-.5-1.3" transform="translate(1380 4270)" fill="#e4e8ea"/><path d="M459.9,120.106l-2-.9.9-2a.984.984,0,1,0-1.8-.8l-.9,2-2.1-.9a.985.985,0,0,0-.8,1.8l2.1.9-.9,2a.985.985,0,0,0,1.8.8l.9-2,2,.9a.993.993,0,0,0,1.3-.5,1.063,1.063,0,0,0-.5-1.3" transform="translate(1380 4270)" fill="#e4e8ea"/><path d="M353,19.806a6.124,6.124,0,0,0-6.1,6.1,6.1,6.1,0,0,0,12.2,0,6.124,6.124,0,0,0-6.1-6.1m0,9.4a3.4,3.4,0,1,1,3.4-3.4,3.372,3.372,0,0,1-3.4,3.4" transform="translate(1380 4270)" fill="#e4e8ea"/><path d="M66.6,84.206a6.124,6.124,0,0,0-6.1,6.1,6.1,6.1,0,1,0,6.1-6.1m0,9.4a3.4,3.4,0,1,1,3.4-3.4,3.372,3.372,0,0,1-3.4,3.4" transform="translate(1380 4270)" fill="#e4e8ea"/><path d="M305.2,56.906a3.8,3.8,0,1,0,3.8,3.8,3.736,3.736,0,0,0-3.8-3.8m0,5.8a2.1,2.1,0,1,1,2.1-2.1,2.051,2.051,0,0,1-2.1,2.1" transform="translate(1380 4270)" fill="#e4e8ea"/><path d="M259.7,37.006H175.3l-.2-.9c-1.1-5.3-.6-9.6,1.8-12.8a15.419,15.419,0,0,1,11.8-6.7,27.462,27.462,0,0,1,5.7.5,18.878,18.878,0,0,0,6.2.4c4.7-.6,8.2-4.4,11.8-8.3,3.7-4,7.6-8.2,13.1-9.1,5.9-.8,12.3,3,15.2,9.1l.9,2.1a11.567,11.567,0,0,0,2.4,4.2,10.85,10.85,0,0,0,4.6,2.1,22.429,22.429,0,0,1,2.4.8c6.4,2.6,10.2,10,8.9,17.7Zm-82.4-2.4h80.4c.6-6.2-2.5-12-7.6-14.1-.7-.3-1.5-.5-2.2-.8a13.471,13.471,0,0,1-5.5-2.7c-1.5-1.4-2.2-3.3-3-5-.3-.7-.5-1.3-.8-1.9-2.4-5.2-7.8-8.4-12.7-7.7-4.6.7-8.1,4.4-11.7,8.3-3.8,4.1-7.7,8.3-13.2,9.1a19.8,19.8,0,0,1-6.9-.4,23.473,23.473,0,0,0-5.2-.5,13.5,13.5,0,0,0-10,5.7c-1.9,2.6-2.4,5.8-1.6,10" transform="translate(1380 4270)" fill="#f0f0f2"/><path d="M439.6,83.406H381.3l-.3-.7a12.491,12.491,0,0,1,.7-12.7,13.085,13.085,0,0,1,12-5.3,27.409,27.409,0,0,1,2.8.5c2.3.5,4.5,1,6.1-.1,1.3-.9,1.8-2.5,2.4-4.4a12.2,12.2,0,0,1,2-4.5c2.5-3.5,7.3-3.9,10.7-2.5,3.1,1.2,5.6,3.9,7.5,7.9l.2.5c.8,1.6,1.6,3.3,2.9,4a5.123,5.123,0,0,0,2.5.2,12.745,12.745,0,0,1,2.7.2c2.9.5,5.5,3.2,6.4,6.6.7,2.6.3,5.7,0,8.4Zm-56.8-2.4h54.6c.3-2.5.6-5.2,0-7.4a6.272,6.272,0,0,0-4.6-4.8,7.411,7.411,0,0,0-2.1-.1,10.78,10.78,0,0,1-3.5-.4c-2.2-1-3.2-3.2-4.1-5.1l-.2-.5c-1.7-3.4-3.8-5.7-6.3-6.7s-6.1-.8-7.9,1.7a10.917,10.917,0,0,0-1.6,3.8c-.6,2.1-1.3,4.4-3.3,5.7-2.5,1.7-5.4,1-8,.5a23.765,23.765,0,0,0-2.6-.5,10.641,10.641,0,0,0-9.8,4.3,10.2,10.2,0,0,0-.6,9.5" transform="translate(1380 4270)" fill="#f0f0f2"/></g></g><g transform="translate(-7348.935 10510.581)"><path d="M9079.935-5363.581a62,62,0,0,1-62,62h0a62,62,0,0,1-62-62h0a62,62,0,0,1,62-62h0a62,62,0,0,1,62,62Z" fill="indigo"/><path d="M9043.25-5345.129l-18.455-18.456,18.448-18.448-6.862-6.862-18.448,18.448-18.453-18.454-6.863,6.863,18.453,18.454-18.453,18.453,6.862,6.862,18.453-18.453,18.455,18.455Z" fill="#fff"/></g></g><rect width="512" height="512" transform="translate(1287 4974)" fill="none"/></g></svg>