<svg xmlns="http://www.w3.org/2000/svg" width="512" height="512" viewBox="0 0 512 512"><g transform="translate(-119 -4963)"><g transform="translate(-1152 -161.626)"><g transform="translate(-87.423 932.626)"><path d="M121.6,48.406l-3-1.3,1.3-3a1.576,1.576,0,0,0-.8-2,1.461,1.461,0,0,0-2,.8l-1.3,3-3-1.3a1.523,1.523,0,0,0-1.2,2.8l3,1.3-1.3,3a1.523,1.523,0,1,0,2.8,1.2l1.3-3,3,1.3a1.541,1.541,0,0,0,2-.8,1.681,1.681,0,0,0-.8-2" transform="translate(1380 4270)" fill="#e4e8ea"/><path d="M15.7,116.206l-2-.9.9-2a.985.985,0,1,0-1.8-.8l-.9,2-2.1-.9a.985.985,0,1,0-.8,1.8l2.1.9-.9,2a.985.985,0,1,0,1.8.8l.9-2,2,.9a.992.992,0,0,0,1.3-.5c.3-.4,0-1-.5-1.3" transform="translate(1380 4270)" fill="#e4e8ea"/><path d="M459.9,120.106l-2-.9.9-2a.984.984,0,1,0-1.8-.8l-.9,2-2.1-.9a.985.985,0,0,0-.8,1.8l2.1.9-.9,2a.985.985,0,0,0,1.8.8l.9-2,2,.9a.993.993,0,0,0,1.3-.5,1.063,1.063,0,0,0-.5-1.3" transform="translate(1380 4270)" fill="#e4e8ea"/><path d="M353,19.806a6.124,6.124,0,0,0-6.1,6.1,6.1,6.1,0,0,0,12.2,0,6.124,6.124,0,0,0-6.1-6.1m0,9.4a3.4,3.4,0,1,1,3.4-3.4,3.372,3.372,0,0,1-3.4,3.4" transform="translate(1380 4270)" fill="#e4e8ea"/><path d="M66.6,84.206a6.124,6.124,0,0,0-6.1,6.1,6.1,6.1,0,1,0,6.1-6.1m0,9.4a3.4,3.4,0,1,1,3.4-3.4,3.372,3.372,0,0,1-3.4,3.4" transform="translate(1380 4270)" fill="#e4e8ea"/><path d="M305.2,56.906a3.8,3.8,0,1,0,3.8,3.8,3.736,3.736,0,0,0-3.8-3.8m0,5.8a2.1,2.1,0,1,1,2.1-2.1,2.051,2.051,0,0,1-2.1,2.1" transform="translate(1380 4270)" fill="#e4e8ea"/><path d="M259.7,37.006H175.3l-.2-.9c-1.1-5.3-.6-9.6,1.8-12.8a15.419,15.419,0,0,1,11.8-6.7,27.462,27.462,0,0,1,5.7.5,18.878,18.878,0,0,0,6.2.4c4.7-.6,8.2-4.4,11.8-8.3,3.7-4,7.6-8.2,13.1-9.1,5.9-.8,12.3,3,15.2,9.1l.9,2.1a11.567,11.567,0,0,0,2.4,4.2,10.85,10.85,0,0,0,4.6,2.1,22.429,22.429,0,0,1,2.4.8c6.4,2.6,10.2,10,8.9,17.7Zm-82.4-2.4h80.4c.6-6.2-2.5-12-7.6-14.1-.7-.3-1.5-.5-2.2-.8a13.471,13.471,0,0,1-5.5-2.7c-1.5-1.4-2.2-3.3-3-5-.3-.7-.5-1.3-.8-1.9-2.4-5.2-7.8-8.4-12.7-7.7-4.6.7-8.1,4.4-11.7,8.3-3.8,4.1-7.7,8.3-13.2,9.1a19.8,19.8,0,0,1-6.9-.4,23.473,23.473,0,0,0-5.2-.5,13.5,13.5,0,0,0-10,5.7c-1.9,2.6-2.4,5.8-1.6,10" transform="translate(1380 4270)" fill="#f0f0f2"/><path d="M439.6,83.406H381.3l-.3-.7a12.491,12.491,0,0,1,.7-12.7,13.085,13.085,0,0,1,12-5.3,27.409,27.409,0,0,1,2.8.5c2.3.5,4.5,1,6.1-.1,1.3-.9,1.8-2.5,2.4-4.4a12.2,12.2,0,0,1,2-4.5c2.5-3.5,7.3-3.9,10.7-2.5,3.1,1.2,5.6,3.9,7.5,7.9l.2.5c.8,1.6,1.6,3.3,2.9,4a5.123,5.123,0,0,0,2.5.2,12.745,12.745,0,0,1,2.7.2c2.9.5,5.5,3.2,6.4,6.6.7,2.6.3,5.7,0,8.4Zm-56.8-2.4h54.6c.3-2.5.6-5.2,0-7.4a6.272,6.272,0,0,0-4.6-4.8,7.411,7.411,0,0,0-2.1-.1,10.78,10.78,0,0,1-3.5-.4c-2.2-1-3.2-3.2-4.1-5.1l-.2-.5c-1.7-3.4-3.8-5.7-6.3-6.7s-6.1-.8-7.9,1.7a10.917,10.917,0,0,0-1.6,3.8c-.6,2.1-1.3,4.4-3.3,5.7-2.5,1.7-5.4,1-8,.5a23.765,23.765,0,0,0-2.6-.5,10.641,10.641,0,0,0-9.8,4.3,10.2,10.2,0,0,0-.6,9.5" transform="translate(1380 4270)" fill="#f0f0f2"/></g><g transform="translate(-84 906.594)"><rect width="359.2" height="2.7" transform="translate(1403.3 4609.406)" fill="#e4e8ea"/><rect width="49" height="2.7" transform="translate(1793 4609.406)" fill="#e4e8ea"/><rect width="15.9" height="2.7" transform="translate(1380 4609.406)" fill="#e4e8ea"/><rect width="15.6" height="2.699" transform="translate(1436.9 4631.106)" fill="#e4e8ea"/><rect width="28.2" height="2.699" transform="translate(1474.8 4631.106)" fill="#e4e8ea"/><rect width="12.6" height="2.699" transform="translate(1702.5 4631.106)" fill="#e4e8ea"/><rect width="54.6" height="2.699" transform="translate(1730.2 4631.106)" fill="#e4e8ea"/><rect width="13.8" height="2.7" transform="translate(1413.9 4649.506)" fill="#e4e8ea"/><rect width="13.8" height="2.7" transform="translate(1791.7 4649.506)" fill="#e4e8ea"/></g><g transform="translate(46 46)"><g transform="translate(1282 5348.137)"><g transform="translate(0 0.001)" fill="#fff" stroke="#e4e8ea" stroke-width="4"><rect width="121.425" height="121.425" rx="16" stroke="none"/><rect x="2" y="2" width="117.425" height="117.425" rx="14" fill="none"/></g><path d="M8123.5-4727.532h121.425v4.26a11.361,11.361,0,0,1-11.361,11.362h-98.7a11.361,11.361,0,0,1-11.361-11.362v-4.26Z" transform="translate(-8123.5 4833.336)" fill="#e4e8ea"/><path d="M8218.758-4876.533v47.34l-15.092-14.443a1.486,1.486,0,0,0-.162-.161,1.46,1.46,0,0,0-2.058.161l-15.092,14.443v-47.34Z" transform="translate(-8141.722 4876.533)" fill="#7f9fb0"/><g transform="translate(13.347 66.393)"><path d="M8170.8-4749.49a3.564,3.564,0,0,1-3.563,3.564h-21.375a3.562,3.562,0,0,1-3.564-3.56v0a3.564,3.564,0,0,1,3.563-3.565h21.376A3.566,3.566,0,0,1,8170.8-4749.49Z" transform="translate(-8142.298 4774.341)" fill="#e4e8ea"/><path d="M8181.249-4779.468a3.565,3.565,0,0,1-3.563,3.564h-31.823a3.561,3.561,0,0,1-3.564-3.561v0a3.564,3.564,0,0,1,3.563-3.565h31.823A3.566,3.566,0,0,1,8181.249-4779.468Z" transform="translate(-8142.298 4783.033)" fill="#e4e8ea"/></g></g><g transform="translate(1538.877 5328.849)"><g transform="translate(0 0.001)" fill="#fff" stroke="#e4e8ea" stroke-width="4"><rect width="140.713" height="140.713" rx="16" stroke="none"/><rect x="2" y="2" width="136.713" height="136.713" rx="14" fill="none"/></g><path d="M8123.5-4727.532h140.71v4.937a13.167,13.167,0,0,1-13.167,13.166H8136.665a13.165,13.165,0,0,1-13.165-13.166v-4.937Z" transform="translate(-8123.5 4850.142)" fill="#e4e8ea"/><path d="M8223.905-4876.533v54.859l-17.489-16.737a1.61,1.61,0,0,0-.187-.187,1.692,1.692,0,0,0-2.385.187l-17.489,16.737v-54.859Z" transform="translate(-8134.632 4876.533)" fill="#ed7c8a"/><g transform="translate(15.467 76.939)"><path d="M8175.33-4748.924a4.13,4.13,0,0,1-4.129,4.131H8146.43a4.128,4.128,0,0,1-4.13-4.125v-.006a4.13,4.13,0,0,1,4.129-4.13H8171.2A4.132,4.132,0,0,1,8175.33-4748.924Z" transform="translate(-8142.298 4777.723)" fill="#e4e8ea"/><path d="M8187.436-4778.9a4.131,4.131,0,0,1-4.13,4.131h-36.878a4.127,4.127,0,0,1-4.13-4.126v0a4.13,4.13,0,0,1,4.129-4.131H8183.3A4.133,4.133,0,0,1,8187.436-4778.9Z" transform="translate(-8142.297 4783.033)" fill="#e4e8ea"/></g></g><g transform="translate(1376.685 5278)"><rect width="192" height="192" rx="16" transform="translate(0.315)" fill="indigo"/><path d="M8186.355-4876.533v74.854l23.864-22.838a2.309,2.309,0,0,1,3.255-.254,2.235,2.235,0,0,1,.255.254l23.863,22.838v-74.854" transform="translate(-8115.781 4876.533)" fill="#7744ad" stroke="#7744ad" stroke-linejoin="round" stroke-width="4"/><g transform="translate(21.105 101.476)"><path d="M8187.37-4747.418a5.636,5.636,0,0,1-5.635,5.636h-33.8a5.632,5.632,0,0,1-5.637-5.629v-.007a5.636,5.636,0,0,1,5.634-5.637h33.8A5.64,5.64,0,0,1,8187.37-4747.418Z" transform="translate(-8142.296 4786.715)" fill="#7744ad"/><path d="M8203.888-4777.4a5.636,5.636,0,0,1-5.635,5.637h-50.319a5.632,5.632,0,0,1-5.637-5.629v-.007a5.636,5.636,0,0,1,5.634-5.637h50.32A5.639,5.639,0,0,1,8203.888-4777.4Z" transform="translate(-8142.297 4783.033)" fill="#7744ad"/></g><path d="M0,0H192a0,0,0,0,1,0,0V10a16,16,0,0,1-16,16H16A16,16,0,0,1,0,10V0A0,0,0,0,1,0,0Z" transform="translate(0.315 166)" fill="#7744ad"/></g></g></g><rect width="512" height="512" transform="translate(119 4963)" fill="none"/></g></svg>