<?xml version="1.0" encoding="utf-8"?>
<!-- Generator: Adobe Illustrator 16.0.0, SVG Export Plug-In . SVG Version: 6.00 Build 0)  -->
<!DOCTYPE svg PUBLIC "-//W3C//DTD SVG 1.1//EN" "http://www.w3.org/Graphics/SVG/1.1/DTD/svg11.dtd">
<svg version="1.1" id="Layer_1" xmlns="http://www.w3.org/2000/svg" xmlns:xlink="http://www.w3.org/1999/xlink" x="0px" y="0px"
	 width="800px" height="533px" viewBox="0 0 800 533" enable-background="new 0 0 800 533" xml:space="preserve">
<rect fill="#FF8040" width="800" height="533"/>
<g>
	<path fill="#FFFFFF" stroke="#1F1A17" stroke-miterlimit="10" d="M481.392,83.5h-80.51h-80.51
		c-3.639,48-62.871,69.465-62.871,69.465v125.132c6,132.253,143,175.489,143,175.489s137-43.236,143-175.489V152.965
		C543.5,152.965,485.03,131.5,481.392,83.5z"/>
	<path fill="#FCD900" stroke="#1F1A17" stroke-miterlimit="10" d="M472.124,93.5h-70.692h-71.408
		c-3.354,45-61.523,66.182-61.523,66.182v115.751c6,124.103,132,164.674,132,164.674s127-40.571,132-164.674V158.012
		C532.5,158.012,475.477,138.5,472.124,93.5z"/>
	<ellipse fill="#0093DD" cx="404.697" cy="290.624" rx="84.326" ry="92.103"/>
	<path fill="#FFFFFF" stroke="#1F1A17" stroke-miterlimit="10" d="M368.979,196.074c0,0,30.854-11.159,61.278-0.763l-4.006,9.347
		c0,0-28.708-4.197-53.696,1.145L368.979,196.074z"/>
	<path fill="#FFFFFF" stroke="#1F1A17" stroke-miterlimit="10" d="M417.72,195.235l12.78,0.077v5.722
		C430.5,201.034,421.79,203.246,417.72,195.235z"/>
	<path fill="#FFFFFF" stroke="#1F1A17" stroke-miterlimit="10" d="M382.951,196.5h-13.973l0.238,5.875
		C369.217,202.375,380.996,201.5,382.951,196.5z"/>
	<path fill="#FFFFFF" stroke="#1F1A17" stroke-miterlimit="10" d="M331.643,223.289l14.194,15.513c0,0,15.944-22.439,39.881-27.529
		l-2.386-15.351C383.332,195.922,350.912,202.178,331.643,223.289z"/>
	<path fill="#FFFFFF" stroke="#1F1A17" stroke-miterlimit="10" d="M470.226,224.818l-14.394,13.54c0,0-11.922-21.233-41.924-28.229
		l3.194-14.894C417.103,195.235,444.576,198.053,470.226,224.818z"/>
	<path fill="#A31D2A" stroke="#1F1A17" stroke-miterlimit="10" d="M470.225,224.819l-14.393,13.539l-0.012,0.005
		c8.077,11.716,12.849,26.1,12.849,41.66c0,39.349-30.44,71.247-67.991,71.247c-37.551,0-67.991-31.603-67.991-70.951
		c0-15.759,4.889-28.818,13.156-41.818h-0.006l-14.194-15.362c-16.472,17.136-26.604,40.3-26.604,65.986
		c0,52.622,42.521,95.207,94.973,95.207s94.973-42.696,94.973-95.318C494.984,264.299,485.604,241.75,470.225,224.819z"/>
	<path fill="#FFFB00" stroke="#1F1A17" stroke-miterlimit="10" d="M350.523,219.512c0,0,3.306-14.026,16.786-12.754
		C367.31,206.758,366.997,214.146,350.523,219.512z"/>
	<path fill="none" stroke="#1F1A17" stroke-miterlimit="10" d="M367.31,206.758c0,0-10.442,5.569-16.786,12.754"/>
	<path fill="#FFFB00" stroke="#1F1A17" stroke-miterlimit="10" d="M335.264,329.394c0,0-4.196-6.783-15.832-7.867
		c0,0,4.578,18.333,18.502,12.345L335.264,329.394z"/>
	<path fill="none" stroke="#1F1A17" stroke-miterlimit="10" d="M319.432,321.526c0,0,8.202,8.796,18.502,12.345"/>
	<path fill="#FFFB00" stroke="#1F1A17" stroke-miterlimit="10" d="M326.55,313.371c0,0-4.367-6.676-16.026-7.466
		c0,0,5.039,18.211,18.808,11.874L326.55,313.371z"/>
	<path fill="none" stroke="#1F1A17" stroke-miterlimit="10" d="M310.524,305.905c0,0,8.421,8.586,18.808,11.874"/>
	<path fill="#FFFB00" stroke="#1F1A17" stroke-miterlimit="10" d="M321.352,297.075c0,0-2.064-7.705-12.894-12.097
		c0,0-0.899,18.875,14.16,17.153L321.352,297.075z"/>
	<path fill="none" stroke="#1F1A17" stroke-miterlimit="10" d="M308.458,284.979c0,0,5.32,10.786,14.16,17.153"/>
	<path fill="#FFFB00" stroke="#1F1A17" stroke-miterlimit="10" d="M320.677,280.142c0,0-0.069-7.978-9.456-14.938
		c0,0-5.594,18.048,9.417,20.151L320.677,280.142z"/>
	<path fill="none" stroke="#1F1A17" stroke-miterlimit="10" d="M311.221,265.203c0,0,2.451,11.773,9.417,20.151"/>
	<path fill="#FFFB00" stroke="#1F1A17" stroke-miterlimit="10" d="M322.165,263.162c0,0,2.362-7.619-4.459-17.107
		c0,0-10.823,15.489,2.835,22.063L322.165,263.162z"/>
	<path fill="none" stroke="#1F1A17" stroke-miterlimit="10" d="M317.706,246.055c0,0-1.25,11.961,2.835,22.063"/>
	<path fill="#FFFB00" stroke="#1F1A17" stroke-miterlimit="10" d="M327.83,247.048c0,0,3.226-6.465-1.484-15.944
		c0,0-11.939,12.262-0.693,20.134L327.83,247.048z"/>
	<path fill="none" stroke="#1F1A17" stroke-miterlimit="10" d="M326.346,231.104c0,0-2.867,10.509-0.693,20.134"/>
	<path fill="#FFFB00" stroke="#1F1A17" stroke-miterlimit="10" d="M335.206,234.183c0,0,4.22-5.061,2.028-14.463
		c0,0-13.169,8.378-4.838,17.725L335.206,234.183z"/>
	<path fill="none" stroke="#1F1A17" stroke-miterlimit="10" d="M337.234,219.72c0,0-4.748,8.726-4.838,17.725"/>
	<path fill="#FFFB00" stroke="#1F1A17" stroke-miterlimit="10" d="M345.07,224.156c0,0,4.08-3.64,3.427-11.623
		c0,0-11.83,5.272-6.131,13.958L345.07,224.156z"/>
	<path fill="none" stroke="#1F1A17" stroke-miterlimit="10" d="M348.497,212.533c0,0-4.96,6.583-6.131,13.958"/>
	<path fill="#FFFB00" stroke="#1F1A17" stroke-miterlimit="10" d="M345.592,223.863c0,0,3.147-3.768,10.33-3.417
		c0,0-4.383,10.771-12.347,5.913L345.592,223.863z"/>
	<path fill="none" stroke="#1F1A17" stroke-miterlimit="10" d="M355.922,220.447c0,0-5.762,4.646-12.347,5.913"/>
	<path fill="#FFFB00" stroke="#1F1A17" stroke-miterlimit="10" d="M336.576,233.372c0,0,3.897-3.497,11.426-2.027
		c0,0-6.274,10.699-13.937,4.352L336.576,233.372z"/>
	<path fill="none" stroke="#1F1A17" stroke-miterlimit="10" d="M348.002,231.345c0,0-6.793,4.022-13.937,4.352"/>
	<path fill="#FFFB00" stroke="#1F1A17" stroke-miterlimit="10" d="M327.375,245.378c0,0,3.89-5.948,14.278-6.652
		c0,0-4.489,16.225-16.757,10.579L327.375,245.378z"/>
	<path fill="none" stroke="#1F1A17" stroke-miterlimit="10" d="M341.652,238.727c0,0-7.503,7.649-16.757,10.579"/>
	<path fill="#FFFB00" stroke="#1F1A17" stroke-miterlimit="10" d="M322.365,260.509c0,0,2.887-7.437,14.129-10.628
		c0,0-1.152,18.861-15.937,15.517L322.365,260.509z"/>
	<path fill="none" stroke="#1F1A17" stroke-miterlimit="10" d="M336.494,249.881c0,0-6.458,10.146-15.937,15.517"/>
	<path fill="#FFFB00" stroke="#1F1A17" stroke-miterlimit="10" d="M319.659,277.495c0,0,1.5-7.835,11.983-12.998
		c0,0,2.264,18.76-12.881,18.133L319.659,277.495z"/>
	<path fill="none" stroke="#1F1A17" stroke-miterlimit="10" d="M331.643,264.497c0,0-4.524,11.143-12.881,18.133"/>
	<path fill="#FFFB00" stroke="#1F1A17" stroke-miterlimit="10" d="M322.572,296.956c0,0-1.208-7.886,6.943-16.26
		c0,0,8.41,16.921-6.07,21.399L322.572,296.956z"/>
	<path fill="none" stroke="#1F1A17" stroke-miterlimit="10" d="M329.516,280.696c0,0-0.535,12.015-6.07,21.399"/>
	<path fill="#FFFB00" stroke="#1F1A17" stroke-miterlimit="10" d="M327.552,312.66c0,0-1.907-7.783,5.508-16.884
		c0,0,9.914,16.187-4.18,21.95L327.552,312.66z"/>
	<path fill="none" stroke="#1F1A17" stroke-miterlimit="10" d="M333.061,295.776c0,0,0.528,12.07-4.18,21.95"/>
	<path fill="#FFFB00" stroke="#1F1A17" stroke-miterlimit="10" d="M336.304,331.404c0,0-4.207-7.118,0.401-18.322
		c0,0,14.625,13.029,2.423,22.929L336.304,331.404z"/>
	<path fill="none" stroke="#1F1A17" stroke-miterlimit="10" d="M336.705,313.082c0,0,4.124,11.765,2.423,22.929"/>
	<rect x="391.5" y="287.5" fill="#FFFFFF" stroke="#1F1A17" stroke-miterlimit="10" width="20" height="18"/>
	<line fill="none" stroke="#1F1A17" stroke-miterlimit="10" x1="394.5" y1="290" x2="394.5" y2="299"/>
	<line fill="none" stroke="#1F1A17" stroke-miterlimit="10" x1="398.5" y1="290" x2="398.5" y2="299"/>
	<line fill="none" stroke="#1F1A17" stroke-miterlimit="10" x1="401.5" y1="290" x2="401.5" y2="299"/>
	<line fill="none" stroke="#1F1A17" stroke-miterlimit="10" x1="405.5" y1="290" x2="405.5" y2="299"/>
	<line fill="none" stroke="#1F1A17" stroke-miterlimit="10" x1="408.5" y1="290" x2="408.5" y2="299"/>
	<g>
		<g>
			<path fill="#1F1A17" d="M380,352c0,0.553-0.448,1-1,1h-2c-0.552,0-1-0.447-1-1l0,0c0-0.553,0.448-1,1-1h2
				C379.552,351,380,351.447,380,352L380,352z"/>
			<rect x="377" y="346" fill="#1F1A17" width="3" height="7"/>
		</g>
		<g>
			<path fill="#1F1A17" d="M353,346.338c0,0.659-0.657,1.662-1.236,1.662h-1.717c-0.58,0-1.047-1.003-1.047-1.662v-0.217
				c0-0.658,0.467-1.121,1.047-1.121h1.717c0.579,0,1.236,0.463,1.236,1.121V346.338z"/>
			<rect x="350" y="339" fill="#1F1A17" width="2" height="8"/>
		</g>
		<g>
			<path fill="#1F1A17" d="M454,346.338c0,0.659-0.941,1.662-1.521,1.662h-1.717c-0.58,0-0.763-1.003-0.763-1.662v-0.217
				c0-0.658,0.183-1.121,0.763-1.121h1.717c0.579,0,1.521,0.463,1.521,1.121V346.338z"/>
			<rect x="450" y="339" fill="#1F1A17" width="3" height="8"/>
		</g>
		<g>
			<path fill="#1F1A17" d="M425,352c0,0.553-0.447,1-1,1h-2c-0.553,0-1-0.447-1-1l0,0c0-0.553,0.447-1,1-1h2
				C424.553,351,425,351.447,425,352L425,352z"/>
			<rect x="421" y="346" fill="#1F1A17" width="3" height="7"/>
		</g>
		<polygon fill="#1F1A17" points="423.34,298 400.881,298 400.119,298 377.992,298 348,305.104 348,339.343 377.992,347 
			400.119,347 400.881,347 423.34,347 454,339.343 454,305.104 		"/>
		<ellipse fill="#FFFB00" cx="401.263" cy="326.166" rx="1.145" ry="3.146"/>
		<ellipse fill="#FFFB00" cx="385.24" cy="326.166" rx="3.147" ry="1.145"/>
		
			<ellipse transform="matrix(0.1901 -0.9818 0.9818 0.1901 -19.2619 625.8083)" fill="#FFFB00" cx="369.666" cy="324.579" rx="1.144" ry="2.827"/>
		
			<ellipse transform="matrix(0.1901 -0.9818 0.9818 0.1901 -27.4007 609.8378)" fill="#FFFB00" cx="355.932" cy="321.527" rx="0.995" ry="2.457"/>
		<path fill="#FFFB00" d="M391.173,317.398c0.14,0.141,0.14,0.364,0,0.503l-0.046,0.046c-0.141,0.141-0.368,0.141-0.507,0.002
			l-3.369-3.341c-0.139-0.141-0.139-0.364,0.001-0.505l0.045-0.046c0.14-0.139,0.368-0.139,0.506,0L391.173,317.398z"/>
		<ellipse fill="#FFFB00" cx="387.743" cy="317.68" rx="0.685" ry="0.68"/>
		<ellipse fill="#FFFB00" cx="390.653" cy="314.462" rx="0.685" ry="0.68"/>
		<path fill="#FFFB00" d="M385.069,317.398c0.14,0.141,0.14,0.364,0,0.503l-0.046,0.046c-0.141,0.141-0.368,0.141-0.508,0.002
			l-3.369-3.341c-0.139-0.141-0.139-0.364,0.001-0.505l0.045-0.046c0.14-0.139,0.368-0.139,0.507,0L385.069,317.398z"/>
		<ellipse fill="#FFFB00" cx="381.639" cy="317.68" rx="0.685" ry="0.68"/>
		<ellipse fill="#FFFB00" cx="384.549" cy="314.462" rx="0.685" ry="0.68"/>
		<path fill="#FFFB00" d="M375.15,315.873c0.14,0.14,0.14,0.364,0,0.503l-0.046,0.046c-0.141,0.14-0.368,0.14-0.507,0.001
			l-3.369-3.341c-0.139-0.14-0.139-0.364,0.001-0.504l0.045-0.047c0.14-0.139,0.368-0.139,0.507,0L375.15,315.873z"/>
		<circle fill="#FFFB00" cx="371.72" cy="316.153" r="0.685"/>
		<ellipse fill="#FFFB00" cx="374.63" cy="312.937" rx="0.685" ry="0.679"/>
		<path fill="#FFFB00" d="M382.78,302.901c0.14,0.141,0.14,0.364,0,0.503l-0.046,0.047c-0.141,0.14-0.368,0.14-0.508,0.001
			l-3.369-3.341c-0.139-0.141-0.139-0.364,0.001-0.505l0.045-0.046c0.14-0.139,0.368-0.139,0.507,0L382.78,302.901z"/>
		<circle fill="#FFFB00" cx="379.35" cy="303.183" r="0.685"/>
		<ellipse fill="#FFFB00" cx="382.26" cy="299.965" rx="0.685" ry="0.68"/>
		<path fill="#FFFB00" d="M376.676,304.428c0.14,0.14,0.14,0.364,0,0.503l-0.046,0.046c-0.141,0.141-0.368,0.141-0.508,0.002
			l-3.369-3.342c-0.139-0.14-0.139-0.364,0.001-0.504l0.045-0.046c0.14-0.139,0.368-0.139,0.507,0L376.676,304.428z"/>
		<ellipse fill="#FFFB00" cx="373.246" cy="304.709" rx="0.685" ry="0.68"/>
		<ellipse fill="#FFFB00" cx="376.156" cy="301.491" rx="0.685" ry="0.68"/>
		<path fill="#FFFB00" d="M370.902,306.175c0.163,0.163,0.163,0.426,0,0.587l-0.054,0.054c-0.164,0.163-0.429,0.163-0.592,0.002
			l-3.931-3.897c-0.162-0.164-0.162-0.426,0.001-0.589l0.054-0.054c0.163-0.162,0.429-0.162,0.591,0L370.902,306.175z"/>
		<ellipse fill="#FFFB00" cx="366.9" cy="306.503" rx="0.799" ry="0.793"/>
		<ellipse fill="#FFFB00" cx="370.294" cy="302.749" rx="0.799" ry="0.793"/>
		<path fill="#FFFB00" d="M364.798,307.701c0.163,0.163,0.163,0.425,0,0.586l-0.054,0.055c-0.164,0.163-0.429,0.163-0.592,0.001
			l-3.931-3.897c-0.162-0.164-0.162-0.425,0.001-0.589l0.054-0.054c0.163-0.161,0.429-0.161,0.591,0L364.798,307.701z"/>
		<ellipse fill="#FFFB00" cx="364.19" cy="304.275" rx="0.799" ry="0.792"/>
		<path fill="#FFFB00" d="M388.122,302.901c0.14,0.141,0.14,0.364,0,0.503l-0.046,0.047c-0.141,0.14-0.368,0.14-0.507,0.001
			l-3.37-3.341c-0.139-0.141-0.139-0.364,0.001-0.505l0.045-0.046c0.14-0.139,0.368-0.139,0.507,0L388.122,302.901z"/>
		<circle fill="#FFFB00" cx="384.691" cy="303.183" r="0.685"/>
		<ellipse fill="#FFFB00" cx="387.601" cy="299.965" rx="0.685" ry="0.68"/>
		<path fill="#FFFB00" d="M393.462,302.901c0.14,0.141,0.14,0.364,0,0.503l-0.046,0.047c-0.141,0.14-0.368,0.14-0.507,0.001
			l-3.369-3.341c-0.139-0.141-0.139-0.364,0.001-0.505l0.045-0.046c0.14-0.139,0.368-0.139,0.506,0L393.462,302.901z"/>
		<circle fill="#FFFB00" cx="390.032" cy="303.183" r="0.685"/>
		<ellipse fill="#FFFB00" cx="392.942" cy="299.965" rx="0.685" ry="0.68"/>
		<path fill="#FFFB00" d="M398.803,302.901c0.14,0.141,0.14,0.364,0,0.503l-0.046,0.047c-0.141,0.14-0.368,0.14-0.507,0.001
			l-3.37-3.341c-0.139-0.141-0.139-0.364,0.001-0.505l0.045-0.046c0.14-0.139,0.368-0.139,0.507,0L398.803,302.901z"/>
		<circle fill="#FFFB00" cx="395.373" cy="303.183" r="0.685"/>
		<ellipse fill="#FFFB00" cx="398.283" cy="299.965" rx="0.685" ry="0.68"/>
		<path fill="#FFFB00" d="M369.046,314.347c0.14,0.14,0.14,0.364,0,0.503L369,314.896c-0.141,0.141-0.368,0.141-0.507,0.002
			l-3.369-3.341c-0.139-0.141-0.139-0.365,0.001-0.505l0.045-0.046c0.14-0.139,0.368-0.139,0.506,0L369.046,314.347z"/>
		<ellipse fill="#FFFB00" cx="365.616" cy="314.628" rx="0.685" ry="0.68"/>
		<ellipse fill="#FFFB00" cx="368.526" cy="311.41" rx="0.685" ry="0.68"/>
		<path fill="#FFFB00" d="M362.497,312.521c0.108,0.107,0.108,0.281,0,0.389l-0.036,0.035c-0.109,0.109-0.285,0.109-0.393,0.002
			l-2.609-2.587c-0.107-0.108-0.107-0.282,0.001-0.391l0.035-0.036c0.108-0.106,0.285-0.106,0.392,0L362.497,312.521z"/>
		<circle fill="#FFFB00" cx="359.841" cy="312.738" r="0.53"/>
		<circle fill="#FFFB00" cx="362.094" cy="310.247" r="0.53"/>
		<path fill="#FFFB00" d="M357.155,310.995c0.108,0.108,0.108,0.281,0,0.389l-0.036,0.036c-0.109,0.108-0.285,0.108-0.393,0.001
			l-2.608-2.587c-0.107-0.107-0.107-0.281,0.001-0.391l0.035-0.035c0.108-0.107,0.285-0.107,0.393,0L357.155,310.995z"/>
		<ellipse fill="#FFFB00" cx="354.5" cy="311.213" rx="0.531" ry="0.525"/>
		<circle fill="#FFFB00" cx="356.752" cy="308.721" r="0.53"/>
		<path fill="#FFFB00" d="M352.34,309.31c0.091,0.091,0.091,0.237,0,0.329l-0.03,0.029c-0.092,0.093-0.241,0.093-0.332,0.002
			l-2.204-2.186c-0.09-0.092-0.09-0.238,0.001-0.33l0.029-0.03c0.091-0.091,0.241-0.091,0.332,0L352.34,309.31z"/>
		<circle fill="#FFFB00" cx="350.096" cy="309.494" r="0.448"/>
		<circle fill="#FFFB00" cx="352" cy="307.388" r="0.448"/>
		<polygon fill="#FFFB00" points="422.134,306 400.881,306 379.518,306 373,309 379.518,312 393,312 393,319 409,319 409,312 
			422.134,312 428.65,309 		"/>
		<ellipse fill="#FFFB00" cx="416.411" cy="326.166" rx="3.147" ry="1.145"/>
		
			<ellipse transform="matrix(-0.1903 -0.9817 0.9817 -0.1903 195.5386 810.4341)" fill="#FFFB00" cx="431.985" cy="324.579" rx="1.144" ry="2.828"/>
		
			<ellipse transform="matrix(-0.1904 -0.9817 0.9817 -0.1904 214.9182 820.3016)" fill="#FFFB00" cx="445.72" cy="321.527" rx="0.995" ry="2.458"/>
		<path fill="#FFFB00" d="M411.24,317.398c-0.139,0.141-0.139,0.364,0,0.503l0.047,0.046c0.141,0.141,0.367,0.141,0.508,0.002
			l3.369-3.341c0.139-0.141,0.139-0.364-0.002-0.505l-0.045-0.046c-0.14-0.139-0.367-0.139-0.507,0L411.24,317.398z"/>
		<circle fill="#FFFB00" cx="414.671" cy="317.68" r="0.685"/>
		<ellipse fill="#FFFB00" cx="411.761" cy="314.462" rx="0.685" ry="0.68"/>
		<path fill="#FFFB00" d="M417.345,317.398c-0.14,0.141-0.14,0.364,0,0.503l0.046,0.046c0.141,0.141,0.367,0.141,0.508,0.002
			l3.369-3.341c0.139-0.141,0.139-0.364-0.001-0.505l-0.046-0.046c-0.139-0.139-0.367-0.139-0.507,0L417.345,317.398z"/>
		<ellipse fill="#FFFB00" cx="420.775" cy="317.68" rx="0.685" ry="0.68"/>
		<ellipse fill="#FFFB00" cx="417.865" cy="314.462" rx="0.686" ry="0.68"/>
		<path fill="#FFFB00" d="M426.501,315.873c-0.14,0.14-0.14,0.364,0,0.503l0.046,0.046c0.141,0.14,0.367,0.14,0.508,0.001
			l3.369-3.341c0.139-0.14,0.139-0.364-0.002-0.504l-0.045-0.047c-0.14-0.139-0.367-0.139-0.507,0L426.501,315.873z"/>
		<circle fill="#FFFB00" cx="429.931" cy="316.153" r="0.685"/>
		<ellipse fill="#FFFB00" cx="427.021" cy="312.937" rx="0.685" ry="0.679"/>
		<path fill="#FFFB00" d="M418.871,302.901c-0.14,0.141-0.14,0.364,0,0.503l0.046,0.047c0.141,0.14,0.367,0.14,0.508,0.001
			l3.369-3.341c0.139-0.141,0.139-0.364-0.002-0.505l-0.045-0.046c-0.14-0.139-0.367-0.139-0.507,0L418.871,302.901z"/>
		<circle fill="#FFFB00" cx="422.301" cy="303.183" r="0.685"/>
		<ellipse fill="#FFFB00" cx="419.391" cy="299.965" rx="0.685" ry="0.68"/>
		<path fill="#FFFB00" d="M424.975,304.428c-0.139,0.14-0.139,0.364,0,0.503l0.047,0.046c0.141,0.141,0.367,0.141,0.507,0.002
			l3.369-3.342c0.139-0.14,0.139-0.364-0.001-0.504l-0.046-0.046c-0.139-0.139-0.367-0.139-0.507,0L424.975,304.428z"/>
		<ellipse fill="#FFFB00" cx="428.405" cy="304.709" rx="0.685" ry="0.68"/>
		<ellipse fill="#FFFB00" cx="425.496" cy="301.491" rx="0.685" ry="0.68"/>
		<path fill="#FFFB00" d="M430.749,306.175c-0.163,0.163-0.163,0.426,0,0.587l0.055,0.054c0.164,0.163,0.429,0.163,0.592,0.002
			l3.932-3.897c0.161-0.164,0.161-0.426-0.002-0.589l-0.054-0.054c-0.162-0.162-0.429-0.162-0.591,0L430.749,306.175z"/>
		<ellipse fill="#FFFB00" cx="434.751" cy="306.503" rx="0.799" ry="0.793"/>
		<ellipse fill="#FFFB00" cx="431.357" cy="302.749" rx="0.799" ry="0.793"/>
		<path fill="#FFFB00" d="M436.854,307.701c-0.163,0.163-0.163,0.425,0,0.586l0.055,0.055c0.164,0.163,0.428,0.163,0.591,0.001
			l3.932-3.897c0.162-0.164,0.162-0.425-0.001-0.589l-0.054-0.054c-0.163-0.161-0.43-0.161-0.591,0L436.854,307.701z"/>
		<ellipse fill="#FFFB00" cx="437.461" cy="304.275" rx="0.799" ry="0.792"/>
		<path fill="#FFFB00" d="M413.529,302.901c-0.139,0.141-0.139,0.364,0,0.503l0.047,0.047c0.141,0.14,0.367,0.14,0.508,0.001
			l3.369-3.341c0.139-0.141,0.139-0.364-0.002-0.505l-0.045-0.046c-0.14-0.139-0.367-0.139-0.507,0L413.529,302.901z"/>
		<circle fill="#FFFB00" cx="416.96" cy="303.183" r="0.685"/>
		<ellipse fill="#FFFB00" cx="414.05" cy="299.965" rx="0.685" ry="0.68"/>
		<path fill="#FFFB00" d="M408.189,302.901c-0.141,0.141-0.141,0.364,0,0.503l0.045,0.047c0.142,0.14,0.368,0.14,0.508,0.001
			l3.369-3.341c0.14-0.141,0.14-0.364-0.001-0.505l-0.046-0.046c-0.139-0.139-0.367-0.139-0.506,0L408.189,302.901z"/>
		<circle fill="#FFFB00" cx="411.619" cy="303.183" r="0.686"/>
		<ellipse fill="#FFFB00" cx="408.709" cy="299.965" rx="0.685" ry="0.68"/>
		<path fill="#FFFB00" d="M402.848,302.901c-0.14,0.141-0.14,0.364,0,0.503l0.047,0.047c0.141,0.14,0.367,0.14,0.507,0.001
			l3.37-3.341c0.139-0.141,0.139-0.364-0.002-0.505l-0.045-0.046c-0.141-0.139-0.368-0.139-0.508,0L402.848,302.901z"/>
		<circle fill="#FFFB00" cx="406.278" cy="303.183" r="0.685"/>
		<circle fill="#FFFB00" cx="403.368" cy="299.965" r="0.685"/>
		<path fill="#FFFB00" d="M432.604,314.347c-0.139,0.14-0.139,0.364,0,0.503l0.047,0.046c0.141,0.141,0.367,0.141,0.507,0.002
			l3.369-3.341c0.139-0.141,0.139-0.365-0.001-0.505l-0.046-0.046c-0.139-0.139-0.367-0.139-0.506,0L432.604,314.347z"/>
		<ellipse fill="#FFFB00" cx="436.035" cy="314.628" rx="0.685" ry="0.68"/>
		<ellipse fill="#FFFB00" cx="433.125" cy="311.41" rx="0.685" ry="0.68"/>
		<path fill="#FFFB00" d="M439.155,312.521c-0.109,0.107-0.109,0.281,0,0.389l0.035,0.035c0.109,0.109,0.285,0.109,0.394,0.002
			l2.608-2.587c0.107-0.108,0.107-0.282-0.002-0.391l-0.035-0.036c-0.107-0.106-0.284-0.106-0.393,0L439.155,312.521z"/>
		<circle fill="#FFFB00" cx="441.811" cy="312.738" r="0.53"/>
		<circle fill="#FFFB00" cx="439.558" cy="310.247" r="0.53"/>
		<path fill="#FFFB00" d="M444.496,310.995c-0.108,0.108-0.108,0.281,0,0.389l0.036,0.036c0.108,0.108,0.284,0.108,0.393,0.001
			l2.608-2.587c0.107-0.107,0.107-0.281-0.002-0.391l-0.034-0.035c-0.108-0.107-0.285-0.107-0.394,0L444.496,310.995z"/>
		<ellipse fill="#FFFB00" cx="447.152" cy="311.213" rx="0.531" ry="0.525"/>
		<circle fill="#FFFB00" cx="444.898" cy="308.721" r="0.53"/>
		<path fill="#FFFB00" d="M449.311,309.31c-0.091,0.091-0.091,0.237,0,0.329l0.03,0.029c0.093,0.093,0.241,0.093,0.332,0.002
			l2.204-2.186c0.091-0.092,0.091-0.238-0.001-0.33l-0.03-0.03c-0.091-0.091-0.239-0.091-0.331,0L449.311,309.31z"/>
		<circle fill="#FFFB00" cx="451.554" cy="309.494" r="0.448"/>
		<circle fill="#FFFB00" cx="449.652" cy="307.388" r="0.448"/>
		<line fill="none" stroke="#FFFB00" stroke-miterlimit="10" x1="393.5" y1="319" x2="393.5" y2="333"/>
		<line fill="none" stroke="#FFFB00" stroke-miterlimit="10" x1="379.5" y1="311" x2="379.5" y2="333"/>
		<line fill="none" stroke="#FFFB00" stroke-miterlimit="10" x1="422.5" y1="311" x2="422.5" y2="333"/>
		<line fill="none" stroke="#FFFB00" stroke-miterlimit="10" x1="408.5" y1="319" x2="408.5" y2="333"/>
		<polygon fill="#FFFB00" points="424.534,332 377.992,332 351,325.824 351,338.246 377.992,345 424.534,345 451,338.246 
			451,325.824 		"/>
		<g>
			<path fill="#1F1A17" d="M384.72,342.882c-0.046,0.236-0.512,0.409-1.041,0.39l0,0c-0.528-0.021-0.921-0.229-0.875-0.464
				l1.756-8.942c0.047-0.235,0.513-0.409,1.042-0.389l0,0c0.529,0.021,0.921,0.229,0.874,0.463L384.72,342.882z"/>
			<path fill="#1F1A17" d="M395.137,342.882c0.046,0.236,0.512,0.409,1.041,0.39l0,0c0.529-0.021,0.921-0.229,0.875-0.464
				l-1.756-8.942c-0.047-0.235-0.513-0.409-1.042-0.389l0,0c-0.53,0.021-0.921,0.229-0.874,0.463L395.137,342.882z"/>
			<path fill="#1F1A17" d="M381.756,337h16.345C398.102,337,390.41,343,381.756,337z"/>
			<rect x="385" y="340" fill="#1F1A17" width="10" height="1"/>
			<rect x="385" y="335" fill="#1F1A17" width="10" height="1"/>
		</g>
		<g>
			<path fill="#1F1A17" d="M406.848,342.882c-0.047,0.236-0.513,0.409-1.041,0.39l0,0c-0.529-0.021-0.922-0.229-0.875-0.464
				l1.756-8.942c0.047-0.235,0.514-0.409,1.042-0.389l0,0c0.529,0.021,0.921,0.229,0.874,0.463L406.848,342.882z"/>
			<path fill="#1F1A17" d="M417.264,342.882c0.047,0.236,0.513,0.409,1.042,0.39l0,0c0.528-0.021,0.921-0.229,0.874-0.464
				l-1.756-8.942c-0.047-0.235-0.514-0.409-1.041-0.389l0,0c-0.53,0.021-0.922,0.229-0.875,0.463L417.264,342.882z"/>
			<path fill="#1F1A17" d="M403.883,337h16.346C420.229,337,412.537,343,403.883,337z"/>
			<rect x="407" y="340" fill="#1F1A17" width="10" height="1"/>
			<rect x="407" y="335" fill="#1F1A17" width="10" height="1"/>
		</g>
		<line fill="none" stroke="#1F1A17" stroke-miterlimit="10" x1="377.5" y1="331" x2="377.5" y2="346"/>
		<line fill="none" stroke="#1F1A17" stroke-miterlimit="10" x1="362.5" y1="327" x2="362.5" y2="342"/>
		<line fill="none" stroke="#1F1A17" stroke-miterlimit="10" x1="363.5" y1="327" x2="363.5" y2="342"/>
		<line fill="none" stroke="#1F1A17" stroke-miterlimit="10" x1="437.5" y1="327" x2="437.5" y2="342"/>
		<line fill="none" stroke="#1F1A17" stroke-miterlimit="10" x1="438.5" y1="327" x2="438.5" y2="342"/>
		<line fill="none" stroke="#1F1A17" stroke-miterlimit="10" x1="379.5" y1="332" x2="379.5" y2="346"/>
		<line fill="none" stroke="#1F1A17" stroke-miterlimit="10" x1="424.5" y1="330" x2="424.5" y2="346"/>
		<line fill="none" stroke="#1F1A17" stroke-miterlimit="10" x1="422.5" y1="332" x2="422.5" y2="346"/>
		<g>
			<path fill="#1F1A17" d="M376.102,341.357c0.034,0.424-0.517,0.814-0.861,0.842l-0.054,0.004
				c-0.344,0.028-0.651-0.292-0.685-0.716l-0.524-6.464c-0.035-0.423,0.216-0.789,0.561-0.816l0.053-0.005
				c0.344-0.028,0.951,0.269,0.985,0.691L376.102,341.357z"/>
			<path fill="#1F1A17" d="M366.558,339.495c-0.152,0.396-0.731,0.544-1.002,0.439l-0.042-0.015
				c-0.271-0.106-0.368-0.511-0.215-0.908l2.321-6.055c0.152-0.396,0.495-0.634,0.766-0.529l0.042,0.015
				c0.271,0.105,0.604,0.602,0.451,0.997L366.558,339.495z"/>
			
				<rect x="366.065" y="338.465" transform="matrix(0.9566 0.2912 -0.2912 0.9566 114.7525 -93.1905)" fill="#1F1A17" width="8.688" height="0.802"/>
			
				<rect x="367.441" y="334.471" transform="matrix(0.9567 0.2912 -0.2912 0.9567 113.6226 -93.6277)" fill="#1F1A17" width="7.776" height="0.802"/>
			<path fill="#1F1A17" d="M366.449,334.477l10.2,3.099C376.649,337.575,369.538,338.897,366.449,334.477z"/>
		</g>
		<g>
			<path fill="#1F1A17" d="M360.755,336.876c0.029,0.354-0.431,0.681-0.719,0.703l-0.045,0.004
				c-0.288,0.023-0.544-0.245-0.573-0.599l-0.438-5.401c-0.029-0.353,0.181-0.659,0.468-0.682l0.044-0.004
				c0.288-0.023,0.795,0.224,0.824,0.578L360.755,336.876z"/>
			<path fill="#1F1A17" d="M352.781,335.319c-0.127,0.332-0.611,0.454-0.837,0.367l-0.036-0.012
				c-0.226-0.089-0.307-0.427-0.18-0.759l1.94-5.059c0.126-0.332,0.413-0.53,0.64-0.443l0.035,0.013
				c0.226,0.088,0.504,0.503,0.377,0.833L352.781,335.319z"/>
			
				<rect x="352.37" y="334.458" transform="matrix(0.9567 0.2911 -0.2911 0.9567 112.8912 -89.1412)" fill="#1F1A17" width="7.259" height="0.671"/>
			
				<rect x="353.519" y="331.122" transform="matrix(0.9567 0.2911 -0.2911 0.9567 111.9544 -89.5103)" fill="#1F1A17" width="6.497" height="0.671"/>
			<path fill="#1F1A17" d="M352.69,331.127l8.522,2.589C361.213,333.716,355.271,334.82,352.69,331.127z"/>
		</g>
		<g>
			<path fill="#1F1A17" d="M425.463,341.357c-0.034,0.424,0.517,0.814,0.86,0.842l0.054,0.004c0.345,0.028,0.651-0.292,0.685-0.716
				l0.525-6.464c0.034-0.423-0.217-0.789-0.561-0.816l-0.054-0.005c-0.345-0.028-0.951,0.269-0.985,0.691L425.463,341.357z"/>
			<path fill="#1F1A17" d="M435.006,339.495c0.152,0.396,0.732,0.544,1.003,0.439l0.042-0.015c0.271-0.106,0.368-0.511,0.216-0.908
				l-2.321-6.055c-0.152-0.396-0.495-0.634-0.766-0.529l-0.042,0.015c-0.271,0.105-0.604,0.602-0.452,0.997L435.006,339.495z"/>
			
				<rect x="426.812" y="338.465" transform="matrix(-0.9566 0.2913 -0.2913 -0.9566 942.3173 537.4587)" fill="#1F1A17" width="8.687" height="0.802"/>
			
				<rect x="426.347" y="334.471" transform="matrix(-0.9567 0.2912 -0.2912 -0.9567 939.3434 529.9382)" fill="#1F1A17" width="7.777" height="0.802"/>
			<path fill="#1F1A17" d="M435.115,334.477l-10.199,3.099C424.916,337.575,432.027,338.897,435.115,334.477z"/>
		</g>
		<g>
			<path fill="#1F1A17" d="M440.81,336.876c-0.028,0.354,0.431,0.681,0.719,0.703l0.045,0.004c0.287,0.023,0.545-0.245,0.573-0.599
				l0.437-5.401c0.029-0.353-0.181-0.659-0.469-0.682l-0.044-0.004c-0.288-0.023-0.795,0.224-0.823,0.578L440.81,336.876z"/>
			<path fill="#1F1A17" d="M448.783,335.319c0.127,0.332,0.611,0.454,0.838,0.367l0.036-0.012c0.226-0.089,0.307-0.427,0.179-0.759
				l-1.939-5.059c-0.126-0.332-0.413-0.53-0.64-0.443l-0.035,0.013c-0.227,0.088-0.505,0.503-0.378,0.833L448.783,335.319z"/>
			
				<rect x="441.937" y="334.458" transform="matrix(-0.9567 0.2912 -0.2912 -0.9567 969.3083 525.3441)" fill="#1F1A17" width="7.258" height="0.67"/>
			
				<rect x="441.548" y="331.122" transform="matrix(-0.9567 0.2911 -0.2911 -0.9567 966.8253 519.0586)" fill="#1F1A17" width="6.497" height="0.671"/>
			<path fill="#1F1A17" d="M448.874,331.127l-8.522,2.589C440.352,333.716,446.294,334.82,448.874,331.127z"/>
		</g>
	</g>
	<rect x="389" y="271" fill="#1F1A17" width="24" height="19"/>
	<rect x="393" y="275" fill="#FFFFFF" width="7" height="12"/>
	<rect x="403" y="275" fill="#FFFFFF" width="2" height="12"/>
	<rect x="408" y="275" fill="#FFFFFF" width="2" height="12"/>
	<rect x="396" y="278" fill="#FFFFFF" width="9" height="2"/>
	<rect x="396" y="283" fill="#FFFFFF" width="8" height="1"/>
	<rect x="404" y="280" fill="#FFFFFF" width="5" height="2"/>
	<polygon fill="#FFFFFF" stroke="#1F1A17" stroke-miterlimit="10" points="382.569,272.5 420.72,272.5 411.619,263.453 
		405.459,219.5 396.304,219.5 391.344,262.977 	"/>
	<path fill="#1F1A17" d="M391.399,216.739l3.377,4.261h12.209l3.165-4.261c0,0-1.162-0.985-3.642-0.891c0,0-0.023-9.267-5.734-1.064
		c0,0-6.665-8.519-5.711,1.38C395.063,216.164,392.503,215.404,391.399,216.739z"/>
	<path fill="#FFFB00" d="M342.131,342.188c0,0-59.209-72.993,8.927-124.115c0,0,5.761-4.45,0.61,1.654
		c0,0-62.693,40.564-7.249,120.935C344.419,340.662,346.073,344.986,342.131,342.188z"/>
	<path fill="#FFFB00" stroke="#1F1A17" stroke-miterlimit="10" d="M342.131,342.188c0,0-59.209-72.993,8.927-124.115
		c0,0,5.761-4.45,0.61,1.654c0,0-62.693,40.564-7.249,120.935C344.419,340.662,346.073,344.986,342.131,342.188z"/>
	<g>
		<path fill="#FFFFFF" stroke="#1F1A17" stroke-miterlimit="10" d="M450.464,223.206c0,0-4.554-0.416-2.306-4.342
			c0,0-4.046-5.939,3.151-3.574c0,0,3.67-3.03,4.749,3.806C456.059,219.096,453.229,223.436,450.464,223.206z"/>
		<path fill="#00923F" stroke="#1F1A17" stroke-miterlimit="10" d="M448.751,223.808c0,0,2.095-0.018,2.993,0.915
			c0,0,1.338,2.816,4.235,1.585c0,0,2.131-1.044,3.574-0.015c0,0-0.608-1.72-0.448-2.208c0,0,0.765-4.252-1.816-5.546
			c0,0-1.411-0.442-1.427-3.542c0,0-1.7,0.41-1.161,3.666c0,0-2.303-1.503-3.909-0.431c0,0-0.472,2.11,0.704,3.415
			C451.496,221.646,448.887,222.154,448.751,223.808z"/>
	</g>
	<g>
		<path fill="#FFFFFF" stroke="#1F1A17" stroke-miterlimit="10" d="M460.284,235.446c0,0-5.895-0.538-2.984-5.622
			c0,0-5.238-7.689,4.08-4.627c0,0,4.751-3.922,6.148,4.927C467.528,230.125,463.864,235.744,460.284,235.446z"/>
		<path fill="#00923F" stroke="#1F1A17" stroke-miterlimit="10" d="M458.066,236.225c0,0,2.712-0.023,3.877,1.185
			c0,0,1.73,3.646,5.482,2.052c0,0,2.758-1.351,4.627-0.019c0,0-0.787-2.227-0.58-2.859c0,0,0.99-5.505-2.352-7.181
			c0,0-1.827-0.572-1.848-4.585c0,0-2.2,0.531-1.503,4.747c0,0-2.981-1.946-5.062-0.559c0,0-0.61,2.731,0.912,4.42
			C461.621,233.427,458.243,234.084,458.066,236.225z"/>
	</g>
	<g>
		<path fill="#FFFFFF" stroke="#1F1A17" stroke-miterlimit="10" d="M469.467,250.525c0,0-6.239-2.107-1.775-6.855
			c0,0-3.678-9.677,5.613-3.951c0,0,6.156-3.016,5.378,6.923C478.683,246.642,473.265,251.774,469.467,250.525z"/>
		<path fill="#00923F" stroke="#1F1A17" stroke-miterlimit="10" d="M466.865,250.795c0,0,2.94,0.676,3.888,2.285
			c0,0,0.931,4.394,5.401,3.64c0,0,3.335-0.749,5.013,1.176c0,0-0.274-2.614,0.113-3.244c0,0,2.495-5.702-0.688-8.38
			c0,0-1.828-1.092-0.813-5.439c0,0-2.517,0.004-2.854,4.747c0,0-2.723-2.877-5.334-1.914c0,0-1.365,2.798-0.157,5.02
			C471.435,248.686,467.61,248.523,466.865,250.795z"/>
	</g>
	<g>
		<path fill="#FFFFFF" stroke="#1F1A17" stroke-miterlimit="10" d="M476.047,265.96c0,0-5.958-2.806-0.981-7.014
			c0,0-2.55-10.033,6.027-3.285c0,0,6.461-2.293,4.553,7.491C485.646,263.152,479.677,267.634,476.047,265.96z"/>
		<path fill="#00923F" stroke="#1F1A17" stroke-miterlimit="10" d="M473.432,265.931c0,0,2.844,1.007,3.603,2.714
			c0,0,0.423,4.471,4.95,4.232c0,0,3.398-0.364,4.846,1.74c0,0,0.025-2.628,0.482-3.21c0,0,3.13-5.38,0.272-8.403
			c0,0-1.691-1.294-0.187-5.497c0,0-2.501-0.283-3.377,4.391c0,0-2.377-3.169-5.08-2.51c0,0-1.677,2.624-0.729,4.969
			C478.212,264.357,474.431,263.759,473.432,265.931z"/>
	</g>
	<g>
		<path fill="#FFFFFF" stroke="#1F1A17" stroke-miterlimit="10" d="M477.652,284.443c0,0-5.261-5.299,1.674-7.854
			c0,0,1.175-11.679,7.696-1.163c0,0,7.773,0.063,1.946,9.749C488.969,285.176,480.871,287.634,477.652,284.443z"/>
		<path fill="#00923F" stroke="#1F1A17" stroke-miterlimit="10" d="M474.878,283.398c0,0,2.64,2.176,2.785,4.288
			c0,0-1.283,4.928,3.634,6.429c0,0,3.762,0.931,4.487,3.733c0,0,1.047-2.789,1.76-3.231c0,0,5.421-4.519,3.549-8.849
			c0,0-1.301-2.034,1.934-5.929c0,0-2.557-1.271-5.302,3.368c0,0-1.303-4.298-4.439-4.645c0,0-2.805,2.146-2.703,5.012
			C480.582,283.575,476.784,281.472,474.878,283.398z"/>
	</g>
	<g>
		<path fill="#FFFFFF" stroke="#1F1A17" stroke-miterlimit="10" d="M472.188,304.042c0,0-3.836-8.307,5.219-8.341
			c0,0,6.246-12.956,9.348,1.887c0,0,8.925,3.329-1.843,12.039C484.912,309.627,474.558,309.065,472.188,304.042z"/>
		<path fill="#00923F" stroke="#1F1A17" stroke-miterlimit="10" d="M469.433,301.675c0,0,2.126,3.612,1.409,6.105
			c0,0-3.543,5.136,1.489,8.926c0,0,3.941,2.647,3.603,6.18c0,0,2.374-2.774,3.38-2.985c0,0,8.135-2.931,7.795-8.699
			c0,0-0.646-2.889,4.712-6.018c0,0-2.412-2.535-7.518,1.656c0,0,0.302-5.494-3.164-7.208c0,0-4.129,1.295-5.214,4.638
			C475.925,304.27,472.435,300.257,469.433,301.675z"/>
	</g>
	<g>
		<path fill="#FFFFFF" stroke="#1F1A17" stroke-miterlimit="10" d="M463.43,321.143c0,0-0.779-9.302,7.913-6.175
			c0,0,10.509-10.24,8.304,5.071c0,0,7.395,6.304-5.969,10.898C473.678,330.938,463.949,326.785,463.43,321.143z"/>
		<path fill="#00923F" stroke="#1F1A17" stroke-miterlimit="10" d="M461.613,317.912c0,0,0.777,4.205-0.779,6.345
			c0,0-5.188,3.688-1.686,9.076c0,0,2.854,3.915,1.297,7.182c0,0,3.243-1.832,4.28-1.683c0,0,8.822,0.028,10.51-5.62
			c0,0,0.389-2.993,6.616-4.125c0,0-1.428-3.271-7.784-1.034c0,0,2.206-5.162-0.519-8.014c0,0-4.41-0.199-6.616,2.626
			C466.933,322.665,464.985,317.6,461.613,317.912z"/>
	</g>
	<path fill="#1F1A17" d="M438.254,417.483c0.57,0.486,0.609,1.376,0.085,1.989l0,0c-0.525,0.613-1.413,0.718-1.983,0.232
		l-75.441-64.096c-0.57-0.485-0.608-1.376-0.084-1.99l0,0c0.524-0.613,1.412-0.717,1.983-0.232L438.254,417.483z"/>
	<path fill="#1F1A17" d="M369.587,413.317c-0.578,0.493-0.603,1.411-0.056,2.053l0,0c0.547,0.642,1.458,0.763,2.036,0.271
		l76.314-65.022c0.577-0.492,0.603-1.411,0.056-2.053l0,0c-0.547-0.642-1.458-0.763-2.035-0.271L369.587,413.317z"/>
	<path fill="#1F1A17" d="M430.114,353.431c-0.337-0.272-0.883-0.154-1.222,0.264l-0.215,0.264c-0.339,0.418-0.343,0.978-0.007,1.25
		l9.726,7.894c0.335,0.272,0.883,0.154,1.222-0.263l0.214-0.264c0.34-0.418,0.343-0.979,0.007-1.251L430.114,353.431z"/>
	<path fill="#1F1A17" d="M369.041,412.029c0,0,2.97-10.975-12.797-7.668c0,0-8.306,5.087,1.38,10.81c0,0-4.904-9.404,3.143-8.521
		C360.767,406.65,367.646,407.352,369.041,412.029z"/>
	<path fill="#FFFFFF" stroke="#1F1A17" stroke-miterlimit="10" d="M369.694,413.624c0,0,0.191-8.965-9.538-8.297
		c-9.728,0.667-3.744,13.72,2.099,11.381c0,0,1.907-0.604,2.479,1.208c0,0,0.667-2.802-3.052-3.547
		c-3.72-0.745-5.246-4.083-1.431-6.849c0,0,1.427-0.382,2.096,1.145C362.348,408.665,363.972,417.726,369.694,413.624z"/>
	<circle fill="#FFFFFF" stroke="#1F1A17" stroke-miterlimit="10" cx="370.437" cy="414.369" r="2.339"/>
	<polygon fill="#1F1A17" points="362.358,357 358.7,357 353.643,347.337 363.894,351.896 364.143,354.513 	"/>
	<path fill="#1F1A17" d="M365.786,358.254c1.401,0.99,3.69,0.172,5.111-1.826c1.422-1.998,1.44-4.422,0.039-5.414
		c-1.401-0.99-3.689-0.172-5.111,1.825C364.403,354.839,364.385,357.263,365.786,358.254z"/>
	<path fill="#1F1A17" d="M361.177,362.246c1.136,1.063,3.062,0.854,4.299-0.462s1.319-3.245,0.182-4.308
		c-1.137-1.062-3.063-0.854-4.299,0.463C360.121,359.256,360.04,361.186,361.177,362.246z"/>
	
		<rect x="397.32" y="193.752" transform="matrix(0.7071 -0.7071 0.7071 0.7071 -22.0674 341.1631)" fill="#FFFB00" stroke="#1F1A17" stroke-miterlimit="10" width="6.933" height="6.934"/>
	<path fill="#DA251D" stroke="#1F1A17" stroke-miterlimit="10" d="M330.686,174.329c0,0-16.595,9.537-28.231,22.89l20.991,1.303
		l0.564,20.396c0,0,26.324-26.163,38.341-26.602l-8.542-26.19L330.686,174.329z"/>
	<path fill="#DA251D" stroke="#1F1A17" stroke-miterlimit="10" d="M439.985,192.316c0,0,24.988,7.802,37.959,25.046l0.807-19.088
		l21.702-1.056c0,0-24.192-25.179-40.899-30.329l-10.803-3.434L439.985,192.316z"/>
	<path fill="#DA251D" stroke="#1F1A17" stroke-miterlimit="10" d="M323.445,170.514l18.371,24.698c0,0,53.59-41.38,119.703,0.609
		l17.231-25.307C478.751,170.514,406.493,116.341,323.445,170.514z"/>
	<line fill="none" stroke="#1F1A17" stroke-miterlimit="10" x1="341.816" y1="195.211" x2="362.35" y2="192.316"/>
	<line fill="none" stroke="#1F1A17" stroke-miterlimit="10" x1="439.985" y1="192.316" x2="461.68" y2="195.922"/>
	<path fill="#1332A5" stroke="#1F1A17" stroke-miterlimit="10" d="M381.759,120.369c0,0,2.957,19.417,17.942,23.165
		c0,0,11.799-1.25,17.799-23.377V97.5h-35.693L381.759,120.369z"/>
	<polygon fill="#FCD900" stroke="#1F1A17" stroke-miterlimit="10" points="399.713,121.997 407.758,127.594 404.92,118.213 
		412.729,112.293 402.932,112.093 399.713,102.836 396.495,112.093 386.697,112.293 394.507,118.213 391.668,127.594 	"/>
	<path fill="#FCD900" stroke="#1F1A17" stroke-miterlimit="10" d="M406.694,371.509l-3.763-6.543
		c0.932-0.536,1.564-1.529,1.564-2.681c0-1.142-0.622-2.128-1.539-2.668c0.554-0.455,0.914-1.137,0.914-1.91
		c0-1.371-1.11-2.481-2.48-2.481c-1.371,0-2.481,1.11-2.481,2.481c0,0.773,0.361,1.455,0.915,1.91
		c-0.917,0.54-1.54,1.526-1.54,2.668c0,1.152,0.635,2.146,1.567,2.683l-3.819,6.653c-37.84-1.232-71.14-19.492-91.702-46.989
		c18.348,44.651,54.529,75.036,96.17,75.036c42.371,0,79.094-31.456,97.123-77.396C477.663,350.463,444.568,369.519,406.694,371.509
		z"/>
	<ellipse fill="#FCD900" stroke="#1F1A17" stroke-miterlimit="10" cx="303.599" cy="322.351" rx="2.925" ry="3.052"/>
	<ellipse fill="#FCD900" stroke="#1F1A17" stroke-miterlimit="10" cx="306.651" cy="326.166" rx="2.925" ry="3.052"/>
	<ellipse fill="#FCD900" stroke="#1F1A17" stroke-miterlimit="10" cx="304.362" cy="329.98" rx="2.925" ry="3.052"/>
	<ellipse fill="#FCD900" stroke="#1F1A17" stroke-miterlimit="10" cx="303.599" cy="326.166" rx="2.925" ry="3.052"/>
	<ellipse fill="#FCD900" stroke="#1F1A17" stroke-miterlimit="10" cx="497.401" cy="321.588" rx="2.925" ry="3.052"/>
	<ellipse fill="#FCD900" stroke="#1F1A17" stroke-miterlimit="10" cx="494.349" cy="324.64" rx="2.925" ry="3.052"/>
	<ellipse fill="#FCD900" stroke="#1F1A17" stroke-miterlimit="10" cx="498.164" cy="329.218" rx="2.925" ry="3.052"/>
	<ellipse fill="#FCD900" stroke="#1F1A17" stroke-miterlimit="10" cx="497.401" cy="325.402" rx="2.925" ry="3.053"/>
	<circle fill="#FFFFFF" stroke="#1F1A17" stroke-miterlimit="10" cx="401.263" cy="392.65" r="3.758"/>
	<circle fill="#1F1A17" cx="401.263" cy="392.65" r="1.907"/>
	<g>
		<path fill="#DA251D" d="M363.542,375.976c0.066-0.675,0.056-1.042-0.037-1.308c-0.111-0.388-0.313-0.561-1.345-0.922l-0.978-0.343
			l-2.233,6.376c-0.359,1.023-0.294,1.191,0.986,1.727l-0.127,0.363l-3.95-1.383l0.127-0.363c1.279,0.36,1.435,0.27,1.793-0.754
			l2.234-6.375l-0.854-0.299c-1.142-0.4-1.454-0.393-1.737-0.157c-0.242,0.162-0.479,0.486-0.844,0.998l-0.399-0.139
			c0.341-0.754,0.706-1.572,0.982-2.275l0.275,0.097c0.088,0.365,0.258,0.454,0.644,0.589l5.436,1.904
			c0.372,0.13,0.509,0.091,0.815-0.079l0.289,0.102c-0.209,0.597-0.472,1.566-0.667,2.342L363.542,375.976z"/>
		<path fill="#DA251D" d="M361.98,382.569l0.11-0.368c1.169,0.264,1.305,0.219,1.639-0.9l1.574-5.263
			c0.334-1.117,0.247-1.229-0.875-1.651l0.11-0.368l3.702,1.107l-0.11,0.368c-1.169-0.264-1.304-0.219-1.639,0.899l-1.574,5.263
			c-0.339,1.132-0.246,1.23,0.875,1.652l-0.11,0.369L361.98,382.569z"/>
		<path fill="#DA251D" d="M374.117,385.782l0.087-0.375c1.175,0.161,1.248,0.107,1.564-1.314l1.23-5.467l-0.057-0.014l-5.176,6.524
			l-0.284-0.066l-1.516-7.885l-0.028-0.006l-1.102,3.763c-0.313,1.084-0.45,1.673-0.561,2.21c-0.122,0.649,0.197,0.822,1.113,1.135
			l-0.088,0.374l-3.309-0.771l0.087-0.374c0.846,0.098,1.164,0.017,1.395-0.521c0.18-0.452,0.403-1.021,0.841-2.386l0.848-2.736
			c0.533-1.709,0.475-1.779-0.79-2.2l0.087-0.375l2.33,0.542l1.678,7.442l4.841-5.924l2.415,0.562l-0.087,0.375
			c-1.275-0.185-1.38-0.181-1.659,1.207l-0.988,4.876c-0.288,1.428-0.261,1.504,0.95,1.899l-0.087,0.375L374.117,385.782z"/>
		<path fill="#DA251D" d="M388.368,383.554c-0.436,2.935-2.879,4.405-5.519,4.013c-2.611-0.388-4.404-2.612-4.018-5.221
			c0.363-2.445,2.516-4.444,5.545-3.994C386.829,378.715,388.771,380.836,388.368,383.554z M380.359,382.185
			c-0.379,2.554,0.831,4.636,2.865,4.938c1.601,0.237,3.23-0.812,3.617-3.42c0.425-2.866-0.936-4.624-2.826-4.904
			C382.401,378.558,380.736,379.644,380.359,382.185z"/>
		<path fill="#DA251D" d="M396.525,388.89c-0.175-0.015-0.334-0.027-0.508-0.056c-1.085-0.144-1.671-0.494-2.252-1.438
			c-0.454-0.713-0.908-1.604-1.289-2.311c-0.216-0.404-0.449-0.588-1.205-0.65l-0.465-0.037l-0.178,2.176
			c-0.095,1.164,0.029,1.257,1.185,1.435l-0.031,0.383l-3.821-0.313l0.031-0.384c1.198,0.017,1.336-0.056,1.431-1.219l0.449-5.505
			c0.095-1.163-0.018-1.214-1.143-1.402l0.031-0.384l3.604,0.295c1.061,0.087,1.762,0.268,2.287,0.655
			c0.552,0.404,0.879,1.051,0.813,1.873c-0.096,1.177-0.925,1.839-2.037,2.189c0.21,0.473,0.746,1.439,1.131,2.091
			c0.465,0.755,0.741,1.137,1.061,1.521c0.359,0.442,0.681,0.621,0.994,0.729L396.525,388.89z M391.542,384.003
			c0.741,0.061,1.229-0.01,1.615-0.254c0.601-0.364,0.877-0.893,0.938-1.633c0.121-1.479-0.866-2.11-1.97-2.2
			c-0.421-0.035-0.673,0-0.796,0.072c-0.107,0.061-0.179,0.22-0.209,0.59l-0.275,3.367L391.542,384.003z"/>
		<path fill="#DA251D" d="M411.248,381.882c-0.182-0.653-0.324-0.993-0.506-1.206c-0.244-0.322-0.495-0.411-1.588-0.376
			l-1.035,0.033l0.217,6.753c0.035,1.085,0.156,1.219,1.544,1.257l0.013,0.384l-4.184,0.134l-0.013-0.385
			c1.323-0.124,1.437-0.265,1.401-1.35l-0.218-6.753l-0.903,0.028c-1.211,0.038-1.498,0.157-1.678,0.479
			c-0.168,0.239-0.271,0.627-0.428,1.237l-0.422,0.013c0.046-0.826,0.09-1.72,0.095-2.477l0.292-0.009
			c0.215,0.31,0.404,0.33,0.813,0.317l5.758-0.184c0.394-0.013,0.508-0.099,0.732-0.367l0.307-0.01
			c0.02,0.632,0.125,1.632,0.224,2.425L411.248,381.882z"/>
		<path fill="#DA251D" d="M412.147,388.598l-0.03-0.383c1.186-0.175,1.297-0.266,1.207-1.43l-0.425-5.477
			c-0.089-1.164-0.212-1.236-1.411-1.227l-0.029-0.383l3.854-0.3l0.029,0.384c-1.186,0.175-1.297,0.266-1.205,1.43l0.423,5.477
			c0.091,1.178,0.213,1.236,1.411,1.227L416,388.3L412.147,388.598z"/>
		<path fill="#DA251D" d="M424.634,387.234l-0.054-0.381c1.154-0.271,1.204-0.348,0.988-1.787l-0.818-5.542l-0.058,0.008
			l-2.485,7.943l-0.289,0.04l-4.25-6.811l-0.028,0.005l0.323,3.905c0.099,1.123,0.183,1.722,0.272,2.264
			c0.12,0.648,0.48,0.695,1.447,0.657l0.053,0.381l-3.366,0.47l-0.053-0.381c0.824-0.213,1.092-0.402,1.113-0.987
			c0.006-0.485,0.009-1.097-0.072-2.526l-0.193-2.857c-0.115-1.786-0.196-1.83-1.527-1.77l-0.053-0.381l2.369-0.33l4.242,6.341
			l2.389-7.266l2.456-0.342l0.054,0.381c-1.256,0.286-1.354,0.327-1.114,1.722l0.831,4.902c0.244,1.436,0.297,1.498,1.569,1.432
			l0.054,0.381L424.634,387.234z"/>
		<path fill="#DA251D" d="M436.734,376.041c-0.842,0.247-1.127,0.509-1.074,1.074c0.039,0.371,0.142,0.954,0.42,2.187l0.25,1.112
			c0.358,1.581,0.359,2.778-0.281,3.782c-0.51,0.791-1.399,1.287-2.338,1.5c-0.825,0.186-1.693,0.185-2.422-0.129
			c-0.992-0.425-1.618-1.339-1.972-2.907l-0.757-3.35c-0.273-1.207-0.398-1.234-1.544-1.074l-0.085-0.375l3.686-0.833l0.085,0.375
			c-1.109,0.321-1.205,0.427-0.934,1.634l0.691,3.056c0.487,2.157,1.676,3.185,3.439,2.786c2.05-0.463,2.327-2.216,1.827-4.427
			l-0.23-1.019c-0.279-1.232-0.448-1.786-0.6-2.188c-0.202-0.503-0.538-0.597-1.549-0.439l-0.085-0.374l3.387-0.766L436.734,376.041
			z"/>
		<path fill="#DA251D" d="M447.26,381.883c-0.167,0.05-0.32,0.096-0.492,0.133c-1.063,0.261-1.737,0.146-2.622-0.52
			c-0.682-0.499-1.428-1.164-2.04-1.684c-0.348-0.297-0.632-0.384-1.359-0.166l-0.447,0.133l0.626,2.092
			c0.335,1.118,0.484,1.16,1.625,0.904l0.11,0.368l-3.674,1.1l-0.11-0.368c1.122-0.422,1.224-0.538,0.89-1.656l-1.582-5.289
			c-0.335-1.118-0.458-1.124-1.576-0.891l-0.11-0.368l3.465-1.036c1.021-0.306,1.741-0.392,2.37-0.222
			c0.661,0.175,1.2,0.658,1.438,1.447c0.338,1.132-0.193,2.051-1.102,2.781c0.367,0.362,1.218,1.068,1.814,1.535
			c0.707,0.533,1.103,0.788,1.54,1.03c0.495,0.281,0.86,0.33,1.191,0.317L447.26,381.883z M440.84,379.145
			c0.712-0.213,1.143-0.456,1.413-0.824c0.427-0.557,0.493-1.15,0.28-1.861c-0.425-1.42-1.574-1.649-2.637-1.332
			c-0.405,0.122-0.627,0.245-0.715,0.357c-0.078,0.095-0.087,0.27,0.02,0.625l0.968,3.236L440.84,379.145z"/>
	</g>
	<g>
		<path d="M350.323,160.894c-0.999,0.529-1.073,0.636-0.626,1.684l2.173,5.104c0.452,1.061,0.58,1.081,1.635,0.721l0.151,0.354
			l-3.386,1.441l-0.15-0.353c1.042-0.534,1.128-0.645,0.676-1.706l-1.076-2.527l-4.308,1.834l1.076,2.526
			c0.447,1.048,0.58,1.081,1.648,0.716l0.151,0.354l-3.323,1.415l-0.15-0.354c0.979-0.506,1.053-0.612,0.601-1.673l-2.173-5.104
			c-0.452-1.061-0.574-1.068-1.648-0.716l-0.151-0.354l3.272-1.393l0.15,0.354c-0.922,0.497-0.997,0.604-0.55,1.652l0.872,2.046
			l4.308-1.834l-0.872-2.046c-0.446-1.049-0.574-1.069-1.597-0.738l-0.15-0.354l3.297-1.403L350.323,160.894z"/>
		<path d="M357.835,164.014c0.75,2.08-0.417,3.625-1.696,4.086c-1.771,0.638-3.343-0.401-3.859-1.836
			c-0.769-2.132,0.537-3.698,1.712-4.121C355.595,161.565,357.258,162.411,357.835,164.014z M353.333,165.417
			c0.587,1.628,1.735,2.587,2.795,2.205c0.801-0.288,1.246-1.121,0.608-2.891c-0.544-1.512-1.594-2.521-2.719-2.115
			C353.216,162.904,352.807,163.957,353.333,165.417z"/>
		<path d="M364.964,164.719c-0.575,0.278-1.188,0.667-1.784,1.066l-0.103-0.055l-0.287-0.932c-0.233,0.316-0.462,0.646-0.761,0.981
			c-0.312,0.34-0.555,0.53-0.909,0.639c-0.879,0.271-1.793-0.037-2.229-1.454l-0.792-2.572c-0.222-0.721-0.291-0.758-1.083-0.672
			l-0.093-0.302c0.604-0.229,1.21-0.501,1.803-0.814c0.086,0.419,0.276,1.036,0.551,1.928l0.542,1.758
			c0.359,1.168,1.02,1.309,1.611,1.127c0.472-0.146,0.911-0.496,1.223-1.065l-0.941-3.058c-0.23-0.748-0.325-0.776-1.31-0.617
			l-0.093-0.302c0.67-0.249,1.336-0.512,1.988-0.871l1.349,4.383c0.202,0.656,0.335,0.715,0.842,0.588l0.375-0.086L364.964,164.719z
			"/>
		<path d="M365.777,160.008c0.225-0.769,0.601-1.662,1.238-1.829c0.452-0.119,0.861,0.143,0.944,0.462
			c0.07,0.266-0.033,0.577-0.254,0.762c-0.142,0.109-0.265,0.127-0.366,0.068c-0.238-0.15-0.418-0.188-0.631-0.132
			c-0.345,0.09-0.666,0.601-0.763,1.421l0.637,2.431c0.23,0.877,0.317,0.939,1.361,0.751l0.09,0.345l-3.055,0.801l-0.091-0.346
			c0.803-0.295,0.875-0.399,0.645-1.276l-0.721-2.75c-0.229-0.877-0.31-0.913-1.095-0.82l-0.077-0.292
			c0.623-0.277,1.166-0.589,1.73-1.036l0.38,1.448L365.777,160.008z"/>
		<path d="M369.356,163.958l-0.08-0.348c0.825-0.274,0.9-0.376,0.691-1.286l-0.633-2.758c-0.191-0.83-0.244-0.875-1.077-0.824
			l-0.074-0.321c0.658-0.264,1.247-0.583,1.781-0.959l1.06,4.62c0.209,0.911,0.321,0.969,1.197,0.853l0.08,0.349L369.356,163.958z
			 M368.262,155.936c-0.092-0.401,0.162-0.771,0.523-0.853c0.375-0.086,0.737,0.141,0.83,0.542c0.083,0.361-0.138,0.75-0.526,0.84
			C368.74,156.544,368.345,156.297,368.262,155.936z"/>
		<path d="M383.427,156.702c0.458,2.932-1.313,5.044-3.797,5.432c-2.457,0.384-4.71-1.226-5.117-3.833
			c-0.382-2.443,0.975-4.977,3.826-5.422C380.646,152.519,383.003,153.986,383.427,156.702z M375.838,157.706
			c0.398,2.552,2.087,4.193,4.001,3.895c1.507-0.235,2.667-1.709,2.261-4.316c-0.448-2.864-2.178-4.151-3.957-3.874
			C376.623,153.647,375.441,155.167,375.838,157.706z"/>
		<path d="M387.009,160.972c-0.219,0.147-0.432,0.225-0.555,0.238c-0.86,0.091-1.396-0.405-1.51-1.483l-0.42-3.975l-0.942,0.1
			l-0.069-0.131l0.327-0.435l0.628-0.066l-0.105-0.997l0.792-0.995l0.194,0.007l0.198,1.871l1.543-0.163
			c0.137,0.124,0.128,0.429-0.026,0.542l-1.461,0.154l0.371,3.509c0.117,1.106,0.589,1.264,0.931,1.227
			c0.341-0.036,0.641-0.206,0.822-0.321l0.161,0.342L387.009,160.972z"/>
		<path d="M392.183,160.746c-0.206,0.015-0.502-0.088-0.663-0.214c-0.191-0.18-0.287-0.365-0.372-0.594
			c-0.522,0.409-1.144,0.963-1.556,0.991c-0.973,0.069-1.701-0.692-1.762-1.556c-0.047-0.671,0.279-1.122,1.015-1.435
			c0.803-0.332,1.777-0.772,2.061-1.041l-0.018-0.247c-0.069-0.986-0.575-1.516-1.26-1.467c-0.274,0.019-0.472,0.144-0.598,0.317
			c-0.166,0.19-0.268,0.5-0.347,0.934c-0.039,0.223-0.184,0.329-0.375,0.343c-0.247,0.017-0.622-0.231-0.645-0.547
			c-0.014-0.206,0.153-0.369,0.4-0.579c0.364-0.301,1.217-0.898,1.987-1.104c0.412-0.029,0.831,0.065,1.15,0.291
			c0.508,0.364,0.685,0.916,0.735,1.628l0.179,2.549c0.044,0.617,0.305,0.805,0.538,0.788c0.165-0.012,0.352-0.094,0.483-0.186
			l0.162,0.347L392.183,160.746z M390.939,157.364c-0.277,0.17-0.915,0.505-1.192,0.662c-0.517,0.284-0.8,0.566-0.765,1.059
			c0.05,0.713,0.623,1.017,1.047,0.986c0.355-0.039,0.819-0.305,1.062-0.57L390.939,157.364z"/>
		<path d="M396.538,156.027c-0.288-0.801-0.787-1.334-1.459-1.312c-0.521,0.018-0.878,0.442-0.86,0.978
			c0.021,0.618,0.581,0.915,1.208,1.155c1.044,0.391,1.761,0.861,1.793,1.808c0.042,1.25-1.103,1.935-2.201,1.972
			c-0.7,0.023-1.34-0.216-1.594-0.414c-0.103-0.188-0.258-1.118-0.275-1.612l0.354-0.081c0.278,0.898,0.922,1.673,1.746,1.645
			c0.508-0.017,0.961-0.417,0.942-0.994c-0.021-0.604-0.43-0.919-1.126-1.212c-0.837-0.356-1.745-0.778-1.78-1.836
			c-0.032-0.96,0.763-1.798,2.026-1.841c0.563-0.02,0.938,0.091,1.229,0.191c0.121,0.312,0.299,1.117,0.352,1.459L396.538,156.027z"
			/>
		<path d="M399.185,160.087c0.017,1.057-0.934,1.662-1.768,1.923l-0.158-0.396c0.655-0.285,1.047-0.648,1.039-1.17
			c-0.008-0.494-0.397-0.804-0.879-0.906c-0.069-0.013-0.167-0.107-0.17-0.341c-0.006-0.343,0.32-0.568,0.649-0.573
			C398.392,158.617,399.169,159.125,399.185,160.087z"/>
		<path d="M412.098,152.322c-1.131,0.033-1.244,0.096-1.309,1.234l-0.31,5.541c-0.064,1.152,0.041,1.226,1.147,1.371l-0.021,0.384
			l-3.676-0.207l0.021-0.384c1.17-0.017,1.298-0.079,1.362-1.231l0.153-2.743l-4.676-0.262l-0.154,2.744
			c-0.063,1.138,0.041,1.227,1.162,1.372l-0.022,0.384l-3.606-0.202l0.021-0.383c1.102-0.021,1.215-0.083,1.279-1.236l0.311-5.541
			c0.064-1.152-0.042-1.213-1.161-1.373l0.021-0.384l3.552,0.199l-0.021,0.384c-1.047,0.037-1.161,0.1-1.225,1.238l-0.125,2.221
			l4.678,0.263l0.124-2.222c0.063-1.138-0.042-1.213-1.106-1.369l0.021-0.384l3.58,0.2L412.098,152.322z"/>
		<path d="M417.449,158.457c-0.249,2.197-1.979,3.064-3.329,2.912c-1.869-0.212-2.818-1.84-2.646-3.354
			c0.255-2.251,2.117-3.076,3.359-2.936C416.525,155.27,417.642,156.765,417.449,158.457z M412.793,157.721
			c-0.195,1.719,0.409,3.087,1.528,3.213c0.847,0.096,1.613-0.452,1.825-2.322c0.182-1.597-0.313-2.965-1.5-3.1
			C413.801,155.417,412.968,156.179,412.793,157.721z"/>
		<path d="M423.531,162.236c-0.639-0.005-1.361,0.074-2.072,0.168l-0.068-0.094l0.155-0.963c-0.35,0.181-0.7,0.375-1.118,0.545
			c-0.43,0.167-0.731,0.23-1.098,0.171c-0.909-0.146-1.594-0.827-1.357-2.292l0.427-2.659c0.12-0.746,0.073-0.808-0.675-1.082
			l0.049-0.313c0.645,0.062,1.309,0.085,1.979,0.067c-0.108,0.414-0.211,1.051-0.359,1.974l-0.291,1.817
			c-0.193,1.208,0.338,1.626,0.947,1.725c0.488,0.078,1.037-0.042,1.569-0.417l0.508-3.16c0.124-0.773,0.051-0.841-0.903-1.133
			l0.05-0.312c0.712,0.072,1.426,0.131,2.169,0.098l-0.728,4.53c-0.108,0.678-0.016,0.791,0.495,0.9l0.376,0.089L423.531,162.236z"
			/>
		<path d="M426.337,158.371c0.542-0.59,1.274-1.225,1.921-1.092c0.457,0.094,0.709,0.51,0.643,0.833
			c-0.056,0.269-0.285,0.502-0.565,0.571c-0.176,0.034-0.294-0.003-0.358-0.101c-0.146-0.241-0.292-0.355-0.507-0.399
			c-0.351-0.071-0.863,0.244-1.314,0.937l-0.505,2.463c-0.183,0.888-0.132,0.983,0.889,1.276l-0.072,0.35l-3.096-0.635l0.072-0.35
			c0.852,0.09,0.962,0.028,1.144-0.86l0.571-2.786c0.183-0.888,0.127-0.956-0.618-1.221l0.06-0.296
			c0.683,0.027,1.308-0.012,2.012-0.163l-0.301,1.467L426.337,158.371z"/>
		<path d="M427.81,163.498l0.082-0.348c0.86,0.119,0.973,0.061,1.188-0.848l0.649-2.754c0.196-0.828,0.169-0.891-0.602-1.214
			l0.075-0.32c0.707,0.054,1.376,0.028,2.021-0.073l-1.089,4.611c-0.215,0.909-0.14,1.011,0.696,1.293l-0.082,0.347L427.81,163.498z
			 M430.369,155.819c0.095-0.401,0.484-0.62,0.846-0.534c0.374,0.088,0.599,0.452,0.505,0.853c-0.086,0.361-0.455,0.612-0.844,0.521
			C430.529,156.577,430.284,156.18,430.369,155.819z"/>
		<path d="M448.544,160.715c-0.938-0.179-1.09-0.113-1.837,0.84c-0.575,0.736-2.17,2.942-4.438,6.229l-0.404-0.133
			c-0.03-2.323-0.1-5.136-0.143-7.246l-0.026-0.008c-1.485,2.054-2.908,3.913-4.265,5.793l-0.404-0.134
			c0.082-2.574,0.108-5.11,0.155-7.667c0.027-1.177-0.134-1.346-0.896-1.712l0.121-0.365l3.168,1.044l-0.121,0.365
			c-0.989-0.196-1.051-0.101-1.074,0.629c-0.07,1.928-0.143,3.856-0.179,5.897l0.026,0.008c1.421-1.989,2.887-3.891,4.252-5.798
			l0.378,0.125c0.026,2.378,0.086,4.741,0.143,7.246l0.025,0.008c1.119-1.554,2.679-3.873,3.192-4.73
			c0.44-0.723,0.436-0.883-0.557-1.34l0.121-0.365l2.882,0.949L448.544,160.715z"/>
		<path d="M448.316,170.142c-0.191-0.076-0.414-0.297-0.504-0.48c-0.096-0.245-0.102-0.454-0.08-0.696
			c-0.647,0.143-1.447,0.372-1.83,0.221c-0.906-0.359-1.234-1.36-0.916-2.165c0.247-0.626,0.736-0.891,1.534-0.855
			c0.867,0.048,1.937,0.072,2.309-0.047l0.091-0.229c0.363-0.919,0.137-1.616-0.502-1.868c-0.255-0.101-0.487-0.075-0.676,0.028
			c-0.231,0.101-0.457,0.336-0.717,0.691c-0.132,0.184-0.308,0.218-0.486,0.147c-0.23-0.091-0.461-0.478-0.345-0.771
			c0.076-0.191,0.298-0.267,0.611-0.349c0.459-0.114,1.485-0.283,2.27-0.136c0.383,0.151,0.721,0.418,0.91,0.759
			c0.301,0.547,0.222,1.121-0.042,1.785l-0.939,2.375c-0.228,0.575-0.073,0.857,0.144,0.943c0.154,0.061,0.358,0.067,0.516,0.041
			l-0.003,0.383L448.316,170.142z M448.657,166.554c-0.324,0.035-1.043,0.061-1.361,0.082c-0.589,0.033-0.966,0.164-1.147,0.624
			c-0.264,0.665,0.121,1.186,0.517,1.343c0.338,0.119,0.87,0.079,1.204-0.056L448.657,166.554z"/>
		<path d="M449.276,170.366l0.142-0.328c0.826,0.268,0.947,0.231,1.318-0.626l1.125-2.594c0.339-0.781,0.322-0.848-0.379-1.302
			l0.131-0.303c0.687,0.178,1.35,0.271,2.002,0.285l-1.883,4.346c-0.372,0.857-0.316,0.971,0.457,1.396l-0.143,0.328
			L449.276,170.366z M453.148,163.261c0.164-0.377,0.586-0.523,0.926-0.376c0.354,0.153,0.51,0.55,0.346,0.928
			c-0.146,0.34-0.555,0.522-0.921,0.364C453.172,164.034,453.002,163.601,453.148,163.261z"/>
		<path d="M455.531,173.202l0.154-0.322c0.766,0.276,0.9,0.218,1.31-0.636l0.993-2.068c0.409-0.855,0.379-1.555-0.451-1.953
			c-0.495-0.238-1.127-0.159-1.653-0.016l-1.395,2.911c-0.404,0.843-0.354,0.928,0.342,1.353l-0.154,0.322l-2.688-1.288l0.155-0.322
			c0.884,0.317,0.975,0.285,1.366-0.533l1.229-2.564c0.38-0.793,0.323-0.865-0.286-1.31l0.137-0.285
			c0.647,0.174,1.302,0.304,1.965,0.317l-0.475,0.991c0.337-0.067,0.698-0.122,1.109-0.185c0.453-0.057,0.846-0.05,1.206,0.122
			c0.979,0.469,1.271,1.447,0.695,2.649l-1.146,2.391c-0.403,0.842-0.364,0.921,0.317,1.34l-0.154,0.322L455.531,173.202z"/>
		<path d="M459.889,175.087c-0.488,0.938-1.614,1.017-2.472,0.85l0.051-0.423c0.711,0.061,1.229-0.072,1.471-0.534
			c0.229-0.439,0.033-0.896-0.343-1.216c-0.054-0.044-0.095-0.173,0.013-0.38c0.159-0.304,0.553-0.347,0.845-0.195
			C459.892,173.417,460.333,174.235,459.889,175.087z"/>
	</g>
	<g>
		<path d="M361.126,175.697c1.059,2.771-0.231,5.205-2.58,6.102c-2.322,0.887-4.861-0.216-5.802-2.68
			c-0.883-2.309-0.084-5.07,2.61-6.099C357.536,172.188,360.146,173.131,361.126,175.697z M353.917,178.26
			c0.921,2.412,2.915,3.665,4.723,2.974c1.424-0.544,2.251-2.227,1.311-4.69c-1.034-2.708-2.994-3.605-4.675-2.963
			C353.838,174.129,353,175.861,353.917,178.26z"/>
		<path d="M366.823,178.934c-0.197,0.061-0.509,0.03-0.694-0.056c-0.228-0.13-0.364-0.289-0.5-0.491
			c-0.413,0.518-0.89,1.2-1.283,1.323c-0.93,0.292-1.814-0.279-2.073-1.105c-0.202-0.642,0.012-1.154,0.654-1.629
			c0.704-0.508,1.549-1.162,1.763-1.488l-0.074-0.236c-0.296-0.943-0.91-1.34-1.565-1.135c-0.262,0.083-0.425,0.249-0.507,0.447
			c-0.117,0.224-0.145,0.549-0.122,0.988c0.014,0.226-0.102,0.363-0.285,0.42c-0.236,0.074-0.659-0.081-0.753-0.382
			c-0.062-0.197,0.063-0.395,0.254-0.656c0.285-0.377,0.976-1.155,1.677-1.534c0.393-0.123,0.823-0.128,1.185,0.017
			c0.577,0.236,0.877,0.732,1.091,1.413l0.764,2.437c0.185,0.589,0.482,0.711,0.705,0.641c0.157-0.049,0.32-0.172,0.426-0.292
			l0.238,0.3L366.823,178.934z M364.831,175.933c-0.229,0.231-0.772,0.703-1.006,0.92c-0.437,0.396-0.647,0.735-0.5,1.207
			c0.214,0.681,0.841,0.844,1.247,0.717c0.336-0.12,0.725-0.486,0.9-0.8L364.831,175.933z"/>
		<path d="M371.457,177.506l-0.089-0.346c0.765-0.281,0.831-0.412,0.595-1.33l-0.569-2.222c-0.236-0.919-0.708-1.436-1.6-1.207
			c-0.532,0.136-0.966,0.602-1.276,1.051l0.802,3.127c0.231,0.905,0.325,0.938,1.131,0.816l0.089,0.347l-2.888,0.74l-0.089-0.346
			c0.881-0.325,0.93-0.409,0.705-1.287l-0.706-2.755c-0.218-0.852-0.308-0.871-1.061-0.82l-0.079-0.306
			c0.608-0.284,1.193-0.604,1.71-1.02l0.273,1.065c0.215-0.269,0.457-0.542,0.731-0.854c0.311-0.335,0.616-0.583,1.002-0.683
			c1.052-0.27,1.904,0.292,2.235,1.583l0.658,2.568c0.232,0.905,0.312,0.941,1.104,0.823l0.089,0.347L371.457,177.506z"/>
		<path d="M383.241,168.284c-0.255-0.626-0.433-0.945-0.63-1.135c-0.271-0.29-0.516-0.348-1.533-0.181l-0.962,0.157l1.089,6.667
			c0.175,1.071,0.305,1.188,1.605,1.06l0.063,0.379l-3.89,0.635l-0.062-0.379c1.22-0.283,1.306-0.436,1.131-1.507l-1.088-6.667
			l-0.84,0.137c-1.125,0.184-1.378,0.336-1.503,0.677c-0.125,0.257-0.171,0.654-0.237,1.277l-0.393,0.064
			c-0.065-0.824-0.141-1.716-0.235-2.465l0.271-0.045c0.24,0.281,0.421,0.28,0.801,0.218l5.353-0.874
			c0.366-0.06,0.46-0.159,0.636-0.452l0.284-0.046c0.102,0.623,0.331,1.601,0.527,2.376L383.241,168.284z"/>
		<path d="M384.417,175.023l-0.042-0.355c0.849-0.184,0.935-0.277,0.824-1.205l-0.336-2.809c-0.101-0.845-0.148-0.895-0.982-0.933
			l-0.04-0.328c0.683-0.192,1.302-0.445,1.873-0.763l0.563,4.704c0.11,0.927,0.216,0.997,1.098,0.975l0.042,0.355L384.417,175.023z
			 M384.183,166.935c-0.049-0.409,0.243-0.748,0.611-0.792c0.382-0.046,0.717,0.218,0.766,0.627
			c0.044,0.368-0.217,0.731-0.612,0.779C384.593,167.59,384.227,167.302,384.183,166.935z"/>
		<path d="M394.904,174.11l-0.021-0.356c0.804-0.131,0.951-0.194,0.893-1.167l-0.138-2.288c-0.059-0.973-0.439-1.569-1.302-1.517
			c-0.494,0.03-0.998,0.335-1.492,0.805c0.037,0.163,0.06,0.313,0.076,0.573l0.161,2.673c0.052,0.863,0.18,0.938,0.939,0.975
			l0.021,0.356l-2.933,0.177l-0.021-0.356c0.845-0.134,0.964-0.209,0.91-1.113l-0.143-2.358c-0.061-1.014-0.451-1.554-1.287-1.503
			c-0.548,0.033-1.061,0.435-1.451,0.803l0.194,3.22c0.054,0.89,0.168,0.966,0.845,1.008l0.021,0.356l-2.892,0.174l-0.021-0.356
			c0.9-0.137,1.018-0.227,0.964-1.117l-0.171-2.836c-0.053-0.877-0.099-0.943-0.901-1.019l-0.019-0.315
			c0.596-0.146,1.284-0.367,1.871-0.676l0.067,1.109c0.276-0.209,0.563-0.474,0.958-0.759c0.343-0.241,0.663-0.412,1.102-0.438
			c0.658-0.04,1.272,0.336,1.589,1.032c0.379-0.326,0.761-0.61,1.091-0.836c0.276-0.209,0.623-0.395,1.006-0.418
			c1.069-0.065,1.786,0.648,1.866,1.991l0.16,2.645c0.055,0.918,0.168,0.966,0.954,1.001l0.021,0.356L394.904,174.11z"/>
		<path d="M403.618,170.991c-0.035,2.21-1.673,3.241-3.031,3.219c-1.88-0.03-2.981-1.558-2.957-3.082
			c0.037-2.265,1.81-3.266,3.06-3.246C402.391,167.909,403.646,169.289,403.618,170.991z M398.914,170.709
			c-0.028,1.729,0.707,3.032,1.832,3.05c0.851,0.014,1.561-0.605,1.591-2.486c0.026-1.606-0.599-2.921-1.792-2.939
			C399.693,168.319,398.938,169.158,398.914,170.709z"/>
		<path d="M405.643,169.483c0.445-0.665,1.074-1.403,1.732-1.371c0.466,0.023,0.777,0.396,0.761,0.726
			c-0.014,0.274-0.206,0.539-0.473,0.649c-0.168,0.061-0.29,0.041-0.368-0.046c-0.183-0.215-0.343-0.306-0.563-0.317
			c-0.355-0.018-0.816,0.372-1.156,1.125l-0.125,2.51c-0.046,0.904,0.019,0.99,1.07,1.126l-0.018,0.356l-3.154-0.158l0.018-0.356
			c0.854-0.04,0.955-0.117,1-1.022l0.143-2.839c0.045-0.905-0.021-0.963-0.797-1.112l0.016-0.302
			c0.677-0.076,1.289-0.21,1.961-0.466l-0.074,1.496L405.643,169.483z"/>
		<path d="M416.338,175.25l0.052-0.381c0.872,0.007,1.009-0.084,0.904-0.639s-0.276-1.327-0.464-2.198l-2.898-0.394
			c-0.301,0.583-0.583,1.126-0.838,1.674c-0.416,0.816-0.312,0.969,0.696,1.203l-0.052,0.381l-2.953-0.401l0.051-0.381
			c0.875-0.006,1.076-0.062,1.715-1.195l3.789-6.762l0.439-0.065c0.525,2.455,1.086,5.165,1.634,7.652
			c0.277,1.23,0.437,1.376,1.311,1.579l-0.051,0.381L416.338,175.25z M415.994,167.788l-0.027-0.004
			c-0.596,1.111-1.191,2.236-1.752,3.296l2.505,0.341L415.994,167.788z"/>
		<path d="M423.54,172.06c-0.104-0.845-0.474-1.475-1.135-1.601c-0.513-0.098-0.954,0.238-1.055,0.764
			c-0.115,0.607,0.365,1.02,0.924,1.393c0.932,0.611,1.527,1.228,1.351,2.16c-0.235,1.228-1.503,1.643-2.582,1.437
			c-0.688-0.131-1.26-0.506-1.464-0.754c-0.059-0.207-0.006-1.148,0.088-1.634l0.363,0c0.073,0.938,0.53,1.836,1.341,1.99
			c0.499,0.095,1.03-0.195,1.138-0.762c0.113-0.593-0.217-0.992-0.832-1.431c-0.737-0.533-1.529-1.146-1.332-2.184
			c0.181-0.945,1.142-1.586,2.384-1.349c0.554,0.105,0.894,0.295,1.157,0.458c0.049,0.331,0.045,1.155,0.021,1.5L423.54,172.06z"/>
		<path d="M427.516,172.947c-0.074-0.848-0.422-1.489-1.078-1.638c-0.509-0.116-0.961,0.204-1.08,0.727
			c-0.137,0.602,0.33,1.032,0.874,1.423c0.91,0.643,1.483,1.279,1.273,2.204c-0.276,1.218-1.557,1.589-2.628,1.346
			c-0.683-0.155-1.242-0.549-1.438-0.805c-0.05-0.208,0.036-1.147,0.145-1.628l0.364,0.012c0.04,0.938,0.466,1.852,1.27,2.034
			c0.495,0.112,1.036-0.159,1.164-0.722c0.133-0.588-0.182-0.998-0.782-1.458c-0.718-0.557-1.487-1.197-1.254-2.228
			c0.213-0.937,1.195-1.544,2.427-1.265c0.55,0.125,0.883,0.327,1.141,0.499c0.037,0.333,0.005,1.156-0.031,1.499L427.516,172.947z"
			/>
		<path d="M437.652,174.416c-0.69-0.084-0.855,0.04-1.342,0.687c-0.695,0.928-1.78,2.518-2.904,4.138l-0.369-0.106
			c-0.119-1.578-0.288-3.027-0.431-4.569c-0.882,1.176-1.802,2.34-2.738,3.658l-0.383-0.109c-0.023-1.708-0.078-3.411-0.163-5.15
			c-0.041-0.755-0.133-0.881-0.74-1.156l0.095-0.33l2.732,0.786l-0.094,0.33c-0.83-0.096-0.919-0.035-0.893,0.615
			c0.012,1.104,0.042,2.242,0.08,3.354l0.026,0.007c0.853-1.127,1.732-2.347,2.723-3.706l0.344,0.098
			c0.094,1.514,0.232,3.069,0.382,4.642l0.025,0.007c0.553-0.828,1.253-1.87,1.771-2.778c0.369-0.637,0.313-0.739-0.511-1.105
			l0.095-0.33l2.39,0.687L437.652,174.416z"/>
		<path d="M439.738,181.422c-0.193-0.069-0.425-0.283-0.52-0.463c-0.104-0.241-0.117-0.45-0.104-0.693
			c-0.642,0.165-1.434,0.422-1.821,0.284c-0.919-0.327-1.28-1.316-0.99-2.131c0.227-0.634,0.705-0.915,1.505-0.908
			c0.867,0.018,1.937,0.005,2.304-0.126l0.084-0.232c0.331-0.931,0.08-1.618-0.566-1.849c-0.258-0.092-0.489-0.058-0.674,0.051
			c-0.228,0.108-0.446,0.351-0.692,0.715c-0.126,0.188-0.3,0.229-0.481,0.164c-0.232-0.083-0.478-0.461-0.371-0.759
			c0.069-0.194,0.289-0.277,0.599-0.37c0.455-0.13,1.476-0.334,2.263-0.214c0.389,0.138,0.735,0.393,0.937,0.727
			c0.319,0.537,0.26,1.112,0.02,1.785l-0.857,2.406c-0.208,0.582-0.044,0.859,0.176,0.938c0.156,0.055,0.36,0.055,0.517,0.023
			l0.01,0.382L439.738,181.422z M439.956,177.825c-0.322,0.045-1.04,0.096-1.357,0.129c-0.588,0.053-0.96,0.196-1.126,0.662
			c-0.239,0.673,0.162,1.18,0.563,1.323c0.341,0.107,0.872,0.049,1.2-0.097L439.956,177.825z"/>
		<path d="M444.571,174.16c-0.344,0.898-1.394,1.143-2.28,1.039l0.004-0.396c0.715-0.02,1.199-0.173,1.4-0.699
			c0.173-0.449-0.097-0.861-0.49-1.101c-0.085-0.047-0.128-0.166-0.068-0.32c0.132-0.347,0.512-0.377,0.729-0.294
			C444.419,172.6,444.886,173.339,444.571,174.16z"/>
		<path d="M441.436,181.898l0.135-0.332c0.832,0.249,0.952,0.208,1.302-0.657l1.063-2.621c0.321-0.789,0.303-0.855-0.409-1.292
			l0.124-0.306c0.69,0.161,1.355,0.238,2.009,0.236l-1.779,4.39c-0.352,0.865-0.293,0.978,0.49,1.384l-0.135,0.331L441.436,181.898z
			 M445.138,174.702c0.155-0.382,0.573-0.538,0.916-0.399c0.357,0.145,0.523,0.538,0.368,0.92c-0.139,0.344-0.542,0.535-0.912,0.386
			C445.18,175.474,444.998,175.045,445.138,174.702z"/>
		<path d="M447.741,184.589l0.147-0.326c0.771,0.261,0.906,0.201,1.298-0.662l0.951-2.089c0.394-0.862,0.349-1.562-0.489-1.943
			c-0.5-0.228-1.13-0.137-1.652,0.017l-1.339,2.938c-0.387,0.85-0.335,0.935,0.369,1.345l-0.148,0.325l-2.714-1.235l0.149-0.326
			c0.89,0.3,0.98,0.266,1.356-0.56l1.179-2.588c0.364-0.8,0.306-0.872-0.312-1.304l0.13-0.288c0.652,0.161,1.308,0.278,1.972,0.278
			l-0.455,1c0.335-0.074,0.696-0.136,1.105-0.206c0.452-0.066,0.846-0.068,1.208,0.097c0.988,0.45,1.301,1.423,0.747,2.636
			l-1.098,2.413c-0.388,0.851-0.348,0.929,0.344,1.334l-0.148,0.325L447.741,184.589z"/>
	</g>
	<ellipse fill="#FFFFFF" cx="379.895" cy="406.261" rx="0.877" ry="0.935"/>
	<ellipse fill="#FFFFFF" cx="384.473" cy="402.446" rx="0.877" ry="0.935"/>
	<ellipse fill="#FFFFFF" cx="427.964" cy="365.822" rx="0.877" ry="0.935"/>
	<ellipse fill="#FFFFFF" cx="375.317" cy="410.076" rx="0.877" ry="0.935"/>
</g>
</svg>
