<?xml version="1.0" encoding="utf-8"?>
<!-- Generator: Adobe Illustrator 24.1.3, SVG Export Plug-In . SVG Version: 6.00 Build 0)  -->
<svg version="1.1" id="Layer_1" xmlns="http://www.w3.org/2000/svg" xmlns:xlink="http://www.w3.org/1999/xlink" x="0px" y="0px"
	 width="512px" height="290.6px" viewBox="0 0 512 290.6" enable-background="new 0 0 512 290.6" xml:space="preserve">
<g>
	<path fill="#E5E9EB" d="M432.6,37.2l-3.3-1.4l1.5-3.3c0.4-0.8,0-1.8-0.8-2.2c-0.8-0.4-1.8,0-2.2,0.8l-1.5,3.3L423,33
		c-0.8-0.4-1.8,0-2.2,0.8c-0.4,0.8,0,1.8,0.8,2.2l3.3,1.5l-1.5,3.3c-0.4,0.8,0,1.8,0.8,2.2c0.8,0.4,1.8,0,2.2-0.8l1.5-3.3l3.3,1.4
		c0.8,0.4,1.8,0,2.2-0.8C433.8,38.6,433.4,37.6,432.6,37.2z"/>
	<path fill="#E5E9EB" d="M113.3,41.4l-2.2-1l1-2.2c0.2-0.6,0-1.2-0.6-1.5c-0.6-0.2-1.2,0-1.5,0.6l-1,2.2l-2.3-1
		c-0.6-0.2-1.2,0-1.5,0.6s0,1.2,0.6,1.5l2.3,1l-1,2.2c-0.2,0.6,0,1.2,0.6,1.5c0.6,0.2,1.2,0,1.5-0.6l1-2.2l2.2,1
		c0.6,0.3,1.2,0,1.5-0.6C114.1,42.3,113.8,41.6,113.3,41.4z"/>
	<path fill="#E5E9EB" d="M318.2,4.8l-2.2-1l1-2.2c0.2-0.6,0-1.2-0.6-1.5c-0.6-0.2-1.2,0-1.5,0.6l-1,2.2l-2.3-1
		c-0.6-0.2-1.2,0-1.5,0.6c-0.2,0.6,0,1.2,0.6,1.5l2.3,1l-1,2.2c-0.2,0.6,0,1.2,0.6,1.5c0.6,0.2,1.2,0,1.5-0.6l1-2.2l2.2,1
		c0.6,0.3,1.2,0,1.5-0.6C319,5.7,318.7,5,318.2,4.8z"/>
	<path fill="#E5E9EB" d="M323.8,61.2c-3.7,0-6.7,3-6.7,6.7s3,6.7,6.7,6.7c3.7,0,6.7-3,6.7-6.7S327.5,61.2,323.8,61.2z M323.8,71.6
		c-2,0-3.7-1.7-3.7-3.7s1.7-3.7,3.7-3.7s3.7,1.7,3.7,3.7S325.8,71.6,323.8,71.6z"/>
	<path fill="#E5E9EB" d="M46.4,148.2c-2.3,0-4.1,1.9-4.1,4.1c0,2.3,1.9,4.1,4.1,4.1c2.3,0,4.1-1.9,4.1-4.1
		C50.6,150,48.7,148.2,46.4,148.2z M46.4,154.6c-1.3,0-2.3-1-2.3-2.3c0-1.3,1-2.3,2.3-2.3c1.3,0,2.3,1,2.3,2.3
		C48.7,153.6,47.7,154.6,46.4,154.6z"/>
	<path fill="#E5E9EB" d="M210.1,84.6c-2.3,0-4.1,1.9-4.1,4.1s1.9,4.1,4.1,4.1c2.3,0,4.1-1.9,4.1-4.1S212.4,84.6,210.1,84.6z
		 M210.1,91.1c-1.3,0-2.3-1-2.3-2.3c0-1.3,1-2.3,2.3-2.3c1.3,0,2.3,1,2.3,2.3C212.4,90,211.4,91.1,210.1,91.1z"/>
	<g>
		<g>
			<rect x="25.6" y="243.6" fill="#E5E9EB" width="395.1" height="2.9"/>
		</g>
		<g>
			<rect x="454.2" y="243.6" fill="#E5E9EB" width="53.9" height="2.9"/>
		</g>
		<g>
			<rect y="243.6" fill="#E5E9EB" width="17.5" height="2.9"/>
		</g>
		<g>
			<rect x="62.6" y="267.4" fill="#E5E9EB" width="17.2" height="2.9"/>
		</g>
		<g>
			<rect x="104.3" y="267.4" fill="#E5E9EB" width="31" height="2.9"/>
		</g>
		<g>
			<rect x="354.7" y="267.4" fill="#E5E9EB" width="13.8" height="2.9"/>
		</g>
		<g>
			<rect x="385.2" y="267.4" fill="#E5E9EB" width="60" height="2.9"/>
		</g>
		<g>
			<rect x="37.3" y="287.7" fill="#E5E9EB" width="15.1" height="2.9"/>
		</g>
		<g>
			<rect x="452.8" y="287.7" fill="#E5E9EB" width="15.1" height="2.9"/>
		</g>
	</g>
	<g>
		<path fill="#F1F1F3" stroke="#E5E9EA" stroke-width="2" stroke-miterlimit="10" d="M124,141.6v29.4h58.5V198H124v47.4H97.1V114.7
			h87.7v26.9H124z"/>
		<path fill="#F1F1F3" stroke="#E5E9EA" stroke-width="2" stroke-miterlimit="10" d="M282.1,245.4l-6.8-19.3h-52.8l-6.8,19.3h-29.6
			l46.7-130.8H265l46.7,130.8H282.1z M232.2,199.2h33.5L249,152.3L232.2,199.2z"/>
		<path fill="#F1F1F3" stroke="#E5E9EA" stroke-width="2" stroke-miterlimit="10" d="M442.4,179.6c0,7-1,13.7-3.1,20
			c-2.1,6.3-5,12.1-8.8,17.5l30.7,28.3H421l-10-10c-5,3-10.3,5.3-16,7c-5.6,1.7-11.6,2.5-17.7,2.5c-8.9,0-17.3-1.7-25.2-5.2
			c-7.9-3.4-14.8-8.1-20.7-14c-5.9-5.9-10.5-12.8-14-20.7c-3.4-7.9-5.2-16.4-5.2-25.4c0-9,1.7-17.5,5.2-25.4
			c3.4-7.9,8.1-14.8,14-20.7c5.9-5.9,12.8-10.5,20.7-14c7.9-3.4,16.3-5.2,25.2-5.2c8.9,0,17.3,1.7,25.2,5.2
			c7.9,3.4,14.8,8.1,20.7,14c5.9,5.9,10.5,12.8,14,20.7C440.6,162.1,442.4,170.6,442.4,179.6z M377.3,217.9c4.8,0,9.3-0.8,13.7-2.5
			l-7.3-7.3l18.9-19.1l8.4,8.6c3-5.7,4.5-11.7,4.5-18c0-5.3-1-10.3-3-15c-2-4.6-4.8-8.7-8.2-12.2c-3.4-3.5-7.5-6.3-12.1-8.3
			c-4.6-2-9.6-3-14.8-3c-5.2,0-10.2,1-14.9,3c-4.7,2-8.8,4.8-12.2,8.3c-3.4,3.5-6.2,7.6-8.2,12.2c-2,4.6-3,9.6-3,15
			c0,5.3,1,10.3,3,15c2,4.6,4.8,8.7,8.2,12.1c3.4,3.4,7.5,6.2,12.2,8.2C367.1,216.9,372.1,217.9,377.3,217.9z"/>
	</g>
	<path fill="none" stroke="#F1F1F3" stroke-width="2.4" stroke-miterlimit="10" d="M266.7,55.7h-90.6c-1-4.7-1-9.2,1.7-13.1
		c2.7-3.9,7.3-6.6,12-6.8c4.4-0.2,8.8,1.6,13.2,1c11.3-1.6,16.1-17.4,27.4-19.1c6.3-0.9,12.6,3.4,15.3,9.2c1.2,2.5,1.9,5.4,3.9,7.3
		c2.2,2,5.3,2.4,8.1,3.5C264.6,40.4,267.9,48.3,266.7,55.7z"/>
	<path fill="none" stroke="#F1F1F3" stroke-width="2.4" stroke-miterlimit="10" d="M497.4,104.2h-59.9c-2-4.1-2-8.9,0.7-12.6
		c2.6-3.7,7.4-5.8,11.9-5.3c3.6,0.4,7.6,2.3,10.6,0.3c3.2-2.1,2.8-7,5-10.1c2.2-3.1,6.7-3.8,10.2-2.3c3.5,1.4,6,4.6,7.6,8
		c1,2.1,1.9,4.6,4.1,5.5c1.8,0.8,3.9,0.2,5.9,0.5c3,0.5,5.2,3.3,6,6.2S497.7,101.1,497.4,104.2z"/>
	<g>
		<path fill="#F1F1F3" d="M497.6,154c2.2,1.5,3.6,3.6,4.5,5.8c1.4,3.4,1.8,7.1,1.1,10.6c-0.4,2.1-1.3,4.2-1.6,6.4
			c-0.3,2.2,0,4.5,1.7,6.2c1.3,1.4,3.3,2.2,4.9,3.3c3.1,2.3,4.3,6.2,2.9,9.5c-0.6,1.5-2.8,3-2,4.4c18.2,32-53.7,30.5-28.5-2.9
			c1.4-1.9-2.1-4-3.2-6c-1.9-3.2-0.8-7.3,2.5-9.6c1.5-1.1,3.4-1.8,4.2-3.3c1-2-0.6-4.2-1.7-6.2c-2.5-4.4-1.9-9.7,0.8-13.9
			C486,153.5,491.7,150,497.6,154z"/>
		<g>
			<g>
				<rect x="491.9" y="171.2" fill="#E5E9EB" width="0.6" height="75"/>
			</g>
			<g>
				<polygon fill="#E5E9EB" points="491.9,195.5 492.4,195.2 484.1,185.4 483.6,185.7 				"/>
			</g>
			<g>
				<polygon fill="#E5E9EB" points="492.4,204.5 506.3,191.6 505.8,191.3 492,204.1 				"/>
			</g>
		</g>
	</g>
	<g>
		<g>
			
				<rect x="23.2" y="202.5" transform="matrix(0.2386 -0.9711 0.9711 0.2386 -147.5265 218.2851)" fill="#E5E9EB" width="84.5" height="1.4"/>
		</g>
		<g>
			
				<rect x="-0.4" y="202.5" transform="matrix(0.2386 -0.9711 0.9711 0.2386 -165.4558 195.4164)" fill="#E5E9EB" width="84.5" height="1.4"/>
		</g>
		<g>
			<rect x="50.3" y="169.3" fill="#E5E9EB" width="23.3" height="1.4"/>
		</g>
		<g>
			<rect x="47.7" y="180.7" fill="#E5E9EB" width="23.3" height="1.4"/>
		</g>
		<g>
			<rect x="45" y="192.1" fill="#E5E9EB" width="23.3" height="1.4"/>
		</g>
		<g>
			<rect x="41.9" y="203.5" fill="#E5E9EB" width="23.3" height="1.4"/>
		</g>
		<g>
			<rect x="38.9" y="214.9" fill="#E5E9EB" width="23.3" height="1.4"/>
		</g>
		<g>
			<rect x="36" y="226.3" fill="#E5E9EB" width="23.3" height="1.4"/>
		</g>
		<g>
			<rect x="33.2" y="237.7" fill="#E5E9EB" width="23.3" height="1.4"/>
		</g>
	</g>
	<path fill="#E5E9EB" d="M89.1,162.8H45.3c-0.8,0-1.4-0.6-1.4-1.4V161c0-0.8,0.6-1.4,1.4-1.4h43.9c0.8,0,1.4,0.6,1.4,1.4v0.4
		C90.6,162.2,89.9,162.8,89.1,162.8z"/>
	<g>
		<g>
			<g>
				
					<rect x="71.7" y="161" transform="matrix(0.9711 -0.2386 0.2386 0.9711 -46.4013 23.1423)" fill="#E5E9EB" width="1.4" height="84.5"/>
			</g>
		</g>
		<g>
			<g>
				
					<rect x="95.2" y="161" transform="matrix(0.9711 -0.2386 0.2386 0.9711 -45.7219 28.7618)" fill="#E5E9EB" width="1.4" height="84.5"/>
			</g>
		</g>
		<g>
			<g>
				<rect x="64.2" y="169.3" fill="#E5E9EB" width="23.3" height="1.4"/>
			</g>
		</g>
		<g>
			<g>
				<rect x="66.9" y="180.7" fill="#E5E9EB" width="23.3" height="1.4"/>
			</g>
		</g>
		<g>
			<rect x="69.5" y="192.1" fill="#E5E9EB" width="23.3" height="1.4"/>
		</g>
		<g>
			<g>
				<rect x="72.6" y="203.5" fill="#E5E9EB" width="23.3" height="1.4"/>
			</g>
		</g>
		<g>
			<g>
				<rect x="75.6" y="214.9" fill="#E5E9EB" width="23.3" height="1.4"/>
			</g>
		</g>
		<g>
			<g>
				<rect x="78.6" y="226.3" fill="#E5E9EB" width="23.3" height="1.4"/>
			</g>
		</g>
		<g>
			<g>
				<rect x="81.3" y="237.7" fill="#E5E9EB" width="23.3" height="1.4"/>
			</g>
		</g>
	</g>
	<g>
		<path fill="none" stroke="#E5E9EA" stroke-width="2" stroke-miterlimit="10" d="M79.4,72.7c0,8.6-10.9,11.2-10.9,14.6v1.3H57.7
			v-3.2c0-4.6,8.3-7.3,8.3-12.5c0-2.4-1.5-4.4-4.2-4.4c-3.4,0-4.1,2.7-4.1,5.3c0,0.6,0,1.1,0.1,1.7H46c-0.1-0.8-0.2-1.6-0.2-2.4
			c0-8.3,7.4-13.4,17.3-13.4C72.9,59.7,79.4,64.8,79.4,72.7z M56.9,104.2V92.4h12.6v11.8H56.9z"/>
	</g>
</g>
</svg>
