<?xml version="1.0" encoding="utf-8"?>
<!-- Generator: Adobe Illustrator 24.1.3, SVG Export Plug-In . SVG Version: 6.00 Build 0)  -->
<svg version="1.1" id="Layer_1" xmlns="http://www.w3.org/2000/svg" xmlns:xlink="http://www.w3.org/1999/xlink" x="0px" y="0px"
	 width="512px" height="512px" viewBox="0 0 512 512" enable-background="new 0 0 512 512" xml:space="preserve">
<g>
	<path fill="#525A7E" d="M452.9,60.1l-0.2-9.1l9.2-0.2c2.3,0,4.1-2,4.1-4.3s-2-4.1-4.3-4.1l-9.2,0.2l-0.2-9.2c0-2.3-2-4.1-4.3-4.1
		s-4.1,2-4.1,4.3l0.2,9.2l-9.2,0.2c-2.3,0-4.1,2-4.1,4.3s2,4.1,4.3,4.1l9.2-0.2l0.2,9.1c0,2.3,1.9,4.2,4.3,4.1
		C451.1,64.3,453,62.4,452.9,60.1z"/>
	<path fill="#525A7E" d="M498.9,117.3l-0.1-7.3l7.4-0.1c1.8,0,3.4-1.6,3.3-3.4c0-1.8-1.6-3.4-3.4-3.3l-7.4,0.1l-0.1-7.5
		c0-1.8-1.6-3.4-3.4-3.3c-1.8,0-3.4,1.6-3.3,3.4l0.1,7.5l-7.4,0.1c-1.8,0-3.4,1.6-3.3,3.4c0,1.8,1.6,3.4,3.4,3.3l7.4-0.1l0.1,7.3
		c0,1.9,1.5,3.4,3.4,3.3C497.4,120.7,499,119.1,498.9,117.3z"/>
	<path fill="#525A7E" d="M423.3,106.6c-4.1,0-7.4,3.3-7.4,7.4s3.3,7.4,7.4,7.4s7.4-3.3,7.4-7.4S427.4,106.6,423.3,106.6z
		 M423.3,118.1c-2.3,0-4.1-1.8-4.1-4.1c0-2.3,1.8-4.1,4.1-4.1s4.1,1.8,4.1,4.1C427.4,116.3,425.6,118.1,423.3,118.1z"/>
	<path fill="#525A7E" d="M481.4,178.7c-5.9,0-10.8,4.8-10.8,10.8c0,5.9,4.8,10.8,10.8,10.8c5.9,0,10.8-4.8,10.8-10.8
		C492.2,183.5,487.3,178.7,481.4,178.7z M481.4,195.4c-3.3,0-6-2.7-6-6s2.7-6,6-6s6,2.7,6,6S484.7,195.4,481.4,195.4z"/>
	<g>
		<path fill="#EAEDF7" d="M358.3,6.1H30C17.1,6.1,6.6,16.6,6.6,29.6v421.8c0,13,10.5,23.5,23.5,23.5h328.3c13,0,23.5-10.5,23.5-23.5
			V29.6C381.8,16.6,371.3,6.1,358.3,6.1z"/>
		<path fill="#FFFFFF" d="M357.6,5.9H30C17.1,5.9,6.6,16.4,6.6,29.3v419.2h327.6c13,0,23.5-10.5,23.5-23.5V5.9H357.6z"/>
		<path fill="#525A7E" d="M358.3,480.7H30c-16.2,0-29.3-13.1-29.3-29.3V29.3C0.7,13.2,13.9,0,30,0h328.3c16.2,0,29.3,13.2,29.3,29.3
			v422.1C387.6,467.6,374.5,480.7,358.3,480.7z M30,11.7c-9.7,0-17.6,7.9-17.6,17.6v422.1c0,9.7,7.9,17.6,17.6,17.6h328.3
			c9.7,0,17.6-7.9,17.6-17.6V29.3c0-9.7-7.9-17.6-17.6-17.6C358.3,11.7,30,11.7,30,11.7z"/>
		<path fill="#EAEDF7" d="M303.6,6.2H100.4v31.3c0,13,10.5,23.5,23.5,23.5h156.3c13,0,23.5-10.5,23.5-23.5V6.2H303.6z"/>
		<path fill="#FFFFFF" d="M256.7,6.2H100.4v31.3c0,13,10.5,23.5,23.5,23.5h101.6c17.3,0,31.3-14,31.3-31.3L256.7,6.2L256.7,6.2z"/>
		<path fill="#525A7E" d="M280.2,66.7H123.8c-16.2,0-29.3-13.1-29.3-29.3V6.2c0-3.2,2.6-5.9,5.9-5.9h203.2c3.2,0,5.9,2.6,5.9,5.9
			v31.3C309.5,53.6,296.3,66.7,280.2,66.7z M106.2,12v25.4c0,9.7,7.9,17.6,17.6,17.6h156.3c9.7,0,17.6-7.9,17.6-17.6V12H106.2z"/>
		<path fill="#EAEDF7" d="M69.3,154.4l15.6-0.1c8.6,0,15.6-7.1,15.6-15.7l-0.1-15.6c0-8.6-7.1-15.6-15.7-15.6L69,107.5
			c-8.6,0-15.6,7.1-15.6,15.7l0.1,15.6C53.6,147.5,60.6,154.5,69.3,154.4z"/>
		<path fill="#525A7E" d="M69.2,160.3c-5.7,0-11.1-2.2-15.1-6.2c-4.1-4-6.3-9.4-6.4-15.2l-0.1-15.6c-0.1-11.8,9.5-21.6,21.4-21.6
			l15.6-0.1c5.6,0.1,11.1,2.2,15.2,6.2c4.1,4.1,6.3,9.4,6.4,15.2l0.1,15.6c0.1,11.9-9.5,21.5-21.4,21.6L69.2,160.3
			C69.3,160.3,69.2,160.3,69.2,160.3z M84.8,113.3C84.7,113.3,84.7,113.3,84.8,113.3l-15.7,0.1c-5.4,0-9.7,4.4-9.7,9.8l0.1,15.6
			c0,2.6,1,5.1,2.9,6.9c1.9,1.8,4.4,2.9,6.9,2.8l0,0l15.6-0.1c5.4,0,9.7-4.4,9.7-9.8L94.5,123c0-2.6-1-5.1-2.9-6.9
			C89.8,114.3,87.3,113.3,84.8,113.3z"/>
		<path fill="#EAEDF7" d="M69.3,248.2l15.6-0.1c8.6,0,15.6-7.1,15.6-15.7l-0.1-15.6c0-8.6-7.1-15.6-15.7-15.6L69,201.3
			c-8.6,0-15.6,7.1-15.6,15.7l0.1,15.6C53.6,241.3,60.6,248.3,69.3,248.2z"/>
		<path fill="#525A7E" d="M69.2,254.1c-5.7,0-11.1-2.2-15.1-6.2c-4.1-4-6.3-9.4-6.4-15.2l-0.1-15.6c-0.1-11.9,9.5-21.5,21.4-21.6
			l15.6-0.1h0.1c5.7,0,11.1,2.2,15.1,6.2c4.1,4,6.3,9.4,6.4,15.2l0.1,15.6c0,5.8-2.2,11.2-6.2,15.2c-4,4.1-9.4,6.3-15.2,6.4
			L69.2,254.1C69.3,254.1,69.2,254.1,69.2,254.1z M69.3,248.2L69.3,248.2L69.3,248.2z M84.7,207.1L84.7,207.1L69,207.2
			c-2.6,0-5.1,1-6.9,2.9c-1.8,1.9-2.8,4.3-2.8,6.9l0.1,15.6c0,2.6,1,5.1,2.9,6.9c1.8,1.8,4.3,2.8,6.9,2.8l0,0l15.6-0.1
			c2.6,0,5.1-1,6.9-2.9s2.8-4.3,2.8-6.9l-0.1-15.6c0-2.6-1-5.1-2.9-6.9C89.8,208.1,87.3,207.1,84.7,207.1z"/>
		<path fill="#EAEDF7" d="M69.3,342l15.6-0.1c8.6,0,15.6-7.1,15.6-15.7l-0.1-15.6c0-8.6-7.1-15.6-15.7-15.6L69,295.1
			c-8.6,0-15.6,7.1-15.6,15.7l0.1,15.6C53.6,335.1,60.6,342.1,69.3,342z"/>
		<path fill="#525A7E" d="M69.2,347.9c-5.7,0-11.1-2.2-15.1-6.2c-4.1-4-6.3-9.4-6.4-15.2l-0.1-15.6c0-5.7,2.2-11.2,6.2-15.2
			c4-4.1,9.4-6.3,15.2-6.4l15.6-0.1h0.1c11.8,0,21.4,9.6,21.5,21.4l0.1,15.6c0,5.7-2.2,11.2-6.2,15.2c-4,4.1-9.4,6.3-15.2,6.4
			L69.2,347.9C69.3,347.9,69.2,347.9,69.2,347.9z M69.3,342L69.3,342L69.3,342z M84.7,300.9L84.7,300.9L69.1,301
			c-2.6,0-5.1,1-6.9,2.9c-1.8,1.9-2.8,4.3-2.8,6.9l0.1,15.6c0,2.6,1,5.1,2.9,6.9c1.9,1.8,4.3,3.2,6.9,2.8l15.6-0.1
			c2.6,0,5.1-1,6.9-2.9s2.8-4.3,2.8-6.9l-0.1-15.6c0-2.6-1-5.1-2.9-6.9C89.8,301.9,87.3,300.9,84.7,300.9z"/>
		<path fill="#EAEDF7" d="M69.3,435.9l15.6-0.1c8.6,0,15.6-7.1,15.6-15.7l-0.1-15.6c0-8.6-7.1-15.6-15.7-15.6L69,389
			c-8.6,0-15.6,7.1-15.6,15.7l0.1,15.6C53.6,428.9,60.6,435.9,69.3,435.9z"/>
		<path fill="#525A7E" d="M69.2,441.7c-5.7,0-11.1-2.2-15.1-6.2c-4.1-4-6.3-9.4-6.4-15.2l-0.1-15.6c-0.1-11.9,9.5-21.5,21.4-21.6
			l15.6-0.1c5.6,0.2,11.1,2.2,15.2,6.2s6.3,9.4,6.4,15.2l0.1,15.6c0,5.7-2.2,11.1-6.2,15.2s-9.4,6.3-15.2,6.4L69.2,441.7
			C69.3,441.7,69.2,441.7,69.2,441.7z M69.3,435.8L69.3,435.8L69.3,435.8z M84.8,394.7C84.7,394.7,84.7,394.7,84.8,394.7l-15.7,0.1
			c-5.4,0-9.7,4.4-9.7,9.8l0.1,15.6c0,2.6,1,5.1,2.9,6.9c1.8,1.8,4.3,2.8,6.9,2.8l0,0l15.6-0.1c2.6,0,5.1-1,6.9-2.9s2.8-4.3,2.8-6.9
			l-0.1-15.6c0-2.6-1-5.1-2.9-6.9C89.8,395.7,87.3,394.7,84.8,394.7z"/>
		<path fill="#525A7E" d="M319.2,119.2h-70.3c-3.2,0-5.9-2.6-5.9-5.9c0-3.2,2.6-5.9,5.9-5.9h70.3c3.2,0,5.9,2.6,5.9,5.9
			C325.1,116.5,322.5,119.2,319.2,119.2z"/>
		<path fill="#525A7E" d="M217.6,119.2h-86c-3.2,0-5.9-2.6-5.9-5.9c0-3.2,2.6-5.9,5.9-5.9h86c3.2,0,5.9,2.6,5.9,5.9
			C223.5,116.5,220.9,119.2,217.6,119.2z"/>
		<path fill="#525A7E" d="M264.5,154.4h-54.7c-3.2,0-5.9-2.6-5.9-5.9s2.6-5.9,5.9-5.9h54.7c3.2,0,5.9,2.6,5.9,5.9
			S267.8,154.4,264.5,154.4z"/>
		<path fill="#525A7E" d="M178.5,154.4h-46.9c-3.2,0-5.9-2.6-5.9-5.9s2.6-5.9,5.9-5.9h46.9c3.2,0,5.9,2.6,5.9,5.9
			S181.8,154.4,178.5,154.4z"/>
		<path fill="#525A7E" d="M256.7,213h-58.6c-3.2,0-5.9-2.6-5.9-5.9c0-3.2,2.6-5.9,5.9-5.9h58.6c3.2,0,5.9,2.6,5.9,5.9
			S259.9,213,256.7,213z"/>
		<path fill="#525A7E" d="M166.8,213h-35.2c-3.2,0-5.9-2.6-5.9-5.9c0-3.2,2.6-5.9,5.9-5.9h35.2c3.2,0,5.9,2.6,5.9,5.9
			S170.1,213,166.8,213z"/>
		<path fill="#525A7E" d="M202,248.2h-70.3c-3.2,0-5.9-2.6-5.9-5.9c0-3.2,2.6-5.9,5.9-5.9H202c3.2,0,5.9,2.6,5.9,5.9
			C207.9,245.5,205.2,248.2,202,248.2z"/>
		<path fill="#525A7E" d="M217.6,306.8h-86c-3.2,0-5.9-2.6-5.9-5.9c0-3.2,2.6-5.9,5.9-5.9h86c3.2,0,5.9,2.6,5.9,5.9
			C223.5,304.2,220.9,306.8,217.6,306.8z"/>
		<path fill="#525A7E" d="M186.4,342h-54.7c-3.2,0-5.9-2.6-5.9-5.9c0-3.2,2.6-5.9,5.9-5.9h54.7c3.2,0,5.9,2.6,5.9,5.9
			C192.2,339.3,189.6,342,186.4,342z"/>
		<path fill="#525A7E" d="M216.7,400.6h-85c-3.2,0-5.9-2.6-5.9-5.9c0-3.2,2.6-5.9,5.9-5.9h85c3.2,0,5.9,2.6,5.9,5.9
			C222.5,398,219.9,400.6,216.7,400.6z"/>
		<path fill="#525A7E" d="M186.4,435.8h-54.7c-3.2,0-5.9-2.6-5.9-5.9c0-3.2,2.6-5.9,5.9-5.9h54.7c3.2,0,5.9,2.6,5.9,5.9
			C192.2,433.2,189.6,435.8,186.4,435.8z"/>
		<path fill="#EAEDF7" d="M489.8,506.1H258.2c-9.2,0-16.4-7.9-15.6-17l21.9-248.8h218.9l21.9,248.8
			C506.2,498.3,499,506.1,489.8,506.1z"/>
		<path fill="#FFFFFF" d="M467.1,474.9H243.9l20.7-234.5l190.4,0.1l19.9,225.9C475.2,470.9,471.6,474.9,467.1,474.9z"/>
		<path fill="#525A7E" d="M489.8,512H258.2c-6,0-11.8-2.5-15.8-7c-4.1-4.4-6.1-10.4-5.6-16.4l22-248.8c0.3-3,2.8-5.4,5.8-5.4h218.9
			c3,0,5.6,2.3,5.8,5.4l22,248.8c0.5,6-1.5,12-5.6,16.4C501.6,509.5,495.8,512,489.8,512z M269.9,246.2l-21.5,243.4
			c-0.2,2.8,0.7,5.4,2.5,7.5c1.9,2,4.4,3.2,7.2,3.2h231.6c2.8,0,5.3-1.1,7.2-3.2c1.9-2,2.8-4.7,2.5-7.5L478,246.2H269.9z"/>
		<path fill="#525A7E" d="M436.5,277.5c-3.2,0-5.9-2.6-5.9-5.9v-70.3c0-26.9-21.9-48.9-48.9-48.9h-15.6c-26.9,0-48.9,21.9-48.9,48.9
			v70.3c0,3.2-2.6,5.9-5.9,5.9c-3.2,0-5.9-2.6-5.9-5.9v-70.3c0-33.4,27.2-60.6,60.6-60.6h15.6c33.4,0,60.6,27.2,60.6,60.6v70.3
			C442.4,274.9,439.8,277.5,436.5,277.5z"/>
	</g>
</g>
</svg>
