<?xml version="1.0" encoding="utf-8"?>
<!-- Generator: Adobe Illustrator 24.1.3, SVG Export Plug-In . SVG Version: 6.00 Build 0)  -->
<svg version="1.1" id="Layer_1" xmlns="http://www.w3.org/2000/svg" xmlns:xlink="http://www.w3.org/1999/xlink" x="0px" y="0px"
	 width="512px" height="512px" viewBox="0 0 512 512" enable-background="new 0 0 512 512" xml:space="preserve">
<g>
	<path fill="#525A7E" d="M399.8,40.7l-9.1-3.8l3.8-9.2c0.9-2.3-0.2-5-2.5-5.9s-5,0.2-5.9,2.5l-3.8,9.2l-9.3-3.8
		c-2.3-0.9-5,0.2-5.9,2.5s0.2,5,2.5,5.9l9.3,3.8l-3.8,9.2c-0.9,2.3,0.2,5,2.5,5.9s5-0.2,5.9-2.5l3.8-9.2l9.1,3.8
		c2.4,1,5-0.1,5.9-2.5C403.2,44.3,402.1,41.6,399.8,40.7z"/>
	<path fill="#525A7E" d="M114.7,22.4l-3.8,0.5l-0.5-3.8c-0.1-0.9-1-1.6-2-1.5c-0.9,0.1-1.6,1-1.5,2l0.5,3.8l-3.8,0.5
		c-0.9,0.1-1.6,1-1.5,2c0.1,0.9,1,1.6,2,1.5l3.8-0.5l0.5,3.8c0.1,0.9,1,1.6,2,1.5c0.9-0.1,1.6-1,1.5-2l-0.5-3.8l3.8-0.5
		c1-0.1,1.6-1,1.5-2C116.5,23,115.6,22.3,114.7,22.4z"/>
	<path fill="#525A7E" d="M15.9,89.1c-7,0-12.7,5.7-12.7,12.7s5.7,12.7,12.7,12.7s12.7-5.7,12.7-12.7S22.9,89.1,15.9,89.1z
		 M15.9,108.9c-3.9,0-7.1-3.2-7.1-7.1s3.2-7.1,7.1-7.1S23,98,23,101.9S19.8,108.9,15.9,108.9z"/>
	<path fill="#525A7E" d="M89.6,93.3c-3.4,0-6.1,2.7-6.1,6.1s2.7,6.1,6.1,6.1s6.1-2.7,6.1-6.1S93,93.3,89.6,93.3z M89.6,102.8
		c-1.9,0-3.4-1.5-3.4-3.4s1.5-3.4,3.4-3.4s3.4,1.5,3.4,3.4S91.5,102.8,89.6,102.8z"/>
	<path fill="#525A7E" d="M491,80.5c-11.6,0-21,9.4-21,21s9.4,21,21,21s21-9.4,21-21S502.6,80.5,491,80.5z M491,113.1
		c-6.4,0-11.6-5.2-11.6-11.6s5.2-11.6,11.6-11.6s11.6,5.2,11.6,11.6C502.7,107.9,497.5,113.1,491,113.1z"/>
	<path fill="#525A7E" d="M461.5,15.2c-2.9,0-5.2,2.3-5.2,5.2s2.3,5.2,5.2,5.2s5.2-2.3,5.2-5.2S464.4,15.2,461.5,15.2z M461.5,23.3
		c-1.6,0-2.9-1.3-2.9-2.9s1.3-2.9,2.9-2.9s2.9,1.3,2.9,2.9S463.1,23.3,461.5,23.3z"/>
	<g>
		<g>
			<g>
				<g>
					<polygon fill="#EAEDF7" points="455.6,233.5 245.6,158.5 35.6,233.5 245.6,308.5 					"/>
				</g>
			</g>
			<g>
				<polygon fill="#FFFFFF" points="208.1,171.9 35.6,233.5 208.1,295.1 				"/>
			</g>
			<g>
				<polygon fill="#FFFFFF" points="412.2,249 245.6,189.6 245.6,308.5 				"/>
			</g>
			<g>
				<path fill="#22375F" d="M245.6,314.1c-0.6,0-1.3-0.1-1.9-0.3l-210-75c-2.2-0.8-3.7-2.9-3.7-5.3c0-2.4,1.5-4.5,3.7-5.3l210-75
					c1.2-0.4,2.6-0.4,3.8,0l210,75c2.2,0.8,3.7,2.9,3.7,5.3c0,2.4-1.5,4.5-3.7,5.3l-210,75C246.9,314,246.3,314.1,245.6,314.1z
					 M52.4,233.5l193.3,69l193.3-69l-193.3-69L52.4,233.5z"/>
			</g>
			<g>
				<polygon fill="#FFFFFF" points="215.6,106 5.6,181 35.6,233.5 245.6,158.5 				"/>
			</g>
			<g>
				<path fill="#EAEDF7" d="M245.6,158.5l-30-52.5L168,123l10,17.5c4.6,8.1,0.8,18.4-8,21.6L24.5,214l11.1,19.5L245.6,158.5z"/>
			</g>
			<g>
				<path fill="#525A7E" d="M35.6,239.1c-2,0-3.9-1-4.9-2.8l-30-52.5c-0.8-1.4-1-3.2-0.4-4.7c0.6-1.6,1.8-2.8,3.4-3.4l210-75
					c2.6-0.9,5.4,0.1,6.8,2.5l30,52.5c0.8,1.4,1,3.2,0.4,4.7c-0.6,1.6-1.8,2.8-3.4,3.4l-210,75C36.9,239,36.3,239.1,35.6,239.1z
					 M13.8,184l24.3,42.6l199.2-71.2L213,112.8L13.8,184z"/>
			</g>
			<g>
				<polygon fill="#FFFFFF" points="275.6,106 485.6,181 455.6,233.5 245.6,158.5 				"/>
			</g>
			<g>
				<path fill="#EAEDF7" d="M455.2,170.1L438.1,200c-3.6,6.3-11.2,9.1-18.1,6.7l-167.8-59.9l-6.7,11.6l210,75l30-52.5L455.2,170.1z"
					/>
			</g>
			<g>
				<path fill="#525A7E" d="M455.6,239.1c-0.6,0-1.3-0.1-1.9-0.3l-210-75c-1.6-0.6-2.8-1.8-3.4-3.4c-0.6-1.6-0.4-3.3,0.4-4.7
					l30-52.5c1.4-2.4,4.2-3.4,6.8-2.5l210,75c1.6,0.6,2.8,1.8,3.4,3.4c0.6,1.6,0.4,3.3-0.4,4.7l-30,52.5
					C459.5,238.1,457.6,239.1,455.6,239.1z M253.8,155.4L453,226.6l24.3-42.6l-199.2-71.2L253.8,155.4z"/>
			</g>
			<g>
				<polygon fill="#EAEDF7" points="245.6,496 35.6,421 35.6,233.5 245.6,308.5 				"/>
			</g>
			<g>
				<path fill="#FFFFFF" d="M198.1,447.4l-162.5-58V233.5l172.5,61.6v145.3C208.1,445.5,203,449.2,198.1,447.4z"/>
			</g>
			<g>
				<path fill="#525A7E" d="M245.6,501.6c-0.6,0-1.3-0.1-1.9-0.3l-210-75c-2.2-0.8-3.7-2.9-3.7-5.3V233.5c0-1.8,0.9-3.5,2.4-4.6
					c1.5-1.1,3.4-1.3,5.1-0.7l210,75c2.2,0.8,3.7,2.9,3.7,5.3V496c0,1.8-0.9,3.5-2.4,4.6C247.9,501.3,246.8,501.6,245.6,501.6z
					 M41.3,417L240,488V312.5l-198.7-71C41.3,241.5,41.3,417,41.3,417z"/>
			</g>
			<g>
				<polygon fill="#EAEDF7" points="215.6,361 5.6,286 35.6,233.5 245.6,308.5 				"/>
			</g>
			<g>
				<path fill="#FFFFFF" d="M181.3,326.8l-165.2-59l19.6-34.3l177.1,63.2L199.5,320C195.8,326.4,188.1,329.2,181.3,326.8z"/>
			</g>
			<g>
				<path fill="#525A7E" d="M215.6,366.6c-0.6,0-1.3-0.1-1.9-0.3l-210-75c-1.6-0.6-2.8-1.8-3.4-3.3c-0.6-1.6-0.4-3.3,0.4-4.7
					l30-52.5c1.4-2.4,4.2-3.4,6.8-2.5l210,75c1.6,0.6,2.8,1.8,3.4,3.3c0.6,1.6,0.4,3.3-0.4,4.7l-30,52.5
					C219.5,365.6,217.6,366.6,215.6,366.6z M13.8,282.9L213,354.1l24.3-42.6L38.2,240.4L13.8,282.9z"/>
			</g>
			<g>
				<g>
					<polygon fill="#EAEDF7" points="245.6,496 455.6,421 455.6,233.5 245.6,308.5 					"/>
				</g>
			</g>
			<g>
				<path fill="#FFFFFF" d="M245.6,462.8l170-60.7c6-2.1,10-7.8,10-14.1V244.2l-180,64.3V462.8z"/>
			</g>
			<g>
				<path fill="#525A7E" d="M245.6,501.6c-1.1,0-2.3-0.3-3.2-1c-1.5-1.1-2.4-2.8-2.4-4.6V308.5c0-2.4,1.5-4.5,3.7-5.3l210-75
					c1.7-0.6,3.6-0.4,5.1,0.7c1.5,1.1,2.4,2.8,2.4,4.6V421c0,2.4-1.5,4.5-3.7,5.3l-210,75C246.9,501.5,246.3,501.6,245.6,501.6z
					 M251.3,312.5V488L450,417V241.5L251.3,312.5z"/>
			</g>
			<g>
				<polygon fill="#EAEDF7" points="275.6,361 485.6,286 455.6,233.5 245.6,308.5 				"/>
			</g>
			<g>
				<path fill="#FFFFFF" d="M264.4,341.4l159.3-56.9c8.8-3.1,12.6-13.5,8-21.6l-9.9-17.4l-176.2,62.9L264.4,341.4z"/>
			</g>
			<g>
				<path fill="#525A7E" d="M275.6,366.6c-2,0-3.9-1-4.9-2.8l-30-52.5c-0.8-1.4-1-3.2-0.4-4.7c0.6-1.6,1.8-2.8,3.4-3.3l210-75
					c2.6-0.9,5.4,0.1,6.8,2.5l30,52.5c0.8,1.4,1,3.2,0.4,4.7c-0.6,1.6-1.8,2.8-3.4,3.3l-210,75C276.9,366.5,276.3,366.6,275.6,366.6
					z M253.8,311.5l24.3,42.6l199.2-71.2L453,240.3L253.8,311.5z"/>
			</g>
			<g>
				<polygon fill="#FFFFFF" points="290.6,167.9 290.6,16 200.6,16 200.6,167.9 140.8,167.9 245.6,274.9 350.4,167.9 				"/>
			</g>
			<g>
				<path fill="#EAEDF7" d="M350.4,167.9h-59.8V16h-90v22.5h60c4.1,0,7.5,3.4,7.5,7.5v136.9c0,4.1,3.4,7.5,7.5,7.5h52.3l-82.5,84.3
					l0.2,0.2L350.4,167.9z"/>
			</g>
			<g>
				<path fill="#525A7E" d="M245.6,280.5c-1.5,0-3-0.6-4-1.7l-104.8-107c-1.6-1.6-2-4-1.2-6.1c0.9-2.1,2.9-3.4,5.2-3.4H195V16
					c0-3.1,2.5-5.6,5.6-5.6h90c3.1,0,5.6,2.5,5.6,5.6v146.2h54.2c2.3,0,4.3,1.4,5.2,3.4c0.9,2.1,0.4,4.5-1.2,6.1l-104.8,107
					C248.6,279.9,247.1,280.5,245.6,280.5z M154.2,173.5l91.4,93.4l91.4-93.4h-46.4c-3.1,0-5.6-2.5-5.6-5.6V21.6h-78.8v146.2
					c0,3.1-2.5,5.6-5.6,5.6L154.2,173.5L154.2,173.5z"/>
			</g>
		</g>
	</g>
</g>
</svg>
