<?xml version="1.0" encoding="utf-8"?>
<!-- Generator: Adobe Illustrator 24.1.3, SVG Export Plug-In . SVG Version: 6.00 Build 0)  -->
<svg version="1.1" id="Layer_1" xmlns="http://www.w3.org/2000/svg" xmlns:xlink="http://www.w3.org/1999/xlink" x="0px" y="0px"
	 width="512px" height="512px" viewBox="0 0 512 512" enable-background="new 0 0 512 512" xml:space="preserve">
<g>
	<path fill="#525A7E" d="M29.4,14.7L21,13.4l1.3-8.5c0.3-2.1-1.2-4.2-3.3-4.5s-4.2,1.2-4.5,3.3l-1.3,8.5l-8.6-1.3
		c-2.1-0.3-4.2,1.2-4.5,3.3s1.2,4.2,3.3,4.5L12,20l-1.3,8.5c-0.3,2.1,1.2,4.2,3.3,4.5s4.2-1.2,4.5-3.3l1.3-8.5l8.4,1.3
		c2.2,0.3,4.2-1.1,4.5-3.3C33,17.1,31.5,15.1,29.4,14.7z"/>
	<path fill="#525A7E" d="M63.1,469.7l-7.8-3.5l3.6-7.8c0.9-1.9,0-4.3-1.9-5.2c-1.9-0.9-4.3,0-5.2,1.9l-3.6,7.8l-7.9-3.6
		c-1.9-0.9-4.3,0-5.2,1.9s0,4.3,1.9,5.2l7.9,3.6l-3.6,7.8c-0.9,1.9,0,4.3,1.9,5.2s4.3,0,5.2-1.9l3.6-7.8l7.8,3.5
		c2,0.9,4.3,0.1,5.2-1.9C65.9,473,65,470.6,63.1,469.7z"/>
	<path fill="#525A7E" d="M510.9,230.1l-3.7-1.7l1.7-3.8c0.4-0.9,0-2.1-0.9-2.5s-2.1,0-2.5,0.9l-1.7,3.8l-3.8-1.7
		c-0.9-0.4-2.1,0-2.5,0.9s0,2.1,0.9,2.5l3.8,1.7l-1.7,3.8c-0.4,0.9,0,2.1,0.9,2.5s2.1,0,2.5-0.9l1.7-3.8l3.7,1.7
		c1,0.4,2.1,0,2.5-0.9C512.3,231.6,511.8,230.5,510.9,230.1z"/>
	<path fill="#525A7E" d="M432.5,489.6c-6.1,0-11,4.9-11,11s4.9,11,11,11s11-4.9,11-11S438.6,489.6,432.5,489.6z M432.5,506.7
		c-3.4,0-6.1-2.7-6.1-6.1s2.7-6.1,6.1-6.1s6.1,2.7,6.1,6.1S435.9,506.7,432.5,506.7z"/>
	<path fill="#525A7E" d="M241.1,1.3c-2.4,0-4.4,2-4.4,4.4s2,4.4,4.4,4.4s4.4-2,4.4-4.4S243.6,1.3,241.1,1.3z M241.1,8.1
		c-1.3,0-2.4-1.1-2.4-2.4s1.1-2.4,2.4-2.4s2.4,1.1,2.4,2.4S242.5,8.1,241.1,8.1z"/>
	<path fill="#525A7E" d="M260.9,481.9c-3,0-5.4,2.4-5.4,5.4s2.4,5.4,5.4,5.4s5.4-2.4,5.4-5.4S263.8,481.9,260.9,481.9z M260.9,490.3
		c-1.7,0-3-1.3-3-3s1.3-3,3-3s3,1.3,3,3S262.5,490.3,260.9,490.3z"/>
	<path fill="#525A7E" d="M450.6,52.7c-10,0-18.1,8.1-18.1,18.1S440.6,89,450.6,89s18.1-8.1,18.1-18.1S460.6,52.7,450.6,52.7z
		 M450.6,80.9c-5.6,0-10.1-4.5-10.1-10.1s4.5-10.1,10.1-10.1s10.1,4.5,10.1,10.1S456.2,80.9,450.6,80.9z"/>
	<g>
		<g>
			<path fill="#EAEDF7" d="M451.8,438.8H232.5l-70.1,36.9v-36.9h-24.6c-6.8,0-12.3-5.5-12.3-12.3V180.1c0-6.8,5.5-12.3,12.3-12.3
				h314.1c6.8,0,12.3,5.5,12.3,12.3v246.3C464.1,433.3,458.6,438.8,451.8,438.8z"/>
		</g>
		<g>
			<path fill="#FFFFFF" d="M413.7,408H125.5V167.8h307.9v220.5C433.4,399.2,424.6,408,413.7,408z"/>
		</g>
		<g>
			<path fill="#525A7E" d="M162.4,480.3c-0.8,0-1.7-0.2-2.4-0.7c-1.4-0.8-2.2-2.3-2.2-4v-32.3h-20c-9.3,0-16.9-7.6-16.9-16.9V180.1
				c0-9.3,7.6-16.9,16.9-16.9h314.1c9.3,0,16.9,7.6,16.9,16.9v246.3c0,9.3-7.6,16.9-16.9,16.9H233.6l-69,36.4
				C163.9,480.2,163.2,480.3,162.4,480.3z M137.8,172.4c-4.2,0-7.7,3.5-7.7,7.7v246.3c0,4.2,3.5,7.7,7.7,7.7h24.6
				c2.5,0,4.6,2.1,4.6,4.6V468l63.3-33.4c0.7-0.4,1.4-0.5,2.2-0.5h219.4c4.2,0,7.7-3.5,7.7-7.7V180.1c0-4.2-3.5-7.7-7.7-7.7
				L137.8,172.4L137.8,172.4z"/>
		</g>
		<g>
			<path fill="#EAEDF7" d="M57.7,358.7h219.4l70.1,36.9v-36.9h24.6c6.8,0,12.3-5.5,12.3-12.3V100.1c0-6.8-5.5-12.3-12.3-12.3H57.7
				c-6.8,0-12.3,5.5-12.3,12.3v246.3C45.4,353.2,50.9,358.7,57.7,358.7z"/>
		</g>
		<g>
			<path fill="#FFFFFF" d="M91.8,327.9h292.3V87.8H76.2v224.6C76.2,321,83.2,327.9,91.8,327.9z"/>
		</g>
		<g>
			<path fill="#525A7E" d="M345,399.8l-69-36.4H57.7c-9.3,0-16.9-7.6-16.9-16.9V100.1c0-9.3,7.6-16.9,16.9-16.9h314.1
				c9.3,0,16.9,7.6,16.9,16.9v246.3c0,9.3-7.6,16.9-16.9,16.9h-20v32.3c0,1.6-0.8,3.1-2.2,4c-0.7,0.4-1.6,0.7-2.4,0.7
				C346.4,400.3,345.6,400.1,345,399.8z M57.7,92.4c-4.2,0-7.7,3.5-7.7,7.7v246.3c0,4.2,3.5,7.7,7.7,7.7h219.4
				c0.8,0,1.5,0.2,2.2,0.5l63.3,33.4v-29.3c0-2.5,2.1-4.6,4.6-4.6h24.6c4.2,0,7.7-3.5,7.7-7.7V100.1c0-4.2-3.5-7.7-7.7-7.7H57.7z"/>
		</g>
		<g>
			<g>
				<path fill="#F1F1F3" d="M384,100.1H45.5V63.3c0-6.9,5.6-12.4,12.4-12.4h313.7c6.9,0,12.4,5.6,12.4,12.4V100.1z"/>
			</g>
		</g>
		<g>
			<path fill="#FFFFFF" d="M352.8,87.8H45.5V63.3c0-6.9,5.6-12.4,12.4-12.4h307.3v24.5C365.2,82.2,359.6,87.8,352.8,87.8z"/>
		</g>
		<g>
			<path fill="#525A7E" d="M384,104.7H45.5c-2.6,0-4.7-2.1-4.7-4.6v-37c0-9.3,7.7-16.9,17.2-16.9h313.4c9.5,0,17.2,7.6,17.2,16.9
				V100C388.7,102.6,386.6,104.7,384,104.7z M50.2,95.5h329.1V63.1c0-4.2-3.5-7.7-7.8-7.7H58c-4.3,0-7.8,3.5-7.8,7.7V95.5z"/>
		</g>
		<g>
			<path fill="#525A7E" d="M290,80.1c-1.3,0-2.4-0.5-3.3-1.4s-1.4-2.1-1.4-3.3c0-1.2,0.5-2.4,1.4-3.3c1.8-1.8,4.8-1.7,6.6-0.1
				c0.9,0.9,1.4,2.1,1.4,3.3c0,1.2-0.5,2.3-1.4,3.3C292.4,79.6,291.2,80.1,290,80.1z"/>
		</g>
		<g>
			<path fill="#525A7E" d="M316.6,75.5c0-2.6,2.1-4.6,4.7-4.6l0,0c2.6,0,4.7,2,4.7,4.6l0,0c0,2.5-2.1,4.6-4.7,4.6l0,0
				C318.7,80.1,316.6,78,316.6,75.5z"/>
		</g>
		<g>
			<path fill="#525A7E" d="M352.7,80.1c-1.3,0-2.4-0.5-3.3-1.4s-1.4-2.1-1.4-3.3c0-1.2,0.5-2.4,1.4-3.3c1.8-1.7,4.9-1.7,6.6,0
				c0.9,0.9,1.4,2,1.4,3.3c0,1.2-0.5,2.3-1.4,3.3C355.1,79.6,353.9,80.1,352.7,80.1z"/>
		</g>
		<g>
			<path fill="#525A7E" d="M353.3,171.8h-46.7c-2.5,0-4.6-2.1-4.6-4.6s2.1-4.6,4.6-4.6h46.7c2.5,0,4.6,2.1,4.6,4.6
				S355.8,171.8,353.3,171.8z"/>
		</g>
		<g>
			<path fill="#525A7E" d="M275.8,171.8h-77.5c-2.5,0-4.6-2.1-4.6-4.6s2.1-4.6,4.6-4.6h77.5c2.5,0,4.6,2.1,4.6,4.6
				C280.5,169.7,278.4,171.8,275.8,171.8z"/>
		</g>
		<g>
			<g>
				<path fill="#525A7E" d="M167.6,171.8H94.7c-2.5,0-4.6-2.1-4.6-4.6s2.1-4.6,4.6-4.6h72.9c2.5,0,4.6,2.1,4.6,4.6
					C172.2,169.7,170.1,171.8,167.6,171.8z"/>
			</g>
		</g>
		<g>
			<path fill="#525A7E" d="M353.3,208.7h-108c-2.5,0-4.6-2.1-4.6-4.6s2.1-4.6,4.6-4.6h108c2.5,0,4.6,2.1,4.6,4.6
				C357.9,206.6,355.8,208.7,353.3,208.7z"/>
		</g>
		<g>
			<path fill="#525A7E" d="M214.5,208.7H94.7c-2.5,0-4.6-2.1-4.6-4.6s2.1-4.6,4.6-4.6h119.9c2.5,0,4.6,2.1,4.6,4.6
				C219.2,206.6,217.1,208.7,214.5,208.7z"/>
		</g>
		<g>
			<path fill="#525A7E" d="M267.1,245.7H166.8c-2.5,0-4.6-2.1-4.6-4.6s2.1-4.6,4.6-4.6H267c2.5,0,4.6,2.1,4.6,4.6
				C271.7,243.6,269.6,245.7,267.1,245.7z"/>
		</g>
		<g>
			<path fill="#525A7E" d="M136,245.7H94.7c-2.5,0-4.6-2.1-4.6-4.6s2.1-4.6,4.6-4.6H136c2.5,0,4.6,2.1,4.6,4.6
				C140.7,243.6,138.6,245.7,136,245.7z"/>
		</g>
	</g>
</g>
</svg>
