<svg xmlns="http://www.w3.org/2000/svg" xmlns:xlink="http://www.w3.org/1999/xlink" width="100" height="94.083" viewBox="0 0 100 94.083"><defs><style>.a{fill:none;}.b{clip-path:url(#a);}.c{fill:#fff;}.d{fill:#eaedf7;}.e{fill:#525a7e;}</style><clipPath id="a"><rect class="a" width="100" height="94.083"/></clipPath></defs><g class="b"><path class="c" d="M148.091,207.78h-70.3a1.308,1.308,0,0,1-1.308-1.406L81.6,142.5h62.683l5.116,63.874a1.309,1.309,0,0,1-1.308,1.406" transform="translate(-61.545 -114.673)"/><path class="d" d="M144.364,142.4H135.4l3.3,55.848a1.314,1.314,0,0,1-1.308,1.386H77.111l-.527,6.659a1.308,1.308,0,0,0,1.308,1.406h70.3a1.308,1.308,0,0,0,1.308-1.406Z" transform="translate(-61.626 -114.593)"/><path class="e" d="M144.065,204.652h-70.3a2.276,2.276,0,0,1-1.679-.742,2.35,2.35,0,0,1-.605-1.738L76.6,138.3a.979.979,0,0,1,.976-.9h62.683a.979.979,0,0,1,.976.9l5.116,63.874a2.307,2.307,0,0,1-2.285,2.48m-65.573-65.3-5.038,63a.39.39,0,0,0,.078.254.329.329,0,0,0,.234.1h70.3a.329.329,0,0,0,.234-.1.282.282,0,0,0,.078-.254l-5.038-62.976H78.492Z" transform="translate(-57.519 -110.569)"/><path class="d" d="M165.383,67.078H102.7l14.372-10.447-9.139-7.83h52.236l-9.139,7.83Z" transform="translate(-82.645 -39.271)"/><path class="c" d="M163.438,67.078h-24.8V56.631L129.5,48.8h33.939Z" transform="translate(-104.212 -39.271)"/><path class="e" d="M161.317,63.869H98.634a.985.985,0,0,1-.586-1.777L111.4,52.368l-8.2-7.03a.993.993,0,0,1,.644-1.738H156.1a.969.969,0,0,1,.918.644,1,1,0,0,1-.273,1.094l-8.2,7.03L161.9,62.092a.954.954,0,0,1,.351,1.094.985.985,0,0,1-.937.683M101.66,61.917h56.649l-11.931-8.67a1.03,1.03,0,0,1-.41-.762.952.952,0,0,1,.352-.781l7.128-6.112H106.523L113.65,51.7a.934.934,0,0,1,.332.781,1,1,0,0,1-.41.762Z" transform="translate(-78.579 -35.086)"/><path class="e" d="M125.476,60.209a1.158,1.158,0,0,1-.449-.1.981.981,0,0,1-.527-.879V44.743A.974.974,0,0,1,126.121,44l9.139,7.831a.934.934,0,0,1,.332.781,1,1,0,0,1-.41.762l-9.139,6.639a.869.869,0,0,1-.566.2m.976-13.337V57.3l6.581-4.784Z" transform="translate(-100.188 -35.214)"/><path class="c" d="M359.339,48.8,350.2,56.63l9.139,6.659Z" transform="translate(-281.815 -39.271)"/><path class="e" d="M355.226,60.209a.96.96,0,0,1-.586-.2L345.5,53.374a1.03,1.03,0,0,1-.41-.762.952.952,0,0,1,.352-.781L354.582,44a.992.992,0,0,1,1.054-.156.969.969,0,0,1,.566.9V59.232a1.019,1.019,0,0,1-.527.879,1.333,1.333,0,0,1-.449.1m-7.577-7.694,6.581,4.784V46.872Z" transform="translate(-277.703 -35.214)"/><path class="c" d="M117.072,88.9,102.7,99.347h14.372Z" transform="translate(-82.645 -71.54)"/><path class="e" d="M113.006,96.246H98.634a.985.985,0,0,1-.586-1.777L112.42,84.022a.972.972,0,0,1,1.543.8V95.27a.991.991,0,0,1-.293.7.9.9,0,0,1-.664.273M101.66,94.293h10.369V86.756Z" transform="translate(-78.579 -67.463)"/><path class="c" d="M350.2,88.9l14.353,10.447H350.2Z" transform="translate(-281.815 -71.54)"/><path class="e" d="M360.448,96.246H346.075a.967.967,0,0,1-.976-.976V84.823a1.02,1.02,0,0,1,.527-.879.955.955,0,0,1,1.015.078l14.372,10.447a.954.954,0,0,1,.352,1.094.943.943,0,0,1-.918.683m-13.376-1.953h10.369l-10.369-7.538Z" transform="translate(-277.71 -67.463)"/><path class="c" d="M324.669,185.9a4.569,4.569,0,1,1-4.569,4.569,4.569,4.569,0,0,1,4.569-4.569" transform="translate(-257.593 -149.598)"/><path class="e" d="M320.646,191.992a5.546,5.546,0,1,1,5.546-5.546,5.555,5.555,0,0,1-5.546,5.546m0-9.139a3.593,3.593,0,1,0,3.593,3.593,3.6,3.6,0,0,0-3.593-3.593" transform="translate(-253.569 -145.575)"/><path class="c" d="M164.169,185.9a4.569,4.569,0,1,1-4.569,4.569,4.57,4.57,0,0,1,4.569-4.569" transform="translate(-128.434 -149.598)"/><path class="e" d="M160.146,191.992a5.546,5.546,0,1,1,5.546-5.546,5.555,5.555,0,0,1-5.546,5.546m0-9.139a3.593,3.593,0,1,0,3.593,3.593,3.6,3.6,0,0,0-3.593-3.593" transform="translate(-124.411 -145.575)"/><path class="e" d="M194.557,245.858A16.684,16.684,0,0,1,177.9,229.2v-3.925a.976.976,0,1,1,1.953,0V229.2a14.685,14.685,0,0,0,29.369,0v-3.925a.976.976,0,1,1,1.953,0V229.2a16.626,16.626,0,0,1-16.618,16.657" transform="translate(-143.161 -180.5)"/><path class="e" d="M463.991,275.971a.979.979,0,0,1-.976-.9l-2.226-27.729a.97.97,0,0,1,.9-1.054.982.982,0,0,1,1.054.9l2.226,27.729a.971.971,0,0,1-.9,1.055Z" transform="translate(-370.806 -198.193)"/><path class="e" d="M458.117,201.535a.979.979,0,0,1-.976-.9l-.352-4.394a.97.97,0,0,1,.9-1.054.982.982,0,0,1,1.054.9l.351,4.394a.97.97,0,0,1-.9,1.054Z" transform="translate(-367.588 -157.071)"/><path class="e" d="M55.165,248.456h-.078a.971.971,0,0,1-.9-1.054l.351-4.316a.982.982,0,0,1,1.054-.9.971.971,0,0,1,.9,1.055l-.351,4.315a.979.979,0,0,1-.976.9" transform="translate(-43.605 -194.893)"/><path class="e" d="M45.265,312.173h-.078a.97.97,0,0,1-.9-1.054l1.5-18.922a1,1,0,0,1,1.054-.9.97.97,0,0,1,.9,1.054l-1.523,18.922a.974.974,0,0,1-.957.9" transform="translate(-35.638 -234.414)"/><path class="e" d="M487.819,114.368h-1.465v-1.484a.683.683,0,1,0-1.367,0v1.484h-1.5a.683.683,0,0,0,0,1.367h1.5v1.484a.683.683,0,1,0,1.367,0v-1.484h1.484a.667.667,0,0,0,.683-.683.723.723,0,0,0-.7-.683" transform="translate(-388.522 -90.29)"/><path class="e" d="M70.113,13.921l-1.347-.605.605-1.367a.682.682,0,0,0-1.25-.547l-.605,1.367-1.367-.605a.682.682,0,0,0-.547,1.25l1.367.605-.605,1.367a.682.682,0,0,0,1.25.547l.605-1.367,1.347.605a.682.682,0,1,0,.547-1.25" transform="translate(-52.46 -8.844)"/><path class="e" d="M442.795,0a1.894,1.894,0,1,0,1.894,1.894A1.9,1.9,0,0,0,442.795,0m0,2.949a1.054,1.054,0,1,1,1.054-1.054,1.05,1.05,0,0,1-1.054,1.054" transform="translate(-354.804)"/><path class="e" d="M3.124,164a3.124,3.124,0,1,0,3.124,3.124A3.134,3.134,0,0,0,3.124,164m0,4.882a1.738,1.738,0,1,1,1.738-1.738,1.742,1.742,0,0,1-1.738,1.738" transform="translate(0 -131.975)"/></g></svg>