<?xml version="1.0" encoding="utf-8"?>
<!-- Generator: Adobe Illustrator 24.1.3, SVG Export Plug-In . SVG Version: 6.00 Build 0)  -->
<svg version="1.1" id="Layer_1" xmlns="http://www.w3.org/2000/svg" xmlns:xlink="http://www.w3.org/1999/xlink" x="0px" y="0px"
	 width="512px" height="512px" viewBox="0 0 512 512" enable-background="new 0 0 512 512" xml:space="preserve">
<g>
	<path fill="#525A7E" d="M503.7,52.5l-10.3-4.2l4.3-10.4c1.1-2.6-0.2-5.6-2.8-6.7c-2.6-1.1-5.6,0.2-6.7,2.8l-4.3,10.4L473.5,40
		c-2.6-1.1-5.6,0.2-6.7,2.8s0.2,5.6,2.8,6.7l10.5,4.3l-4.3,10.4c-1.1,2.6,0.2,5.6,2.8,6.7c2.6,1.1,5.6-0.2,6.7-2.8l4.3-10.4
		l10.3,4.2c2.7,1.1,5.6-0.1,6.7-2.8C507.6,56.6,506.3,53.5,503.7,52.5z"/>
	<path fill="#525A7E" d="M127.8,5.5L123.6,6L123,1.8c-0.1-1.1-1.1-1.8-2.2-1.7s-1.8,1.1-1.7,2.2l0.5,4.3L115.3,7
		c-1.1,0.1-1.8,1.1-1.7,2.2c0.1,1.1,1.1,1.8,2.2,1.7l4.3-0.5l0.5,4.3c0.1,1.1,1.1,1.8,2.2,1.7s1.8-1.1,1.7-2.2L124,10l4.2-0.5
		c1.1-0.1,1.9-1.1,1.7-2.2C129.9,6.2,128.9,5.4,127.8,5.5z"/>
	<path fill="#525A7E" d="M72.6,487.9l-4.2,0.5l-0.5-4.3c-0.1-1.1-1.1-1.8-2.2-1.7c-1.1,0.1-1.8,1.1-1.7,2.2l0.5,4.3l-4.3,0.5
		c-1.1,0.1-1.8,1.1-1.7,2.2s1.1,1.8,2.2,1.7l4.3-0.5l0.5,4.3c0.1,1.1,1.1,1.8,2.2,1.7c1.1-0.1,1.8-1.1,1.7-2.2l-0.5-4.3l4.2-0.5
		c1.1-0.1,1.9-1.1,1.7-2.2C74.7,488.5,73.7,487.7,72.6,487.9z"/>
	<path fill="#525A7E" d="M19.1,83c-7.9,0-14.3,6.4-14.3,14.3s6.4,14.3,14.3,14.3s14.3-6.4,14.3-14.3S27,83,19.1,83z M19.1,105.3
		c-4.4,0-8-3.6-8-8s3.6-8,8-8s8,3.6,8,8S23.5,105.3,19.1,105.3z"/>
	<path fill="#525A7E" d="M414.4,468.8c-11.9,0-21.6,9.7-21.6,21.6s9.7,21.6,21.6,21.6s21.6-9.7,21.6-21.6S426.3,468.8,414.4,468.8z
		 M414.4,502.4c-6.6,0-12-5.4-12-12s5.4-12,12-12s12,5.4,12,12S421,502.4,414.4,502.4z"/>
	<path fill="#525A7E" d="M350,2.2c-3.2,0-5.8,2.6-5.8,5.8s2.6,5.8,5.8,5.8s5.8-2.6,5.8-5.8S353.2,2.2,350,2.2z M350,11.3
		c-1.8,0-3.2-1.5-3.2-3.2s1.5-3.2,3.2-3.2s3.2,1.5,3.2,3.2S351.8,11.3,350,11.3z"/>
	<g>
		<g>
			<path fill="#EAEDF7" d="M460.4,435.4H236.9L165.5,473v-37.7h-25.1c-6.9,0-12.6-5.6-12.6-12.6v-251c0-6.9,5.6-12.6,12.6-12.6h320
				c6.9,0,12.6,5.6,12.6,12.6v251C472.9,429.8,467.3,435.4,460.4,435.4z"/>
		</g>
		<g>
			<path fill="#FFFFFF" d="M420.5,404H127.8V159.3h313.8v223.6C441.6,394.6,432.1,404,420.5,404z"/>
		</g>
		<g>
			<path fill="#525A7E" d="M165.5,477.7c-0.8,0-1.7-0.2-2.4-0.7c-1.4-0.9-2.3-2.4-2.3-4v-33h-20.4c-9.5,0-17.3-7.7-17.3-17.3v-251
				c0-9.5,7.7-17.3,17.3-17.3h320c9.5,0,17.3,7.7,17.3,17.3v251c0,9.5-7.7,17.3-17.3,17.3H238l-70.4,37.1
				C167,477.6,166.2,477.7,165.5,477.7z M140.3,164c-4.3,0-7.8,3.5-7.8,7.8v251c0,4.3,3.5,7.8,7.8,7.8h25.1c2.6,0,4.7,2.1,4.7,4.7
				v29.9l64.5-34c0.7-0.4,1.4-0.5,2.2-0.5h223.5c4.3,0,7.8-3.5,7.8-7.8v-251c0-4.3-3.5-7.8-7.8-7.8L140.3,164L140.3,164z"/>
		</g>
		<g>
			<path fill="#EAEDF7" d="M397.6,372.6H83.9c-6.9,0-12.6-5.6-12.6-12.6V121.6h338.9V360C410.2,367,404.6,372.6,397.6,372.6z"/>
		</g>
		<g>
			<path fill="#FFFFFF" d="M385.1,353.8H71.3V121.6h320v225.9C391.4,351,388.5,353.8,385.1,353.8z"/>
		</g>
		<g>
			<path fill="#EAEDF7" d="M410.2,121.6H71.3V84c0-6.9,5.6-12.6,12.6-12.6h313.8c6.9,0,12.6,5.6,12.6,12.6L410.2,121.6L410.2,121.6z
				"/>
		</g>
		<g>
			<path fill="#FFFFFF" d="M378.8,109.1H71.3V84c0-6.9,5.6-12.6,12.6-12.6h307.5v25.1C391.4,103.5,385.7,109.1,378.8,109.1z"/>
		</g>
		<g>
			<g>
				<path fill="#525A7E" d="M397.6,377.3H83.9c-9.5,0-17.3-7.7-17.3-17.3V121.6c0-2.6,2.1-4.7,4.7-4.7h338.9c2.6,0,4.7,2.1,4.7,4.7
					V360C414.9,369.6,407.1,377.3,397.6,377.3z M76,126.3V360c0,4.3,3.5,7.8,7.8,7.8h313.8c4.3,0,7.8-3.5,7.8-7.8V126.3H76z"/>
			</g>
		</g>
		<g>
			<path fill="#525A7E" d="M410.2,126.3H71.3c-2.6,0-4.7-2.1-4.7-4.7V84c0-9.5,7.7-17.3,17.3-17.3h313.8c9.5,0,17.3,7.7,17.3,17.3
				v37.7C414.9,124.2,412.8,126.3,410.2,126.3z M76,116.9h329.4V84c0-4.3-3.5-7.8-7.8-7.8H83.9c-4.3,0-7.8,3.5-7.8,7.8L76,116.9
				L76,116.9z"/>
		</g>
		<g>
			<path fill="#525A7E" d="M316.1,101.2c-1.3,0-2.4-0.5-3.3-1.4s-1.4-2.1-1.4-3.3c0-1.3,0.5-2.5,1.4-3.3c1.8-1.8,4.8-1.8,6.7-0.1
				c0.9,0.9,1.4,2.1,1.4,3.4c0,1.2-0.5,2.4-1.4,3.3C318.5,100.7,317.3,101.2,316.1,101.2z"/>
		</g>
		<g>
			<path fill="#525A7E" d="M342.7,96.5c0-2.6,2.1-4.7,4.7-4.7l0,0c2.6,0,4.7,2.1,4.7,4.7l0,0c0,2.6-2.1,4.7-4.7,4.7l0,0
				C344.8,101.2,342.7,99.1,342.7,96.5z"/>
		</g>
		<g>
			<path fill="#525A7E" d="M378.8,101.2c-1.3,0-2.4-0.5-3.3-1.4s-1.4-2.1-1.4-3.3c0-1.3,0.5-2.5,1.4-3.3c1.8-1.8,4.9-1.8,6.7,0
				c0.9,0.9,1.4,2.1,1.4,3.3c0,1.2-0.5,2.4-1.4,3.3C381.3,100.7,380,101.2,378.8,101.2z"/>
		</g>
		<g>
			<circle fill="#525A7E" cx="426.6" cy="360" r="4.7"/>
		</g>
		<g>
			<g>
				<circle fill="#525A7E" cx="426.6" cy="334.9" r="4.7"/>
			</g>
		</g>
		<g>
			<circle fill="#525A7E" cx="426.6" cy="303.5" r="4.7"/>
		</g>
		<g>
			<circle fill="#525A7E" cx="426.6" cy="259.6" r="4.7"/>
		</g>
		<g>
			<path fill="#525A7E" d="M281.4,408.7h-67.7c-2.6,0-4.7-2.1-4.7-4.7s2.1-4.7,4.7-4.7h67.7c2.6,0,4.7,2.1,4.7,4.7
				S284,408.7,281.4,408.7z"/>
		</g>
		<g>
			<g>
				<path fill="#525A7E" d="M372.5,408.7h-59.8c-2.6,0-4.7-2.1-4.7-4.7s2.1-4.7,4.7-4.7h59.8c2.6,0,4.7,2.1,4.7,4.7
					S375.1,408.7,372.5,408.7z"/>
			</g>
		</g>
		<g>
			<polygon fill="#FFFFFF" points="240.7,149.7 252.4,173.3 278.4,177.1 259.6,195.4 264,221.3 240.7,209.1 217.5,221.3 
				221.9,195.4 203.1,177.1 229.1,173.3 			"/>
		</g>
		<g>
			<path fill="#525A7E" d="M217.5,226c-1,0-1.9-0.3-2.8-0.9c-1.4-1-2.2-2.8-1.9-4.6l4-23.5l-17.1-16.6c-1.3-1.3-1.7-3.1-1.2-4.8
				c0.6-1.7,2-2.9,3.8-3.2L226,169l10.5-21.4c1.6-3.2,6.9-3.2,8.4,0l10.5,21.4l23.6,3.4c1.8,0.3,3.2,1.5,3.8,3.2
				c0.6,1.7,0.1,3.6-1.2,4.8L264.5,197l4,23.5c0.3,1.8-0.4,3.5-1.9,4.6s-3.4,1.2-5,0.4l-21.1-11.1l-21.1,11.1
				C219,225.9,218.2,226,217.5,226z M213.2,180.3l12,11.7c1.1,1.1,1.6,2.6,1.4,4.2l-2.8,16.5l14.8-7.8c1.4-0.7,3-0.7,4.4,0l14.8,7.8
				l-2.8-16.5c-0.3-1.5,0.2-3.1,1.4-4.2l12-11.7l-16.6-2.4c-1.5-0.2-2.9-1.2-3.5-2.6l-7.4-15l-7.4,15c-0.7,1.4-2,2.4-3.5,2.6
				L213.2,180.3z"/>
		</g>
		<g>
			<polygon fill="#FFFFFF" points="140.3,149.7 152,173.3 178,177.1 159.2,195.4 163.6,221.3 140.3,209.1 117.1,221.3 121.5,195.4 
				102.7,177.1 128.7,173.3 			"/>
		</g>
		<g>
			<path fill="#525A7E" d="M163.6,226c-0.8,0-1.5-0.2-2.2-0.5l-21.1-11.1l-21.1,11.1c-1.6,0.8-3.5,0.7-5-0.4c-1.4-1-2.2-2.8-1.9-4.6
				l4-23.5l-17.1-16.6c-1.3-1.3-1.7-3.1-1.2-4.8c0.6-1.7,2-2.9,3.8-3.2l23.6-3.4l10.5-21.4c1.6-3.2,6.9-3.2,8.4,0l10.5,21.4
				l23.6,3.4c1.8,0.3,3.2,1.5,3.8,3.2s0.1,3.6-1.2,4.8L163.9,197l4,23.5c0.3,1.8-0.4,3.6-1.9,4.6C165.5,225.7,164.6,226,163.6,226z
				 M140.3,204.4c0.8,0,1.5,0.2,2.2,0.5l14.8,7.8l-2.8-16.5c-0.3-1.5,0.2-3.1,1.4-4.2l12-11.7l-16.6-2.4c-1.5-0.2-2.9-1.2-3.5-2.6
				l-7.4-15l-7.4,15c-0.7,1.4-2,2.4-3.5,2.6l-16.6,2.4l12,11.7c1.1,1.1,1.6,2.6,1.4,4.2l-2.8,16.5l14.8-7.8
				C138.8,204.6,139.6,204.4,140.3,204.4z"/>
		</g>
		<g>
			<polygon fill="#FFFFFF" points="341.2,149.7 352.8,173.3 378.8,177.1 360,195.4 364.4,221.3 341.2,209.1 317.9,221.3 
				322.3,195.4 303.5,177.1 329.5,173.3 			"/>
		</g>
		<g>
			<path fill="#525A7E" d="M364.4,226c-0.8,0-1.5-0.2-2.2-0.5l-21.1-11.1L320,225.5c-1.6,0.8-3.5,0.7-5-0.4
				c-1.4-1.1-2.2-2.8-1.9-4.6l4-23.5L300,180.4c-1.3-1.3-1.7-3.1-1.2-4.8c0.6-1.7,2-2.9,3.8-3.2l23.6-3.4l10.5-21.4
				c0.8-1.6,2.4-2.6,4.2-2.6l0,0c1.8,0,3.4,1,4.2,2.6l10.5,21.4l23.6,3.4c1.8,0.3,3.2,1.5,3.8,3.2c0.6,1.7,0.1,3.6-1.2,4.8
				L365,197.1l4,23.5c0.3,1.8-0.4,3.6-1.9,4.6C366.4,225.7,365.4,226,364.4,226z M341.2,204.4c0.8,0,1.5,0.2,2.2,0.5l14.8,7.8
				l-2.8-16.5c-0.3-1.5,0.2-3.1,1.4-4.2l12-11.7l-16.6-2.4c-1.5-0.2-2.9-1.2-3.5-2.6l-7.4-15l-7.4,15c-0.7,1.4-2,2.4-3.5,2.6
				l-16.6,2.4l12,11.7c1.1,1.1,1.6,2.6,1.4,4.2l-2.8,16.5l14.8-7.8C339.7,204.6,340.4,204.4,341.2,204.4z"/>
		</g>
		<g>
			<path fill="#525A7E" d="M372.5,263.7H325c-2.6,0-4.7-2.1-4.7-4.7s2.1-4.7,4.7-4.7h47.5c2.6,0,4.7,2.1,4.7,4.7
				S375.1,263.7,372.5,263.7z"/>
		</g>
		<g>
			<path fill="#525A7E" d="M293.6,263.7h-78.9c-2.6,0-4.7-2.1-4.7-4.7s2.1-4.7,4.7-4.7h78.9c2.6,0,4.7,2.1,4.7,4.7
				C298.3,261.6,296.2,263.7,293.6,263.7z"/>
		</g>
		<g>
			<path fill="#525A7E" d="M183.3,263.7H109c-2.6,0-4.7-2.1-4.7-4.7s2.1-4.7,4.7-4.7h74.3c2.6,0,4.7,2.1,4.7,4.7
				S185.9,263.7,183.3,263.7z"/>
		</g>
		<g>
			<path fill="#525A7E" d="M372.5,301.3h-110c-2.6,0-4.7-2.1-4.7-4.7s2.1-4.7,4.7-4.7h110c2.6,0,4.7,2.1,4.7,4.7
				C377.2,299.2,375.1,301.3,372.5,301.3z"/>
		</g>
		<g>
			<path fill="#525A7E" d="M231.1,301.3H109c-2.6,0-4.7-2.1-4.7-4.7s2.1-4.7,4.7-4.7h122.2c2.6,0,4.7,2.1,4.7,4.7
				C235.8,299.2,233.7,301.3,231.1,301.3z"/>
		</g>
		<g>
			<path fill="#525A7E" d="M284.7,339H182.5c-2.6,0-4.7-2.1-4.7-4.7s2.1-4.7,4.7-4.7h102.2c2.6,0,4.7,2.1,4.7,4.7
				C289.4,336.9,287.3,339,284.7,339z"/>
		</g>
		<g>
			<path fill="#525A7E" d="M151.1,339H109c-2.6,0-4.7-2.1-4.7-4.7s2.1-4.7,4.7-4.7h42.2c2.6,0,4.7,2.1,4.7,4.7
				C155.8,336.9,153.7,339,151.1,339z"/>
		</g>
	</g>
</g>
</svg>
