
<svg version="1.1" xmlns="http://www.w3.org/2000/svg" xmlns:xlink="http://www.w3.org/1999/xlink" x="0px" y="0px"
	 viewBox="0 0 297.9 147.5" enable-background="new 0 0 297.9 147.5" xml:space="preserve">
<g id="Layer_6" display="none">
</g>
<g id="Layer_10">
	<g>
		<path fill="#214478" d="M760.6,238.9c0,6.3-5.1,11.4-11.4,11.4l-278.9,0c-6.3,0-11.4-5.1-11.4-11.4l0-167.5
			c0-6.3,5.1-11.4,11.4-11.4l278.9,0c6.3,0,11.4,5.1,11.4,11.4L760.6,238.9z"/>
	</g>
	
		<radialGradient id="SVGID_1_" cx="431.5446" cy="35.08" r="214.8927" gradientTransform="matrix(1 0 0 1 35.6093 14.1371)" gradientUnits="userSpaceOnUse">
		<stop  offset="0" style="stop-color:#2182E5"/>
		<stop  offset="0.2475" style="stop-color:#75B9FD"/>
		<stop  offset="0.3586" style="stop-color:#75BAFD"/>
		<stop  offset="0.8586" style="stop-color:#0168D0"/>
		<stop  offset="0.9545" style="stop-color:#0278EE"/>
		<stop  offset="1" style="stop-color:#004B9B"/>
	</radialGradient>
	<path fill="url(#SVGID_1_)" d="M761.5,237.7c0,6.3-5.1,11.4-11.4,11.4l-278.9,0c-6.3,0-11.4-5.1-11.4-11.4l0-167.5
		c0-6.3,5.1-11.4,11.4-11.4l278.9,0c6.3,0,11.4,5.1,11.4,11.4L761.5,237.7z"/>
	<g opacity="0.2">
		<path fill="#FFFFFF" d="M3.4,38.5c-0.8-0.1-1.7,0-1.8,0.3c-0.1,0.3,0.8,0.6,1.3,0.6c0.6,0,1.7-0.4,1.5-0.5
			C4.2,38.9,3.4,38.5,3.4,38.5z"/>
		<path fill="#FFFFFF" d="M118.1,96.8c0-0.3-0.2-0.7-0.4-1l0.2,0c-0.3-0.5-0.7-1-1-1.1c-0.3-0.2-0.9-0.3-1.4-0.5l-0.3,0
			c-0.2-0.1-0.3-0.2-0.4-0.4c-0.2-0.2-0.4-0.5-0.7-0.7l0.2,0c-0.5-0.4-1.2-0.7-1.4-0.6c-0.4,0.2-1.1,0.3-1.7-0.1
			c-0.4-0.3-1.1-0.7-1.5-1l-0.2,0c-0.1-0.1-0.1-0.1-0.2-0.2c-0.4-0.3-1.3-0.6-1.7-0.6c-0.4,0-0.4-0.3-1,0.7
			c-0.4,0.6-0.3,0.9-0.4,1.1c-0.1,0-0.3,0-0.6,0c-0.5-0.1-0.5-0.1-0.3-0.3c0.1,0,0.1-0.1,0.2-0.1c0.2-0.1,0.5-0.3,0.8-0.6l-0.1,0
			c0-0.1,0.1-0.1,0.1-0.2c0.2-0.4,0.3-0.7,0.2-0.9h0.1c-0.1-0.4-0.5-0.6-1-0.5c-0.1,0-0.2,0.1-0.3,0.1c-0.5,0.3-0.2,0.7-1.2,0.9
			c-0.9,0.2-1.1-0.3-0.7-0.6l0,0c0,0,0.1,0,0.1-0.1c0.1,0,0.1-0.1,0.2-0.1c0.4-0.1,0.9-0.4,1.3-0.6c0.4-0.3,0.8-0.5,0.8-0.7
			c0,0,0-0.1,0-0.2l-0.1,0c-0.1-0.4-0.2-1-0.7-1c-0.1,0-0.2,0-0.3-0.1h0.3c-0.4-0.1-0.4-0.8-1-1.6l-0.2,0c0-0.1-0.1-0.1-0.1-0.2
			c-0.2-0.3-0.5-0.6-0.8-0.9l0.2,0c-0.7-0.8-1.5-1.4-2.2-1.3c-0.8,0.2-1.3,1-1.7,0.1c-0.1-0.2-0.2-0.3-0.2-0.4l-0.2,0
			c-0.3-0.5-0.7-0.7-0.9-1.1c0,0,0,0,0,0l0.2,0c0,0,0,0,0-0.1c-0.3-0.5-1,0-1.2-0.2c-0.2-0.2-0.2-0.2-0.2-0.2s-0.9,0.2-0.4-0.5
			c0.1-0.2,0.2-0.4,0.3-0.6l-0.1,0c0.1-0.4,0.2-0.8,0.2-1.1h0.1c0-0.3,0-0.4-0.1-0.4c0,0-0.1,0.1-0.1,0.1c0,0,0,0,0,0
			c-0.2,0.1-0.6,1.2-0.9,1.2c-0.4-0.1-0.1-0.3-0.8-0.7c-0.1,0-0.1-0.1-0.2-0.1l0.3,0c-0.5-0.3-1.1-0.2-1.5,0l0,0
			c-0.3,0.1-0.5,0.3-0.5,0.4c0,0.3-0.2,0.5-0.3,0.7l-0.2,0c-0.1-0.1-0.2-0.3-0.4-0.7c-0.2-0.5-1.2-0.6-1.7-0.1
			c-0.2,0.2-0.4,0-0.6-0.4l0.2,0c-0.2-0.4-0.4-1-0.6-1c-0.2,0-0.4,0.1-0.6,0.3c-0.3,0.2-0.7,0.5-0.9,1c-0.3,0.6-0.3,1.4-0.4,1.7
			c-0.1-0.1-0.2-0.4-0.3-0.8l-0.1,0c0-0.4,0-0.8,0-1.1c0,0,0,0,0,0l0.1,0c0,0,0,0,0-0.1c0.1-0.5,0.8-1.3,0.3-1.5
			c-0.2-0.1-0.5,0.1-0.8,0.3c-0.3,0.2-0.6,0.4-0.8,0.6c0,0-0.1,0.1-0.1,0.1c-0.1,0-0.3,0.1-0.4,0.2c-0.4,0.2-0.9,0.7-1.2,1.2
			c-0.3,0.5-0.5,0.9-0.8,1.1c0,0,0,0,0,0c-0.1,0.1-0.1,0.1-0.2,0.2c-0.4,0.2-1,0-0.9-0.3c0.1-0.1-0.3-0.5-0.6-0.7l-0.3,0
			c-0.3-0.1-0.5-0.2-0.6-0.1c0,0.1-0.1,0.1-0.2,0.2c-0.3,0.2-0.7,0.4-1.1,0.6c-0.6,0.3-1.2-0.4-1.3-0.7c0,0,0,0,0,0l-0.2,0
			c-0.1-0.2-0.3-0.4-0.4-1.1l0.1,0c0-0.1,0-0.2,0-0.4c0-0.4,0-0.8,0-1.3l-0.1,0c0-0.4,0.1-0.8,0.2-1.1H78c0-0.2,0.1-0.4,0.1-0.6
			c0.1-0.3-0.1-0.7-0.4-1.1l-0.2,0c-0.4-0.4-0.8-0.8-1.1-0.7c-0.5,0.1-1,0.7-1.5,0.6c-0.5-0.1-0.3-0.2-1.1-0.2
			c-0.7,0-0.3-0.1-0.1-0.7l0.1,0c0-0.1,0.1-0.2,0.1-0.3c0.1-0.4,0-0.9,0-1.3l-0.1,0c0-0.4,0.1-0.7,0.5-1c0,0,0.1-0.1,0.1-0.1l0.1,0
			c0.4-0.4,0.5-1.1,0.4-1.6l-0.2,0c-0.1-0.3-0.2-0.5-0.4-0.6c-0.5-0.1-1.4,0.2-2,0.2c-0.6-0.1-1.1,0.6-0.9,1.3
			c0.2,0.7-0.4,1.2-0.6,1.2c-0.2-0.1-0.5-0.5-1.3,0.2c-0.8,0.7-1.1,0.4-1.8-0.3c-0.1-0.1-0.2-0.2-0.3-0.3l0.2,0
			c-0.5-0.5-1-1-1.3-1.6l-0.2,0C66.1,69.2,66,69,66,68.7c0-0.1,0-0.2,0-0.4l0.1,0c-0.1-0.6-0.1-1.1-0.1-1.6l-0.1,0
			c0-0.4,0.1-0.7,0.2-1c0,0,0-0.1,0-0.1l0.1,0c0.2-0.5,0.2-1.2,0.1-1.6h-0.2c-0.1-0.1-0.1-0.2-0.2-0.2c-0.3-0.1,0.1-0.5,0.5-0.9l0,0
			c0.1-0.1,0.2-0.1,0.3-0.2c0.1,0,0.2-0.1,0.2-0.1c0.1,0,0.3-0.1,0.5-0.3c0.5-0.3,1-0.8,1.1-1.1c0,0,0,0,0,0l0,0
			c0.2-0.2,0.8-0.2,1.5-0.2c0.8,0,0.9,0,1.7,0.5c0.4,0.2,0.6,0.2,0.7,0c0.2-0.1,0.2-0.2,0.3-0.4h-0.1c0-0.1,0-0.1,0-0.2
			c0-0.2,0.4-0.4,1.3-0.3c0.8,0.1,1.9-0.7,2.1-0.4c0.2,0.3,0.6,1.2,1.1,0.9c0.4-0.3,0.6-0.9,0.7,0.1c0.1,1,0.5,2.5,1.1,2.7
			c0.6,0.2,0.3,1.2,0.9,1.3c0.1,0,0.2,0,0.3-0.1c0.3-0.1,0.5-0.7,0.6-1.3l-0.1,0c0-0.3,0-0.6-0.1-0.7c0-0.1-0.1-0.2-0.1-0.4l0.2,0
			c-0.1-0.4-0.3-1.1-0.5-1.6l-0.2,0c-0.1-0.3-0.2-0.6-0.4-0.7c-0.1-0.1-0.1-0.2-0.1-0.4h0.1c0-0.5,0.5-1.2,1-1.5
			c0.1,0,0.1-0.1,0.2-0.1l0,0c0.3-0.3,0.7-0.7,1-1.1l0.1,0c0.4-0.5,0.8-1.1,1-1.3c0,0,0.1-0.1,0.2-0.1c0.6-0.3,1.7-0.5,1.4-1.1
			c0-0.1-0.1-0.1-0.1-0.2l0.2,0c-0.4-0.6-0.7-1.2-0.7-1.6l-0.1,0c0-0.5,0.4-0.3,0.6,0c0.2,0.3,1.1-0.5,0.8-0.9c0-0.1,0-0.1-0.1-0.2
			l0.1,0c-0.1-0.3-0.1-0.5,0.1-0.7c0.1,0,0.1-0.1,0.2,0c0.2,0,0.3,0,0.4-0.1c0.3-0.1,0.3-0.5,0.2-0.7c0,0,0-0.1,0-0.1l-0.1,0
			c0.1-0.3,0.6-0.5,1-0.4c0.5,0.2,2.1,0.3,2.3,0c0.1-0.2-0.1-0.4-0.3-0.7l0.2,0c-0.2-0.3-0.6-0.7-0.6-1.1c0-0.2,0.1-0.3,0.2-0.5
			l-0.1,0c0.3-0.4,0.8-0.7,1.1-0.7c0.5-0.1,1.1,0,1.2-0.2c0,0,0-0.1,0.1-0.1l0.1,0c0-0.1,0.2-0.3,0.3-0.4c0.2-0.1,0.3-0.1,0.4,0.2
			c0.1,0.6,0,1.6,0.6,1.6c0.2,0,0.4-0.1,0.7-0.2c0,0,0,0,0,0l0,0c0.4-0.2,0.7-0.5,0.8-0.6c0.2-0.1,1.5-0.4,1.8-0.5
			c0.2-0.1,1.3-0.2,1.6-0.5c0.2-0.1,0.3-0.2,0.3-0.4c-0.1-0.3-0.2-0.5-0.3-0.7l-0.2,0c-0.1-0.2-0.2-0.5-0.3-0.6
			c-0.2-0.2-0.4,0.1-0.7,0.5c0,0.1-0.1,0.1-0.1,0.1c-0.2,0.1-0.4,0.1-0.6-0.1l-0.2,0c-0.1-0.3,0.1-1.3-0.4-1
			c-0.5,0.3-0.6,0.7-0.8,0.5c-0.2-0.1-0.4-0.4-0.5-0.6l0.2,0c-0.1-0.1-0.1-0.2-0.1-0.2s0.7-0.4,0.2-1.2c-0.1-0.1-0.1-0.2-0.2-0.3
			l-0.2,0c-0.4-0.3-0.8-0.2-1.2,0l0,0c-0.1,0-0.1,0.1-0.2,0.1c-0.7,0.4-0.6,0.3-1.5,0.6c-0.8,0.2-1.3,0.5-1.3,0.5s0.1-0.6,0.3-1.2
			l-0.1,0c0.1-0.2,0.2-0.4,0.3-0.5c0.5-0.5,2-0.3,2.4-0.8c0,0,0.1-0.1,0.1-0.1c0,0,0,0,0.1,0c0.5-0.2,1.3,0.4,1.3,0.4s0,0,0.1-0.1
			c0,0,0,0,0,0s0.1-0.2,0.3-0.3c0.1,0,0.2,0,0.2,0.1c0,0.4-0.1,1.5,0.3,1.5c0.4,0,1.6-0.7,1.1-0.8c-0.3-0.1-0.1-0.2,0.1-0.4l0,0
			c0.2-0.1,0.5-0.3,0.7-0.5c0.5-0.3,1.4,0.1,1.7-0.1c0,0,0,0,0.1-0.1c0,0,0,0,0.1,0c0.2-0.1,0.4-0.5,0.6-0.7c0.1,0,0.1-0.1,0.2-0.1
			c0.5,0,0.7,0.7,0,1.2c-0.7,0.5-0.8,1.7-1.1,2.1c-0.4,0.3-0.1,0.7,0.4,0.7c0.6-0.1,1.1,0.1,1.5-0.1c0.5-0.2,0.8,0.2,0.9,0.4
			c0.1,0.2,0.3,0,0.4-0.1h0c0.1-0.1,0.1-0.1,0.2-0.2c0.2,0,0.9-0.2,1.1,0.2c0.1,0.2,0.3,0.1,0.3,0l0.1,0c0.1-0.1,0.1-0.5,0-0.7
			c-0.1-0.3-0.3-0.6-0.5-0.9l-0.2,0c-0.1-0.1-0.1-0.2-0.2-0.3c-0.2-0.5-0.5-0.7-1.1-0.5c-0.5,0.1-0.6-0.1-0.9-0.3l0.2,0
			c-0.1-0.1-0.2-0.2-0.3-0.2c-0.4-0.2-0.6,0.3-0.4-0.2c0.3-0.5,0.4-0.7,0.6-1.2h-0.1c0.1-0.3,0.5-0.7,0.6-1.1l0.1,0
			c0.1-0.3,0.1-0.5-0.3-0.6c-0.9-0.2-1.2-0.4-1.3-0.9c0,0,0-0.1,0-0.1l-0.2,0c-0.2-0.4-0.7-0.9-1.1-1.1l0.2,0
			c-0.2-0.1-0.4-0.2-0.4-0.2c-0.3,0-1.6,0.3-1.7-0.1c0-0.3-0.2-0.8-0.4-1.3h-0.2c-0.1-0.3-0.2-0.5-0.4-0.7c-0.1-0.1-0.2-0.2-0.3-0.4
			l0.2,0c-0.4-0.5-0.9-1.2-1.3-1.6l-0.2,0c-0.1-0.2-0.2-0.3-0.3-0.3c-0.2-0.2-0.5-0.1-1.1,0.9c-0.2,0.4-0.5,0.6-0.7,0.8
			c-0.3,0.2-0.6,0.2-0.9,0.1c-0.5-0.2-1,0-1.5-0.7c-0.2-0.3,0-0.6,0.3-0.8l0,0c0.2-0.2,0.5-0.3,0.4-0.5c-0.2-0.3-0.9-0.5-1.5-0.6
			h0.6c-0.3-0.1-0.7-0.1-1-0.2c-0.7-0.1-1.2-1-2.2-1.1c-1.1-0.1-2.3,0.2-2.7,0.2c-0.1,0-0.2,0-0.2,0.1c-0.3,0.1-0.3,0.6-0.4,1.5
			c-0.1,0.7,0.2,1,0.1,1.2c0,0-0.1,0-0.1,0.1c-0.3,0.1-0.6,0.1-0.6,0.2c-0.2,0.1-0.2,0.2,0.2,0.4c0.6,0.3,1.5,1.7,1.5,1.7
			s0,0.7-0.5,1.2c-0.5,0.4-1,0.8-1.3,0.3c0,0-0.1-0.1-0.1-0.1h0.2c-0.2-0.3-0.6-0.4-0.8-0.2c-0.2,0-0.3,0.2-0.2,0.4
			c0.2,0.5,0.6,0.7,0.6,1.2c0,0.5,0.6,1.7,0.2,2.2c-0.4,0.4-0.9,0.1-1.3,0.2c-0.4,0.1-0.7-0.7-0.4-0.8c0,0,0.1-0.1,0.1-0.2l0.1,0
			c0.1-0.3-0.1-1.3-0.1-1.3s0,0.1-0.1,0.2c0-0.1,0-0.1,0-0.1s-0.3,0.6-0.6,0.8c-0.1,0-0.1,0-0.1-0.2c0-0.5-0.1-0.7-0.3-1l-0.2,0
			c0-0.1-0.1-0.2-0.1-0.3c0-0.2-0.1-0.5-0.3-0.8l0.2,0c-0.2-0.4-0.6-0.6-1-0.5c-0.6,0.2-1.2,0.3-2.4,0.1c-1.2-0.2-1.7-0.4-2.7-1
			c-0.1-0.1-0.2-0.1-0.3-0.2h-0.4c-0.3-0.1-0.5-0.1-0.7,0l-0.1,0c-0.1,0-0.2,0.1-0.3,0.1c-0.1,0-0.1,0-0.2-0.1h-0.2
			c-0.2-0.3-0.2-0.9-0.5-1.1l0.2,0c-0.1-0.1-0.1-0.1-0.2-0.2c-0.6-0.2-0.2-0.4-0.4-1.4c0,0,0,0,0-0.1l-0.1,0
			c-0.1-0.6-0.3-0.7,0.1-1.1l0,0c0.2-0.2,0.5-0.4,1-0.8c0.4-0.3,0.7-0.6,1-0.8l0,0c0.5-0.5,0.7-0.8,1.5-0.9c1.2-0.2,1.6,0.7,1.6,0.3
			c0-0.1,0-0.3,0.1-0.5l0.1,0c0.1-0.4,0.2-1,0.2-1.3c0,0.8,1.4,0.9,0.8,1.5c-0.6,0.6-0.3,0.7,0.2,0.7c0.5,0,1.4-0.6,1.4-0.6
			s1.1-0.6,1.4-0.1c0.3,0.5,0.3,1,0.8,1c0.5,0,1.4-0.6,0.7-1.2l0.2,0c-0.1-0.1-0.1-0.1-0.2-0.2c-0.9-0.6-1.5-0.5-2-1.2
			c-0.1-0.2-0.2-0.3-0.3-0.3h-0.2c-0.1,0-0.1,0-0.2,0l-0.1,0c-0.1,0-0.1,0.1-0.2,0.1c-0.3,0.1-0.5,0-0.6-0.1l-0.2,0
			c0,0-0.1-0.1-0.2-0.1c-0.2,0-0.6,0.2-0.7-0.2c-0.1-0.3,0.1-0.4,0.8-0.4c0.7,0,1.5,0.2,1.5,0.2s0.8-0.3,1.1-0.4
			c0.1-0.1,0.6-0.1,0.9-0.4c0.2-0.1,0.4-0.4,0.3-0.7c-0.2-0.5-0.6-0.7-0.9-0.8l-0.3,0c0,0-0.1-0.1-0.1-0.1c-0.2-0.3,0.4-0.6,0.8-0.7
			c0.4-0.2,1.3,0,1.3,0s0.6,0.1,0.6-0.3c0,0,0,0,0,0l0.1,0c0,0,0,0,0-0.1c0-0.2,0-0.4,0-0.5c0,0,0.1,0,0.2,0.1c0.4,0.2,0,1,0.6,0.8
			c0.6-0.2,0.8,0,1.1,0.3c0.3,0.2,0,1.1-0.3,1.4c-0.1,0.1-0.2,0.1-0.3,0.2c-0.3,0.2-0.5,0.4,0.1,0.5c0.8,0.1,1.3,0.1,1.3,0.1
			s0,0,0.1-0.1c0,0,0.1,0,0.1,0s0.5-0.6,0.7-1.1c0-0.1,0.1-0.1,0.1-0.2c0.2-0.1,0.4,0.1,0.6,0.2c0.2,0.1,1,0.3,0.7,0.6
			c-0.1,0-0.1,0.1-0.2,0.1c-0.3,0.1-0.5,0.2-0.7,0.3c-0.5,0.3-0.7,0.6-0.9,0.9c-0.1,0.2-0.1,0.3-0.2,0.4c-0.2,0.1-0.4,0.1-0.8,0
			h-0.5c-0.3-0.1-0.6-0.1-0.8,0l-0.1,0c0,0,0,0,0,0c-0.1,0.1-0.2,0.2-0.3,0.3c-0.2,0.4-0.1,1.7,0.3,1.6c0.4-0.2,0.7-0.2,1.1-0.3
			c0.4-0.2,2.1,0.2,2.5,0.1c0.4-0.1,1.1,0.8,1.3,0.7c0.2-0.2,0.6,0.3,1.1,0.7c0.1,0.1,0.2,0.1,0.3,0c0.1,0,0.2-0.1,0.2-0.2h0
			c0.1-0.1,0.3-0.1,0.6,0.2c0.8,0.7,0.4,0.7,0.8,0.7c0.4,0,1.3,0.1,1.3,0.1s0,0,0-0.1c0.1,0,0.1,0,0.1,0s0-0.4,0.3-0.6
			c0.1,0,0.2-0.1,0.4,0c0.6,0.1,1.2,0.9,1.3,0.5c0.1,0,0.2,0,0.1-0.2c0-0.2,0-0.4,0-0.6l-0.1,0c0-0.4-0.1-0.7-0.4-1
			c0,0-0.1-0.1-0.1-0.1l0.2,0c-0.6-0.5-1.5-0.8-1.6-1.1c-0.1-0.2-0.2-0.4-0.2-0.6l-0.1,0c0,0,0-0.1,0.1-0.1c0.2-0.2,1.2,0.1,1.8,0.5
			c0.6,0.4,1.1,0.8,1.5,0.5c0,0,0.1-0.1,0.1-0.1c0,0,0,0,0,0c0.1-0.1,0.2-0.1,0.2-0.2c0.2-0.1,0.4-0.2,0.6-0.3
			c0.1-0.1,0.2-0.2,0.3-0.2c0,0,0-0.1,0.1-0.1h-0.1c0.2-0.3,0.6-0.8,0.6-0.8s-0.6-0.1-1.3-0.3h0.5c-0.6-0.1-1.3-0.3-1.5-0.6
			c-0.3-0.4-1.3-1-1.5-1c-0.3,0-0.9,0.5-1.2-0.1l-0.2,0c0,0,0,0,0-0.1c-0.1-0.3-0.2-0.7-0.2-1H91c-0.1-0.5-0.2-0.9-0.3-1
			c-0.2-0.1-2.2-0.4-3.1-0.7h-0.4c-0.1,0-0.2-0.1-0.2-0.1c-0.3-0.2-1.5-0.6-2.3-1l0.3,0c-0.2-0.1-0.5-0.2-0.6-0.3
			c-0.6-0.4-1.5-1-2.1-1c-0.6,0-2.9,0.3-3.3,0.2c-0.4-0.1-1.7,0.2-2.2,0.3c-0.1,0-0.1,0-0.1,0.1c0,0,0,0,0,0
			c-0.5,0.1,0.6,1.2-0.4,1.4c-1,0.2-0.9,0.4-0.7-0.7l0.1,0c0-0.1,0-0.1,0-0.2c0.2-1.2-0.7-1.6-1.6-1.1c-0.6,0.3-1.3,0.5-1.7,0.8
			c-0.4,0.2-0.6,0.4-0.4,0.7c0.4,0.6-0.1,1,0.6,1.6c0.7,0.6,1,0.7,1.9,0.7c0.9-0.1,1.8,0.2,1.8,0.2s0,1-0.4,1.2
			c-0.1,0-0.2,0.1-0.2,0.1l-0.1,0c-0.1,0-0.3,0.1-0.4,0.2c-0.1,0.1-0.3,0.2-0.3,0.4c-0.1,0.2-0.2,0.3-0.4,0.4C74.2,24,74,24,74,23.8
			c0-0.2,0.2-0.6,0.1-1l-0.1,0c0-0.2-0.1-0.3-0.2-0.4c-0.5-0.4-0.6-0.5-1.2-0.1c-0.6,0.4-0.6,0.6-0.9-0.1c-0.1-0.2-0.2-0.4-0.3-0.5
			l0.2,0c-0.4-0.5-0.9-0.8-0.9-0.8s-0.3-0.4-0.6-0.8l-0.2,0c-0.1-0.1-0.2-0.2-0.3-0.3c-0.4-0.4-1.2-0.3-1.3,0.1
			c-0.1,0.4,0.1,0.8,0.4,1.6c0.2,0.6,0.4,1.4,0.1,1.7c0,0,0,0-0.1,0c-0.1,0-0.2,0.1-0.3,0.2c-0.2,0.1-0.3,0.5-0.6,0.6
			c-0.5,0.2-0.7-0.2-0.7-0.9c0-0.1,0-0.1,0-0.2l-0.1,0c0-0.5-0.1-0.8-0.1-1.1l0.1,0c0-0.1,0-0.2,0-0.2c0.1-0.2-0.6,0.2-1.3,0
			c-0.3-0.1-0.6,0-0.8,0.1c-0.3,0.1-0.4,0.4,0.1,0.5c0.6,0.2,0.8,1,0.4,1.4c0,0,0,0-0.1,0c-0.6,0.2-3,0-3.8,0
			c-0.8,0-1.9,0.2-2.1-0.2c-0.1-0.2,0-0.4,0.2-0.5h0c0.2-0.2,0.6-0.3,0.9-0.3c0.5,0,2,0.1,2.5-0.8c0,0,0,0,0,0h0.1c0,0,0,0,0.1-0.1
			c0.6-0.9-0.7-1.1-1.3-1.1c-0.4,0-0.7-0.1-1.1-0.5l-0.2,0c-0.1-0.1-0.2-0.3-0.4-0.4C60,19.4,59.9,19.2,60,19l0.1,0
			c0.1-0.4,0.6-0.8,0.5-1c-0.1-0.3-0.8-0.1-1.5-0.1c-0.3,0-0.8-0.2-1.1-0.2c0.3,0,0.5,0,0.6-0.1c0.1,0,0.1-0.1,0.2-0.1
			c0-0.1,0.1-0.1,0.1-0.1l-0.1,0c0.2-0.2,0.4-0.3,0.4-0.5c0-0.1,0.1-0.4,0.1-0.6h0.1c0.1-0.4,0.2-0.9,0.2-0.9s-0.3-0.6-0.7-0.3
			c-0.5,0.3-0.6,0.4-1,0.3c-0.3-0.1-0.4-0.6-0.7-0.8l-0.7,0c-0.1,0.1-0.3,0.1-0.4,0.2c-0.4,0.2-0.5,0.6-0.7,0.7c0,0-0.1,0.1-0.1,0.1
			c-0.2,0.1-0.6,0.2-0.7,0.1c-0.2-0.1-1.3-0.8-1.3-0.8s-1.4-0.1-2.1-0.3h-0.3c0,0-0.1-0.1-0.1-0.1c-0.1-0.3-0.5-0.9-1.5-0.8
			c-1,0.1-2.8,0.8-3.1,0.8c-0.2,0,0.1,0.4,0.1,0.6c-0.3,0-0.6,0-0.8,0.2c-0.1,0.1-0.2,0.2-0.3,0.3c-0.1,0.3,0.4,0.3,1,0.3
			c0.6,0,1.6,0,1.9-0.2c0.3-0.2,1.7-0.6,1.6-0.1c0,0.5,0.6,1.3,0.9,1.2c0.3-0.1,1-0.8,1.3-0.6c0.3,0.3,0.4,0.9,0.7,1.1
			c0.3,0.2,1.2,0.2,1.6,0c0.4-0.2,1.6-0.2,2.1-0.1c0.3,0.1,0.9,0.2,1.4,0.2c-0.1,0-0.2,0-0.3,0.1c-0.1,0-0.2,0.1-0.2,0.3
			c0,0.5,0.4,1.7,0.4,2.1c0,0,0,0,0,0c0,0-0.1-0.1-0.1-0.1l-0.2,0c-0.3-0.3-0.3-0.7-0.5-1.1l0.2,0c0-0.1-0.1-0.2-0.2-0.3
			c-0.4-0.5-0.9-0.4-1.6-0.3c-0.7,0.1-1.9,0.3-2.2,0.3c-0.4-0.1-0.1-0.1-0.8-0.5c-0.8-0.4-1.1-0.3-1.7-0.7h-0.2
			c-0.4-0.4,0-0.5-1-0.6c-1-0.1-0.9,0.6-1.9,0.4c-1-0.2-1.3,0.1-2.3,0c-1-0.1-1.5-0.2-1.6,0.4c-0.1,0.6-0.4,1.6-0.8,1.6
			c-0.4,0-0.9,0.6,0.4,0.7c1.3,0.1,0.6,0.8,1.8,0.7c1-0.1,1.9-0.1,2.3-0.5c0,0,0,0,0.1,0l0,0c0.1-0.1,0.1-0.2,0.2-0.3
			c0.3-0.7,0.5-0.7,0.6-0.4c0.1,0.2,1.2,1.7,1.2,1.7s0.7,0.7,1,0.8c0.3,0.2-0.3,0.9-0.8,0.5c-0.6-0.4-1.6-0.3-2-0.7c0,0,0,0,0,0
			l0.3,0c0,0-0.1,0-0.1-0.1c-0.4-0.4-1.6-0.6-2-0.5c-0.5,0.1-2.1-0.1-2.4-0.1c-0.1,0-0.2,0.1-0.4,0.2c-0.4,0.2-0.9,0.7-0.9,0.7
			s-0.1-0.1-0.1-0.3h0.2c-0.1-0.2-0.3-0.6-0.5-0.8c-0.1-0.1-0.2-0.1-0.4,0c-0.1,0.1-0.3,0.3-0.5,0.4c0,0,0,0,0,0
			c-0.3,0.1-1.1-0.7-2-0.3c-0.2,0.1-0.4,0.2-0.5,0.3c-0.1,0.1-0.2,0.1-0.3,0.2c-0.2,0.1-0.4,0.2-1,0.1c-1.2-0.1-1.5-0.3-1.9-0.2
			c-0.4,0.1-0.4,0.1-0.4,0.1s0,0,0,0.1c-0.1,0-0.1,0-0.1,0s0.1,0.3-0.4,0.7c-0.5,0.3-0.8,0.7-1.2,0.2c-0.4-0.5-0.6-0.5-0.8-0.6
			c0,0-0.1-0.1-0.2-0.1l0.3,0c-0.2-0.1-0.6-0.5-1.5-0.2c-0.9,0.2-1.9-1.2-2.2-1.2c-0.3,0-3.2,0.7-3.8,0.6c-0.4-0.1-1.4-0.6-2.2-0.7
			l-1.1,0c-0.6,0.1-1.2,0.2-1.2,0.2s-0.4-0.1-0.8-0.2l-0.6,0c0,0,0,0,0,0c0,0,0,0,0,0l-0.2,0c-0.3,0.1-0.6,0.2-0.9,0l-0.2,0
			c0,0,0,0,0,0c-0.4-0.4-1-0.7-1-0.7s-0.2,0.6-0.5,0.9c0,0-0.1,0-0.1,0.1c-0.5,0.2-1.5,0.5-1.8,0.3c-0.2-0.2-2,0.7-2,0.7
			s-1,0.3-1.3,0.2c-0.1,0-0.3,0-0.5,0.1l0.1,0c-0.5,0.2-1.1,0.6-1,0.8c0.1,0.3,0,1,1.1,1c1.1,0,1.2,0.5,1.6,0.6
			c0.4,0.1,0.6,0,1.1,0.5c0.5,0.5,0.5,1-0.1,0.9c-0.6-0.1-1.3-0.3-1.8-0.7c-0.4-0.4-0.4-0.4-0.4-0.4l-0.8,0.4
			c-1,0.1-2.3,0.7-2.3,0.7s0.4,0.7,1,1.2c0.6,0.5,2.2,0.5,2.2,0.5s1.1,0.1,1.5-0.3c0,0,0.1,0,0.1-0.1c0,0,0,0,0,0
			c0.1-0.1,0.1-0.1,0.2-0.1c0.3-0.1,0.6-0.1,0.9,0c0.3,0.1-0.2,1.2-1,1.1c-0.8-0.1-1.7,0.1-2.3,0.7c-0.6,0.6-1.2,0.7-0.9,1.3
			c0.3,0.7,1.3,1.5,1.4,1.9c0,0.3,0.6,0.1,1-0.2c0.2-0.1,0.4-0.3,0.5-0.5l-0.1,0c0.1-0.4,0.8-0.4,0.6,0.5c-0.2,0.9,0.7,1.1,0.7,1.1
			s0,0,0.1-0.1c0,0,0.1,0,0.1,0s0.2-0.4,0.4-0.6c0,0,0.1,0,0.1,0c0.2,0.2,0.9,0.9,0.9,0.9s0.1-0.1,0.3-0.2l0,0c0,0,0,0,0.1,0
			c0.3-0.2,0.7-0.3,0.9,0c0.3,0.5-0.4,0.9-0.8,1.2l0,0c-0.6,0.3-1.8,0.9-2.2,1.1c0,0-0.1,0-0.1,0.1c0,0,0,0,0,0c0,0,0,0-0.1,0
			c-0.2,0.1-0.5,0.3-0.8,0.4l0,0c-0.5,0.3-1,0.5-1.2,0.5c-0.4,0-0.5,1,0.1,0.9c0.6-0.1,2.4-0.8,2.9-1.1c0.5-0.2,0.7,0.8,1.9,0.1
			c0.2-0.1,0.4-0.3,0.6-0.4l0,0c0.7-0.5,1-1.1,1.3-1.4c0,0,0.1,0,0.1,0c0.3,0.1,0.4,0.7,1,0.8c0.3,0.1,0.5,0,0.7-0.2
			c0.3-0.2,0.6-0.5,0.8-0.7c0.1-0.1,0.1-0.1,0.2-0.2l-0.1,0c0.2-0.4,0.3-0.9,0-0.8c-0.4,0.1-1.3,0-1.3,0s0.2-0.1,0.4-0.3l0,0
			c0.3-0.2,0.7-0.6,0.7-0.9c0-0.2,0-0.5,0.2-0.7l-0.1,0c0.1-0.2,0.3-0.4,0.5-0.5c0.6-0.2,0.6-0.1,0.2,0.9c-0.3,0.9,0.5,0.7,1,0.3
			c0.1-0.1,0.2-0.1,0.3-0.2c0.4-0.2,0.9,0.7,1.6,0.2c0,0,0,0,0,0c0,0,0.1,0,0.1-0.1c0.2-0.2,0.4-0.4,0.5-0.6l-0.1,0
			c0.2-0.5,0.2-1,0.5-1c0.4,0,1.2,0.9,1.6,0.6c0.4-0.3,1.5,0.7,2.2,0.7c0.7,0,3.1,0.8,3.5,0.8c0.4,0,1.7,0.6,1.8,1.7
			c0.1,1.1,0.5,1,0.9,1c0.4,0,1.4,0.4,1.4,0.8c0,0.4-0.3,2.1,0.4,2.5c0.7,0.4,1.3,1.1,1.6,0.9c0.1-0.1,0.1-0.5,0.1-0.8l0.1,0
			c-0.1-0.4-0.2-0.8-0.4-0.9c-0.3-0.1-0.2-0.4-0.2-0.7l-0.1,0c0-0.1,0-0.2,0-0.2c-0.1-0.3,0.4-0.3,0.6,0.3c0.2,0.6,0.8,1.7,1.1,1.7
			c0.4,0,1.1,1,0.9,1.6c-0.2,0.6,0.1,1.8,0.7,1.8c0.6,0,1.5,0.8,1.8,0.9c0.3,0.1,0.4,0.8,0.4,1.1c0,0.3,0.5,1.4,0.5,1.9
			c0,0.6-0.2,2.9-0.3,3.8c-0.1,0.9,0.6,2.5,1.3,3.3c0.7,0.8,0.6,2.7,1,3c0.4,0.3,1.5,1,2.1,0.9c0.6-0.1,1.1,0.5,1.6,1.7
			c0.6,1.2,1.1,3.1,1.5,3.2c0.4,0.2,1.1,0.7,0.8,1.2c-0.3,0.4-0.9,1.3-0.3,1.3c0.6,0,0.8-0.4,1.3,0.3c0.5,0.7,1.1,1.2,1.1,1.7
			c-0.1,0.5,0.6,0.7,0.8,0.7c0.3,0.1,0.9,1.4,1.5,1c0.1,0,0.1-0.1,0.2-0.1c0.2-0.2,0.2-0.5,0-0.8l-0.2,0c-0.3-0.4-0.8-0.8-1.1-1.1
			l0.2,0c-0.1-0.1-0.2-0.2-0.3-0.2c-0.3-0.3-0.2-0.8-0.4-1.4l-0.2,0c-0.1-0.2-0.3-0.5-0.5-0.7c-0.1-0.1-0.2-0.2-0.3-0.4l0.2,0
			c-0.6-0.6-0.7-1.2-1-1.6l-0.2,0c-0.1-0.1-0.1-0.2-0.2-0.2c-0.3-0.3-0.6-0.6-0.8-0.9H52c-0.2-0.4-0.3-0.7,0.1-1
			c0.6-0.3,0.7,0.7,0.9,1.4c0.3,0.7,1.8,2.2,2.4,2.9c0.6,0.7,1.8,3,2.1,3c0.4,0,1.3,1.3,1.3,1.3s0.6,1.1,0.4,1.4
			c-0.2,0.3,0.3,1.6,0.8,1.9c0.5,0.3,2.6,0.3,2.7,1.6c0,0.3,0.4,1.9,1.2,1.9c0.8,0,1.8-0.4,2-0.2c0.2,0.2,0.8,1.1,1.2,0.7
			c0.1,0,0.1-0.1,0.2-0.2c0,0,0,0,0,0l-0.1,0c0.4-0.5,0.5-0.7,1.1-0.7c0.6,0,0.9,0.6,1.3,1c0.4,0.4,1.3,1.5,1.8,1.4
			c0.5-0.1,1.1,0.7,1.5,0.4c0.4-0.2,0.9,0.2,1.2,0.3c0.3,0.2,0.9,0.8,0.8,1.8c-0.1,1,1,1.2,1.4,1.5c0.4,0.2,1,0.8,1.3,1.2
			c0.4,0.4,1.1,0.5,1.3,0.7c0.2,0.2,0.4,0.7,1,0.3c0.4-0.2,0.5-0.6,0.5-0.9h0.1c0-0.2,0-0.3,0-0.3c0.2,0,0.7-0.1,0.9,0.2
			c0.4,0.3,0.6,1.4,0.8,1.6c0.2,0.2,0.6,1.4,0.4,2.3c-0.3,0.9-0.2,1.8-0.5,1.8c-0.3,0-1.1,0.9-1.5,1.1c-0.4,0.2-1.1,1.6-1.1,2
			c0.1,0.4,0.3,1.7,0.2,2.3c-0.1,0.6-0.7,1.2-0.5,2.1c0.2,0.9,1.7,1.2,1.8,2c0.1,0.8,1.1,2.7,1.3,3.5c0.1,0.8,0.9,1.8,0.9,3
			c0,1.2,2.1,1.9,2.5,1.9c0.4,0.1,1,0.8,1.5,1.1c0.5,0.2,0.9,0.7,1.3,1.4c0.4,0.7,0.3,1.7,0.3,1.9c0,0.2-0.2,2.8-0.4,4.3
			c-0.2,1.5,0.5,2.9,0.1,3.3c-0.4,0.4-1.2,0.6-0.8,1.1c0.4,0.5-0.5,0.8-0.5,1.1c0,0.3,0.6,1.6,0.3,2.2c-0.3,0.6-0.5,1.4-0.7,1.9
			c-0.2,0.5-0.7,1-0.6,1.7c0.1,0.7-0.6,0.5-0.6,1.2c0,0.7,0.6,0.4,0.5,1.3c-0.1,0.9-0.5,1.2-0.5,1.8c0,0.7,0.4,1.6,0.4,1.8
			c0,0.2-0.4,1.1-0.8,1.7c-0.5,0.7-0.8,1.1-0.8,1.5c0.1,0.4,0.6,0.9,0.5,1.2c-0.1,0.3-0.7,1.1-0.6,1.7c0.1,0.6,0.7,0.3,0.8,0.7
			c0.1,0.4-0.8,0.7-0.4,1.2c0.4,0.4,1,0.3,0.8,1.3c-0.1,1,0.8,1.2,1,1.5c0.2,0.2,0.6,0.8,1,0.8c0.3,0,0.6-0.2,0.8-1.1l0.1,0
			c0,0,0-0.1,0-0.1c0-0.2,0.1-0.3,0.1-0.3c0.3-0.1,0.7,0.4,0.2,0.9c-0.7,0.7-1.1,1-0.8,1c0.2,0,1.3,0.7,1.8,0.7
			c0.6,0,1.7-0.3,1.9-0.4c0.2-0.1,1.7-0.3,1.9-0.6c0,0,0.1,0,0.1,0l-0.1,0c0-0.2-1.2-0.1-1.8-0.4c-0.3-0.1-0.6-0.4-0.9-0.7l0.2,0
			c-0.5-0.5-1-1.1-1-1.4c0-0.1,0-0.2-0.1-0.3l-0.1,0c0-0.4,0-0.8,0.1-1.1l0.1,0c0.1-0.2,0.2-0.4,0.3-0.5c0.3-0.2,0.9-0.8,1.4-1.2
			l0,0c0.2-0.2,0.4-0.4,0.5-0.5c0.1-0.1,0.2-0.4,0.4-0.6h0.1c0.2-0.4,0.3-0.9,0.2-1c-0.2-0.2-1.3,0-1.4-0.2
			c-0.1-0.1-0.1-0.2-0.1-0.4l-0.1,0c0.1-0.2,0.2-0.4,0.6-0.7c0.1-0.1,0.3-0.2,0.4-0.4H92c0.5-0.5,0.8-1.2,1-1.4
			c0.1-0.1,0.2-0.2,0.3-0.3l0,0c0.3-0.3,0.5-0.6,0.7-1c0-0.1,0-0.1,0-0.1h0.1c0.2-0.5-0.2-0.2-0.6-0.2c-0.4,0-0.6-0.9-0.6-1.3
			c0,0,0,0,0-0.1c0.3,0,1.1,0.3,1.7,0.5c0.3,0.1,0.4,0,0.5-0.1c0.2,0,0.2-0.2,0.1-0.4l-0.2,0c0-0.1-0.1-0.3-0.1-0.4
			c0-0.2,0-0.5,0.1-0.7h0.1c0-0.2,0.1-0.3,0.2-0.4c0.1,0,0.1,0,0.2,0c0.4,0.2,2.6-0.1,2.9-0.2c0,0,0.1,0,0.1-0.1c0,0,0,0,0,0
			c0.2,0,0.5-0.5,0.8-1h-0.1c0.2-0.4,0.4-0.7,0.5-0.9c0-0.1,0.1-0.1,0.1-0.2h0.1c0.2-0.4,0.2-0.7-0.1-1c-0.2-0.1-0.5-0.4-0.8-0.7
			h-0.2c-0.3-0.3-0.6-0.6-0.6-0.7c0-0.1,0-0.2,0-0.4l0.1,0c0.1-0.4,0.3-1.2,0.4-1.6c0.1,0.5,0.1,2.4,0.9,2.6c1,0.3,1.5,0.5,2.5-0.5
			c0.2-0.2,0.3-0.4,0.5-0.5l0.1,0c0.6-0.7,1.1-1.2,1.2-1.6l-0.1,0c0,0,0-0.1,0-0.1c0-0.3,0.1-0.7,0.2-1l0.1,0
			c0.1-0.3,0.2-0.6,0.4-0.7c0.1-0.1,0.3-0.1,0.4-0.2c0.2-0.1,0.4-0.3,0.6-0.7l-0.1,0c0,0,0-0.1,0.1-0.1c0.4-1,0.7-0.4,1.1-1l0.1,0
			c0.1-0.1,0.1-0.2,0.2-0.3c0.2-0.4,0.1-0.9-0.1-1.3h-0.2c-0.1-0.4-0.2-0.8,0-1.1h0.1c0.1-0.1,0.1-0.2,0.2-0.3
			c0.3-0.2,0.7-0.5,1-0.7c0.6-0.4,1.2-0.7,1.2-0.7s0.4-0.2,1.3-0.5c0.8-0.2,1.7-0.1,2-0.5h0.1c0,0,0.1-0.1,0.1-0.1
			c0.2-0.3,0.4-1,0.6-1.5h-0.1c0.1-0.2,0.2-0.4,0.3-0.6c0.1-0.2,0.2-0.3,0.3-0.5l0.1,0c0.3-0.5,0.6-1.1,0.4-1.5c0,0,0-0.1,0-0.2
			h-0.1c0-0.3,0.1-0.7,0.2-1.1l0.1,0c0.2-0.6,0.4-1.2,0.3-1.5c0-0.1,0-0.1,0-0.2l-0.2,0c-0.1-0.3-0.2-0.7-0.2-1.1h0.1
			c0-0.4,0.1-0.9,0.6-1.4c0.1-0.1,0.2-0.2,0.3-0.3h0c0.3-0.4,0.7-0.7,1-1.1l0.1,0c0.5-0.7,1-1.3,1-1.5c0,0,0-0.1,0-0.1h-0.1
			c0.1-0.3,0.2-0.7,0.4-1.1h0.1c0.2-0.6,0.4-1.2,0.4-1.6L118.1,96.8C118.1,96.8,118.1,96.8,118.1,96.8z M74.6,47.5l-0.1,0
			c0-0.1,0-0.2,0-0.2c0-0.2,0-0.5,0-0.9l0.1,0c0-0.6-0.1-1.2,0.1-1.6c0,0,0,0,0,0l-0.1,0c0.3-0.6,1.1-0.8,1.6-0.9
			c0.6-0.1,1.8,0.4,2,0.3c0.2-0.1,1.2-0.1,1.7,0c0.4,0.1,1,1.2,0.9,1.6c-0.4,0-0.9-0.4-0.9-0.9c0,0,0-0.1,0-0.1l-0.1,0
			c0,0,0,0.1-0.1,0.2c0,0,0,0,0,0c0-0.6-0.5,1.1-0.2,1.6c0.2,0.4-0.2,0.8-0.6,1l-0.1,0c0,0,0,0,0,0c0,0,0,0,0,0h-0.3
			c-0.2-0.2-0.3-0.6-0.3-1.1h0.1c0-0.1,0-0.3,0-0.4c0.1-0.6-0.2-1.1-0.6-1.2l-0.9,0c-0.1,0-0.2,0.1-0.3,0.2c-0.5,0.2-0.7,0.7-1,0.9
			c-0.3,0.3-0.3,1.7-0.2,2c0.1,0.2,0.1,1-0.2,1.3c0,0,0,0-0.1,0l0,0c-0.1,0.1-0.2,0.1-0.4,0.1c-0.1,0-0.2-0.1-0.2-0.1l0.3,0
			C74.6,49,74.6,48.1,74.6,47.5z M81.7,46.4c0.1-0.1,0.2-0.2,0.3-0.3c0,0,0.1,0,0.1,0c0.2,0.2,1.7-0.3,2,0.2c0.3,0.4-0.3,0.5-1,0.8
			c-0.7,0.3-0.9,0.2-1.2,0.7c-0.1,0.1-0.2,0.2-0.3,0.2c-0.3,0.2-0.6,0.3-0.9,0.5c-0.2,0.1-0.3,0.2-0.5,0.4c-0.4,0.5-1.2,0.8-1.3,0.4
			c0-0.1,0-0.1,0-0.1l0.2,0c-0.2-0.5,0.1-0.2,0.1-0.5c0-0.1,0.1-0.1,0.2-0.2c0.4-0.2,1-0.5,1-0.5s0,0,0,0c0.1,0,0.1,0,0.1,0
			s0.1-0.1,0.3-0.3l-0.1,0C80.9,47.2,81.3,46.7,81.7,46.4L81.7,46.4z M43.3,41.4c-0.1-0.1-0.3-0.2-0.4-0.4l0.2,0
			c-0.2-0.3-0.4-0.6-0.4-0.8c0,0,0,0,0.1,0c0.2,0.1,0.6,0.6,0.8,0.6c0.2,0,1.3,1,1.5,1.3c0.2,0.3,0.3,1,0.1,1.2
			c-0.3,0.1-0.5-0.8-0.6-1.2h-0.1C44.3,41.6,43.7,41.6,43.3,41.4z M76.5,43.1c-0.2,0.1-1-0.2-1.6-0.2c-0.6,0-0.5-0.5-0.8-0.4
			c-0.3,0.1-0.9,0.2-1.3,0.5c-0.4,0.2-1.1,0.2-1.1-0.2c0-0.3,0-0.4,0.2-0.5c0.2-0.1,0.5-0.2,0.9-0.3c0.9-0.4,1.9-1.6,2.3-1.1
			c0.4,0.5,1.2,1.1,1.7,1.2C77.2,42.1,76.8,42.9,76.5,43.1z M98.7,121.5C98.7,121.5,98.7,121.5,98.7,121.5
			C98.7,121.4,98.8,121.4,98.7,121.5L98.7,121.5z"/>
		<path fill="#FFFFFF" d="M53.1,14.3c0.4,0,1.3-0.4,1.6-0.1c0.3,0.3,1,0.1,0.9-0.2c0-0.1,0-0.2,0-0.4l0.1,0c0-0.4,0.1-1.1-0.3-1.1
			c-0.6-0.1-1.4,0.6-2.2,0.9c0,0-0.1,0-0.1,0.1c0,0,0,0,0,0C52.6,13.6,52.8,14.3,53.1,14.3z"/>
		<path fill="#FFFFFF" d="M60.5,13.4c0.6,0,1.8-0.3,1.9-0.1c0.1,0.3,0,0.5,0.6,0.6c0.7,0.1,0.9,0.2,1.3,0.2c0.2,0,0.3-0.3,0.1-0.7
			l0.2,0c-0.1-0.2-0.1-0.4-0.3-0.6c-0.3-0.5-0.2-0.4-1.1-0.7c-0.8-0.3-1.7-0.3-2.3-0.2c-0.4,0-0.8,0-1.1,0.2
			c-0.2,0.1-0.3,0.2-0.4,0.6C59.4,13.1,59.9,13.4,60.5,13.4z"/>
		<path fill="#FFFFFF" d="M68.5,19c0.6-0.1,1.5-0.2,1.9-0.3c0.1,0,0.1-0.1,0.2-0.1c0.4-0.1,0.4-0.9,0-0.9c-0.3,0-0.6-0.2-0.8-0.4
			l-0.5,0c-0.3,0.1-0.7,0.3-1.1,0.6c-0.4,0.3-0.7,0.5-0.7,0.7C67.5,18.8,67.9,19.1,68.5,19z"/>
		<path fill="#FFFFFF" d="M66.4,14c0.5,0.3,1.4,0.8,2,1.1c0.6,0.3,1.8,0.3,2.2,0.9c0.4,0.6,1.6,1,1.6,1l1.5,0.2c0,0,1-0.3,2.1-0.2
			c1.1,0.1,2.7,0.3,3.6,0.2c0.9-0.1,1-0.4,1.1-0.6c0-0.1-0.2-0.2-0.5-0.3h0.4c-0.5-0.2-1.4-0.4-1.7-0.4c-0.4,0.1-2.8,0.1-3.5,0
			c-0.7-0.1-1.6-0.1-2.2,0c-0.6,0.1-1-0.4-1.4-0.7c-0.2-0.1-0.4-0.3-0.7-0.5l-0.2,0c-0.4-0.3-0.8-0.6-1.1-0.6
			c-0.6-0.1-0.5-0.1-1.6-0.4c0,0,0,0,0,0l0.4,0c-0.1,0-0.2,0-0.3-0.1c-0.6-0.2-1.6-0.4-1.6-0.6c0-0.1,0,0-0.1,0.2
			c0,0-0.1-0.1-0.1-0.1C66.1,12.8,65.8,13.8,66.4,14z"/>
		<path fill="#FFFFFF" d="M133.4,27C133.5,27,133.5,27,133.4,27c0,0,1.1-0.9,0.7-1.3c0,0-0.1-0.1-0.1-0.1h-0.3
			c-0.4-0.3-1.1-0.5-1.4-0.5c-0.4-0.1-0.8,0.4-1.8,0.4c-0.4,0-0.7,0.1-1,0.1h-0.7c-0.1,0-0.1-0.1-0.2-0.1c-0.4-0.4-1.9-0.7-2.1-0.4
			c-0.2,0.4-0.6,0.4-0.2,1.2c0.4,0.8,0.7,1.2,1,1.2c0.3-0.1,1.5-0.1,1.6,0.3c0.1,0.4,0.5,0.8,1.3,0.6c0.8-0.3,1.5-0.4,1.6-0.8
			C132.1,27.2,133.3,27.1,133.4,27C133.3,27.1,133.4,27.1,133.4,27z"/>
		<path fill="#FFFFFF" d="M84.5,70.3c0.1,0,0.2-0.1,0.2-0.2c0-0.2-0.1-0.4-0.4-0.7l-0.2,0c-0.3-0.3-0.6-0.4-0.8-0.4
			c-0.4,0.1-1-0.3-1.6-0.7l0.2,0c-0.2-0.2-0.5-0.4-0.7-0.6c-0.6-0.6-1.6-0.6-2-0.6c-0.4,0-2.1,0.6-2.1,0.6c0,0,0,0,0,0
			c-0.1,0-0.1,0-0.1,0c-0.1,0.8,0.6,0.6,1.5,0.6c0.8,0,2.3-0.2,2.6,0.2c0.3,0.4,1.5,1.1,1.9,1.4C83.3,70.4,84.2,70.5,84.5,70.3z"/>
		<path fill="#FFFFFF" d="M92.3,72.7c0.2-0.1,0.3-0.3,0.3-0.5l-0.1,0c0-0.4-0.3-0.7-0.7-0.7c-0.6,0.1-0.5,1.6,0.3,1.3
			C92.2,72.8,92.2,72.8,92.3,72.7z"/>
		<path fill="#FFFFFF" d="M214.4,82.3c0-0.1-0.1-0.2-0.1-0.3l0.2,0c-0.2-0.6-0.4-1.8-1-1.5c0,0,0,0-0.1,0.1c0,0,0,0-0.1,0
			c-0.5,0.2-0.9,4.2-0.1,4.6c0.3,0.1,0.5-0.1,0.7-0.4l0.1,0c0.3-0.4,0.5-1.1,0.5-1.6l-0.1,0C214.5,82.8,214.5,82.5,214.4,82.3z"/>
		<path fill="#FFFFFF" d="M154.5,51.4c0.1-0.1,0.3-0.2,0.4-0.4c0.1-0.2,0.1-0.5,0-0.8h-0.2c-0.2-0.3-0.4-0.6-0.6-0.6
			c-0.7,0-1,1.2-0.6,1.7C153.9,51.7,154.2,51.7,154.5,51.4z"/>
		<path fill="#FFFFFF" d="M149.4,51.2c0.1,0,0.2-0.1,0.2-0.2c0.1-0.3-0.1-0.7-0.4-0.4c-0.1,0-0.2,0.2-0.4,0.4
			C148.6,51.3,149.2,51.4,149.4,51.2z"/>
		<path fill="#FFFFFF" d="M158.8,54.1c0.2,0,0.5,0,0.8-0.2c0.2-0.1,0.4-0.3,0.3-0.8c0-0.1,0-0.1-0.1-0.2l-0.2,0
			c-0.3-0.6-0.8-0.6-1-0.6c-0.2,0-1.1-0.2-1.5,0c-0.3,0.2,0.4,0.7,0.8,0.9C158.3,53.5,158.6,54,158.8,54.1z"/>
		<path fill="#FFFFFF" d="M139.1,39.9c0.6,0.1,1.2-0.4,1.7-0.7c0.4-0.2,0.9-0.5,1.1-1l0.1,0c0.1-0.2,0.1-0.4,0.1-0.6
			c0-0.4,0-0.8-0.1-1.1l-0.2,0c-0.1-0.2-0.2-0.4-0.3-0.6c-0.3-0.3-0.8-0.4-1.2-0.3c-0.6,0.1-0.7,0.9-1.1,0.9l-0.3,0
			c-0.1,0-0.1,0.1-0.2,0.1c-0.2,0.1-0.3,0.3-0.3,0.6c0.1,0.6,0.4,1,0,1.2C138,38.8,138.5,39.8,139.1,39.9z"/>
		<path fill="#FFFFFF" d="M142.5,36.3c0.7,0.3,2.2,0.7,1.6,1c-0.6,0.3-2.2,2-2.3,2.5c-0.1,0.5,1.8,0.3,1.8,0.3s-0.4,0.6-0.1,0.7
			c0.1,0.1,0.2,0,0.3-0.1c0.1-0.1,0.3-0.3,0.5-0.4c0.1,0,0.2-0.1,0.3-0.1c0.6,0,1.7,0.4,2.3,0.4c0.2,0,0.5-0.1,0.7-0.4
			c0.3-0.3,0.7-0.6,0.8-1l-0.1,0c0-0.1,0-0.1,0-0.2c0-0.3-0.2-0.6-0.4-0.9l0.2,0c-0.3-0.4-0.7-0.8-1-1c-0.2-0.1-0.4-0.4-0.7-0.7
			h-0.2c-0.3-0.4-0.5-0.8-0.8-1.1l0.2,0c-0.1-0.2-0.2-0.3-0.3-0.4c-0.3-0.2,0.4-0.7,0.9-1.2l-0.1,0c0.2-0.3,0.3-0.5,0.1-0.7
			c-0.3-0.4-1-0.4-1.6-0.4l1,0c-0.6-0.1-1.4,0-1.8-0.3c-0.3-0.2-0.6-0.2-0.8,0c-0.3,0.1-0.5,0.4-0.7,0.7c-0.4,0.5-0.8-0.1-1.2,0.1
			c-0.6,0.2-0.4,1.1-0.1,1.5C141.3,35.1,141.8,36,142.5,36.3z"/>
		<path fill="#FFFFFF" d="M284.4,30.9c2.1,0,1.4,0.2,3.1,0.1c1.7-0.1,2.3-1.1,3.9-1.6c1.6-0.5,2.9-0.8,3.4-0.6
			c0.3,0.2,0.7,0.1,0.9,0c0.2-0.1,0.2-0.2,0.1-0.5l-0.2,0c-0.3-0.3-0.8-0.8-1-1.1l0.2,0c-0.2-0.2-0.3-0.4-0.2-0.5
			c0.3-0.1,0.6-0.2,0.9-0.3c0.3-0.1,0.5-0.3,0.6-0.7c0,0,0-0.1,0-0.2l-0.1,0c0-0.3-0.2-0.7-0.3-1.1l0.2,0c-0.1-0.5-0.2-0.9,0-1.2
			c0.1-0.1,0.1-0.3,0.2-0.4l-0.1,0c-0.1-0.5-0.6-0.9-1.1-1.1l0.3,0c-0.1-0.1-0.3-0.1-0.4-0.2c-0.7-0.2-3.4,0.2-4-0.2
			c-0.6-0.3-1.5-0.7-1.8-0.5c0,0,0,0-0.1,0.1c0,0-0.1,0-0.1,0c-0.3,0.2-0.9,1.6-0.9,1.6s-0.5,0.2-0.9-0.6c-0.1-0.1-0.2-0.2-0.3-0.3
			l0.2,0c-0.7-0.5-2.6-0.5-3.3-0.5c-0.7,0-1.5,0.2-2.2,0.2c-0.8,0.1-1.2,0.3-1.8-0.2c-0.6-0.6-1.3-0.8-1.6-1.1c0,0-0.1-0.1-0.2-0.1
			l-0.6,0c-0.4,0-1,0-1.6,0l-0.7,0c-1.2,0.2-2.4,0.2-2.4,0.2s-0.1-0.1-0.3-0.2l-0.3,0c-0.2-0.1-0.6-0.3-0.9-0.6
			c-0.3-0.2-0.6-0.4-0.8-0.5h0.3c-0.6-0.3-1.1-0.6-1.3-0.6c-0.3,0-2.5,0.4-3,0c-0.5-0.4-1-0.7-1.3-0.7c-0.2,0-0.4-0.2-0.4-0.4
			l-0.1,0c0-0.1,0.1-0.2,0.2-0.2c0.4,0,2.4-0.7,2.4-0.7s-0.1-0.1-0.2-0.3l0.2,0c-0.2-0.3-0.6-0.7-1.1-0.7c-0.7,0-2-0.4-2.3-0.4
			c-0.1,0-0.2,0-0.2,0.1c-0.1,0-0.1,0.1-0.2,0.2c-0.1,0-0.2,0-0.4,0c-0.7-0.2-1.7,0.3-1.8-0.2c-0.1-0.3-0.3-0.3-0.5-0.1
			c-0.4,0.2-0.8,1.1,0,1.4c1.1,0.3,2,0,2.3,0.5c0.3,0.5,0,0.7,0,1.1c0,0.3-0.6,1.2-0.9,1.4c-0.4,0.2-0.8-0.3-1.5,0.2
			c-0.7,0.4-2.5,0.1-2.7,0.3c-0.2,0.2-0.6-0.7-1-0.5c-0.2,0.1-0.7,0.6-1.1,0.9c-0.2,0.1-0.4,0.2-0.5,0.2c-0.2,0-0.5-0.2-0.7-0.4
			l-0.2,0c-0.2-0.2-0.3-0.5-0.3-0.8c0-0.1,0-0.2,0-0.3l0.1,0c0-0.6-0.2-1.3-0.4-1.5c-0.1-0.1-0.4-0.1-0.8-0.2l-1.5,0
			c-0.6,0.1-2.1,0.2-2.5,0.5c-0.1,0-0.1,0.1-0.2,0.1c-0.1,0.1-0.1,0.1-0.2,0.2c-0.4,0.2-0.8,0.3-1.2,0.3c-0.5,0-0.9-0.6-2-0.7
			c-1.1-0.2-3.4-0.2-3.7-0.2c-0.2,0.1-0.7-0.1-0.9-0.2l-0.2,0c0-0.1,0-0.1,0.1-0.2c0.2-0.2,0.5-0.5,0.8-0.9l0.1,0
			c0.3-0.4,0.4-0.8,0.1-1.1c-0.6-0.5-2-0.5-2.6-0.6l-0.7,0c-0.5-0.1-1-0.1-1.7,0c0,0,0,0,0,0l-0.2,0c-0.7,0.2-0.9,0.6-1.3,0.2
			c0,0-0.1-0.1-0.1-0.1c0.2,0,0.4,0.2-0.5-0.3c-1.5-0.7-2.3,0-2.6-0.4c0-0.1-0.1-0.1-0.1-0.2c-0.1,0.2-0.4,0.5-0.9,0.8c0,0,0,0,0,0
			l0,0c-1,0.6-1.6,0.7-1.9,0.7c-0.3,0.1-2.2-0.3-2.2-0.6c0-0.1,0-0.1,0-0.2l-0.1,0c-0.1-1.5-0.8,0-1.5,0.5c0,0,0,0-0.1,0
			c-0.7,0.3-1.2,0.8-1.9,0.7c-0.7-0.2-1.8-0.2-2.5,0.2c-0.2,0.1-0.4,0.2-0.6,0.2l0.1,0c-0.5,0.2-1,0.3-1.5,0.8
			c-0.2,0.1-0.3,0.2-0.5,0.3h0c-0.7,0.3-1.4,0.5-1.4,0.5s-1.2-0.1-1.8-0.1c-0.4,0-0.9,0-1.1,0.2c-0.2,0.1-0.3,0.2,0,0.5
			c0.6,0.6,2.3,1.2,2.5,1.5c0.2,0.3,0.5,1.3,0.2,1.5c-0.3,0.2-0.8,0.1-0.9-0.6c0-0.4-0.1-0.6-0.2-0.7l-0.2,0
			c-0.1-0.1-0.3-0.2-0.7-0.3c-0.8-0.3-0.8-0.1-1.4-0.8l0.2,0c0,0-0.1-0.1-0.1-0.2c-0.6-0.6-1.2-0.7-1.6-0.4
			c-0.1,0.1-0.3,0.2-0.3,0.3c-0.3,0.4-0.2,1.2-0.4,1.5c0,0,0,0,0,0c-0.4,0.1-0.8,0.3-1-0.2l-0.1,0c0,0,0-0.1,0-0.1
			c0-0.3,0-0.7-0.1-1l0.1,0c-0.1-0.5-0.1-0.8-0.4-0.6c-0.1,0-0.1,0.1-0.2,0.2c-0.5,0.8-0.7,0.8-0.7,1.2c0,0.4,0.4,0.8,0.3,1.6
			c-0.1,0.7-0.1,1.2,0.1,1.2c0.2,0,0.7-0.7,1.3-0.9c0.6-0.2,1.8-0.6,1.8,0.2c0.1,0.6,0.6,0.9,0.3,1.2c0,0,0,0-0.1,0
			c-0.7,0.3-1.5,0.2-1.6-0.3c0,0,0-0.1,0-0.1l-0.2,0c-0.2-0.3-0.6-0.3-1,0.1c-0.5,0.4-1.5,1.9-1.5,1.9s-1.2,0.6-1.7,0.7l-0.2,0
			c0,0,0,0,0,0c-0.2-0.1,0.2-0.7,0.7-1.1l0.1,0c0.2-0.2,0.4-0.4,0.5-0.5c0.4-0.3,0.7-0.8,0.8-1.2l-0.1,0c0-0.1,0-0.3,0-0.3
			c-0.1-0.1-0.2-0.4-0.2-0.8l0.1,0c-0.1-0.6-0.2-1.3-0.1-1.6c0,0,0-0.1,0-0.1l-0.1,0c0.2-0.3,0.5-0.8,0.2-1.1l0.2,0
			c-0.1-0.1-0.1-0.2-0.2-0.2c-0.7-0.4-1.2-0.9-1.8-1.2c-0.2-0.1-0.3,0-0.5,0.1c-0.5,0.2-0.9,1-1.3,1.3c-0.5,0.3-0.4,0.7-1.1,0.8
			c-0.6,0.1-1.1,1.1,0,1.7c1.1,0.6,1.4,1,1.1,1.3c0,0,0,0,0,0l0,0c-0.1,0-0.3,0-0.5,0l-0.5,0c-0.3-0.1-0.5-0.2-0.5-0.2
			s-0.9-0.5-1.5-0.5c-0.5,0-1.1-0.3-1.6-0.4h0.4c-0.2-0.1-0.4-0.1-0.6-0.2c-0.5-0.1-1.4-0.1-1.8,0.2h0.1c-0.1,0-0.3,0.1-0.3,0.2
			c-0.2,0.2-0.5,0.7-0.9,0.9l0,0c-0.2,0.1-0.3,0.1-0.5,0l-0.3,0c-0.4-0.3-0.5-0.6-1.2-0.3c-0.8,0.3-1.5-0.2-2,0.2
			c-0.1,0.1-0.2,0.2-0.2,0.3c-0.1,0-0.3-0.1-0.8-0.3l-0.4,0c0,0,0,0,0,0c-0.9-0.3-1.1,0-1.5,0.3c-0.2,0.1-0.4,0.2-0.7,0.2
			c-1.2,0.2-1.9-0.2-2.3,0.2c-0.1,0-0.2,0.1-0.2,0.2c-0.4,0.5-0.8,1.4-1.1,0.8c0,0,0,0,0,0l0.2,0c0,0,0,0,0-0.1
			c-0.2-0.4,0.3-1.1,0.4-1.6l-0.1,0c0-0.1,0-0.2-0.1-0.3c-0.4-0.3-1.8-0.2-2,0.1c-0.2,0.3-0.1,1.2,0.1,1.5c0.1,0.3,0.3,1.3,0.1,1.4
			l-0.1,0c0,0,0,0,0,0c-0.4-0.2-0.4-1.1-0.8-1c-0.4,0.1-0.9,0.3-1.1,0.5c-0.2,0.2-1.1,0.2-1.3,0.5c-0.2,0.3,0,1-0.2,1.3
			c-0.3,0.1-0.6,0.4-1.4-0.2c-0.6-0.4-0.7-0.4-0.8-0.2c-0.1,0-0.2,0.2-0.3,0.2c0,0-0.1,0-0.1,0.1c-0.4,0.2-1,0.5-1-0.1
			c0-0.5,0-0.8-0.1-1.1H176c-0.1-0.1-0.2-0.2-0.3-0.3c-0.6-0.5-0.1-0.5,0.7-0.2c0.8,0.3,1.9,0.5,3.4-0.1c0.8-0.3,1.4-0.5,1.6-0.7
			c0.3-0.2,0.4-0.4,0-0.5c-0.3-0.2-0.6-0.6-1-0.9l-0.2,0c-0.3-0.3-0.6-0.5-1-0.6c-1-0.2-2.4,0.6-4-0.1c-0.4-0.2-0.7-0.3-1-0.4l0.3,0
			c-0.9-0.4-1.2-0.6-1.8-0.7c-0.3-0.1-1.2-0.5-2.2-0.9l-0.3,0c-1.3-0.5-2.9-1-3.8-0.8c-0.5,0.1-1.4,0.4-2.3,0.8l0,0
			c-1.1,0.5-2.3,1.2-3.2,1.6l0,0c-0.8,0.4-1.3,0.8-1.4,0.8c-0.3,0.2-0.7,1.2-1.6,2.1c-0.4,0.3-0.8,0.6-1.3,0.9
			c-0.8,0.4-1.6,0.8-2.4,1c-0.2,0.1-0.4,0.2-0.6,0.3c-1.2,0.7-2.5,2.6-2.5,2.9c0,0.3,0.6,1.6,0.4,1.8c-0.1,0.2,0.3,1.5,1.1,1.8
			c0.8,0.3,2.1,0.2,2.2-0.2c0-0.1,0.1-0.3,0.2-0.4h0.1c0.1-0.2,0.3-0.5,0.5-0.6c0.2-0.1,0.3-0.1,0.4,0.2c0.1,0.7,0.8,1.9,0.6,2.4
			c-0.1,0.5,0,1,0.5,0.9c0.5-0.1,3.1-0.7,3.1-0.7s0.1,0,0.2-0.1c0.2-0.1,0.7-0.5,0.6-1h-0.1c-0.1-0.3,0.2-0.7,0.5-1.1h0.1
			c0.3-0.4,0.6-0.7,0.7-0.8c0.1-0.1,0.4-0.5,0.5-0.8l-0.1,0c0-0.3,0-0.5-0.4-0.7c-0.4-0.2-0.8-0.3-1-0.4l0.2,0
			c-0.3-0.2-0.4-0.5,0.3-1.1c0.1-0.1,0.2-0.2,0.3-0.2c0.8-0.4,1.4,0.1,2.5-1.2c0.1-0.1,0.1-0.2,0.2-0.3h0.1c0.7-0.9,0.2-1.4,0.4-1.6
			l0,0c0.1,0,0.2-0.1,0.5-0.1c1.3-0.1,2.7-0.2,2.5,0.3c-0.2,0.3-0.8,0.8-1.4,1.2c-0.1,0.1-0.2,0.1-0.3,0.2l0,0
			c-0.4,0.3-0.8,0.5-1.1,0.7c-0.9,0.5-0.8,1.4-0.4,1.9c0.3,0.5,0.5,1.7,1.1,1.5c0.6-0.2,1.4-0.7,2.1-0.7c0.7,0.1,2.1-0.1,2.3-0.1
			c0.2,0,1,0.9,0.7,1.3c-0.6,0.2-1.3,0.1-2.4,0.2c-1.1,0.1-2.4,0.1-2.5,0.3c-0.1,0-0.2,0.1-0.2,0.1c0,0.2,1.6,0.8,1.1,1.2
			c-0.6,0.4-1.1-0.1-1.8-0.2c-0.7-0.1-1.1,1.1-1.3,1.7c-0.1,0.4,0.1,1.1-0.1,1.4c-0.1,0-0.2,0.1-0.5,0l-0.4,0
			c-0.9-0.3-1.6-0.3-1.8-0.2c-0.3,0.2-0.8-0.1-1.5,0.1c-0.1,0-0.1,0-0.2,0.1l-0.1,0c-0.3,0.1-0.5,0.1-1.2,0.1c-0.9,0-0.9,0-0.9,0
			l-0.6,0.1c0,0-0.1-0.1-0.2-0.2l-0.2,0c-0.2-0.2-0.3-0.5-0.4-0.8c0-0.1,0-0.2,0-0.3l0.1,0c0-0.6,0.3-1.2-0.1-1.4
			c-0.3-0.1-1.1,0-1.6,0.3c-0.2,0.1-0.3,0.2-0.4,0.3c-0.2,0.5-0.4,1.4-0.1,1.8c0.2,0.3,0.6,0.8,0.7,1c0,0-0.1,0-0.2,0
			c-0.8-0.2-1.8-0.3-2.3,0.2c0,0,0,0,0,0c0,0-0.1,0-0.1,0.1c-0.6,0.5-1.5,1.6-1.5,1.6l-0.4,0c-0.4,0.1-0.8,0.2-1,0.3c0,0,0,0-0.1,0
			c0,0,0,0,0,0c-0.1,0.1-0.2,0.2-0.2,0.3c0,0.5,0,1.2-0.6,1.2c-0.6,0.1-1.5,0.3-2.3,0.5c-0.4,0.1-0.6,0.2-0.8,0.3l0,0
			c-0.2,0.1-0.4,0.2-0.8,0.3c-0.4,0-0.6,0.1-0.7,0.2c-0.4,0.2-0.3,0.5,0.4,0.6c0.9,0.2,2.3,0.8,2.4,1.6c0.1,0.7-0.1,1.6-0.4,2.3
			c-0.2,0.5-1.7,0.2-2.5,0.2c-0.8,0-2.5-0.3-3.2,0c-0.7,0.3-0.6,2-0.4,2.7c0.2,0.7-0.1,1.2-0.4,1.4c-0.3,0.2-0.4,1,0,1.3
			c0.4,0.3,0.6,1.1,0.9,1.2c0.3,0.1,1.2-0.3,1.5,0.2c0.4,0.4,0.7,1.4,0.9,1.2c0.1-0.1,0.2-0.3,0.3-0.5l0.1,0
			c0.1-0.2,0.2-0.5,0.4-0.6c0,0,0.1,0,0.1,0c0.4,0.2,1.2-0.1,1.8-0.2c0.2,0,0.3-0.1,0.4-0.2c0.3-0.2,0.5-0.4,0.8-0.7h-0.1
			c0.1-0.2,0.3-0.3,0.5-0.4c0.5-0.3,0.4-0.4,0.2-0.7l0.2,0c-0.1-0.1-0.1-0.2-0.2-0.3c-0.2-0.4,0.4-0.9,0.8-1.3h0
			c0.1-0.1,0.2-0.2,0.2-0.2c0.5-0.6,1.4-0.1,1.6-0.7c0,0,0-0.1,0-0.1l0.1,0c0.2-0.5,0.3-1.3,0.6-1.6c0,0,0.1,0,0.1,0
			c0.6,0.1,1.3,0.5,1.8,0.5c0.2,0,0.6-0.2,0.9-0.4c0,0,0.1,0,0.1-0.1h0c0.3-0.2,0.7-0.5,0.8-0.6c0.3-0.2,1.3-0.1,1.5,0.7
			c0.1,0.7,1.3,1.7,1.6,1.8c0.3,0.2,2.1,0.8,2.4,1.1c0.3,0.2,0.7,1,0.8,1.7c0.1,0.6,0.8,1.3,1,1c0.1,0,0.1,0,0.2-0.2l-0.1,0
			c0-0.2-0.1-0.7-0.2-1.1h0.2c-0.1-0.5-0.3-1-0.2-1.2c0,0,0,0,0,0c0.5,0.1,1.1-0.2,1.1-0.2s0,0,0,0c0.1,0,0.2-0.1,0.2-0.1
			s-0.1-0.1-0.2-0.2h-0.2c-0.4-0.3-1.2-0.9-1.5-1.1c0,0,0,0,0,0h0.3c0,0-0.1,0-0.1-0.1c-0.5-0.2-1.4-0.7-1.8-1.6c0,0,0,0,0,0h-0.2
			c-0.3-0.5-0.8-0.8-1.1-1.1h0.2c-0.2-0.2-0.3-0.4-0.3-0.7c0-0.2,0.1-0.3,0.1-0.3c0.3-0.1,1,0.3,1.4,0.7c0.6,0.7,2,1.6,2.5,2.2
			c0.5,0.6,1.3,0.8,1.5,1.6c0.2,0.7,0.8,1.6,1.1,1.9c0.2,0.3,0.3,3,0.6,3.4c0.1,0.2,0.6-0.1,1.1-0.5l0,0c0.4-0.3,0.7-0.7,0.9-0.8
			c0.3-0.3,0.7-0.4,0.9-0.8l-0.1,0c0-0.1,0.1-0.1,0.1-0.2c0-0.3-0.2-0.6-0.4-0.9l0.2,0c-0.3-0.3-0.6-0.5-0.8-0.6
			c-0.1-0.1,0-0.2,0.1-0.3c0.2-0.1,0.5-0.3,0.7-0.4c0.1-0.1,0.2-0.1,0.3-0.2c0.1-0.1,0.1-0.1,0.2-0.2l0,0c0.3-0.3,0.8-0.5,1-0.2
			c0.3,0.5,0.1,2.5,0.3,2.8c0.1,0.3,1.6,0.8,1.8,1.2c0.3,0.4,1.5,0.6,1.7,0.3c0.2-0.2,1.3,0.2,1.6,0.2c0.3,0.1,1.1-0.2,1.7-0.3
			c0.6-0.2,1.1-0.7,1.1,0.4c-0.1,1.1-0.3,2.7-1,3.6c-0.5,0.6-0.5,0.9-0.7,1.1c-0.1,0-0.2,0-0.3,0c-0.3,0-0.6,0-0.9,0.1
			c-0.2-0.4-0.5-0.8-1-0.6c-0.6,0.2-1.3,0.2-1.9,0.6c-0.3,0.2-0.6,0.4-0.8,0.7c-0.3,0.4-0.5,0.7-0.7,0.8l0,0c0,0-0.1,0-0.1,0l-0.2,0
			c0,0,0,0,0-0.1c-0.1-0.2,0.4-0.6,0.9-1l0,0c0.5-0.5,1.1-1,0.9-1.2c-0.3-0.4-2-0.2-2.9-0.2c-0.3,0-0.6-0.1-0.8-0.2l-0.3,0
			c-0.5-0.2-0.9-0.5-1.4-0.6c-0.7-0.2-1,1.5-1.7,2.4c-0.5,0.6-1.1,0.2-1.7-0.2l0.3,0c-0.3-0.2-0.7-0.4-0.9-0.4
			c-0.6,0-1.8-1.1-1.8-1.1s-0.2-0.1-0.4-0.2h-0.3c-0.4-0.2-0.8-0.3-1.1-0.3c-0.3,0-0.8-0.5-1.2-0.8l0.2,0c-0.3-0.2-0.5-0.4-0.6-0.4
			c-0.3,0-1-0.7-0.6-1c0.6-0.2,1.6,0.3,1.2-1.3l0.2,0c0-0.1,0-0.1,0-0.2c-0.6-1.8-2.5-1.5-3-1.2c-0.5,0.2-4,0.2-4.3,0.2
			c-0.3,0-2.3,0.8-2.9,1.2c0,0-0.1,0-0.1,0.1l0,0c0,0,0,0,0,0c-0.6,0.3-1.8,0.7-2,0.9c-0.3,0.2-1.8-0.3-2.4,0.1
			c-0.6,0.4-1.2,1-1.5,1.2c-0.1,0-0.1,0.1-0.2,0.1c-0.1,0-0.2,0.1-0.3,0.1c-0.3,0.1-0.8,0.7-1.1,1.8c-0.4,1.2,0,2.2-0.6,2.7
			c-0.5,0.3-1.3,0.6-2,1c-0.4,0.2-0.8,0.5-1.1,0.8c-0.6,0.7-1,3.2-1.7,4.3c-0.7,1.1,0,2.1,0.1,2.7c0.1,0.7,0.6,1.9-0.1,3.1
			c-0.6,1-0.7,1.5-0.9,1.7c0,0,0,0,0,0c-0.1,0-0.1,0-0.1,0.1c0,0,0,0,0,0c-0.3,0.1,0.4,0.4,0.5,1.2c0.1,0.8-0.6,1.7,0.7,2.4
			c1.3,0.7,2.6,0.8,2.9,1.8c0.4,1,1.5,3.3,1.5,3.3s1.3,1.3,1.9,1.9c0.4,0.4,0.6,0.4,0.8,0.2c0.1,0,0.2-0.1,0.2-0.3l-0.1,0
			c0-0.1,0-0.1,0.1-0.2c0.1-0.6,1-0.7,2-0.7c1,0,1.7,0.3,2.7,0.1c0.3,0,0.5-0.2,0.7-0.4c0.6-0.4,1.1-1.2,1.3-1.4
			c0.4-0.2,1.8-0.4,2.7,0.3c0.9,0.7,0.8,1.6,1.3,2.2c0.5,0.6,1.3,0.2,2-0.3c0.6-0.6,0.3-0.3,1.1,0.2c0.8,0.5,1.1,1,0.4,1.7
			c-0.7,0.7-0.3,1.9-0.7,3.1c-0.4,1.2,0.4,1.2,1.2,1.7c0.8,0.5,1.4,3.7,1.8,4.3c0.4,0.6-0.1,2.2,0.4,3.2c0.5,1,0.7,1.6,0.2,2.1
			c-0.6,0.5-1.3,1.5-1.3,3.1c-0.1,1.7,0.3,2.8,0.6,3.4c0.3,0.6,1,2.2,1.3,2.7c0.4,0.6,1.6,1.7,1.6,2.6c0.1,0.9-0.9,2.3-0.6,2.8
			c0.3,0.5,0.6,1.2,1.2,1.9c0.6,0.7,0.8,2.1,0.8,2.1s0.2,0.6,0.3,1.5c0.1,0.9,0.1,1.5,0.8,1.9c0.7,0.4,1.2,0.5,1.5,0.1
			c0.4-0.4,1.8-1.2,2.8-1.1c0.8,0.1,2,0.2,2.9-0.4c0.1-0.1,0.3-0.1,0.4-0.2c0.2-0.2,0.4-0.4,0.6-0.6l-0.1,0c0.3-0.3,0.6-0.7,0.9-1.1
			h0.1c0.5-0.7,1-1.3,1.2-1.6c0,0,0,0,0,0l-0.1,0c0.3-0.3,0.6-0.7,0.9-1.1l0.1,0c0.3-0.4,0.6-0.9,0.5-1.2c0-0.1-0.1-0.3-0.1-0.4
			l-0.2,0c-0.2-0.4-0.4-0.8-0.4-1.1l0.1,0c0-0.2,0-0.4,0.1-0.5c0.5-0.2,1.7-0.5,2.2-0.8c0.2-0.1,0.3-0.2,0.4-0.3c0,0,0,0,0,0l-0.1,0
			c0-0.2-0.1-0.6-0.2-1.1l0.2,0c-0.1-0.6-0.3-1.3-0.4-1.6h-0.2c0-0.1,0-0.1,0-0.1c-0.1-0.2,0-0.6,0.3-1h0.1c0.2-0.3,0.4-0.7,0.7-1.1
			c0.1-0.2,0.3-0.3,0.4-0.5l-0.1,0c0.4-0.4,0.9-0.8,1.2-1.1l0,0c0.2-0.2,0.4-0.4,0.5-0.5c0.2-0.2,0.6-0.6,1-1.2l-0.1,0
			c0.2-0.3,0.4-0.7,0.5-1.1l0.1,0c0-0.1,0-0.1,0.1-0.2c0.1-0.5,0-1,0-1.4l-0.1,0c0-0.4-0.1-0.8,0-1.1l0.1,0c0-0.2,0-0.3,0.1-0.5
			c0.2-0.4,0.1-0.8-0.1-1.2l-0.2,0c-0.1-0.2-0.2-0.3-0.4-0.5c-0.2-0.2-0.3-0.4-0.4-0.6l0.2,0c-0.2-0.5-0.3-1.2-0.4-1.6h-0.2
			c0-0.1-0.1-0.2-0.1-0.3c-0.1-0.1-0.1-0.4,0-0.8l0.1,0c0-0.5,0.2-1.2,0.3-1.6l-0.1,0c0.1-0.1,0.1-0.2,0.2-0.2
			c0.2-0.1,0.5-0.4,0.8-0.9l0.1,0c0.4-0.5,0.8-1.2,1.1-1.6l-0.1,0c0,0,0,0,0-0.1c0.2-0.2,0.4-0.6,0.8-1l0.1,0
			c0.4-0.5,0.9-1.2,1.4-1.6h0c0.3-0.3,0.6-0.5,0.8-0.6c0.3-0.1,0.6-0.3,0.9-0.5l0,0c0.6-0.5,1.1-1.1,1.2-1.6l-0.1,0c0,0,0,0,0-0.1
			c0-0.2,0.2-0.6,0.4-1h0.1c0.3-0.5,0.6-1.1,1-1.6l-0.1,0c0.3-0.4,0.5-0.8,0.6-1.1l0.1,0c0.1-0.2,0.2-0.4,0.2-0.5
			c0-0.2,0.2-0.7,0.3-1.2l-0.1,0c0.1-0.4,0.2-0.8,0.3-1.1l0.1,0c0.1-0.4,0.1-0.8,0-1c-0.4-0.5-3.1,0.8-3.4,0.9c0,0-0.1,0-0.1,0.1
			l0,0c0,0,0,0-0.1,0c-0.4,0.2-1.3,0.8-2.5,0.7c-0.6,0-0.7-0.4-0.7-0.8l0.1,0c0-0.3,0.1-0.7,0-1c0-0.1-0.1-0.4-0.3-0.7l-0.2,0
			c-0.2-0.4-0.4-0.8-0.7-1.1l0.2,0c-0.3-0.4-0.5-0.7-0.6-0.7c-0.2,0-0.5-0.4-0.9-0.9l-0.2,0c-0.2-0.3-0.4-0.7-0.5-1.1c0,0,0,0,0,0
			l0.2,0c0,0,0,0,0-0.1c-0.2-0.6-0.9-1.1-1.5-1.6l-0.2,0c-0.3-0.2-0.6-0.5-0.8-0.7c-0.1-0.1-0.1-0.2-0.2-0.4l0.2,0
			c-0.1-0.4-0.1-1-0.1-1.6l-0.1,0c0-0.4,0-0.7,0-1.1l0.1,0c0-0.5-0.1-0.9-0.2-1.2c-0.1-0.1-0.1-0.3-0.2-0.4h-0.2
			c-0.2-0.4-0.3-0.7-0.5-1.1l0.2,0c-0.2-0.6-0.4-1.1-0.7-1.6l-0.2,0c-0.1-0.2-0.1-0.3-0.2-0.5c-0.1-0.2-0.2-0.4-0.3-0.6l0.2,0
			c0-0.1-0.1-0.1-0.1-0.2c0.6-0.2,1.5-0.5,1.6,0c0.1,0.6,0.9,1.8,1.1,2.7c0.1,0.9,0.9,0.6,1,1.4c0.1,0.8,0.8,2.8,1.1,3.1
			c0.3,0.3,1.5,1.6,1.8,2.1c0.2,0.5,0.5,1.2,0.7,2.4c0.2,1.2,0.4,2.9,1,3.2c0.6,0.2,2.5-0.4,2.8-0.7c0.4-0.3,2.7-1.6,3.5-1.7
			c0.8-0.1,1-0.7,2-1c0.3-0.1,0.6-0.2,0.9-0.4c0.7-0.4,1.2-1,1.8-1.5c0,0,0.1-0.1,0.1-0.1l-0.1,0c0.3-0.3,0.5-0.7,0.8-1.1l0.1,0
			c0.4-0.6,0.7-1.3,0.9-1.6l-0.1,0c0.2-0.4,0.6-0.7,0.7-1.1h0.1c0.1-0.2,0.1-0.4,0-0.6c-0.2-0.3-0.6-0.7-1-1l-0.2,0
			c-0.5-0.3-1-0.6-1.3-0.7c-0.2,0-0.3-0.2-0.4-0.4l0.2,0c-0.2-0.3-0.2-0.8-0.4-0.8c-0.1,0-0.1,0-0.2,0.1c-0.3,0.1-0.3,0.6-0.9,1
			c-0.4,0.2-0.8,0.6-1.1,0.8c-0.2,0.1-0.4,0.2-0.6,0.2c-0.1,0-0.2-0.1-0.2-0.2l-0.1,0c0-0.2,0.1-0.6-0.4-1.1c0,0,0,0,0,0h0.2
			c0,0,0,0-0.1-0.1c-0.8-0.7-1.1-0.9-1.1-1.5c0,0,0-0.1,0-0.1l-0.2,0c-0.1-0.3-0.5-0.7-0.8-1.1l0.2,0c-0.4-0.4-0.8-0.9-0.9-1.3
			c0-0.1,0-0.2,0-0.3l-0.1,0c0.2-0.7,1.1-1.4,1.4-0.8c0.4,0.7,0.6,1.9,1.5,2.4c0.9,0.5,1.8,1.3,2.2,1.5c0.4,0.2,1.5-0.9,1.8-0.7
			c0.4,0.2,1.1,1.7,1.7,1.9c0.6,0.2,2.7,0.3,3.1,0.3c0.3,0,1.6,0.1,2-0.3c0.1-0.1,0.2-0.1,0.2-0.2c0.1-0.2,0.2-0.3,0.3-0.4
			c0.1,0,0.3-0.1,0.4-0.1c0.4,0,1,1.5,1.5,1.7c0.5,0.2,1.4,0.1,1.3,1.2c-0.1,1.1,0.4,2,0.9,2.1c0.2,0,0.4-0.1,0.6-0.3
			c0,0,0.1,0,0.1-0.1l0,0c0.5-0.4,0.9-0.9,0.9-0.9s0,2.1-0.1,2.8c-0.1,0.7,0.8,3.5,0.8,3.5s1.1,2.6,1.3,3.2c0.3,0.6,1.5,2.3,1.5,3.1
			c0,0.7,0.1,1.9,0.6,1.9c0.2,0,0.5-0.4,0.7-0.9l0.1,0c0.2-0.4,0.4-0.9,0.7-1.3c0.1-0.1,0.1-0.2,0.2-0.3h-0.1
			c0.2-0.4,0.4-0.7,0.6-1.1l0.1,0c0.2-0.3,0.3-0.6,0.4-1c0-0.2,0.1-0.4,0.1-0.7l-0.1,0c0-0.3,0-0.7-0.1-1.1l0.1,0
			c-0.1-0.6-0.2-1.3-0.2-1.6c0,0,0-0.1,0-0.1l-0.1,0c0.1-0.5,0.5-1,1.4-1.4c0.1-0.1,0.2-0.1,0.4-0.2c0.4-0.3,0.8-0.7,1.1-1.1l-0.1,0
			c0.3-0.4,0.6-0.8,0.9-1.1h0c0.1-0.1,0.2-0.2,0.3-0.3c0.4-0.4,0.6-0.9,1-1.3l-0.1,0c0.3-0.3,0.7-0.6,1.4-0.6c1.7,0,1.5,0,2-0.5
			c0,0,0,0,0,0l0.1,0c0,0,0,0,0-0.1c0.1-0.1,0.2-0.3,0.4-0.4c0.2-0.1,0.4,0,0.6,0.5c0.2,0.9,1.4,2.2,1.6,2.6
			c0.2,0.3,0.6,1.2,0.6,2.2c-0.1,1-0.4,3.7-0.1,3.7c0.1,0,0.2-0.2,0.4-0.4l0.1,0c0.2-0.4,0.6-1.1,0.8-1.6l-0.1,0
			c0.2-0.5,0.4-0.9,0.4-0.9s0.1-0.1,0.3-0.2l0,0c0,0,0,0,0,0c0.4-0.3,1.2-0.7,1.2,0.3c-0.1,1.3,0.1,2.7,0.1,3.6
			c0,0.8,1.3,2.8,1.3,2.3c0-0.2,0.1-0.4,0.1-0.7l0.1,0c0.1-0.5,0.3-1.1,0.4-1.6l-0.1,0c0-0.1,0-0.2,0-0.3c0-0.7,0.3-0.4,1.3,0.3
			c0.9,0.7,1.5,2.2,1.5,2.2s0.9,2.8,1,3.2c0.1,0.2,0.4-0.4,0.8-1.1l0.1,0c0.3-0.6,0.6-1.2,0.7-1.5c0-0.1,0.1-0.1,0.1-0.2h-0.1
			c0.2-0.3,0.3-0.5,0.8-0.7c0.4-0.1,0.8-0.2,1.1-0.4l0,0c0.2-0.1,0.4-0.4,0.4-0.7c0.1-0.3,0.2-0.6,0.3-0.9l-0.1,0
			c0.1-0.3,0.1-0.7,0.1-1.1l0.1,0c0-0.4-0.1-0.8-0.4-1.2c-0.1-0.2-0.2-0.3-0.3-0.4l-0.2,0c-0.3-0.4-0.5-0.8-0.7-1.1l0.2,0
			c-0.3-0.5-0.6-0.8-0.9-1.1c-0.1-0.1-0.3-0.3-0.4-0.5l-0.2,0c-0.2-0.4-0.4-0.8-0.5-1.1l0.2,0c-0.1-0.3-0.2-0.5-0.2-0.5
			s0.6-0.6,1.1-1.2l-0.1,0c0.2-0.3,0.5-0.5,0.6-0.7c0.4-0.5,1.1-0.2,1.1,0.4c0.1,0.6-0.6,1.1-0.8,2.3c-0.1,1.2,0.8,1.7,1.1,1.2
			c0,0,0.1,0,0.1-0.1c0.1-0.1,0.2-0.3,0.3-0.5l-0.1,0c0.3-0.4,0.6-0.9,0.6-1.1c0,0,0,0,0,0l0.1,0c0,0,0,0,0-0.1
			c0-0.2-0.5-0.2-0.6-1.1c0-0.2,0-0.4,0.1-0.5l-0.1,0c0.3-0.6,0.9-0.9,1.2-0.7c0.4,0.2,2.6-0.3,3.7-1c0,0,0,0,0.1,0c0,0,0,0,0.1,0
			c0.4-0.2,0.7-0.6,1-0.9l-0.1,0c0.3-0.4,0.6-0.8,0.8-1.1l0.1,0c0.2-0.3,0.4-0.5,0.5-0.6c0.2-0.2,0.6-0.6,1.1-1l0,0
			c0.3-0.3,0.7-0.7,1-1.1h0.1c0.4-0.5,0.7-1,0.6-1.3c0-0.1,0-0.2,0-0.3l-0.1,0c0-0.3,0-0.7,0-1.1l0.1,0c0-0.5-0.1-1.1-0.3-1.6h-0.2
			c0-0.1,0-0.1-0.1-0.2c-0.2-0.4-0.4-0.7-0.5-0.9h0.2c-0.4-0.7-0.9-1.2-1.1-1.6c0,0,0-0.1,0-0.1l-0.1,0c0.1-0.3,1.2-0.5,1.9-1.1l0,0
			c0.1,0,0.1-0.1,0.2-0.1c0.7-0.7,0-1.4-0.3-1.3c-0.4,0.1-1.3,0.3-1.6,0.2c-0.2,0-0.4-0.2-0.6-0.4h-0.2c-0.1-0.1-0.3-0.3-0.5-0.5
			c-0.2-0.2-19.9,7.9-19.8,7.7l19.7-8.3c0-0.2,0.2-0.4,0.3-0.5c0.1,0,0.2-0.1,0.2,0c0.1,0,0.4-0.1,0.6-0.3c0.3-0.2,0.7-0.5,0.9-0.8
			l0,0c0.1-0.1,0.1-0.1,0.2-0.2c0.4-0.4,1.1-0.7,0.8-0.3c-0.2,0.4-0.7,1.9-0.1,2c0.2,0,0.6-0.2,0.9-0.4c0.3-0.2,0.7-0.5,0.9-0.7
			c0.1-0.1,0.2-0.1,0.2-0.1c0.2,0.1,0.6,1.2,0.4,1.7c-0.2,0.5-0.2,1.3,0.1,1.2c0.1,0,0.2-0.1,0.3-0.2c0.1-0.1,0.3-0.2,0.4-0.3h0
			c0.1-0.1,0.3-0.2,0.3-0.1c0.1,0.3,0.8,0.7,0.5,1.7c-0.4,0.9-1.1,1.2-0.2,1.8c0.6,0.4,0.9,0.3,1.2,0c0.2-0.1,0.4-0.3,0.7-0.5
			c0.1-0.1,0.2-0.1,0.3-0.3l-0.1,0c0.2-0.3,0.3-0.7,0.4-1.1l0.1,0c0.1-0.6,0.2-1.2,0-1.5c0-0.1-0.1-0.1-0.1-0.2l-0.2,0
			c-0.2-0.3-0.5-0.7-0.7-1.1l0.2,0c-0.2-0.4-0.4-0.7-0.4-0.9c0-0.1,0-0.1,0.1-0.2c0.3-0.1,0.7-0.2,1-0.5c0.1,0,0.1-0.1,0.2-0.1
			l-0.1,0c0-0.1,0.1-0.2,0.1-0.2c0-0.3,0.1-0.6,0.3-0.9l0.1,0c0.2-0.3,0.5-0.5,0.7-0.6c0.3-0.2,0.7-0.7,1-0.9c0.1,0,0.1,0,0.2,0
			c0.2,0.3,1.3,0.7,1.7,0.3c0.1,0,0.2-0.1,0.2-0.2c0-0.1,0.1-0.1,0.2-0.3l-0.1,0c0.3-0.3,0.6-0.7,1-1.1h0c0.5-0.5,1.2-1.2,1.7-1.6
			l0,0c0.1-0.1,0.2-0.2,0.3-0.2c0.3-0.3,0.6-0.6,0.8-0.9l0.1,0c0.4-0.5,0.7-1.1,0.9-1.6l-0.1,0c0.1-0.3,0.2-0.5,0.2-0.8
			c0-0.1,0.1-0.2,0.1-0.3l0.1,0c0.2-0.6,0.4-1.2,0.5-1.6l-0.1,0c0.1-0.3,0.1-0.6,0-0.9c0-0.1,0-0.1,0-0.2l0,0c0,0.1,0,0.1,0,0.2
			c0.4,1.2,0.5,2,0.4,2.9c-0.1,0.9,0,2.8,0.1,3.1c0.1,0.2,0.7,0.8,1.1,0.7c0,0,0-0.1,0.1-0.1c0,0,0,0,0.1,0c0.1,0,0.1-0.1,0.1-0.2
			l-0.1,0c0-0.3,0-0.7-0.1-1.1l0.1,0c-0.1-0.4-0.2-0.8-0.2-0.9c0-0.2,0.3-0.6,0.5-0.7c0,0,0.1-0.1,0.1-0.1c0.2,0,0.1-0.5,0-1h0.2
			c-0.1-0.4-0.2-0.9-0.4-1.1c-0.1-0.2-0.2-0.4-0.4-0.5l-0.2,0c-0.2-0.2-0.3-0.4-0.1-0.4c0.2-0.1,0.4-0.4,0.5-0.7l0.1,0
			c0-0.1,0-0.3,0-0.3c-0.2-0.2-0.1-0.7-0.6-0.6c-0.3,0.1-0.9,0-1.2,0.3c-0.1,0-0.2,0.1-0.2,0.2c-0.2-0.6-0.6-1-1.1-0.9
			c-0.6,0.1-1,0.5-1.6,0.5c-0.4,0-0.4-0.4-0.3-0.7l-0.1,0c0-0.2,0-0.3-0.1-0.3c-0.1,0-0.4,0.3-0.7,0.5c-0.2,0.1-0.3,0.1-0.5-0.1
			c0,0,0-0.1,0-0.1l-0.2,0c0-0.6,1.1-1.2,2.1-1.6c0.1-0.1,0.3-0.1,0.4-0.2c0.3-0.2,0.7-0.6,1.1-0.9l0,0c0.4-0.4,0.8-0.8,1.1-1.1l0,0
			c0.2-0.2,0.4-0.4,0.6-0.5c0.1-0.1,0.2-0.1,0.3-0.1c0.7-0.1,2.5,0.2,4,0.1c1.5-0.1,2-0.8,2.5-0.4c0.5,0.4,1.5,0.9,2.2,0.8
			c0.3,0,0.4,0,0.6-0.2c0.2-0.1,0.3-0.2,0.9-0.7c0.3-0.2,0.5-0.4,0.8-0.6l0,0c0.6-0.4,1-0.7,1.4-1.1l0.1,0c0.1-0.1,0.2-0.2,0.2-0.2
			c0.1-0.2,0.3-0.3,0.4-0.4c0.6-0.4,1.3-0.5,1.3,0c0.1,0.7-0.1,1.3,0.4,1.3c0.6,0,1.4-0.7,2.1-1c0.4-0.2,0.8-0.4,1-0.6
			c0.1-0.1,0.2-0.1,0.2-0.1c-0.2,0.2-2.7,2.2-3.5,2.7c-0.5,0.3-1.4,0.6-2.1,1l0,0c-0.4,0.2-0.8,0.5-1,0.8c-0.7,1-1.1,1.3-1.1,2.4
			c0.1,1.1,1.3,2.5,0.7,3.5c-0.6,1-0.8,2.4-0.8,2.4s0.3-0.4,0.7-0.9l0.1,0c0.4-0.5,0.9-1,1.4-1.5c0.1-0.1,0.1-0.1,0.2-0.2l-0.1,0
			c0.4-0.4,0.8-0.7,1.1-1.1h0.1c0.5-0.6,0.8-1.1,1-1.4c0.1-0.1,0.2-0.1,0.3-0.2c0.5-0.3,1.3-0.4,1.3-0.9c0-0.1,0-0.2,0-0.3h0.1
			c0.1-0.5,0.3-1.1,0.5-1.6l-0.1,0c0,0,0-0.1,0-0.1c0.2-0.6-0.2-0.5-0.1-1h0.1c0-0.1,0-0.2,0.1-0.4c0.2-0.5,0.3-0.9,0.8-1.2
			C283.2,31,283.7,30.9,284.4,30.9z M192,45.5c-0.4,0.2-1.5,0.4-1.8-0.1c-0.2-0.3-0.6-0.2-0.9,0c-0.3,0.2-0.6,0.6-0.7,1.1
			c-0.1,0.9,0.3,0.2,0.7,0.6c0.4,0.3,0.6,0.8,0.8,1.3c0.3,0.5,0.8,0.3,1.1,0.7c0.4,0.4-1,0.9-0.4,1.4c0.6,0.5,0.8,2.5,0.9,3
			c0,0.1-0.1,0.2-0.2,0.3c-0.5,0.2-1.4,0.4-1.7,0.3c-0.5-0.1-2-0.7-2.5-0.8c-0.1,0-0.2-0.2-0.3-0.3l-0.2,0c-0.1-0.3-0.2-0.7-0.2-1.1
			l0.1,0c0-0.3,0-0.5,0.1-0.6c0,0,0.1,0,0.1,0c0.3,0,0.5,0,0.8-0.2c0.2-0.1,0.4-0.4,0.8-0.8c0,0,0,0,0,0l-0.1,0
			c0.4-0.6-0.8-0.9-1.4-1.1l0.4,0c-0.2-0.1-0.4-0.1-0.5-0.1c-0.3-0.1-0.8-0.8-1.2-1.5l-0.2,0c-0.2-0.4-0.5-0.8-0.6-1
			c0,0,0-0.1,0-0.1l0.2,0c-0.3-0.4-0.2-1.1,0.3-1.6l0,0c0.1-0.1,0.2-0.3,0.4-0.4c0.4-0.3,1.5,0.4,2.1,0c0.3-0.2,0.6-0.5,0.9-0.7l0,0
			c0.2-0.2,0.4-0.3,0.5-0.4c0.3-0.1,1.6,0.3,1.8,0.8C191.5,44.5,192.3,45.3,192,45.5z M170.1,49.2l0.1,0c0-0.3,0-0.7-0.2-0.7
			c-0.3-0.1-0.1-0.5,0.1-0.9l-0.1,0c0.1-0.2,0.3-0.4,0.4-0.5c0.2-0.1,0.3-0.3,0.5-0.6l0.1,0c0.3-0.4,0.6-0.9,0.9-1.5
			c0-0.1,0.1-0.1,0.1-0.2l-0.1,0c0.4-0.6,0.9-0.7,1.2-0.6c0.4,0.1,1.1,1.6,1.3,2.1c0.1,0.3,0.5,0.1,0.8-0.1c0.2-0.1,0.4-0.3,0.5-0.3
			c0.3-0.2,0.7-0.7,0.8-1.1c0,0,0,0,0,0l-0.1,0c0.1-0.4,0.7-0.6,1.4-0.6c0.5,0,0.3,0.3,0,0.6c-0.1,0.1-0.2,0.1-0.3,0.1
			c-0.1,0-0.2,0.1-0.2,0.1c-0.4,0.2-0.1,0.5,0.7,0.8c0.8,0.3,1.6,1.2,2.5,1.8c0.9,0.6,1.1,1.7,0.5,1.9c-0.6,0.2-2.2,0.3-2.9,0.2
			c-0.4-0.1-0.9-0.4-1.5-0.7l0.3,0c-0.3-0.2-0.7-0.3-1-0.4c-0.7-0.1-1.5-0.1-2,0.2c-0.2,0.1-0.4,0.2-0.5,0.4
			c-0.4,0.6-1.6,0.3-2.2,0.3c-0.6,0-1.3,0.8-1.4,0.5C169.9,50.2,170,49.6,170.1,49.2z M173.4,90.3c0-0.2,0.1-0.4,0.1-0.5
			c0,0,0.1-0.1,0.1-0.1c0.4-0.2,1.2-0.2,1.4,0c0.3,0.6-0.4,2.1-1,2.5c-0.1,0-0.2,0-0.2,0c-0.3-0.1-0.4-0.5-0.4-0.9l-0.1,0
			c0-0.4,0-0.8,0.1-1.1L173.4,90.3z M173.3,31.1c-0.6-0.1-1.2-0.5-1-1c0,0,0-0.1,0.1-0.1h0.1c0-0.1,0.1-0.2,0.2-0.3
			c0.7-0.3,2,0.7,1.7,1.2c0,0.1-0.1,0.1-0.2,0.2L173.3,31.1z"/>
		<path fill="#FFFFFF" d="M231.7,13.5l0.1,0c0.1-0.3-0.1-0.4-0.1-0.1c-0.1-0.1-0.3,0-0.1,0.4C231.6,13.7,231.7,13.6,231.7,13.5z"/>
		<path fill="#FFFFFF" d="M189.6,20c0.4,0.2,1.3,0.2,2.1,0.7c0.7,0.5,1.7,0.7,2.2,0.2c0.1-0.1,0.2-0.1,0.3-0.2
			c0.2-0.2,0.2-0.4,0.2-0.7l-0.1,0c-0.1-0.3-0.3-0.6-0.4-0.7c-0.2,0-0.3-0.2-0.3-0.4l0.1,0c0-0.3,0.1-0.6,0.6-1
			c0.2-0.1,0.5-0.3,0.7-0.4c0.7-0.4,1.4-0.9,2.1-1c1.1-0.2,3.4-0.2,4.3,0c0.3,0.1,0.8-0.1,1.2-0.3l0,0c0.6-0.4,1.2-1,1.4-1.4
			c0.1-0.1,0.1-0.2,0-0.2l-0.2,0c-0.2-0.4-1.2-0.5-1.5,0c0,0-0.1,0.1-0.1,0.1c-0.7,0.4-2.3,0.3-2.6,0.1c-0.4-0.2-3.8,0.7-4.5,0.7
			c-0.2,0-0.3,0.1-0.5,0.2c-0.5,0.3-0.8,1-1.6,1.4c-0.2,0.1-0.3,0.2-0.5,0.3l0,0c-0.9,0.5-1.8,1-2.2,1.2c0,0,0,0-0.1,0.1
			c0,0,0,0-0.1,0C189.6,18.9,189.1,19.9,189.6,20z"/>
		<path fill="#FFFFFF" d="M261.4,53.7C261.4,53.7,261.4,53.7,261.4,53.7c-0.2,0-1.1,0.4-1.7,0.8c-0.3,0.2-0.5,0.3-0.6,0.5
			c-0.4,0.5-2.5-0.4-2.7,0c-0.3,0.4-0.8,0.9-1.2,1.2c-0.3,0.1-0.6,0.1-0.8,0.3c-0.2,0.1-0.4,0.3-0.3,0.7c0.2,1,0.7,1.9,1.1,1.9
			c0.2,0,0.3-0.1,0.5-0.2c0.2-0.1,0.4-0.3,0.5-0.6l-0.1,0c0-0.1,0.1-0.3,0.1-0.5c0-0.9,1,0,1.5-0.1c0.3,0,0.5-0.2,0.6-0.5h0.1
			c0.1-0.2,0.2-0.4,0.3-0.7c0,0.2,0.2,0.4,0.5,0.5c0.4,0.1,0.7,0,0.8-0.1c0.3-0.2,0.4-0.5,0.4-0.6c0,0,0-0.1,0.1-0.1
			c0.4-0.2,1.4-0.5,1.6-0.7c0.3-0.2,1.3-0.6,1.4-0.9l0.1,0c0,0,0.1-0.1,0.1-0.1c0-0.2,0-0.9,0.1-1.5l-0.1,0c0-0.4,0.1-0.8,0.3-0.8
			c0.2-0.1,0.4-0.1,0.5-0.3l0.1,0c0.2-0.1,0.2-0.4-0.1-1.1c-0.1-0.2-0.2-0.3-0.2-0.5l-0.2,0c-0.2-0.5-0.3-0.9-0.4-1.1l0.2,0
			c-0.1-0.3-0.3-0.4-0.6-0.1c0,0,0,0,0,0c0,0-0.1,0-0.1,0.1c-0.5,0.4-0.2,1.8-0.6,2.8C261.9,52.7,261.6,53.5,261.4,53.7z"/>
		<path fill="#FFFFFF" d="M241.8,98.4c0.1,0,0.2-0.1,0.2-0.2c0.1-0.5-0.8-1.2-1.1-1.2c-0.1,0-0.3,0-0.6-0.1l-0.5,0
			c-0.6-0.1-1.2-0.3-1.2-0.3c-0.3,0.1-0.6,0.2-0.8,0.4c0,0,0-0.1,0-0.1h-0.2c0,0,0,0-0.1-0.1c-0.8-0.5-1.7,0-2-0.7
			c-0.1-0.2-0.1-0.3-0.2-0.4l0.2,0c-0.2-0.3-0.5-0.3-0.7-0.1c-0.1,0-0.2,0.1-0.3,0.2c-0.5,0.8,0.1,1.3,0.4,1.5
			c0.2,0.2,1,0.3,1.7,0.2c0.4,0,0.9-0.2,1.1-0.3c0,0,0,0,0.1,0c0,0.1,0.1,0.2,0.2,0.3c0.6,0.6,0.9,0.8,1.8,0.7
			C240.4,98.2,241.5,98.7,241.8,98.4z"/>
		<path fill="#FFFFFF" d="M245.5,99.3c-0.1,0.6,0.7,0.9,1,0.6c0.1,0,0.2-0.1,0.2-0.3l-0.1,0c0,0,0,0,0-0.1
			C246.7,98.7,245.6,98.6,245.5,99.3z"/>
		<path fill="#FFFFFF" d="M245.4,93.8c0.4,0.3,1-0.4,1.4-0.8l0,0c0,0,0.1-0.1,0.1-0.1c0.1-0.1,0.3-0.1,0.3,0.1
			c0.3,0.6-0.1,0.8,0.4,1.6c0.5,0.7,1.4,0.7,1.4,0.7s0,0,0-0.1c0.1,0,0.1,0,0.1,0s0-0.5-0.1-1l-0.1,0c-0.1-0.4-0.2-0.8-0.4-1.1
			l0.2,0c-0.1-0.2-0.2-0.3-0.3-0.4c-0.5-0.3-0.9-0.7-0.8-0.8c0.1,0,0.2,0,0.4,0c0.5,0.1,0.9,0,1.1-0.2c0.1-0.1,0.2-0.2,0.3-0.3
			l-0.1,0c0-0.1,0-0.2,0-0.3c-0.2-0.5-1.5-0.2-2-0.2c-0.4,0.1-1.1-0.3-1.1-0.3c-0.4,0.2-0.3,0.6-0.5,1.4
			C245.5,92.8,244.8,93.4,245.4,93.8z"/>
		<path fill="#FFFFFF" d="M253.7,87.7c-0.6-0.3-1.8,2.7-1,3c0.2,0.1,0.5-0.1,0.6-0.4l0.1,0c0.3-0.4,0.5-1.1,0.5-1.6l-0.1,0
			C253.9,88.2,253.9,87.8,253.7,87.7z"/>
		<path fill="#FFFFFF" d="M242.3,85.2c-1.3,0-1.4,1.2-1.7,1.5c0,0-0.1,0.1-0.1,0.1c-0.2,0.1-0.5,0.2-0.9,0.3c-0.1,0-0.2,0.1-0.3,0.2
			c-0.4,0.3-0.5,0.8-0.6,1.1c-0.1,0.4-1.1-0.7-1.4-0.4c-0.3,0.3-0.1,1.9,0.4,3.2c0.5,1.3,1.8,2.2,2.1,2.2c0.4,0,1.1,0,1.6,0.2
			c0.5,0.2,2.1,0.3,2-0.4c0,0,0-0.1,0-0.1l0.1,0c0-0.5-0.1-1.1,0-1.6l-0.1,0c0.1-0.3,0.2-0.6,0.5-0.9c0.1-0.1,0.1-0.1,0.2-0.2l0,0
			c0.5-0.6,1-1,1-1.6H245c0-0.1,0-0.3-0.1-0.4c-0.1-0.3-0.2-0.5-0.3-0.7l0.2,0c-0.3-0.7-0.7-1.2-0.3-1.6c0,0,0,0,0,0l0,0
			c0.5-0.4,0.9-0.6,0.9-1c0-0.3-0.6,0.4-1-0.1l0.2,0c-0.2-0.2-0.4-0.6-0.4-1.5c0,0,0-0.1,0-0.1l-0.2,0c-0.1,0-0.1,0-0.2,0l0,0
			c0,0-0.1,0-0.1,0.1c-0.3,0.2-0.7,0.5-0.7,0.9C242.8,84.7,243.6,85.2,242.3,85.2z"/>
		<path fill="#FFFFFF" d="M245.8,74.9c0.4,1,1.9,1.7,1.5,2.2c-0.3,0.4-1.4,1.2-1.5,2c0,0.2,0.1,0.2,0.3,0c0.3-0.2,1-0.9,1.5-1.4
			l-0.1,0c0.2-0.2,0.3-0.4,0.4-0.5c0.5-0.7,1.3-0.4,1.6-0.7c0.1,0,0.2-0.1,0.2-0.2c0.2-0.4,0.2-0.4,0.2-0.4s-0.8-0.2-1.4-0.4
			c-0.6-0.2-1.4,0.6-1.1-0.6l-0.1,0c0.2-0.6,0.5-0.9,0.7-1.1l0,0c0.4-0.3,0.7-0.5,0.6-1.1c-0.1-0.2-0.1-0.4-0.2-0.6l-0.2,0
			c-0.3-0.4-0.7-0.6-0.8-0.6c-0.5,0,0.1,0.9-0.6,1.5C246.2,73.7,245.4,73.9,245.8,74.9z"/>
		<path fill="#FFFFFF" d="M80.3,29.1c-0.1,0-0.2,0.1-0.2,0.1c-0.5,0.3,0.1,0.8,0.5,0.6c0,0,0.1-0.1,0.1-0.1c0,0,0,0,0,0
			C81.2,29.6,81,28.9,80.3,29.1z"/>
		<path fill="#FFFFFF" d="M235.1,14.6L235.1,14.6C235.1,14.6,235.1,14.6,235.1,14.6z"/>
		<path fill="#FFFFFF" d="M77.7,28.5c-0.1,0-0.2,0.1-0.3,0.2c-0.2,0.2,0.8,0.6,1,0.3c0.1,0,0.1-0.1,0.2-0.1
			C78.8,28.6,78.2,28.1,77.7,28.5z"/>
		<path fill="#FFFFFF" d="M95,43.7c0-0.1-0.1-0.1-0.2,0H95z"/>
		<path fill="#FFFFFF" d="M8.6,31.1c-0.1,0-0.2,0.1-0.4,0.2c0,0-0.1,0-0.1,0.1c0,0,0,0-0.1,0C7.8,31.4,8.6,32,8.8,32
			c0.1,0,0.1-0.1,0.2-0.1c0.2-0.1,0.5-0.6,0.3-0.8L8.6,31.1z"/>
		<path fill="#FFFFFF" d="M8.6,36.7c-0.3,0.1-0.3,0.8-0.6,1.1c0,0-0.1,0-0.1,0.1c-0.3,0.1-0.6,0.2-0.9,0.3l0,0
			c-0.4,0.2-0.7,0.4-0.3,0.5c0.6,0.2,1.8-0.1,2-0.3c0,0,0-0.1,0.1-0.2h0.1c0.1-0.4,0.2-1.5,0-1.6C8.8,36.6,8.7,36.6,8.6,36.7z"/>
		<path fill="#FFFFFF" d="M67.7,16c-0.2,0.1-0.3,0.2-0.4,0.3c-0.2,0.6,1.9,0.9,1.6,0.2c0-0.1-0.1-0.2-0.2-0.3l0.2,0
			C68.7,15.9,68.1,15.8,67.7,16z"/>
		<path fill="#FFFFFF" d="M60.6,15.2C60.6,15.2,60.6,15.2,60.6,15.2c-0.1,0-0.1,0.1-0.1,0.1c-0.4,0.4,0,1.5-0.1,1.6
			c-0.1,0.1,0,0.6,0.4,0.5c0.3-0.1,0.5-0.9,0.7-1.1h0.1c0,0,0,0,0.1-0.1l0,0c0.3,0,1.7-0.4,2,0.2c0.2,0.6,0.2,0.3,0.9,0.4
			c0.4,0,0.7-0.2,0.9-0.5h0.1c0.2-0.2,0.3-0.5,0.3-0.6c0-0.3-0.3-0.8-1.2-0.7C63.7,15.1,61,14.8,60.6,15.2z"/>
		<path fill="#FFFFFF" d="M66.1,17.9c-0.4-0.3-1.6-0.1-1.9,0.1c-0.3,0.2-1.3-0.3-1.8,0.1c0,0,0,0,0,0c0,0-0.1,0-0.1,0.1
			c-0.3,0.2-0.1,1.1,0.4,1.1c0.5,0.1,1.4-0.4,1.5-0.1c0.1,0.3,0.4,1.8,1.3,1.3c0,0,0.1-0.1,0.1-0.1c0,0,0,0,0,0
			c0.2-0.1,0.4-0.3,0.5-0.4l-0.1,0c0.3-0.3,0.3-0.5,0.4-0.5c0.1,0,0.1-0.3,0-0.6l0.1,0C66.5,18.6,66.3,18.1,66.1,17.9z"/>
		<path fill="#FFFFFF" d="M10.5,24.5l0.2,0c-0.1-0.1-0.1-0.1-0.1-0.1L10.5,24.5z"/>
		<path fill="#FFFFFF" d="M274.7,118.8c-0.1-0.3-0.2-0.7-0.4-1.1l0.2,0c-0.2-0.5-0.4-1.1-0.7-1.6l-0.2,0c-0.2-0.4-0.3-0.8-0.5-1.1
			l0.2,0c-0.2-0.4-0.4-0.8-0.6-1.1c-0.1-0.2-0.2-0.3-0.3-0.5l-0.2,0c-0.2-0.4-0.3-0.7-0.4-1.1l0.1,0c-0.2-0.6-0.3-1.2-0.3-1.6
			l-0.1,0c0-0.1,0-0.2,0-0.3c0-0.5-0.9-0.6-1.8-0.8l0.5,0c-0.6-0.1-1.3-0.3-1.6-0.5c-0.2-0.2-0.4-0.6-0.5-1.1l-0.2,0
			c-0.1-0.4-0.2-0.7-0.2-1.1l0.1,0c-0.1-0.4-0.2-0.8-0.3-1.1c-0.1-0.2-0.2-0.3-0.2-0.5h-0.2c-0.2-0.4-0.5-0.7-0.8-1.1l0.2,0
			c-0.2-0.3-0.5-0.6-0.8-1c-0.1-0.2-0.3-0.4-0.4-0.7l-0.2,0c-0.2-0.4-0.3-0.8-0.4-1.1l0.2,0c-0.2-0.6-0.4-1.1-0.5-1
			c0,0,0,0.1-0.1,0.1c0,0,0,0-0.1,0c-0.2,0.2-0.8,2.6-0.4,3.3c0.5,0.7-0.2,2.2-0.6,3.2c-0.2,0.7-0.7,0.3-1.3-0.1l0.2,0
			c-0.2-0.2-0.5-0.5-0.7-0.6c-0.5-0.4-1.2-0.7-1.7-1l-0.2,0c-0.1-0.1-0.3-0.2-0.4-0.3c-0.2-0.2-0.1-0.5,0-0.8h0.1
			c0.1-0.5,0.5-1.2,0.6-1.6l-0.1,0c0-0.1,0-0.2-0.1-0.3c-0.4-0.6-2.3-0.1-2.5-0.1c-0.2,0-0.4-0.5-0.7-0.7l0.2,0
			c-0.1-0.1-0.3-0.2-0.4-0.2c-0.1,0-0.1,0-0.1,0.1c-0.3,0-0.4,0.9-0.4,1.4c0-0.1-0.1-0.1-0.1-0.2l-0.2,0c-0.2-0.2-0.4-0.5-0.7-0.9
			c-0.6-0.7,0.1,0.5-0.6,1.2c-0.6,0.7-0.4,0.5-0.7,1.3c-0.2,0.7-0.8,0.6-1.3,0l0.2,0c-0.1-0.1-0.2-0.2-0.3-0.4
			c-0.4-0.6-0.8-0.5-1.1-0.3c-0.2,0.1-0.3,0.2-0.5,0.3c-0.4,0.2-0.8,1.6-1,2c-0.5,0.1-2.2-0.6-2.5-0.2c0,0,0,0,0,0
			c0,0-0.1,0-0.1,0.1c-0.4,0.4,0.1,3.1,0.1,3.4c0,0,0,0,0,0.1c-0.4,0.1-1.4,0.1-1.8,0.4c0,0-0.1,0-0.1,0h0c0,0,0,0-0.1,0
			c-0.5,0.4-1.3,0.2-1.8,0.2c-0.5,0-2.2,1.6-2.7,2c-0.6,0.4-1.5,1.9-1.2,2.3c0.3,0.4,1.8,1.4,1.4,1.6c-0.4,0.2-0.6,1.3,0.3,2.3
			c0.8,1,0.6,1.2,0.6,1.7c0.1,0.5,0.4,0.7,1,1.5c0.6,0.8-1,1.5-1.2,2c-0.2,0.5,0.5,1.2,0.9,1.7c0.4,0.4,1.5,0.2,2.1-0.1
			c0.2-0.1,0.5-0.2,0.7-0.4c0,0,0.1,0,0.1-0.1l0,0c0.4-0.3,0.7-0.5,1-0.6c0.4-0.1,2.8,0.7,2.8,0.7s0,0,0-0.1c0.1,0,0.1,0,0.1,0
			s0,0,0-0.1l-0.1,0c0-0.2,0.1-0.6,0.2-1.1l0.1,0c0.1-0.6,0.3-1.3,0.6-1.6c0,0,0,0,0,0l0,0c0.6-0.5,1.9,0,1.9,0s0.6-0.5,2.3-0.9
			c1.7-0.4,1,0.4,1.6,0.7c0.6,0.2,1.5,0.4,2,0.8c0.5,0.4,0,1.4-0.1,1.8c-0.1,0.4,1.2,0.2,1.3-0.2c0-0.2,0.1-0.4,0.3-0.6l0.1,0
			c0.2-0.2,0.4-0.5,0.8-0.7c0.6-0.3,0.1,0.8,0.3,1.5c0.3,0.7,0.7-1,0.7-0.2c0,0.2,0.2,0.5,0.3,0.7c0.1,0.2,1,0.3,1,1.2
			c0,0.8,0,1.3,0.2,1.5c0.2,0.2,1.3,0,1.8,1c0.3,0.5,0.5,0.5,0.7,0.3c0.2-0.1,0.4-0.5,0.6-0.8c0,0,0,0,0,0c0.4-0.1,1.1,0.3,1.4,0.6
			c0.1,0.1,0.3,0,0.6-0.2c0.2-0.1,0.3-0.2,0.5-0.4c0.3-0.2,0.6-0.4,0.9-0.5c1.1-0.3,0.9-0.2,1.2-0.7c0.1-0.2,0.2-0.4,0.3-0.7l0.1,0
			c0.2-0.5,0.3-1.1,0.6-1.6l-0.1,0c0.1-0.2,0.2-0.3,0.3-0.5c0.1-0.2,0.3-0.4,0.5-0.6l0,0c0.5-0.5,1.1-1.1,1.6-1.6l-0.1,0
			c0.3-0.4,0.6-0.7,0.7-1.1l0.1,0c0.1-0.2,0.1-0.4,0.1-0.6c0-0.3-0.1-0.7-0.2-1.1L274.7,118.8z"/>
		<path fill="#FFFFFF" d="M264.7,45.8c-0.1,0-0.2,0.1-0.3,0.2c-0.4,0.3-0.5,0.9-0.5,1.1c0,0.1-0.3,0.2-0.6,0.4l0,0
			c-0.1,0-0.1,0.1-0.2,0.1c0,0,0,0,0,0c0,0-0.1,0-0.1,0.1c-0.4,0.2-0.6,0.5-0.3,0.8c0.6,0.7,1.3,0.2,2.2,0.1c1-0.1,1.9-0.4,1.9-0.4
			s0.8,0,1.2-0.3c0.1-0.1,0.2-0.2,0.2-0.4h-0.1c0,0,0,0,0-0.1c-0.2-0.8-1.8-0.9-2-0.8c-0.1,0-0.2-0.1-0.3-0.2h0.2
			C265.5,46.2,265.1,45.6,264.7,45.8z"/>
		<path fill="#FFFFFF" d="M267.5,94.7c-0.1-0.1-0.3-0.4-0.4-0.6l-0.2,0c-0.3-0.4-0.6-0.9-1.2-1.1l0.4,0c-0.1-0.1-0.2-0.1-0.4-0.1
			c-1.1-0.3-1.3-0.7-2.5-1.3c-0.1-0.1-0.2-0.1-0.4-0.2l-0.4,0c-1.2-0.4-3-0.3-3.1,0c0,0,0,0,0,0c0,0,0,0,0,0l-0.2,0
			c-0.1-0.1-0.3-0.2-0.6-0.3c-0.8-0.3-1.5,0-1.7-0.6c0-0.1-0.1-0.1-0.1-0.2l0.2,0c-0.2-0.4-0.5-0.5-0.9-0.2
			c-0.2,0.1-0.3,0.2-0.5,0.4c-0.5,0.6-0.8,0.7,0.4,0.9c1.2,0.2,1.5,0.2,1.1,0.9c-0.5,0.7-0.8,1.5-0.4,1.6c0.4,0.1,1.7-0.3,1.8,0
			c0.1,0.3-0.3,0.4,1.1,0.7c1.4,0.2,1.7,0.8,2,1.2c0.2,0.3,0.8,1.1,0.7,1.3c0,0,0,0,0,0c-0.2,0-0.4,0.1-0.5,0.2
			c-0.4,0.2-0.7,0.7-0.4,0.8c0.4,0.1,1.7-0.2,1.8,0c0.1,0.2,0.8,1.8,1.5,1.7c0.1,0,0.2-0.1,0.3-0.2c0,0,0,0,0.1,0l0,0
			c0.3-0.2,0.5-0.7,0.7-1.1l0.1,0c0.2-0.3,0.3-0.6,0.4-0.8c0,0,0.1-0.1,0.1-0.1c0.5-0.3,1.5-0.4,1.7,0.3c0.1,0.7,0.6,1.5,1.4,2
			c0.8,0.5,1.7,0.9,1.9,0.6c0.1,0,0.2-0.1,0.2-0.1c0-0.1,0-0.4-0.1-0.8l-0.2,0c-0.1-0.4-0.3-0.8-0.5-1.1l0.2,0
			c-0.1-0.2-0.3-0.3-0.4-0.4c-0.3-0.1-0.8-0.7-1.2-1.3l-0.2,0c-0.2-0.3-0.3-0.7-0.3-0.9c0-0.1,0-0.1,0-0.2h0.1
			C268.6,95.3,267.9,95.1,267.5,94.7z"/>
		<path fill="#FFFFFF" d="M269.8,129.7L269.8,129.7c-0.2,0-0.5,0.2-0.9,0.4c0,0,0,0,0,0c-0.4,0.2-0.7,0.5-0.9,0.4
			c-0.4-0.1-1.1-0.4-1.1-0.4c0,0-0.1,0.1-0.1,0.1c0,0-0.1,0-0.1,0c-0.8,0.9,0.8,0.9,0.6,1.8c-0.2,0.9,1.1,0.6,1.4,0.4
			c0.2-0.1,0.5-0.6,0.7-1.1l0.1,0c0.3-0.6,0.5-1.3,0.4-1.5C269.9,129.8,269.9,129.8,269.8,129.7z"/>
		<path fill="#FFFFFF" d="M251,77.7l-0.3,0c-0.1,0-0.2-0.1-0.3-0.1c-0.3,0-1.2,1.7,0.1,1.7c0.2,0,0.4-0.1,0.5-0.2
			C251.7,78.8,251.6,78,251,77.7z"/>
		<path fill="#FFFFFF" d="M245.3,84.8l0.2,0C245.5,84.7,245.4,84.7,245.3,84.8z"/>
		<path fill="#FFFFFF" d="M290.8,129.7l-0.2,0c-0.2-0.1-0.3-0.2-0.3-0.1c0,0.2-0.2,0.3-0.3,0.4c-0.1,0.1-0.3,0.2-0.4,0.3
			c-0.1,0.1-0.3,0.2-0.4,0.3c-0.4,0.4,0,0.6-1.2,1.4c-1.2,0.8-2.7,1.7-3,2.5c-0.3,0.8,0.3,1.2,1.4,1.2c0.7,0.1,0.9,0.2,1.1,0
			c0.1,0,0.2-0.2,0.4-0.4l-0.1,0c0.1-0.1,0.1-0.1,0.2-0.2c0.3-0.3,0.5-0.6,0.8-0.9l0,0c0.5-0.6,1.1-1,1.7-1.6c0,0,0,0,0,0l-0.1,0
			c0.3-0.3,0.5-0.7,0.7-1.1h0.1c0.2-0.5,0.2-1,0.2-1S291.1,130,290.8,129.7z"/>
		<path fill="#FFFFFF" d="M294.2,127c-0.1-0.1-0.2-0.1-0.2-0.1c-0.1,0-0.2,0.1-0.4,0.1l-0.4,0c-0.1,0-0.2-0.1-0.3-0.1
			c-0.6-0.4-0.5-0.3-0.9-1l0.2,0c0-0.1-0.1-0.1-0.1-0.2c-0.3-0.5-0.4-1.2-0.6-1.4l-0.2,0c-0.1-0.1-0.3-0.1-0.5,0
			c-0.3,0.2,0,1.1,0.3,1.4c0.3,0.3,0.4,1.5,0.4,1.8c-0.1,0.3-1.3,0.7-0.7,1.2c0.6,0.4,1.6,0,1.5,0.5c-0.1,0.5-0.7,1.2-0.1,1.3
			c0.2,0.1,0.4,0,0.6-0.2c0.2-0.1,0.3-0.4,0.5-0.6h-0.1c0.1-0.1,0.1-0.3,0.2-0.4c0.1-0.3,0.2-0.5,0.4-0.7h0.1
			c0.2-0.3,0.4-0.6,0.7-0.8c0.3-0.2,0.2-0.6,0-0.9L294.2,127z"/>
		<path fill="#FFFFFF" d="M296.1,105.7c-0.2-0.1-0.4,0-0.6,0.2c-0.6,0.4-1.4,1.6-1.4,1.6c0.5,0.2,1.2-0.3,1.7-0.8l0.1,0
			C296.2,106.3,296.4,105.8,296.1,105.7z"/>
		<path fill="#FFFFFF" d="M91.2,79.3l0.7,0C91.7,79.2,91.4,79.2,91.2,79.3z"/>
		<path fill="#FFFFFF" d="M255,101.2l0.2,0C255.1,101.1,255,101.1,255,101.2z"/>
		<path fill="#FFFFFF" d="M248.3,78.8C248.3,78.8,248.2,78.8,248.3,78.8c-0.1,0.1-0.1,0.1-0.1,0.1c-0.2,0.1-0.8,1.6-0.1,1.6
			c0.8,0,2.1,0.2,1.8-0.2c-0.1-0.2-0.4-0.6-0.7-0.9l0.2,0C249.1,78.9,248.7,78.6,248.3,78.8z"/>
		<path fill="#FFFFFF" d="M285.3,111.6c0.1-0.3-0.1-0.7-0.6-1l-0.3,0c-0.2-0.1-0.4-0.2-0.6-0.2c-1.3-0.3-0.4,0.2,0,1
			c0.3,0.6,0.9,1,1.2,0.7C285.1,111.9,285.2,111.8,285.3,111.6z"/>
		<path fill="#FFFFFF" d="M188.3,102.3l-0.2,0c-0.1-0.2-0.2-0.3-0.3-0.3c-0.9-0.3-1,1.1-1.7,2c-0.5,0.6-1,1.2-1.4,1.4
			c-0.1,0.1-0.2,0.1-0.3,0.1c-0.1,0-0.5,0.1-0.8,0.3c-0.5,0.3-1,0.8-0.7,1.6c0.5,1.2,0.4,2.5-0.1,3.1c-0.5,0.6,0.4,2.2,0.3,3.2
			c-0.1,0.9,0.2,1.5,1.2,1.5c0.4,0,0.6-0.1,0.8-0.2l0,0c0,0,0.1,0,0.1-0.1c0,0,0.1,0,0.1-0.1c0.3-0.2,0.6-0.6,0.8-1.2
			c0-0.1,0.1-0.2,0.1-0.3l-0.1,0c0.1-0.4,0.2-0.7,0.3-1.1h0.1c0.1-0.6,0.3-1.1,0.5-1.6h-0.1c0.1-0.3,0.3-0.7,0.4-1.1l0.1,0
			c0.2-0.6,0.3-1.2,0.4-1.6l-0.1,0c0.1-0.2,0.1-0.4,0.2-0.6c0.1-0.1,0.1-0.3,0.2-0.5l0.1,0c0.1-0.4,0.3-1.1,0.4-1.6l-0.1,0
			c0-0.3,0.1-0.6,0-0.8c0-0.1,0-0.2,0-0.3l0.1,0C188.7,103.4,188.6,102.7,188.3,102.3z"/>
		<path fill="#FFFFFF" d="M124.8,20.1l-0.2,0c-0.1-0.3-0.2-0.6-0.3-0.9c0,0,0-0.1-0.1-0.2h0.2c-0.1-0.4-0.4-1.1,0-1.5
			c0.1,0,0.1-0.1,0.2-0.1c0.8-0.1,2.2,0.9,2.5,0.5c0.1,0,0.2-0.1,0.2-0.3c0-0.1,0-0.2,0-0.3h-0.1c0-0.4,0-0.8,0.1-1.1h0.1
			c0-0.4,0.1-0.7,0.2-0.9c0.2-0.3,0.4-0.5,0.5-0.7l-0.1,0c0-0.1,0-0.1-0.1-0.2c-0.3-0.2-0.7,0.2-1-0.6c0-0.1-0.1-0.2-0.1-0.3l0.2,0
			c-0.1-0.7,0.3-1.3,0.6-1.6c0,0,0-0.1,0.1-0.1l0,0c0.2-0.2,0.6-0.7,1-1.1h0c0.5-0.5,1.1-1.1,1.5-1.4c0.1-0.1,0.3-0.1,0.4-0.2
			c0.6-0.2,1.1-0.7,1.2-1.2l0.1,0c0.1-0.3,0.1-0.7-0.2-0.8c-0.6-0.3-1.8-0.7-2.7-0.1c-0.1,0.1-0.3,0.2-0.4,0.3
			c-0.9,0.9-1.4,1.7-2.4,1.4c-0.4-0.1-0.7-0.4-0.9-0.8l0.2,0c-0.3-0.5-0.5-1.2-0.8-1.6l-0.2,0c0,0,0,0,0,0c-0.2-0.3-0.4-0.7-0.4-1.1
			l0.1,0c-0.1-0.6-0.2-1.2-0.3-1.6l-0.2,0c-0.1-0.3-0.2-0.4-0.5-0.4c-0.9,0.2-0.9,0.2-0.9,0.2s-1.1-0.2-1.7-0.1
			c-0.2,0.1-0.5,0.2-0.7,0.3h0c-0.4,0.2-0.8,0.4-1.1,0.4c-1-0.3-1.8,0.3-2.1,0.4c-1.6,0.4-2.9,0.1-3.6-0.1c0.6,0,1.4,0.1,2.2-0.1
			c1-0.2,2.7-0.6,3.6-0.8c0.8-0.2,0.2-0.6-0.1-0.6c-0.5-0.1-1-0.2-1.6-0.3l0.5,0c-0.9-0.2-1.9-0.5-2.8-0.5c-1-0.1-1.7,0.3-2.7,0.3
			c-0.8,0-1.8,0-2.6,0.2h0.4c-0.7,0.1-1.3,0.2-1.8,0.6c-0.3,0.2-0.6,0.4-1,0.5l-0.1,0c-0.5,0.1-0.9,0.2-0.9,0.3c0,0,0,0,0,0
			c-0.1,0-0.1,0-0.1,0.1c-0.5,0.7-1,2.3-1.5,1.9c-0.2-0.1-0.3-0.4-0.4-0.6l0.2,0c-0.2-0.5-0.4-0.9-0.8-0.6c0,0,0,0,0,0
			c0,0-0.1,0-0.1,0c-0.6,0.4,0,1.6-0.6,2.3c-0.1,0.1-0.1,0.2-0.2,0.2c-0.6,0.4-1.7,0.3-2,0.1c-0.4-0.3-0.9-0.5-2.6-0.4
			c-1.1,0.1-2.3,0.4-2.9,0.8c-0.4,0.2-0.6,0.5-0.5,0.7c0.1,0.2,0.1,0.5-0.1,0.6c-0.3,0.2-0.7,0.2-0.9,0c0,0-0.1,0-0.1,0l-0.4,0
			c-0.2,0-0.3,0.1-0.5,0.2c-0.4,0.2-0.8,0.6-0.8,1c0.1,0.7-0.2,1.4-0.9,1.3c-0.7-0.2-1.2,0.4-1.3,0.9c0,0.1-0.1,0.3-0.3,0.4
			c-0.5,0.3-1.3,0.5-1.4,0.5c-0.1,0-0.9,0-1.4,0.1l0.3,0c-0.5,0.1-0.9,0.2-0.5,0.6c0.5,0.4,0.8,0.2,1.5,0.3c0.6,0.2,1.2,1.4,1.5,1.6
			c0.3,0.1,0.6,0.1,0.9-0.1c0.1-0.1,0.2-0.2,0.3-0.3c0.1-0.2,0.3-0.6,0.4-0.9H91c0.1-0.3,0.1-0.5,0.1-0.5s0,1.1,0.5,1.3
			c0.5,0.2,1.8-0.2,2.1-0.1c0.3,0.1,2.4,0.4,2.9,0.7c0.6,0.3,1.9,0.6,2.3,1.3c0.4,0.7,0.4,3.2,0.6,3.5c0.1,0.1,0.2,0,0.3-0.1
			c0.2-0.1,0.4-0.4,0.6-0.7l-0.1,0c0.1-0.2,0.2-0.3,0.3-0.4c0.2-0.3,1.1-0.1,1.4,0.3c0.3,0.4,1,1.3,0.9,1.7c0,0.4-0.2,1-0.4,0.8
			c-0.3-0.2-0.7-0.2-0.5-0.6c0,0,0-0.1,0-0.1l0.1,0c0.2-0.4,0.2-1.4-0.1-1.4c-0.3,0-0.6,0-0.6,0s-0.4-0.1-0.7,0.2
			c-0.2,0.1-0.3,0.2-0.5,0.5c-0.4,0.8-0.1,1.7,0.2,1.7c0.3,0,1,0,1,0.2c0,0.2-0.7,0.9-0.7,1.3c0,0.4,0.6,1.7,0.8,2
			c0.2,0.3,1.1,0.6,1.3,0.6c0,0,0,0,0,0c-0.1,0-0.2,0.1-0.2,0.1c-0.2,0.1-0.3,0.2-0.2,0.4c0.2,0.4,0.6,1.3,1,1.5
			c0.5,0.2,1.8,1.2,2,1.7c0.2,0.4,1.2-0.3,1.4-0.4c0.2-0.1,0.2,1.2,0.8,1.2c0.4,0,0.7,0,1-0.3c0,0,0,0,0,0h0
			c0.1-0.1,0.2-0.2,0.3-0.3c0.2-0.2,0.3-0.5,0.4-0.8l0.1,0c0.1-0.3,0-0.7,0.1-1c0-0.3,0-0.5,0.1-0.7c0.1,0,0.2,0,0.3,0
			c0.6,0.2,0.9-0.1,0.8-0.7c0-0.2-0.1-0.3-0.1-0.5l0.2,0c-0.1-0.3-0.2-0.6,0.1-0.8c0.1,0,0.2-0.1,0.3-0.1c0.3-0.1,0.6-0.2,0.8-0.4
			c0.1,0,0.2-0.1,0.2-0.1c0.3-0.2,0.6-0.4,0.9-0.4c0.6,0,2.1,0.3,2.3,0c0.1-0.1,0.3-0.5,0.5-1h0.1c0.2-0.4,0.5-0.8,0.7-1
			c0,0,0.1,0,0.1-0.1c0.5-0.1,1.7,0.2,2.8,0c1.1-0.2,2.3-1.1,2.7-1c0.4,0.1,1.3,0.1,1-0.3c-0.1-0.1-0.2-0.3-0.3-0.4l0.2,0
			c-0.3-0.4-0.6-0.8-1.1-0.8c-0.3,0-0.5-0.4-0.6-0.9l-0.1,0c-0.1-0.4,0-0.7,0-0.7c0.2,0,1.7,0.7,1.7,1.2c0,0.6,0.3,1.3,1.1,1.1
			c0.2,0,0.3-0.1,0.4-0.2c0.6-0.3,0.5-1,0.3-1.2C124.9,20.2,124.9,20.2,124.8,20.1z"/>
		<path fill="#FFFFFF" d="M82.2,65.5c-0.1,0-0.2,0.1-0.2,0.1c-0.5,0.2-0.3,0.9,0.4,0.8c0.6-0.1,0.5-0.6,0.1-0.8h0.3
			C82.6,65.5,82.5,65.4,82.2,65.5z"/>
		<path fill="#FFFFFF" d="M88.7,70.4c-0.6-0.2-1.2,0-1.6,0.1c-0.1,0-0.2,0.1-0.3,0.2c-0.5,0.3-1.4,1.3-1.4,1.3s0.8,0.2,1.3,0.2
			c0.5,0,0.8,0.3,1.2,0.6c0.4,0.2,1.2-0.3,1.5-0.3c0.2,0,0.5,0.6,0.6,0.3c0.1,0,0.2,0,0.2-0.4l-0.1,0c0-0.5-0.1-0.8-0.4-1.1l0.2,0
			C89.5,70.7,89.1,70.5,88.7,70.4z"/>
		<path fill="#FFFFFF" d="M82.4,72.5c-0.5,0.3-0.4,1.6,0.4,1.3c0.1,0,0.2-0.1,0.2-0.2c0.6-0.4,0.2-1.4-0.4-1.3
			C82.5,72.4,82.4,72.4,82.4,72.5z"/>
		<path fill="#FFFFFF" d="M250.7,88.6l-0.1,0c0,0,0-0.1-0.1-0.1c-0.1,0-0.3,0-0.5,0.1l-0.3,0c-0.6,0.1-1.4,0.3-1.5,0.3
			c-0.2,0.1-1.5-0.2-1.5-0.2c0,0,0,0.1-0.1,0.1c0,0-0.1,0-0.1,0c-0.5,0.6-0.1,1.2,0.6,1.1c0.8-0.1,2.4-0.3,2.7-0.3
			c0.1,0,0.2-0.1,0.2-0.1C250.4,89.4,250.7,88.9,250.7,88.6z"/>
		<path fill="#FFFFFF" d="M234.4,95.8c0-0.1,0.1-0.2,0.1-0.4c0-0.4,0-0.9,0.1-1.3l-0.1,0c0.1-0.4,0.2-0.8,0.4-1.1h0.1
			c0,0,0-0.1,0.1-0.1c0.4-0.5,0.2-1.2-0.3-1.2c-0.2,0-0.4-0.1-0.6-0.3l-0.2,0c-0.3-0.3-0.6-0.7-0.9-1.1l0.2,0
			c-0.1-0.1-0.3-0.3-0.4-0.4c-0.5-0.5-1-0.8-1.5-1.3l-0.2,0c-0.3-0.3-0.6-0.6-0.9-1c0,0-0.1-0.1-0.1-0.1l0.2,0
			c-0.5-0.7-1.2-1.2-1.7-1.6h-0.2c-0.2-0.2-0.5-0.4-0.6-0.6c-0.2-0.2-0.5-0.4-0.8-0.5l0.3,0c-0.5-0.3-0.9-0.4-1.2-0.3
			c-0.1,0-0.1,0.1-0.2,0.1c-0.7,0.3,1.3,2,1.5,2.2c0.2,0.2,2.1,2.2,2.1,3.1c0,0.9,0.6,3.8,1,4.1c0.4,0.3,2.8,0.9,3,1.6
			c0.2,0.6,0.8,0.8,0.9,0.2L234.4,95.8z"/>
		<path fill="#FFFFFF" d="M251.9,82c-0.2-0.6-1.1-1.4-1.1-1.4c0,0-0.1,0.1-0.1,0.1c0,0,0,0,0,0c-0.4,0.5-0.6,0.8-0.7,1
			c-0.2,0.1-0.4-0.1-0.7-0.2c-0.3-0.1-0.6,0-0.9,0.2c-0.5,0.3-0.9,0.8-0.8,1.1c0.2,0.4,1.8-0.1,2.1,0.7c0.3,0.7,0.3,0.8,1.1,0.7
			c0.1,0,0.2-0.1,0.4-0.2c0.3-0.1,0.5-0.4,0.7-0.7l-0.1,0c0.2-0.4,0.3-0.8,0.2-1.1c0,0,0,0,0,0L251.9,82C251.9,82,251.9,82,251.9,82
			z"/>
		<path fill="#FFFFFF" d="M250.6,97.7c-0.1,0-0.2,0.1-0.3,0.2c-0.4,0.7-1.2,1.3-1.1,1.9c0.1,0.5,0.5,0.3,0.9,0
			c0.2-0.1,0.3-0.2,0.4-0.3l0,0c0.2-0.1,0.3-0.2,0.3-0.2s1.1-0.2,1.1-0.7c0,0,0-0.1,0-0.1l0.2,0C252,98,251,97.3,250.6,97.7z"/>
		<path fill="#FFFFFF" d="M247.6,65.4c-0.1,0-0.3,0.1-0.4,0.2c-0.9,0.6-1.3,2.7-0.6,2.6c0.1,0,0.2-0.1,0.3-0.2
			c0.3-0.2,0.7-0.8,0.8-1.3h-0.1c0.1-0.5,0.2-0.9,0-1.1l0.2,0C247.9,65.4,247.8,65.3,247.6,65.4z"/>
		<path fill="#FFFFFF" d="M230.3,82c-0.2-0.5-0.9-1.2-1.3-1.6l-0.2,0c-0.1-0.1-0.2-0.2-0.2-0.2c-0.6,0.1-0.6,1.3-0.3,1.7
			c0.3,0.4,0.8,0.2,1.2,1.7c0.4,1.5,1.1,3,1.3,3.6c0.3,0.6,1.5,1.4,1.9,1.8c0.2,0.2,0.5,0.2,0.7,0c0.1-0.1,0.2-0.2,0.3-0.3l-0.1,0
			c0-0.1,0-0.2-0.1-0.3c-0.1-0.2-0.3-0.5-0.5-0.8l0.2,0c-0.2-0.4-0.5-0.8-0.5-1.1c0-0.1-0.1-0.3-0.1-0.5l-0.2,0
			c-0.1-0.3-0.2-0.7-0.4-1.1l0.2,0c-0.1-0.3-0.3-0.6-0.4-0.9c-0.2-0.3-0.4-0.6-0.5-0.8l-0.2,0c-0.3-0.4-0.6-0.6-0.8-1.1c0,0,0,0,0,0
			L230.3,82C230.4,82,230.4,82,230.3,82z"/>
	</g>
	<g opacity="0.5">
		<path fill="#FFFFFF" d="M588.9-50.1c30.6,11.9,65.2,25.5,128.7,30.3v-0.4c-63.5-4.8-98.1-18.4-128.6-30.3
			C559.4-62,533.8-72,490.2-68.6c-40.2,3.1-68,3.5-74.2,3.6v0.4c6.2-0.1,34-0.4,74.2-3.6C533.7-71.6,559.3-61.6,588.9-50.1z"/>
		<path fill="#FFFFFF" d="M579.4-66.5c-28.5-14.8-53-27.6-93-24.5C446.6-88,421.9-80.5,416-78.6l0,0.4c5.7-1.9,30.4-9.4,70.4-12.5
			c39.9-3.1,64.4,9.7,92.8,24.5c30.5,15.9,64.8,33.8,125.9,33.8c4,0,8.2-0.1,12.5-0.3V-33C648.7-30.4,611.9-49.6,579.4-66.5z"/>
		<path fill="#FFFFFF" d="M487.7-83.2c40.8-3.2,65.5,8.6,94.2,22.3c31.9,15.3,68.1,32.5,135.8,32.5l0-0.4
			C650.1-28.7,613.9-46,582-61.2c-28.7-13.7-53.5-25.5-94.4-22.4C447.7-80.5,422-75.3,416-74l0,0.4
			C421.8-74.9,447.6-80.1,487.7-83.2z"/>
		<path fill="#FFFFFF" d="M491.5-60.8c45.7-3.5,70.8,5.2,102.6,16.3c28.2,9.9,63.2,22.1,123.5,29v-0.4c-60.2-6.9-95.3-19.1-123.4-29
			c-31.8-11.1-57-19.9-102.7-16.4C451.1-58,422.3-60,416-60.5l0,0.4C422.3-59.6,451.2-57.6,491.5-60.8z"/>
		<path fill="#FFFFFF" d="M577.1-71.8c-27.1-15.3-52.8-29.8-92.1-26.8c-39.6,3.1-63.3,12.8-69.1,15.5l0,0.4
			c5.5-2.5,29.3-12.4,69.1-15.5c39.2-3,64.8,11.4,91.8,26.7c29.5,16.7,62.6,35.3,119.3,35.3c6.8,0,13.9-0.3,21.4-0.8l0-0.4
			C647.6-32,610.2-53.2,577.1-71.8z"/>
		<path fill="#FFFFFF" d="M717.6,40.4c-38.5-23.8-67.4-35.6-90.8-37.1c-21.6-1.4-36.6,5.7-54,13.9C556,25.1,537,34.1,508.1,36.3
			c-23.8,1.8-47.9-9.2-63.9-18.7C430,9.1,419.4,0.2,416-2.8l0,0.5c3.7,3.2,14.1,11.9,28,20.2c16.1,9.6,40.2,20.7,64.1,18.8
			c28.9-2.2,48-11.3,64.9-19.2c33.8-16,60.5-28.6,144.6,23.4V40.4z"/>
		<path fill="#FFFFFF" d="M488.9-76.1c-40.1,3.1-66.8,5.9-72.9,6.6v0.4c6-0.6,32.8-3.5,73-6.6c41.9-3.3,67,7.6,96,20.2
			c31.3,13.6,66.8,29,132.6,31.5l0-0.4c-65.8-2.5-101.2-17.9-132.5-31.5C556.1-68.5,531-79.4,488.9-76.1z"/>
		<path fill="#FFFFFF" d="M492.8-53.3c48.9-3.8,74,4,108.8,14.8c27,8.4,60.5,18.8,116.1,27.3l0-0.4c-55.5-8.5-89-18.9-115.9-27.3
			c-34.8-10.8-60-18.7-108.9-14.9c-40.5,3.1-70.4-1.4-76.8-2.4l0,0.4C422.5-54.6,452.4-50.1,492.8-53.3z"/>
		<path fill="#FFFFFF" d="M416-96.4c2.1-1.9,6.9-6,14.8-10.2c9.9-5.4,26.7-12.2,50.5-14.1c37.6-2.9,63.1,14.7,90.1,33.4
			c17.8,12.4,36.3,25.1,59.5,33.1c15.4,5.3,31.7,7.9,49.1,7.9c12,0,24.5-1.3,37.6-3.8l0-0.4c-72.4,13.7-111.5-13.3-146-37.2
			c-27-18.7-52.6-36.4-90.3-33.5c-23.9,1.9-40.7,8.7-50.7,14.1c-7.6,4.1-12.4,8.1-14.6,10.1L416-96.4z"/>
		<path fill="#FFFFFF" d="M570.6,12.1c-16.7,6.8-35.6,14.6-63.7,16.7c-23.8,1.9-47.5-8.3-63.3-17.2C429.6,3.8,419.4-4.4,416-7.2
			l0,0.5c3.6,3,13.7,11,27.4,18.7c15.8,8.9,39.6,19.1,63.5,17.2C535,27,554,19.2,570.7,12.4c34.5-14.1,61.7-25.2,146.9,24.1l0-0.4
			c-39.1-22.6-68.3-34-92-35.9C603.7-1.5,588.4,4.8,570.6,12.1z"/>
		<path fill="#FFFFFF" d="M494-46.1C453.4-43,422.4-50,416-51.6l0,0.4c6.7,1.7,37.6,8.6,78.1,5.5c54.1-4.2,78.7,2.7,119.5,14.1
			c25,7,56.2,15.7,104,24.9l0-0.4C669.8-16.3,638.7-25,613.7-32C572.8-43.4,548.2-50.3,494-46.1z"/>
		<path fill="#FFFFFF" d="M573.3-82.3c-27-17.6-52.6-34.2-90.8-31.2c-39.2,3-61,17.2-66.5,21.3l0,0.4c5.1-3.8,26.9-18.3,66.6-21.4
			c38.1-3,63.6,13.6,90.5,31.2c17.6,11.4,35.7,23.2,58.7,30.9c16.4,5.4,33.7,8.2,52.4,8.2c10.7,0,21.8-0.9,33.4-2.7l0-0.4
			C645.9-35.1,607.3-60.2,573.3-82.3z"/>
		<path fill="#FFFFFF" d="M508.7-24.5c-3.5,0.3-7.1,0.6-10.8,0.8c-40.9,3.2-75.1-11.5-81.9-14.6l0,0.4c7.1,3.3,41.2,17.7,81.9,14.6
			c3.7-0.3,7.3-0.6,10.8-0.8c77.4-6.1,87.5-6.9,208.9,30.4l0-0.4c-58-17.8-92.8-27.6-121-31.4C569.1-29.2,547.6-27.6,508.7-24.5z"/>
		<path fill="#FFFFFF" d="M547.3-13.9c-13.1,1.8-28,3.8-46.8,5.3c-23.8,1.8-45.8-4.1-60.1-9.4c-12.4-4.6-21.3-9.5-24.4-11.3l0,0.4
			c3.3,1.9,12,6.7,24.2,11.2c14.3,5.3,36.4,11.3,60.3,9.4c18.8-1.5,33.7-3.5,46.9-5.3c47.3-6.4,71.1-9.7,170.3,28.4l0-0.4
			C618.5-23.6,594.6-20.4,547.3-13.9z"/>
		<path fill="#FFFFFF" d="M534.1-19.3c-10.1,1-21.6,2.1-34.9,3.2c-41,3.2-76.3-14-83.2-17.6l0,0.4c7.3,3.8,42.4,20.8,83.2,17.6
			c13.3-1,24.8-2.2,34.9-3.2c56.9-5.6,76.2-7.6,183.5,29.5l0-0.4C664.6-8.1,632.5-17,607-20.5C581.4-24,562.6-22.1,534.1-19.3z"/>
		<path fill="#FFFFFF" d="M575.1-77.1c-27.1-16.5-52.6-32-91.3-29C444.4-103,421.6-91,416-87.7l0,0.4c5.3-3.2,28.1-15.4,67.8-18.5
			c38.6-3,64.1,12.5,91.1,28.9c17.3,10.5,35.2,21.4,57.8,28.7c17.6,5.7,36.3,8.5,56.7,8.5c9,0,18.4-0.6,28.2-1.7v-0.4
			C646.7-33.6,608.7-56.7,575.1-77.1z"/>
		<path fill="#FFFFFF" d="M496.6-31.1c-40.8,3.2-74-8.9-80.6-11.5l0,0.4c7,2.8,40,14.7,80.6,11.5c78-6.1,92.4-2.2,186.2,23.3
			c10.4,2.8,22.1,6,34.8,9.4l0-0.4c-12.7-3.4-24.4-6.6-34.7-9.4C589.1-33.3,574.7-37.2,496.6-31.1z"/>
		<path fill="#FFFFFF" d="M495.3-38.6c-40.8,3.2-72.8-6.4-79.3-8.5l0,0.4c6.8,2.2,38.8,11.6,79.4,8.5c63-4.9,84,0.7,140.4,15.5
			c21,5.5,47,12.4,81.9,20.4l0-0.4c-34.8-8-60.8-14.8-81.8-20.3C579.4-38,558.3-43.5,495.3-38.6z"/>
		<path fill="#FFFFFF" d="M567.9,7c-16.5,5.7-35.2,12.2-62.4,14.3c-23.8,1.8-47.2-7.5-62.6-15.6C429.3-1.5,419.3-9,416-11.6l0,0.5
			C419.5-8.4,429.4-1,442.7,6c15.5,8.2,39,17.5,62.8,15.7c27.3-2.1,46-8.6,62.5-14.4c36.5-12.7,63-21.9,149.6,24.9l0-0.4
			c-39.8-21.4-69.5-32.5-93.4-34.6C602-4.9,586.2,0.6,567.9,7z"/>
		<path fill="#FFFFFF" d="M564.7,1.9c-16.1,4.7-34.4,10-60.5,12c-23.8,1.8-46.8-6.6-62-14.1c-13.3-6.5-23-13.4-26.3-15.8l0,0.4
			c3.5,2.6,13,9.3,26.1,15.7c15.2,7.5,38.3,16,62.2,14.1c26.1-2,44.4-7.3,60.5-12c37.3-10.8,64.4-18.6,152.8,25.7l0-0.4
			C677,7.1,646.7-3.5,622.5-6C599.9-8.3,583.6-3.6,564.7,1.9z"/>
		<path fill="#FFFFFF" d="M555.3-8.6c-14.7,2.7-31.3,5.7-53.5,7.4c-23.8,1.8-46.2-4.9-60.7-10.9c-12.7-5.2-21.9-10.8-25-12.8l0,0.4
			c3.3,2.1,12.4,7.6,24.9,12.7c14.6,6,37,12.8,60.9,11c22.2-1.7,38.9-4.8,53.6-7.4c42.4-7.7,68.1-12.4,162.3,27.4l0-0.4
			C623.5-21,597.7-16.3,555.3-8.6z"/>
		<path fill="#FFFFFF" d="M560.7-3.3c-15.6,3.6-33.3,7.8-57.7,9.7c-23.8,1.8-46.5-5.8-61.4-12.5c-13-5.9-22.4-12.1-25.6-14.3l0,0.4
			c3.4,2.3,12.7,8.4,25.5,14.2C456.4,0.9,479.2,8.6,503,6.7c24.5-1.9,42.1-6,57.7-9.7c39.7-9.3,66-15.4,156.9,26.5l0-0.4
			C626.8-18.8,600.5-12.6,560.7-3.3z"/>
	</g>
</g>

</svg>
