<svg xmlns="http://www.w3.org/2000/svg" xmlns:xlink="http://www.w3.org/1999/xlink" width="512" height="354.9" viewBox="0 0 512 354.9"><defs><style>.a{fill:none;}.b{clip-path:url(#a);}.c{fill:#e5e9eb;}.d{fill:#f1f1f3;}.e{fill:#fff;}</style><clipPath id="a"><rect class="a" width="512" height="354.9"/></clipPath></defs><g class="b"><path class="c" d="M258.7,6.1h-4.2V1.9a1.9,1.9,0,0,0-3.8,0V6.1h-4.3A1.967,1.967,0,0,0,244.5,8a1.967,1.967,0,0,0,1.9,1.9h4.3v4.2a1.9,1.9,0,0,0,3.8,0V9.9h4.2A1.838,1.838,0,0,0,260.6,8a1.836,1.836,0,0,0-1.9-1.9"/><path class="c" d="M94.5,75l-3.8-1.7,1.7-3.9a1.9,1.9,0,1,0-3.5-1.5l-1.7,3.9-3.9-1.7a1.9,1.9,0,1,0-1.5,3.5l3.9,1.7L84,79.2a1.9,1.9,0,0,0,3.5,1.5l1.7-3.9L93,78.5a1.872,1.872,0,0,0,2.5-1,2.036,2.036,0,0,0-1-2.5"/><path class="c" d="M155.7,20.5a5.4,5.4,0,1,0,5.4,5.4,5.378,5.378,0,0,0-5.4-5.4m0,8.4a3,3,0,1,1,3-3,3.009,3.009,0,0,1-3,3"/><path class="c" d="M331.8,10.7a3.435,3.435,0,0,0-3.4,3.4,3.372,3.372,0,0,0,3.4,3.4,3.436,3.436,0,0,0,3.4-3.4,3.372,3.372,0,0,0-3.4-3.4m0,5.2a1.9,1.9,0,0,1-1.9-1.9,1.838,1.838,0,0,1,1.9-1.9,1.9,1.9,0,0,1,1.9,1.9,1.838,1.838,0,0,1-1.9,1.9"/><rect class="c" width="299" height="2.4" transform="translate(85.8 316.9)"/><rect class="c" width="16.9" height="2.4" transform="translate(495.1 316.9)"/><path class="d" d="M124.4,279.7l2.8,38.3h21.2l-2.7-40.3Z"/><path class="c" d="M149.7,319.2H106.5l-2.7-39.8,43-2.9Zm-41-2.3h38.4l-2.6-37.8-38.3,2.6Z"/><path class="d" d="M71.3,318l47.1-114.7L98.6,197,47.4,318Z"/><path class="c" d="M72.1,319.2H26.9L80,190.5l40,12Zm-41.6-2.3h40l46.3-112.8L81.4,193.4Z"/><path class="e" d="M167.5,318h44.4c-.2-1.8-.3-3.6-.5-5.5-1.5-21.8.4-38,5.4-48.7,5.1-10.7,12.8-16.4,23-17.1,10-.7,18.1,3.9,24.4,13.8s10.2,25.8,11.7,47.5c.2,3.4.4,6.7.5,9.9h45c0-4.2-.1-8.5-.4-13a168.341,168.341,0,0,0-7.1-39.4A94.4,94.4,0,0,0,298,234.9a67.405,67.405,0,0,0-25.3-19.2c-10-4.3-21.5-6.1-34.7-5.2-13.4.9-24.7,4.2-34.1,9.9a66.066,66.066,0,0,0-22.5,22.4,94.736,94.736,0,0,0-12,32.4,158.709,158.709,0,0,0-2,40.1,11.492,11.492,0,0,0,.1,2.7"/><path class="c" d="M322.5,319.2H275.2V318c-.1-3.2-.2-6.5-.4-9.9-1.5-21.5-5.4-37.3-11.5-47-6-9.5-13.9-14-23.3-13.3-9.9.7-17,6-22,16.4-5,10.5-6.7,26.7-5.3,48.1.1,1.9.3,3.7.5,5.5l.1,1.3H166.5l-.1-1.8c0-.6-.1-1.2-.1-1.8a162.112,162.112,0,0,1,2-40.4c2.4-12.5,6.5-23.6,12.2-32.8a68.406,68.406,0,0,1,22.9-22.8c9.5-5.7,21.2-9.1,34.6-10,13.2-.9,25,.9,35.2,5.3a68.456,68.456,0,0,1,25.7,19.5c6.9,8.5,12.3,18.9,16.2,30.9a171.836,171.836,0,0,1,7.2,39.7c.3,4.3.4,8.6.4,13Zm-45-2.3h42.6c0-4-.2-7.9-.4-11.7a161.7,161.7,0,0,0-7.1-39.1,90.982,90.982,0,0,0-15.7-30.2,66.282,66.282,0,0,0-24.8-18.8c-9.8-4.2-21.3-5.9-34.1-5.1-13.1.9-24.4,4.2-33.6,9.7a64.626,64.626,0,0,0-22.1,22c-5.5,9-9.5,19.8-11.9,32a157.063,157.063,0,0,0-2,39.8c0,.5.1.9.1,1.4h42l-.3-4.2c-1.5-21.8.4-38.4,5.5-49.3q7.95-16.65,24-17.7c.7,0,1.4-.1,2.1-.1,9.5,0,17.4,4.9,23.4,14.5,6.4,10.1,10.3,25.8,11.9,48.1.2,2.8.3,5.8.4,8.7"/><path class="d" d="M486.6,318l-3-18.6-21.2,1.5-3.2-47.1-40.7,2.7,3.3,47.1-42.1,2.9L432,179.3,394.2,168,332.3,318Z"/><path class="c" d="M488,319.2H330.5l63-152.6,40,12L381.4,305.2l39-2.7-3.2-47,43-2.9,3.2,47.1,21.1-1.4Zm-154-2.3H485.1l-2.6-16.2-21.3,1.4L458,255l-38.3,2.6,3.2,47-45.2,3.1L430.2,180l-35.3-10.6Z"/><path class="d" d="M257.1,222.1c.4,5-9.9,10-22.9,11-13.1,1.1-24-2.2-24.4-7.2s9.9-10,22.9-11c13-1.1,24,2.1,24.4,7.2"/><path class="d" d="M280.1,224.9c-.7,2-5.1,2.3-9.9.6-4.7-1.7-8-4.7-7.2-6.7.7-2,5.1-2.3,9.9-.6,4.7,1.6,7.9,4.7,7.2,6.7"/><rect class="c" width="14.2" height="2.4" transform="translate(0 316.9)"/><rect class="c" width="13.9" height="2.399" transform="translate(59.7 336.1)"/><rect class="c" width="25.1" height="2.399" transform="translate(93.4 336.1)"/><rect class="c" width="11.2" height="2.399" transform="translate(384.7 336.1)"/><rect class="c" width="48.5" height="2.399" transform="translate(409.4 336.1)"/><rect class="c" width="12.2" height="2.4" transform="translate(39.2 352.5)"/><rect class="c" width="12.2" height="2.4" transform="translate(464 352.5)"/><path class="c" d="M220.6,223.4h0a3.009,3.009,0,0,1-3-3c.1-25.8-7.6-42.7-9.6-45.9a2.751,2.751,0,0,1-.8-1.5,3.127,3.127,0,0,1,1.1-3,2.911,2.911,0,0,1,3.1-.3c2.8,1.4,6.9,14.4,7,14.6a120.911,120.911,0,0,1,5.2,36.1,3.075,3.075,0,0,1-3,3"/><path class="c" d="M290.9,190.2a2.95,2.95,0,0,1-2.1-5c2-2.1,7.2-9,4.9-13-2.4-4.2-12-7.9-17.6-9.3a2.947,2.947,0,0,1,1.5-5.7c1.7.4,16.8,4.4,21.2,12.1,5,8.7-5.3,19.5-5.7,20a3.481,3.481,0,0,1-2.2.9"/><path class="c" d="M270.1,82.1a3.525,3.525,0,0,1-1.4-.3,2.951,2.951,0,0,1-1.2-4l19.6-37.3a2.953,2.953,0,1,1,5.2,2.8L272.7,80.6a3.112,3.112,0,0,1-2.6,1.5"/><path class="c" d="M193.5,108.2h-.3l-47.5-5a2.915,2.915,0,0,1,.6-5.8l47.5,5a2.913,2.913,0,0,1,2.6,3.2,3.005,3.005,0,0,1-2.9,2.6"/><path class="e" d="M293.3,164.2l-78.6,24.3a3.037,3.037,0,0,1-3.8-2L182.2,93.7a3.043,3.043,0,0,1,.2-2.3L192.5,72a3.353,3.353,0,0,1,1.8-1.5l63.8-19.7a3.038,3.038,0,0,1,3.8,2l33.4,107.6a3.12,3.12,0,0,1-2,3.8"/><path class="c" d="M213.8,189.8a4.3,4.3,0,0,1-4-2.9L181.1,94.1a4.424,4.424,0,0,1,.3-3.2l10.1-19.4a4.361,4.361,0,0,1,2.5-2.1l63.8-19.7a5.028,5.028,0,0,1,1.2-.2,4.3,4.3,0,0,1,4,2.9l33.3,107.7a4.424,4.424,0,0,1-.3,3.2,3.881,3.881,0,0,1-2.5,2l-78.6,24.3a2.672,2.672,0,0,1-1.1.2m45.3-138a.752.752,0,0,0-.5.1L194.8,71.6a1.669,1.669,0,0,0-1.1.9L183.6,91.9a1.691,1.691,0,0,0-.1,1.4l28.7,92.8a1.875,1.875,0,0,0,2.3,1.2L293.1,163a1.945,1.945,0,0,0,1.1-.9,1.691,1.691,0,0,0,.1-1.4L261,53a2.239,2.239,0,0,0-1.9-1.2"/><path class="c" d="M241.5,107.5c1.4,6-1.3,12.5-5.9,14.5-4.7,2.1-9.6-1.1-10.9-7.1-1.4-6,1.3-12.5,5.9-14.5s9.5,1.1,10.9,7.1"/><path class="d" d="M230.5,100.4a10.166,10.166,0,0,0-4.9,5.1,7.229,7.229,0,0,0,8.1,1.7,10.166,10.166,0,0,0,4.9-5.1,7.067,7.067,0,0,0-8.1-1.7"/><path class="d" d="M193.3,71.1h0l-11,20.7a1.268,1.268,0,0,0-.1.6l13.3-4.1a2.955,2.955,0,0,0,1.9-3.7Z"/><path class="c" d="M180.8,94.1l.2-1.8a2.354,2.354,0,0,1,.2-.8l.1-.2,11.1-20.9a.1.1,0,0,1,.1-.1l1.4-1.2,4.7,15.2a4.163,4.163,0,0,1-.3,3.1,3.952,3.952,0,0,1-2.4,2ZM193,74.2l-8.6,16.3,10.8-3.3a1.475,1.475,0,0,0,1-.9,1.5,1.5,0,0,0,.1-1.3Z"/><path class="c" d="M244.5,87.3a2.518,2.518,0,1,1-2.8-2.2,2.575,2.575,0,0,1,2.8,2.2"/><path class="c" d="M220.1,96.6a2.518,2.518,0,1,1-2.8-2.2,2.489,2.489,0,0,1,2.8,2.2"/></g></svg>