<?xml version="1.0" encoding="utf-8"?>
<!-- Generator: Adobe Illustrator 24.1.3, SVG Export Plug-In . SVG Version: 6.00 Build 0)  -->
<svg version="1.1" id="Layer_1" xmlns="http://www.w3.org/2000/svg" xmlns:xlink="http://www.w3.org/1999/xlink" x="0px" y="0px"
	 width="512px" height="512px" viewBox="0 0 512 512" enable-background="new 0 0 512 512" xml:space="preserve">
<g>
	<g>
		<path fill="#FFFFFF" stroke="#E5E9EA" stroke-width="2.5" stroke-miterlimit="10" d="M312.5,278.6c-2.7-30.7-10.7-54.4-24-71.1
			c-13.2-16.7-33-23.9-59.5-21.5c-49.9,4.4-71.9,39.8-66,105.9c2.7,30,2.7,24,6.4,52.7l148.3-0.8
			C317.7,343.8,315.1,307.6,312.5,278.6z"/>
		<path fill="#FFFFFF" stroke="#E5E9EA" stroke-width="2" stroke-miterlimit="10" d="M205.5,345.2l-7.8-74.4c0,0-5.4-46.4,35.2-50
			c0,0,37.7-6,42.1,42.4l7.9,81.3L205.5,345.2z"/>
		<circle fill="#FFFFFF" stroke="#E5E9EA" stroke-miterlimit="10" cx="220.1" cy="322.3" r="5.9"/>
		<circle fill="#FFFFFF" stroke="#E5E9EA" stroke-miterlimit="10" cx="218.2" cy="307.9" r="3.9"/>
		<circle fill="#FFFFFF" stroke="#E5E9EA" stroke-miterlimit="10" cx="237.4" cy="261" r="16.1"/>
		<circle fill="#FFFFFF" stroke="#E5E9EA" stroke-miterlimit="10" cx="237.4" cy="261" r="13.2"/>
		
			<rect x="279" y="316.4" transform="matrix(0.996 -8.880305e-02 8.880305e-02 0.996 -27.46 26.1971)" fill="#FFFFFF" stroke="#E5E9EA" stroke-width="1.5" stroke-miterlimit="10" width="3.3" height="10.5"/>
		
			<rect x="274.1" y="268.3" transform="matrix(0.996 -8.880305e-02 8.880305e-02 0.996 -23.1999 25.5686)" fill="#FFFFFF" stroke="#E5E9EA" stroke-width="1.5" stroke-miterlimit="10" width="3.3" height="10.5"/>
		<path fill="#FFFFFF" stroke="#E5E9EA" stroke-miterlimit="10" d="M232.8,324.1l-11.2,1c-1.6,0.1-3-1.1-3.2-2.7l0,0
			c-0.1-1.6,1.1-3,2.7-3.2l11.2-1c1.6-0.1,3,1.1,3.2,2.7l0,0C235.6,322.5,234.5,324,232.8,324.1z"/>
	</g>
	<path fill="#E5E9EB" d="M301.7,134.3l-2.9,0.3l-0.3-2.9c-0.1-0.7-0.7-1.3-1.5-1.2c-0.7,0.1-1.3,0.7-1.2,1.5l0.3,2.9l-3,0.3
		c-0.7,0.1-1.3,0.7-1.2,1.5c0.1,0.7,0.7,1.3,1.5,1.2l3-0.3l0.3,2.9c0.1,0.7,0.7,1.3,1.5,1.2c0.7-0.1,1.3-0.7,1.2-1.5l-0.3-2.9
		l2.9-0.3c0.7-0.1,1.3-0.7,1.2-1.5C303.1,134.8,302.5,134.2,301.7,134.3z"/>
	<path fill="#E5E9EB" d="M122.8,184.1l-3.8-1.7l1.7-3.9c0.4-1,0-2.1-1-2.5c-1-0.4-2.1,0-2.5,1l-1.7,3.9l-3.9-1.7c-1-0.4-2.1,0-2.5,1
		c-0.4,1,0,2.1,1,2.5l3.9,1.7l-1.7,3.9c-0.4,1,0,2.1,1,2.5c1,0.4,2.1,0,2.5-1l1.7-3.9l3.8,1.7c1,0.4,2.1,0,2.5-1
		C124.2,185.7,123.8,184.5,122.8,184.1z"/>
	<path fill="#E5E9EB" d="M228.4,148.3l-1.1-1.4l1.4-1.1c0.3-0.3,0.4-0.8,0.1-1.1c-0.3-0.3-0.8-0.4-1.1-0.1l-1.4,1.1l-1.1-1.4
		c-0.3-0.3-0.8-0.4-1.1-0.1c-0.3,0.3-0.4,0.8-0.1,1.1l1.1,1.4l-1.4,1.1c-0.3,0.3-0.4,0.8-0.1,1.1c0.3,0.3,0.8,0.4,1.1,0.1l1.4-1.1
		l1.1,1.4c0.3,0.4,0.8,0.4,1.1,0.1C228.6,149.2,228.6,148.6,228.4,148.3z"/>
	<path fill="#E5E9EB" d="M379.3,130.8c-3,0-5.4,2.4-5.4,5.4c0,3,2.4,5.4,5.4,5.4c3,0,5.4-2.4,5.4-5.4
		C384.7,133.2,382.3,130.8,379.3,130.8z M379.3,139.2c-1.7,0-3-1.3-3-3c0-1.7,1.3-3,3-3c1.7,0,3,1.3,3,3
		C382.3,137.9,380.9,139.2,379.3,139.2z"/>
	<path fill="#E5E9EB" d="M311.1,180.8c-0.9,0-1.7,0.7-1.7,1.7c0,0.9,0.7,1.7,1.7,1.7s1.7-0.7,1.7-1.7
		C312.7,181.5,312,180.8,311.1,180.8z M311.1,183.4c-0.5,0-0.9-0.4-0.9-0.9s0.4-0.9,0.9-0.9c0.5,0,0.9,0.4,0.9,0.9
		S311.6,183.4,311.1,183.4z"/>
	<path fill="#E5E9EB" d="M165.4,130.2c-1.8,0-3.4,1.5-3.4,3.4c0,1.8,1.5,3.4,3.4,3.4c1.8,0,3.4-1.5,3.4-3.4
		C168.8,131.7,167.3,130.2,165.4,130.2z M165.4,135.4c-1,0-1.9-0.8-1.9-1.9c0-1,0.8-1.9,1.9-1.9c1,0,1.9,0.8,1.9,1.9
		C167.3,134.6,166.5,135.4,165.4,135.4z"/>
	<g>
		<rect x="85.8" y="343.8" fill="#E5E9EB" width="390.5" height="2.4"/>
	</g>
	<g>
		<rect x="495.1" y="343.8" fill="#E5E9EB" width="16.9" height="2.4"/>
	</g>
	<g>
		<g>
			<g>
				<g>
					<polygon fill="#F1F1F3" points="124.4,306.6 127.2,345 148.4,345 145.7,304.7 					"/>
					<path fill="#E5E9EB" d="M149.7,346.1h-43.2l-2.7-39.8l43-2.9L149.7,346.1z M108.7,343.8h38.4l-2.6-37.8l-38.3,2.6L108.7,343.8z
						"/>
				</g>
				<g>
					<polygon fill="#F1F1F3" points="71.3,345 118.4,230.2 98.6,223.9 47.4,345 					"/>
					<path fill="#E5E9EB" d="M72.1,346.1H26.9l53.1-128.7l40,12L72.1,346.1z M30.5,343.8h40L116.8,231l-35.4-10.6L30.5,343.8z"/>
				</g>
			</g>
		</g>
	</g>
	<g>
		<rect y="343.8" fill="#E5E9EB" width="14.2" height="2.4"/>
	</g>
	<g>
		<rect x="59.7" y="363.1" fill="#E5E9EB" width="13.9" height="2.4"/>
	</g>
	<g>
		<rect x="93.4" y="363.1" fill="#E5E9EB" width="25.1" height="2.4"/>
	</g>
	<g>
		<rect x="384.7" y="363.1" fill="#E5E9EB" width="11.2" height="2.4"/>
	</g>
	<g>
		<rect x="409.4" y="363.1" fill="#E5E9EB" width="48.5" height="2.4"/>
	</g>
	<g>
		<rect x="39.2" y="379.4" fill="#E5E9EB" width="12.2" height="2.4"/>
	</g>
	<g>
		<rect x="464" y="379.4" fill="#E5E9EB" width="12.2" height="2.4"/>
	</g>
	<path fill="#F1F1F3" stroke="#E5E9EA" stroke-width="2.5" stroke-miterlimit="10" d="M372.2,221.7c5-5.9,11.7-9.4,20.3-10.3
		c8.1-0.8,14.8,0.8,20,5c5.2,4.1,8.3,10.3,9.1,18.5c1.9,18.8-10.4,29.3-37,31.7l-8.3,0.8l3.4,32.7l8.3-0.8c14.4-1.5,25.6,0,33.5,4.3
		c7.9,4.4,11.7,7.6,13,17.2c1.4,9.7-5,23.9-5.8,24.2h44.8c1-5.5,1.1-15.3,0.5-21.5c-2.5-24.7-18.2-39.7-47.2-45.2l-0.1-1.4
		c11.4-3.1,20.2-9.1,26.3-18.1s8.6-19.9,7.3-32.8c-1.1-10.3-4.5-19.3-10.4-27.1c-5.9-7.8-14-13.6-24.2-17.4s-22.2-4.9-35.9-3.5
		c-21.6,2.2-38,9.5-49,21.8c-11,12.3-16,28.8-15,49.4l39.3-4C364.9,235.5,367.3,227.7,372.2,221.7z"/>
	<path fill="#F5F5F7" d="M248.2,204c0.4,5-9.9,10-22.9,11c-13.1,1.1-24-2.2-24.4-7.2c-0.4-5,9.9-10,22.9-11
		C236.8,195.7,247.8,198.9,248.2,204z"/>
	<path fill="#F5F5F7" d="M271.2,206.8c-0.7,2-5.1,2.3-9.9,0.6c-4.7-1.7-8-4.7-7.2-6.7c0.7-2,5.1-2.3,9.9-0.6
		S271.9,204.8,271.2,206.8z"/>
</g>
</svg>
