<?xml version="1.0" encoding="utf-8"?>
<!-- Generator: Adobe Illustrator 24.1.3, SVG Export Plug-In . SVG Version: 6.00 Build 0)  -->
<svg version="1.1" id="Layer_1" xmlns="http://www.w3.org/2000/svg" xmlns:xlink="http://www.w3.org/1999/xlink" x="0px" y="0px"
	 width="512px" height="512px" viewBox="0 0 512 512" enable-background="new 0 0 512 512" xml:space="preserve">
<g>
	<path fill="#E5E9EB" d="M258.7,84.7h-4.2v-4.2c0-1-0.9-1.9-1.9-1.9s-1.9,0.9-1.9,1.9v4.2h-4.3c-1,0-1.9,0.9-1.9,1.9
		c0,1,0.9,1.9,1.9,1.9h4.3v4.2c0,1,0.9,1.9,1.9,1.9s1.9-0.9,1.9-1.9v-4.2h4.2c1.1,0,1.9-0.8,1.9-1.9
		C260.7,85.6,259.8,84.7,258.7,84.7z"/>
	<path fill="#E5E9EB" d="M94.5,153.6l-3.8-1.7l1.7-3.9c0.4-1,0-2.1-1-2.5c-1-0.4-2.1,0-2.5,1l-1.7,3.9l-3.9-1.7c-1-0.4-2.1,0-2.5,1
		c-0.4,1,0,2.1,1,2.5l3.9,1.7l-1.7,3.9c-0.4,1,0,2.1,1,2.5c1,0.4,2.1,0,2.5-1l1.7-3.9l3.8,1.7c1,0.4,2.1,0,2.5-1
		C95.9,155.2,95.4,154.1,94.5,153.6z"/>
	<path fill="#E5E9EB" d="M155.7,99.1c-3,0-5.4,2.4-5.4,5.4c0,3,2.4,5.4,5.4,5.4s5.4-2.4,5.4-5.4C161.1,101.5,158.7,99.1,155.7,99.1z
		 M155.7,107.5c-1.7,0-3-1.3-3-3c0-1.7,1.3-3,3-3s3,1.3,3,3C158.7,106.1,157.4,107.5,155.7,107.5z"/>
	<path fill="#E5E9EB" d="M331.8,89.3c-1.8,0-3.4,1.5-3.4,3.4s1.5,3.4,3.4,3.4c1.8,0,3.4-1.5,3.4-3.4S333.7,89.3,331.8,89.3z
		 M331.8,94.5c-1,0-1.9-0.8-1.9-1.9s0.8-1.9,1.9-1.9c1,0,1.9,0.8,1.9,1.9S332.9,94.5,331.8,94.5z"/>
	<g>
		<rect x="85.8" y="395.5" fill="#E5E9EB" width="299" height="2.4"/>
	</g>
	<g>
		<rect x="495.1" y="395.5" fill="#E5E9EB" width="16.9" height="2.4"/>
	</g>
	<g>
		<g>
			<g>
				<g>
					<polygon fill="#F1F1F3" points="124.4,358.3 127.2,396.6 148.4,396.6 145.7,356.3 					"/>
					<path fill="#E5E9EB" d="M149.7,397.8h-43.2l-2.7-39.8l43-2.9L149.7,397.8z M108.7,395.5h38.4l-2.6-37.8l-38.3,2.6L108.7,395.5z
						"/>
				</g>
				<g>
					<polygon fill="#F1F1F3" points="71.3,396.6 118.4,281.9 98.6,275.6 47.4,396.6 					"/>
					<path fill="#E5E9EB" d="M72.1,397.8H26.9l53.1-128.7l40,12L72.1,397.8z M30.5,395.5h40l46.3-112.8L81.4,272L30.5,395.5z"/>
				</g>
			</g>
		</g>
	</g>
	<g>
		<g>
			<g>
				<g>
					<path fill="#FFFFFF" d="M167.5,396.6h44.4c-0.2-1.8-0.3-3.6-0.5-5.5c-1.5-21.8,0.4-38,5.4-48.7c5.1-10.7,12.8-16.4,23-17.1
						c10-0.7,18.1,3.9,24.4,13.8c6.3,9.9,10.2,25.8,11.7,47.5c0.2,3.4,0.4,6.7,0.5,9.9h45c0-4.2-0.1-8.5-0.4-13
						c-1-14.3-3.3-27.5-7.1-39.4c-3.8-11.9-9.1-22.1-15.9-30.6c-6.9-8.4-15.3-14.8-25.3-19.2c-10-4.3-21.5-6.1-34.7-5.2
						c-13.4,0.9-24.7,4.2-34.1,9.9c-9.3,5.7-16.9,13.1-22.5,22.4c-5.7,9.3-9.7,20.1-12,32.4c-2.3,12.4-3,25.7-2,40.1
						C167.3,395,167.4,395.8,167.5,396.6z"/>
					<path fill="#E5E9EB" d="M322.5,397.8h-47.3l0-1.2c-0.1-3.2-0.2-6.5-0.4-9.9c-1.5-21.5-5.4-37.3-11.5-47
						c-6-9.5-13.9-14-23.3-13.3c-9.9,0.7-17,6-22,16.4c-5,10.5-6.7,26.7-5.3,48.1c0.1,1.9,0.3,3.7,0.5,5.5l0.1,1.3h-46.8l-0.1-1.8
						c0-0.6-0.1-1.2-0.1-1.8c-1-14.2-0.3-27.8,2-40.4c2.4-12.5,6.5-23.6,12.2-32.8c5.7-9.3,13.4-17,22.9-22.8
						c9.5-5.7,21.2-9.1,34.6-10c13.2-0.9,25,0.9,35.2,5.3c10.1,4.4,18.7,11,25.7,19.5c6.9,8.5,12.3,18.9,16.2,30.9
						c3.8,12,6.2,25.4,7.2,39.7c0.3,4.3,0.4,8.6,0.4,13L322.5,397.8z M277.5,395.5h42.6c0-4-0.2-7.9-0.4-11.7
						c-0.9-14.1-3.3-27.3-7.1-39.1c-3.7-11.8-9-21.9-15.7-30.2c-6.8-8.2-15.1-14.6-24.8-18.8c-9.8-4.2-21.3-5.9-34.1-5.1
						c-13.1,0.9-24.4,4.2-33.6,9.7c-9.2,5.6-16.7,13-22.1,22c-5.5,9-9.5,19.8-11.9,32c-2.3,12.4-3,25.7-2,39.8
						c0,0.5,0.1,0.9,0.1,1.4h42c-0.1-1.4-0.2-2.8-0.3-4.2c-1.5-21.8,0.4-38.4,5.5-49.3c5.3-11.1,13.3-17,24-17.7
						c0.7,0,1.4-0.1,2.1-0.1c9.5,0,17.4,4.9,23.4,14.5c6.4,10.1,10.3,25.8,11.9,48.1C277.3,389.6,277.4,392.6,277.5,395.5z"/>
				</g>
			</g>
		</g>
	</g>
	<g>
		<g>
			<g>
				<g>
					<polygon fill="#F1F1F3" points="486.6,396.6 483.6,378 462.4,379.5 459.2,332.4 418.5,335.1 421.8,382.2 379.7,385.1 
						432,257.9 394.2,246.6 332.3,396.6 					"/>
					<path fill="#E5E9EB" d="M488,397.8H330.5l63-152.6l40,12l-52.1,126.6l39-2.7l-3.2-47l43-2.9l3.2,47.1l21.1-1.4L488,397.8z
						 M334,395.5h151.1l-2.6-16.2l-21.3,1.4l-3.2-47.1l-38.3,2.6l3.2,47l-45.2,3.1l52.5-127.7L394.9,248L334,395.5z"/>
				</g>
			</g>
		</g>
	</g>
	<path fill="#F1F1F3" d="M257.1,300.7c0.4,5-9.9,10-22.9,11c-13.1,1.1-24-2.2-24.4-7.2c-0.4-5,9.9-10,22.9-11
		C245.7,292.4,256.7,295.6,257.1,300.7z"/>
	<path fill="#F1F1F3" d="M280.1,303.5c-0.7,2-5.1,2.3-9.9,0.6c-4.7-1.7-8-4.7-7.2-6.7c0.7-2,5.1-2.3,9.9-0.6
		C277.6,298.4,280.8,301.5,280.1,303.5z"/>
	<g>
		<rect y="395.5" fill="#E5E9EB" width="14.2" height="2.4"/>
	</g>
	<g>
		<rect x="59.7" y="414.7" fill="#E5E9EB" width="13.9" height="2.4"/>
	</g>
	<g>
		<rect x="93.4" y="414.7" fill="#E5E9EB" width="25.1" height="2.4"/>
	</g>
	<g>
		<rect x="384.7" y="414.7" fill="#E5E9EB" width="11.2" height="2.4"/>
	</g>
	<g>
		<rect x="409.4" y="414.7" fill="#E5E9EB" width="48.5" height="2.4"/>
	</g>
	<g>
		<rect x="39.2" y="431.1" fill="#E5E9EB" width="12.2" height="2.4"/>
	</g>
	<g>
		<rect x="464" y="431.1" fill="#E5E9EB" width="12.2" height="2.4"/>
	</g>
	<g>
		<g>
			<path fill="#E5E9EB" d="M220.6,302C220.6,302,220.6,302,220.6,302c-1.6,0-3-1.3-3-3c0.1-25.8-7.6-42.7-9.6-45.9
				c-0.4-0.4-0.7-0.9-0.8-1.5c-0.2-1.1,0.2-2.3,1.1-3c0.9-0.7,2.1-0.8,3.1-0.3c2.8,1.4,6.9,14.4,7,14.6c2.4,7.6,5.2,20,5.2,36.1
				C223.5,300.7,222.2,302,220.6,302z"/>
		</g>
	</g>
	<g>
		<g>
			<path fill="#E5E9EB" d="M290.9,268.8c-0.7,0-1.5-0.3-2-0.8c-1.2-1.1-1.2-3-0.1-4.2c2-2.1,7.2-9,4.9-13c-2.4-4.2-12-7.9-17.6-9.3
				c-1.6-0.4-2.5-2-2.1-3.6c0.4-1.6,2-2.5,3.6-2.1c1.7,0.4,16.8,4.4,21.2,12.1c5,8.7-5.3,19.5-5.7,20
				C292.4,268.5,291.6,268.8,290.9,268.8z"/>
		</g>
	</g>
	<g>
		<g>
			<path fill="#E5E9EB" d="M270.1,160.7c-0.5,0-0.9-0.1-1.4-0.3c-1.4-0.8-2-2.5-1.2-4l19.6-37.3c0.8-1.4,2.5-2,4-1.2
				c1.4,0.8,2,2.5,1.2,4l-19.6,37.3C272.2,160.1,271.1,160.7,270.1,160.7z"/>
		</g>
	</g>
	<g>
		<g>
			<path fill="#E5E9EB" d="M193.5,186.8c-0.1,0-0.2,0-0.3,0l-47.5-5c-1.6-0.2-2.8-1.6-2.6-3.2c0.2-1.6,1.6-2.8,3.2-2.6l47.5,5
				c1.6,0.2,2.8,1.6,2.6,3.2C196.2,185.6,195,186.8,193.5,186.8z"/>
		</g>
	</g>
	<g>
		<path fill="#FFFFFF" d="M293.3,242.8l-78.6,24.3c-1.6,0.5-3.3-0.4-3.8-2l-28.7-92.8c-0.2-0.8-0.2-1.6,0.2-2.3l10.1-19.4
			c0.4-0.7,1-1.2,1.8-1.5l63.8-19.7c1.6-0.5,3.3,0.4,3.8,2L295.3,239C295.7,240.6,294.9,242.3,293.3,242.8z"/>
		<path fill="#E5E9EB" d="M213.8,268.4c-1.8,0-3.4-1.2-4-2.9l-28.7-92.8c-0.3-1.1-0.2-2.2,0.3-3.2l10.1-19.4c0.5-1,1.4-1.7,2.5-2.1
			l63.8-19.7c0.4-0.1,0.8-0.2,1.2-0.2c1.8,0,3.4,1.2,4,2.9l33.3,107.7c0.3,1.1,0.2,2.2-0.3,3.2c-0.5,1-1.4,1.7-2.5,2l-78.6,24.3
			C214.7,268.3,214.3,268.4,213.8,268.4z M259.1,130.4c-0.2,0-0.4,0-0.5,0.1l-63.8,19.7c-0.5,0.1-0.9,0.5-1.1,0.9l-10.1,19.4
			c-0.2,0.4-0.3,0.9-0.1,1.4l28.7,92.8c0.3,0.9,1.3,1.5,2.3,1.2l78.6-24.3c0.5-0.1,0.8-0.5,1.1-0.9c0.2-0.4,0.3-0.9,0.1-1.4
			l-33.3-107.7C260.6,130.9,259.9,130.4,259.1,130.4z"/>
	</g>
	<path fill="#E5E9EB" d="M241.5,186.1c1.4,6-1.3,12.5-5.9,14.5c-4.7,2.1-9.6-1.1-10.9-7.1c-1.4-6,1.3-12.5,5.9-14.5
		C235.2,177,240.1,180.1,241.5,186.1z"/>
	<path fill="#F1F1F3" d="M230.5,179c-2.1,0.9-3.8,2.8-4.9,5.1c2.2,2.2,5.2,2.9,8.1,1.7c2.1-0.9,3.8-2.8,4.9-5.1
		C236.4,178.5,233.4,177.7,230.5,179z"/>
	<g>
		<path fill="#F1F1F3" d="M193.3,149.7C193.2,149.8,193.2,149.8,193.3,149.7l-11,20.7c-0.1,0.2-0.1,0.4-0.1,0.6l13.3-4.1
			c1.5-0.5,2.4-2.1,1.9-3.7L193.3,149.7z"/>
		<path fill="#E5E9EB" d="M180.8,172.7l0.2-1.8c0-0.3,0.1-0.5,0.2-0.8l0.1-0.2l11.1-20.9c0-0.1,0.1-0.1,0.1-0.1l1.4-1.2l4.7,15.2
			c0.3,1,0.2,2.2-0.3,3.1c-0.5,1-1.4,1.7-2.4,2L180.8,172.7z M193,152.8l-8.6,16.3l10.8-3.3c0.4-0.1,0.8-0.4,1-0.9
			c0.2-0.4,0.3-0.9,0.1-1.3L193,152.8z"/>
	</g>
	<path fill="#E5E9EB" d="M244.5,165.9c0.2,1.4-0.8,2.6-2.2,2.8c-1.4,0.2-2.6-0.8-2.8-2.2c-0.2-1.4,0.8-2.6,2.2-2.8
		C243.1,163.6,244.4,164.6,244.5,165.9z"/>
	<path fill="#E5E9EB" d="M220.1,175.2c0.2,1.4-0.8,2.6-2.2,2.8s-2.6-0.8-2.8-2.2c-0.2-1.4,0.8-2.6,2.2-2.8S219.9,173.8,220.1,175.2z
		"/>
</g>
</svg>
