<svg version="1.1" id="Layer_1" xmlns="http://www.w3.org/2000/svg" xmlns:xlink="http://www.w3.org/1999/xlink" x="0px" y="0px" viewBox="0 0 542.45 387.4" style="enable-background:new 0 0 542.45 387.4;" xml:space="preserve">
    <g>
        <g>
            <g>
                <path style="fill:none;stroke:#C0CCD8;stroke-miterlimit:10;" d="M277.95,97.08H160.61c-1.77,0-3.21-1.44-3.21-3.21V25.53
				c0-1.77,1.44-3.21,3.21-3.21h117.34c1.77,0,3.21,1.44,3.21,3.21v68.34C281.16,95.64,279.72,97.08,277.95,97.08z" />
                <line style="fill:none;stroke:#C0CCD8;stroke-miterlimit:10;" x1="157.41" y1="35.87" x2="281.16" y2="35.87" />
                <circle style="fill:none;stroke:#C0CCD8;stroke-miterlimit:10;" cx="165.4" cy="29.18" r="1.98" />
                <path style="fill:none;stroke:#C0CCD8;stroke-miterlimit:10;" d="M175.51,29.18c0,1.09-0.89,1.98-1.98,1.98
				c-1.09,0-1.98-0.89-1.98-1.98c0-1.09,0.89-1.98,1.98-1.98C174.63,27.2,175.51,28.08,175.51,29.18z" />
                <path style="fill:none;stroke:#C0CCD8;stroke-miterlimit:10;" d="M183.65,29.18c0,1.09-0.89,1.98-1.98,1.98
				c-1.09,0-1.98-0.89-1.98-1.98c0-1.09,0.89-1.98,1.98-1.98C182.77,27.2,183.65,28.08,183.65,29.18z" />
            </g>
            <g>
                <g>
                    <g>
                        <path style="fill:none;stroke:#C0CCD8;stroke-linejoin:round;stroke-miterlimit:10;" d="M92.49,104.9h29.26
						c2.83,0,5.12-2.29,5.12-5.12V70.52c0-2.83-2.29-5.12-5.12-5.12H92.49c-2.83,0-5.12,2.29-5.12,5.12v29.26
						C87.37,102.61,89.66,104.9,92.49,104.9z" />
                    </g>
                    <g>
                        <circle style="fill:none;stroke:#C0CCD8;stroke-width:3;stroke-miterlimit:10;" cx="107.12" cy="85.15" r="11.31" />
                        <line style="fill:none;stroke:#C0CCD8;stroke-width:3;stroke-miterlimit:10;" x1="114.76" y1="77.16" x2="98.78" y2="93.13" />
                    </g>
                </g>
            </g>
            <path style="fill:#FFFFFF;stroke:#C0CCD8;stroke-linejoin:round;stroke-miterlimit:10;" d="M388.75,95.91l-8.19-8.49H254.47
			c-5.9,0-10.68-4.78-10.68-10.68V11.18c0-5.9,4.78-10.68,10.68-10.68h126.65c5.9,0,10.68,4.78,10.68,10.68v83.5
			C391.81,96.28,389.86,97.06,388.75,95.91z" />
            <g>
                <g>
                    <path style="fill:#F76652;" d="M294.47,58.11h-5.42v9.53h-13.14v-9.53h-19.64v-9.77l20.48-29.95h12.3v29.78h5.42V58.11z
					 M275.91,48.17v-5.73c0-1.08,0.04-2.53,0.12-4.36c0.08-1.83,0.14-2.79,0.19-2.88h-0.37c-0.76,1.73-1.63,3.35-2.59,4.85
					l-5.46,8.12H275.91z" />
                    <path style="fill:#F76652;" d="M335.52,43.09c0,8.71-1.46,15.1-4.38,19.15c-2.92,4.05-7.39,6.08-13.41,6.08
					c-5.88,0-10.32-2.12-13.31-6.35c-2.99-4.23-4.48-10.53-4.48-18.88c0-8.76,1.46-15.18,4.38-19.27c2.92-4.09,7.39-6.13,13.41-6.13
					c5.86,0,10.29,2.13,13.29,6.38C334.02,28.33,335.52,34.66,335.52,43.09z M313.18,43.09c0,5.57,0.35,9.4,1.04,11.49
					c0.7,2.09,1.86,3.13,3.5,3.13c1.66,0,2.83-1.08,3.52-3.23c0.68-2.16,1.03-5.95,1.03-11.39c0-5.46-0.35-9.28-1.04-11.47
					c-0.7-2.19-1.87-3.28-3.5-3.28c-1.64,0-2.81,1.06-3.5,3.17C313.53,33.61,313.18,37.47,313.18,43.09z" />
                    <path style="fill:#F76652;" d="M379.33,58.11h-5.42v9.53h-13.14v-9.53h-19.64v-9.77l20.48-29.95h12.3v29.78h5.42V58.11z
					 M360.77,48.17v-5.73c0-1.08,0.04-2.53,0.12-4.36c0.08-1.83,0.14-2.79,0.18-2.88h-0.37c-0.76,1.73-1.63,3.35-2.59,4.85
					l-5.46,8.12H360.77z" />
                </g>
            </g>
            <g>
                <g>
                    <g>
                        <path style="fill:none;stroke:#C0CCD8;stroke-linejoin:round;stroke-miterlimit:10;" d="M507.56,219.91h29.26
						c2.83,0,5.12-2.29,5.12-5.12v-29.26c0-2.83-2.29-5.12-5.12-5.12h-29.26c-2.83,0-5.12,2.29-5.12,5.12v29.26
						C502.44,217.62,504.74,219.91,507.56,219.91z" />
                    </g>
                    <g>
                        <g>
                            <path style="fill:#C0CCD8;" d="M534.93,211.25c-0.15,0.05-0.31,0.08-0.47,0.08l-24.52,0.01c-0.51,0-0.99-0.28-1.25-0.72
							c-0.26-0.44-0.26-0.99,0-1.44l12.25-21.24c0.26-0.44,0.73-0.72,1.24-0.72c0.51,0,0.99,0.27,1.25,0.72l12.27,21.23
							c0.26,0.44,0.26,0.99,0,1.44C535.52,210.92,535.25,211.14,534.93,211.25z M510.61,209.51l23.17-0.01l-11.59-20.06
							L510.61,209.51z" />
                        </g>
                        <path style="fill:#C0CCD8;" d="M522.19,205.29L522.19,205.29c-0.46,0-0.85-0.37-0.87-0.83l-0.5-8.36
						c-0.03-0.78,0.58-1.42,1.36-1.42l0,0c0.78,0,1.4,0.65,1.36,1.42l-0.49,8.36C523.04,204.93,522.66,205.29,522.19,205.29z" />
                        <path style="fill:#C0CCD8;" d="M523.08,207.31c0,0.49-0.4,0.88-0.88,0.88c-0.49,0-0.88-0.4-0.88-0.88s0.4-0.88,0.88-0.88
						C522.68,206.43,523.08,206.82,523.08,207.31z" />
                    </g>
                </g>
            </g>
            <path style="fill:none;stroke:#C0CCD8;stroke-linecap:round;stroke-linejoin:round;stroke-miterlimit:10;" d="M4.96,149.33
			c0,1.23-1,2.23-2.23,2.23c-1.23,0-2.23-1-2.23-2.23c0-1.23,1-2.23,2.23-2.23C3.96,147.1,4.96,148.09,4.96,149.33z" />
            <path style="fill:none;stroke:#C0CCD8;stroke-linecap:round;stroke-linejoin:round;stroke-miterlimit:10;" d="M379.33,268.14
			c0,1.23-1,2.23-2.23,2.23c-1.23,0-2.23-1-2.23-2.23c0-1.23,1-2.23,2.23-2.23C378.33,265.91,379.33,266.91,379.33,268.14z" />
            <path style="fill:none;stroke:#C0CCD8;stroke-linecap:round;stroke-linejoin:round;stroke-miterlimit:10;" d="M532.46,85.15
			c0,1.23-1,2.23-2.23,2.23c-1.23,0-2.23-1-2.23-2.23c0-1.23,1-2.23,2.23-2.23C531.46,82.92,532.46,83.92,532.46,85.15z" />
            <path style="fill:none;stroke:#C0CCD8;stroke-linecap:round;stroke-linejoin:round;stroke-miterlimit:10;" d="M412.18,16.23
			c0,1.23-1,2.23-2.23,2.23c-1.23,0-2.23-1-2.23-2.23c0-1.23,1-2.23,2.23-2.23C411.18,14,412.18,15,412.18,16.23z" />
            <g>

                <line style="fill:none;stroke:#C0CCD8;stroke-linecap:round;stroke-linejoin:round;stroke-miterlimit:10;" x1="528" y1="158.03" x2="528" y2="164.93" />

                <line style="fill:none;stroke:#C0CCD8;stroke-linecap:round;stroke-linejoin:round;stroke-miterlimit:10;" x1="531.45" y1="161.48" x2="524.55" y2="161.48" />
            </g>
            <g>

                <line style="fill:none;stroke:#C0CCD8;stroke-linecap:round;stroke-linejoin:round;stroke-miterlimit:10;" x1="347.62" y1="290.96" x2="347.62" y2="297.86" />

                <line style="fill:none;stroke:#C0CCD8;stroke-linecap:round;stroke-linejoin:round;stroke-miterlimit:10;" x1="351.07" y1="294.41" x2="344.16" y2="294.41" />
            </g>
            <g>

                <line style="fill:none;stroke:#C0CCD8;stroke-linecap:round;stroke-linejoin:round;stroke-miterlimit:10;" x1="201.68" y1="3.5" x2="201.68" y2="10.4" />

                <line style="fill:none;stroke:#C0CCD8;stroke-linecap:round;stroke-linejoin:round;stroke-miterlimit:10;" x1="205.13" y1="6.95" x2="198.23" y2="6.95" />
            </g>
            <g>

                <line style="fill:none;stroke:#C0CCD8;stroke-linecap:round;stroke-linejoin:round;stroke-miterlimit:10;" x1="47.21" y1="70.2" x2="47.21" y2="77.1" />

                <line style="fill:none;stroke:#C0CCD8;stroke-linecap:round;stroke-linejoin:round;stroke-miterlimit:10;" x1="50.66" y1="73.65" x2="43.76" y2="73.65" />
            </g>
            <g>

                <line style="fill:none;stroke:#C0CCD8;stroke-linecap:round;stroke-linejoin:round;stroke-miterlimit:10;" x1="35.98" y1="229.07" x2="35.98" y2="235.97" />

                <line style="fill:none;stroke:#C0CCD8;stroke-linecap:round;stroke-linejoin:round;stroke-miterlimit:10;" x1="39.43" y1="232.52" x2="32.53" y2="232.52" />
            </g>
            <g>

                <line style="fill:none;stroke:#C0CCD8;stroke-linecap:round;stroke-linejoin:round;stroke-miterlimit:10;" x1="427.13" y1="42.57" x2="427.13" y2="49.47" />

                <line style="fill:none;stroke:#C0CCD8;stroke-linecap:round;stroke-linejoin:round;stroke-miterlimit:10;" x1="430.58" y1="46.02" x2="423.68" y2="46.02" />
            </g>
            <path style="fill:none;stroke:#C0CCD8;stroke-miterlimit:10;" d="M87.32,189.78H18.27c-1.21,0-2.18-0.98-2.18-2.18l0,0
			c0-1.21,0.98-2.18,2.18-2.18h69.05c1.21,0,2.18,0.98,2.18,2.18l0,0C89.5,188.81,88.52,189.78,87.32,189.78z" />
            <path style="fill:none;stroke:#C0CCD8;stroke-miterlimit:10;" d="M493.88,134.64h-69.05c-1.21,0-2.18-0.98-2.18-2.18l0,0
			c0-1.21,0.98-2.18,2.18-2.18h69.05c1.21,0,2.18,0.98,2.18,2.18l0,0C496.07,133.67,495.09,134.64,493.88,134.64z" />
            <path style="fill:#C0CCD8;" d="M503.99,149.33h-25.53c-0.6,0-1.09-0.49-1.09-1.09l0,0c0-0.6,0.49-1.09,1.09-1.09h25.53
			c0.6,0,1.09,0.49,1.09,1.09l0,0C505.08,148.84,504.59,149.33,503.99,149.33z" />
            <path style="fill:#C0CCD8;" d="M436.44,97.29h-25.53c-0.6,0-1.09-0.49-1.09-1.09l0,0c0-0.6,0.49-1.09,1.09-1.09h25.53
			c0.6,0,1.09,0.49,1.09,1.09l0,0C437.53,96.8,437.04,97.29,436.44,97.29z" />
            <path style="fill:#C0CCD8;" d="M61.65,170.48H42.13c-0.6,0-1.09-0.49-1.09-1.09l0,0c0-0.6,0.49-1.09,1.09-1.09h19.53
			c0.6,0,1.09,0.49,1.09,1.09l0,0C62.75,169.99,62.26,170.48,61.65,170.48z" />
            <g>
                <path style="fill:none;stroke:#C0CCD8;stroke-linejoin:round;stroke-miterlimit:10;" d="M455.76,74.1h21.14
				c2.04,0,3.7-1.66,3.7-3.7V49.26c0-2.04-1.66-3.7-3.7-3.7h-21.14c-2.04,0-3.7,1.66-3.7,3.7V70.4
				C452.07,72.45,453.72,74.1,455.76,74.1z" />
                <g>
                    <g>
                        <path style="fill:#C0CCD8;" d="M470.38,58.63l-0.5,2.45h2.73v2.18h-3.14l-0.81,4.29h-2.32l0.82-4.29h-3l-0.8,4.29h-2.27
						l0.78-4.29h-2.51v-2.18h2.93l0.5-2.45h-2.66v-2.21h3.05l0.81-4.3h2.31l-0.81,4.3h3.05l0.82-4.3h2.27l-0.82,4.3h2.54v2.21
						H470.38z M464.56,61.08h3.02l0.5-2.45h-3.02L464.56,61.08z" />
                    </g>
                </g>
            </g>
        </g>
        <g>
            <g>
                <path style="fill:#475577;" d="M226.01,271.54l-20.05-131.49h-90.3l21.64,139.34c1.47,9.44,9.34,16.09,19.06,16.09H308.2
				l1.12-12.77H239.2C232.46,282.71,227.01,278.09,226.01,271.54z" />
                <path style="fill:#717A91;" d="M140.55,271.54l-19.31-126.63c-0.44-2.85-2.81-4.87-5.75-4.87h-0.18c-4.11,0-7.48,3.85-6.86,7.85
				l20.43,131.49c1.47,9.44,9.34,16.09,19.06,16.09h97.79l1.12-12.77h-93.12C147,282.71,141.55,278.09,140.55,271.54z" />
                <g>
                    <g>
                        <g>

                            <line style="fill:none;stroke:#544943;stroke-width:1.5;stroke-miterlimit:10;" x1="201.68" y1="295.48" x2="201.68" y2="367.25" />
                        </g>
                        <g>
                            <g>
                                <path style="fill:none;stroke:#544943;stroke-width:1.5;stroke-miterlimit:10;" d="M161.44,373.59L161.44,373.59
								c0-3.5,2.84-6.34,6.34-6.34h67.79c3.5,0,6.34,2.84,6.34,6.34v0" />
                            </g>
                            <g>
                                <path style="fill:none;stroke:#544943;stroke-width:1.5;stroke-miterlimit:10;" d="M194.74,373.59L194.74,373.59
								c0-3.5,2.84-6.34,6.34-6.34" />
                            </g>
                            <g>
                                <g>
                                    <path style="fill:#717A91;" d="M167.84,379.99c0,3.54-2.87,6.4-6.4,6.4c-3.54,0-6.4-2.87-6.4-6.4c0-3.54,2.87-6.4,6.4-6.4
									C164.98,373.59,167.84,376.46,167.84,379.99z" />
                                </g>
                                <g style="opacity:0.45;">
                                    <path style="fill:#8E9DB2;" d="M163.79,379.99c0,1.3-1.05,2.35-2.35,2.35s-2.35-1.05-2.35-2.35c0-1.3,1.05-2.35,2.35-2.35
									S163.79,378.7,163.79,379.99z" />
                                </g>
                            </g>
                            <g>
                                <path style="fill:#717A91;" d="M201.14,379.99c0,3.54-2.87,6.4-6.4,6.4c-3.54,0-6.4-2.87-6.4-6.4c0-3.54,2.87-6.4,6.4-6.4
								C198.28,373.59,201.14,376.46,201.14,379.99z" />
                            </g>
                            <g style="opacity:0.45;">
                                <path style="fill:#8E9DB2;" d="M197.09,379.99c0,1.3-1.05,2.35-2.35,2.35c-1.3,0-2.35-1.05-2.35-2.35
								c0-1.3,1.05-2.35,2.35-2.35C196.04,377.64,197.09,378.7,197.09,379.99z" />
                            </g>
                            <g>
                                <g>
                                    <path style="fill:#717A91;" d="M248.31,379.99c0,3.54-2.87,6.4-6.4,6.4c-3.54,0-6.4-2.87-6.4-6.4c0-3.54,2.87-6.4,6.4-6.4
									C245.45,373.59,248.31,376.46,248.31,379.99z" />
                                </g>
                                <g style="opacity:0.45;">
                                    <path style="fill:#8E9DB2;" d="M244.26,379.99c0,1.3-1.05,2.35-2.35,2.35s-2.35-1.05-2.35-2.35c0-1.3,1.05-2.35,2.35-2.35
									S244.26,378.7,244.26,379.99z" />
                                </g>
                            </g>
                        </g>
                    </g>
                </g>
            </g>
            <g>
                <g>
                    <path style="fill:#FFCBBB;" d="M272.25,154.16l22.89-34.19l7.09,1.48c-5.42,18.25-9,25.47-9,25.47" />
                    <path style="fill:#FFCBBB;" d="M298.58,127.11l3.65-5.66c0,0,6.79-1.56,9.26-2.82c2.47-1.26,4.11-3.49,4.8-5.38
					c0.53-1.45,0.3-5.69-0.32-5.76c-1.46-0.16-4.37,5.28-5.74,5.6c-1.36,0.32-5.79-0.01-8.22,0.31c-4.09,0.54-5.82,4.37-5.82,4.37
					l-3.74,6.79" />
                    <polyline style="fill:#E6E8EF;" points="287.21,129.98 291.23,124.16 301.62,128.82 298.32,137.67 				" />
                    <path style="fill:#B9B5B2;" d="M203.71,117.79c0,0,16.95-7.8,31.87,5.48c14.93,13.28,25.03,25.61,30.51,29.61l22.49-25.87
					l12.56,5.9c-3.31,18.73-12.61,48.61-35.35,51.69c-24.61,3.33-60.7-27.01-60.7-27.01" />
                    <line style="fill:none;stroke:#846A6A;stroke-miterlimit:10;" x1="258.79" y1="161.48" x2="266.09" y2="152.88" />
                </g>
                <path style="fill:#173789;" d="M294.74,375.58l-1.9,7.31c-0.46,1.77,0.88,3.51,2.71,3.51h22.14c1.33,0,2.41-1.08,2.41-2.41l0,0
				c0-1.05-0.68-1.98-1.68-2.3l-15.13-6.11" />
                <path style="fill:#FFCBBB;" d="M281.98,261.44c-3.54,37.15,12.76,114.14,12.76,114.14s3.87,4.68,8.55,0
				c0,0,3.93-73.41,8.06-106.41" />
                <path style="fill:#FCA32D;" d="M229.17,217.93l25.41,13.33v0.26c0,0,51.85-3.48,59.7,15.03
				c12.28,28.99,14.37,123.27,14.37,123.27h-37.95c0,0-14.13-79.19-18.95-84.02c-4.83-4.83-24.74-4.47-61.36-4.47
				c-41.13,0-21.05-53.03-5.74-57.58" />
                <path style="fill:none;stroke:#CE680D;stroke-miterlimit:10;" d="M293.32,369.81c0,0-11.28-81.72-19.57-87.71
				c-10.12-7.32-57.92-2.54-57.92-2.54" />
                <path style="fill:#173789;" d="M215.16,375.58l-1.9,7.31c-0.46,1.77,0.88,3.51,2.71,3.51h22.14c1.33,0,2.41-1.08,2.41-2.41l0,0
				c0-1.05-0.68-1.98-1.68-2.3l-15.13-6.11" />
                <path style="fill:#FFCBBB;" d="M218.85,261.44c-3.54,37.15-3.69,114.14-3.69,114.14s3.87,4.68,8.55,0
				c0,0,13.32-73.41,17.46-106.41" />
                <g>
                    <path style="fill:#FFB548;" d="M184.35,229.59c0,0,66.65,1.07,75.37,21.27c10.72,24.83-6.95,118.95-6.95,118.95h-40.17v-84.2
					c0-1.63-1.28-3.1-2.91-3.05c-5.56,0.15-17.98,0.15-33.74,0.15c-41.13,0-21.05-64.01-5.74-68.56" />
                    <path style="fill:none;stroke:#CE680D;stroke-miterlimit:10;" d="M184.35,229.59c0,0,66.65,1.07,75.37,21.27
					c2.91,6.73,4.42,18.19,3.64,31.85" />
                    <path style="fill:none;stroke:#ED841B;stroke-miterlimit:10;" d="M218.19,369.81c0,0,0.41-84.52-1.53-89.04
					c-2.7-6.27-11.91-3.19-33.27-3.19c-41.13,0-24.37-58.88-9.06-63.43" />
                    <path style="fill:none;stroke:#ED841B;stroke-miterlimit:10;" d="M158.74,239.88c0,0,21.12,0.51,24.31-2.69s0-17.7,0-17.7" />
                    <path style="fill:none;stroke:#ED841B;stroke-miterlimit:10;stroke-dasharray:3,2;" d="M158.22,242.72
					c0,0,24.11,0.51,27.76-2.69s0-17.73,0-17.73" />
                </g>
                <g>
                    <path style="fill:#B9B5B2;" d="M154.15,141.61c0,0-5.06,89.9,2.6,89.9c7.66,0,92.83-0.26,97.82-0.26s-6.69-76.88-23.51-93.12
					c0,0-24.95-27.07-35.94-24.48C184.12,116.25,154.15,141.61,154.15,141.61z" />
                    <line style="fill:none;stroke:#846A6A;stroke-miterlimit:10;" x1="249.17" y1="182.5" x2="238.59" y2="139.15" />
                </g>
                <g>
                    <path style="fill:#FFCBBB;" d="M111.07,157.89L88.18,123.7l-7.09,1.48c5.42,18.25,9,25.47,9,25.47" />
                    <path style="fill:#FFCBBB;" d="M84.74,130.84l-3.65-5.66c0,0-6.79-1.56-9.26-2.82c-2.47-1.26-4.11-3.49-4.8-5.38
					c-0.53-1.45-0.3-5.69,0.32-5.76c1.46-0.16,4.37,5.28,5.74,5.6c1.36,0.32,5.78-0.01,8.22,0.31c4.09,0.54,5.82,4.37,5.82,4.37
					l3.74,6.79" />
                    <polyline style="fill:#E6E8EF;" points="96.11,133.71 92.09,127.89 81.7,132.55 85,141.4 				" />
                    <path style="fill:#B9B5B2;" d="M185.63,118.31c0,0-16.75-11.91-34.04,2.72c-16.12,13.63-26.86,41.14-30.46,41.14
					c-2.5,0-18.01-19.78-27.27-31.88l-11.01,5.89c6.94,21.19,22.07,57.24,44.71,57.24c17.76,0,54.24-41.61,54.24-41.61" />
                    <line style="fill:none;stroke:#846A6A;stroke-miterlimit:10;" x1="152.69" y1="180.1" x2="179.69" y2="157.59" />
                </g>
                <g>
                    <polyline style="fill:#E6E8EF;stroke:#846A6A;stroke-linejoin:round;stroke-miterlimit:10;" points="187.24,120.43 
					203.33,137.67 205.44,117.74 				" />
                    <path style="fill:#FFCBBB;" d="M200.16,103.02l4.53,9.92c0,0,1.82,5.68-5.72,8.26c-8.27,2.82-13.34-2.9-13.34-2.9l-1.19-15.57" />
                    <path style="fill:#FFFFFF;" d="M185.19,112.64c0,0,5.96,7.46,13.78,8.57l-5.68,8.43c-4.6-2.59-10.23-12.65-10.23-12.65
					L185.19,112.64z" />
                    <path style="fill:#FFFFFF;" d="M204.22,111.58c0,0-0.95,5.33-5.25,9.62l6.47,4.89c1.49-3.66,1.32-9.36,1.32-9.36L204.22,111.58z
					" />
                    <path style="fill:#FFCBBB;" d="M206.87,87c0,0,4.27,16.36-2.14,20.5c-6.42,4.14-17.58-2.16-18.22-4.21
					c-0.64-2.05-3.56-19.52,0.63-20.83C194.58,80.13,204.69,80.03,206.87,87z" />
                    <g>
                        <g>
                            <path style="fill:#173789;" d="M206.73,92.31c0.11,0.45-0.17,0.9-0.62,1c-0.45,0.11-0.9-0.17-1-0.62
							c-0.11-0.45,0.17-0.9,0.62-1C206.18,91.58,206.63,91.86,206.73,92.31z" />
                            <g>
                                <path style="fill:#173789;" d="M205.3,87.44c0.28,0.04,1.54,0.17,1.27,0.79c-0.12,0.28-0.56,0.27-0.8,0.25
								c-0.26-0.01-0.52-0.05-0.76,0.03c0.07,0.07,0.12,0.16,0.16,0.25c0.08,0.19-0.54,0.21-0.61,0.21c-0.62,0-1.36-0.11-2.11,0.39
								C202.94,87.59,204.85,87.37,205.3,87.44z" />
                            </g>
                            <path style="fill:#173789;" d="M196.45,94.58c0.03,0.46,0.42,0.81,0.88,0.79c0.46-0.03,0.81-0.42,0.79-0.88
							c-0.03-0.46-0.42-0.81-0.88-0.79C196.78,93.72,196.42,94.12,196.45,94.58z" />
                            <g>
                                <path style="fill:#173789;" d="M193.98,91.27c-0.6,0.32-1.11,0.76-0.97,1.26c0.11,0.4,0.5,0.3,0.75,0.1
								c0.41-0.32,0.87-0.57,1.37-0.73c-0.22,0.18-0.35,0.47-0.33,0.75c1.56-0.15,2.92-1.5,3.09-3.06c-0.01,0.11-1.02,0.73-1.17,0.8
								C195.83,90.81,194.85,90.8,193.98,91.27z" />
                            </g>
                        </g>
                        <path style="fill:none;stroke:#EF977F;stroke-miterlimit:10;" d="M202.58,93.29c0,0,2.28,5.74,1.47,6.24
						c-0.81,0.5-3.67,0.43-3.67,0.43" />
                    </g>
                    <path style="fill:none;stroke:#EF977F;stroke-miterlimit:10;" d="M202.66,108.45c0,0-6.5,2.51-12.21-2.05" />
                    <path style="fill:none;stroke:#EF977F;stroke-miterlimit:10;" d="M198.97,104.61c0,0,0.58-2.53,4.74-2.53" />
                    <g>
                        <path style="fill:#173789;" d="M210.49,78.22c-0.07-0.78-0.19-1.61-0.73-2.17c-0.61-0.65-1.6-0.78-2.49-0.79
						c-3.14-0.02-6.27,0.98-8.82,2.81c0.7-0.61,1.39-1.21,2.09-1.82c0.55-0.48,1.79-1.24,1.19-2.14c-0.52-0.79-2.01-0.34-2.77-0.35
						c-3.58-0.04-7.03,1.23-10.33,2.5c-1.63,0.62-3.26,1.26-4.73,2.19c-1.47,0.93-2.78,2.2-3.49,3.79
						c-0.62,1.39-0.74,2.96-0.73,4.48c0.02,2.74,0.45,5.46,0.88,8.17c0.47,2.95,1.18,8.77,5.14,9.13c0.77,0.07,1.61,0.12,2.24-0.34
						c0.62-0.45,0.83-1.26,0.93-2.02c0.15-1.23,0.06-2.49-0.23-3.69c0.74,0.4,1.45,1.08,2.28,0.95c0.28-0.04,0.56-0.19,0.65-0.45
						c0.06-0.17,0.04-0.35,0.02-0.53c-0.31-2.83-0.48-5.64-0.66-8.48c4.06-0.86,8.14-1.6,12.25-2.22c1.82-0.27,3.75-0.57,5.16-1.75
						C210.37,83.81,210.71,80.84,210.49,78.22z" />
                    </g>
                    <g>
                        <path style="fill:#FFCBBB;" d="M189.51,99.07c-0.67-1.66-1.85-3.67-3.7-2.54c-0.65,0.4-1.02,1.25-1.27,2.08
						c-0.85,2.75,1.13,6.99,3.82,6.59c1.31-0.19,2.04-1.75,2.58-3.04" />
                    </g>
                </g>
            </g>
        </g>
        <g>
            <g>
                <path style="fill:#8EBCA2;" d="M434.67,277.71c-0.01-8.91,3.8-17.75,10.28-23.86c3.2-3.01,7.02-5.34,11.14-6.85
				c2.32-0.86,13.45-1.7,13.45-1.7s-1.3,8.49-3.51,12.77C460.86,268.05,450.64,276.44,434.67,277.71" />
            </g>
            <g>
                <path style="fill:#A2CCB6;" d="M467.39,303.06c4.02-4.93,9.84-8.37,16.1-9.52c6.26-1.15,12.92,0,18.43,3.18
				c0.18,0.1,0.37,0.23,0.42,0.43c0.06,0.24-0.11,0.47-0.28,0.65c-5.17,5.79-13.19,8.91-20.91,8.14
				C477.76,305.6,470.64,304.11,467.39,303.06" />
            </g>
            <g>
                <path style="fill:#8EBCA2;" d="M476.33,289.52c0.01-7.77,2.59-14.74,7.15-19.3c4.56-4.56,11.06-6.68,17.99-5.86
				c0.23,0.03,0.48,0.07,0.66,0.28c0.22,0.25,0.23,0.6,0.21,0.89c-0.39,9.35-5.08,17.09-12.23,20.2
				C486.98,287.09,479.84,289.05,476.33,289.52" />
            </g>
            <g>
                <path style="fill:#A2CCB6;" d="M488.39,275.63c3.08-4.96,6.82-9.5,11.1-13.46c1.72-1.59,3.54-3.11,5.61-4.22
				c6.69-3.59,14.94-2.48,22.13-0.05c-2.86,5.43-6.59,10.75-12.08,13.5c-2.43,1.22-5.09,1.88-7.74,2.47
				C502.14,275.04,493.74,274.93,488.39,275.63" />
            </g>
            <g>
                <path style="fill:#8EBCA2;" d="M484.57,262.66c-13.38-7.01-15.36-21.63-15.7-27.04c-0.21-3.39,0.01-7.16,2.83-9.6
				C488.29,231.86,492.52,243.08,484.57,262.66" />
            </g>
            <g>
                <path style="fill:#8EBCA2;" d="M426.9,260.55c1.04-7.12,2-14.77-1.24-21.2c-1.16-2.3-2.81-4.33-4.61-6.18
				c-4.35-4.48-10.05-8.18-16.29-8.19c-1.12,6.67,0.23,13.73,3.75,19.51c3.51,5.78,9.15,10.24,15.59,12.31" />
            </g>
            <g>
                <path style="fill:#A2CCB6;" d="M465.82,307.12c-7.46-2.49-13.8-8.17-17.09-15.32c-3.29-7.14-3.5-15.65-0.55-22.94
				c0.13-0.32,0.3-0.68,0.64-0.79c0.32-0.1,0.65,0.06,0.94,0.23C461.3,274.94,469.19,294.24,465.82,307.12" />
            </g>
            <g>
                <path style="fill:#A2CCB6;" d="M434.45,267.79c-2.15-6.23-2.04-13.21,0.32-19.37c2.36-6.15,6.94-11.43,12.7-14.62
				c2.35-1.3,4.9-2.28,6.99-3.98c0.71,3.13,1.18,6.31,1.42,9.51c0.24,3.16,0.23,6.39-0.61,9.45c-2.17,7.91-9.46,13.29-16.78,16.98" />
            </g>
            <g>
                <path style="fill:#A2CCB6;" d="M424.78,266.59c-12.02,1.46-26.81-3.39-33.24-14.71C412.09,241.43,424.78,257.41,424.78,266.59" />
            </g>
            <g>
                <path style="fill:#A2CCB6;" d="M431.8,293.4c-2.69-9.23-9.79-16.8-18.33-19.56c-8.54-2.77-18.29-0.65-25.2,5.47
				c-0.29,0.25-0.6,0.58-0.57,0.98c0.02,0.24,0.15,0.45,0.28,0.64c4.59,6.64,11.92,10.56,19.41,12.21
				c7.49,1.65,15.23,1.26,22.86,0.69" />
            </g>
            <g>
                <g>
                    <path style="fill:#597F6E;" d="M416.35,244.2c4.69,4.61,8.09,10.32,10.69,16.33c2.77,6.42,4.78,13.19,6.51,19.95
					c3.69,14.37,5.79,29.08,7.27,43.82c0.83,8.28,1.38,16.59,2.32,24.86c0.03,0.27,0.44,0.28,0.43,0
					c-0.32-7.51-0.99-15.02-1.73-22.5c-0.73-7.44-1.59-14.87-2.72-22.26c-1.13-7.41-2.53-14.78-4.35-22.06
					c-1.7-6.81-3.68-13.63-6.37-20.12c-2.79-6.74-6.47-13.21-11.84-18.23C416.41,243.87,416.21,244.07,416.35,244.2L416.35,244.2z" />
                </g>
            </g>
            <g>
                <g>
                    <path style="fill:#597F6E;" d="M438.45,301.15c-3.54-5.86-9.13-9.86-15.17-12.85c-6.69-3.31-13.88-5.63-21.26-6.77
					c-4.05-0.63-8.26-1.05-12.36-0.72c-0.23,0.02-0.24,0.36,0,0.37c3.71,0.18,7.39,0.29,11.07,0.81c3.56,0.5,7.08,1.27,10.52,2.29
					c3.51,1.04,6.95,2.33,10.27,3.88c3.06,1.43,6.07,3.03,8.78,5.06c3.04,2.28,5.55,5.07,7.72,8.18
					C438.2,301.65,438.61,301.42,438.45,301.15L438.45,301.15z" />
                </g>
            </g>
            <g>
                <g>
                    <path style="fill:#597F6E;" d="M434.81,283.6c0.04-5.53-0.56-11.03-0.07-16.55c0.46-5.14,1.81-10.3,4.01-14.97
					c1.21-2.58,2.76-4.9,4.39-7.23c0.11-0.16-0.13-0.34-0.26-0.2c-1.73,1.81-3.1,4.05-4.22,6.28c-1.15,2.27-2.06,4.66-2.78,7.1
					c-1.52,5.16-1.99,10.46-1.87,15.82c0.07,3.25,0.23,6.53,0.58,9.77C434.6,283.75,434.81,283.75,434.81,283.6L434.81,283.6z" />
                </g>
            </g>
            <g>
                <g>
                    <path style="fill:#597F6E;" d="M406.92,255.74c3.66,0.38,7.02,2.44,9.97,4.52c3.52,2.49,6.72,5.4,9.88,8.32
					c1.62,1.5,3.2,3.07,4.91,4.47c0.16,0.13,0.38-0.08,0.23-0.23c-2.97-2.98-6.16-5.82-9.36-8.54c-3.16-2.69-6.51-5.34-10.29-7.11
					c-1.69-0.79-3.47-1.39-5.34-1.53C406.86,255.64,406.86,255.74,406.92,255.74L406.92,255.74z" />
                </g>
            </g>
            <g>
                <g>
                    <path style="fill:#597F6E;" d="M461.14,324.73c1.07-5.67,2.45-11.2,4.59-16.57c2.12-5.31,4.83-10.39,8.02-15.14
					c6.4-9.49,14.78-17.65,24.49-23.72c2.72-1.7,5.53-3.23,8.44-4.58c2.95-1.37,5.99-2.44,9.04-3.58c0.29-0.11,0.18-0.55-0.13-0.47
					c-2.76,0.71-5.47,1.81-8.07,2.97c-2.65,1.18-5.23,2.51-7.73,3.98c-4.97,2.93-9.62,6.4-13.86,10.32
					c-8.5,7.86-15.38,17.51-19.92,28.16c-2.51,5.89-4.48,12.19-5.23,18.57C460.75,324.88,461.1,324.93,461.14,324.73L461.14,324.73z
					" />
                </g>
            </g>
            <g>
                <g>
                    <path style="fill:#597F6E;" d="M477.39,237.35c5.35,11.16,8.54,24.29,6.07,36.62c-0.72,3.57-1.99,6.91-3.56,10.19
					c-0.14,0.3,0.27,0.56,0.45,0.26c3.38-5.51,4.63-12.34,4.65-18.73c0.02-6.5-1.22-12.97-3.29-19.12c-1.09-3.24-2.42-6.4-3.97-9.45
					C477.63,236.9,477.28,237.11,477.39,237.35L477.39,237.35z" />
                </g>
            </g>
            <path id="XMLID_547_" style="fill:#F2F5F9;" d="M486.55,315.01v11.72c0,46.46-12.23,59.67-12.23,59.67h-37.87
			c0,0-12.23-13.21-12.23-59.67v-11.72H486.55z" />
        </g>
        <g>
            <g>
                <line style="fill:none;stroke:#544943;stroke-width:1.5;stroke-miterlimit:10;" x1="79.87" y1="386.4" x2="111.98" y2="232.41" />
                <line style="fill:none;stroke:#544943;stroke-width:1.5;stroke-miterlimit:10;" x1="144.1" y1="386.4" x2="111.98" y2="232.41" />
            </g>
            <g>

                <line style="fill:none;stroke:#544943;stroke-width:1.5;stroke-miterlimit:10;" x1="404.24" y1="386.4" x2="436.36" y2="232.41" />

                <line style="fill:none;stroke:#544943;stroke-width:1.5;stroke-miterlimit:10;" x1="468.47" y1="386.4" x2="436.36" y2="232.41" />
            </g>
            <rect x="80.91" y="223.19" style="fill:#E7EAF2;" width="383.62" height="9.21" />
            <g>
                <path style="fill:#475577;" d="M446.04,205.63H310.47c-2.42,0-4.25-2.19-3.83-4.57l15.58-87.61c0.49-2.78,2.91-4.8,5.73-4.8
				h135.57c2.42,0,4.25,2.19,3.83,4.57l-15.58,87.61C451.27,203.61,448.86,205.63,446.04,205.63z" />
                <path style="fill:#C0CCD8;" d="M449.19,205.63H313.62c-2.42,0-4.25-2.19-3.83-4.57l15.58-87.61c0.49-2.78,2.91-4.8,5.73-4.8
				h135.57c2.42,0,4.25,2.19,3.83,4.57l-15.58,87.61C454.42,203.61,452.01,205.63,449.19,205.63z" />
                <path style="opacity:0.45;fill:#8E9DB2;" d="M424.25,205.63h-78.3c-1.4,0-2.45-1.26-2.21-2.64l9-50.6
				c0.29-1.6,1.68-2.77,3.31-2.77h78.3c1.4,0,2.45,1.26,2.21,2.64l-9,50.6C427.27,204.47,425.88,205.63,424.25,205.63z" />
                <path style="fill:#C6D2E0;" d="M426.12,205.63h-78.3c-1.4,0-2.45-1.26-2.21-2.64l9-50.6c0.29-1.6,1.68-2.77,3.31-2.77h78.3
				c1.4,0,2.45,1.26,2.21,2.64l-9,50.6C429.14,204.47,427.75,205.63,426.12,205.63z" />
                <rect x="376.99" y="175.87" style="fill:#8E9DB2;" width="31.78" height="29.76" />
                <path style="fill:#475577;" d="M406.95,175.87h-29.96v8.55l8.18,33.94h31.8L406.95,175.87z M399.26,209.31
				c-3.56,0-7.33-4.15-8.41-9.28c-1.08-5.12,0.93-9.28,4.49-9.28c3.56,0,7.33,4.15,8.41,9.28S402.82,209.31,399.26,209.31z" />
                <path style="fill:#475577;" d="M359.46,218.36h71.18v4.83h-76.02l0,0C354.63,220.53,356.79,218.36,359.46,218.36z" />
                <rect x="373.74" y="218.36" style="fill:#C0CCD8;" width="56.91" height="4.83" />
                <path style="fill:#C0CCD8;" d="M408.79,175.87h-31.8l10.02,42.49h31.8L408.79,175.87z M400.98,209.31
				c-3.56,0-7.33-4.15-8.41-9.28c-1.08-5.12,0.93-9.28,4.49-9.28c3.56,0,7.33,4.15,8.41,9.28
				C406.55,205.15,404.54,209.31,400.98,209.31z" />
                <g style="opacity:0.65;">
                    <polygon style="fill:#8E9DB2;" points="334.54,117.28 332.65,127.88 334.54,127.88 336.42,117.28 				" />
                    <polygon style="fill:#8E9DB2;" points="339.99,117.28 338.1,127.88 339.99,127.88 341.87,117.28 				" />
                    <polygon style="fill:#8E9DB2;" points="345.44,117.28 343.55,127.88 345.44,127.88 347.32,117.28 				" />
                    <polygon style="fill:#8E9DB2;" points="350.89,117.28 349,127.88 350.89,127.88 352.77,117.28 				" />
                    <polygon style="fill:#8E9DB2;" points="356.34,117.28 354.45,127.88 356.34,127.88 358.22,117.28 				" />
                </g>
                <g style="opacity:0.65;">
                    <polygon style="fill:#8E9DB2;" points="406.07,117.28 404.18,127.88 406.07,127.88 407.95,117.28 				" />
                    <polygon style="fill:#8E9DB2;" points="411.79,117.28 409.91,127.88 411.79,127.88 413.68,117.28 				" />
                    <polygon style="fill:#8E9DB2;" points="417.52,117.28 415.64,127.88 417.52,127.88 419.4,117.28 				" />
                    <polygon style="fill:#8E9DB2;" points="423.25,117.28 421.36,127.88 423.25,127.88 425.13,117.28 				" />
                    <polygon style="fill:#8E9DB2;" points="428.97,117.28 427.09,127.88 428.97,127.88 430.86,117.28 				" />
                    <polygon style="fill:#8E9DB2;" points="434.7,117.28 432.82,127.88 434.7,127.88 436.58,117.28 				" />
                    <polygon style="fill:#8E9DB2;" points="440.43,117.28 438.54,127.88 440.43,127.88 442.31,117.28 				" />
                    <polygon style="fill:#8E9DB2;" points="446.15,117.28 444.27,127.88 446.15,127.88 448.04,117.28 				" />
                    <polygon style="fill:#8E9DB2;" points="451.88,117.28 450,127.88 451.88,127.88 453.76,117.28 				" />
                    <polygon style="fill:#8E9DB2;" points="457.61,117.28 455.73,127.88 457.61,127.88 459.49,117.28 				" />
                </g>
            </g>
            <g>
                <g style="opacity:0.55;">
                    <linearGradient id="SVGID_1_" gradientUnits="userSpaceOnUse" x1="201.6402" y1="199.1878" x2="201.6402" y2="171.5832">
                        <stop offset="0" style="stop-color:#FFFFFF;stop-opacity:0.1" />
                        <stop offset="1" style="stop-color:#FFFFFF;stop-opacity:0.4" />
                    </linearGradient>
                    <path style="fill:url(#SVGID_1_);" d="M188.97,199.19c0,0,0.88-0.16,1.24-0.66c0.74-1.03-0.49-2.12-1.29-2.64
					c-1.03-0.66-2.44-0.88-2.94-2.14c-0.56-1.42,0.41-3,1.58-3.78c0.99-0.65,2.15-0.98,3.26-1.4c1.24-0.46,2.49-1.21,3.21-2.37
					c0.9-1.45,0.72-3.31,0.84-4.94c0.46-6.38,6.99-9.55,12.48-9.68c2.75-0.07,6.95,0.92,8.77,3.05c0.61,0.72,1.08,1.57,1.25,2.5
					c0.27,1.44-0.29,2.77-1.22,3.84c-0.94,1.08-2.24,1.71-3.27,2.68c-1.07,1-0.31,2.06-0.55,3.26c-0.27,1.33-1.16,1.9-2.32,2.54
					c-2.44,1.36-5.31,1.7-7.96,2.44c-0.83,0.23-1.66,0.51-2.33,1.05c-0.87,0.7-1.36,1.74-2.01,2.64c-1.2,1.63-3.01,2.8-4.99,3.2" />
                </g>
                <g>
                    <g>
                        <path style="fill:#E8EAEF;" d="M204.25,215.25h-5.21v-2.49h5.21c1.68,0,3.05-1.37,3.05-3.05v-4.28c0-1.68-1.37-3.05-3.05-3.05
						h-5.21v-2.49h5.21c3.05,0,5.53,2.48,5.53,5.53v4.28C209.79,212.77,207.3,215.25,204.25,215.25z" />
                    </g>
                </g>
                <path style="fill:#E8EAEF;" d="M196.83,221.8h-8.79c-3.38,0-6.12-2.74-6.12-6.12v-19.29h21.04v19.29
				C202.95,219.05,200.21,221.8,196.83,221.8z" />
                <path style="fill:#C6D2E0;" d="M178.51,218.25c0,0,0.2,4.95,7.89,4.95h12.06c7.69,0,7.89-4.95,7.89-4.95H178.51z" />
            </g>
            <g id="XMLID_30_">
                <g id="XMLID_96_">
                    <g>
                        <rect id="XMLID_105_" x="236.27" y="221.22" style="fill:#475577;" width="111.28" height="1.98" />
                        <rect id="XMLID_104_" x="240.07" y="219.62" style="fill:#475577;" width="7.97" height="1.6" />
                        <rect id="XMLID_103_" x="252.14" y="219.62" style="fill:#475577;" width="7.97" height="1.6" />
                        <rect id="XMLID_102_" x="264.21" y="219.62" style="fill:#475577;" width="7.97" height="1.6" />
                        <rect id="XMLID_101_" x="276.28" y="219.62" style="fill:#475577;" width="7.97" height="1.6" />
                        <rect id="XMLID_100_" x="288.36" y="219.62" style="fill:#475577;" width="7.97" height="1.6" />
                        <rect id="XMLID_99_" x="300.43" y="219.62" style="fill:#475577;" width="7.97" height="1.6" />
                        <rect id="XMLID_98_" x="312.5" y="219.62" style="fill:#475577;" width="7.97" height="1.6" />
                        <rect id="XMLID_97_" x="324.57" y="219.62" style="fill:#475577;" width="7.97" height="1.6" />
                        <rect id="XMLID_94_" x="336.64" y="219.62" style="fill:#475577;" width="7.97" height="1.6" />
                    </g>
                </g>
                <g id="XMLID_51_">
                    <g>
                        <rect id="XMLID_93_" x="237.72" y="221.22" style="fill:#C0CCD8;" width="111.28" height="1.98" />
                        <rect id="XMLID_92_" x="241.53" y="219.62" style="fill:#C0CCD8;" width="7.97" height="1.6" />
                        <rect id="XMLID_91_" x="253.6" y="219.62" style="fill:#C0CCD8;" width="7.97" height="1.6" />
                        <rect id="XMLID_90_" x="265.67" y="219.62" style="fill:#C0CCD8;" width="7.97" height="1.6" />
                        <rect id="XMLID_89_" x="277.74" y="219.62" style="fill:#C0CCD8;" width="7.97" height="1.6" />
                        <rect id="XMLID_88_" x="289.81" y="219.62" style="fill:#C0CCD8;" width="7.97" height="1.6" />
                        <rect id="XMLID_87_" x="301.88" y="219.62" style="fill:#C0CCD8;" width="7.97" height="1.6" />
                        <rect id="XMLID_86_" x="313.95" y="219.62" style="fill:#C0CCD8;" width="7.97" height="1.6" />
                        <rect id="XMLID_85_" x="326.03" y="219.62" style="fill:#C0CCD8;" width="7.97" height="1.6" />
                        <rect id="XMLID_84_" x="338.1" y="219.62" style="fill:#C0CCD8;" width="7.97" height="1.6" />
                    </g>
                </g>
            </g>
        </g>
        <g>
            <g>
                <path style="fill:#8EBCA2;" d="M79.38,297.84c1.38-5.49,0.77-11.46-1.7-16.55c-2.47-5.09-6.78-9.27-11.95-11.57
				c-2.11-0.94-4.37-1.59-6.27-2.89c-0.37,2.73-0.54,5.49-0.51,8.24c0.03,2.73,0.27,5.49,1.22,8.04
				c2.44,6.61,9.08,10.67,15.62,13.29" />
            </g>
            <g>
                <g>
                    <path style="fill:#597F6E;" d="M80.18,315.56c0.13-5.02,0.05-10.11-0.33-15.11c-0.17-2.2-0.4-4.43-0.96-6.58
					c-0.68-2.61-1.66-5.18-2.87-7.59c-1.39-2.77-3.17-5.57-5.53-7.63c-0.16-0.14-0.38,0.07-0.24,0.24c1.78,2.14,3.44,4.3,4.77,6.76
					c1.33,2.47,2.35,5.1,3.13,7.8c1.32,4.56,1.34,9.48,1.48,14.19c0.08,2.64,0.06,5.29,0.31,7.92
					C79.96,315.7,80.17,315.71,80.18,315.56L80.18,315.56z" />
                </g>
            </g>
            <g>
                <path style="fill:#8EBCA2;" d="M63.83,332.33c-0.96-7.59-5.17-14.71-11.36-19.21c-3.05-2.22-6.56-3.78-10.24-4.63
				c-2.07-0.48-11.64,0.02-11.64,0.02s2.03,7.09,4.38,10.5C40.46,326.95,50.08,332.98,63.83,332.33" />
            </g>
            <g>
                <path style="fill:#A2CCB6;" d="M55.46,307.89c-0.25-4.59-1.09-9.15-2.5-13.51c-0.57-1.75-1.23-3.49-2.21-5.04
				c-3.16-5.02-9.07-7.36-14.76-8.39c-0.07,4.84,0.48,9.93,3.15,13.91c1.18,1.76,2.72,3.22,4.27,4.63
				C46.49,302.29,52.14,305.39,55.46,307.89" />
            </g>
            <g>
                <path style="fill:#A2CCB6;" d="M87.76,291.16c-0.89-6.12-1.72-12.69,1.07-18.21c1-1.98,2.42-3.72,3.96-5.31
				c3.74-3.85,8.63-7.03,13.99-7.04c0.96,5.73-0.2,11.79-3.22,16.76C100.55,282.34,93.29,289.38,87.76,291.16" />
            </g>
            <g>
                <path style="fill:#A2CCB6;" d="M77.94,326.7c5.69,1.18,11.84-0.09,16.6-3.43s8.04-8.69,8.87-14.44c0.04-0.25,0.06-0.55-0.11-0.74
				c-0.16-0.18-0.44-0.2-0.68-0.2C92.77,307.84,80.57,317.23,77.94,326.7" />
            </g>
            <g>
                <path style="fill:#A2CCB6;" d="M57.71,304.58c8.1-4.56,13.31-13.7,13.46-23.62c-5.85-0.32-10.25,3.27-12.8,6.38
				C54.82,291.66,54.52,299.24,57.71,304.58" />
            </g>
            <g>
                <path style="fill:#A2CCB6;" d="M63.59,320.61c-2.16-5.39-1.48-11.83,1.76-16.65s8.95-7.88,14.76-7.9c0.24,0,0.52,0.02,0.66,0.22
				c0.08,0.12,0.09,0.27,0.1,0.41c0.22,4.98-1.97,9.83-5.11,13.7c-3.14,3.87-7.18,6.89-11.23,9.78" />
            </g>
            <g>
                <g>
                    <path style="fill:#597F6E;" d="M96.64,276.93c-4.14,3.86-7.13,8.73-9.43,13.88c-2.42,5.42-4.16,11.14-5.68,16.87
					c-3.28,12.39-5.09,25.13-6.41,37.86c-0.74,7.22-1.43,14.49-1.7,21.74c-0.01,0.28,0.4,0.27,0.43,0
					c0.76-6.36,1.18-12.77,1.8-19.15c0.61-6.34,1.33-12.67,2.28-18.96c0.94-6.23,2.1-12.43,3.6-18.56
					c1.43-5.87,3.09-11.72,5.3-17.35c2.32-5.92,5.46-11.62,10.02-16.13C96.98,277,96.78,276.8,96.64,276.93L96.64,276.93z" />
                </g>
            </g>
            <g>
                <g>
                    <path style="fill:#597F6E;" d="M63.58,329.18c0.01-1.12-0.1-2.24-0.06-3.36c0.04-1.28,0.15-2.57,0.33-3.84
					c0.17-1.2,0.39-2.39,0.67-3.57c0.25-1.06,0.68-2.13,0.83-3.22c0.03-0.2-0.25-0.22-0.34-0.09c-0.63,0.91-0.88,2.17-1.14,3.23
					c-0.29,1.21-0.5,2.44-0.67,3.67c-0.17,1.27-0.27,2.55-0.3,3.83c-0.03,1.12-0.06,2.33,0.21,3.43
					C63.17,329.51,63.58,329.45,63.58,329.18L63.58,329.18z" />
                </g>
            </g>
            <g>
                <g>
                    <path style="fill:#597F6E;" d="M64.26,287.82c-2.42,2.11-3.89,5.19-4.89,8.2c-1.22,3.69-1.79,7.64-1.65,11.52
					c0.08,2.15,0.33,4.39,1.05,6.43c0.07,0.19,0.36,0.12,0.31-0.09c-0.87-3.75-1.2-7.47-0.78-11.31c0.4-3.63,1.35-7.29,3.03-10.54
					c0.78-1.51,1.75-2.96,3-4.13C64.38,287.85,64.31,287.78,64.26,287.82L64.26,287.82z" />
                </g>
            </g>
            <g>
                <g>
                    <path style="fill:#597F6E;" d="M66.62,357.36c0.14-4.28-0.22-8.61-0.65-12.86c-0.45-4.46-1.12-8.9-2.04-13.28
					c-1.87-8.91-4.76-17.7-9.19-25.68c-1.22-2.2-2.55-4.33-4.01-6.37c-1.45-2.03-3.01-4.11-4.84-5.82c-0.23-0.22-0.53,0.1-0.34,0.34
					c1.42,1.76,2.91,3.44,4.24,5.27c1.31,1.8,2.53,3.67,3.65,5.59c2.29,3.92,4.19,8.05,5.77,12.3c3.13,8.42,5.02,17.28,6.05,26.18
					c0.55,4.77,0.7,9.54,0.97,14.33C66.25,357.6,66.61,357.6,66.62,357.36L66.62,357.36z" />
                </g>
            </g>
            <path id="XMLID_5_" style="fill:#F2F5F9;" d="M99.7,337.7v7.99c0,31.69-10.51,40.7-10.51,40.7H56.66c0,0-10.51-9.01-10.51-40.7
			v-7.99H99.7z" />
        </g>
        <line style="fill:none;stroke:#475577;stroke-width:2;stroke-miterlimit:10;" x1="28.29" y1="386.4" x2="538.74" y2="386.4" />
    </g>
</svg>