<svg xmlns="http://www.w3.org/2000/svg" width="14.8" height="19.9" viewBox="0 0 14.8 19.9"><defs><style>.a{fill:#888;}</style></defs><g transform="translate(-4.6 -2)"><path class="a" d="M16.9,2H6.8A2.2,2.2,0,0,0,4.6,4.1V19.8a2.135,2.135,0,0,0,2.2,2.1H18.9a.472.472,0,0,0,.5-.5V5.8a.472.472,0,0,0-.5-.5H17.4V2.5A.536.536,0,0,0,16.9,2ZM6.8,3h9.6V5.3H6.8A1.2,1.2,0,0,1,5.6,4.2,1.155,1.155,0,0,1,6.8,3ZM18.4,6.3V21H6.8a1.2,1.2,0,0,1-1.2-1.1V6h.1a2.016,2.016,0,0,0,1.1.3H18.4Z"/><path class="a" d="M15.1,11.2h-7a.5.5,0,0,0,0,1h7a.472.472,0,0,0,.5-.5A.642.642,0,0,0,15.1,11.2Z"/><path class="a" d="M15.1,15h-7a.5.5,0,0,0,0,1h7a.472.472,0,0,0,.5-.5A.536.536,0,0,0,15.1,15Z"/></g></svg>