<?xml version="1.0" encoding="utf-8"?>
<!-- Generator: Adobe Illustrator 24.1.3, SVG Export Plug-In . SVG Version: 6.00 Build 0)  -->
<svg version="1.1" id="Layer_1" xmlns="http://www.w3.org/2000/svg" xmlns:xlink="http://www.w3.org/1999/xlink" x="0px" y="0px"
	 width="24px" height="24px" viewBox="0 0 24 24" enable-background="new 0 0 24 24" xml:space="preserve">
<g>
	<path fill="#010101" d="M20.4,8H3.6C3.3,8,3,7.7,3,7.4V3.6C3,3.3,3.3,3,3.6,3h16.7C20.7,3,21,3.3,21,3.6v3.7C21,7.7,20.7,8,20.4,8z
		 M4,4v3h16V4H4z"/>
</g>
<g>
	<path fill="#010101" d="M10.4,21H3.6C3.3,21,3,20.7,3,20.4v-9.7C3,10.3,3.3,10,3.6,10h6.7c0.4,0,0.6,0.3,0.6,0.6v9.7
		C11,20.7,10.7,21,10.4,21z M4,11v9h6v-9H4z"/>
</g>
<g>
	<path fill="#010101" d="M20.4,17h-6.7c-0.4,0-0.6-0.3-0.6-0.6v-5.7c0-0.4,0.3-0.6,0.6-0.6h6.7c0.4,0,0.6,0.3,0.6,0.6v5.7
		C21,16.7,20.7,17,20.4,17z M14,11v5h6v-5H14z"/>
</g>
<g>
	<path fill="#010101" d="M23.4,24H0.6C0.3,24,0,23.7,0,23.4V0.6C0,0.3,0.3,0,0.6,0h22.7C23.7,0,24,0.3,24,0.6v22.7
		C24,23.7,23.7,24,23.4,24z M1,1v22h22V1H1z"/>
</g>
<path fill="#010101" d="M20.5,19h-7c-0.3,0-0.5-0.2-0.5-0.5l0,0c0-0.3,0.2-0.5,0.5-0.5h7c0.3,0,0.5,0.2,0.5,0.5l0,0
	C21,18.8,20.8,19,20.5,19z"/>
<path fill="#010101" d="M20.5,21h-7c-0.3,0-0.5-0.2-0.5-0.5l0,0c0-0.3,0.2-0.5,0.5-0.5h7c0.3,0,0.5,0.2,0.5,0.5l0,0
	C21,20.8,20.8,21,20.5,21z"/>
</svg>
