<?xml version="1.0" encoding="utf-8"?>
<!-- Generator: Adobe Illustrator 24.1.3, SVG Export Plug-In . SVG Version: 6.00 Build 0)  -->
<svg version="1.1" id="Layer_1" xmlns="http://www.w3.org/2000/svg" xmlns:xlink="http://www.w3.org/1999/xlink" x="0px" y="0px"
	 width="20px" height="20px" viewBox="0 0 20 20" enable-background="new 0 0 20 20" xml:space="preserve">
<g>
	<g>
		<path fill="#010101" d="M19.4,17H0.6C0.3,17,0,16.7,0,16.4V0.6C0,0.3,0.3,0,0.6,0h18.7C19.7,0,20,0.3,20,0.6v15.7
			C20,16.7,19.7,17,19.4,17z M1,1v15h18V1H1z"/>
	</g>
	<g>
		<rect x="9" y="17" fill="#010101" width="2" height="2"/>
		<path fill="#010101" d="M13.5,20H6.5C6.3,20,6,19.8,6,19.5v0C6,19.2,6.3,19,6.5,19h6.9c0.3,0,0.5,0.2,0.5,0.5v0
			C14,19.8,13.7,20,13.5,20z"/>
	</g>
</g>
</svg>
