<svg xmlns="http://www.w3.org/2000/svg" width="20" height="14" viewBox="0 0 20 14"><defs><style>.a{fill:#888;}</style></defs><g transform="translate(-2 -5)"><path class="a" d="M21.5,10.2a.472.472,0,0,0,.5-.5V6.6A1.666,1.666,0,0,0,20.3,5H3.7A1.666,1.666,0,0,0,2,6.6V9.7a.472.472,0,0,0,.5.5,1.907,1.907,0,0,1,2,1.8,1.907,1.907,0,0,1-2,1.8.472.472,0,0,0-.5.5v3.1A1.666,1.666,0,0,0,3.7,19H20.2a1.605,1.605,0,0,0,1.7-1.6V14.3a.472.472,0,0,0-.5-.5,1.907,1.907,0,0,1-2-1.8A2.072,2.072,0,0,1,21.5,10.2ZM21,14.7v2.6a.684.684,0,0,1-.7.7H3.7a.684.684,0,0,1-.7-.7V14.7A2.874,2.874,0,0,0,5.5,12,2.874,2.874,0,0,0,3,9.3V6.7A.684.684,0,0,1,3.7,6H20.2a.713.713,0,0,1,.8.7V9.3A2.874,2.874,0,0,0,18.5,12,2.874,2.874,0,0,0,21,14.7Z"/><path class="a" d="M14.8,7.9h0a.367.367,0,0,0-.3-.1h-.1c-.1,0-.2.1-.3.2l-5,7.4c-.1.3-.1.6.1.7a.367.367,0,0,0,.3.1.52.52,0,0,0,.4-.2l5-7.4C15,8.3,15,8,14.8,7.9Z"/><path class="a" d="M11,10a2,2,0,1,0-2,2A2.006,2.006,0,0,0,11,10ZM9,11a.945.945,0,0,1-1-1A.945.945,0,0,1,9,9a.945.945,0,0,1,1,1A.945.945,0,0,1,9,11Z"/><path class="a" d="M15.6,11.7a2,2,0,1,0,2,2A2.006,2.006,0,0,0,15.6,11.7Zm0,3a1,1,0,1,1,1-1A1,1,0,0,1,15.6,14.7Z"/></g></svg>