<svg xmlns="http://www.w3.org/2000/svg" width="20" height="18" viewBox="0 0 20 18"><defs><style>.a{fill:#888;}</style></defs><path class="a" d="M16.4,3a5.5,5.5,0,0,0-4.3,2l-.1.2L11.9,5A5.5,5.5,0,0,0,7.6,3,5.591,5.591,0,0,0,2,8.6C2,11,3.5,12.9,6.3,16a38.658,38.658,0,0,0,5.4,4.8l.3.2.3-.2A45.63,45.63,0,0,0,17.7,16c2.9-3.1,4.3-5,4.3-7.4A5.591,5.591,0,0,0,16.4,3ZM12,19.8l-.1-.1a40.083,40.083,0,0,1-4.8-4.4C4.4,12.4,3,10.7,3,8.6A4.526,4.526,0,0,1,7.6,4a4.474,4.474,0,0,1,4,2.4l.4.7.4-.8a4.474,4.474,0,0,1,4-2.4A4.673,4.673,0,0,1,21,8.6c0,2.1-1.4,3.8-4.1,6.7a40.084,40.084,0,0,1-4.8,4.4Z" transform="translate(-2 -3)"/></svg>