<?xml version="1.0" encoding="UTF-8" standalone="no"?>
<svg width="40px" height="40px" viewBox="0 0 40 40" version="1.1" xmlns="http://www.w3.org/2000/svg" xmlns:xlink="http://www.w3.org/1999/xlink">
    <!-- Generator: Sketch 3.6.1 (26313) - http://www.bohemiancoding.com/sketch -->
    <title>Untitled 4</title>
    <desc>Created with Sketch.</desc>
    <defs>
        <path id="path-1" d="M29.2944358,12.3947501 L27.5731716,12.3947501 L21.9234715,12.3947501 L15.1701858,12.3947501 L15.1701858,18.2503429 L23.2988358,18.2503429 C22.5411501,21.9728858 19.3704001,24.1059358 15.1701858,24.1059358 C10.2122858,24.1059358 6.21796431,20.1116144 6.21796431,15.1537144 C6.21796431,10.1958143 10.2122858,6.20149288 15.1701858,6.20149288 C17.3032358,6.20149288 19.2386287,6.9591786 20.7540001,8.20277146 L25.1601073,3.7966643 C22.4752644,1.44125001 19.0245001,0 15.1701858,0 C6.76152146,0 0.0164714286,6.75328574 0.0164714286,15.1537144 C0.0164714286,23.554143 6.76975717,30.3074287 15.1701858,30.3074287 C22.747043,30.3074287 29.6403358,24.7977358 29.6403358,15.1537144 C29.6321001,14.2560215 29.5003287,13.2924429 29.2944358,12.3947501 L29.2944358,12.3947501 Z"></path>
        <path id="path-3" d="M29.2944358,12.3947501 L27.5731716,12.3947501 L21.9234715,12.3947501 L15.1701858,12.3947501 L15.1701858,18.2503429 L23.2988358,18.2503429 C22.5411501,21.9728858 19.3704001,24.1059358 15.1701858,24.1059358 C10.2122858,24.1059358 6.21796431,20.1116144 6.21796431,15.1537144 C6.21796431,10.1958143 10.2122858,6.20149288 15.1701858,6.20149288 C17.3032358,6.20149288 19.2386287,6.9591786 20.7540001,8.20277146 L25.1601073,3.7966643 C22.4752644,1.44125001 19.0245001,0 15.1701858,0 C6.76152146,0 0.0164714286,6.75328574 0.0164714286,15.1537144 C0.0164714286,23.554143 6.76975717,30.3074287 15.1701858,30.3074287 C22.747043,30.3074287 29.6403358,24.7977358 29.6403358,15.1537144 C29.6321001,14.2560215 29.5003287,13.2924429 29.2944358,12.3947501 L29.2944358,12.3947501 Z"></path>
        <path id="path-5" d="M29.2944358,12.3947501 L27.5731716,12.3947501 L21.9234715,12.3947501 L15.1701858,12.3947501 L15.1701858,18.2503429 L23.2988358,18.2503429 C22.5411501,21.9728858 19.3704001,24.1059358 15.1701858,24.1059358 C10.2122858,24.1059358 6.21796431,20.1116144 6.21796431,15.1537144 C6.21796431,10.1958143 10.2122858,6.20149288 15.1701858,6.20149288 C17.3032358,6.20149288 19.2386287,6.9591786 20.7540001,8.20277146 L25.1601073,3.7966643 C22.4752644,1.44125001 19.0245001,0 15.1701858,0 C6.76152146,0 0.0164714286,6.75328574 0.0164714286,15.1537144 C0.0164714286,23.554143 6.76975717,30.3074287 15.1701858,30.3074287 C22.747043,30.3074287 29.6403358,24.7977358 29.6403358,15.1537144 C29.6321001,14.2560215 29.5003287,13.2924429 29.2944358,12.3947501 L29.2944358,12.3947501 Z"></path>
        <path id="path-7" d="M29.2944358,12.3947501 L27.5731716,12.3947501 L21.9234715,12.3947501 L15.1701858,12.3947501 L15.1701858,18.2503429 L23.2988358,18.2503429 C22.5411501,21.9728858 19.3704001,24.1059358 15.1701858,24.1059358 C10.2122858,24.1059358 6.21796431,20.1116144 6.21796431,15.1537144 C6.21796431,10.1958143 10.2122858,6.20149288 15.1701858,6.20149288 C17.3032358,6.20149288 19.2386287,6.9591786 20.7540001,8.20277146 L25.1601073,3.7966643 C22.4752644,1.44125001 19.0245001,0 15.1701858,0 C6.76152146,0 0.0164714286,6.75328574 0.0164714286,15.1537144 C0.0164714286,23.554143 6.76975717,30.3074287 15.1701858,30.3074287 C22.747043,30.3074287 29.6403358,24.7977358 29.6403358,15.1537144 C29.6321001,14.2560215 29.5003287,13.2924429 29.2944358,12.3947501 L29.2944358,12.3947501 Z"></path>
    </defs>
    <g id="Page-1" stroke="none" stroke-width="1" fill="none" fill-rule="evenodd">
        <g id="google-icon">
            <circle id="Oval" fill="#F7F7F7" cx="20.2282144" cy="19.7657144" r="19.7245358"></circle>
            <g id="Clipped" transform="translate(5.403929, 4.612000)">
                <mask id="mask-2" fill="white">
                    <use xlink:href="#path-1"></use>
                </mask>
                <g id="SVGID_1_"></g>
                <path d="M-1.36712858,24.1059358 L-1.36712858,6.20149288 L10.3440572,15.1537144 L-1.36712858,24.1059358 Z" id="Shape" fill="#FBBC05" mask="url(#mask-2)"></path>
            </g>
            <g id="Clipped" transform="translate(5.403929, 4.612000)">
                <mask id="mask-4" fill="white">
                    <use xlink:href="#path-3"></use>
                </mask>
                <g id="SVGID_3_"></g>
                <path d="M-1.36712858,6.20149288 L10.3440572,15.1537144 L15.1701858,10.9535 L31.6992644,8.26865718 L31.6992644,-1.38360001 L-1.36712858,-1.38360001 L-1.36712858,6.20149288 Z" id="Shape" fill="#EA4335" mask="url(#mask-4)"></path>
            </g>
            <g id="Clipped" transform="translate(5.403929, 4.612000)">
                <mask id="mask-6" fill="white">
                    <use xlink:href="#path-5"></use>
                </mask>
                <g id="SVGID_5_"></g>
                <path d="M-1.36712858,24.1059358 L19.3045144,8.26865718 L24.7483215,8.95222147 L31.6992644,-1.38360001 L31.6992644,31.6910287 L-1.36712858,31.6910287 L-1.36712858,24.1059358 Z" id="Shape" fill="#34A853" mask="url(#mask-6)"></path>
            </g>
            <g id="Clipped" transform="translate(5.403929, 4.612000)">
                <mask id="mask-8" fill="white">
                    <use xlink:href="#path-7"></use>
                </mask>
                <g id="SVGID_7_"></g>
                <path d="M31.6992644,31.6910287 L10.3440572,15.1537144 L7.5933286,13.0865501 L31.6992644,6.20149288 L31.6992644,31.6910287 Z" id="Shape" fill="#4285F4" mask="url(#mask-8)"></path>
            </g>
        </g>
    </g>
</svg>