<?xml version="1.0" encoding="utf-8"?>
<!-- Generator: Adobe Illustrator 24.1.3, SVG Export Plug-In . SVG Version: 6.00 Build 0)  -->
<svg version="1.1" id="Capa_1" xmlns="http://www.w3.org/2000/svg" xmlns:xlink="http://www.w3.org/1999/xlink" x="0px" y="0px"
	 width="200px" height="272.5px" viewBox="0 0 200 272.5" enable-background="new 0 0 200 272.5" xml:space="preserve">
<g>
	<path fill="#333333" d="M198.7,119.6c-2.9-4.1-9.5-2.5-9.9,2.5c-0.4,4.9,6.2,7.9,9.5,4.1C200,124.5,200,121.7,198.7,119.6
		L198.7,119.6z"/>
	<path fill="#333333" d="M0,216.5c0,4.5,1.7,8.3,4.9,11.5l39.6,39.6c2.9,2.9,7,4.9,11.5,4.9h127.9c9.1,0,16.1-7.4,16.1-16.1V144.3
		c0-7-10.7-7-10.7,0v111.7c0,2.9-2.5,5.3-5.3,5.3H57.3v-30.5c0-9.1-7.4-16.1-16.1-16.1H10.7v-120h178.1v5.8c0,2.9,2.5,5.3,5.3,5.3
		c2.9,0,5.3-2.5,5.3-5.3V16.1C199.5,7,192.1,0,183.5,0H16.1C7.4,0,0,7.4,0,16.1V216.5z M46.6,230.9v23.5l-28.9-28.9h23.5
		C44.1,225.1,46.6,227.6,46.6,230.9z M10.7,83.7V16.1c0-2.9,2.5-5.3,5.3-5.3h167.4c2.9,0,5.3,2.5,5.3,5.3v67.6L10.7,83.7L10.7,83.7z
		"/>
	<path fill="#333333" d="M54.9,28.5c-2.1-1.3-8.3-1.3-8.3,2.1v15.3H34.2V30.5c0-4.1-9.9-4.1-9.9,0v40c0,4.1,9.9,4.1,9.9,0V53.6h12.4
		v16.9c0,4.1,9.9,4.1,9.9,0v-40C56.5,29.7,56.1,28.9,54.9,28.5L54.9,28.5z"/>
	<path fill="#333333" d="M93.6,27.6H66.4c-4.1,0-4.1,8.7,0,8.7h8.7v34.2c0,4.1,9.9,4.1,9.9,0V36.3h8.7
		C97.7,36.3,97.7,27.6,93.6,27.6L93.6,27.6z"/>
	<path fill="#333333" d="M140.2,28.9c-2.1-1.7-5.8-1.7-7.9-0.4c-0.8,0.4-2.1,2.1-3.3,4.1l-6.6,11.1l-6.6-11.1
		c-1.3-2.1-2.5-3.3-3.3-4.1c-3.7-2.1-9.1-0.8-9.1,4.1v37.9c0,4.1,9.9,4.1,9.9,0V46.2l6.2,11.1c1.3,2.5,4.9,2.5,6.2,0L132,47v23.5
		c0,4.1,9.9,4.1,9.9,0V32.6C141.5,30.9,141,29.7,140.2,28.9L140.2,28.9z"/>
	<path fill="#333333" d="M175.7,65.1h-14.4V30.5c0-4.1-9.9-4.1-9.9,0v40c0,2.1,2.5,2.9,4.1,2.9h19.8
		C179.8,73.8,179.8,65.1,175.7,65.1z"/>
	<path fill="#333333" d="M81.3,143.1c-2.1-2.1-5.3-2.1-7.9,0l-18.1,18.1c-2.1,2.1-2.1,5.3,0,7.9l18.1,18.1c4.9,4.9,12.8-2.9,7.9-7.9
		l-14.4-14.4l14.4-14.4C83.7,148.9,83.7,145.6,81.3,143.1L81.3,143.1z"/>
	<path fill="#333333" d="M124.1,187.6c2.1,2.1,5.8,2.1,7.9,0l18.1-18.1c2.1-2.1,2.1-5.3,0-7.9L132,143.5c-4.9-4.9-12.8,2.9-7.9,7.9
		l14.4,14.4l-14.4,14.4C122.1,181.9,122.1,185.1,124.1,187.6L124.1,187.6z"/>
	<path fill="#333333" d="M104.3,137.3l-15.7,56.1c-2.1,6.6,8.7,9.5,10.3,2.9l16.1-56.1C116.7,133.6,106.4,130.7,104.3,137.3
		L104.3,137.3z"/>
</g>
</svg>
