<svg xmlns="http://www.w3.org/2000/svg" width="28.843" height="21.655" viewBox="0 0 28.843 21.655"><defs><style>.a{isolation:isolate;}.b{fill:#f03627;}</style></defs><g class="a"><path class="b" d="M2072.4,46.805a1.676,1.676,0,0,1,1.867-1.867h8.495a1.676,1.676,0,0,1,1.867,1.867v9.147a4.017,4.017,0,0,1-.654,2.334l-5.041,7.653a1.13,1.13,0,0,1-1.12.653h-4.2c-.747,0-1.025-.465-.747-1.118l3.734-8.213h-2.333a1.677,1.677,0,0,1-1.867-1.869Zm16.615,0a1.676,1.676,0,0,1,1.869-1.867h8.493a1.675,1.675,0,0,1,1.865,1.867v9.147a3.993,3.993,0,0,1-.653,2.334l-5.04,7.653a1.129,1.129,0,0,1-1.12.653h-4.2c-.745,0-1.027-.465-.745-1.118l3.732-8.213h-2.332a1.677,1.677,0,0,1-1.869-1.869Z" transform="translate(-2072.401 -44.938)"/></g></svg>