<svg xmlns="http://www.w3.org/2000/svg" width="73.797" height="60.572" viewBox="0 0 73.797 60.572">
    <defs>
        <style>
            .prefix__cls-2{fill:#494949}
        </style>
    </defs>
    <g id="prefix__Group" transform="translate(-4.164 -12.406)" style="opacity:.5">
        <path id="prefix__Compound_Path" d="M37.7 24.7A17.116 17.116 0 1 0 7.247 39.321v26.116h5.946a9.482 9.482 0 0 0 18.563 0h21.616a9.482 9.482 0 0 0 18.563 0h6.027V43.9h-9.724l-4.018-9.561H52.247V24.7zm-16.471-7.638a12.295 12.295 0 1 1-8.774 3.6 12.375 12.375 0 0 1 8.774-3.6zm1.286 51.108a4.741 4.741 0 1 1 4.661-4.741 4.741 4.741 0 0 1-4.661 4.741zm22.5-7.554H31.6a9.563 9.563 0 0 0-18.241 0h-1.291V43.9a17.116 17.116 0 0 0 26.277-14.383h9.08v31.1zm17.679 7.554a4.741 4.741 0 1 1 4.661-4.741 4.741 4.741 0 0 1-4.661 4.741zm-1.608-29.01l4.014 9.563h8.04v11.893h-1.366a9.563 9.563 0 0 0-18.241 0h-1.286V39.16z" class="prefix__cls-2" data-name="Compound Path"/>
        <path id="prefix__Path" d="M33.65 28.793h-6.429V21.4H22.4v12.214h11.25z" class="prefix__cls-2" transform="translate(-3.582 -1.767)"/>
    </g>
</svg>
