<svg xmlns="http://www.w3.org/2000/svg" width="60.208" height="60.208" viewBox="0 0 60.208 60.208">
    <g id="prefix__noun_Box_1570308" transform="translate(-6 -958.362)" style="opacity:.5">
        <path id="prefix__Path_19" d="M35.933 958.369a2.065 2.065 0 0 0-.663.171L7.219 970.855A1.962 1.962 0 0 0 6 972.843v31.364a2.1 2.1 0 0 0 1.219 1.86l27.367 12.015a2.759 2.759 0 0 0 2.288.343c9.345-4.136 18.748-8.245 28.116-12.358a2.1 2.1 0 0 0 1.219-1.86v-31.279a2.415 2.415 0 0 0-1.219-2.073L36.938 958.54a2.065 2.065 0 0 0-1-.171zm-25.828 17.488l23.946 10.519v27l-23.946-10.516zm52 0v27l-23.946 10.519v-27l9.921-4.362v5.11a2.053 2.053 0 1 0 4.105 0v-6.906z" data-name="Path 19" style="fill:#494949"/>
    </g>
</svg>
