<?xml version="1.0" encoding="utf-8"?>
<!-- Generator: Adobe Illustrator 24.1.3, SVG Export Plug-In . SVG Version: 6.00 Build 0)  -->
<svg version="1.1" id="Layer_1" xmlns="http://www.w3.org/2000/svg" xmlns:xlink="http://www.w3.org/1999/xlink" x="0px" y="0px"
	 viewBox="0 0 512 512" enable-background="new 0 0 512 512" xml:space="preserve">
<g>
	<circle fill="#EDEDED" cx="254.6" cy="278.4" r="201.8"/>
	<g>
		<circle fill="#FFFFFF" cx="223.2" cy="269.5" r="201.8"/>
		<path fill="#51597D" d="M223.2,475.7C109.5,475.7,17,383.2,17,269.5S109.5,63.2,223.2,63.2s206.3,92.5,206.3,206.3
			S337,475.7,223.2,475.7z M223.2,72.1c-108.8,0-197.3,88.5-197.3,197.3s88.5,197.3,197.3,197.3s197.3-88.5,197.3-197.3
			S332,72.1,223.2,72.1z"/>
	</g>
	<g>
		<path fill="#51597D" d="M491.4,434.9c-11.4,0-20.6-9.3-20.6-20.6c0-11.4,9.3-20.6,20.6-20.6c11.4,0,20.6,9.3,20.6,20.6
			C512,425.6,502.7,434.9,491.4,434.9z M491.4,399c-8.4,0-15.2,6.8-15.2,15.2s6.8,15.2,15.2,15.2s15.2-6.8,15.2-15.2
			S499.8,399,491.4,399z"/>
	</g>
	<circle fill="#EDEDED" cx="491.4" cy="414.3" r="9"/>
	<g>
		<g>
			<path fill="#51597D" d="M39.6,94.6c-2.5,0-4.5-2-4.5-4.5V36.3c0-2.5,2-4.5,4.5-4.5c2.5,0,4.5,2,4.5,4.5v53.8
				C44.1,92.6,42,94.6,39.6,94.6z"/>
		</g>
		<g>
			<path fill="#51597D" d="M66.5,67.7H12.7c-2.5,0-4.5-2-4.5-4.5c0-2.5,2-4.5,4.5-4.5h53.8c2.5,0,4.5,2,4.5,4.5
				C71,65.6,69,67.7,66.5,67.7z"/>
		</g>
	</g>
	<g>
		<g>
			<path fill="#51597D" d="M19.8,475.7c-1.6,0-2.8-1.3-2.8-2.8V439c0-1.6,1.3-2.8,2.8-2.8c1.6,0,2.8,1.3,2.8,2.8v33.9
				C22.6,474.5,21.3,475.7,19.8,475.7z"/>
		</g>
		<g>
			<path fill="#51597D" d="M36.7,458.8H2.8c-1.6,0-2.8-1.3-2.8-2.8s1.3-2.8,2.8-2.8h33.9c1.6,0,2.8,1.3,2.8,2.8
				S38.3,458.8,36.7,458.8z"/>
		</g>
	</g>
	<g>
		<circle fill="#515A7D" cx="214.3" cy="172.4" r="22.4"/>
		<g>
			<path fill="#515A7D" d="M254.6,397.9h-59.1c-5,0-9-4-9-9s4-9,9-9h22.6V240.7h-16.6c-5,0-9-4-9-9s4-9,9-9h25.6c5,0,9,4,9,9V380
				h18.6c5,0,9,4,9,9S259.6,397.9,254.6,397.9z"/>
		</g>
	</g>
</g>
</svg>
