<?xml version="1.0" encoding="utf-8"?>
<!-- Generator: Adobe Illustrator 24.1.3, SVG Export Plug-In . SVG Version: 6.00 Build 0)  -->
<svg version="1.1" id="Capa_1" xmlns="http://www.w3.org/2000/svg" xmlns:xlink="http://www.w3.org/1999/xlink" x="0px" y="0px"
	 width="200px" height="272.5px" viewBox="0 0 200 272.5" enable-background="new 0 0 200 272.5" xml:space="preserve">
<path fill="#333333" d="M198.7,119.6c-2.9-4.1-9.5-2.5-9.9,2.5c-0.4,4.9,6.2,7.9,9.5,4.1C200,124.5,200,121.7,198.7,119.6
	L198.7,119.6z"/>
<path fill="#333333" d="M0,216.5c0,4.5,1.7,8.3,4.9,11.5l39.6,39.6c2.9,2.9,7,4.9,11.5,4.9h127.9c9.1,0,16.1-7.4,16.1-16.1V144.3
	c0-7-10.7-7-10.7,0v111.7c0,2.9-2.5,5.3-5.3,5.3H57.3v-30.5c0-9.1-7.4-16.1-16.1-16.1H10.7v-120h178.1v5.8c0,2.9,2.5,5.3,5.3,5.3
	c2.9,0,5.3-2.5,5.3-5.3V16.1C199.5,7,192.1,0,183.5,0H16.1C7.4,0,0,7.4,0,16.1V216.5z M46.6,230.9v23.5l-28.9-28.9h23.5
	C44.1,225.1,46.6,227.6,46.6,230.9z M10.7,83.7V16.1c0-2.9,2.5-5.3,5.3-5.3h167.4c2.9,0,5.3,2.5,5.3,5.3v67.6L10.7,83.7L10.7,83.7z"
	/>
<g>
	<g>
		<path fill="#333333" d="M46.6,23.1c-2.9,0-4.9,2.1-4.9,4.9v29.7c0,2.5-0.4,4.5-0.8,5.8c-0.4,1.3-1.7,2.1-3.7,2.1s-2.9-0.8-3.3-2.1
			c-0.4-0.8-0.4-2.1-0.8-3.3c-0.4-2.5-2.1-4.1-4.5-4.1l0,0c-2.5,0-4.5,2.5-4.5,4.9c0,0.8,0,2.1,0.4,2.5c0.4,1.7,1.3,3.3,2.1,4.5
			c0.8,1.3,2.5,2.5,4.1,2.9c1.7,0.8,3.7,1.3,6.2,1.3c4.9,0,8.7-1.3,11.1-3.3c2.5-2.1,3.7-5.8,3.7-11.1V28.1
			C51.5,25.6,49.5,23.1,46.6,23.1L46.6,23.1z"/>
	</g>
</g>
<g>
	<g>
		<path fill="#333333" d="M92.4,53.6c-0.4-1.3-0.8-2.5-1.7-3.3c-0.8-0.8-1.7-2.1-2.9-2.9c-1.3-0.8-2.9-1.7-4.5-2.5l-7.4-3.3
			c-2.1-0.8-3.3-1.7-4.1-2.9C71,38.1,71,36.8,71,35.1c0-0.8,0-1.3,0.4-2.1c0-0.8,0.4-1.3,0.8-1.7c0.4-0.4,0.8-0.8,1.7-1.3
			c0.8-0.4,1.7-0.4,2.9-0.4c2.1,0,3.3,0.8,4.1,2.1c0.4,0.4,0.8,1.3,0.8,2.1c0.4,2.1,2.5,3.3,4.5,3.3l0,0c2.9,0,5.3-2.9,4.5-5.8
			c-0.4-1.7-1.7-6.2-8.3-7.9c-1.7-0.4-3.7-0.8-6.2-0.8c-4.5,0-8.3,1.3-11.1,3.7c-2.5,2.5-4.1,5.8-4.1,10.7c0,2.1,0.4,3.7,0.8,5.3
			c0.4,1.7,1.3,2.9,2.5,4.1c1.3,1.3,2.5,2.1,4.1,2.9c1.7,0.8,3.3,1.7,5.8,2.5c1.7,0.4,2.9,1.3,4.1,1.7c1.3,0.4,2.1,1.3,2.9,1.7
			c0.8,0.8,1.3,1.3,1.7,2.1c0.4,0.8,0.4,1.7,0.4,2.9c0,2.1-0.4,3.7-1.7,4.5c-1.3,0.8-2.5,1.7-4.1,1.7c-1.3,0-2.5,0-3.3-0.4
			c-0.8-0.4-1.7-0.8-2.1-1.7c-0.4-0.4-0.8-1.7-1.3-2.9c-0.4-2.1-2.5-3.7-4.5-3.7l0,0c-2.9,0-5.3,2.5-4.5,5.3
			c0.4,2.1,1.7,10.3,14.9,10.3c5.3,0,9.5-1.3,12.4-3.7c2.9-2.5,4.5-6.2,4.5-11.1C92.4,56.5,92.4,54.9,92.4,53.6z"/>
	</g>
</g>
<g>
	<g>
		<path fill="#333333" d="M133.2,37.1c-0.4-3.3-1.3-5.8-2.1-7.9c-1.3-2.1-2.9-4.1-4.9-5.3c-2.1-1.3-4.9-2.1-8.7-2.1
			s-6.6,0.8-8.7,2.1c-2.1,1.3-3.7,2.9-4.9,5.3c-1.3,2.1-2.1,4.9-2.1,7.9c-0.4,3.3-0.4,6.6-0.4,10.3c0,3.7,0,7,0.4,10.3
			c0.4,2.9,1.3,5.8,2.1,7.9c1.3,2.1,2.9,4.1,4.9,4.9c2.1,1.3,4.9,1.7,8.7,1.7s6.6-0.4,8.7-1.7c2.1-1.3,3.7-2.9,4.9-4.9
			c1.2-2.1,2.1-4.9,2.1-7.9c0.4-2.9,0.4-6.6,0.4-10.3C133.6,43.7,133.2,40.4,133.2,37.1z M123.7,55.7c0,2.5-0.4,4.1-0.8,5.8
			c-0.4,1.3-1.3,2.5-2.1,3.3c-0.8,0.8-2.1,0.8-3.7,0.8c-1.7,0-2.5-0.4-3.3-0.8c-0.8-0.8-1.7-1.7-2.1-3.3c-0.4-1.3-0.8-3.3-0.8-5.8
			c0-2.5-0.4-4.9-0.4-8.3s0-6.2,0.4-8.3c0-2.1,0.4-4.1,0.8-5.8c0.4-1.7,1.3-2.5,2.1-3.3c0.8-0.8,2.1-0.8,3.3-0.8
			c1.2,0,2.5,0.4,3.7,0.8c0.8,0.8,1.7,1.7,2.1,3.3c0.4,1.7,0.8,3.3,0.8,5.8c0,2.5,0.4,4.9,0.4,8.3C123.7,50.7,123.7,53.6,123.7,55.7
			z"/>
	</g>
</g>
<g>
	<g>
		<path fill="#333333" d="M168.3,23.1c-0.8,0-1.7,0.8-1.7,1.7v31.7l0,0l-11.1-31.7c-0.4-1.3-1.3-1.7-2.5-1.7h-6.6
			c-1.7,0-2.5,1.3-2.5,2.5v44.5c0,0.8,0.8,1.7,1.7,1.7h5.3c0.8,0,1.7-0.8,1.7-1.7V37.5l0,0l11.5,32.1c0.4,1.3,1.3,1.7,2.5,1.7h6.6
			c1.7,0,2.5-1.3,2.5-2.5V24.7c0-0.8-0.8-1.7-1.7-1.7H168.3z"/>
	</g>
</g>
<g>
	<path fill="#333333" d="M63.1,149.5v-18.4c0-2.3,1.9-4.6,4.6-4.6c2.8,0,4.6-1.9,4.6-4.6c0-2.3-1.9-4.6-4.6-4.6
		c-7.4,0-13.9,6-13.9,13.9v18.4c0,5.1-4.2,9.2-9.2,9.2c-2.8,0-4.6,1.9-4.6,4.6s1.9,4.6,4.6,4.6c5.1,0,9.2,4.2,9.2,9.2v18.4
		c0,7.4,6,13.9,13.9,13.9c2.8,0,4.6-1.9,4.6-4.6c0-2.3-1.9-4.6-4.6-4.6c-2.3,0-4.6-1.9-4.6-4.6v-18.4c0-5.5-2.3-10.6-6.5-13.9
		C60.3,160.1,63.1,155.1,63.1,149.5z"/>
	<circle fill="#333333" cx="99.5" cy="147.2" r="6.9"/>
	<path fill="#333333" d="M99.5,172.6c-2.8,0-4.6,1.9-4.6,4.6v13.9c0,2.3,1.9,4.6,4.6,4.6s4.6-1.9,4.6-4.6v-13.9
		C104.2,174.5,102.3,172.6,99.5,172.6z"/>
	<path fill="#333333" d="M154.9,158.7c-5.1,0-9.2-4.2-9.2-9.2v-18.4c0-3.7-1.4-6.9-3.7-9.2l-0.9-0.9c-2.3-2.3-5.5-3.7-9.2-3.7
		c-2.8,0-4.6,1.9-4.6,4.6c0,2.3,1.9,4.6,4.6,4.6c2.3,0,4.6,1.9,4.6,4.6v18.4c0,5.5,2.3,10.6,6.5,13.9c-3.7,3.2-6.5,8.3-6.5,13.9
		v18.4c0,2.3-1.9,4.6-4.6,4.6s-4.6,1.9-4.6,4.6c0,2.3,1.9,4.6,4.6,4.6c7.4,0,13.9-6,13.9-13.9v-18.4c0-5.1,4.2-9.2,9.2-9.2
		c2.8,0,4.6-1.9,4.6-4.6C159.5,160.6,157.2,158.7,154.9,158.7z"/>
</g>
</svg>
