<svg enable-background="new 0 0 60 53" height="512" viewBox="0 0 60 53" width="512" xmlns="http://www.w3.org/2000/svg"><path d="m47 53c-6.617 0-12-5.383-12-12s5.383-12 12-12 12 5.383 12 12-5.383 12-12 12zm0-22c-5.514 0-10 4.486-10 10s4.486 10 10 10 10-4.486 10-10-4.486-10-10-10z"/><path d="m47 48c-.552 0-1-.448-1-1v-12c0-.552.448-1 1-1s1 .448 1 1v12c0 .552-.448 1-1 1z"/><path d="m53 42h-12c-.552 0-1-.448-1-1s.448-1 1-1h12c.552 0 1 .448 1 1s-.448 1-1 1z"/><path d="m30.024 52.999c-.909 0-1.763-.355-2.404-1l-22.629-22.783c-3.218-3.232-4.991-7.532-4.991-12.108 0-9.433 7.626-17.108 17-17.108 4.521 0 8.777 1.774 11.985 4.995.551.553 1.479.553 2.031 0 3.207-3.221 7.463-4.995 11.984-4.995 9.374 0 17 7.675 17 17.108 0 4.497-1.714 8.731-4.831 11.945-.035.052-.075.103-.121.149l-2.578 2.598c-.3.303-.76.383-1.144.196-1.371-.661-2.827-.996-4.326-.996-5.514 0-10 4.486-10 10 0 1.526.346 3.005 1.03 4.396.188.383.113.843-.188 1.145l-5.413 5.456c-.641.646-1.494 1.002-2.405 1.002.001 0 .001 0 0 0zm-13.024-50.999c-8.271 0-15 6.777-15 15.108 0 4.043 1.566 7.842 4.41 10.698l22.63 22.783c.525.528 1.445.528 1.97 0l4.927-4.965c-.622-1.476-.937-3.027-.937-4.624 0-6.617 5.383-12 12-12 1.564 0 3.087.303 4.537.9l1.961-1.976c.034-.05.073-.099.117-.144 2.828-2.852 4.385-6.642 4.385-10.672 0-8.331-6.729-15.108-15-15.108-3.985 0-7.738 1.565-10.568 4.406-1.307 1.312-3.557 1.312-4.864 0-2.83-2.841-6.583-4.406-10.568-4.406z"/></svg>