<svg xmlns="http://www.w3.org/2000/svg" id="prefix__Outlook_com_icon" width="24.047" height="24.313" viewBox="0 0 24.047 24.313">
    <defs>
        <style>
            .prefix__cls-1{fill:#0072c6}
        </style>
    </defs>
    <path id="prefix__path3" d="M64.567 22.116v4.756l1.662 1.046a.425.425 0 0 0 .183 0l7.152-4.818a1.019 1.019 0 0 0-.833-.98z" class="prefix__cls-1" transform="translate(-49.517 -16.962)"/>
    <path id="prefix__path5" d="M64.564 38.2l1.517 1.042a.453.453 0 0 0 .471 0c-.257.157 7.01-4.67 7.01-4.67v8.741a1.223 1.223 0 0 1-1.294 1.351h-7.705V38.2z" class="prefix__cls-1" transform="translate(-49.514 -26.51)"/>
    <g id="prefix__g23">
        <path id="prefix__path25" d="M38.8 82.111a1.4 1.4 0 0 0-1.233.728 3.587 3.587 0 0 0-.457 1.926 3.517 3.517 0 0 0 .457 1.923 1.387 1.387 0 0 0 2.406.019 3.485 3.485 0 0 0 .447-1.909 3.794 3.794 0 0 0-.434-1.981 1.334 1.334 0 0 0-1.186-.706z" class="prefix__cls-1" transform="translate(-31.6 -72.618)"/>
        <path id="prefix__path27" d="M13.481 44.124V62.73l14.155 2.97V41.384zm9.471 12.448a2.806 2.806 0 0 1-2.34 1.182 2.77 2.77 0 0 1-2.292-1.144 4.74 4.74 0 0 1-.886-2.982 5.1 5.1 0 0 1 .9-3.139 2.837 2.837 0 0 1 2.383-1.2 2.705 2.705 0 0 1 2.266 1.147 4.9 4.9 0 0 1 .866 3.025 5 5 0 0 1-.896 3.111z" class="prefix__cls-1" transform="translate(-13.481 -41.384)"/>
    </g>
</svg>
