<svg xmlns="http://www.w3.org/2000/svg" width="26.245" height="26.245" viewBox="0 0 26.245 26.245">
    <g id="prefix__facebook-icon_30x30" transform="translate(-4 -4)">
        <g id="prefix__facebook-icon" transform="translate(4 4)">
            <path id="prefix__Fill_74" d="M26.245 24.8V1.449A1.449 1.449 0 0 0 24.8 0H1.448A1.448 1.448 0 0 0 0 1.449V24.8a1.448 1.448 0 0 0 1.448 1.448H24.8a1.449 1.449 0 0 0 1.445-1.448z" data-name="Fill 74" style="fill:#5045bd"/>
            <path id="prefix__Fill_75" d="M7.808 21.871v-9.977h3.547l.531-3.888H7.808V5.524c0-1.126.331-1.893 2.041-1.893h2.181V.153A30.886 30.886 0 0 0 8.851 0c-3.144 0-5.3 1.812-5.3 5.139v2.867H0v3.888h3.556v9.976h4.252" data-name="Fill 75" transform="translate(7.655 4.374)" style="fill:#fff"/>
        </g>
    </g>
</svg>
