<svg xmlns="http://www.w3.org/2000/svg" width="29.292" height="16.897" viewBox="0 0 29.292 16.897">
    <defs>
        <style>
            .prefix__cls-1{fill:#7b0099}
        </style>
    </defs>
    <g id="prefix__layer1" transform="translate(674.232 320.194)">
        <g id="prefix__g4131" transform="translate(-650.929 -306.644)">
            <path id="prefix__path4133" d="M-99.271-100.262l-3-.369.325-2.659 3 .367z" class="prefix__cls-1" transform="translate(102.269 103.291)"/>
        </g>
        <g id="prefix__g4135" transform="translate(-650.043 -320.194)">
            <path id="prefix__path4137" d="M0 0l.021 11.877 2.2.269L5.1.645z" class="prefix__cls-1"/>
        </g>
        <g id="prefix__g4139" transform="translate(-674.232 -319.824)">
            <path id="prefix__path4141" d="M-578.057-206.03c-.238.025-1.232.246-1.565.318-.358.1-3.624 2.617-3.839 3.238a4.4 4.4 0 0 0-.071.853l-.023.5a9.916 9.916 0 0 0 .146 1.245c.214.046 1.767.005 2.054.053l-.035.639c-.279-.02-2.253-.013-3.379-.013-.573 0-2.412.061-2.977.044l.107-.608c.31-.024 1.592.055 1.874-.242.14-.149.1-.306.1-1.164v-.406a6.4 6.4 0 0 0-.048-.881 33.539 33.539 0 0 0-3.735-4.521c-.213-.072-1.558-.205-1.891-.278l-.017-.549c.165-.084 1.66.02 3.111-.034.954-.035 3.13 0 3.4.032l-.068.484c-.287.072-1.664.1-2.022.193.929 1.382 2.4 3.162 2.876 3.853.262-.381 2.568-1.966 2.64-2.513-.359-.072-1.543-.243-1.733-.243l-.113-.624c.324-.051 2.031 0 2.879 0 .732 0 2.3 0 2.741.037zm-6.435-6.224c-6.494 0-11.027 3.4-11.027 8.263s4.533 8.264 11.027 8.264 11.026-3.4 11.026-8.264-4.534-8.263-11.026-8.263" class="prefix__cls-1" transform="translate(595.519 212.253)"/>
        </g>
        <g id="prefix__g4143" transform="translate(-670.073 -315.421)">
            <path id="prefix__path4145" d="M-440.394-60.254c-.238.025-1.232.246-1.565.318-.358.1-3.624 2.617-3.839 3.238a4.4 4.4 0 0 0-.071.853l-.023.5a9.922 9.922 0 0 0 .146 1.245c.214.046 1.767.006 2.054.053l-.035.639c-.279-.02-2.253-.013-3.379-.013-.573 0-2.412.061-2.977.044l.107-.608c.31-.024 1.592.055 1.874-.242.14-.149.1-.306.1-1.164v-.409a6.4 6.4 0 0 0-.048-.881 33.537 33.537 0 0 0-3.735-4.521c-.213-.072-1.558-.205-1.892-.278l-.017-.549c.165-.084 1.66.02 3.111-.034.954-.035 3.13 0 3.4.032l-.068.484c-.287.072-1.663.1-2.022.193.929 1.382 2.4 3.162 2.876 3.853.262-.381 2.568-1.966 2.64-2.513-.359-.072-1.543-.243-1.733-.243l-.113-.624c.324-.051 2.032 0 2.879 0 .732 0 2.3 0 2.741.037z" transform="translate(453.697 62.074)" style="fill:#fff"/>
        </g>
    </g>
</svg>
