<svg xmlns="http://www.w3.org/2000/svg" width="30" height="30" viewBox="0 0 30 30">
    <path  fill-rule="nonzero" d="M18.447 19.395a.743.743 0 0 1-1.05-1.05l2.443-2.442h-8.595a.742.742 0 0 1 0-1.484h8.595l-2.443-2.443a.742.742 0 0 1 1.05-1.049l3.71 3.71a.739.739 0 0 1 0 1.049l-3.71 3.71zm-5.512 3.185c0 .41-.332.742-.741.742H9.226a2.234 2.234 0 0 1-1.57-.643A2.192 2.192 0 0 1 7 21.115V9.225a2.218 2.218 0 0 1 .652-1.573A2.215 2.215 0 0 1 9.226 7h2.968a.741.741 0 0 1 0 1.484H9.226a.743.743 0 0 0-.742.742v11.89c0 .398.332.722.742.722h2.968c.41 0 .741.333.741.742z"/>
</svg>
