<svg height="512" viewBox="0 0 64 64" width="512" xmlns="http://www.w3.org/2000/svg"><g id="main"><path d="m55 28h-46a1 1 0 0 0 -1 1v27.2666a2.73665 2.73665 0 0 0 2.7334 2.7334h42.5332a2.73665 2.73665 0 0 0 2.7334-2.7334v-27.2666a1 1 0 0 0 -1-1z" fill="#eff3fe"/><path d="m48 5h-32a3.00328 3.00328 0 0 0 -3 3v4a1 1 0 0 0 1 1h36a1 1 0 0 0 1-1v-4a3.00328 3.00328 0 0 0 -3-3z" fill="#61a2f9"/><path d="m58.78076 21.37549-8-10a.9993.9993 0 0 0 -.78076-.37549h-36a.9993.9993 0 0 0 -.78076.37549l-8 10a.9998.9998 0 0 0 .78076 1.62451h52a.9998.9998 0 0 0 .78076-1.62451z" fill="#f24463"/><path d="m58 21h-52a1 1 0 0 0 -1 1v3.5a7.49425 7.49425 0 0 0 14 3.72583 7.48434 7.48434 0 0 0 13 0 7.48434 7.48434 0 0 0 13 0 7.49425 7.49425 0 0 0 14-3.72583v-3.5a1 1 0 0 0 -1-1z" fill="#e43056"/><path d="m32 36a7.00818 7.00818 0 0 0 -7 7v15a.99974.99974 0 0 0 1 1h12a.99974.99974 0 0 0 1-1v-15a7.00818 7.00818 0 0 0 -7-7z" fill="#194568"/><path d="m58 59h-52a1 1 0 0 1 0-2h52a1 1 0 0 1 0 2z" fill="#b97a67"/><g fill="#80b4fb"><rect height="10" rx="3" width="10" x="42" y="36"/><rect height="10" rx="3" width="10" x="12" y="36"/></g></g></svg>