<svg xmlns="http://www.w3.org/2000/svg" width="20" height="14" viewBox="0 0 20 14"><defs><style>.a{fill:#888;}.b{fill:none;}</style></defs><g transform="translate(-2 -5)"><path class="a" d="M22,6.6A1.58,1.58,0,0,0,20.4,5H3.6A1.58,1.58,0,0,0,2,6.6V17.4A1.58,1.58,0,0,0,3.6,19H20.4A1.58,1.58,0,0,0,22,17.4Zm-1.3-.8L13.4,13a1.933,1.933,0,0,1-2.8,0c-.1-.1-6.4-6.3-6.9-6.9l-.4-.3ZM2.8,6.4,8.4,12,2.7,17.6,2.8,6.4Zm.5,11.8L9,12.6l1,1a2.792,2.792,0,0,0,2,.8,3.176,3.176,0,0,0,2-.8l1-1,5.7,5.6Zm17.9-.6L15.6,12l5.7-5.6-.1,11.2Z"/><rect class="b" width="20" height="14" transform="translate(2 5)"/></g></svg>