<?xml version="1.0" encoding="utf-8"?>
<!-- Generator: Adobe Illustrator 24.1.3, SVG Export Plug-In . SVG Version: 6.00 Build 0)  -->
<svg version="1.1" id="Layer_1" xmlns="http://www.w3.org/2000/svg" xmlns:xlink="http://www.w3.org/1999/xlink" x="0px" y="0px"
	 viewBox="0 0 512 512" enable-background="new 0 0 512 512" xml:space="preserve">
<g transform="translate(1 1)">
	<g>
		<g>
			<path fill="#010101" d="M272,336h136.5c5.1,0,8.5-3.4,8.5-8.5v-76.8c0-5.1-3.4-8.5-8.5-8.5H272c-5.1,0-8.5,3.4-8.5,8.5v76.8
				C263.5,332.6,266.9,336,272,336z M280.5,259.3h119.4V319H280.5V259.3z"/>
			<path fill="#010101" d="M41.7,225.1h68.2c5.1,0,8.5-3.4,8.5-8.5s-3.4-8.5-8.5-8.5H41.7c-5.1,0-8.5,3.4-8.5,8.5
				S36.5,225.1,41.7,225.1z"/>
			<path fill="#010101" d="M144,225.1h68.2c5.1,0,8.5-3.4,8.5-8.5s-3.4-8.5-8.5-8.5H144c-5.1,0-8.5,3.4-8.5,8.5
				S138.9,225.1,144,225.1z"/>
			<path fill="#010101" d="M41.7,259.3h110.9c5.1,0,8.5-3.4,8.5-8.5c0-5.1-3.4-8.5-8.5-8.5H41.7c-5.1,0-8.5,3.4-8.5,8.5
				C33.1,255.9,36.5,259.3,41.7,259.3z"/>
			<path fill="#010101" d="M212.3,242.2h-25.6c-5.1,0-8.5,3.4-8.5,8.5c0,5.1,3.4,8.5,8.5,8.5h25.6c5.1,0,8.5-3.4,8.5-8.5
				C220.8,245.6,217.4,242.2,212.3,242.2z"/>
			<path fill="#010101" d="M503.2,136.4c-6-7.7-13.6-11.9-23-12.8l-20.5-2.5v-24V80.1c0-18.8-15.4-34.1-34.1-34.1H33.1
				C14.4,46-1,61.4-1,80.1v17.1v68.2v187.7c0,15.4,10.4,28.5,24.4,32.7C23,403.1,36.1,418,53.6,419.6L447.7,464c0.9,0,2.6,0,3.4,0
				c17.1,0,32.4-12.8,34.1-29l25.6-273.8C511.7,152.6,509.1,143.2,503.2,136.4z M16.1,105.7h426.5v22.2v29H16.1V105.7z M33.1,63.1
				h392.4c9.4,0,17.1,7.7,17.1,17.1v8.5H16.1v-8.5C16.1,70.7,23.7,63.1,33.1,63.1z M16.1,353.1V174h426.5v179.1
				c0,9.4-7.7,17.1-17.1,17.1H34h-0.9C23.7,370.2,16.1,362.5,16.1,353.1z M493.8,157.7l-25.6,273.8c-0.9,9.4-9.4,16.2-18.8,15.4
				L56.2,402.6c-8.5-0.9-14.5-7.7-15.4-15.4h384.7c18.8,0,34.1-15.4,34.1-34.1V165.4v-28.2l19.6,1.7c4.3,0,8.5,2.6,11.1,6
				C492.9,148.4,494.6,153.5,493.8,157.7z"/>
		</g>
	</g>
</g>
</svg>
