<?xml version="1.0" encoding="utf-8"?>
<!-- Generator: Adobe Illustrator 24.1.3, SVG Export Plug-In . SVG Version: 6.00 Build 0)  -->
<svg version="1.1" id="Layer_1" xmlns="http://www.w3.org/2000/svg" xmlns:xlink="http://www.w3.org/1999/xlink" x="0px" y="0px"
	 viewBox="0 0 512 512" enable-background="new 0 0 512 512" xml:space="preserve">
<g>
	<g>
		<g>
			<path fill="#010101" d="M477.9,106.7h-68.3V38.4c0-18.9-15.3-34.1-34.1-34.1H68.3c-18.9,0-34.1,15.3-34.1,34.1V448H8.5
				c-4.7,0-8.5,3.8-8.5,8.5v17.1c0,18.9,15.3,34.1,34.1,34.1h290.1c18.9,0,34.1-15.3,34.1-34.1v-93.9h68.3
				c18.9,0,34.1-15.3,34.1-34.1v-76.8h42.7c4.7,0,8.5-3.8,8.5-8.5V140.8C512,121.9,496.7,106.7,477.9,106.7z M34.1,490.7
				c-9.4,0-17.1-7.6-17.1-17.1v-8.5h273.1v8.5c0,6,1.6,11.9,4.6,17.1H34.1z M341.3,38.4v435.2c0,9.4-7.6,17.1-17.1,17.1
				s-17.1-7.6-17.1-17.1v-17.1c0-4.7-3.8-8.5-8.5-8.5H51.2V38.4c0-9.4,7.6-17.1,17.1-17.1h277.8C343,26.5,341.4,32.4,341.3,38.4z
				 M358.4,362.7V38.4c0-9.4,7.6-17.1,17.1-17.1c9.4,0,17.1,7.6,17.1,17.1v307.2c0,6,1.7,11.9,4.7,17.1H358.4z M443.7,140.8v204.8
				c0,9.4-7.6,17.1-17.1,17.1c-9.4,0-17.1-7.6-17.1-17.1V123.7h38.9C445.4,128.9,443.8,134.8,443.7,140.8z M494.9,251.7h-34.1V140.8
				c0-9.4,7.6-17.1,17.1-17.1s17.1,7.6,17.1,17.1V251.7z"/>
		</g>
	</g>
	<g>
		<g>
			<path fill="#010101" d="M93.9,234.7h179.2c4.7,0,8.5,3.8,8.5,8.5v0c0,4.7-3.8,8.5-8.5,8.5H93.9c-4.7,0-8.5-3.8-8.5-8.5v0
				C85.3,238.5,89.2,234.7,93.9,234.7z"/>
		</g>
	</g>
	<g>
		<g>
			<path fill="#010101" d="M145.1,200.5h162.1c4.7,0,8.5,3.8,8.5,8.5v0c0,4.7-3.8,8.5-8.5,8.5H145.1c-4.7,0-8.5-3.8-8.5-8.5v0
				C136.5,204.4,140.4,200.5,145.1,200.5z"/>
		</g>
	</g>
	<g>
		<g>
			<path fill="#010101" d="M220.8,117.7c-2-6.3-6.4-11.6-12.4-14.5l-16.6-8.3c-3.7-1.9-5.1-6.4-3.1-10.1c1.3-2.4,3.9-3.7,6.6-3.7
				l2.2,0c2.6,0,4.9,1.4,6.2,3.4c1.5,2.4,4.3,3.9,7.1,3.9h0c6.7,0,10.8-7.4,7.2-13c-3-4.7-7.6-8.4-13.2-10.1V64
				c0-4.7-3.8-8.5-8.5-8.5h0c-4.7,0-8.5,3.8-8.5,8.5v1.2c-12.8,4-19.9,17.6-16,30.4c2,6.3,6.4,11.6,12.4,14.5l16.6,8.3
				c3.7,1.9,5.1,6.4,3.1,10.1c-1.3,2.4-3.9,3.7-6.6,3.7l-2.2,0c-2.6,0-4.9-1.4-6.2-3.4c-1.5-2.4-4.3-3.9-7.1-3.9h0
				c-6.7,0-10.8,7.4-7.2,13c3,4.7,7.6,8.4,13.2,10.1v1.2c0,4.7,3.8,8.5,8.5,8.5h0c4.7,0,8.5-3.8,8.5-8.5v-1.2
				C217.6,144.1,224.7,130.5,220.8,117.7z"/>
		</g>
	</g>
	<g>
		<g>
			<path fill="#010101" d="M110.9,200.5L110.9,200.5c4.7,0,8.5,3.8,8.5,8.5v0c0,4.7-3.8,8.5-8.5,8.5h0c-4.7,0-8.5-3.8-8.5-8.5v0
				C102.4,204.4,106.2,200.5,110.9,200.5z"/>
		</g>
	</g>
	<g>
		<g>
			<path fill="#010101" d="M93.9,311.5h179.2c4.7,0,8.5,3.8,8.5,8.5l0,0c0,4.7-3.8,8.5-8.5,8.5H93.9c-4.7,0-8.5-3.8-8.5-8.5l0,0
				C85.3,315.3,89.2,311.5,93.9,311.5z"/>
		</g>
	</g>
	<g>
		<g>
			<path fill="#010101" d="M145.1,277.3h162.1c4.7,0,8.5,3.8,8.5,8.5l0,0c0,4.7-3.8,8.5-8.5,8.5H145.1c-4.7,0-8.5-3.8-8.5-8.5l0,0
				C136.5,281.2,140.4,277.3,145.1,277.3z"/>
		</g>
	</g>
	<g>
		<g>
			<path fill="#010101" d="M110.9,277.3L110.9,277.3c4.7,0,8.5,3.8,8.5,8.5l0,0c0,4.7-3.8,8.5-8.5,8.5h0c-4.7,0-8.5-3.8-8.5-8.5l0,0
				C102.4,281.2,106.2,277.3,110.9,277.3z"/>
		</g>
	</g>
	<g>
		<g>
			<path fill="#010101" d="M93.9,388.3h179.2c4.7,0,8.5,3.8,8.5,8.5v0c0,4.7-3.8,8.5-8.5,8.5H93.9c-4.7,0-8.5-3.8-8.5-8.5v0
				C85.3,392.1,89.2,388.3,93.9,388.3z"/>
		</g>
	</g>
	<g>
		<g>
			<path fill="#010101" d="M145.1,354.1h162.1c4.7,0,8.5,3.8,8.5,8.5v0c0,4.7-3.8,8.5-8.5,8.5H145.1c-4.7,0-8.5-3.8-8.5-8.5v0
				C136.5,358,140.4,354.1,145.1,354.1z"/>
		</g>
	</g>
	<g>
		<g>
			<path fill="#010101" d="M110.9,354.1L110.9,354.1c4.7,0,8.5,3.8,8.5,8.5v0c0,4.7-3.8,8.5-8.5,8.5h0c-4.7,0-8.5-3.8-8.5-8.5v0
				C102.4,358,106.2,354.1,110.9,354.1z"/>
		</g>
	</g>
</g>
</svg>
