<?xml version="1.0" encoding="utf-8"?>
<!-- Generator: Adobe Illustrator 24.1.3, SVG Export Plug-In . SVG Version: 6.00 Build 0)  -->
<svg version="1.1" id="_x31__px" xmlns="http://www.w3.org/2000/svg" xmlns:xlink="http://www.w3.org/1999/xlink" x="0px" y="0px"
	 viewBox="0 0 512 512" enable-background="new 0 0 512 512" xml:space="preserve">
<g>
	<path d="M395.2,383.5h64.3c29,0,52.5-23.6,52.5-52.5V181c0-29-23.6-52.5-52.5-52.5H52.5C23.6,128.5,0,152.1,0,181V331
		c0,29,23.6,52.5,52.5,52.5h64.3c5.4,0,9.7-4.4,9.7-9.7c0-5.4-4.4-9.7-9.7-9.7H52.5c-18.3,0-33.1-14.9-33.1-33.1V181
		c0-18.3,14.9-33.1,33.1-33.1h406.9c18.3,0,33.1,14.9,33.1,33.1V331c0,18.3-14.9,33.1-33.1,33.1h-64.3c-5.4,0-9.7,4.4-9.7,9.7
		C385.5,379.1,389.9,383.5,395.2,383.5z"/>
	<path d="M309.5,428.3H181c-5.4,0-9.7,4.4-9.7,9.7s4.4,9.7,9.7,9.7h128.5c5.4,0,9.7-4.4,9.7-9.7S314.9,428.3,309.5,428.3z"/>
	<path d="M309.5,385.5H181c-5.4,0-9.7,4.4-9.7,9.7s4.4,9.7,9.7,9.7h128.5c5.4,0,9.7-4.4,9.7-9.7S314.9,385.5,309.5,385.5z"/>
	<path d="M223.9,342.7H181c-5.4,0-9.7,4.4-9.7,9.7s4.4,9.7,9.7,9.7h42.8c5.4,0,9.7-4.4,9.7-9.7S229.2,342.7,223.9,342.7z"/>
	<path d="M395.2,147.9c5.4,0,9.7-4.4,9.7-9.7V52.5c0-29-23.6-52.5-52.5-52.5H159.6c-29,0-52.5,23.6-52.5,52.5v85.7
		c0,5.4,4.4,9.7,9.7,9.7c5.4,0,9.7-4.4,9.7-9.7V52.5c0-18.3,14.9-33.1,33.1-33.1h192.8c18.3,0,33.1,14.9,33.1,33.1v85.7
		C385.5,143.6,389.9,147.9,395.2,147.9z"/>
	<path d="M404.9,288.1c0-5.4-4.4-9.7-9.7-9.7H116.8c-5.4,0-9.7,4.4-9.7,9.7v171.3c0,29,23.6,52.5,52.5,52.5h192.8
		c29,0,52.5-23.6,52.5-52.5V288.1z M385.5,459.5c0,18.3-14.9,33.1-33.1,33.1H159.6c-18.3,0-33.1-14.9-33.1-33.1V297.8h259V459.5z"/>
</g>
</svg>
