<svg xmlns="http://www.w3.org/2000/svg" width="20" height="20" viewBox="0 0 20 20"><defs><style>.a{fill:#888;}</style></defs>
<g transform="translate(-2 -2)"><path class="a" d="M16.6,22A5.4,5.4,0,1,1,22,16.6,5.378,5.378,0,0,1,16.6,22Zm0-10a4.6,4.6,0,1,0,4.6,4.6A4.653,4.653,0,0,0,16.6,12Z"/>
<path class="a" d="M13.7,16.6a.367.367,0,0,1,.1-.3l2.5-2.5a.424.424,0,0,1,.6.6l-2.2,2.2,2.2,2.2a.424.424,0,1,1-.6.6l-2.5-2.5A.367.367,0,0,1,13.7,16.6Z"/>
<path class="a" d="M13.9,16.6a.43.43,0,0,1,.4-.4h4.8a.4.4,0,1,1,0,.8H14.3A.43.43,0,0,1,13.9,16.6Z"/><path class="a" d="M10.3,8.7h-.1l-7.9-3c-.2,0-.3-.2-.3-.4s.1-.3.3-.4L10.2,2h.3l7.9,2.9c.2.1.3.2.3.4s-.1.3-.3.4L10.5,8.6C10.4,8.7,10.4,8.7,10.3,8.7ZM3.6,5.3l6.7,2.5L17,5.3,10.3,2.8Z"/><path class="a" d="M9.2,18.2H9.1L2.3,15.7c-.2,0-.3-.2-.3-.4V5.3a.43.43,0,0,1,.4-.4.43.43,0,0,1,.4.4V15l6.5,2.4a.365.365,0,0,1,.2.5A.265.265,0,0,1,9.2,18.2Z"/><path class="a" d="M18.2,9.5a.43.43,0,0,1-.4-.4V5.3a.4.4,0,1,1,.8,0V9C18.7,9.3,18.5,9.5,18.2,9.5Z"/>
<path class="a" d="M10.3,12.9a.43.43,0,0,1-.4-.4V8.2a.4.4,0,1,1,.8,0v4.2C10.8,12.7,10.6,12.9,10.3,12.9Z"/></g>
</svg>