<?xml version="1.0" encoding="utf-8"?>
<!-- Generator: Adobe Illustrator 24.1.3, SVG Export Plug-In . SVG Version: 6.00 Build 0)  -->
<svg version="1.1" id="Layer_1" xmlns="http://www.w3.org/2000/svg" xmlns:xlink="http://www.w3.org/1999/xlink" x="0px" y="0px"
	 viewBox="0 0 512 512" enable-background="new 0 0 512 512" xml:space="preserve">
<g>
	<path fill="#010101" d="M373.1,20.1L77.7,0.4c-9.6-0.6-18,6.7-18.6,16.3l-2.3,34.6H17.5C7.9,51.2,0,59.1,0,68.7v425.5
		c0,9.6,7.9,17.5,17.5,17.5h226.1c2,0,3.9-0.8,5.3-2.2l34.1-34c0.3,0.1,0.7,0.1,1.1,0.2l58.3,3.9c9.3,0.6,18-7,18.6-16.3l28.4-424.5
		C390.1,29.2,382.7,20.8,373.1,20.1L373.1,20.1z M251.1,486v-52.1c0-1.4,1.1-2.5,2.5-2.5h51.9L251.1,486z M346.1,462.3
		c-0.2,1.5-1.1,2.3-2.7,2.3l-46.3-3.1l31.8-31.6c1.4-1.4,2.2-3.3,2.2-5.3V68.7c0-9.6-7.9-17.5-17.5-17.5h-78c-9.7,0-9.7,15,0,15h78
		c1.4,0,2.5,1.1,2.5,2.5v347.7h-62.5c-9.6,0-17.5,7.9-17.5,17.5v62.8H17.5c-1.4,0-2.5-1.1-2.5-2.5V68.7c0-1.4,1.1-2.5,2.5-2.5h178.2
		c9.7,0,9.7-15,0-15H71.8L74,17.7c0.2-1.5,1.1-2.3,2.7-2.3l295.4,19.8c1.5,0.2,2.3,1.1,2.3,2.7L346.1,462.3z"/>
	<path fill="#010101" d="M267.8,237H63.3c-4.1,0-7.5,3.4-7.5,7.5s3.4,7.5,7.5,7.5h204.6c4.1,0,7.5-3.4,7.5-7.5S272,237,267.8,237z"
		/>
	<path fill="#010101" d="M267.8,289.3H63.3c-4.1,0-7.5,3.4-7.5,7.5s3.4,7.5,7.5,7.5h204.6c4.1,0,7.5-3.4,7.5-7.5
		S272,289.3,267.8,289.3z"/>
	<path fill="#010101" d="M55.8,192.3c0,4.1,3.4,7.5,7.5,7.5h204.6c4.1,0,7.5-3.4,7.5-7.5s-3.4-7.5-7.5-7.5H63.3
		C59.1,184.8,55.8,188.1,55.8,192.3z"/>
	<path fill="#010101" d="M91.8,140c0,4.1,3.4,7.5,7.5,7.5h132.5c4.1,0,7.5-3.4,7.5-7.5s-3.4-7.5-7.5-7.5H99.3
		C95.2,132.5,91.8,135.8,91.8,140z"/>
	<path fill="#010101" d="M194.8,438.8c-13.5,0-27,0.1-40.5,0.1c-4.5,0-9.1,0-13.6,0c-8.2,0-13.8-1.6-15.6-10.7
		c-1.6-7.6-12.4-6.6-14.5,0c-5.2,16.3-13.8,9.9-18.6-1.1c-4.8-11-6-23.2-8.1-34.9c-1.5-8.6-14.5-6.2-14.7,2
		c-0.3,10.8-1.3,21.3-4,31.8c-2.8,10.8-7,21.1-11.2,31.4c-3.7,9,10.9,12.8,14.5,4c3.7-9.1,7.4-18.3,10.2-27.7
		c5.1,12.4,15.8,26.3,30.9,18.1c2.8-1.5,5.5-3.7,7.8-6.3c7.9,9.1,19.6,8.4,30.6,8.4c15.6,0,31.3-0.1,46.9-0.1
		C204.4,453.8,204.4,438.8,194.8,438.8L194.8,438.8z"/>
	<path fill="#010101" d="M505.9,246.4c-3.9-3.9-9.3-5.9-14.7-6l-5.7,0v-10.7c0-6.5-3.9-13.4-9.4-16.9v-15.1
		c0-31.1-48.4-30.9-48.4,0.1V213c-5.7,3.5-9.5,9.7-9.5,16.9v11c-25,1.7-25,39.7,0,41.2c0.2,33.6,0.2,66.6,0,100.7
		c0,9.4,14.9,10,15,0.1c0.2-34.2,0.2-67.2,0-100.8l37.2-0.2c0,0,0,110.8,0,160.8c0,24.3-37.2,24.5-37.2-0.3l0-13.7
		c0.6-9.7-14.4-10.6-15-0.9v12.8c0,11,3.4,20.3,10,26.9c0.6,15.7,7.2,30.9,18.4,42c3.2,3.2,7.6,2.2,10.7-0.2
		c11.4-11.4,17.8-26.4,18.2-42.4c5-4.9,9.9-9.9,9.9-26.9l0-68.4c13,3.7,26.5-6.3,26.5-19.9V261C512,255.5,509.8,250.3,505.9,246.4
		L505.9,246.4z M433.3,240.7v-10.8c0-2.2,1.5-4.1,3.6-4.6l30-0.1c0.8,0.2,1.6,0.6,2.2,1.2c0.9,0.9,1.4,2.1,1.4,3.4v10.8L433.3,240.7
		z M452,188.7c4.6,0,9.2,4.5,9.2,9.1v12.2l-18.4,0.1v-12.1C442.8,192.9,446.9,188.7,452,188.7L452,188.7z M452,492.6
		c-3.5-4.9-6-10.5-7.4-16.4c2.3,0.5,4.7,0.8,7,0.8c2.6,0,5.3-0.3,7.8-1C458,482,455.5,487.6,452,492.6z M497,351.7
		c0,7.1-11.5,7.7-11.5,0.1c0,0,0-71,0-77.5c0-4.2-3.5-7.5-7.6-7.5l-58.4,0.3c-7.2,0-7.1-11.3,0.1-11.4l71.6-0.4
		c3.5,0.3,5.4,2.2,5.7,5.6L497,351.7L497,351.7z"/>
</g>
</svg>
