<?xml version="1.0" encoding="utf-8"?>
<!-- Generator: Adobe Illustrator 24.1.3, SVG Export Plug-In . SVG Version: 6.00 Build 0)  -->
<svg version="1.1" id="Capa_1" xmlns="http://www.w3.org/2000/svg" xmlns:xlink="http://www.w3.org/1999/xlink" x="0px" y="0px"
	 viewBox="0 0 512 512" enable-background="new 0 0 512 512" xml:space="preserve">
<path d="M437,75C388.7,26.6,324.4,0,256,0C187.6,0,123.3,26.6,75,75C26.6,123.3,0,187.6,0,256c0,68.4,26.6,132.7,75,181
	c48.4,48.4,112.6,75,181,75c68.4,0,132.7-26.6,181-75c48.4-48.4,75-112.6,75-181C512,187.6,485.4,123.3,437,75z M422.6,422.6
	c-44.5,44.5-103.7,69-166.6,69c-62.9,0-122.1-24.5-166.6-69c-44.5-44.5-69-103.7-69-166.6s24.5-122.1,69-166.6
	c44.5-44.5,103.7-69,166.6-69s122.1,24.5,166.6,69c44.5,44.5,69,103.7,69,166.6C491.6,318.9,467.1,378.1,422.6,422.6z"/>
<path d="M245.8,71.4v10.2c0,5.6,4.6,10.2,10.2,10.2h0c5.6,0,10.2-4.6,10.2-10.2V71.4c0-5.6-4.6-10.2-10.2-10.2h0
	C250.4,61.2,245.8,65.8,245.8,71.4z"/>
<path d="M372,140L372,140c4,4,10.4,4,14.4,0l7.2-7.2c4-4,4-10.4,0-14.4l0,0c-4-4-10.4-4-14.4,0l-7.2,7.2C368,129.5,368,136,372,140z
	"/>
<path d="M420.1,256L420.1,256c0,5.6,4.6,10.2,10.2,10.2h10.2c5.6,0,10.2-4.6,10.2-10.2v0c0-5.6-4.6-10.2-10.2-10.2h-10.2
	C424.7,245.8,420.1,250.4,420.1,256z"/>
<path d="M393.6,379.3l-7.2-7.2c-4-4-10.4-4-14.4,0l0,0c-4,4-4,10.4,0,14.4l7.2,7.2c4,4,10.4,4,14.4,0l0,0
	C397.6,389.7,397.6,383.3,393.6,379.3z"/>
<path d="M245.8,430.3v10.2c0,5.6,4.6,10.2,10.2,10.2h0c5.6,0,10.2-4.6,10.2-10.2v-10.2c0-5.6-4.6-10.2-10.2-10.2h0
	C250.4,420.1,245.8,424.7,245.8,430.3z"/>
<path d="M118.2,393.7L118.2,393.7c4,4,10.4,4,14.4,0l7.2-7.2c4-4,4-10.4,0-14.4l0,0c-4-4-10.4-4-14.4,0l-7.2,7.2
	C114.2,383.3,114.2,389.7,118.2,393.7z"/>
<path d="M61.2,256L61.2,256c0,5.6,4.6,10.2,10.2,10.2h10.2c5.6,0,10.2-4.6,10.2-10.2v0c0-5.6-4.6-10.2-10.2-10.2H71.4
	C65.8,245.8,61.2,250.4,61.2,256z"/>
<path d="M118.3,132.7l7.2,7.2c4,4,10.4,4,14.4,0l0,0c4-4,4-10.4,0-14.4l-7.2-7.2c-4-4-10.4-4-14.4,0l0,0
	C114.3,122.3,114.3,128.7,118.3,132.7z"/>
<path d="M245.8,163.3v87.8c0,8.3,6.7,15.1,15.1,15.1h87.8c5.6,0,10.2-4.6,10.2-10.2v0c0-5.6-4.6-10.2-10.2-10.2h-82.5v-82.5
	c0-5.6-4.6-10.2-10.2-10.2h0C250.4,153.1,245.8,157.7,245.8,163.3z"/>
</svg>
