<?xml version="1.0" encoding="utf-8"?>
<!-- Generator: Adobe Illustrator 24.0.2, SVG Export Plug-In . SVG Version: 6.00 Build 0)  -->
<svg version="1.1" id="Layer_1" xmlns="http://www.w3.org/2000/svg" xmlns:xlink="http://www.w3.org/1999/xlink" x="0px" y="0px"
	 viewBox="0 0 512 512" enable-background="new 0 0 512 512" xml:space="preserve">
<g>
	<g>
		<g>
			<path d="M119.5,337.1c-28.2,0-51.2,23-51.2,51.2s23,51.2,51.2,51.2s51.2-23,51.2-51.2C170.7,360,147.7,337.1,119.5,337.1z
				 M119.5,422.4c-18.8,0-34.1-15.3-34.1-34.1c0-18.8,15.3-34.1,34.1-34.1s34.1,15.3,34.1,34.1C153.6,407.1,138.3,422.4,119.5,422.4
				z"/>
		</g>
	</g>
	<g>
		<g>
			<path d="M409.6,337.1c-28.2,0-51.2,23-51.2,51.2s23,51.2,51.2,51.2s51.2-23,51.2-51.2C460.8,360,437.8,337.1,409.6,337.1z
				 M409.6,422.4c-18.8,0-34.1-15.3-34.1-34.1c0-18.8,15.3-34.1,34.1-34.1c18.8,0,34.1,15.3,34.1,34.1S428.4,422.4,409.6,422.4z"/>
		</g>
	</g>
	<g>
		<g>
			<path d="M510.6,289.8l-76.8-119.5c-1.6-2.4-4.3-3.9-7.2-3.9h-93.9c-4.7,0-8.5,3.8-8.5,8.5v213.3c0,4.7,3.8,8.5,8.5,8.5h34.1
				v-17.1h-25.6V183.5H422l72.9,113.4v82.8h-42.7v17.1h51.2c4.7,0,8.5-3.8,8.5-8.5v-93.9C512,292.8,511.5,291.2,510.6,289.8z"/>
		</g>
	</g>
	<g>
		<g>
			<path d="M375.5,277.3v-59.7h68.3v-17.1h-76.8c-4.7,0-8.5,3.8-8.5,8.5v76.8c0,4.7,3.8,8.5,8.5,8.5h128v-17.1L375.5,277.3
				L375.5,277.3z"/>
		</g>
	</g>
	<g>
		<g>
			<path d="M332.8,106.7H8.5c-4.7,0-8.5,3.8-8.5,8.5v273.1c0,4.7,3.8,8.5,8.5,8.5h68.3v-17.1H17.1v-256h307.2v256H162.1v17.1h170.7
				c4.7,0,8.5-3.8,8.5-8.5V115.2C341.3,110.5,337.5,106.7,332.8,106.7z"/>
		</g>
	</g>
	<g>
		<g>
			<path d="M8.5,345.6h42.7c4.7,0,8.5,3.8,8.5,8.5v0c0,4.7-3.8,8.5-8.5,8.5H8.5V345.6z"/>
		</g>
	</g>
	<g>
		<g>
			<path d="M187.7,345.6h136.5v17.1H187.7c-4.7,0-8.5-3.8-8.5-8.5v0C179.2,349.4,183,345.6,187.7,345.6z"/>
		</g>
	</g>
	<g>
		<g>
			<path d="M477.9,345.6h25.6v17.1h-25.6c-4.7,0-8.5-3.8-8.5-8.5v0C469.3,349.4,473.2,345.6,477.9,345.6z"/>
		</g>
	</g>
	<g>
		<g>
			<path d="M42.7,140.8h290.1v17.1H42.7c-4.7,0-8.5-3.8-8.5-8.5v0C34.1,144.6,38,140.8,42.7,140.8z"/>
		</g>
	</g>
	<g>
		<g>
			<path d="M119.5,379.7L119.5,379.7c4.7,0,8.5,3.8,8.5,8.5v0c0,4.7-3.8,8.5-8.5,8.5h0c-4.7,0-8.5-3.8-8.5-8.5v0
				C110.9,383.6,114.8,379.7,119.5,379.7z"/>
		</g>
	</g>
	<g>
		<g>
			<path d="M409.6,379.7L409.6,379.7c4.7,0,8.5,3.8,8.5,8.5v0c0,4.7-3.8,8.5-8.5,8.5l0,0c-4.7,0-8.5-3.8-8.5-8.5v0
				C401.1,383.6,404.9,379.7,409.6,379.7z"/>
		</g>
	</g>
	<g>
		<g>
			<path d="M42.7,72.5h102.4c4.7,0,8.5,3.8,8.5,8.5v0c0,4.7-3.8,8.5-8.5,8.5H42.7c-4.7,0-8.5-3.8-8.5-8.5v0
				C34.1,76.4,38,72.5,42.7,72.5z"/>
		</g>
	</g>
	<g>
		<g>
			<path d="M8.5,72.5L8.5,72.5c4.7,0,8.5,3.8,8.5,8.5v0c0,4.7-3.8,8.5-8.5,8.5h0c-4.7,0-8.5-3.8-8.5-8.5v0C0,76.4,3.8,72.5,8.5,72.5
				z"/>
		</g>
	</g>
</g>
</svg>
