<?xml version="1.0" encoding="utf-8"?>
<!-- Generator: Adobe Illustrator 24.1.3, SVG Export Plug-In . SVG Version: 6.00 Build 0)  -->
<svg version="1.1" id="Layer_1" xmlns="http://www.w3.org/2000/svg" xmlns:xlink="http://www.w3.org/1999/xlink" x="0px" y="0px"
	 viewBox="0 0 512 512" enable-background="new 0 0 512 512" xml:space="preserve">
<g>
	<g>
		<g>
			<path fill="#010101" d="M447.2,67.9H404V24.7C404,11.1,392.9,0,379.4,0H64.8C51.2,0,40.1,11.1,40.1,24.7v394.8
				c0,13.6,11.1,24.7,24.7,24.7H108v43.2c0,13.6,11.1,24.7,24.7,24.7h209.7c13.6,0,32.8-7.6,42.6-16.9l68.9-64.9
				c9.9-9.3,18-28,18-41.6l0-296.1C471.9,79,460.8,67.9,447.2,67.9z M108,92.5v333.1H64.8c-3.3,0-6.2-2.8-6.2-6.2V24.7
				c0-3.3,2.8-6.2,6.2-6.2h314.6c3.3,0,6.2,2.8,6.2,6.2v43.2H132.6C119,67.9,108,79,108,92.5z M441.2,416.7l-68.9,64.9
				c-1.4,1.3-3.3,2.6-5.3,3.9v-56.8c0-4.2,1.7-8.1,4.5-10.9c2.8-2.8,6.7-4.5,10.9-4.5h61.7C443.2,414.6,442.2,415.8,441.2,416.7z
				 M453.4,388.6c0,1.8-0.3,4-0.8,6.2h-70.1c-18.7,0-33.9,15.2-33.9,33.9v64c-2.2,0.4-4.3,0.7-6.2,0.7H132.6v0
				c-3.4,0-6.2-2.8-6.2-6.2V92.5c0-3.3,2.8-6.2,6.2-6.2h314.6c3.3,0,6.2,2.8,6.2,6.2L453.4,388.6z"/>
		</g>
	</g>
	<g>
		<g>
			<path fill="#010101" d="M379.4,154.2H200.5c-5.1,0-9.3,4.1-9.3,9.3c0,5.1,4.1,9.3,9.3,9.3h178.9c5.1,0,9.3-4.1,9.3-9.3
				C388.6,158.4,384.5,154.2,379.4,154.2z"/>
		</g>
	</g>
	<g>
		<g>
			<path fill="#010101" d="M379.4,277.6H200.5c-5.1,0-9.3,4.1-9.3,9.3c0,5.1,4.1,9.3,9.3,9.3h178.9c5.1,0,9.3-4.1,9.3-9.3
				C388.6,281.7,384.5,277.6,379.4,277.6z"/>
		</g>
	</g>
	<g>
		<g>
			<path fill="#010101" d="M299.2,339.3h-98.7c-5.1,0-9.3,4.1-9.3,9.3c0,5.1,4.1,9.3,9.3,9.3h98.7c5.1,0,9.2-4.1,9.2-9.3
				C308.4,343.4,304.3,339.3,299.2,339.3z"/>
		</g>
	</g>
	<g>
		<g>
			<path fill="#010101" d="M379.4,215.9H200.5c-5.1,0-9.3,4.1-9.3,9.3c0,5.1,4.1,9.3,9.3,9.3h178.9c5.1,0,9.3-4.1,9.3-9.3
				C388.6,220,384.5,215.9,379.4,215.9z"/>
		</g>
	</g>
</g>
</svg>
