<?xml version="1.0" encoding="utf-8"?>
<!-- Generator: Adobe Illustrator 24.1.3, SVG Export Plug-In . SVG Version: 6.00 Build 0)  -->
<svg version="1.1" id="Layer_1" xmlns="http://www.w3.org/2000/svg" xmlns:xlink="http://www.w3.org/1999/xlink" x="0px" y="0px"
	 viewBox="0 0 512 512" enable-background="new 0 0 512 512" xml:space="preserve">
<g>
	<path fill="#010101" d="M152.4,307.2H152c-3.6,0-6.7,2.4-7.9,5.8c-2.4,6.6-8.7,11.3-16.1,11.3c-7.4,0-13.7-4.7-16.1-11.3
		c-1.2-3.4-4.3-5.8-7.9-5.8h-0.4c-5.7,0-9.8,5.7-7.9,11.1c4.6,13.4,17.3,23,32.3,23s27.7-9.6,32.3-23
		C162.2,312.9,158.1,307.2,152.4,307.2z"/>
	<path fill="#010101" d="M281.3,153.6h-16.8c-3.1,0-5.9-1.7-7.4-4.2c-1.6-2.6-4.3-4.3-7.4-4.3h0c-6.6,0-10.7,7.1-7.4,12.8
		c4.4,7.7,12.7,12.8,22.2,12.8v8.5c0,4.7,3.8,8.5,8.5,8.5h0c4.7,0,8.5-3.8,8.5-8.5v-8.5c14,0,25.3-11.2,25.6-25.1
		c0.3-14.3-11.8-26.1-26.2-26.1l-16.2,0c-4.5,0-8.5-3.4-8.8-8c-0.3-5,3.6-9.1,8.5-9.1h17.1c3.1,0,5.9,1.7,7.4,4.2
		c1.6,2.6,4.3,4.3,7.4,4.3h0c6.6,0,10.7-7.1,7.4-12.8c-4.4-7.7-12.7-12.8-22.2-12.8v-8.5c0-4.7-3.8-8.5-8.5-8.5h0
		c-4.7,0-8.5,3.8-8.5,8.5v8.5c-14,0-25.3,11.2-25.6,25.1c-0.3,14.3,11.8,26.1,26.2,26.1h16.5c4.9,0,8.8,4.1,8.5,9.1
		C289.8,150.2,285.9,153.6,281.3,153.6z"/>
	<path fill="#010101" d="M366.9,153.6h85.3c4.7,0,8.5,3.8,8.5,8.5v0c0,4.7-3.8,8.5-8.5,8.5h-85.3c-4.7,0-8.5-3.8-8.5-8.5v0
		C358.4,157.4,362.2,153.6,366.9,153.6z"/>
	<path fill="#010101" d="M366.9,119.5L366.9,119.5c4.7,0,8.5,3.8,8.5,8.5v0c0,4.7-3.8,8.5-8.5,8.5h0c-4.7,0-8.5-3.8-8.5-8.5v0
		C358.4,123.3,362.2,119.5,366.9,119.5z"/>
	<path fill="#010101" d="M401.1,119.5h51.2c4.7,0,8.5,3.8,8.5,8.5v0c0,4.7-3.8,8.5-8.5,8.5h-51.2c-4.7,0-8.5-3.8-8.5-8.5v0
		C392.5,123.3,396.4,119.5,401.1,119.5z"/>
	<path fill="#010101" d="M506.2,0.4c-3.5-1.2-7.3,0-9.5,3l-18.8,25l-18.8-25c-3.1-3.8-8.7-4.3-12.4-1.2c-0.4,0.4-0.8,0.8-1.2,1.2
		l-18.8,25l-18.8-25c-3.1-3.8-8.7-4.3-12.4-1.2c-0.4,0.4-0.8,0.8-1.2,1.2l-18.8,25l-18.8-25c-3.1-3.8-8.7-4.3-12.4-1.2
		c-0.4,0.4-0.8,0.8-1.2,1.2l-18.8,25l-18.8-25c-3.1-3.8-8.7-4.3-12.4-1.2c-0.4,0.4-0.8,0.8-1.2,1.2l-18.8,25l-18.8-25
		c-3.1-3.8-8.7-4.3-12.4-1.2c-0.4,0.4-0.8,0.8-1.2,1.2l-18.8,25l-18.8-25c-3.1-3.8-8.7-4.3-12.4-1.2c-0.4,0.4-0.8,0.8-1.2,1.2
		l-18.8,25l-18.8-25c-2.8-3.8-8.2-4.5-11.9-1.7c-2.1,1.6-3.4,4.1-3.4,6.8v162.6c-46.9-4.8-88.7,29.4-93.4,76.2
		c-0.3,2.9-0.4,5.8-0.4,8.7v25.6c0,4.7,3.8,8.5,8.5,8.5v8.5c0,29.1,16.6,55.7,42.7,68.7v10.1L44,391c-25.9,7.2-43.9,30.7-44,57.6
		v54.8c0,4.7,3.8,8.5,8.5,8.5h238.9c2.7,0,5.2-1.3,6.7-3.5l0.1,0.1l18.8-25l18.8,25c3.1,3.8,8.7,4.3,12.4,1.2
		c0.4-0.4,0.8-0.8,1.2-1.2l18.8-25l18.8,25c3.1,3.8,8.7,4.3,12.4,1.2c0.4-0.4,0.8-0.8,1.2-1.2l18.8-25l18.8,25
		c3.1,3.8,8.7,4.3,12.4,1.2c0.4-0.4,0.8-0.8,1.2-1.2l18.8-25l18.8,25c3.1,3.8,8.7,4.3,12.4,1.2c0.4-0.4,0.8-0.8,1.2-1.2l18.8-25
		l18.8,25c1.6,2.1,4.1,3.4,6.8,3.4c0.9,0,1.8-0.1,2.7-0.4c3.5-1.2,5.8-4.4,5.8-8.1V8.5C512,4.9,509.6,1.6,506.2,0.4z M59.7,256
		c0-37.7,30.6-68.3,68.3-68.3s68.3,30.6,68.3,68.3v16.6c-13.9-1.9-25.9-10.6-32.1-23.2l-2.9-5.8c-2.1-4.2-7.2-5.9-11.5-3.8
		c-0.8,0.4-1.6,0.9-2.2,1.6l-14.2,14.1c-11.2,11.2-26.4,17.5-42.2,17.5H59.7V256z M68.3,298.7v-8.5h22.9c20.4,0.1,39.9-8,54.3-22.5
		l6-6c8.1,13.3,21.1,22.9,36.3,26.6v10.4c0,33-26.7,59.7-59.7,59.7S68.3,331.7,68.3,298.7z M76.8,399.8l11.9-3.2l30.7,25.6v13.2
		c0,4.6,3.7,8.3,8.3,8.3h0.4c4.6,0,8.3-3.7,8.3-8.3v-13.3l30.7-25.6l11.9,3.2v14.8L128,465.8l-51.2-51.2V399.8z M128,375.5
		c5.7,0,11.5-0.7,17.1-2V384c0,2.4,1.1,4.8,3,6.3L128,407l-20-16.7c1.9-1.6,3-3.9,3-6.3v-10.5C116.5,374.8,122.3,375.4,128,375.5z
		 M238.9,494.9H17.1v-46.3c0.1-19.2,12.9-36,31.4-41.2l11.2-3v13.7c0,2.3,0.9,4.4,2.5,6l59.7,59.7c3.3,3.3,8.7,3.3,12.1,0l59.7-59.7
		c1.6-1.6,2.5-3.8,2.5-6v-13.7l11.2,3.1c18.5,5.1,31.4,21.9,31.5,41.1L238.9,494.9z M494.9,477.9l-10.2-13.7
		c-3.1-3.8-8.7-4.3-12.4-1.2c-0.4,0.4-0.8,0.8-1.2,1.2l-18.8,25l-18.8-25c-3.1-3.8-8.7-4.3-12.4-1.2c-0.4,0.4-0.8,0.8-1.2,1.2
		l-18.8,25l-18.8-25c-3.1-3.8-8.7-4.3-12.4-1.2c-0.4,0.4-0.8,0.8-1.2,1.2l-18.8,25l-18.8-25c-3.1-3.8-8.7-4.3-12.4-1.2
		c-0.4,0.4-0.8,0.8-1.2,1.2l-18.8,25l-18.8-25c-3.1-3.8-8.7-4.3-12.4-1.2c-0.4,0.4-0.8,0.8-1.2,1.2L256,477.9v-29.2
		c-0.1-26.9-18.1-50.5-44-57.6l-49.9-13.6v-10.1c26.1-12.9,42.6-39.6,42.7-68.7v-8.5c4.7,0,8.5-3.8,8.5-8.5V256
		c-0.1-37.2-24.2-70.2-59.7-81.4V34.1l10.2,13.7c3.1,3.8,8.7,4.3,12.4,1.2c0.4-0.4,0.8-0.8,1.2-1.2l18.8-25l18.8,25
		c3.1,3.8,8.7,4.3,12.4,1.2c0.4-0.4,0.8-0.8,1.2-1.2l18.8-25l18.8,25c3.1,3.8,8.7,4.3,12.4,1.2c0.4-0.4,0.8-0.8,1.2-1.2l18.8-25
		l18.8,25c3.1,3.8,8.7,4.3,12.4,1.2c0.4-0.4,0.8-0.8,1.2-1.2l18.8-25l18.8,25c3.1,3.8,8.7,4.3,12.4,1.2c0.4-0.4,0.8-0.8,1.2-1.2
		l18.8-25l18.8,25c3.1,3.8,8.7,4.3,12.4,1.2c0.4-0.4,0.8-0.8,1.2-1.2l18.8-25l18.8,25c3.1,3.8,8.7,4.3,12.4,1.2
		c0.4-0.4,0.8-0.8,1.2-1.2l10.2-13.7L494.9,477.9z"/>
	<path fill="#010101" d="M247.3,221.9h136.9c4.6,0,8.3,3.7,8.3,8.3v0.4c0,4.6-3.7,8.3-8.3,8.3H247.3c-4.6,0-8.3-3.7-8.3-8.3v-0.4
		C238.9,225.6,242.7,221.9,247.3,221.9z"/>
	<path fill="#010101" d="M417.9,221.9h34.5c4.6,0,8.3,3.7,8.3,8.3v0.4c0,4.6-3.7,8.3-8.3,8.3h-34.5c-4.6,0-8.3-3.7-8.3-8.3v-0.4
		C409.6,225.6,413.3,221.9,417.9,221.9z"/>
	<path fill="#010101" d="M247.3,256h136.9c4.6,0,8.3,3.7,8.3,8.3v0.4c0,4.6-3.7,8.3-8.3,8.3H247.3c-4.6,0-8.3-3.7-8.3-8.3v-0.4
		C238.9,259.7,242.7,256,247.3,256z"/>
	<path fill="#010101" d="M417.9,256h34.5c4.6,0,8.3,3.7,8.3,8.3v0.4c0,4.6-3.7,8.3-8.3,8.3h-34.5c-4.6,0-8.3-3.7-8.3-8.3v-0.4
		C409.6,259.7,413.3,256,417.9,256z"/>
	<path fill="#010101" d="M247.3,290.1h136.9c4.6,0,8.3,3.7,8.3,8.3v0.4c0,4.6-3.7,8.3-8.3,8.3H247.3c-4.6,0-8.3-3.7-8.3-8.3v-0.4
		C238.9,293.9,242.7,290.1,247.3,290.1z"/>
	<path fill="#010101" d="M417.9,290.1h34.5c4.6,0,8.3,3.7,8.3,8.3v0.4c0,4.6-3.7,8.3-8.3,8.3h-34.5c-4.6,0-8.3-3.7-8.3-8.3v-0.4
		C409.6,293.9,413.3,290.1,417.9,290.1z"/>
	<path fill="#010101" d="M247.3,324.3h136.9c4.6,0,8.3,3.7,8.3,8.3v0.4c0,4.6-3.7,8.3-8.3,8.3H247.3c-4.6,0-8.3-3.7-8.3-8.3v-0.4
		C238.9,328,242.7,324.3,247.3,324.3z"/>
	<path fill="#010101" d="M417.9,324.3h34.5c4.6,0,8.3,3.7,8.3,8.3v0.4c0,4.6-3.7,8.3-8.3,8.3h-34.5c-4.6,0-8.3-3.7-8.3-8.3v-0.4
		C409.6,328,413.3,324.3,417.9,324.3z"/>
	<path fill="#010101" d="M247.3,358.4h136.9c4.6,0,8.3,3.7,8.3,8.3v0.4c0,4.6-3.7,8.3-8.3,8.3H247.3c-4.6,0-8.3-3.7-8.3-8.3v-0.4
		C238.9,362.1,242.7,358.4,247.3,358.4z"/>
	<path fill="#010101" d="M417.9,358.4h34.5c4.6,0,8.3,3.7,8.3,8.3v0.4c0,4.6-3.7,8.3-8.3,8.3h-34.5c-4.6,0-8.3-3.7-8.3-8.3v-0.4
		C409.6,362.1,413.3,358.4,417.9,358.4z"/>
</g>
</svg>
