<svg xmlns="http://www.w3.org/2000/svg" width="266.355" height="236.436" viewBox="0 0 266.355 236.436"><defs><style>.a{fill:none;stroke:#ccd0d9;}.a,.b{stroke-width:4px;}.b,.c{fill:#ccd0d9;}.b{stroke:#b1b5c4;}.d{fill:#b1b5c4;}</style></defs><g transform="translate(-146.136 -189.467)"><path class="a" d="M314.833,361.406l20.315-.044c-.11,1.99-.314,3.979-.316,5.969-.023,22.315,0,21.629-.022,43.944-.008,8.179-4.068,12.614-12.066,12.624q-81.664.1-163.327,0c-6.827-.007-11.267-4.443-11.281-11.354q-.122-59.7,0-119.4c.014-7.138,4.116-11.021,11.26-11.034q54.69-.1,109.381-.124.03,6.651.06,13.3c-33.31-.063-66.62-.066-99.93-.265-4.422-.026-3.722,2.647-3.722,5.25-.006,34.819.1,69.638-.123,104.456-.032,5.089,1.364,6.419,6.427,6.4,45.8-.2,91.608-.112,137.413-.11,1,0,2-.051,3,.009,2.272.137,3.327-.752,3.31-3.17C315.05,384.707,314.951,384.556,314.833,361.406Z"/><path class="b" d="M268.78,321.987c.084-1.826.24-3.651.24-5.476q.023-55.231.02-110.462c.007-11.452,3.166-14.583,14.528-14.582q56.219,0,112.436.007c11.1,0,14.474,3.429,14.475,14.682q.009,79.723.012,159.445c0,8.754-3.949,12.642-12.883,12.659q-31.23.063-62.46.1l-20.315.044q-16.2-.074-32.4-.145c-10-.033-13.326-3.377-13.4-13.558q-.109-14.706-.191-29.413Q268.81,328.639,268.78,321.987Zm13.068-36.081c0,23.5.076,46.994-.079,70.489-.024,3.623.755,4.826,4.643,4.809q53.229-.242,106.46-.02c3.581.012,4.914-.721,4.9-4.636q-.2-70.488-.018-140.978c.008-3.413-.85-4.539-4.428-4.542q-53.222-.044-106.442-.5c-4.35-.041-5.154,1.4-5.123,5.392C281.943,239.246,281.852,262.577,281.848,285.906Z"/><path class="c" d="M200.88,279.76c-3.252-5.658-6.155-10.689-9.034-15.733a2.826,2.826,0,0,1-.557-2.615c5.77,1.827,5.924-2.026,6.581-6.271,3.33-21.513,18.869-37.332,40.226-41.146,2.173-.388,3.019-1.113,2.8-3.28a4.134,4.134,0,0,1,.643-3.362l17.614,10.111c-5.75,3.329-10.99,6.378-16.247,9.4-2.3,1.323-2.136-.528-1.982-1.761.426-3.431-1.212-3.6-3.982-3.064-16.57,3.24-30.994,20.025-31.843,36.989-.15,2.986,1.67,2.336,3.3,2.455,1.2.087,3.169-.366,1.846,1.979C207.268,268.739,204.213,273.971,200.88,279.76Z"/><path class="d" d="M354.929,218.829c1.331-.009,2.093.889,2.808,1.81q12.508,16.11,25,32.232c1.075,1.386,2.057,2.945.358,4.355-2.1,1.743-3.28-.159-4.379-1.584Q366.411,239.69,354.152,223.7c-.8-1.045-1.751-2.079-1.171-3.565A2.158,2.158,0,0,1,354.929,218.829Z"/><path class="d" d="M346.142,228.171c1.842-.105,2.539.87,3.253,1.792q5.355,6.909,10.693,13.831c1.106,1.429,1.9,3,.072,4.314-1.553,1.118-2.834.1-3.812-1.179-3.742-4.893-7.522-9.758-11.156-14.731C343.9,230.43,344.035,228.762,346.142,228.171Z"/><path class="c" d="M204.619,402.583c.035,1.388-.463,2.194-1.559,2.489-1.5.4-2.439-.376-3.331-1.533-4.146-5.38-8.384-10.688-12.547-16.056s-8.261-10.782-12.413-16.157c-1.054-1.365-2.268-2.856-.61-4.336,1.974-1.763,3.408-.015,4.5,1.389q12.387,15.857,24.645,31.814A15.855,15.855,0,0,1,204.619,402.583Z"/><path class="c" d="M174.581,382.982a10.762,10.762,0,0,1,2.306,1.753c3.629,4.758,7.165,9.586,10.746,14.38.832,1.114,1.707,2.251.284,3.458a2.544,2.544,0,0,1-3.954-.415c-3.851-5.01-7.678-10.045-11.32-15.207C171.331,385.091,171.931,383.507,174.581,382.982Z"/></g></svg>