<?xml version="1.0" encoding="utf-8"?>
<!-- Generator: Adobe Illustrator 24.1.3, SVG Export Plug-In . SVG Version: 6.00 Build 0)  -->
<svg version="1.1" id="Layer_1" xmlns="http://www.w3.org/2000/svg" xmlns:xlink="http://www.w3.org/1999/xlink" x="0px" y="0px"
	 viewBox="0 0 512 512" enable-background="new 0 0 512 512" xml:space="preserve" width="150" height="150">
<g>
	<g>
		<g>
			
				<ellipse transform="matrix(0.9922 -0.1248 0.1248 0.9922 -41.6533 57.3843)" fill="#E69E35" cx="437.3" cy="361.2" rx="50.3" ry="50.3"/>
			
				<ellipse transform="matrix(0.2321 -0.9727 0.9727 0.2321 -10.2888 709.4124)" fill="#FCE47E" cx="444.1" cy="361.2" rx="50.3" ry="50.3"/>
			<circle fill="#F7B546" cx="444.1" cy="361.2" r="40.3"/>
			<path fill="#E69E35" d="M406.8,363.5c0-22.3,18.1-40.3,40.3-40.3c8.3,0,16.1,2.5,22.5,6.9c-7-5.7-15.8-9.1-25.5-9.1
				c-22.3,0-40.3,18.1-40.3,40.3c0,12.6,5.8,23.9,14.9,31.3c-4-4.1-7.2-9-9.2-14.6C407.8,373.5,406.8,368.6,406.8,363.5z"/>
		</g>
		<g>
			<path fill="#FCE47E" d="M437.3,364h-6.6v6.5h-4.9V364h-6.6v-4.6h6.6v-6.4h4.9v6.4h6.6V364z"/>
			<path fill="#FCE47E" d="M460.4,349.5c1.7,0.8,3.1,1.9,4,3.3c0.9,1.4,1.4,3.1,1.4,5.1c0,1.9-0.5,3.7-1.4,5.1
				c-0.9,1.5-2.3,2.6-4,3.3c-1.7,0.8-3.8,1.2-6.1,1.2h-5.4v7.3h-6.1v-26.6h11.5C456.6,348.4,458.6,348.7,460.4,349.5z M458.1,361.4
				c1-0.8,1.4-1.9,1.4-3.4c0-1.5-0.5-2.6-1.4-3.4c-1-0.8-2.4-1.2-4.2-1.2h-5v9.2h5C455.7,362.6,457.1,362.2,458.1,361.4z"/>
		</g>
	</g>
	<g>
		<g>
			
				<ellipse transform="matrix(0.9922 -0.1248 0.1248 0.9922 -6.9259 41.3247)" fill="#E69E35" cx="326.4" cy="76" rx="25.1" ry="25.1"/>
			
				<ellipse transform="matrix(0.2321 -0.9727 0.9727 0.2321 179.4363 379.1863)" fill="#FCE47E" cx="329.9" cy="76" rx="25.1" ry="25.1"/>
			<circle fill="#F7B546" cx="329.9" cy="76" r="20.1"/>
			<path fill="#E69E35" d="M311.2,77.1c0-11.1,9-20.1,20.1-20.1c4.2,0,8,1.3,11.2,3.4c-3.5-2.8-7.9-4.6-12.7-4.6
				c-11.1,0-20.1,9-20.1,20.1c0,6.3,2.9,11.9,7.4,15.6c-2-2-3.6-4.5-4.6-7.3C311.7,82.1,311.2,79.6,311.2,77.1z"/>
		</g>
		<g>
			<path fill="#FCE47E" d="M326.6,77.3h-3.3v3.2h-2.4v-3.2h-3.3V75h3.3v-3.2h2.4V75h3.3V77.3z"/>
			<path fill="#FCE47E" d="M338.1,70.1c0.9,0.4,1.5,0.9,2,1.7c0.5,0.7,0.7,1.6,0.7,2.6c0,1-0.2,1.8-0.7,2.5c-0.5,0.7-1.1,1.3-2,1.7
				c-0.9,0.4-1.9,0.6-3.1,0.6h-2.7v3.7h-3.1V69.5h5.7C336.2,69.5,337.3,69.7,338.1,70.1z M337,76c0.5-0.4,0.7-1,0.7-1.7
				c0-0.7-0.2-1.3-0.7-1.7c-0.5-0.4-1.2-0.6-2.1-0.6h-2.5v4.6h2.5C335.8,76.6,336.5,76.4,337,76z"/>
		</g>
	</g>
	<path fill="#F9B546" d="M187.2,99.2c0,0,0.7-8.6-5.6-14.8s-14.8-5.6-14.8-5.6s9.3-0.1,14.8-5.6c5.5-5.5,5.6-14.8,5.6-14.8
		s-0.5,8.7,5.6,14.8c6.1,6.1,14.8,5.6,14.8,5.6s-8.7-0.5-14.8,5.6C186.6,90.6,187.2,99.2,187.2,99.2z"/>
	<path fill="#FCE47E" d="M492.3,287.1c0,0,0.3-3.9-2.5-6.8c-2.8-2.8-6.8-2.5-6.8-2.5s4.3,0,6.8-2.5c2.5-2.5,2.5-6.8,2.5-6.8
		s-0.2,4,2.5,6.8c2.8,2.8,6.8,2.5,6.8,2.5s-4-0.2-6.8,2.5S492.3,287.1,492.3,287.1z"/>
	<path fill="#FCE47E" d="M432.1,116.7c0,0,0.3-3.9-2.5-6.8c-2.8-2.8-6.8-2.5-6.8-2.5s4.3,0,6.8-2.5c2.5-2.5,2.5-6.8,2.5-6.8
		s-0.2,4,2.5,6.8s6.8,2.5,6.8,2.5s-4-0.2-6.8,2.5C431.9,112.7,432.1,116.7,432.1,116.7z"/>
	<path fill="#F9B546" d="M9.3,278.3c0,0,0.3-3.9-2.5-6.8S0,269,0,269s4.3,0,6.8-2.5c2.5-2.5,2.5-6.8,2.5-6.8s-0.2,4,2.5,6.8
		s6.8,2.5,6.8,2.5s-4-0.2-6.8,2.5S9.3,278.3,9.3,278.3z"/>
	<circle fill="#FCE47E" cx="159.4" cy="135.6" r="4.4"/>
	<g>
		<g>
			
				<ellipse transform="matrix(0.9922 -0.1245 0.1245 0.9922 -19.8567 61.3796)" fill="#E69E35" cx="481.2" cy="189.6" rx="27.1" ry="27.1"/>
			
				<ellipse transform="matrix(0.2323 -0.9726 0.9726 0.2323 187.8484 617.1501)" fill="#FCE47E" cx="484.9" cy="189.6" rx="27.1" ry="27.1"/>
			<circle fill="#F7B546" cx="484.9" cy="189.6" r="21.7"/>
			<path fill="#E69E35" d="M464.8,190.8c0-12,9.7-21.7,21.8-21.7c4.5,0,8.7,1.4,12.1,3.7c-3.7-3.1-8.5-4.9-13.8-4.9
				c-12,0-21.7,9.7-21.8,21.7c0,6.8,3.1,12.9,8,16.9c-2.2-2.2-3.9-4.9-4.9-7.8C465.3,196.2,464.8,193.5,464.8,190.8z"/>
		</g>
		<g>
			<path fill="#FCE47E" d="M480.6,191.3l-3.6,0v3.5h-2.6v-3.5h-3.5l0-2.5h3.5v-3.5h2.6v3.5l3.6,0V191.3z"/>
			<path fill="#FCE47E" d="M493.1,183.5c0.9,0.4,1.7,1,2.2,1.8c0.5,0.8,0.8,1.7,0.8,2.8c0,1.1-0.3,2-0.8,2.8
				c-0.5,0.8-1.2,1.4-2.2,1.8c-0.9,0.4-2,0.6-3.3,0.6h-2.9v3.9h-3.3l0-14.3h6.2C491.1,182.8,492.2,183.1,493.1,183.5z M491.9,189.9
				c0.5-0.4,0.8-1,0.8-1.8c0-0.8-0.3-1.4-0.8-1.9c-0.5-0.4-1.3-0.6-2.3-0.6h-2.7v5h2.7C490.6,190.5,491.4,190.3,491.9,189.9z"/>
		</g>
	</g>
	<g>
		<g>
			
				<ellipse transform="matrix(0.9922 -0.1248 0.1248 0.9922 -21.5282 9.4241)" fill="#E69E35" cx="64.5" cy="176.6" rx="27.1" ry="27.1"/>
			
				<ellipse transform="matrix(0.2321 -0.9727 0.9727 0.2321 -119.4125 201.9032)" fill="#FCE47E" cx="68.2" cy="176.6" rx="27.1" ry="27.1"/>
			<circle fill="#F7B546" cx="68.2" cy="176.6" r="21.7"/>
			<path fill="#E69E35" d="M48,177.8c0-12,9.7-21.7,21.7-21.7c4.5,0,8.7,1.4,12.1,3.7c-3.7-3.1-8.5-4.9-13.8-4.9
				c-12,0-21.7,9.7-21.7,21.7c0,6.8,3.1,12.9,8,16.9c-2.2-2.2-3.9-4.9-4.9-7.8C48.6,183.2,48,180.5,48,177.8z"/>
		</g>
		<g>
			<path fill="#FCE47E" d="M64.1,178.1h-3.6v3.5h-2.6v-3.5h-3.5v-2.5h3.5v-3.5h2.6v3.5h3.6V178.1z"/>
			<path fill="#FCE47E" d="M76.6,170.3c0.9,0.4,1.7,1,2.2,1.8c0.5,0.8,0.8,1.7,0.8,2.8c0,1.1-0.3,2-0.8,2.8
				c-0.5,0.8-1.2,1.4-2.2,1.8c-0.9,0.4-2,0.6-3.3,0.6h-2.9v3.9h-3.3v-14.3h6.2C74.5,169.6,75.6,169.9,76.6,170.3z M75.4,176.7
				c0.5-0.4,0.8-1,0.8-1.8c0-0.8-0.3-1.4-0.8-1.9c-0.5-0.4-1.3-0.6-2.3-0.6h-2.7v5h2.7C74.1,177.3,74.8,177.1,75.4,176.7z"/>
		</g>
	</g>
	<g>
		<path fill="#F05B81" d="M274.8,140.3l-149.1,57.8l149.1,57.8l149.1-57.8L274.8,140.3z"/>
		<path fill="#D41E42" d="M125.8,198.1v205.3l149.1,57.8V255.8L125.8,198.1z"/>
		<path fill="#EF405C" d="M274.8,461.2V255.8l149.1-57.8v205.3L274.8,461.2z"/>
		<path fill="#F7B546" d="M321.7,237.5V300l27.6-29.3l17.9,11.6v-62.6L321.7,237.5z"/>
		<path fill="#F7B546" d="M321.7,237.7l-143.6-60.6l44.3-17.2L367.1,220L321.7,237.7z"/>
	</g>
	<g>
		<g>
			
				<ellipse transform="matrix(0.9922 -0.1248 0.1248 0.9922 -43.4806 17.38)" fill="#E69E35" cx="117" cy="355.8" rx="73.3" ry="73.3"/>
			
				<ellipse transform="matrix(0.2321 -0.9727 0.9727 0.2321 -248.5735 396.7647)" fill="#FCE47E" cx="127" cy="355.8" rx="73.3" ry="73.3"/>
			<path fill="#E69E35" d="M72.6,359.1c0-32.5,26.3-58.8,58.8-58.8c12.2,0,23.5,3.7,32.8,10C154.1,302,141.1,297,127,297
				c-32.5,0-58.8,26.3-58.8,58.8c0,18.4,8.4,34.8,21.7,45.6c-5.9-6-10.5-13.2-13.4-21.2C74,373.6,72.6,366.5,72.6,359.1z"/>
			<circle fill="#F7B546" cx="127" cy="355.8" r="58.8"/>
		</g>
		<g>
			<path fill="#FCE47E" d="M122.3,359.8h-9.6v9.4h-7.1v-9.4H96V353h9.6v-9.4h7.1v9.4h9.6V359.8z"/>
			<path fill="#FCE47E" d="M156,338.8c2.5,1.1,4.5,2.8,5.8,4.9c1.4,2.1,2,4.6,2,7.5c0,2.8-0.7,5.3-2,7.4c-1.4,2.1-3.3,3.7-5.8,4.9
				c-2.5,1.1-5.5,1.7-8.9,1.7h-7.8v10.7h-9v-38.7H147C150.5,337.1,153.4,337.6,156,338.8z M152.7,356.1c1.4-1.2,2.1-2.8,2.1-5
				c0-2.2-0.7-3.8-2.1-5c-1.4-1.2-3.4-1.7-6.1-1.7h-7.3v13.4h7.3C149.2,357.8,151.3,357.2,152.7,356.1z"/>
		</g>
	</g>
</g>
</svg>
