<svg xmlns="http://www.w3.org/2000/svg" width="20" height="20" viewBox="0 0 20 20"><defs><style>.a{fill:#888;}</style></defs><path class="a" d="M12,2A10,10,0,1,0,22,12,10.029,10.029,0,0,0,12,2Zm0,1a8.963,8.963,0,0,1,9,9,9.21,9.21,0,0,1-1.8,5.4,5.328,5.328,0,0,0-3.6-4.5,4.45,4.45,0,0,0,.7-2.3,4.3,4.3,0,1,0-8.6,0,4.032,4.032,0,0,0,.6,2.2,5.275,5.275,0,0,0-3.8,4.3A9.829,9.829,0,0,1,3,12,8.963,8.963,0,0,1,12,3Zm2.6,9.5h0A3.174,3.174,0,0,1,12,13.8a3.3,3.3,0,1,1,3.3-3.3,3.221,3.221,0,0,1-.7,2ZM5.5,18.2A4.631,4.631,0,0,1,9,13.6a4.07,4.07,0,0,0,3,1.2,4.253,4.253,0,0,0,2.9-1.2,4.462,4.462,0,0,1,3.3,4.8A8.775,8.775,0,0,1,12,21,8.894,8.894,0,0,1,5.5,18.2Z" transform="translate(-2 -2)"/></svg>