<svg xmlns="http://www.w3.org/2000/svg" width="168.293" height="148.396" viewBox="0 0 168.293 148.396"><defs><style>.a{opacity:0.1;}.b{fill:#fff;}</style></defs><g class="a"><path class="b" d="M67.61,36.794a8.092,8.092,0,0,0,4.073-10.861L65.031,11.949a8.116,8.116,0,0,0-10.59-3.936A93.532,93.532,0,0,0,25.116,27.02,70.935,70.935,0,0,0,5.431,58.109C1.9,69.786,0,85.669,0,105.9v41.679a8.17,8.17,0,0,0,8.146,8.146H61.5a8.17,8.17,0,0,0,8.146-8.146V94.222A8.169,8.169,0,0,0,61.5,86.076H35.977c.272-13.713,3.53-24.709,9.5-32.992C50.368,46.435,57.7,41,67.61,36.794Z" transform="translate(0 -7.328)"/><path class="b" d="M138.174,36.758A8.093,8.093,0,0,0,142.247,25.9l-6.652-13.846a8.117,8.117,0,0,0-10.59-3.937A98.346,98.346,0,0,0,95.816,26.984C86.176,36.216,79.525,46.67,75.993,58.21Q70.7,75.314,70.7,105.863v41.679a8.17,8.17,0,0,0,8.146,8.146H132.2a8.17,8.17,0,0,0,8.146-8.146V94.187a8.169,8.169,0,0,0-8.146-8.146H106.542c.272-13.713,3.531-24.709,9.5-32.992C120.932,46.4,128.264,40.968,138.174,36.758Z" transform="translate(25.285 -7.292)"/></g></svg>