<svg id="Flat_2" height="512" viewBox="0 0 64 64" width="512" xmlns="http://www.w3.org/2000/svg" data-name="Flat 2"><path d="m63 59h-42v-5.912a16 16 0 0 1 10.382-14.9813l5.618-2.1067h10l5.618 2.1067a16 16 0 0 1 10.382 14.9813z" fill="#f2f7ff"/><path d="m33 40 9 6 9-6-4.5-5h-9z" fill="#e7edfa"/><path d="m42 45-4.5-9v-9h9v9z" fill="#f0be97"/><path d="m55 59.75a.75.75 0 0 1 -.75-.75v-12a.75.75 0 0 1 1.5 0v12a.75.75 0 0 1 -.75.75z" fill="#e7edfa"/><circle cx="42" cy="50" fill="#5b6172" r="1"/><path d="m35 63h15v-4h-15l-2 2z" fill="#5b6172"/><path d="m55.75 56h-13.75v-2l13.75-2z" fill="#e7edfa"/><path d="m63 55v3.9358a4 4 0 0 1 -4.9265 3.8912l-16.0735-3.827-1-2.3038 1-2.6962h14" fill="#f2f7ff"/><path d="m42 54-1.8928-.71a5.82 5.82 0 0 0 -7.6891 4.0375l-.4181 1.6725h10z" fill="#ffd7aa"/><path d="m35 59-17 2-17-2v-22a2 2 0 0 1 2-2h30a2 2 0 0 1 2 2z" fill="#7e849b"/><path d="m17 27h-3v4l-5-4h-6a2 2 0 0 1 -2-2v-12a2 2 0 0 1 2-2h14a2 2 0 0 1 2 2v12a2 2 0 0 1 -2 2z" fill="#f03a5a"/><path d="m6 23 8-4-8-4z" fill="#fff"/><circle cx="18" cy="47" fill="#f2f7ff" r="4"/><path d="m1 59h34v4h-34z" fill="#696e82"/><path d="m53 35.75h-6a.75.75 0 0 1 0-1.5h6a1.2511 1.2511 0 0 0 1.25-1.25v-9a.75.75 0 0 1 1.5 0v9a2.7528 2.7528 0 0 1 -2.75 2.75z" fill="#5b6172"/><path d="m58 23.75h-2a.75.75 0 0 1 0-1.5h1.3877l.27-1.3164a15.9813 15.9813 0 1 0 -31.3144 0l.27 1.3164h1.3867a.75.75 0 0 1 0 1.5h-2a.7493.7493 0 0 1 -.7344-.6l-.3916-1.916a17.4807 17.4807 0 1 1 34.252 0l-.3916 1.916a.7493.7493 0 0 1 -.7344.6z" fill="#5b6172"/><path d="m42.4592 28-10.4592-11a12.0171 12.0171 0 0 1 -3.0574-11.7989l.0574-.2011h14.5a11.5 11.5 0 0 1 11.5 11.5c0 6.3513-6.19 11.5-12.5408 11.5z" fill="#d99e54"/><path d="m34 17 10.3093 10.8423c5.6499-.8741 10.6907-5.6123 10.6907-11.3423a11.5 11.5 0 0 0 -11.5-11.5h-12.5l-.0575.201a12.0172 12.0172 0 0 0 3.0575 11.799z" fill="#cf8e4a"/><path d="m30 19h3a0 0 0 0 1 0 0v8a0 0 0 0 1 0 0h-3a2 2 0 0 1 -2-2v-4a2 2 0 0 1 2-2z" fill="#696e82"/><path d="m53 19h3a0 0 0 0 1 0 0v8a0 0 0 0 1 0 0h-3a2 2 0 0 1 -2-2v-4a2 2 0 0 1 2-2z" fill="#696e82" transform="matrix(-1 0 0 -1 107 46)"/><path d="m51.618 17a7.236 7.236 0 0 1 -5.7888-2.8944l-.8292-1.1056a7.2359 7.2359 0 0 1 -6.4721 4h-6.5279v7a10 10 0 0 0 20 0v-7z" fill="#ffd7aa"/><path d="m42 30.75a3.7231 3.7231 0 0 1 -2.6514-1.0986.75.75 0 1 1 1.0606-1.0606 2.3024 2.3024 0 0 0 3.1816 0 .75.75 0 1 1 1.0606 1.0606 3.7231 3.7231 0 0 1 -2.6514 1.0986z" fill="#696e82"/><circle cx="37" cy="21" fill="#5b6172" r="1"/><circle cx="47" cy="21" fill="#5b6172" r="1"/><path d="m42 26.75a.75.75 0 0 1 -.75-.75v-2a.75.75 0 0 1 1.5 0v2a.75.75 0 0 1 -.75.75z" fill="#f0be97"/><rect fill="#f03a5a" height="4" rx="2" transform="matrix(-1 0 0 -1 93 70)" width="7" x="43" y="33"/></svg>