<svg xmlns="http://www.w3.org/2000/svg" width="20.1" height="16" viewBox="0 0 20.1 16"><defs><style>.a{fill:#888;}</style></defs><g transform="translate(-2 -4)"><path class="a" d="M20.1,4H3.9A1.817,1.817,0,0,0,2,5.8V18.2A1.817,1.817,0,0,0,3.9,20H20.2a1.88,1.88,0,0,0,1.9-1.8V5.8A1.973,1.973,0,0,0,20.1,4ZM3.9,5H20.2a.882.882,0,0,1,.8.9V18.2a.9.9,0,0,1-.9.9H3.9a1.063,1.063,0,0,1-.9-1V5.9A.9.9,0,0,1,3.9,5Z"/><path class="a" d="M6.4,13.1l-.3,1.8a1.268,1.268,0,0,0,.1.6.55.55,0,0,0,.5.3h.1a.6.6,0,0,0,.4-.1l1.6-.9,1.6.9a.8.8,0,0,0,1.1-.3.9.9,0,0,0,.1-.5l-.3-1.8,1.3-1.3a.764.764,0,0,0,.2-.5,1.421,1.421,0,0,0-.2-.6.52.52,0,0,0-.4-.2l-1.9-.3L9.5,8.6a.781.781,0,0,0-.4-.4.637.637,0,0,0-.6,0,.781.781,0,0,0-.4.4l-.8,1.6-1.8.3a.55.55,0,0,0-.5.3.661.661,0,0,0-.1.6.52.52,0,0,0,.2.4Zm4.2-.6a.618.618,0,0,0-.2.7l.3,1.7-1.5-.8a.854.854,0,0,0-.7,0L7,14.9l.3-1.7a.844.844,0,0,0-.2-.7L5.9,11.3l1.7-.2a.675.675,0,0,0,.6-.4l.7-1.5.7,1.5a.675.675,0,0,0,.6.4l1.7.2Z"/><path class="a" d="M15,10h2.5a.5.5,0,0,0,0-1H15a.5.5,0,0,0,0,1Z"/><path class="a" d="M15,12h4.3a.5.5,0,0,0,0-1H15a.5.5,0,0,0,0,1Z"/><path class="a" d="M15,14h4.3a.5.5,0,0,0,0-1H15a.5.5,0,0,0,0,1Z"/></g></svg>