<svg xmlns="http://www.w3.org/2000/svg" width="20.037" height="18" viewBox="0 0 20.037 18"><defs><style>.a{fill:#888;}</style></defs><g transform="translate(-2 -3)"><path class="a" d="M2,19a2.006,2.006,0,0,0,2,2H17.2a2.006,2.006,0,0,0,2-2V15.9l1.2-.2a2.223,2.223,0,0,0,1.3-.8,1.971,1.971,0,0,0,.3-1.5h0L20.5,4.6a2.223,2.223,0,0,0-.8-1.3A2.663,2.663,0,0,0,18.5,3h-.3L4.8,5.3A2,2,0,0,0,3.2,7.6l.1.8-.1.1A1.975,1.975,0,0,0,2,10.3ZM4.2,6.6A1.126,1.126,0,0,1,5,6.1L18.3,3.8a1.174,1.174,0,0,1,1.4,1l1.5,8.8a1.02,1.02,0,0,1-.2.9,1.374,1.374,0,0,1-.8.5l-1,.2V10.3a2.006,2.006,0,0,0-2-2H4.1L4,7.5A1.02,1.02,0,0,1,4.2,6.6ZM2.8,10.3A1.155,1.155,0,0,1,4,9.1H17.2a1.155,1.155,0,0,1,1.2,1.2V11H2.8Zm0,1.6H18.4v1.9H2.8Zm0,2.7H18.4V19a1.155,1.155,0,0,1-1.2,1.2H4A1.155,1.155,0,0,1,2.8,19Z"/><path class="a" d="M7.6,17.8H4.8a.4.4,0,1,0,0,.8H7.5a.43.43,0,0,0,.4-.4C8,18,7.8,17.8,7.6,17.8Z"/></g></svg>