<svg xmlns="http://www.w3.org/2000/svg" xmlns:xlink="http://www.w3.org/1999/xlink" width="512" height="512" viewBox="0 0 512 512"><defs><linearGradient id="a" x1="0.5" x2="0.5" y2="1" gradientUnits="objectBoundingBox"><stop offset="0" stop-color="#f1ac39" stop-opacity="0.2"/><stop offset="1" stop-color="#ffc22a"/></linearGradient><linearGradient id="b" x1="1" x2="-0.021" y2="1" gradientUnits="objectBoundingBox"><stop offset="0" stop-color="#e6e9f5" stop-opacity="0.6"/><stop offset="1" stop-color="#e6e9f5" stop-opacity="0"/></linearGradient><linearGradient id="c" x1="1" x2="0" y2="1" gradientUnits="objectBoundingBox"><stop offset="0" stop-color="#ffc22a" stop-opacity="0.502"/><stop offset="1" stop-color="#ffc22a" stop-opacity="0.102"/></linearGradient></defs><g transform="translate(-686 -1694)"><rect width="512" height="512" transform="translate(686 1694)" fill="none"/><g transform="translate(0 -3)"><circle cx="3.956" cy="3.956" r="3.956" transform="translate(943.957 1753)" fill="#fde47c"/><circle cx="3.956" cy="3.956" r="3.956" transform="translate(943.398 1797.896)" fill="#fde47c"/><circle cx="3.956" cy="3.956" r="3.956" transform="translate(848.213 1846.088)" fill="#fde47c"/><circle cx="3.956" cy="3.956" r="3.956" transform="translate(793 1918.523)" fill="#fde47c"/><circle cx="3.956" cy="3.956" r="3.956" transform="translate(779 1826.531)" fill="#fde47c"/><circle cx="3.956" cy="3.956" r="3.956" transform="translate(748 1922.479)" fill="#fde47c"/><circle cx="3.956" cy="3.956" r="3.956" transform="translate(1077.011 1867.443)" fill="#f5c84c"/><circle cx="3.956" cy="3.956" r="3.956" transform="translate(1096.088 1801.853)" fill="#fde47c"/><path d="M168.183,145.374a16.715,16.715,0,0,0-17.765-17.765,20.832,20.832,0,0,0,12.9-4.861,20.811,20.811,0,0,0,4.861-12.9,16.718,16.718,0,0,0,17.766,17.765,16.718,16.718,0,0,0-17.766,17.765" transform="translate(684.088 1660.435)" fill="#fde47c"/><path d="M166.073,141.154A14.73,14.73,0,0,0,150.418,125.5a18.358,18.358,0,0,0,11.371-4.283,18.339,18.339,0,0,0,4.283-11.371A14.732,14.732,0,0,0,181.729,125.5a14.732,14.732,0,0,0-15.656,15.655" transform="translate(858.095 1668.441)" fill="#fde47c"/><path d="M163.861,136.732a12.649,12.649,0,0,0-13.443-13.443,15.765,15.765,0,0,0,9.765-3.678,15.749,15.749,0,0,0,3.678-9.765,12.651,12.651,0,0,0,13.445,13.443,12.651,12.651,0,0,0-13.445,13.443" transform="translate(959.476 1823.979)" fill="#fab545"/><path d="M163.861,136.732a12.649,12.649,0,0,0-13.443-13.443,15.765,15.765,0,0,0,9.765-3.678,15.749,15.749,0,0,0,3.678-9.765,12.651,12.651,0,0,0,13.445,13.443,12.651,12.651,0,0,0-13.445,13.443" transform="translate(619.094 1744.155)" fill="#fab545"/><g transform="translate(-2)"><g transform="translate(-44.831 29.783)"><path d="M9125.855-3398.833h269.011l-118.574-123.055a21.311,21.311,0,0,0-30.87-.062Z" transform="translate(-8273.024 5324.053)" fill="#fde47c"/><path d="M9125.855-3408.979h269.011l-118.574-113.429a22.58,22.58,0,0,0-30.87-.057Z" transform="translate(-8273.024 5332.411)" fill="url(#a)"/></g><path d="M9401.608-3299.322l-107.056,114.88c-16.735,16.7-48.013,19.585-64.748,2.889l-111.246-117.769a22.532,22.532,0,0,1,21.012-14.388H9380.6A22.527,22.527,0,0,1,9401.608-3299.322Z" transform="translate(-8316.686 5261.875)" fill="#f8b545"/><g transform="translate(-9)"><g transform="translate(-803 220)"><rect width="185" height="216" transform="translate(1660 1650)" fill="#fff"/><path d="M1842.667,1809.667v-160H1797.24L1657.667,1717v128l185,25.333Z" transform="translate(2.333 0.333)" fill="url(#b)"/></g><g transform="matrix(0.966, -0.259, 0.259, 0.966, 862.307, 1930.047)"><g transform="translate(0 0)"><g transform="translate(64.74)"><g transform="translate(50.927 33.999)"><path d="M23.177,10.586V29.974A10.592,10.592,0,0,1,12.594,40.556H0V0H12.594A10.6,10.6,0,0,1,23.177,10.586Z" transform="translate(0 0)" fill="#e6e9f5"/><path d="M23.177,10.586V14.9H0V0H12.594A10.6,10.6,0,0,1,23.177,10.586Z" transform="translate(0 0)" fill="#d6ddf6"/></g><g transform="translate(0)"><path d="M59.965,0V108.684a194.209,194.209,0,0,0-49.842-28C6.414,79.273,3.011,78.107,0,77.153V31.531c3.011-.954,6.414-2.12,10.123-3.537A194.182,194.182,0,0,0,59.965,0Z" fill="#e6e9f5"/><path d="M59.965,0V59.2H0V31.531c3.011-.954,6.414-2.12,10.123-3.537A194.182,194.182,0,0,0,59.965,0Z" fill="#d8def5"/></g></g><g transform="translate(0 30.586)"><path d="M68.473,0V47.508H49.739l7.217,39.916h-27L22.743,47.508H14.154V39.785H0V7.726H14.154V0Z" transform="translate(0 0)" fill="#ff3a59"/><rect width="14.285" height="14.285" transform="translate(0 7.699)" fill="rgba(0,0,0,0.1)"/><rect width="54.571" height="14.285" transform="translate(14.138 0)" fill="rgba(0,0,0,0.1)"/><path d="M0,0H26.915l1.954,11.147H1.953Z" transform="translate(22.811 47.557)" fill="rgba(0,0,0,0.1)"/></g></g><path d="M0,2.212,25.658,0V8.848L0,6.636Z" transform="translate(155.047 48.285)" fill="#ff3a59"/><path d="M0,2.212,25.658,0V8.848L0,6.636Z" transform="translate(148.204 28.721) rotate(-30)" fill="#ff3a59"/><path d="M0,6.636,25.658,8.848V0L0,2.212Z" transform="translate(152.628 65.704) rotate(30)" fill="#ff3a59"/></g></g><g transform="translate(-8697.21 5957.26)"><path d="M9784.3-3988.2v156.18a22.521,22.521,0,0,1-22.53,22.53H9520.74a22.527,22.527,0,0,1-22.53-22.53v-156.1a22.458,22.458,0,0,1,1.521-8.14l97.39,77.78,30,23.95a22.656,22.656,0,0,0,28.27,0l127.391-101.73A22.3,22.3,0,0,1,9784.3-3988.2Z" transform="translate(0 5)" fill="#ffc22a"/><path d="M9784.3-3988.2v156.18a22.521,22.521,0,0,1-22.53,22.53H9520.74a22.527,22.527,0,0,1-22.53-22.53v-156.1a22.458,22.458,0,0,1,1.521-8.14l97.39,77.78,30,23.95a22.656,22.656,0,0,0,28.27,0l127.391-101.73A22.3,22.3,0,0,1,9784.3-3988.2Z" fill="#fde47c"/><path d="M9784.3-3988.2v156.18a22.521,22.521,0,0,1-22.53,22.53H9520.74a22.527,22.527,0,0,1-22.53-22.53v-43.37l98.91-43.09,30,23.95a22.656,22.656,0,0,0,28.27,0l127.391-101.73A22.3,22.3,0,0,1,9784.3-3988.2Z" fill="url(#c)"/></g></g></g></g></svg>