<?xml version="1.0" encoding="utf-8"?>
<!-- Generator: Adobe Illustrator 24.1.3, SVG Export Plug-In . SVG Version: 6.00 Build 0)  -->
<svg version="1.1" id="Layer_1" xmlns="http://www.w3.org/2000/svg" xmlns:xlink="http://www.w3.org/1999/xlink" x="0px" y="0px"
	 width="512px" height="512px" viewBox="0 0 512 512" enable-background="new 0 0 512 512" xml:space="preserve">
<g>
	<path fill="#E5E9EB" d="M78.5,179.5l-2.9-1.3l1.3-2.9c0.3-0.7,0-1.6-0.7-1.9s-1.6,0-1.9,0.7l-1.3,2.9l-2.9-1.3
		c-0.7-0.3-1.6,0-1.9,0.7s0,1.6,0.7,1.9l2.9,1.3l-1.3,2.9c-0.3,0.7,0,1.6,0.7,1.9c0.7,0.3,1.6,0,1.9-0.7l1.3-2.9l2.9,1.3
		c0.7,0.3,1.6,0,1.9-0.7C79.5,180.7,79.2,179.8,78.5,179.5z"/>
	<path fill="#E5E9EB" d="M237.7,194.9l-1.7-0.8l0.8-1.7c0.2-0.4,0-1-0.4-1.1c-0.4-0.2-1,0-1.1,0.4l-0.8,1.7l-1.7-0.8
		c-0.4-0.2-1,0-1.1,0.4c-0.2,0.4,0,1,0.4,1.1l1.7,0.8l-0.8,1.7c-0.2,0.4,0,1,0.4,1.1c0.4,0.2,1,0,1.1-0.4l0.8-1.7l1.7,0.8
		c0.4,0.2,0.9,0,1.1-0.4C238.3,195.6,238.1,195.1,237.7,194.9z"/>
	<path fill="#E5E9EB" d="M181.5,107.3c-2.2,0-4.1,1.8-4.1,4.1s1.8,4.1,4.1,4.1c2.2,0,4.1-1.8,4.1-4.1S183.7,107.3,181.5,107.3z
		 M181.5,113.6c-1.2,0-2.3-1-2.3-2.3s1-2.3,2.3-2.3c1.2,0,2.3,1,2.3,2.3S182.7,113.6,181.5,113.6z"/>
	<path fill="#E5E9EB" d="M441.3,205.9c-3.7,0-6.7,3-6.7,6.7c0,3.7,3,6.7,6.7,6.7s6.7-3,6.7-6.7C447.9,208.9,444.9,205.9,441.3,205.9
		z M441.3,216.3c-2,0-3.7-1.7-3.7-3.7s1.7-3.7,3.7-3.7s3.7,1.7,3.7,3.7S443.3,216.3,441.3,216.3z"/>
	<path fill="#E5E9EB" d="M39.8,270.4c-2.3,0-4.3,1.9-4.3,4.3s1.9,4.3,4.3,4.3c2.3,0,4.3-1.9,4.3-4.3S42.1,270.4,39.8,270.4z
		 M39.8,277c-1.3,0-2.4-1.1-2.4-2.4c0-1.3,1.1-2.4,2.4-2.4c1.3,0,2.4,1.1,2.4,2.4C42.1,276,41.1,277,39.8,277z"/>
	<g>
		<rect x="24.4" y="409.8" fill="#E5E9EB" width="465.2" height="2.4"/>
	</g>
	<g>
		<rect x="495.1" y="409.8" fill="#E5E9EB" width="16.9" height="2.4"/>
	</g>
	<g>
		<rect y="409.8" fill="#E5E9EB" width="14.2" height="2.4"/>
	</g>
	<g>
		<rect x="59.7" y="429.1" fill="#E5E9EB" width="13.9" height="2.4"/>
	</g>
	<g>
		<rect x="93.4" y="429.1" fill="#E5E9EB" width="25.1" height="2.4"/>
	</g>
	<g>
		<rect x="384.7" y="429.1" fill="#E5E9EB" width="11.2" height="2.4"/>
	</g>
	<g>
		<rect x="409.4" y="429.1" fill="#E5E9EB" width="48.5" height="2.4"/>
	</g>
	<g>
		<rect x="39.2" y="445.5" fill="#E5E9EB" width="12.2" height="2.4"/>
	</g>
	<g>
		<rect x="464" y="445.5" fill="#E5E9EB" width="12.2" height="2.4"/>
	</g>
	<g>
		<g>
			<g>
				<path fill="#E5E9EB" d="M235.9,403.8h-49.6l0.9-2c3.3-7.7,3.6-14.3,3.1-21.8l-0.1-1.6l41.8-0.2v1.4c0.1,4.9,1.3,15.9,3.4,22.2
					L235.9,403.8z M190.7,400.9h41.4c-1.6-6-2.7-14.7-2.9-19.7l-35.9,0.1C193.7,387.9,193.2,394,190.7,400.9z"/>
			</g>
		</g>
	</g>
	<g>
		<g>
			<g>
				<g>
					<path fill="#E5E9EB" d="M172.2,381.1c-37.6,0-68-0.2-69.4-0.7c-3.2-1.2-7.4-5.6-7.5-8.8c-0.2-6.9-0.4-16.2-0.8-27
						c-1-32.6-2.4-77.2-0.6-101.9c0.3-4.5,4.1-8,8.5-8c0.1,0,0.1,0,0.2,0l216.8,0.3c4.6,0.1,8.3,3.7,8.3,8.4
						c0.2,7.2,0.4,14.6,0.6,22.1c1,31.3,2,63.6-1.4,94.2c-0.2,1.2-0.2,2.6-0.2,3.9c-0.3,6.4-0.6,14.4-9,16.1
						C313.7,380.5,233.4,381.1,172.2,381.1z M102.4,237.1c-3.3,0-6,2.6-6.2,5.8c-1.8,24.6-0.4,69.1,0.6,101.6
						c0.3,10.8,0.6,20.2,0.8,27c0.1,2,3.4,5.7,5.9,6.6c4.6,0.9,208.5,0.2,213.8-0.8c6.5-1.3,6.8-7.7,7.1-13.9
						c0.1-1.4,0.2-2.8,0.3-4.1c3.4-30.4,2.4-62.7,1.4-93.9c-0.2-7.5-0.5-14.9-0.6-22.1c-0.1-3.4-2.7-6.1-6.1-6.2l-216.8-0.3
						C102.5,237.1,102.5,237.1,102.4,237.1z"/>
				</g>
			</g>
		</g>
	</g>
	<g>
		<g>
			<path fill-rule="evenodd" clip-rule="evenodd" fill="#F1F1F3" d="M313.3,242.6L109,242.4c-3.7-0.1-6.8,2.5-7,5.8
				c-2.3,27.4,0.9,84.4,1.3,107.3c0.1,2.3,3.7,5.6,6.3,6.4c3.1,1,197.3,0.2,202-0.6c8.5-1.5,7.1-10.2,7.8-15.8
				c4.1-31.6,1.6-65.9,0.8-96.8C320,245.3,317.1,242.7,313.3,242.6z"/>
		</g>
	</g>
	<g>
		<g>
			<g>
				<g>
					<path fill="#E5E9EB" d="M253.7,411.6h-85c-3.4,0-5.1-2.7-5.1-5.3s1.8-5.3,5.1-5.3h85c3.4,0,5.1,2.7,5.1,5.3
						C258.8,408.9,257,411.6,253.7,411.6z M168.7,403.4c-2.3,0-2.8,1.9-2.8,3s0.6,3,2.8,3h85c2.3,0,2.8-1.9,2.8-3s-0.6-3-2.8-3
						H168.7z"/>
				</g>
			</g>
		</g>
	</g>
	<g>
		<g>
			<g>
				<g>
					<g>
						<path fill-rule="evenodd" clip-rule="evenodd" fill="#415C92" d="M288.8,370.1C288.2,370.1,288.2,370.1,288.8,370.1"/>
					</g>
				</g>
			</g>
			<g>
				<g>
					<g>
						<g>
							<path fill="#EEEDED" d="M288.8,373.1c3.8,0,3.8-5.9,0-5.9S285,373.1,288.8,373.1L288.8,373.1z"/>
						</g>
					</g>
				</g>
			</g>
		</g>
		<g>
			<g>
				<g>
					<g>
						<path fill-rule="evenodd" clip-rule="evenodd" fill="#415C92" d="M300.7,370.1C300.2,370.1,300.2,370.1,300.7,370.1"/>
					</g>
				</g>
			</g>
			<g>
				<g>
					<g>
						<g>
							<path fill="#EEEDED" d="M300.7,373.1c3.8,0,3.8-5.9,0-5.9S296.9,373.1,300.7,373.1L300.7,373.1z"/>
						</g>
					</g>
				</g>
			</g>
		</g>
		<g>
			<g>
				<g>
					<g>
						<path fill-rule="evenodd" clip-rule="evenodd" fill="#415C92" d="M312.7,370.1C312.2,370.1,312.2,370.1,312.7,370.1"/>
					</g>
				</g>
			</g>
			<g>
				<g>
					<g>
						<g>
							<path fill="#EEEDED" d="M312.7,373.1c3.8,0,3.8-5.9,0-5.9C308.9,367.1,308.9,373.1,312.7,373.1L312.7,373.1z"/>
						</g>
					</g>
				</g>
			</g>
		</g>
	</g>
	<g>
		<g>
			<g>
				<g>
					<path fill-rule="evenodd" clip-rule="evenodd" fill="#415C92" d="M182.4,239.4C182.1,239.4,182.1,239.4,182.4,239.4"/>
				</g>
			</g>
		</g>
	</g>
	<g>
		<g>
			<polygon fill="#E5E9EB" points="422.1,406 392.7,406 404,368.9 410.8,368.9 			"/>
		</g>
		<g>
			<g>
				<rect x="390.3" y="406" fill="#E5E9EB" width="34.1" height="4.2"/>
			</g>
		</g>
		<g>
			<polygon fill="#FFFFFF" points="395.6,396.8 392.7,406 422.1,406 419.2,396.8 			"/>
		</g>
		<g>
			<polygon fill="#FFFFFF" points="398.4,387.5 416.4,387.5 413.6,378.2 401.2,378.2 			"/>
		</g>
	</g>
	<g id="XMLID_11_">
		<g id="XMLID_493_">
			<path fill="#E5E9EB" d="M434.1,409.9h6.5v-25.2h33.4v25.2h6.5v-25.2h6.9v-20.1h-5.5v-1.9h-9.4v1.9h-29.5v-1.9h-9.4v1.9h-6v20.1
				h6.8V409.9z M485.2,366.8L485.2,366.8l-4,15.9H474l4.1-15.9H485.2z M466.6,382.7h-7.2l4.1-15.9h7.2L466.6,382.7z M451.9,382.7
				h-7.2l4.1-15.9h7.2L451.9,382.7z M434.1,366.8h7.2l-4.1,15.9h-7.2L434.1,366.8z"/>
		</g>
	</g>
	<g>
		<g>
			<g>
				<g>
					<path fill="#F1F1F3" d="M165.1,182.3l1.3-2.4c0.3-0.5,0.1-1.1-0.4-1.3l-2.1-1.2c-0.5-0.3-0.8-0.9-0.7-1.5l0.4-3.6
						c0-0.6,0.5-1.1,1-1.3l2.3-0.7c0.5-0.2,0.8-0.7,0.7-1.3l-0.8-2.6c-0.2-0.5-0.7-0.8-1.3-0.7l-2.3,0.7c-0.5,0.2-1.3-0.1-1.5-0.5
						l-2.3-2.8c-0.4-0.4-0.5-1.1-0.2-1.6l1.2-2.1c0.3-0.5,0.1-1.1-0.4-1.3l-2.4-1.3c-0.5-0.3-1.1-0.1-1.3,0.4l-1.2,2.1
						c-0.3,0.5-0.9,0.8-1.4,0.7l-3.6-0.4c-0.6,0-1.1-0.4-1.3-1l-0.7-2.3c-0.2-0.5-0.7-0.8-1.3-0.7l-2.6,0.8
						c-0.5,0.2-0.8,0.7-0.7,1.3l0.7,2.3c0.2,0.5-0.1,1.3-0.5,1.5l-2.8,2.3c-0.4,0.4-1.1,0.5-1.6,0.2l-2.1-1.2
						c-0.5-0.3-1.1-0.1-1.3,0.4l-1.3,2.4c-0.3,0.5-0.1,1.1,0.4,1.3l2.1,1.2c0.5,0.3,0.8,0.9,0.7,1.5l-0.4,3.6c0,0.6-0.5,1.1-1,1.3
						l-2.3,0.7c-0.5,0.2-0.8,0.7-0.7,1.3l0.8,2.6c0.2,0.5,0.7,0.8,1.3,0.7l2.3-0.7c0.5-0.2,1.3,0.1,1.5,0.5l2.3,2.8
						c0.4,0.4,0.5,1.1,0.2,1.6l-1.2,2.1c-0.3,0.5-0.1,1.1,0.4,1.3l2.4,1.3c0.5,0.3,1.1,0.1,1.3-0.4l1.2-2.1c0.3-0.5,0.9-0.8,1.5-0.7
						l3.6,0.4c0.6,0,1.1,0.4,1.3,1l0.7,2.3c0.2,0.5,0.7,0.8,1.3,0.7l2.6-0.8c0.5-0.2,0.8-0.7,0.7-1.3l-0.7-2.3
						c-0.2-0.5,0.1-1.3,0.5-1.5l2.8-2.3c0.4-0.4,1.1-0.5,1.6-0.2l2.1,1.2C164.3,182.9,164.9,182.7,165.1,182.3z M152.7,180.3
						c-4.3,1.2-8.7-1.2-9.9-5.5s1.2-8.7,5.5-9.9c4.3-1.2,8.7,1.2,9.9,5.5C159.4,174.6,157,179.1,152.7,180.3z"/>
				</g>
			</g>
			<g>
				<g>
					<path fill="#F1F1F3" d="M185.2,184.4l-0.9-1.4c-0.2-0.3-0.6-0.4-0.9-0.2l-1.2,0.8c-0.3,0.2-0.8,0.1-1,0l-1.8-1.3
						c-0.3-0.2-0.5-0.6-0.4-0.9l0.3-1.5c0.1-0.3-0.1-0.7-0.5-0.8l-1.6-0.3c-0.3-0.1-0.7,0.1-0.8,0.5l-0.3,1.5
						c-0.1,0.3-0.4,0.6-0.8,0.7l-2.2,0.4c-0.3,0.1-0.7,0-0.9-0.4l-0.8-1.2c-0.2-0.3-0.6-0.4-0.9-0.2l-1.4,0.9
						c-0.3,0.2-0.4,0.6-0.2,0.9l0.8,1.2c0.2,0.3,0.1,0.8,0,1l-1.3,1.8c-0.2,0.3-0.6,0.5-0.9,0.4l-1.5-0.3c-0.3-0.1-0.7,0.1-0.8,0.5
						l-0.3,1.6c-0.1,0.3,0.1,0.7,0.5,0.8l1.5,0.3c0.3,0.1,0.6,0.4,0.7,0.8l0.4,2.2c0.1,0.3,0,0.7-0.4,0.9l-1.2,0.8
						c-0.3,0.2-0.4,0.6-0.2,0.9l0.9,1.4c0.2,0.3,0.6,0.4,0.9,0.2l1.2-0.8c0.3-0.2,0.8-0.1,1,0l1.8,1.3c0.3,0.2,0.5,0.6,0.4,0.9
						l-0.3,1.5c-0.1,0.3,0.1,0.7,0.5,0.8l1.6,0.3c0.3,0.1,0.7-0.1,0.8-0.5l0.3-1.5c0.1-0.3,0.4-0.6,0.8-0.7l2.2-0.4
						c0.3-0.1,0.7,0,0.9,0.4l0.8,1.2c0.2,0.3,0.6,0.4,0.9,0.2l1.4-0.9c0.3-0.2,0.4-0.6,0.2-0.9l-0.8-1.2c-0.2-0.3-0.1-0.8,0-1
						l1.3-1.8c0.2-0.3,0.6-0.5,0.9-0.4l1.5,0.3c0.3,0.1,0.7-0.1,0.8-0.5l0.3-1.6c0.1-0.3-0.1-0.7-0.5-0.8l-1.5-0.3
						c-0.3-0.1-0.6-0.4-0.7-0.8l-0.4-2.2c-0.1-0.3,0-0.7,0.4-0.9l1.2-0.8C185.2,185.1,185.4,184.7,185.2,184.4z M180.4,190.7
						c-0.6,2.7-3.3,4.4-6,3.8c-2.7-0.6-4.4-3.3-3.8-6c0.6-2.7,3.3-4.4,6-3.8C179.3,185.3,181,188,180.4,190.7z"/>
				</g>
			</g>
		</g>
	</g>
	<g>
		<g>
			<path fill="#E5E9EB" d="M112.3,410.4c-0.8,0-1.4-0.6-1.4-1.4V298.4c0-0.8,0.6-1.4,1.4-1.4c0.8,0,1.4,0.6,1.4,1.4V409
				C113.8,409.8,113.2,410.4,112.3,410.4z"/>
		</g>
		<g>
			<path fill="#E5E9EB" d="M138,410.4c-0.8,0-1.4-0.6-1.4-1.4V298.4c0-0.8,0.6-1.4,1.4-1.4s1.4,0.6,1.4,1.4V409
				C139.5,409.8,138.8,410.4,138,410.4z"/>
		</g>
		<g>
			<path fill="#E5E9EB" d="M138,307.4h-25.7c-0.8,0-1.4-0.6-1.4-1.4s0.6-1.4,1.4-1.4H138c0.8,0,1.4,0.6,1.4,1.4
				C139.5,306.7,138.8,307.4,138,307.4z"/>
		</g>
		<g>
			<path fill="#E5E9EB" d="M138,320h-25.7c-0.8,0-1.4-0.6-1.4-1.4s0.6-1.4,1.4-1.4H138c0.8,0,1.4,0.6,1.4,1.4S138.8,320,138,320z"/>
		</g>
		<g>
			<path fill="#E5E9EB" d="M138,332.6h-25.7c-0.8,0-1.4-0.6-1.4-1.4s0.6-1.4,1.4-1.4H138c0.8,0,1.4,0.6,1.4,1.4
				C139.5,332,138.8,332.6,138,332.6z"/>
		</g>
		<g>
			<path fill="#E5E9EB" d="M138,345.2h-25.7c-0.8,0-1.4-0.6-1.4-1.4s0.6-1.4,1.4-1.4H138c0.8,0,1.4,0.6,1.4,1.4
				S138.8,345.2,138,345.2z"/>
		</g>
		<g>
			<path fill="#E5E9EB" d="M138,357.9h-25.7c-0.8,0-1.4-0.6-1.4-1.4s0.6-1.4,1.4-1.4H138c0.8,0,1.4,0.6,1.4,1.4
				C139.5,357.2,138.8,357.9,138,357.9z"/>
		</g>
		<g>
			<path fill="#E5E9EB" d="M138,370.6h-25.7c-0.8,0-1.4-0.6-1.4-1.4c0-0.8,0.6-1.4,1.4-1.4H138c0.8,0,1.4,0.6,1.4,1.4
				C139.4,369.9,138.8,370.6,138,370.6z"/>
		</g>
		<g>
			<path fill="#E5E9EB" d="M138,383.2h-25.7c-0.8,0-1.4-0.6-1.4-1.4c0-0.8,0.6-1.4,1.4-1.4H138c0.8,0,1.4,0.6,1.4,1.4
				C139.5,382.5,138.8,383.2,138,383.2z"/>
		</g>
		<g>
			<path fill="#E5E9EB" d="M138,395.8h-25.7c-0.8,0-1.4-0.6-1.4-1.4c0-0.8,0.6-1.4,1.4-1.4H138c0.8,0,1.4,0.6,1.4,1.4
				C139.4,395.2,138.8,395.8,138,395.8z"/>
		</g>
	</g>
	<g>
		<g>
			<g>
				<g>
					<path fill="#F1F1F3" d="M66.6,332.6c-0.5-2.6-2.3-9.4-6.4-7.2c-6.6,3.5,1.4,16.6-6.6,18.9c-0.5-5.2-1.6-8.9-3.9-8.7
						c-4.9,0.5-3.6,11.8-3.7,14.3c-0.1,2.6-0.2,5.1-0.3,7.8c-5.8,1-4.6-14-8.1-16.1c-5.5-3.2-6.6,4-6.5,7.2
						c0.2,5.6,1.8,12.4,7.1,15.4c1.7,1,4.8,2.1,7.2,1.9c0,4.5,0.2,9,0.9,13.3c0,0.1,0.1,0.1,0.1,0l0,0l3.2,0.2v0.1
						c0,1.4,2.2,1.4,2.2,0c0.1-2.7,1.7-16.1,1.9-27.4c2.6,0.4,5.8-0.8,7.6-2.2C66.9,346.2,67.6,338.8,66.6,332.6z"/>
				</g>
				<g>
					<path fill="#E5E9EB" d="M50.7,381.6c-0.3,0-0.6-0.1-0.9-0.2c-0.3-0.2-0.5-0.5-0.7-0.9l-2.4-0.2h-0.9l-0.2-0.5
						c-0.6-3.7-0.9-7.7-0.9-12.8c-2.7,0-5.5-1.2-6.9-2c-5.7-3.2-7.2-10.4-7.4-15.9c-0.1-2.2,0.4-6.8,2.8-8.3
						c1.2-0.8,2.8-0.6,4.5,0.5c1.7,1,2.3,4.1,3.1,7.6c1,4.8,1.9,8.3,4.1,8.3l0.1-1.2c0.1-2,0.2-4.1,0.2-6.1c0-0.4,0-1-0.1-1.7
						c-0.2-4.4-0.5-12.8,4.3-13.3c0.7-0.1,1.4,0.2,1.9,0.6c1.3,1.1,2.2,3.7,2.6,7.8c3-1.3,2.8-4.8,2.7-8.7c-0.2-4-0.4-8.1,3.1-10
						c1.2-0.6,2.3-0.6,3.2-0.2c2.9,1.5,3.9,7.2,4.1,7.9l0,0c0.8,4.8,1.1,13.6-5.4,18.2c-1.8,1.3-4.8,2.5-7.4,2.3
						c-0.2,7.4-0.9,15.6-1.4,21c-0.2,2.7-0.5,4.9-0.5,5.8c0,0.6-0.3,1.2-0.9,1.4C51.4,381.6,51,381.6,50.7,381.6z M46.8,379.1
						l3.4,0.2v0.6c0,0.3,0.1,0.4,0.2,0.4c0.2,0.1,0.4,0.1,0.6,0c0.2-0.1,0.2-0.2,0.2-0.4c0-0.9,0.2-3,0.5-5.8
						c0.5-5.6,1.3-14,1.4-21.6v-0.7l0.7,0.1c2.4,0.4,5.5-0.8,7.2-2c5.9-4.4,5.6-12.5,4.9-17.1l0,0c-0.3-1.9-1.4-6-3.4-6.9
						c-0.6-0.3-1.3-0.3-2.1,0.2c-2.8,1.5-2.7,5.1-2.5,8.8c0.2,4.1,0.4,8.8-4.2,10.2l-0.7,0.2l-0.1-0.8c-0.5-5.2-1.4-7.1-2.2-7.7
						c-0.3-0.3-0.7-0.4-1.1-0.3c-3.5,0.3-3.3,8.2-3.1,12c0,0.8,0.1,1.4,0.1,1.8c-0.1,2-0.2,4.1-0.2,6.1l-0.1,2.2l-0.5,0.1
						c-3.9,0.7-5.1-4.6-6-9.3c-0.6-3-1.3-6.2-2.5-6.9c-1.3-0.8-2.4-0.9-3.3-0.5c-1.8,1.1-2.3,5-2.3,7.2c0.2,5.2,1.6,12,6.8,14.9
						c1.8,1,4.7,2,6.9,1.8l0.7-0.1v0.7C46,371.4,46.3,375.5,46.8,379.1z"/>
				</g>
			</g>
			<g>
				<g>
					<g>
						<g>
							<path fill="#E5E9EB" d="M60.2,410.2H36.9c-1.2,0-2.3-0.8-2.5-2l-5.3-27.3l2.2-0.5l5.3,27.3c0.1,0.2,0.2,0.2,0.3,0.2h23.4
								c0.1,0,0.2,0,0.3-0.2l5.2-27.3l2.2,0.5l-5.2,27.3C62.4,409.4,61.5,410.2,60.2,410.2z"/>
						</g>
					</g>
				</g>
			</g>
			<g>
				<g>
					<g>
						<path fill="#FFFFFF" d="M29.3,372.2h38.8c0.7,0,1.2,0.7,1.2,1.6v5.9c0,0.9-0.5,1.6-1.2,1.6H29.3c-0.7,0-1.2-0.7-1.2-1.6v-5.9
							C28.1,372.9,28.7,372.2,29.3,372.2z"/>
					</g>
					<g>
						<path fill="#405C92" d="M68.1,381.9H29.3c-1,0-1.8-1-1.8-2.3v-5.9c0-1.2,0.8-2.3,1.8-2.3h38.8c1,0,1.8,1,1.8,2.3v5.9
							C69.9,380.9,69.1,381.9,68.1,381.9z M29.3,372.8c-0.3,0-0.6,0.5-0.6,1v5.9c0,0.5,0.3,1,0.6,1h38.8c0.3,0,0.6-0.5,0.6-1v-5.9
							c0-0.5-0.3-1-0.6-1H29.3z"/>
					</g>
				</g>
				<g>
					<g>
						<path fill="#B9CFEC" d="M68.1,381.9H29.3c-0.9,0-1.7-0.9-1.7-2.1v-5.9c0-1.2,0.8-2.1,1.7-2.1h38.8c0.9,0,1.7,0.9,1.7,2.1v5.9
							C69.8,380.9,69.1,381.9,68.1,381.9z M29.3,372.7c-0.3,0-0.7,0.5-0.7,1.1v5.9c0,0.6,0.4,1.1,0.7,1.1h38.8
							c0.3,0,0.7-0.5,0.7-1.1v-5.9c0-0.7-0.4-1.1-0.7-1.1H29.3z"/>
					</g>
					<g>
						<g>
							<path fill="#E5E9EB" d="M68.1,382.5H29.3c-1.3,0-2.3-1.2-2.3-2.7v-5.9c0-1.5,1-2.7,2.3-2.7h38.8c1.3,0,2.3,1.2,2.3,2.7v5.9
								C70.5,381.2,69.4,382.5,68.1,382.5z M29.4,373.3c-0.1,0.1-0.2,0.2-0.2,0.5v5.9c0,0.3,0.2,0.5,0.2,0.5h38.7
								c-0.1,0,0.1-0.2,0.1-0.5v-5.9c0-0.3-0.2-0.5-0.2-0.5H29.4z"/>
						</g>
					</g>
				</g>
			</g>
		</g>
		<g>
			<g>
				<path fill="#E5E9EB" d="M33.5,349.1c0.6,0.1,1.2,0.2,1.9,0.2c0.7,0.1,0.7-1,0-1.1c-0.6-0.1-1.2-0.2-1.9-0.2
					C32.9,347.9,32.9,349,33.5,349.1L33.5,349.1z"/>
			</g>
		</g>
		<g>
			<g>
				<path fill="#E5E9EB" d="M36.3,340.6c0,0.3,0,0.6,0,0.9c0,0.7,1.1,0.7,1.1,0c0-0.3,0-0.6,0-0.9C37.4,339.9,36.3,339.9,36.3,340.6
					L36.3,340.6z"/>
			</g>
		</g>
		<g>
			<g>
				<path fill="#E5E9EB" d="M40.1,350.5c0.5-0.2,0.9-0.5,1.4-0.8c0.6-0.3,0.1-1.2-0.5-0.9c-0.5,0.2-0.9,0.5-1.4,0.8
					C38.9,349.8,39.4,350.8,40.1,350.5L40.1,350.5z"/>
			</g>
		</g>
		<g>
			<g>
				<path fill="#E5E9EB" d="M34.5,362.9c0.5-0.4,1.1-0.8,1.7-1.2c0.5-0.4,0-1.3-0.5-0.9c-0.5,0.4-1.1,0.8-1.7,1.2
					C33.4,362.3,34,363.2,34.5,362.9L34.5,362.9z"/>
			</g>
		</g>
		<g>
			<g>
				<path fill="#E5E9EB" d="M30.6,353.6c0.4,0.2,0.8,0.3,1.2,0.5c0.6,0.2,0.9-0.8,0.3-1c-0.4-0.2-0.8-0.3-1.2-0.5
					C30.2,352.3,29.8,353.3,30.6,353.6L30.6,353.6z"/>
			</g>
		</g>
		<g>
			<g>
				<path fill="#E5E9EB" d="M38.3,358.6c0.2,0,0.4,0.2,0.5,0.3c0.5,0.5,1.2-0.2,0.8-0.8c-0.3-0.4-0.8-0.6-1.3-0.6
					C37.6,357.5,37.6,358.5,38.3,358.6L38.3,358.6z"/>
			</g>
		</g>
		<g>
			<g>
				<path fill="#E5E9EB" d="M40.7,363.6c-0.1,0.8,0,1.4,0.2,2.1c0.2,0.6,1.2,0.1,0.9-0.5c-0.2-0.4-0.2-0.9-0.2-1.2
					C41.9,363.2,40.8,362.9,40.7,363.6L40.7,363.6z"/>
			</g>
		</g>
		<g>
			<g>
				<path fill="#E5E9EB" d="M46.3,363.9c0.3,0.1,0.6,0.2,0.9,0.2c0.7,0.2,0.9-0.9,0.3-1c-0.3-0.1-0.6-0.2-0.9-0.2
					C45.9,362.6,45.7,363.6,46.3,363.9L46.3,363.9z"/>
			</g>
		</g>
		<g>
			<g>
				<path fill="#E5E9EB" d="M49.7,353.3c-0.1,0.6,0.2,1.2,0.6,1.6c0.5,0.5,1.3-0.3,0.8-0.8c-0.3-0.2-0.4-0.5-0.3-0.8
					C50.9,352.6,49.8,352.6,49.7,353.3L49.7,353.3z"/>
			</g>
		</g>
		<g>
			<g>
				<path fill="#E5E9EB" d="M48.4,345.5c-0.3,0.5-0.4,0.9-0.3,1.4c0.2,0.7,1.2,0.4,1-0.3c0-0.2,0-0.4,0.2-0.5
					C49.7,345.5,48.8,345,48.4,345.5L48.4,345.5z"/>
			</g>
		</g>
		<g>
			<g>
				<path fill="#E5E9EB" d="M54.3,348.7c0,0.3,0,0.6,0,0.9c0,0.7,1.1,0.7,1.1,0c0-0.3,0-0.6,0-0.9C55.3,348,54.3,348,54.3,348.7
					L54.3,348.7z"/>
			</g>
		</g>
		<g>
			<g>
				<path fill="#E5E9EB" d="M44.3,347c0.2,0.2,0.5,0.3,0.7,0.5c0.5,0.4,1.1-0.5,0.5-0.9c-0.2-0.2-0.5-0.3-0.7-0.5
					C44.3,345.7,43.7,346.6,44.3,347L44.3,347z"/>
			</g>
		</g>
		<g>
			<g>
				<path fill="#E5E9EB" d="M46.1,338.1c0.2,0.2,0.3,0.5,0.3,0.8c0.1,0.7,1.2,0.7,1.1,0c-0.1-0.6-0.2-1.1-0.6-1.6
					C46.4,336.8,45.6,337.5,46.1,338.1L46.1,338.1z"/>
			</g>
		</g>
		<g>
			<g>
				<path fill="#E5E9EB" d="M48.8,334.8c0,0.5,0,0.9,0,1.4c0,0.7,1.1,0.7,1.1,0c0-0.5,0-0.9,0-1.4C49.9,334.1,48.8,334.1,48.8,334.8
					L48.8,334.8z"/>
			</g>
		</g>
		<g>
			<g>
				<path fill="#E5E9EB" d="M55.4,341.1c0.2,0.2,0.3,0.3,0.5,0.5c0.5,0.5,1.2-0.2,0.8-0.8c-0.2-0.2-0.3-0.3-0.5-0.5
					C55.7,339.9,54.9,340.6,55.4,341.1L55.4,341.1z"/>
			</g>
		</g>
		<g>
			<g>
				<path fill="#E5E9EB" d="M56.5,334.7c0.5,0,0.9,0.1,1.4,0.1c0.7,0.1,0.7-1,0-1.1c-0.5,0-0.9-0.1-1.4-0.1
					C55.8,333.6,55.8,334.7,56.5,334.7L56.5,334.7z"/>
			</g>
		</g>
		<g>
			<g>
				<path fill="#E5E9EB" d="M58.1,326.1c0.3,0.3,0.6,0.6,0.9,0.9c0.5,0.5,1.2-0.3,0.8-0.8c-0.3-0.3-0.6-0.6-0.9-0.9
					C58.3,324.9,57.5,325.6,58.1,326.1L58.1,326.1z"/>
			</g>
		</g>
		<g>
			<g>
				<path fill="#E5E9EB" d="M62.2,323.3c0,0.5,0,1.1,0,1.6c0,0.7,1.1,0.7,1.1,0c0-0.5,0-1.1,0-1.6C63.3,322.6,62.2,322.6,62.2,323.3
					L62.2,323.3z"/>
			</g>
		</g>
		<g>
			<g>
				<path fill="#E5E9EB" d="M64.1,333.4c0.2-0.2,0.3-0.5,0.5-0.7c0.4-0.5-0.5-1.1-0.9-0.5c-0.2,0.2-0.3,0.5-0.5,0.7
					C62.8,333.5,63.8,334,64.1,333.4L64.1,333.4z"/>
			</g>
		</g>
		<g>
			<g>
				<path fill="#E5E9EB" d="M60.5,344c0.4-0.2,0.8-0.3,1.2-0.5c0.6-0.2,0.4-1.3-0.3-1c-0.4,0.2-0.8,0.3-1.2,0.5
					C59.5,343.2,59.9,344.2,60.5,344L60.5,344z"/>
			</g>
		</g>
		<g>
			<g>
				<path fill="#E5E9EB" d="M65.2,342.5c0.4-0.1,0.8-0.2,1.2-0.2c0.7-0.2,0.4-1.2-0.3-1c-0.4,0.1-0.8,0.2-1.2,0.2
					C64.3,341.6,64.6,342.6,65.2,342.5L65.2,342.5z"/>
			</g>
		</g>
		<g>
			<g>
				<path fill="#E5E9EB" d="M62.2,347.5c0,0.1,0,0.2,0,0.2c0,0.7,1.1,0.7,1.1,0c0-0.1,0-0.2,0-0.2C63.3,346.8,62.2,346.8,62.2,347.5
					L62.2,347.5z"/>
			</g>
		</g>
		<g>
			<g>
				<path fill="#E5E9EB" d="M52.9,364c0.2-0.2,0.5-0.3,0.7-0.5c0.5-0.4,0.1-1.3-0.5-0.9c-0.2,0.2-0.5,0.3-0.7,0.5
					C51.8,363.5,52.4,364.4,52.9,364L52.9,364z"/>
			</g>
		</g>
		<g>
			<g>
				<path fill="#E5E9EB" d="M52.3,368c0.5-0.4,0.9-0.6,1.5-0.8c0.7-0.2,0.4-1.2-0.3-1c-0.8,0.2-1.4,0.5-1.9,1.1
					C51,367.7,51.8,368.5,52.3,368L52.3,368z"/>
			</g>
		</g>
		<g>
			<g>
				<path fill="#E5E9EB" d="M47.9,368.6c0.1,0.2,0.2,0.3,0.2,0.5c0.3,0.6,1.2,0.1,0.9-0.5c-0.1-0.2-0.2-0.3-0.2-0.5
					C48.5,367.4,47.5,368,47.9,368.6L47.9,368.6z"/>
			</g>
		</g>
		<g>
			<g>
				<path fill="#E5E9EB" d="M43.8,369.8c0.6,0.3,1.2,0.4,1.9,0.2c0.7-0.2,0.4-1.2-0.3-1c-0.4,0.1-0.7,0-1-0.2
					C43.7,368.5,43.2,369.5,43.8,369.8L43.8,369.8z"/>
			</g>
		</g>
		<g>
			<g>
				<path fill="#E5E9EB" d="M52.7,359.6c0.7-0.1,1.4-0.2,2.2-0.2c0.7-0.1,0.7-1.2,0-1.1s-1.4,0.2-2.2,0.2
					C52,358.6,52,359.7,52.7,359.6L52.7,359.6z"/>
			</g>
		</g>
	</g>
	<g>
		<g>
			<g>
				<path fill="#FFFFFF" d="M170.1,312.3c11.6-10.4,23.1-21,34.8-31.4c1.7-1.6-0.9-4.1-2.6-2.6c-11.6,10.4-23.1,21-34.8,31.4
					C165.9,311.4,168.4,313.9,170.1,312.3L170.1,312.3z"/>
			</g>
		</g>
		<g>
			<g>
				<path fill="#FFFFFF" d="M209.4,328.4c11.6-10.4,23.1-21,34.8-31.4c1.7-1.6-0.9-4.1-2.6-2.6c-11.6,10.4-23.1,21-34.8,31.4
					C205.2,327.4,207.7,330,209.4,328.4L209.4,328.4z"/>
			</g>
		</g>
		<g>
			<g>
				<path fill="#FFFFFF" d="M166.8,340.2c24.3-23.7,48.6-47.4,72.9-71.1c1.6-1.6-0.9-4.1-2.6-2.6c-24.3,23.7-48.6,47.4-72.9,71.1
					C162.6,339.4,165.1,341.9,166.8,340.2L166.8,340.2z"/>
			</g>
		</g>
	</g>
	<g>
		<g>
			<g>
				<rect x="276.5" y="119.4" fill="#E5E9EB" width="1.6" height="100.3"/>
			</g>
		</g>
		<g>
			<g>
				<path fill="#E5E9EB" d="M277.5,240.9c-0.1,0-2.2,0-3.7-1.6c-1-1-1.6-2.4-1.6-4.1c0-0.5,0.4-0.9,0.9-0.9s0.9,0.4,0.9,0.9
					c0,1.3,0.3,2.3,1,3c1,1,2.5,1,2.5,1c2.4,0,4.3-1.9,4.3-4.3c0-2.4-1.9-4.3-4.3-4.3c-0.5,0-0.9-0.4-0.9-0.9v-4.7
					c0-0.5,0.4-0.9,0.9-0.9c0.5,0,0.9,0.4,0.9,0.9v3.9c2.9,0.4,5.1,2.9,5.1,5.9C283.4,238.3,280.7,240.9,277.5,240.9L277.5,240.9z"
					/>
			</g>
		</g>
		<g>
			<g>
				<path fill="#F1F1F3" d="M283.7,219.6c0,3.5-2.9,6.4-6.4,6.4c-3.5,0-6.4-2.9-6.4-6.4s2.9-6.4,6.4-6.4
					C280.8,213.3,283.7,216.1,283.7,219.6z"/>
			</g>
		</g>
	</g>
	<g>
		<g>
			<g>
				<path fill="#E5E9EB" d="M244,244.8c-0.3-0.1-0.6-0.3-0.6-0.6c-0.1-0.5,0.2-0.8,0.7-0.9l34.5-5.1c0.5-0.1,0.9,0.2,0.9,0.7
					c0.1,0.5-0.2,0.8-0.7,0.9l-34.5,5.1C244.2,244.9,244.1,244.9,244,244.8z"/>
			</g>
		</g>
		<g>
			<g>
				<path fill="#E5E9EB" d="M310.1,256.3c-0.1,0-0.2-0.1-0.2-0.1l-31.7-16.5c-0.4-0.2-0.5-0.7-0.3-1c0.2-0.4,0.7-0.5,1-0.3
					l31.7,16.5c0.4,0.2,0.5,0.7,0.3,1C310.8,256.2,310.4,256.4,310.1,256.3z"/>
			</g>
		</g>
		<g>
			<path fill="#FFFFFF" d="M307.6,322.5l-84.4-14.7c-4.4-0.8-7.4-5-6.6-9.4l8.4-48.6c0.8-4.4,5-7.4,9.4-6.6l84.4,14.7
				c4.4,0.8,7.4,5,6.6,9.4l-8.4,48.6C316.2,320.3,312,323.3,307.6,322.5z"/>
			<path fill="#E5E9EB" d="M308.7,323.6c-0.5,0-1.1-0.1-1.6-0.2l-83.8-14.6c-2.5-0.5-4.7-1.8-6.2-3.9c-1.5-2.1-2-4.6-1.6-7.1l8.3-48
				c0.9-5.1,5.8-8.7,11-7.7l83.8,14.6c2.5,0.5,4.7,1.8,6.2,3.9c1.5,2.1,2,4.6,1.6,7.1l-8.3,48C317.3,320.4,313.2,323.6,308.7,323.6z
				 M233.3,244.2c-3.5,0-6.6,2.5-7.2,6.1l-8.3,48c-0.3,1.9,0.1,3.9,1.2,5.5c1.2,1.6,2.8,2.6,4.8,3l83.8,14.6c4,0.7,7.8-2,8.5-6
				l8.3-48c0.3-1.9-0.1-3.9-1.2-5.5s-2.8-2.6-4.8-3l-83.8-14.6C234.1,244.3,233.7,244.2,233.3,244.2z"/>
		</g>
		<g>
			<path fill="#F1F1F3" d="M306.9,317.3l-81.4-14.1c-2.8-0.5-4.8-3.2-4.2-6l7.7-44.3c0.5-2.8,3.2-4.8,6-4.2l81.4,14.1
				c2.8,0.5,4.8,3.2,4.2,6l-7.7,44.3C312.5,315.9,309.7,317.7,306.9,317.3z"/>
			<path fill="#E5E9EB" d="M307.6,318.3c-0.4,0-0.8,0-1.1-0.1l-81-14.1c-1.7-0.3-3.2-1.2-4.2-2.6c-1-1.4-1.4-3.1-1.1-4.8l7.6-44
				c0.6-3.5,4-5.8,7.5-5.2l81,14.1c3.5,0.6,5.8,4,5.2,7.5l-7.6,44c-0.3,1.7-1.2,3.2-2.7,4.2C310.3,318,309,318.3,307.6,318.3z
				 M306.9,316.2c1.2,0.2,2.3-0.1,3.2-0.7c0.9-0.7,1.6-1.6,1.8-2.8l7.6-44c0.4-2.3-1.2-4.6-3.5-5l-81-14.1c-2.3-0.4-4.6,1.2-5,3.5
				l-7.6,44c-0.2,1.2,0.1,2.3,0.7,3.2c0.7,0.9,1.6,1.6,2.8,1.8L306.9,316.2z"/>
		</g>
		<g>
			<polygon fill="#FFFFFF" points="268.3,310.6 289.4,291.2 301,316.2 			"/>
			<path fill="#E5E9EB" d="M302.3,317.1l-35.5-6.2l22.8-21L302.3,317.1z M269.9,310.1l29.9,5.2l-10.7-22.9L269.9,310.1z"/>
		</g>
		<g>
			<polygon fill="#FFFFFF" points="226.7,303.3 264,269.1 284.6,313.4 			"/>
			<path fill="#E5E9EB" d="M285.9,314.3l-60.8-10.6l39.1-35.9L285.9,314.3z M228.3,302.8l55.2,9.6l-19.6-42.2L228.3,302.8z"/>
		</g>
		<g>
			<path fill="#FFFFFF" d="M308.4,275.6c-0.5,2.8-3.2,4.8-6,4.3c-2.8-0.5-4.8-3.2-4.3-6c0.5-2.8,3.2-4.8,6-4.3
				C307,270,308.9,272.7,308.4,275.6z"/>
			<path fill="#E5E9EB" d="M303.3,280.6c-0.3,0-0.7,0-1-0.1c-3.2-0.5-5.4-3.7-4.8-6.9c0.3-1.6,1.2-2.9,2.4-3.8
				c1.3-0.9,2.9-1.2,4.4-1c1.6,0.3,2.9,1.2,3.8,2.4s1.2,2.9,1,4.4c-0.3,1.6-1.2,2.9-2.4,3.8C305.7,280.2,304.5,280.6,303.3,280.6z
				 M303.3,270.2c-0.9,0-1.8,0.3-2.6,0.8c-1,0.7-1.6,1.7-1.9,2.9c-0.2,1.2,0.1,2.4,0.8,3.4c0.7,1,1.7,1.6,2.9,1.9
				c1.2,0.2,2.4-0.1,3.4-0.8c0.9-0.7,1.6-1.7,1.9-2.9l0,0c0.5-2.4-1.2-4.8-3.7-5.2C303.8,270.2,303.5,270.2,303.3,270.2z"/>
		</g>
	</g>
	<g>
		<g>
			<rect x="234.8" y="115.9" fill="#F1F1F3" width="78.3" height="8.6"/>
		</g>
	</g>
	<g>
		<g>
			<g>
				<g>
					<g>
						<g>
							<g>
								<path fill="#E5E9EB" d="M381.1,293.9h-26V64.3h26V293.9z M357.7,291.4h20.8V66.8h-20.8V291.4z"/>
							</g>
						</g>
						<g>
							<g>
								<g>
									<path fill="#E5E9EB" d="M380.7,89.5h-25.3V64.2h25.3V89.5z M358,86.9h20.1V66.8H358V86.9z"/>
								</g>
							</g>
							<g>
								<g>
									
										<rect x="366.8" y="60.8" transform="matrix(0.7071 -0.7071 0.7071 0.7071 53.4823 282.7471)" fill="#E5E9EB" width="2.6" height="32.1"/>
								</g>
							</g>
							<g>
								<g>
									
										<rect x="352" y="75.6" transform="matrix(0.7071 -0.7071 0.7071 0.7071 53.4386 282.7592)" fill="#E5E9EB" width="32.1" height="2.6"/>
								</g>
							</g>
						</g>
						<g>
							<g>
								<g>
									<path fill="#E5E9EB" d="M380.7,112.3h-25.3V86.9h25.3V112.3z M358,109.6h20.1V89.5H358V109.6z"/>
								</g>
							</g>
							<g>
								<g>
									
										<rect x="366.8" y="83.5" transform="matrix(0.7071 -0.7071 0.7071 0.7071 37.4072 289.4279)" fill="#E5E9EB" width="2.6" height="32.1"/>
								</g>
							</g>
							<g>
								<g>
									
										<rect x="352" y="98.3" transform="matrix(0.7071 -0.7071 0.7071 0.7071 37.3871 289.3849)" fill="#E5E9EB" width="32.1" height="2.6"/>
								</g>
							</g>
						</g>
						<g>
							<g>
								<g>
									<path fill="#E5E9EB" d="M380.7,134.9h-25.3v-25.3h25.3V134.9z M358,132.4h20.1v-20.1H358V132.4z"/>
								</g>
							</g>
							<g>
								<g>
									
										<rect x="366.8" y="106.2" transform="matrix(0.7071 -0.7071 0.7071 0.7071 21.3491 296.0537)" fill="#E5E9EB" width="2.6" height="32.1"/>
								</g>
							</g>
							<g>
								<g>
									
										<rect x="352" y="121" transform="matrix(0.7071 -0.7071 0.7071 0.7071 21.2953 296.0644)" fill="#E5E9EB" width="32.1" height="2.6"/>
								</g>
							</g>
						</g>
						<g>
							<g>
								<g>
									<path fill="#E5E9EB" d="M380.7,157.7h-25.3v-25.3h25.3V157.7z M358,155.1h20.1v-20.1H358V155.1z"/>
								</g>
							</g>
							<g>
								<g>
									
										<rect x="366.8" y="128.9" transform="matrix(0.7071 -0.7071 0.7071 0.7071 5.2741 302.7345)" fill="#E5E9EB" width="2.6" height="32.1"/>
								</g>
							</g>
							<g>
								<g>
									
										<rect x="352" y="143.7" transform="matrix(0.7071 -0.7071 0.7071 0.7071 5.2532 302.6913)" fill="#E5E9EB" width="32.1" height="2.6"/>
								</g>
							</g>
						</g>
						<g>
							<g>
								<g>
									<path fill="#E5E9EB" d="M380.7,180.4h-25.3v-25.3h25.3V180.4z M358,177.8h20.1v-20.1H358V177.8z"/>
								</g>
							</g>
							<g>
								<g>
									
										<rect x="366.8" y="151.6" transform="matrix(0.7071 -0.7071 0.7071 0.7071 -10.7863 309.3599)" fill="#E5E9EB" width="2.6" height="32.1"/>
								</g>
							</g>
							<g>
								<g>
									
										<rect x="352" y="166.5" transform="matrix(0.7071 -0.7071 0.7071 0.7071 -10.8304 309.3698)" fill="#E5E9EB" width="32.1" height="2.6"/>
								</g>
							</g>
						</g>
						<g>
							<g>
								<g>
									<path fill="#E5E9EB" d="M380.7,203.1h-25.3v-25.3h25.3V203.1z M358,200.5h20.1v-20.1H358V200.5z"/>
								</g>
							</g>
							<g>
								<g>
									
										<rect x="366.8" y="174.4" transform="matrix(0.7071 -0.7071 0.7071 0.7071 -26.859 316.0412)" fill="#E5E9EB" width="2.6" height="32.1"/>
								</g>
							</g>
							<g>
								<g>
									
										<rect x="352" y="189.2" transform="matrix(0.7071 -0.7071 0.7071 0.7071 -26.9128 316.05)" fill="#E5E9EB" width="32.1" height="2.6"/>
								</g>
							</g>
						</g>
						<g>
							<g>
								<g>
									<path fill="#E5E9EB" d="M380.7,225.8h-25.3v-25.3h25.3V225.8z M358,223.3h20.1v-20.1H358V223.3z"/>
								</g>
							</g>
							<g>
								<g>
									
										<rect x="366.8" y="197.1" transform="matrix(0.7071 -0.7071 0.7071 0.7071 -42.943 322.7215)" fill="#E5E9EB" width="2.6" height="32.1"/>
								</g>
							</g>
							<g>
								<g>
									
										<rect x="352" y="211.9" transform="matrix(0.7071 -0.7071 0.7071 0.7071 -42.9644 322.6752)" fill="#E5E9EB" width="32.1" height="2.6"/>
								</g>
							</g>
						</g>
						<g>
							<g>
								<g>
									<path fill="#E5E9EB" d="M380.7,248.6h-25.3v-25.3h25.3V248.6z M358,245.9h20.1v-20.1H358V245.9z"/>
								</g>
							</g>
							<g>
								<g>
									
										<rect x="366.8" y="219.8" transform="matrix(0.7071 -0.7071 0.7071 0.7071 -58.9936 329.3475)" fill="#E5E9EB" width="2.6" height="32.1"/>
								</g>
							</g>
							<g>
								<g>
									
										<rect x="352" y="234.7" transform="matrix(0.7071 -0.7071 0.7071 0.7071 -59.0467 329.3555)" fill="#E5E9EB" width="32.1" height="2.6"/>
								</g>
							</g>
						</g>
						<g>
							<g>
								<g>
									<path fill="#E5E9EB" d="M380.7,271.3h-25.3v-25.3h25.3V271.3z M358,268.7h20.1v-20.1H358V268.7z"/>
								</g>
							</g>
							<g>
								<g>
									
										<rect x="366.8" y="242.6" transform="matrix(0.7071 -0.7071 0.7071 0.7071 -75.0687 336.028)" fill="#E5E9EB" width="2.6" height="32.1"/>
								</g>
							</g>
							<g>
								<g>
									
										<rect x="352" y="257.4" transform="matrix(0.7071 -0.7071 0.7071 0.7071 -75.0982 335.9806)" fill="#E5E9EB" width="32.1" height="2.6"/>
								</g>
							</g>
						</g>
						<g>
							<g>
								<g>
									<path fill="#E5E9EB" d="M380.7,294h-25.3v-25.3h25.3V294z M358,291.4h20.1v-20.1H358V291.4z"/>
								</g>
							</g>
							<g>
								<g>
									
										<rect x="366.8" y="265.3" transform="matrix(0.7071 -0.7071 0.7071 0.7071 -91.1261 342.6549)" fill="#E5E9EB" width="2.6" height="32.1"/>
								</g>
							</g>
							<g>
								<g>
									
										<rect x="352" y="280" transform="matrix(0.7072 -0.707 0.707 0.7072 -91.1457 342.5517)" fill="#E5E9EB" width="32.1" height="2.6"/>
								</g>
							</g>
						</g>
					</g>
					<g>
						<g>
							<g>
								<g>
									<path fill="#E5E9EB" d="M425.9,111.9h-25.3V86.5h25.3V111.9z M403.2,109.3h20.1V89.2h-20.1V109.3z"/>
								</g>
							</g>
							<g>
								<g>
									
										<rect x="397.2" y="97.9" transform="matrix(0.707 -0.7072 0.7072 0.707 50.9332 321.3466)" fill="#E5E9EB" width="32.1" height="2.6"/>
								</g>
							</g>
							<g>
								<g>
									
										<rect x="412" y="83.2" transform="matrix(0.7071 -0.7071 0.7071 0.7071 50.8723 321.3167)" fill="#E5E9EB" width="2.6" height="32.1"/>
								</g>
							</g>
						</g>
						<g>
							<g>
								<g>
									<path fill="#E5E9EB" d="M403.2,111.9h-25.3V86.5h25.3V111.9z M380.5,109.3h20.1V89.2h-20.1V109.3z"/>
								</g>
							</g>
							<g>
								<g>
									
										<rect x="374.5" y="97.9" transform="matrix(0.707 -0.7072 0.7072 0.707 44.2507 305.2701)" fill="#E5E9EB" width="32.1" height="2.6"/>
								</g>
							</g>
							<g>
								<g>
									
										<rect x="389.3" y="83.2" transform="matrix(0.7071 -0.7071 0.7071 0.7071 44.1922 305.2343)" fill="#E5E9EB" width="2.6" height="32.1"/>
								</g>
							</g>
						</g>
						<g>
							<g>
								<path fill="#E5E9EB" d="M380.5,111.9h-25.3V86.5h25.3V111.9z M357.7,109.3h20.1V89.2h-20.1V109.3z"/>
							</g>
						</g>
						<g>
							<g>
								<g>
									<path fill="#E5E9EB" d="M357.7,111.9h-25.3V86.5h25.3V111.9z M335.1,109.3h20.1V89.2h-20.1V109.3z"/>
								</g>
							</g>
							<g>
								<g>
									
										<rect x="329.1" y="97.9" transform="matrix(0.7071 -0.7071 0.7071 0.7071 30.9273 273.0882)" fill="#E5E9EB" width="32.1" height="2.6"/>
								</g>
							</g>
							<g>
								<g>
									
										<rect x="343.8" y="83.2" transform="matrix(0.7071 -0.7071 0.7071 0.7071 30.8856 273.1004)" fill="#E5E9EB" width="2.6" height="32.1"/>
								</g>
							</g>
						</g>
						<g>
							<g>
								<g>
									<path fill="#E5E9EB" d="M335.1,111.9h-25.3V86.5h25.3V111.9z M312.3,109.3h20.1V89.2h-20.1V109.3z"/>
								</g>
							</g>
							<g>
								<g>
									
										<rect x="306.3" y="97.9" transform="matrix(0.7071 -0.7071 0.7071 0.7071 24.2472 257.0059)" fill="#E5E9EB" width="32.1" height="2.6"/>
								</g>
							</g>
							<g>
								<g>
									
										<rect x="321.1" y="83.2" transform="matrix(0.7071 -0.7071 0.7071 0.7071 24.258 257.0487)" fill="#E5E9EB" width="2.6" height="32.1"/>
								</g>
							</g>
						</g>
						<g>
							<g>
								<g>
									<path fill="#E5E9EB" d="M312.3,111.9H287V86.5h25.3V111.9z M289.6,109.3h20.1V89.2h-20.1V109.3z"/>
								</g>
							</g>
							<g>
								<g>
									<path fill="#E5E9EB" d="M288.3,111.9h-22.7c-0.5,0-1-0.3-1.2-0.8c-0.2-0.5-0.1-1,0.3-1.4L287.4,87l1.9,1.9l-20.5,20.5h19
										L310.2,87l1.9,1.9l-22.7,22.7C289,111.7,288.7,111.9,288.3,111.9z"/>
								</g>
							</g>
							<g>
								<g>
									
										<rect x="298.3" y="83.2" transform="matrix(0.7071 -0.7071 0.7071 0.7071 17.6019 240.9196)" fill="#E5E9EB" width="2.6" height="32.1"/>
								</g>
							</g>
						</g>
					</g>
				</g>
				<g>
					<g>
						<g>
							<path fill="#E5E9EB" d="M381.1,319.3h-26v-25.3h26V319.3z M357.7,316.7h20.7v-20.1h-20.7V316.7z"/>
						</g>
					</g>
					<g>
						<g>
							<polygon fill="#E5E9EB" points="378.9,318.9 355.5,296.2 357.4,294.3 380.7,317.1 							"/>
						</g>
					</g>
					<g>
						<g>
							<polygon fill="#E5E9EB" points="357.4,318.9 355.5,317.1 378.9,294.3 380.7,296.2 							"/>
						</g>
					</g>
				</g>
				<g>
					<g>
						<g>
							<path fill="#E5E9EB" d="M381.1,410.2h-26v-25.3h26V410.2z M357.7,407.6h20.7v-20.1h-20.7V407.6z"/>
						</g>
					</g>
					<g>
						<g>
							<polygon fill="#E5E9EB" points="378.9,409.8 355.5,387.1 357.4,385.3 380.7,408 							"/>
						</g>
					</g>
					<g>
						<g>
							<polygon fill="#E5E9EB" points="357.4,409.8 355.5,408 378.9,385.3 380.7,387.1 							"/>
						</g>
					</g>
				</g>
			</g>
			<g>
				<g>
					<g>
						<path fill="#E5E9EB" d="M381.1,339.9h-26v-25.3h26V339.9z M357.7,337.3h20.7v-20.1h-20.7V337.3z"/>
					</g>
				</g>
				<g>
					<g>
						<polygon fill="#E5E9EB" points="378.9,339.5 355.5,316.8 357.4,314.9 380.7,337.7 						"/>
					</g>
				</g>
				<g>
					<g>
						<polygon fill="#E5E9EB" points="357.4,339.5 355.5,337.7 378.9,314.9 380.7,316.8 						"/>
					</g>
				</g>
			</g>
			<g>
				<g>
					<g>
						<path fill="#E5E9EB" d="M381.1,362.6h-26v-25.3h26V362.6z M357.7,360h20.7v-20.1h-20.7V360z"/>
					</g>
				</g>
				<g>
					<g>
						<polygon fill="#E5E9EB" points="378.9,362.2 355.5,339.5 357.4,337.7 380.7,360.4 						"/>
					</g>
				</g>
				<g>
					<g>
						<polygon fill="#E5E9EB" points="357.4,362.2 355.5,360.4 378.9,337.7 380.7,339.5 						"/>
					</g>
				</g>
			</g>
			<g>
				<g>
					<g>
						<path fill="#E5E9EB" d="M381.1,385.3h-26V360h26V385.3z M357.7,382.7h20.7v-20.1h-20.7V382.7z"/>
					</g>
				</g>
				<g>
					<g>
						<polygon fill="#E5E9EB" points="378.9,384.9 355.5,362.2 357.4,360.4 380.7,383.1 						"/>
					</g>
				</g>
				<g>
					<g>
						<polygon fill="#E5E9EB" points="357.4,384.9 355.5,383.1 378.9,360.4 380.7,362.2 						"/>
					</g>
				</g>
			</g>
		</g>
	</g>
</g>
</svg>
