<svg version="1.1" xmlns="http://www.w3.org/2000/svg" xmlns:xlink="http://www.w3.org/1999/xlink" x="0px" y="0px" viewBox="0 0 400.47 252.01" style="enable-background:new 0 0 400.47 252.01;" xml:space="preserve">
    <g id="BACKGROUND">
    </g>
    <g id="OBJECTS">
        <g>
            <g>
                <g>
                    <g>
                        <path style="fill:#6CDD6C;" d="M267.9,242.9c-0.54-1.76-1.78-3.41-3.53-3.98c-1.76-0.57-3.98,0.29-4.53,2.05
						c-1.61-1.35-4.09-0.28-5.39,1.38c-2.1,2.68-0.48,7.06-0.13,7.35c0.38,0.31,1.4,0.25,1.4,0.25l15.71-0.09
						c0,0,2.88-0.21,4.21-0.74c2.68-1.07,4.5-5.67,2.77-7.98c-1.17-1.57-3.49-1.91-5.36-1.31
						C271.18,240.43,269.37,241.6,267.9,242.9" />
                    </g>
                    <g>
                        <path style="fill:#50AA50;" d="M255.5,250.48c-0.4,0-1.11-0.05-1.51-0.38c-0.62-0.5-2.18-5.23,0.05-8.07
						c0.94-1.2,2.34-2.03,3.67-2.17c0.69-0.08,1.34,0.04,1.9,0.34c0.34-0.61,0.87-1.11,1.55-1.47c1.03-0.54,2.29-0.65,3.37-0.31
						c1.56,0.5,2.87,1.82,3.61,3.6c1.53-1.24,3.2-2.18,4.77-2.68c1.88-0.6,4.53-0.39,5.93,1.49c0.81,1.08,0.99,2.68,0.51,4.39
						c-0.58,2.04-1.95,3.76-3.51,4.38c-1.39,0.55-4.24,0.77-4.37,0.78l-15.74,0.09C255.68,250.48,255.6,250.48,255.5,250.48z
						 M258.11,240.88c-0.1,0-0.19,0.01-0.29,0.02c-1.04,0.11-2.2,0.81-2.96,1.78c-1.84,2.35-0.47,6.27-0.17,6.67
						c0.07,0.05,0.59,0.12,1.01,0.1l15.73-0.09c-0.01,0,2.78-0.21,4.02-0.7c1.25-0.5,2.41-1.98,2.89-3.7
						c0.39-1.4,0.27-2.67-0.34-3.49c-1.1-1.47-3.25-1.62-4.79-1.13c-1.63,0.52-3.4,1.57-4.97,2.96c-0.13,0.12-0.31,0.16-0.48,0.11
						c-0.17-0.05-0.3-0.18-0.36-0.35c-0.55-1.81-1.75-3.17-3.19-3.64c-0.82-0.26-1.78-0.17-2.57,0.24c-0.65,0.34-1.11,0.86-1.3,1.47
						c-0.05,0.17-0.18,0.29-0.35,0.34c-0.16,0.05-0.35,0.01-0.48-0.1C259.11,241.05,258.64,240.88,258.11,240.88z" />
                    </g>
                </g>
                <g>
                    <g>
                        <g>
                            <path style="fill:#50AA50;" d="M251.38,242.31c-0.45,0.87-0.64,1.82-0.54,2.8c0.05,0.49,0.83,0.5,0.78,0
							c-0.09-0.85,0.04-1.65,0.43-2.41C252.28,242.26,251.61,241.86,251.38,242.31L251.38,242.31z" />
                        </g>
                    </g>
                </g>
                <g>
                    <g>
                        <g>
                            <path style="fill:#50AA50;" d="M249.11,242.93c-0.24,0.88-0.26,1.76-0.07,2.65c0.11,0.49,0.86,0.28,0.75-0.21
							c-0.17-0.75-0.14-1.49,0.07-2.24C249.99,242.65,249.24,242.45,249.11,242.93L249.11,242.93z" />
                        </g>
                    </g>
                </g>
                <g>
                    <g>
                        <g>
                            <path style="fill:#50AA50;" d="M253.47,241.35c0.5,0,0.5-0.78,0-0.78C252.97,240.57,252.97,241.35,253.47,241.35
							L253.47,241.35z" />
                        </g>
                    </g>
                </g>
                <g>
                    <g>
                        <g>
                            <path style="fill:#50AA50;" d="M255.68,245.11c0,0.23,0,0.46,0,0.69c0,0.5,0.78,0.5,0.78,0c0-0.23,0-0.46,0-0.69
							C256.45,244.61,255.68,244.61,255.68,245.11L255.68,245.11z" />
                        </g>
                    </g>
                </g>
                <g>
                    <g>
                        <g>
                            <path style="fill:#50AA50;" d="M268.81,246.32c0,0.12,0,0.23,0,0.35c0,0.5,0.78,0.5,0.78,0c0-0.12,0-0.23,0-0.35
							C269.59,245.82,268.81,245.82,268.81,246.32L268.81,246.32z" />
                        </g>
                    </g>
                </g>
                <g>
                    <g>
                        <g>
                            <path style="fill:#50AA50;" d="M267.37,245.39c0.06,0.06,0.12,0.12,0.17,0.17c0.35,0.35,0.9-0.2,0.55-0.55
							c-0.06-0.06-0.12-0.12-0.17-0.17C267.57,244.48,267.02,245.03,267.37,245.39L267.37,245.39z" />
                        </g>
                    </g>
                </g>
            </g>
            <g>
                <path style="fill:#405B91;" d="M46.35,228.24H20.02c-0.57,0-1.04-0.46-1.04-1.04c0-0.57,0.46-1.04,1.04-1.04h26.33
				c0.57,0,1.04,0.46,1.04,1.04C47.39,227.78,46.93,228.24,46.35,228.24z" />
            </g>
            <g>
                <g>
                    <path style="fill:#FFFFFF;" d="M278.2,136.93h-0.75c0-0.62-0.51-1.13-1.13-1.13s-1.13,0.51-1.13,1.13h-0.75
					c0-1.04,0.84-1.88,1.88-1.88C277.35,135.05,278.2,135.89,278.2,136.93z" />
                </g>
            </g>
            <g>
                <g>
                    <path style="fill:#FFFFFF;" d="M280.89,93.14h-0.75c0-0.62-0.51-1.13-1.13-1.13c-0.62,0-1.13,0.51-1.13,1.13h-0.75
					c0-1.04,0.84-1.88,1.88-1.88C280.04,91.26,280.89,92.11,280.89,93.14z" />
                </g>
            </g>
            <g>
                <g>
                    <g>
                        <path style="fill:#415B91;" d="M187.28,245.3h-35.79l0.61-1.44c2.35-5.57,2.59-10.33,2.23-15.78l-0.07-1.1l30.17-0.09
						l0.01,1.03c0.03,3.52,0.98,11.51,2.41,16.03L187.28,245.3z M154.58,243.22h29.9c-1.15-4.35-1.93-10.64-2.09-14.26l-25.93,0.08
						C156.71,233.87,156.42,238.27,154.58,243.22z" />
                    </g>
                </g>
            </g>
            <g>
                <g>
                    <g>
                        <path style="fill:#415B91;" d="M141.21,228.95c-27.17,0-49.18-0.15-50.14-0.49c-2.33-0.83-5.36-4.05-5.41-6.34
						c-0.09-4.95-0.3-11.69-0.55-19.5c-0.74-23.54-1.76-55.77-0.44-73.61c0.24-3.25,2.93-5.76,6.13-5.76c0.03,0,0.07,0,0.1,0
						l156.63,0.23c3.31,0.06,5.97,2.73,6.05,6.09c0.12,5.21,0.29,10.54,0.46,15.93c0.72,22.6,1.46,45.97-1.04,68.06
						c-0.1,0.87-0.14,1.83-0.19,2.83c-0.21,4.64-0.47,10.41-6.45,11.59C243.44,228.55,185.48,228.95,141.21,228.95z M90.82,124.91
						c-2.35,0-4.31,1.84-4.49,4.22c-1.31,17.75-0.3,49.94,0.44,73.44c0.25,7.81,0.46,14.56,0.55,19.52c0.03,1.44,2.44,4.13,4.3,4.8
						c3.33,0.68,150.59,0.18,154.42-0.54c4.69-0.93,4.9-5.55,5.11-10.03c0.05-1.04,0.09-2.04,0.2-2.94
						c2.49-21.98,1.75-45.28,1.03-67.82c-0.17-5.4-0.34-10.73-0.46-15.95c-0.06-2.46-1.99-4.41-4.4-4.46l-156.62-0.23
						C90.87,124.91,90.84,124.91,90.82,124.91z" />
                    </g>
                </g>
            </g>
            <g>
                <g>
                    <path style="fill-rule:evenodd;clip-rule:evenodd;fill:#B6D0FB;" d="M243.16,128.87l-147.58-0.19
					c-2.65-0.04-4.88,1.78-5.08,4.16c-1.65,19.75,0.6,60.96,0.93,77.55c0.03,1.62,2.67,4.04,4.57,4.64
					c2.24,0.71,142.48,0.17,145.91-0.43c6.16-1.07,5.11-7.38,5.62-11.41c2.92-22.81,1.13-47.61,0.55-69.92
					C248.02,130.85,245.85,128.91,243.16,128.87z" />
                </g>
            </g>
            <g>
                <g>
                    <g>
                        <path style="fill:#415B91;" d="M200.08,250.97h-61.4c-2.44,0-3.71-1.92-3.71-3.81c0-1.9,1.27-3.82,3.71-3.82h61.4
						c2.44,0,3.71,1.92,3.71,3.81C203.79,249.05,202.52,250.97,200.08,250.97z M138.68,245.02c-1.61,0-2.04,1.35-2.04,2.15
						c0,0.8,0.43,2.14,2.04,2.14h61.4c1.61,0,2.04-1.35,2.04-2.15c0-0.8-0.43-2.14-2.04-2.14H138.68z" />
                    </g>
                </g>
            </g>
            <g>
                <g>
                    <g>
                        <g>
                            <g>
                                <path style="fill-rule:evenodd;clip-rule:evenodd;fill:#415B91;" d="M95.91,220.99C95.55,220.99,95.55,220.99,95.91,220.99" />
                            </g>
                        </g>
                    </g>
                    <g>
                        <g>
                            <g>
                                <g>
                                    <path style="fill:#415B91;" d="M95.91,223.14c2.76,0,2.76-4.29,0-4.29C93.16,218.85,93.15,223.14,95.91,223.14L95.91,223.14
									z" />
                                </g>
                            </g>
                        </g>
                    </g>
                </g>
                <g>
                    <g>
                        <g>
                            <g>
                                <path style="fill-rule:evenodd;clip-rule:evenodd;fill:#415B91;" d="M104.55,220.99
								C104.19,220.99,104.19,220.99,104.55,220.99" />
                            </g>
                        </g>
                    </g>
                    <g>
                        <g>
                            <g>
                                <g>
                                    <path style="fill:#415B91;" d="M104.55,223.14c2.76,0,2.76-4.29,0-4.29C101.8,218.85,101.79,223.14,104.55,223.14
									L104.55,223.14z" />
                                </g>
                            </g>
                        </g>
                    </g>
                </g>
                <g>
                    <g>
                        <g>
                            <g>
                                <path style="fill-rule:evenodd;clip-rule:evenodd;fill:#415B91;" d="M113.19,220.99
								C112.83,220.99,112.83,220.99,113.19,220.99" />
                            </g>
                        </g>
                    </g>
                    <g>
                        <g>
                            <g>
                                <g>
                                    <path style="fill:#415B91;" d="M113.19,223.14c2.76,0,2.76-4.29,0-4.29C110.44,218.85,110.43,223.14,113.19,223.14
									L113.19,223.14z" />
                                </g>
                            </g>
                        </g>
                    </g>
                </g>
            </g>
            <g>
                <g>
                    <g>
                        <g>
                            <path style="fill-rule:evenodd;clip-rule:evenodd;fill:#415B91;" d="M169.38,126.59
							C169.21,126.59,169.21,126.59,169.38,126.59" />
                        </g>
                    </g>
                </g>
                <g>
                    <g>
                        <g>
                            <g>
                                <path style="fill:#415B91;" d="M169.38,127.59c1.29,0,1.3-2.01,0-2.01C168.09,125.58,168.08,127.59,169.38,127.59
								L169.38,127.59z" />
                            </g>
                        </g>
                    </g>
                </g>
            </g>
            <g>
                <g>
                    <polygon style="fill:#B6D0FB;" points="342.55,246.9 321.39,246.9 329.53,220.17 334.41,220.17 				" />
                </g>
                <g>
                    <rect x="319.65" y="246.9" style="fill:#B6D0FB;" width="24.65" height="3.05" />
                </g>
                <g>
                    <polygon style="fill:#415B91;" points="323.43,240.22 321.39,246.9 342.55,246.9 340.52,240.22 				" />
                </g>
                <g>
                    <polygon style="fill:#415B91;" points="325.46,233.54 338.48,233.54 336.45,226.85 327.5,226.85 				" />
                </g>
            </g>
            <g id="XMLID_11_">
                <g id="XMLID_493_">
                    <path style="fill:#B6D0FB;" d="M351.2,249.78h4.69V231.6H380v18.18h4.69V231.6h4.97v-14.52h-3.97v-1.34h-6.84v1.34h-21.35v-1.34
					h-6.84v1.34h-4.35v14.52h4.89V249.78z M388.15,218.6v0.06l-2.89,11.42h-5.16L383,218.6H388.15z M374.68,230.09h-5.16l2.91-11.48
					h5.16L374.68,230.09z M364.11,230.09h-5.16l2.91-11.48h5.16L364.11,230.09z M351.28,218.6h5.16l-2.91,11.48h-5.16L351.28,218.6z
					" />
                </g>
            </g>
            <g>
                <g>
                    <g>
                        <path style="fill:#B6D0FB;" d="M120.28,72.07l1.41-1.41c0.29-0.28,0.29-0.75,0-1.03l-1.23-1.22c-0.28-0.29-0.36-0.8-0.16-1.16
						l1-2.42c0.11-0.39,0.54-0.7,0.94-0.7h1.73c0.4,0,0.73-0.33,0.73-0.73v-1.99c0-0.4-0.33-0.73-0.73-0.73h-1.73
						c-0.4,0-0.82-0.32-0.94-0.7l-1-2.42c-0.19-0.35-0.12-0.87,0.16-1.16l1.23-1.22c0.29-0.29,0.29-0.75,0-1.03l-1.41-1.41
						c-0.28-0.28-0.75-0.28-1.03,0l-1.23,1.23c-0.29,0.28-0.8,0.36-1.15,0.17l-2.43-1c-0.39-0.11-0.7-0.53-0.7-0.94v-1.73
						c0-0.4-0.33-0.73-0.73-0.73h-1.99c-0.4,0-0.73,0.33-0.73,0.73v1.73c0,0.4-0.31,0.82-0.7,0.94l-2.43,1
						c-0.35,0.19-0.87,0.12-1.15-0.17l-1.23-1.22c-0.28-0.29-0.75-0.29-1.03,0l-1.41,1.41c-0.29,0.28-0.29,0.74,0,1.03l1.22,1.22
						c0.28,0.29,0.36,0.81,0.17,1.16l-1,2.42c-0.11,0.39-0.54,0.7-0.94,0.7h-1.74c-0.4,0-0.73,0.32-0.73,0.73v1.99
						c0,0.4,0.33,0.73,0.73,0.73h1.74c0.4,0,0.82,0.32,0.94,0.7l1,2.42c0.19,0.35,0.12,0.87-0.17,1.16l-1.22,1.22
						c-0.29,0.29-0.29,0.75,0,1.03l1.41,1.41c0.28,0.29,0.74,0.29,1.03,0l1.23-1.22c0.28-0.28,0.8-0.36,1.16-0.16l2.42,1
						c0.39,0.11,0.7,0.53,0.7,0.94v1.74c0,0.4,0.33,0.73,0.73,0.73h1.99c0.4,0,0.73-0.33,0.73-0.73v-1.74c0-0.4,0.31-0.82,0.7-0.94
						l2.43-1c0.35-0.19,0.87-0.12,1.15,0.16l1.23,1.22C119.53,72.36,120,72.36,120.28,72.07z M112.02,68.22
						c-3.21,0-5.82-2.61-5.82-5.82c0-3.21,2.61-5.82,5.82-5.82c3.21,0,5.82,2.6,5.82,5.82C117.84,65.61,115.23,68.22,112.02,68.22z" />
                    </g>
                </g>
                <g>
                    <g>
                        <path style="fill:#B6D0FB;" d="M133.74,77.57l-0.36-1.18c-0.07-0.24-0.33-0.37-0.56-0.3l-1.03,0.31
						c-0.24,0.07-0.55-0.04-0.68-0.25l-1.03-1.25c-0.17-0.17-0.22-0.5-0.11-0.72l0.51-0.95c0.12-0.22,0.03-0.5-0.18-0.61l-1.09-0.58
						c-0.22-0.12-0.49-0.03-0.61,0.19l-0.51,0.95c-0.12,0.22-0.41,0.36-0.66,0.31l-1.62-0.16c-0.25,0-0.51-0.19-0.58-0.43
						l-0.31-1.03c-0.07-0.24-0.32-0.37-0.56-0.3l-1.18,0.35c-0.24,0.07-0.37,0.33-0.3,0.57l0.31,1.03c0.07,0.24-0.04,0.54-0.25,0.68
						l-1.25,1.03c-0.17,0.18-0.5,0.22-0.72,0.11l-0.95-0.51c-0.22-0.12-0.49-0.04-0.61,0.19l-0.59,1.08
						c-0.11,0.22-0.03,0.5,0.18,0.61l0.95,0.51c0.22,0.12,0.36,0.41,0.31,0.65l-0.16,1.62c0,0.25-0.19,0.51-0.43,0.58l-1.03,0.31
						c-0.24,0.07-0.38,0.33-0.3,0.56l0.36,1.18c0.07,0.24,0.32,0.37,0.56,0.3l1.03-0.31c0.24-0.07,0.54,0.04,0.68,0.25l1.03,1.26
						c0.18,0.17,0.22,0.5,0.11,0.72l-0.51,0.95c-0.12,0.22-0.03,0.49,0.19,0.61l1.09,0.58c0.22,0.12,0.49,0.03,0.61-0.18l0.51-0.95
						c0.11-0.22,0.41-0.36,0.65-0.31l1.61,0.16c0.25,0,0.51,0.19,0.59,0.43l0.31,1.03c0.07,0.24,0.33,0.38,0.56,0.3l1.18-0.36
						c0.24-0.07,0.37-0.33,0.31-0.56l-0.31-1.03c-0.07-0.24,0.04-0.55,0.25-0.68l1.26-1.03c0.17-0.18,0.5-0.23,0.72-0.11l0.95,0.51
						c0.22,0.12,0.5,0.04,0.61-0.18l0.58-1.09c0.12-0.22,0.03-0.49-0.19-0.61l-0.95-0.51c-0.22-0.12-0.36-0.41-0.31-0.65l0.16-1.62
						c0-0.25,0.19-0.51,0.43-0.58l1.03-0.31C133.67,78.06,133.81,77.81,133.74,77.57z M129.22,80.96c-0.94,1.76-3.13,2.42-4.88,1.48
						c-1.76-0.94-2.42-3.13-1.48-4.88c0.94-1.76,3.13-2.42,4.88-1.48C129.49,77.02,130.16,79.2,129.22,80.96z" />
                    </g>
                </g>
            </g>
            <g>
                <path style="fill:#405B91;" d="M192.62,100.35h-32.6c-0.57,0-1.04-0.46-1.04-1.04c0-0.57,0.46-1.04,1.04-1.04h32.6
				c0.57,0,1.04,0.46,1.04,1.04C193.66,99.89,193.2,100.35,192.62,100.35z" />
            </g>
            <g>
                <path style="fill:#405B91;" d="M126.26,115.16H73.6c-0.57,0-1.04-0.46-1.04-1.04s0.46-1.04,1.04-1.04h52.66
				c0.57,0,1.04,0.46,1.04,1.04S126.83,115.16,126.26,115.16z" />
            </g>
            <g>
                <path style="fill:#405B91;" d="M378.73,143.2h-52.66c-0.57,0-1.04-0.46-1.04-1.04s0.46-1.04,1.04-1.04h52.66
				c0.57,0,1.04,0.46,1.04,1.04S379.31,143.2,378.73,143.2z" />
            </g>
            <g>
                <path style="fill:#405B91;" d="M399.44,252.01H1.04c-0.57,0-1.04-0.46-1.04-1.04c0-0.57,0.46-1.04,1.04-1.04h398.4
				c0.57,0,1.04,0.46,1.04,1.04C400.47,251.55,400.01,252.01,399.44,252.01z" />
            </g>
            <g>
                <g>
                    <g>
                        <path style="fill:#B6D0FB;" d="M253.3,87.33c-2.23,0-4.33,0.87-5.91,2.45c-2.69,2.69-3.23,6.87-1.3,10.15l0.14,0.23l-8.47,8.47
						c-0.01,0.01-0.41,0.4-0.42,0.96c0,0.43,0.21,0.86,0.64,1.29c0.46,0.45,0.93,0.68,1.42,0.68c0.58,0,0.99-0.34,1-0.34l8.45-8.45
						l0.23,0.14c1.28,0.75,2.74,1.15,4.23,1.15c2.23,0,4.33-0.87,5.91-2.45c3.26-3.26,3.26-8.57,0-11.83
						C257.63,88.2,255.53,87.33,253.3,87.33z M253.3,101.57c-3.24,0-5.88-2.64-5.88-5.88c0-3.24,2.64-5.88,5.88-5.88l0,0
						c3.24,0,5.88,2.64,5.88,5.88C259.18,98.93,256.54,101.57,253.3,101.57z" />
                    </g>
                </g>
                <g>
                    <g>
                        <path style="fill:#B6D0FB;" d="M250.2,96.91h6.06v-1.55h-6.06V96.91z" />
                    </g>
                </g>
            </g>
            <g>
                <g>
                    <path style="fill:#405B91;" d="M97.98,250.09c-0.57,0-1.04-0.46-1.04-1.04v-79.87c0-0.57,0.46-1.04,1.04-1.04
					c0.57,0,1.04,0.46,1.04,1.04v79.87C99.02,249.63,98.56,250.09,97.98,250.09z" />
                </g>
                <g>
                    <path style="fill:#405B91;" d="M116.55,250.09c-0.57,0-1.04-0.46-1.04-1.04v-79.87c0-0.57,0.46-1.04,1.04-1.04
					s1.04,0.46,1.04,1.04v79.87C117.58,249.63,117.12,250.09,116.55,250.09z" />
                </g>
                <g>
                    <path style="fill:#405B91;" d="M116.55,175.67H97.98c-0.57,0-1.04-0.46-1.04-1.04c0-0.57,0.46-1.04,1.04-1.04h18.56
					c0.57,0,1.04,0.46,1.04,1.04C117.58,175.21,117.12,175.67,116.55,175.67z" />
                </g>
                <g>
                    <path style="fill:#405B91;" d="M116.55,184.8H97.98c-0.57,0-1.04-0.46-1.04-1.04c0-0.57,0.46-1.04,1.04-1.04h18.56
					c0.57,0,1.04,0.46,1.04,1.04C117.58,184.34,117.12,184.8,116.55,184.8z" />
                </g>
                <g>
                    <path style="fill:#405B91;" d="M116.55,193.93H97.98c-0.57,0-1.04-0.46-1.04-1.04c0-0.57,0.46-1.04,1.04-1.04h18.56
					c0.57,0,1.04,0.46,1.04,1.04C117.58,193.46,117.12,193.93,116.55,193.93z" />
                </g>
                <g>
                    <path style="fill:#405B91;" d="M116.55,203.05H97.98c-0.57,0-1.04-0.46-1.04-1.04c0-0.57,0.46-1.04,1.04-1.04h18.56
					c0.57,0,1.04,0.46,1.04,1.04C117.58,202.59,117.12,203.05,116.55,203.05z" />
                </g>
                <g>
                    <path style="fill:#405B91;" d="M116.55,212.18H97.98c-0.57,0-1.04-0.46-1.04-1.04c0-0.57,0.46-1.04,1.04-1.04h18.56
					c0.57,0,1.04,0.46,1.04,1.04C117.58,211.71,117.12,212.18,116.55,212.18z" />
                </g>
                <g>
                    <path style="fill:#405B91;" d="M116.55,221.3H97.98c-0.57,0-1.04-0.46-1.04-1.04s0.46-1.04,1.04-1.04h18.56
					c0.57,0,1.04,0.46,1.04,1.04S117.12,221.3,116.55,221.3z" />
                </g>
                <g>
                    <path style="fill:#405B91;" d="M116.55,230.43H97.98c-0.57,0-1.04-0.46-1.04-1.04c0-0.57,0.46-1.04,1.04-1.04h18.56
					c0.57,0,1.04,0.46,1.04,1.04C117.58,229.96,117.12,230.43,116.55,230.43z" />
                </g>
                <g>
                    <path style="fill:#405B91;" d="M116.55,239.55H97.98c-0.57,0-1.04-0.46-1.04-1.04c0-0.57,0.46-1.04,1.04-1.04h18.56
					c0.57,0,1.04,0.46,1.04,1.04C117.58,239.09,117.12,239.55,116.55,239.55z" />
                </g>
            </g>
            <g>
                <g>
                    <path style="fill:#405B91;" d="M72.71,173.05c-0.57,0-1.04-0.46-1.04-1.04v-4.04c0-0.57,0.46-1.04,1.04-1.04
					c0.57,0,1.04,0.46,1.04,1.04v4.04C73.74,172.59,73.28,173.05,72.71,173.05z" />
                </g>
                <g>
                    <path style="fill:#405B91;" d="M74.72,171.03h-4.04c-0.57,0-1.04-0.46-1.04-1.04c0-0.57,0.46-1.04,1.04-1.04h4.04
					c0.57,0,1.04,0.46,1.04,1.04C75.76,170.57,75.3,171.03,74.72,171.03z" />
                </g>
            </g>
            <g>
                <g>
                    <path style="fill:#405B91;" d="M165.97,28.62c-0.57,0-1.04-0.46-1.04-1.04v-4.04c0-0.57,0.46-1.04,1.04-1.04
					c0.57,0,1.04,0.46,1.04,1.04v4.04C167.01,28.15,166.54,28.62,165.97,28.62z" />
                </g>
                <g>
                    <path style="fill:#405B91;" d="M167.99,26.6h-4.04c-0.57,0-1.04-0.46-1.04-1.04s0.46-1.04,1.04-1.04h4.04
					c0.57,0,1.04,0.46,1.04,1.04S168.56,26.6,167.99,26.6z" />
                </g>
            </g>
            <g>
                <g>
                    <path style="fill:#405B91;" d="M198.67,237.68c-0.09,0-0.19-0.01-0.29-0.04l-3.88-1.11c-0.55-0.16-0.87-0.73-0.71-1.28
					c0.16-0.55,0.73-0.86,1.28-0.71l3.88,1.11c0.55,0.16,0.87,0.73,0.71,1.28C199.53,237.39,199.12,237.68,198.67,237.68z" />
                </g>
                <g>
                    <path style="fill:#405B91;" d="M196.17,239.07c-0.09,0-0.19-0.01-0.29-0.04c-0.55-0.16-0.87-0.73-0.71-1.28l1.11-3.88
					c0.16-0.55,0.73-0.86,1.28-0.71c0.55,0.16,0.87,0.73,0.71,1.28l-1.11,3.88C197.04,238.77,196.62,239.07,196.17,239.07z" />
                </g>
            </g>
            <g>
                <g>
                    <path style="fill:#405B91;" d="M178.27,115.72c-0.09,0-0.19-0.01-0.29-0.04l-3.88-1.11c-0.55-0.16-0.87-0.73-0.71-1.28
					c0.16-0.55,0.73-0.87,1.28-0.71l3.88,1.11c0.55,0.16,0.87,0.73,0.71,1.28C179.13,115.42,178.72,115.72,178.27,115.72z" />
                </g>
                <g>
                    <path style="fill:#405B91;" d="M175.77,117.1c-0.09,0-0.19-0.01-0.29-0.04c-0.55-0.16-0.87-0.73-0.71-1.28l1.11-3.88
					c0.16-0.55,0.73-0.87,1.28-0.71c0.55,0.16,0.87,0.73,0.71,1.28l-1.11,3.88C176.64,116.81,176.22,117.1,175.77,117.1z" />
                </g>
            </g>
            <g>
                <g>
                    <g>

                        <ellipse transform="matrix(0.7071 -0.7071 0.7071 0.7071 -3.3815 146.828)" style="fill:#B6D0FB;" cx="175.55" cy="77.5" rx="14.41" ry="14.41" />
                    </g>
                </g>
                <g>
                    <g>
                        <g>
                            <circle style="fill:#FFFFFF;" cx="175.55" cy="77.5" r="10.79" />
                        </g>
                    </g>
                    <g>
                        <g>
                            <g>
                                <path style="fill:#405B91;" d="M175.55,88.71c-6.18,0-11.21-5.03-11.21-11.21c0-6.18,5.03-11.21,11.21-11.21
								s11.21,5.03,11.21,11.21C186.76,83.68,181.73,88.71,175.55,88.71z M175.55,67.12c-5.72,0-10.37,4.65-10.37,10.38
								c0,5.72,4.65,10.37,10.37,10.37c5.72,0,10.37-4.65,10.37-10.37C185.92,71.78,181.27,67.12,175.55,67.12z" />
                            </g>
                        </g>
                    </g>
                </g>
                <g>
                    <g>
                        <g>
                            <path style="fill:#405B91;" d="M175.55,77.91c-0.23,0-0.42-0.19-0.42-0.42V72c0-0.23,0.19-0.42,0.42-0.42
							c0.23,0,0.42,0.19,0.42,0.42v5.49C175.96,77.73,175.78,77.91,175.55,77.91z" />
                        </g>
                    </g>
                    <g>
                        <g>
                            <path style="fill:#405B91;" d="M181.98,77.91h-6.44c-0.23,0-0.42-0.19-0.42-0.42c0-0.23,0.19-0.42,0.42-0.42h6.44
							c0.23,0,0.42,0.19,0.42,0.42C182.4,77.73,182.21,77.91,181.98,77.91z" />
                        </g>
                    </g>
                </g>
                <g>
                    <g>
                        <g>
                            <path style="fill:#405B91;" d="M175.97,67.92c0,0.24-0.19,0.43-0.43,0.43s-0.43-0.19-0.43-0.43c0-0.24,0.19-0.43,0.43-0.43
							S175.97,67.69,175.97,67.92z" />
                        </g>
                    </g>
                    <g>
                        <g>
                            <circle style="fill:#405B91;" cx="182.32" cy="70.73" r="0.43" />
                        </g>
                    </g>
                    <g>
                        <g>
                            <path style="fill:#405B91;" d="M185.12,77.92c-0.24,0-0.43-0.19-0.43-0.43c0-0.24,0.19-0.43,0.43-0.43
							c0.24,0,0.43,0.19,0.43,0.43C185.55,77.73,185.36,77.92,185.12,77.92z" />
                        </g>
                    </g>
                    <g>
                        <g>
                            <circle style="fill:#405B91;" cx="182.32" cy="84.27" r="0.43" />
                        </g>
                    </g>
                    <g>
                        <g>
                            <path style="fill:#405B91;" d="M175.12,87.07c0-0.24,0.19-0.43,0.43-0.43s0.43,0.19,0.43,0.43c0,0.24-0.19,0.43-0.43,0.43
							S175.12,87.31,175.12,87.07z" />
                        </g>
                    </g>
                    <g>
                        <g>
                            <path style="fill:#405B91;" d="M168.48,83.96c0.17-0.17,0.44-0.17,0.6,0c0.17,0.17,0.17,0.44,0,0.6
							c-0.17,0.17-0.44,0.17-0.6,0C168.31,84.4,168.31,84.13,168.48,83.96z" />
                        </g>
                    </g>
                    <g>
                        <g>
                            <circle style="fill:#405B91;" cx="165.97" cy="77.5" r="0.43" />
                        </g>
                    </g>
                    <g>
                        <g>
                            <path style="fill:#405B91;" d="M169.08,70.42c0.17,0.17,0.17,0.44,0,0.6c-0.17,0.17-0.44,0.17-0.6,0
							c-0.17-0.17-0.17-0.44,0-0.6C168.64,70.26,168.91,70.26,169.08,70.42z" />
                        </g>
                    </g>
                </g>
                <g>
                    <g>
                        <g>
                            <path style="fill:#405B91;" d="M196.62,71.99h-6.05c-0.23,0-0.42-0.19-0.42-0.42c0-0.23,0.19-0.42,0.42-0.42h6.05
							c0.23,0,0.42,0.19,0.42,0.42C197.04,71.81,196.85,71.99,196.62,71.99z" />
                        </g>
                    </g>
                    <g>
                        <g>
                            <path style="fill:#405B91;" d="M196.62,83.83h-6.05c-0.23,0-0.42-0.19-0.42-0.42c0-0.23,0.19-0.42,0.42-0.42h6.05
							c0.23,0,0.42,0.19,0.42,0.42C197.04,83.65,196.85,83.83,196.62,83.83z" />
                        </g>
                    </g>
                    <g>
                        <g>
                            <path style="fill:#405B91;" d="M204.14,77.92h-11.3c-0.23,0-0.42-0.19-0.42-0.42c0-0.23,0.19-0.42,0.42-0.42h11.3
							c0.23,0,0.42,0.19,0.42,0.42C204.56,77.73,204.37,77.92,204.14,77.92z" />
                        </g>
                    </g>
                </g>
            </g>
            <g>
                <g>
                    <rect x="217.17" y="233.54" style="fill:#FFFFFF;" width="6.68" height="6.68" />
                    <path style="fill:#415B91;" d="M224.38,240.74h-7.72v-7.72h7.72V240.74z M217.69,239.7h5.65v-5.65h-5.65V239.7z" />
                </g>
                <g>
                    <g>
                        <g>
                            <path style="fill:#405B91;" d="M232.31,235.01h-6.05c-0.23,0-0.42-0.19-0.42-0.42c0-0.23,0.19-0.42,0.42-0.42h6.05
							c0.23,0,0.42,0.19,0.42,0.42C232.73,234.82,232.54,235.01,232.31,235.01z" />
                        </g>
                    </g>
                    <g>
                        <g>
                            <path style="fill:#405B91;" d="M234.59,239.58h-8.18c-0.31,0-0.56-0.19-0.56-0.42c0-0.23,0.25-0.42,0.56-0.42h8.18
							c0.31,0,0.56,0.19,0.56,0.42C235.15,239.4,234.9,239.58,234.59,239.58z" />
                        </g>
                    </g>
                    <g>
                        <g>
                            <path style="fill:#405B91;" d="M237.56,237.17h-11.3c-0.23,0-0.42-0.19-0.42-0.42c0-0.23,0.19-0.42,0.42-0.42h11.3
							c0.23,0,0.42,0.19,0.42,0.42C237.98,236.98,237.79,237.17,237.56,237.17z" />
                        </g>
                    </g>
                </g>
            </g>
            <g>
                <g>

                    <rect x="70.45" y="135.48" transform="matrix(-1 -1.224647e-16 1.224647e-16 -1 147.5834 277.6446)" style="fill:#FFFFFF;" width="6.68" height="6.68" />
                    <path style="fill:#415B91;" d="M77.65,142.68h-7.72v-7.72h7.72V142.68z M70.97,141.64h5.64V136h-5.64V141.64z" />
                </g>
                <g>
                    <g>
                        <g>
                            <path style="fill:#405B91;" d="M61.99,136.95h6.05c0.23,0,0.42-0.19,0.42-0.42c0-0.23-0.19-0.42-0.42-0.42h-6.05
							c-0.23,0-0.42,0.19-0.42,0.42C61.58,136.76,61.76,136.95,61.99,136.95z" />
                        </g>
                    </g>
                    <g>
                        <g>
                            <path style="fill:#405B91;" d="M59.72,141.53h8.18c0.31,0,0.56-0.19,0.56-0.42c0-0.23-0.25-0.42-0.56-0.42h-8.18
							c-0.31,0-0.56,0.19-0.56,0.42C59.16,141.34,59.41,141.53,59.72,141.53z" />
                        </g>
                    </g>
                    <g>
                        <g>
                            <path style="fill:#405B91;" d="M56.74,139.11h11.3c0.23,0,0.42-0.19,0.42-0.42c0-0.23-0.19-0.42-0.42-0.42h-11.3
							c-0.23,0-0.42,0.19-0.42,0.42C56.33,138.92,56.51,139.11,56.74,139.11z" />
                        </g>
                    </g>
                </g>
            </g>
            <g>
                <g>
                    <rect x="274.24" y="160.59" style="fill:#3F5B91;" width="2.07" height="89.19" />
                </g>
                <g>
                    <path style="fill:#B6D0FB;" d="M275.51,171.38h-0.46c-3.38,0-6.15-2.77-6.15-6.15v-8.24c0-3.38,2.77-6.15,6.15-6.15h0.46
					c3.38,0,6.15,2.77,6.15,6.15v8.24C281.66,168.61,278.89,171.38,275.51,171.38z" />
                </g>
                <g>
                    <g>
                        <path style="fill:#3F5B91;" d="M283.63,165.41c0.73,0.12,1.46,0.23,2.19,0.35c0.49,0.08,0.7-0.67,0.21-0.75
						c-0.73-0.12-1.46-0.23-2.19-0.35C283.35,164.59,283.14,165.33,283.63,165.41L283.63,165.41z" />
                    </g>
                </g>
                <g>
                    <g>
                        <path style="fill:#3F5B91;" d="M283.56,160.66c0.57-0.1,1.14-0.11,1.72-0.06c0.5,0.05,0.49-0.73,0-0.78
						c-0.65-0.06-1.28-0.03-1.93,0.09C282.86,160,283.07,160.75,283.56,160.66L283.56,160.66z" />
                    </g>
                </g>
                <g>
                    <g>
                        <path style="fill:#3F5B91;" d="M283.32,156.33c0.56-0.22,1.12-0.44,1.68-0.67c0.46-0.18,0.26-0.93-0.21-0.75
						c-0.56,0.22-1.12,0.44-1.68,0.67C282.65,155.76,282.85,156.52,283.32,156.33L283.32,156.33z" />
                    </g>
                </g>
                <g>
                    <g>
                        <path style="fill:#3F5B91;" d="M264.25,166.14c0.57-0.08,1.13-0.21,1.68-0.4c0.47-0.16,0.27-0.91-0.21-0.75
						c-0.55,0.19-1.1,0.32-1.68,0.4C263.55,165.46,263.76,166.21,264.25,166.14L264.25,166.14z" />
                    </g>
                </g>
                <g>
                    <g>
                        <path style="fill:#3F5B91;" d="M263.24,160.61c0.72,0.02,1.42,0.13,2.11,0.32c0.48,0.14,0.69-0.61,0.21-0.75
						c-0.76-0.21-1.53-0.33-2.32-0.35C262.74,159.82,262.74,160.6,263.24,160.61L263.24,160.61z" />
                    </g>
                </g>
                <g>
                    <g>
                        <path style="fill:#3F5B91;" d="M263.92,154.21c0.56,0.18,1.12,0.36,1.68,0.54c0.48,0.15,0.68-0.6,0.21-0.75
						c-0.56-0.18-1.12-0.36-1.68-0.54C263.65,153.31,263.44,154.06,263.92,154.21L263.92,154.21z" />
                    </g>
                </g>
                <g>
                    <polygon style="fill:#405B91;" points="270.44,250.99 271.82,239.07 278.56,239.07 280.12,250.82 				" />
                </g>
            </g>
            <g>
                <g>
                    <g>
                        <g>
                            <path style="fill:#6CDD6C;" d="M80.1,193.92c-0.31-1.9-1.65-6.79-4.6-5.24c-4.78,2.51,0.99,12.02-4.77,13.7
							c-0.31-3.79-1.12-6.4-2.84-6.25c-3.53,0.32-2.59,8.53-2.65,10.38c-0.06,1.84-0.15,3.73-0.23,5.63
							c-4.16,0.75-3.33-10.09-5.86-11.59c-3.93-2.33-4.76,2.86-4.66,5.26c0.18,4.08,1.28,8.97,5.12,11.13
							c1.26,0.72,3.49,1.52,5.23,1.38c-0.02,3.26,0.12,6.51,0.66,9.61c0.01,0.03,0.06,0.03,0.07,0c0,0,0,0,0-0.01l2.33,0.13
							c0,0.01,0,0.03,0,0.04c-0.02,1.02,1.58,1.03,1.59,0c0.03-1.97,1.24-11.64,1.38-19.84c1.86,0.28,4.2-0.59,5.53-1.57
							C80.37,203.78,80.83,198.42,80.1,193.92z" />
                        </g>
                        <g>
                            <path style="fill:#50AA50;" d="M68.67,229.3c-0.24,0-0.47-0.06-0.67-0.18c-0.25-0.15-0.42-0.38-0.5-0.65l-1.72-0.09
							l-0.63,0.02l-0.1-0.39c-0.46-2.63-0.67-5.57-0.67-9.22c-1.91,0-4.01-0.89-5-1.45c-4.09-2.31-5.16-7.53-5.34-11.5
							c-0.07-1.6,0.26-4.9,2.05-5.97c0.91-0.54,2.01-0.44,3.27,0.31c1.22,0.72,1.69,2.95,2.23,5.53c0.73,3.49,1.39,6,2.99,6.04
							l0.04-0.86c0.07-1.48,0.13-2.95,0.18-4.39c0.01-0.28-0.01-0.72-0.03-1.25c-0.11-3.23-0.32-9.25,3.08-9.56
							c0.52-0.05,1,0.1,1.42,0.45c0.95,0.8,1.55,2.64,1.85,5.62c2.15-0.96,2.03-3.44,1.91-6.29c-0.13-2.88-0.26-5.86,2.27-7.19
							c0.82-0.43,1.61-0.47,2.33-0.1c2.11,1.06,2.84,5.19,2.91,5.66l0,0c0.56,3.46,0.8,9.77-3.88,13.2c-1.3,0.96-3.5,1.8-5.36,1.7
							c-0.12,5.35-0.67,11.25-1.04,15.19c-0.18,1.97-0.33,3.53-0.34,4.17c-0.01,0.45-0.23,0.83-0.61,1.04
							C69.12,229.25,68.9,229.3,68.67,229.3z M65.87,227.5l2.47,0.13l-0.01,0.43c-0.01,0.21,0.07,0.27,0.12,0.3
							c0.12,0.07,0.3,0.07,0.43,0c0.1-0.06,0.15-0.15,0.15-0.28c0.01-0.68,0.15-2.17,0.34-4.24c0.38-4.04,0.95-10.15,1.04-15.6
							l0.01-0.5l0.5,0.07c1.72,0.26,3.96-0.58,5.21-1.49c4.3-3.15,4.06-9.09,3.53-12.34l0,0c-0.23-1.43-1.04-4.31-2.43-5.01
							c-0.46-0.23-0.96-0.2-1.53,0.09c-2.04,1.07-1.92,3.64-1.8,6.37c0.13,3,0.28,6.39-3.06,7.37l-0.52,0.15l-0.04-0.54
							c-0.31-3.78-1.03-5.13-1.59-5.59c-0.23-0.2-0.48-0.28-0.77-0.25c-2.56,0.23-2.37,5.92-2.27,8.65
							c0.02,0.56,0.03,1.01,0.03,1.31c-0.05,1.44-0.11,2.91-0.18,4.4l-0.07,1.59l-0.35,0.06c-2.84,0.51-3.64-3.32-4.35-6.7
							c-0.46-2.17-0.93-4.42-1.81-4.95c-0.96-0.57-1.76-0.68-2.37-0.31c-1.32,0.79-1.69,3.59-1.62,5.17
							c0.17,3.75,1.15,8.66,4.89,10.77c1.29,0.73,3.4,1.45,4.97,1.32l0.48-0.04l0,0.48C65.26,221.97,65.45,224.9,65.87,227.5z" />
                        </g>
                    </g>
                    <g>
                        <g>
                            <g>
                                <path style="fill:#415B91;" d="M75.53,249.97H58.65c-0.9,0-1.62-0.59-1.79-1.46l-3.83-19.68l1.59-0.31l3.83,19.68
								c0.03,0.15,0.16,0.15,0.2,0.15h16.88c0.04,0,0.17,0,0.2-0.15l3.8-19.68l1.59,0.31l-3.8,19.68
								C77.15,249.38,76.43,249.97,75.53,249.97z" />
                            </g>
                        </g>
                    </g>
                    <g>
                        <g>
                            <g>
                                <path style="fill:#B6D0FB;" d="M53.2,222.5h28.02c0.48,0,0.87,0.53,0.87,1.17v4.26c0,0.65-0.39,1.17-0.87,1.17H53.2
								c-0.48,0-0.87-0.53-0.87-1.17v-4.26C52.33,223.03,52.72,222.5,53.2,222.5z" />
                            </g>
                            <g>
                                <path style="fill:#405B91;" d="M81.22,229.55H53.2c-0.72,0-1.31-0.72-1.31-1.62v-4.26c0-0.89,0.59-1.62,1.31-1.62h28.02
								c0.72,0,1.31,0.72,1.31,1.62v4.26C82.53,228.82,81.94,229.55,81.22,229.55z M53.2,222.94c-0.2,0-0.43,0.31-0.43,0.73v4.26
								c0,0.42,0.23,0.73,0.43,0.73h28.02c0.2,0,0.43-0.31,0.43-0.73v-4.26c0-0.42-0.23-0.73-0.43-0.73H53.2z" />
                            </g>
                        </g>
                        <g>
                            <g>
                                <path style="fill:#B6D0FB;" d="M81.22,229.48H53.2c-0.68,0-1.24-0.69-1.24-1.54v-4.26c0-0.85,0.56-1.54,1.24-1.54h28.02
								c0.68,0,1.24,0.69,1.24,1.54v4.26C82.46,228.78,81.9,229.48,81.22,229.48z M53.2,222.87c-0.24,0-0.5,0.33-0.5,0.81v4.26
								c0,0.47,0.26,0.81,0.5,0.81h28.02c0.24,0,0.5-0.33,0.5-0.81v-4.26c0-0.48-0.26-0.81-0.5-0.81H53.2z" />
                            </g>
                            <g>
                                <path style="fill:#405B91;" d="M81.22,229.92H53.2c-0.93,0-1.68-0.89-1.68-1.98v-4.26c0-1.09,0.75-1.99,1.68-1.99h28.02
								c0.93,0,1.68,0.89,1.68,1.99v4.26C82.9,229.03,82.15,229.92,81.22,229.92z M53.25,223.31c-0.04,0.04-0.11,0.17-0.11,0.36
								v4.26c0,0.23,0.09,0.36,0.12,0.38l27.96-0.01c-0.03-0.01,0.06-0.14,0.06-0.36v-4.26c0-0.23-0.09-0.36-0.12-0.38L53.25,223.31
								z" />
                            </g>
                        </g>
                    </g>
                </g>
                <g>
                    <g>
                        <path style="fill:#50AA50;" d="M56.25,205.77c0.46,0.06,0.92,0.12,1.38,0.18c0.5,0.06,0.49-0.72,0-0.78
						c-0.46-0.06-0.92-0.12-1.38-0.18C55.76,204.93,55.76,205.71,56.25,205.77L56.25,205.77z" />
                    </g>
                </g>
                <g>
                    <g>
                        <path style="fill:#50AA50;" d="M58.29,199.65c0,0.23,0,0.46,0,0.69c0,0.5,0.78,0.5,0.78,0c0-0.23,0-0.46,0-0.69
						C59.06,199.15,58.29,199.15,58.29,199.65L58.29,199.65z" />
                    </g>
                </g>
                <g>
                    <g>
                        <path style="fill:#50AA50;" d="M60.98,206.79c0.34-0.19,0.67-0.38,1.01-0.56c0.44-0.24,0.05-0.92-0.39-0.67
						c-0.34,0.19-0.67,0.38-1.01,0.56C60.15,206.36,60.54,207.03,60.98,206.79L60.98,206.79z" />
                    </g>
                </g>
                <g>
                    <g>
                        <path style="fill:#50AA50;" d="M56.98,215.73c0.41-0.28,0.81-0.57,1.22-0.85c0.41-0.28,0.02-0.96-0.39-0.67
						c-0.41,0.28-0.81,0.57-1.22,0.85C56.18,215.35,56.57,216.02,56.98,215.73L56.98,215.73z" />
                    </g>
                </g>
                <g>
                    <g>
                        <path style="fill:#50AA50;" d="M54.07,209.05c0.29,0.11,0.58,0.23,0.87,0.34c0.47,0.18,0.67-0.57,0.21-0.75
						c-0.29-0.11-0.58-0.23-0.87-0.34C53.81,208.11,53.6,208.87,54.07,209.05L54.07,209.05z" />
                    </g>
                </g>
                <g>
                    <g>
                        <path style="fill:#50AA50;" d="M59.71,212.66c0.19,0.01,0.3,0.1,0.41,0.24c0.32,0.39,0.87-0.17,0.55-0.55
						c-0.25-0.3-0.57-0.44-0.96-0.47C59.21,211.84,59.21,212.62,59.71,212.66L59.71,212.66z" />
                    </g>
                </g>
                <g>
                    <g>
                        <path style="fill:#50AA50;" d="M61.42,216.32c-0.08,0.54-0.02,1.01,0.19,1.52c0.19,0.46,0.86,0.06,0.67-0.39
						c-0.13-0.3-0.16-0.6-0.11-0.92C62.24,216.03,61.49,215.82,61.42,216.32L61.42,216.32z" />
                    </g>
                </g>
                <g>
                    <g>
                        <path style="fill:#50AA50;" d="M65.48,216.46c0.23,0.06,0.46,0.12,0.69,0.18c0.48,0.13,0.69-0.62,0.21-0.75
						c-0.23-0.06-0.46-0.12-0.69-0.18C65.2,215.58,65,216.33,65.48,216.46L65.48,216.46z" />
                    </g>
                </g>
                <g>
                    <g>
                        <path style="fill:#50AA50;" d="M67.97,208.81c-0.04,0.44,0.13,0.85,0.47,1.13c0.38,0.32,0.93-0.23,0.55-0.55
						c-0.2-0.17-0.26-0.33-0.24-0.58C68.79,208.32,68.01,208.32,67.97,208.81L67.97,208.81z" />
                    </g>
                </g>
                <g>
                    <g>
                        <path style="fill:#50AA50;" d="M66.98,203.26c-0.23,0.31-0.27,0.62-0.2,0.99c0.09,0.49,0.84,0.28,0.75-0.21
						c-0.02-0.16,0.02-0.29,0.12-0.39C67.95,203.25,67.27,202.86,66.98,203.26L66.98,203.26z" />
                    </g>
                </g>
                <g>
                    <g>
                        <path style="fill:#50AA50;" d="M71.25,205.53c0,0.23,0,0.46,0,0.69c0,0.5,0.78,0.5,0.78,0c0-0.23,0-0.46,0-0.69
						C72.03,205.03,71.25,205.03,71.25,205.53L71.25,205.53z" />
                    </g>
                </g>
                <g>
                    <g>
                        <path style="fill:#50AA50;" d="M64.01,204.31c0.17,0.12,0.35,0.23,0.52,0.35c0.42,0.28,0.81-0.39,0.39-0.67
						c-0.17-0.12-0.35-0.23-0.52-0.35C63.98,203.36,63.59,204.03,64.01,204.31L64.01,204.31z" />
                    </g>
                </g>
                <g>
                    <g>
                        <path style="fill:#50AA50;" d="M65.31,197.86c0.15,0.18,0.22,0.36,0.24,0.59c0.04,0.5,0.82,0.5,0.78,0
						c-0.03-0.45-0.18-0.8-0.47-1.14C65.53,196.93,64.99,197.48,65.31,197.86L65.31,197.86z" />
                    </g>
                </g>
                <g>
                    <g>
                        <path style="fill:#50AA50;" d="M67.27,195.5c0,0.35,0,0.69,0,1.04c0,0.5,0.78,0.5,0.78,0c0-0.35,0-0.69,0-1.04
						C68.05,195,67.27,195,67.27,195.5L67.27,195.5z" />
                    </g>
                </g>
                <g>
                    <g>
                        <path style="fill:#50AA50;" d="M72.08,200.07c0.11,0.12,0.22,0.24,0.34,0.35c0.35,0.36,0.9-0.19,0.55-0.55
						c-0.11-0.12-0.22-0.24-0.34-0.35C72.29,199.16,71.74,199.71,72.08,200.07L72.08,200.07z" />
                    </g>
                </g>
                <g>
                    <g>
                        <path style="fill:#50AA50;" d="M72.85,195.44c0.34,0.02,0.69,0.04,1.03,0.06c0.5,0.03,0.5-0.75,0-0.78
						c-0.34-0.02-0.69-0.04-1.03-0.06C72.35,194.63,72.36,195.41,72.85,195.44L72.85,195.44z" />
                    </g>
                </g>
                <g>
                    <g>
                        <path style="fill:#50AA50;" d="M73.96,189.21c0.23,0.23,0.46,0.46,0.69,0.69c0.35,0.35,0.9-0.2,0.55-0.55
						c-0.23-0.23-0.46-0.46-0.69-0.69C74.15,188.31,73.6,188.86,73.96,189.21L73.96,189.21z" />
                    </g>
                </g>
                <g>
                    <g>
                        <path style="fill:#50AA50;" d="M76.95,187.21c0,0.4,0,0.81,0,1.21c0,0.5,0.78,0.5,0.78,0c0-0.4,0-0.81,0-1.21
						C77.73,186.71,76.95,186.71,76.95,187.21L76.95,187.21z" />
                    </g>
                </g>
                <g>
                    <g>
                        <path style="fill:#50AA50;" d="M78.36,194.49c0.11-0.17,0.23-0.35,0.34-0.52c0.28-0.42-0.4-0.81-0.67-0.39
						c-0.11,0.17-0.23,0.35-0.34,0.52C77.42,194.51,78.09,194.9,78.36,194.49L78.36,194.49z" />
                    </g>
                </g>
                <g>
                    <g>
                        <path style="fill:#50AA50;" d="M75.73,202.13c0.29-0.11,0.58-0.22,0.87-0.34c0.46-0.18,0.26-0.93-0.21-0.75
						c-0.29,0.11-0.58,0.22-0.87,0.34C75.06,201.55,75.26,202.31,75.73,202.13L75.73,202.13z" />
                    </g>
                </g>
                <g>
                    <g>
                        <path style="fill:#50AA50;" d="M79.17,201.04c0.29-0.06,0.58-0.12,0.86-0.18c0.49-0.1,0.28-0.85-0.21-0.75
						c-0.29,0.06-0.58,0.12-0.86,0.18C78.47,200.39,78.68,201.14,79.17,201.04L79.17,201.04z" />
                    </g>
                </g>
                <g>
                    <g>
                        <path style="fill:#50AA50;" d="M76.95,204.67c0,0.06,0,0.12,0,0.17c0,0.5,0.78,0.5,0.78,0c0-0.06,0-0.12,0-0.17
						C77.73,204.17,76.95,204.16,76.95,204.67L76.95,204.67z" />
                    </g>
                </g>
                <g>
                    <g>
                        <path style="fill:#50AA50;" d="M70.27,216.57c0.17-0.12,0.35-0.23,0.52-0.35c0.41-0.28,0.03-0.95-0.39-0.67
						c-0.17,0.12-0.35,0.23-0.52,0.35C69.47,216.18,69.86,216.85,70.27,216.57L70.27,216.57z" />
                    </g>
                </g>
                <g>
                    <g>
                        <path style="fill:#50AA50;" d="M69.82,219.44c0.31-0.3,0.64-0.47,1.06-0.57c0.49-0.11,0.28-0.86-0.21-0.75
						c-0.54,0.13-1,0.38-1.4,0.77C68.91,219.24,69.46,219.79,69.82,219.44L69.82,219.44z" />
                    </g>
                </g>
                <g>
                    <g>
                        <path style="fill:#50AA50;" d="M66.62,219.91c0.06,0.11,0.12,0.23,0.18,0.34c0.23,0.45,0.9,0.05,0.67-0.39
						c-0.06-0.11-0.12-0.23-0.18-0.34C67.06,219.07,66.39,219.46,66.62,219.91L66.62,219.91z" />
                    </g>
                </g>
                <g>
                    <g>
                        <path style="fill:#50AA50;" d="M63.65,220.75c0.44,0.23,0.86,0.28,1.34,0.19c0.49-0.1,0.28-0.85-0.21-0.75
						c-0.27,0.06-0.5,0.02-0.74-0.11C63.6,219.84,63.21,220.51,63.65,220.75L63.65,220.75z" />
                    </g>
                </g>
                <g>
                    <g>
                        <path style="fill:#50AA50;" d="M70.08,213.37c0.52-0.06,1.04-0.13,1.55-0.19c0.49-0.06,0.5-0.84,0-0.78
						c-0.52,0.06-1.04,0.13-1.55,0.19C69.59,212.65,69.59,213.43,70.08,213.37L70.08,213.37z" />
                    </g>
                </g>
            </g>
            <g>
                <g>
                    <g>
                        <path style="fill:#D7E7FF;" d="M139.75,179.28c8.37-7.57,16.74-15.14,25.11-22.7c1.24-1.12-0.6-2.95-1.83-1.83
						c-8.37,7.57-16.74,15.14-25.11,22.7C136.67,178.57,138.51,180.4,139.75,179.28L139.75,179.28z" />
                    </g>
                </g>
                <g>
                    <g>
                        <path style="fill:#D7E7FF;" d="M168.13,190.86c8.37-7.57,16.74-15.14,25.11-22.7c1.24-1.12-0.6-2.95-1.83-1.83
						c-8.37,7.57-16.74,15.14-25.11,22.7C165.05,190.15,166.89,191.98,168.13,190.86L168.13,190.86z" />
                    </g>
                </g>
                <g>
                    <g>
                        <path style="fill:#D7E7FF;" d="M137.29,199.44c17.55-17.11,35.09-34.22,52.64-51.33c1.2-1.17-0.64-3-1.83-1.83
						c-17.55,17.11-35.09,34.22-52.64,51.33C134.26,198.78,136.09,200.61,137.29,199.44L137.29,199.44z" />
                    </g>
                </g>
            </g>
            <g>
                <g>
                    <g>
                        <g>
                            <g>
                                <rect x="216.61" y="39.84" style="fill:#415B91;" width="1.13" height="72.44" />
                            </g>
                        </g>
                        <g>
                            <g>
                                <path style="fill:#415B91;" d="M221.77,112.27c0,2.54-2.06,4.6-4.6,4.6c-2.54,0-4.6-2.06-4.6-4.6c0-2.54,2.06-4.6,4.6-4.6
								C219.71,107.68,221.77,109.73,221.77,112.27z" />
                            </g>
                        </g>
                        <g>
                            <g>
                                <path style="fill:#415B91;" d="M217.24,127.7c-0.08,0-1.58-0.01-2.67-1.11c-0.73-0.73-1.1-1.74-1.1-3.01
								c0-0.34,0.27-0.61,0.61-0.61c0.34,0,0.61,0.27,0.61,0.61c0,0.93,0.25,1.66,0.74,2.15c0.74,0.73,1.8,0.75,1.81,0.75
								c1.72,0,3.11-1.4,3.11-3.11c0-1.72-1.4-3.11-3.11-3.11c-0.34,0-0.61-0.27-0.61-0.61v-3.38c0-0.34,0.27-0.61,0.61-0.61
								c0.34,0,0.61,0.27,0.61,0.61v2.81c2.1,0.3,3.72,2.11,3.72,4.29C221.57,125.76,219.63,127.7,217.24,127.7
								C217.24,127.7,217.24,127.7,217.24,127.7z" />
                            </g>
                        </g>
                    </g>
                    <g>
                        <g>
                            <g>
                                <path style="fill:#415B91;" d="M193.09,130.53c-0.23-0.04-0.43-0.23-0.46-0.47c-0.05-0.31,0.17-0.59,0.48-0.64l24.89-3.67
								c0.31-0.05,0.6,0.17,0.64,0.48c0.05,0.31-0.17,0.59-0.48,0.64l-24.89,3.67C193.21,130.54,193.15,130.54,193.09,130.53z" />
                            </g>
                        </g>
                        <g>
                            <g>
                                <path style="fill:#415B91;" d="M240.87,138.81c-0.06-0.01-0.11-0.03-0.16-0.06l-22.89-11.95c-0.28-0.14-0.38-0.49-0.24-0.76
								c0.14-0.28,0.48-0.38,0.76-0.24l22.89,11.95c0.28,0.14,0.38,0.49,0.24,0.76C241.35,138.74,241.1,138.85,240.87,138.81z" />
                            </g>
                        </g>
                        <g>
                            <path style="fill:#FFFFFF;" d="M239,186.59L178.05,176c-3.19-0.55-5.33-3.59-4.78-6.79l6.1-35.1
							c0.55-3.19,3.59-5.33,6.79-4.78l60.96,10.59c3.19,0.55,5.33,3.59,4.78,6.79l-6.1,35.1C245.23,185.01,242.19,187.15,239,186.59
							z" />
                            <path style="fill:#415B91;" d="M239.83,187.43c-0.39,0-0.78-0.03-1.18-0.1l-60.53-10.52c-1.81-0.31-3.38-1.31-4.44-2.81
							c-1.06-1.5-1.46-3.32-1.15-5.13l6.02-34.67c0.65-3.73,4.21-6.24,7.94-5.59l60.53,10.52c1.81,0.31,3.38,1.31,4.44,2.81
							c1.06,1.5,1.46,3.32,1.15,5.13l-6.02,34.67C246.01,185.07,243.11,187.42,239.83,187.43z M185.32,130.06
							c-2.53,0-4.78,1.82-5.23,4.4l-6.02,34.67c-0.24,1.4,0.07,2.81,0.89,3.96c0.82,1.16,2.04,1.93,3.43,2.18l60.53,10.52
							c2.88,0.51,5.64-1.44,6.14-4.32l6.02-34.67c0.24-1.4-0.07-2.81-0.89-3.97c-0.82-1.16-2.04-1.93-3.43-2.17l-60.53-10.52
							C185.93,130.09,185.62,130.06,185.32,130.06z" />
                        </g>
                        <g>
                            <path style="fill:#B6D0FB;" d="M238.54,182.79l-58.79-10.21c-2.04-0.35-3.41-2.3-3.05-4.34l5.57-32.05
							c0.35-2.04,2.3-3.41,4.34-3.05l58.79,10.21c2.04,0.35,3.41,2.3,3.05,4.34l-5.57,32.05
							C242.53,181.78,240.58,183.15,238.54,182.79z" />
                            <path style="fill:#405B91;" d="M239.08,183.61c-0.27,0-0.54-0.02-0.81-0.07l-58.51-10.17c-1.23-0.21-2.3-0.89-3.02-1.91
							c-0.72-1.02-1-2.26-0.78-3.49l5.52-31.78c0.44-2.53,2.86-4.24,5.4-3.8l58.51,10.17c2.54,0.44,4.24,2.86,3.8,5.4l-5.52,31.78
							c-0.21,1.23-0.89,2.3-1.91,3.02C240.96,183.31,240.03,183.61,239.08,183.61z M238.54,182c0.82,0.14,1.64-0.04,2.32-0.52
							c0.68-0.48,1.13-1.19,1.27-2.01l5.52-31.78c0.29-1.69-0.84-3.3-2.53-3.6l-58.51-10.17c-1.69-0.29-3.3,0.84-3.6,2.53
							l-5.52,31.78c-0.14,0.82,0.04,1.64,0.52,2.32c0.48,0.68,1.19,1.13,2.01,1.27L238.54,182z" />
                        </g>
                        <g>
                            <polygon style="fill:#FFFFFF;" points="210.66,177.95 225.87,164.01 234.29,182.05 						" />
                            <path style="fill:#415B91;" d="M235.18,182.73l-25.65-4.46l16.51-15.13L235.18,182.73z M211.78,177.62l21.61,3.76l-7.7-16.51
							L211.78,177.62z" />
                        </g>
                        <g>
                            <polygon style="fill:#FFFFFF;" points="180.58,172.72 207.55,148.01 222.47,180 						" />
                            <path style="fill:#415B91;" d="M223.36,180.68l-43.91-7.63l28.27-25.91L223.36,180.68z M181.71,172.39l39.87,6.93
							l-14.21-30.45L181.71,172.39z" />
                        </g>
                        <g>
                            <path style="fill:#FFFFFF;" d="M239.61,152.69c-0.36,2.05-2.31,3.43-4.36,3.07c-2.05-0.36-3.43-2.31-3.07-4.36
							s2.31-3.43,4.36-3.07C238.6,148.69,239.97,150.64,239.61,152.69z" />
                            <path style="fill:#415B91;" d="M235.91,156.34c-0.25,0-0.5-0.02-0.74-0.06c-2.33-0.41-3.9-2.63-3.49-4.96
							c0.2-1.13,0.82-2.11,1.76-2.77c0.94-0.66,2.07-0.92,3.2-0.72c1.13,0.2,2.11,0.82,2.77,1.76c0.66,0.94,0.91,2.07,0.72,3.2
							c-0.2,1.13-0.82,2.11-1.76,2.77C237.64,156.07,236.78,156.34,235.91,156.34z M235.89,148.79c-0.66,0-1.31,0.2-1.87,0.59
							c-0.71,0.5-1.18,1.25-1.33,2.1c-0.15,0.86,0.05,1.72,0.54,2.43c0.5,0.71,1.25,1.18,2.1,1.33c0.85,0.15,1.72-0.04,2.43-0.54
							c0.71-0.5,1.18-1.25,1.33-2.1l0,0c0.31-1.77-0.88-3.45-2.65-3.76C236.27,148.81,236.08,148.79,235.89,148.79z" />
                        </g>
                    </g>
                    <g>
                        <g>
                            <rect x="207.28" y="37.4" style="fill:#B6D0FB;" width="56.53" height="6.22" />
                        </g>
                    </g>
                    <g>
                        <g>
                            <g>
                                <g>
                                    <g>
                                        <g>
                                            <path style="fill:#415B91;" d="M312.93,166h-18.77V0.08h18.77V166z M296.02,164.15h15.05V1.94h-15.05V164.15z" />
                                        </g>
                                    </g>
                                    <g>
                                        <g>
                                            <g>
                                                <path style="fill:#415B91;" d="M312.69,18.29h-18.3V0h18.3V18.29z M296.28,16.41h14.53V1.88h-14.53V16.41z" />
                                            </g>
                                        </g>
                                        <g>
                                            <g>

                                                <rect x="302.61" y="-2.46" transform="matrix(0.7071 -0.7071 0.7071 0.7071 82.4378 217.318)" style="fill:#415B91;" width="1.88" height="23.21" />
                                            </g>
                                        </g>
                                        <g>
                                            <g>

                                                <rect x="291.94" y="8.21" transform="matrix(0.7071 -0.7071 0.7071 0.7071 82.4384 217.3187)" style="fill:#415B91;" width="23.21" height="1.88" />
                                            </g>
                                        </g>
                                    </g>
                                    <g>
                                        <g>
                                            <g>
                                                <path style="fill:#415B91;" d="M312.69,34.71h-18.3V16.41h18.3V34.71z M296.28,32.83h14.53V18.29h-14.53V32.83z" />
                                            </g>
                                        </g>
                                        <g>
                                            <g>

                                                <rect x="302.61" y="13.95" transform="matrix(0.7071 -0.7071 0.7071 0.7071 70.8318 222.1263)" style="fill:#415B91;" width="1.88" height="23.21" />
                                            </g>
                                        </g>
                                        <g>
                                            <g>

                                                <rect x="291.94" y="24.62" transform="matrix(0.7071 -0.7071 0.7071 0.7071 70.8318 222.1263)" style="fill:#415B91;" width="23.21" height="1.88" />
                                            </g>
                                        </g>
                                    </g>
                                    <g>
                                        <g>
                                            <g>
                                                <path style="fill:#415B91;" d="M312.69,51.12h-18.3v-18.3h18.3V51.12z M296.28,49.24h14.53V34.71h-14.53V49.24z" />
                                            </g>
                                        </g>
                                        <g>
                                            <g>

                                                <rect x="302.61" y="30.37" transform="matrix(0.7071 -0.7071 0.7071 0.7071 59.224 226.9325)" style="fill:#415B91;" width="1.88" height="23.21" />
                                            </g>
                                        </g>
                                        <g>
                                            <g>

                                                <rect x="291.94" y="41.04" transform="matrix(0.7071 -0.7071 0.7071 0.7071 59.2321 226.9432)" style="fill:#415B91;" width="23.21" height="1.88" />
                                            </g>
                                        </g>
                                    </g>
                                    <g>
                                        <g>
                                            <g>
                                                <path style="fill:#415B91;" d="M312.69,67.54h-18.3V49.24h18.3V67.54z M296.28,65.66h14.53V51.12h-14.53V65.66z" />
                                            </g>
                                        </g>
                                        <g>
                                            <g>

                                                <rect x="302.61" y="46.78" transform="matrix(0.7071 -0.7071 0.7071 0.7071 47.6179 231.7408)" style="fill:#415B91;" width="1.88" height="23.21" />
                                            </g>
                                        </g>
                                        <g>
                                            <g>

                                                <rect x="291.94" y="57.45" transform="matrix(0.7071 -0.7071 0.7071 0.7071 47.6184 231.7416)" style="fill:#415B91;" width="23.21" height="1.88" />
                                            </g>
                                        </g>
                                    </g>
                                    <g>
                                        <g>
                                            <g>
                                                <path style="fill:#415B91;" d="M312.69,83.95h-18.3V65.66h18.3V83.95z M296.28,82.07h14.53V67.54h-14.53V82.07z" />
                                            </g>
                                        </g>
                                        <g>
                                            <g>

                                                <rect x="302.61" y="63.2" transform="matrix(0.7071 -0.7071 0.7071 0.7071 36.0118 236.5493)" style="fill:#415B91;" width="1.88" height="23.21" />
                                            </g>
                                        </g>
                                        <g>
                                            <g>

                                                <rect x="291.94" y="73.86" transform="matrix(0.7071 -0.7071 0.7071 0.7071 36.0179 236.5593)" style="fill:#415B91;" width="23.21" height="1.88" />
                                            </g>
                                        </g>
                                    </g>
                                    <g>
                                        <g>
                                            <g>
                                                <path style="fill:#415B91;" d="M312.69,100.37h-18.3v-18.3h18.3V100.37z M296.28,98.49h14.53V83.95h-14.53V98.49z" />
                                            </g>
                                        </g>
                                        <g>
                                            <g>

                                                <rect x="302.61" y="79.61" transform="matrix(0.7071 -0.7071 0.7071 0.7071 24.4042 241.3552)" style="fill:#415B91;" width="1.88" height="23.21" />
                                            </g>
                                        </g>
                                        <g>
                                            <g>

                                                <rect x="291.94" y="90.28" transform="matrix(0.7071 -0.7071 0.7071 0.7071 24.4108 241.3674)" style="fill:#415B91;" width="23.21" height="1.88" />
                                            </g>
                                        </g>
                                    </g>
                                    <g>
                                        <g>
                                            <g>
                                                <path style="fill:#415B91;" d="M312.69,116.78h-18.3V98.49h18.3V116.78z M296.28,114.9h14.53v-14.53h-14.53V114.9z" />
                                            </g>
                                        </g>
                                        <g>
                                            <g>

                                                <rect x="302.61" y="96.03" transform="matrix(0.7071 -0.7071 0.7071 0.7071 12.7985 246.1645)" style="fill:#415B91;" width="1.88" height="23.21" />
                                            </g>
                                        </g>
                                        <g>
                                            <g>

                                                <rect x="291.94" y="106.69" transform="matrix(0.7071 -0.7071 0.7071 0.7071 12.8037 246.1755)" style="fill:#415B91;" width="23.21" height="1.88" />
                                            </g>
                                        </g>
                                    </g>
                                    <g>
                                        <g>
                                            <g>
                                                <path style="fill:#415B91;" d="M312.69,133.19h-18.3V114.9h18.3V133.19z M296.28,131.31h14.53v-14.53h-14.53V131.31z" />
                                            </g>
                                        </g>
                                        <g>
                                            <g>

                                                <rect x="302.61" y="112.44" transform="matrix(0.7071 -0.7071 0.7071 0.7071 1.1915 250.9712)" style="fill:#415B91;" width="1.88" height="23.21" />
                                            </g>
                                        </g>
                                        <g>
                                            <g>

                                                <rect x="291.94" y="123.11" transform="matrix(0.7071 -0.7071 0.7071 0.7071 1.1966 250.9835)" style="fill:#415B91;" width="23.21" height="1.88" />
                                            </g>
                                        </g>
                                    </g>
                                    <g>
                                        <g>
                                            <g>
                                                <path style="fill:#415B91;" d="M312.69,149.61h-18.3v-18.29h18.3V149.61z M296.28,147.73h14.53v-14.53h-14.53V147.73z" />
                                            </g>
                                        </g>
                                        <g>
                                            <g>

                                                <rect x="302.61" y="128.85" transform="matrix(0.7071 -0.7071 0.7071 0.7071 -10.4148 255.7798)" style="fill:#415B91;" width="1.88" height="23.21" />
                                            </g>
                                        </g>
                                        <g>
                                            <g>

                                                <rect x="291.94" y="139.52" transform="matrix(0.7071 -0.7071 0.7071 0.7071 -10.4105 255.7916)" style="fill:#415B91;" width="23.21" height="1.88" />
                                            </g>
                                        </g>
                                    </g>
                                    <g>
                                        <g>
                                            <g>
                                                <path style="fill:#415B91;" d="M312.69,166.02h-18.3v-18.29h18.3V166.02z M296.28,164.14h14.53v-14.53h-14.53V164.14z" />
                                            </g>
                                        </g>
                                        <g>
                                            <g>

                                                <rect x="302.61" y="145.27" transform="matrix(0.7071 -0.7071 0.7071 0.7071 -22.0223 260.5844)" style="fill:#415B91;" width="1.88" height="23.21" />
                                            </g>
                                        </g>
                                        <g>
                                            <g>

                                                <rect x="291.94" y="155.94" transform="matrix(0.7072 -0.707 0.707 0.7072 -22.0409 260.5262)" style="fill:#415B91;" width="23.21" height="1.88" />
                                            </g>
                                        </g>
                                    </g>
                                </g>
                                <g>
                                    <g>
                                        <g>
                                            <g>
                                                <path style="fill:#415B91;" d="M345.35,34.46h-18.29v-18.3h18.29V34.46z M328.94,32.58h14.53V18.05h-14.53V32.58z" />
                                            </g>
                                        </g>
                                        <g>
                                            <g>

                                                <rect x="324.6" y="24.37" transform="matrix(0.707 -0.7072 0.7072 0.707 80.6143 245.197)" style="fill:#415B91;" width="23.21" height="1.88" />
                                            </g>
                                        </g>
                                        <g>
                                            <g>

                                                <rect x="335.27" y="13.71" transform="matrix(0.7071 -0.7071 0.7071 0.7071 80.5723 245.1481)" style="fill:#415B91;" width="1.88" height="23.21" />
                                            </g>
                                        </g>
                                    </g>
                                    <g>
                                        <g>
                                            <g>
                                                <path style="fill:#415B91;" d="M328.94,34.46h-18.29v-18.3h18.29V34.46z M312.53,32.58h14.53V18.05h-14.53V32.58z" />
                                            </g>
                                        </g>
                                        <g>
                                            <g>

                                                <rect x="308.19" y="24.37" transform="matrix(0.707 -0.7072 0.7072 0.707 75.8045 233.5882)" style="fill:#415B91;" width="23.21" height="1.88" />
                                            </g>
                                        </g>
                                        <g>
                                            <g>

                                                <rect x="318.85" y="13.71" transform="matrix(0.7071 -0.7071 0.7071 0.7071 75.7641 233.5408)" style="fill:#415B91;" width="1.88" height="23.21" />
                                            </g>
                                        </g>
                                    </g>
                                    <g>
                                        <g>
                                            <path style="fill:#415B91;" d="M312.53,34.46h-18.3v-18.3h18.3V34.46z M296.11,32.58h14.53V18.05h-14.53V32.58z" />
                                        </g>
                                    </g>
                                    <g>
                                        <g>
                                            <g>
                                                <path style="fill:#415B91;" d="M296.11,34.46h-18.29v-18.3h18.29V34.46z M279.7,32.58h14.53V18.05H279.7V32.58z" />
                                            </g>
                                        </g>
                                        <g>
                                            <g>

                                                <rect x="275.36" y="24.37" transform="matrix(0.7071 -0.7071 0.7071 0.7071 66.1501 210.3289)" style="fill:#415B91;" width="23.21" height="1.88" />
                                            </g>
                                        </g>
                                        <g>
                                            <g>

                                                <rect x="286.02" y="13.71" transform="matrix(0.7071 -0.7071 0.7071 0.7071 66.149 210.3276)" style="fill:#415B91;" width="1.88" height="23.21" />
                                            </g>
                                        </g>
                                    </g>
                                    <g>
                                        <g>
                                            <g>
                                                <path style="fill:#415B91;" d="M279.7,34.46h-18.3v-18.3h18.3V34.46z M263.28,32.58h14.53V18.05h-14.53V32.58z" />
                                            </g>
                                        </g>
                                        <g>
                                            <g>

                                                <rect x="258.94" y="24.37" transform="matrix(0.7071 -0.7071 0.7071 0.7071 61.3419 198.7216)" style="fill:#415B91;" width="23.21" height="1.88" />
                                            </g>
                                        </g>
                                        <g>
                                            <g>

                                                <rect x="269.61" y="13.71" transform="matrix(0.7071 -0.7071 0.7071 0.7071 61.3429 198.7228)" style="fill:#415B91;" width="1.88" height="23.21" />
                                            </g>
                                        </g>
                                    </g>
                                    <g>
                                        <g>
                                            <g>
                                                <path style="fill:#415B91;" d="M263.28,34.46h-18.29v-18.3h18.29V34.46z M246.87,32.58h14.53V18.05h-14.53V32.58z" />
                                            </g>
                                        </g>
                                        <g>
                                            <g>
                                                <path style="fill:#415B91;" d="M245.93,34.46h-16.41c-0.38,0-0.72-0.23-0.87-0.58c-0.15-0.35-0.06-0.76,0.2-1.02
												l16.41-16.41l1.33,1.33l-14.81,14.81h13.75l16.14-16.14l1.33,1.33l-16.41,16.41C246.42,34.36,246.18,34.46,245.93,34.46z
												" />
                                            </g>
                                        </g>
                                        <g>
                                            <g>

                                                <rect x="253.2" y="13.71" transform="matrix(0.7071 -0.7071 0.7071 0.7071 56.5339 187.1144)" style="fill:#415B91;" width="1.88" height="23.21" />
                                            </g>
                                        </g>
                                    </g>
                                </g>
                            </g>
                            <g>
                                <g>
                                    <g>
                                        <path style="fill:#415B91;" d="M312.97,184.3h-18.81V166h18.81V184.3z M296.1,182.42h14.94v-14.53H296.1V182.42z" />
                                    </g>
                                </g>
                                <g>
                                    <g>
                                        <polygon style="fill:#415B91;" points="311.32,184.02 294.45,167.61 295.81,166.28 312.69,182.69 									" />
                                    </g>
                                </g>
                                <g>
                                    <g>
                                        <polygon style="fill:#415B91;" points="295.81,184.02 294.45,182.69 311.32,166.28 312.69,167.61 									" />
                                    </g>
                                </g>
                            </g>
                            <g>
                                <g>
                                    <g>
                                        <path style="fill:#415B91;" d="M312.97,249.95h-18.81v-18.29h18.81V249.95z M296.1,248.07h14.94v-14.53H296.1V248.07z" />
                                    </g>
                                </g>
                                <g>
                                    <g>
                                        <polygon style="fill:#415B91;" points="311.32,249.68 294.45,233.26 295.81,231.94 312.69,248.35 									" />
                                    </g>
                                </g>
                                <g>
                                    <g>
                                        <polygon style="fill:#415B91;" points="295.81,249.68 294.45,248.35 311.32,231.94 312.69,233.26 									" />
                                    </g>
                                </g>
                            </g>
                        </g>
                        <g>
                            <g>
                                <g>
                                    <path style="fill:#415B91;" d="M312.97,199.16h-18.81v-18.29h18.81V199.16z M296.1,197.28h14.94v-14.53H296.1V197.28z" />
                                </g>
                            </g>
                            <g>
                                <g>
                                    <polygon style="fill:#415B91;" points="311.32,198.88 294.45,182.47 295.81,181.14 312.69,197.55 								" />
                                </g>
                            </g>
                            <g>
                                <g>
                                    <polygon style="fill:#415B91;" points="295.81,198.88 294.45,197.55 311.32,181.14 312.69,182.47 								" />
                                </g>
                            </g>
                        </g>
                        <g>
                            <g>
                                <g>
                                    <path style="fill:#415B91;" d="M312.97,215.57h-18.81v-18.29h18.81V215.57z M296.1,213.69h14.94v-14.53H296.1V213.69z" />
                                </g>
                            </g>
                            <g>
                                <g>
                                    <polygon style="fill:#415B91;" points="311.32,215.3 294.45,198.88 295.81,197.55 312.69,213.96 								" />
                                </g>
                            </g>
                            <g>
                                <g>
                                    <polygon style="fill:#415B91;" points="295.81,215.3 294.45,213.96 311.32,197.55 312.69,198.88 								" />
                                </g>
                            </g>
                        </g>
                        <g>
                            <g>
                                <g>
                                    <path style="fill:#415B91;" d="M312.97,231.98h-18.81v-18.29h18.81V231.98z M296.1,230.1h14.94v-14.53H296.1V230.1z" />
                                </g>
                            </g>
                            <g>
                                <g>
                                    <polygon style="fill:#415B91;" points="311.32,231.71 294.45,215.29 295.81,213.97 312.69,230.38 								" />
                                </g>
                            </g>
                            <g>
                                <g>
                                    <polygon style="fill:#415B91;" points="295.81,231.71 294.45,230.38 311.32,213.97 312.69,215.29 								" />
                                </g>
                            </g>
                        </g>
                    </g>
                </g>
            </g>
            <g>
                <path style="fill:#405B91;" d="M103.1,98" />
                <g>
                    <path style="fill:#405B91;" d="M103.1,99.55c2,0,2.01-3.11,0-3.11C101.09,96.44,101.09,99.55,103.1,99.55L103.1,99.55z" />
                </g>
            </g>
            <g>
                <path style="fill:#405B91;" d="M271.79,65.5" />
                <g>
                    <path style="fill:#405B91;" d="M271.79,67.06c2,0,2.01-3.11,0-3.11C269.79,63.95,269.79,67.06,271.79,67.06L271.79,67.06z" />
                </g>
            </g>
            <g>
                <path style="fill:#405B91;" d="M341.62,176.82c0.23,0,0.46,0,0.69,0" />
                <g>
                    <path style="fill:#405B91;" d="M341.62,178.37c0.23,0,0.46,0,0.69,0c0.81,0,1.59-0.72,1.56-1.56c-0.04-0.84-0.68-1.56-1.56-1.56
					c-0.23,0-0.46,0-0.69,0c-0.81,0-1.59,0.72-1.56,1.56C340.11,177.66,340.75,178.37,341.62,178.37L341.62,178.37z" />
                </g>
            </g>
            <g>
                <path style="fill:#405B91;" d="M41.56,199.63" />
                <g>
                    <path style="fill:#405B91;" d="M41.56,201.19c2,0,2.01-3.11,0-3.11C39.56,198.08,39.56,201.19,41.56,201.19L41.56,201.19z" />
                </g>
            </g>
            <g>
                <path style="fill:#405B91;" d="M190.21,50.29" />
                <g>
                    <path style="fill:#405B91;" d="M190.21,51.85c2,0,2.01-3.11,0-3.11C188.21,48.74,188.21,51.85,190.21,51.85L190.21,51.85z" />
                </g>
            </g>
        </g>
    </g>
    <g id="DESIGNED_BY_JOTHIBASU">
    </g>
</svg>