<svg xmlns="http://www.w3.org/2000/svg" xmlns:xlink="http://www.w3.org/1999/xlink" width="512" height="512" viewBox="0 0 512 512"><defs><linearGradient id="a" x1="0.5" x2="0.5" y2="1" gradientUnits="objectBoundingBox"><stop offset="0" stop-color="#f1ac39" stop-opacity="0.2"/><stop offset="1" stop-color="#ffc22a"/></linearGradient><linearGradient id="b" x1="1" x2="-0.021" y2="1" gradientUnits="objectBoundingBox"><stop offset="0" stop-color="#e6e9f5" stop-opacity="0.6"/><stop offset="1" stop-color="#e6e9f5" stop-opacity="0"/></linearGradient><linearGradient id="c" x1="0.5" x2="0.5" y2="1" gradientUnits="objectBoundingBox"><stop offset="0" stop-color="#fde47c"/><stop offset="1" stop-color="#ffc22a"/></linearGradient><linearGradient id="d" x1="1" x2="0" y2="1" gradientUnits="objectBoundingBox"><stop offset="0" stop-color="#ffc22a" stop-opacity="0.502"/><stop offset="1" stop-color="#ffc22a" stop-opacity="0.102"/></linearGradient></defs><g transform="translate(-1255 -1694)"><rect width="512" height="512" transform="translate(1255 1694)" fill="none"/><g transform="translate(-10 -2.411)"><circle cx="3.956" cy="3.956" r="3.956" transform="translate(1607.601 1752.411)" fill="#fde47c"/><circle cx="3.956" cy="3.956" r="3.956" transform="translate(1691.514 1865.698)" fill="#fde47c"/><circle cx="3.956" cy="3.956" r="3.956" transform="translate(1415.912 1756.367)" fill="#fde47c"/><circle cx="3.956" cy="3.956" r="3.956" transform="translate(1377 1918.523)" fill="#fde47c"/><circle cx="3.956" cy="3.956" r="3.956" transform="translate(1461.956 1811.705)" fill="#fde47c"/><circle cx="3.956" cy="3.956" r="3.956" transform="translate(1321 1865.698)" fill="#fde47c"/><circle cx="3.956" cy="3.956" r="3.956" transform="translate(1699.426 1776.176)" fill="#f5c84c"/><circle cx="3.956" cy="3.956" r="3.956" transform="translate(1539.011 1782.323)" fill="#f5c84c"/><path d="M164.232,137.473a13,13,0,0,0-13.814-13.814,16.2,16.2,0,0,0,10.034-3.78,16.183,16.183,0,0,0,3.78-10.034,13,13,0,0,0,13.815,13.814,13,13,0,0,0-13.815,13.814" transform="translate(1206.865 1680.391)" fill="#fde47c"/><path d="M166.073,141.154A14.73,14.73,0,0,0,150.418,125.5a18.358,18.358,0,0,0,11.371-4.283,18.339,18.339,0,0,0,4.283-11.371A14.732,14.732,0,0,0,181.729,125.5a14.732,14.732,0,0,0-15.656,15.655" transform="translate(1465.095 1728.5)" fill="#fde47c"/><path d="M163.861,136.732a12.649,12.649,0,0,0-13.443-13.443,15.765,15.765,0,0,0,9.765-3.678,15.749,15.749,0,0,0,3.678-9.765,12.651,12.651,0,0,0,13.445,13.443,12.651,12.651,0,0,0-13.445,13.443" transform="translate(1543.476 1823.979)" fill="#fab545"/><path d="M163.861,136.732a12.649,12.649,0,0,0-13.443-13.443,15.765,15.765,0,0,0,9.765-3.678,15.749,15.749,0,0,0,3.678-9.765,12.651,12.651,0,0,0,13.445,13.443,12.651,12.651,0,0,0-13.445,13.443" transform="translate(1230.538 1755.854)" fill="#fab545"/><path d="M9125.856-3396h274.9l-121.168-125.747a21.777,21.777,0,0,0-31.546-.064Z" transform="translate(-7734.855 5353.663)" fill="#fde47c"/><path d="M9401.608-3299.322l-107.056,114.88c-16.735,16.7-48.013,19.585-64.748,2.889l-111.246-117.769a22.532,22.532,0,0,1,21.012-14.388H9380.6A22.527,22.527,0,0,1,9401.608-3299.322Z" transform="translate(-7731.559 5261.875)" fill="#f8b545"/><path d="M9125.856-3406.364h274.9l-121.168-115.911a23.074,23.074,0,0,0-31.546-.059Z" transform="translate(-7734.855 5362.204)" fill="url(#a)"/><g transform="translate(-224 220)"><rect width="185" height="216" transform="translate(1660 1650)" fill="#fff"/><path d="M1842.667,1809.667v-160H1797.24L1657.667,1717v128l185,25.333Z" transform="translate(2.333 0.333)" fill="url(#b)"/></g><g transform="translate(-8113.21 5957.26)"><path d="M9784.3-3988.2v156.18a22.521,22.521,0,0,1-22.53,22.53H9520.74a22.527,22.527,0,0,1-22.53-22.53v-156.1a22.458,22.458,0,0,1,1.521-8.14l97.39,77.78,30,23.95a22.656,22.656,0,0,0,28.27,0l127.391-101.73A22.3,22.3,0,0,1,9784.3-3988.2Z" transform="translate(0 5)" fill="url(#c)"/><path d="M9784.3-3988.2v156.18a22.521,22.521,0,0,1-22.53,22.53H9520.74a22.527,22.527,0,0,1-22.53-22.53v-156.1a22.458,22.458,0,0,1,1.521-8.14l97.39,77.78,30,23.95a22.656,22.656,0,0,0,28.27,0l127.391-101.73A22.3,22.3,0,0,1,9784.3-3988.2Z" fill="#fde47c"/><path d="M9784.3-3988.2v156.18a22.521,22.521,0,0,1-22.53,22.53H9520.74a22.527,22.527,0,0,1-22.53-22.53v-43.37l98.91-43.09,30,23.95a22.656,22.656,0,0,0,28.27,0l127.391-101.73A22.3,22.3,0,0,1,9784.3-3988.2Z" fill="url(#d)"/></g><g transform="translate(-7726.335 6262.764)"><path d="M9252.12-4354.13a54.783,54.783,0,0,0-54.785,54.784,54.781,54.781,0,0,0,54.785,54.771,54.763,54.763,0,0,0,54.771-54.771A54.837,54.837,0,0,0,9252.12-4354.13Zm-28.66,38.039a6.317,6.317,0,0,1,1.857-4.476,6.274,6.274,0,0,1,4.476-1.856,6.326,6.326,0,0,1,6.345,6.332,6.343,6.343,0,0,1-6.333,6.344A6.345,6.345,0,0,1,9223.46-4316.091Zm52.448,48.563a5.074,5.074,0,0,1-7.021-1.451c-.06-.1-6.38-9.823-17.027-9.823s-16.966,9.725-17.028,9.823a5.07,5.07,0,0,1-6.9,1.524,5.068,5.068,0,0,1-1.661-6.971c.382-.59,9.431-14.532,25.585-14.532s25.2,13.942,25.584,14.532A5.066,5.066,0,0,1,9275.908-4267.529Zm-1.721-42.218a6.343,6.343,0,0,1-6.344-6.344,6.317,6.317,0,0,1,1.857-4.476,6.292,6.292,0,0,1,4.486-1.856,6.33,6.33,0,0,1,6.331,6.332A6.341,6.341,0,0,1,9274.188-4309.747Z" fill="#ff3a59"/><path d="M9243.119-4354.13a54.617,54.617,0,0,0-6.553.393,54.825,54.825,0,0,1,48.315,54.391,54.749,54.749,0,0,1-48.267,54.377,53.973,53.973,0,0,0,6.5.394,54.763,54.763,0,0,0,54.771-54.771A54.837,54.837,0,0,0,9243.119-4354.13Z" transform="translate(9.001)" fill="#e72749"/></g></g></g></svg>