<?xml version="1.0" encoding="utf-8"?>
<!-- Generator: Adobe Illustrator 24.1.3, SVG Export Plug-In . SVG Version: 6.00 Build 0)  -->
<svg version="1.1" id="Layer_1" xmlns="http://www.w3.org/2000/svg" xmlns:xlink="http://www.w3.org/1999/xlink" x="0px" y="0px"
	 viewBox="0 0 512 512" enable-background="new 0 0 512 512" xml:space="preserve" width="150" height="150">
<g>
	<g>
		<g>
			
				<ellipse transform="matrix(0.9922 -0.1248 0.1248 0.9922 -41.8866 57.3989)" fill="#E69E35" cx="437.3" cy="363.1" rx="50.3" ry="50.3"/>
			
				<ellipse transform="matrix(0.2321 -0.9727 0.9727 0.2321 -12.1073 710.8481)" fill="#FCE47E" cx="444.1" cy="363.1" rx="50.3" ry="50.3"/>
			<circle fill="#F7B546" cx="444.1" cy="363.1" r="40.3"/>
			<path fill="#E69E35" d="M406.8,365.3c0-22.3,18.1-40.3,40.3-40.3c8.3,0,16.1,2.5,22.5,6.9c-7-5.7-15.8-9.1-25.5-9.1
				c-22.3,0-40.3,18.1-40.3,40.3c0,12.6,5.8,23.9,14.9,31.3c-4-4.1-7.2-9-9.2-14.6C407.8,375.3,406.8,370.4,406.8,365.3z"/>
		</g>
		<g>
			<path fill="#FCE47E" d="M422.6,363.7h10.7v4.7h-10.7V363.7z"/>
			<path fill="#FCE47E" d="M456,351.4c1.7,0.8,3.1,1.9,4,3.3c0.9,1.4,1.4,3.2,1.4,5.1c0,1.9-0.5,3.7-1.4,5.1c-0.9,1.5-2.3,2.6-4,3.3
				c-1.7,0.8-3.8,1.2-6.1,1.2h-5.4v7.3h-6.1v-26.6h11.5C452.2,350.2,454.3,350.6,456,351.4z M453.8,363.3c1-0.8,1.4-1.9,1.4-3.4
				c0-1.5-0.5-2.6-1.4-3.4c-1-0.8-2.4-1.2-4.2-1.2h-5v9.2h5C451.4,364.5,452.8,364.1,453.8,363.3z"/>
		</g>
	</g>
	<g>
		<g>
			
				<ellipse transform="matrix(0.9922 -0.1248 0.1248 0.9922 -6.4004 45.9754)" fill="#E69E35" cx="363.8" cy="74.1" rx="25.1" ry="25.1"/>
			
				<ellipse transform="matrix(0.2321 -0.9727 0.9727 0.2321 209.9689 414.1208)" fill="#FCE47E" cx="367.3" cy="74.1" rx="25.1" ry="25.1"/>
			<circle fill="#F7B546" cx="367.3" cy="74.1" r="20.1"/>
			<path fill="#E69E35" d="M348.6,75.2c0-11.1,9-20.1,20.1-20.1c4.2,0,8,1.3,11.2,3.4c-3.5-2.8-7.9-4.6-12.7-4.6
				c-11.1,0-20.1,9-20.1,20.1c0,6.3,2.9,11.9,7.4,15.6c-2-2-3.6-4.5-4.6-7.3C349.1,80.2,348.6,77.8,348.6,75.2z"/>
		</g>
		<g>
			<path fill="#FCE47E" d="M356.8,74.4h5.4v2.4h-5.4V74.4z"/>
			<path fill="#FCE47E" d="M373.5,68.2c0.9,0.4,1.5,0.9,2,1.7c0.5,0.7,0.7,1.6,0.7,2.6c0,1-0.2,1.8-0.7,2.5c-0.5,0.7-1.1,1.3-2,1.7
				c-0.9,0.4-1.9,0.6-3.1,0.6h-2.7v3.7h-3.1V67.6h5.7C371.6,67.6,372.6,67.8,373.5,68.2z M372.3,74.2c0.5-0.4,0.7-1,0.7-1.7
				c0-0.7-0.2-1.3-0.7-1.7s-1.2-0.6-2.1-0.6h-2.5v4.6h2.5C371.2,74.8,371.9,74.6,372.3,74.2z"/>
		</g>
	</g>
	<path fill="#F9B546" d="M187.2,101.1c0,0,0.7-8.6-5.6-14.8c-6.2-6.2-14.8-5.6-14.8-5.6s9.3-0.1,14.8-5.6c5.5-5.5,5.6-14.8,5.6-14.8
		s-0.5,8.7,5.6,14.8c6.1,6.1,14.8,5.6,14.8,5.6s-8.7-0.5-14.8,5.6C186.6,92.4,187.2,101.1,187.2,101.1z"/>
	<path fill="#FCE47E" d="M492.3,288.9c0,0,0.3-3.9-2.5-6.8c-2.8-2.8-6.8-2.5-6.8-2.5s4.3,0,6.8-2.5c2.5-2.5,2.5-6.8,2.5-6.8
		s-0.2,4,2.5,6.8c2.8,2.8,6.8,2.5,6.8,2.5s-4-0.2-6.8,2.5S492.3,288.9,492.3,288.9z"/>
	<path fill="#FCE47E" d="M432.1,118.6c0,0,0.3-3.9-2.5-6.8s-6.8-2.5-6.8-2.5s4.3,0,6.8-2.5c2.5-2.5,2.5-6.8,2.5-6.8s-0.2,4,2.5,6.8
		s6.8,2.5,6.8,2.5s-4-0.2-6.8,2.5S432.1,118.6,432.1,118.6z"/>
	<path fill="#F9B546" d="M9.3,280.2c0,0,0.3-3.9-2.5-6.8S0,270.9,0,270.9s4.3,0,6.8-2.5c2.5-2.5,2.5-6.8,2.5-6.8s-0.2,4,2.5,6.8
		s6.8,2.5,6.8,2.5s-4-0.2-6.8,2.5S9.3,280.2,9.3,280.2z"/>
	<circle fill="#FCE47E" cx="155.6" cy="178.6" r="4.4"/>
	<g>
		<g>
			
				<ellipse transform="matrix(0.9922 -0.1245 0.1245 0.9922 -20.0894 61.3942)" fill="#E69E35" cx="481.2" cy="191.4" rx="27.1" ry="27.1"/>
			
				<ellipse transform="matrix(0.2323 -0.9726 0.9726 0.2323 186.03 618.5854)" fill="#FCE47E" cx="484.9" cy="191.4" rx="27.1" ry="27.1"/>
			<circle fill="#F7B546" cx="484.9" cy="191.4" r="21.7"/>
			<path fill="#E69E35" d="M464.8,192.7c0-12,9.7-21.7,21.8-21.7c4.5,0,8.7,1.4,12.1,3.7c-3.7-3.1-8.5-4.9-13.8-4.9
				c-12,0-21.7,9.7-21.8,21.7c0,6.8,3.1,12.9,8,16.9c-2.2-2.2-3.9-4.9-4.9-7.8C465.3,198,464.8,195.4,464.8,192.7z"/>
		</g>
		<g>
			<path fill="#FCE47E" d="M474.4,192l5.8,0v2.6l-5.8,0V192z"/>
			<path fill="#FCE47E" d="M492.5,185.4c0.9,0.4,1.7,1,2.2,1.8c0.5,0.8,0.8,1.7,0.8,2.8c0,1.1-0.3,2-0.8,2.8
				c-0.5,0.8-1.2,1.4-2.2,1.8c-0.9,0.4-2,0.6-3.3,0.6l-2.9,0l0,3.9l-3.3,0l0-14.3l6.2,0C490.4,184.7,491.5,184.9,492.5,185.4z
				 M491.3,191.7c0.5-0.4,0.8-1,0.8-1.8c0-0.8-0.3-1.4-0.8-1.9s-1.3-0.6-2.3-0.6l-2.7,0l0,5l2.7,0
				C490,192.4,490.7,192.2,491.3,191.7z"/>
		</g>
	</g>
	<g>
		<g>
			
				<ellipse transform="matrix(0.9922 -0.1248 0.1248 0.9922 -21.7614 9.4387)" fill="#E69E35" cx="64.5" cy="178.4" rx="27.1" ry="27.1"/>
			
				<ellipse transform="matrix(0.2321 -0.9727 0.9727 0.2321 -121.231 203.3389)" fill="#FCE47E" cx="68.2" cy="178.4" rx="27.1" ry="27.1"/>
			<circle fill="#F7B546" cx="68.2" cy="178.4" r="21.7"/>
			<path fill="#E69E35" d="M48,179.7c0-12,9.7-21.7,21.7-21.7c4.5,0,8.7,1.4,12.1,3.7c-3.7-3.1-8.5-4.9-13.8-4.9
				c-12,0-21.7,9.7-21.7,21.7c0,6.8,3.1,12.9,8,16.9c-2.2-2.2-3.9-4.9-4.9-7.8C48.6,185,48,182.4,48,179.7z"/>
		</g>
		<g>
			<path fill="#FCE47E" d="M57.9,178.8h5.8v2.6h-5.8V178.8z"/>
			<path fill="#FCE47E" d="M76,172.2c0.9,0.4,1.7,1,2.2,1.8c0.5,0.8,0.8,1.7,0.8,2.8c0,1.1-0.3,2-0.8,2.8c-0.5,0.8-1.2,1.4-2.2,1.8
				c-0.9,0.4-2,0.6-3.3,0.6h-2.9v3.9h-3.3v-14.3h6.2C73.9,171.5,75,171.7,76,172.2z M74.7,178.5c0.5-0.4,0.8-1,0.8-1.8
				c0-0.8-0.3-1.4-0.8-1.9c-0.5-0.4-1.3-0.6-2.3-0.6h-2.7v5h2.7C73.5,179.2,74.2,179,74.7,178.5z"/>
		</g>
	</g>
	<g>
		<path fill="#F05B81" d="M274.8,142.2l-149.1,57.8l149.1,57.8l149.1-57.8L274.8,142.2z"/>
		<path fill="#D41E42" d="M125.8,199.9v205.3L274.8,463V257.7L125.8,199.9z"/>
		<path fill="#EF405C" d="M274.8,463V257.7l149.1-57.8v205.3L274.8,463z"/>
		<path fill="#F7B546" d="M321.7,239.3v62.6l27.6-29.3l17.9,11.6v-62.6L321.7,239.3z"/>
		<path fill="#F7B546" d="M321.7,239.5l-143.6-60.6l44.3-17.2l144.7,60.2L321.7,239.5z"/>
		<circle fill="#51C0A5" cx="271.1" cy="143.4" r="69.2"/>
		<path fill="#FFFFFF" d="M261.5,170.4c-2,0-3.9-0.7-5.5-2l-21.9-18.5c-3.6-3-4-8.4-1-12c3-3.6,8.4-4,12-1l16.2,13.7l35.6-32
			c3.4-3.3,8.7-3.2,12,0.2c3.3,3.4,3.2,8.7-0.2,12c-0.1,0.1-0.3,0.3-0.4,0.4l-41.1,37C265.6,169.6,263.6,170.4,261.5,170.4
			L261.5,170.4z"/>
	</g>
	<g>
		<g>
			
				<ellipse transform="matrix(0.9922 -0.1248 0.1248 0.9922 -43.7139 17.3946)" fill="#E69E35" cx="117" cy="357.7" rx="73.3" ry="73.3"/>
			
				<ellipse transform="matrix(0.2321 -0.9727 0.9727 0.2321 -250.392 398.2004)" fill="#FCE47E" cx="127" cy="357.7" rx="73.3" ry="73.3"/>
			<path fill="#E69E35" d="M72.6,361c0-32.5,26.3-58.8,58.8-58.8c12.2,0,23.5,3.7,32.8,10c-10.1-8.3-23.1-13.3-37.2-13.3
				c-32.5,0-58.8,26.3-58.8,58.8c0,18.4,8.4,34.8,21.7,45.6c-5.9-6-10.5-13.2-13.4-21.2C74,375.5,72.6,368.4,72.6,361z"/>
			<circle fill="#F7B546" cx="127" cy="357.7" r="58.8"/>
		</g>
		<g>
			<path fill="#FCE47E" d="M99.2,358.6h15.7v6.9H99.2V358.6z"/>
			<path fill="#FCE47E" d="M147.9,340.6c2.5,1.1,4.5,2.8,5.8,4.9c1.4,2.1,2,4.6,2,7.5c0,2.8-0.7,5.3-2,7.4c-1.4,2.1-3.3,3.7-5.8,4.9
				c-2.5,1.1-5.5,1.7-8.9,1.7h-7.8v10.7h-9v-38.7H139C142.4,338.9,145.4,339.5,147.9,340.6z M144.6,357.9c1.4-1.2,2.1-2.8,2.1-5
				c0-2.2-0.7-3.8-2.1-5c-1.4-1.2-3.4-1.7-6.1-1.7h-7.3v13.4h7.3C141.2,359.7,143.2,359.1,144.6,357.9z"/>
		</g>
	</g>
</g>
</svg>
