<?xml version="1.0" encoding="utf-8"?>
<!-- Generator: Adobe Illustrator 24.1.3, SVG Export Plug-In . SVG Version: 6.00 Build 0)  -->
<svg version="1.1" id="Capa_1" xmlns="http://www.w3.org/2000/svg" xmlns:xlink="http://www.w3.org/1999/xlink" x="0px" y="0px"
	 width="200px" height="272.5px" viewBox="0 0 200 272.5" enable-background="new 0 0 200 272.5" xml:space="preserve">
<g>
	<path fill="#333333" d="M0,216.5c0,4.5,1.7,8.3,4.9,11.5l39.6,39.6c2.9,2.9,7,4.9,11.5,4.9h127.9c9.1,0,16.1-7.4,16.1-16.1V144.3
		c0-7-10.7-7-10.7,0v111.7c0,2.9-2.5,5.3-5.3,5.3H57.3v-30.5c0-9.1-7.4-16.1-16.1-16.1H10.7v-120h178.1v5.8c0,2.9,2.5,5.3,5.3,5.3
		c2.9,0,5.3-2.5,5.3-5.3V16.1C199.5,7,192.1,0,183.5,0H16.1C7.4,0,0,7.4,0,16.1V216.5z M46.6,230.9v23.5l-28.9-28.9h23.5
		C44.1,225.1,46.6,227.6,46.6,230.9z M10.7,83.7V16.1c0-2.9,2.5-5.3,5.3-5.3h167.4c2.9,0,5.3,2.5,5.3,5.3v67.6L10.7,83.7L10.7,83.7z
		"/>
	<path fill="#333333" d="M81.3,143.1c-2.1-2.1-5.3-2.1-7.9,0l-18.1,18.1c-2.1,2.1-2.1,5.3,0,7.9l18.1,18.1c4.9,4.9,12.8-2.9,7.9-7.9
		l-14.4-14.4l14.4-14.4C83.7,148.9,83.7,145.6,81.3,143.1L81.3,143.1z"/>
	<path fill="#333333" d="M124.1,187.6c2.1,2.1,5.8,2.1,7.9,0l18.1-18.1c2.1-2.1,2.1-5.3,0-7.9L132,143.5c-4.9-4.9-12.8,2.9-7.9,7.9
		l14.4,14.4l-14.4,14.4C122.1,181.9,122.1,185.1,124.1,187.6L124.1,187.6z"/>
	<path fill="#333333" d="M104.3,137.3l-15.7,56.1c-2.1,6.6,8.7,9.5,10.3,2.9l16.1-56.1C116.7,133.6,106.4,130.7,104.3,137.3
		L104.3,137.3z"/>
	<g>
		<g>
			<path fill="#333333" d="M61,47l8.3-17.3c1.7-3.3-0.8-6.6-4.1-6.6l0,0c-2.1,0-3.7,1.3-4.5,2.9l-4.9,12.8L50.7,26
				c-0.8-1.7-2.5-2.9-4.5-2.9l0,0c-3.3,0-5.8,3.7-4.1,6.6l7.9,17.3l-8.7,17.7c-1.7,3.3,0.8,7,4.1,7l0,0c2.1,0,3.7-1.3,4.5-2.9
				l5.8-13.6l5.8,13.6c0.8,1.7,2.5,2.9,4.5,2.9h0.4c3.3,0,5.8-3.7,4.1-7L61,47z"/>
		</g>
	</g>
	<g>
		<g>
			<path fill="#333333" d="M113,23.1c-1.7,0-3.3,1.3-3.7,2.9l-6.2,31.3l0,0l-6.2-31.3c-0.4-1.7-2.1-2.9-3.7-2.9h-7.8
				c-2.1,0-3.7,1.7-3.7,3.7v40.8c0,2.1,1.7,3.7,3.7,3.7h1.3c2.1,0,3.7-1.7,3.7-3.7V32.9l0,0l7.9,35.9c0.4,1.7,2.1,2.9,3.7,2.9h1.7
				c1.7,0,3.3-1.3,3.7-2.9l7.9-35.9l0,0V68c0,2.1,1.7,3.7,3.7,3.7h1.3c2.1,0,3.7-1.7,3.7-3.7V26.8c0-2.1-1.7-3.7-3.7-3.7
				C120.2,23.1,113,23.1,113,23.1z"/>
		</g>
	</g>
	<g>
		<g>
			<path fill="#333333" d="M145.1,63.5V27.2c0-2.1-1.7-4.1-4.1-4.1h-1.7c-2.1,0-4.1,1.7-4.1,4.1v41.7c0,1.7,1.3,2.9,2.9,2.9h20.2
				c2.1,0,4.1-1.7,4.1-4.1l0,0c0-2.1-1.7-4.1-4.1-4.1C158.3,63.5,145.1,63.5,145.1,63.5z"/>
		</g>
	</g>
</g>
</svg>
