<svg xmlns="http://www.w3.org/2000/svg" width="24" height="24" viewBox="0 0 24 24"><rect width="24" height="24" fill="none"/><path d="M1525.19,311.91h-15.98a1.993,1.993,0,0,0-2,2v12.66a1.991,1.991,0,0,0,2,1.99h3.66v2.78a.57.57,0,0,0,.57.57.518.518,0,0,0,.4-.18l.6-.62a8.67,8.67,0,0,1,6.12-2.55h4.63a1.991,1.991,0,0,0,2-1.99V313.91A1.993,1.993,0,0,0,1525.19,311.91Zm-13.07,12a1,1,0,0,1,0-2h4.58a1,1,0,0,1,0,2Zm10.08-5h-10a1,1,0,0,1,0-2h10a1,1,0,0,1,0,2Z" transform="translate(-1505.2 -308.91)" fill="#006a87"/></svg>