<svg xmlns="http://www.w3.org/2000/svg" width="24" height="24" viewBox="0 0 24 24"><g transform="translate(-280 -5870)"><rect width="24" height="24" transform="translate(280 5870)" fill="none"/><g transform="translate(-1001.459 5617.669)"><path d="M1293.528,253.331c-5,0-9.061,1.438-9.061,3.214v2.638c0,1.78,4.054,3.215,9.061,3.215s9.061-1.439,9.061-3.215v-2.638C1302.589,254.769,1298.532,253.331,1293.528,253.331Z" fill="#006a87"/><path d="M1293.528,264.264c-4.778,0-8.717-1.313-9.061-2.977-.017.079,0,4.357,0,4.357,0,1.779,4.054,3.214,9.061,3.214s9.061-1.438,9.061-3.214c0,0,.01-4.278-.006-4.357C1302.238,262.951,1298.305,264.264,1293.528,264.264Z" fill="#006a87"/><path d="M1302.58,267.76c-.344,1.663-4.275,2.977-9.052,2.977s-8.718-1.313-9.062-2.977v4.356c0,1.78,4.054,3.215,9.061,3.215s9.061-1.439,9.061-3.215Z" fill="#006a87"/></g></g></svg>