<svg xmlns="http://www.w3.org/2000/svg" width="24" height="24" viewBox="0 0 24 24"><rect width="24" height="24" fill="none"/><g transform="translate(-1972.35 -292.94)"><path d="M1994.35,296.94v16a2,2,0,0,1-2,2h-16a2.006,2.006,0,0,1-2-2v-16a2,2,0,0,1,2-2h6v3h2v6.58l-2.29-2.29a1,1,0,0,0-1.41,1.41l2.3,2.3-2.3,2.29a1,1,0,0,0,0,1.41.978.978,0,0,0,1.41,0l2.29-2.29v5.59h8v-16h-6v-2h6A1.993,1.993,0,0,1,1994.35,296.94Z" fill="#006a87"/><path d="M1988.06,308.23a1,1,0,0,1,0,1.41.978.978,0,0,1-1.41,0l-2.29-2.29h-.01v-2.82h.01l2.29-2.3a1,1,0,0,1,1.41,1.41l-2.29,2.3Z" fill="#006a87"/></g></svg>