<svg xmlns="http://www.w3.org/2000/svg" width="24" height="24" viewBox="0 0 24 24"><rect width="24" height="24" fill="none"/><path d="M1574.55,309.59h-6v3h-4v-3h-6a1.993,1.993,0,0,0-2,2v16a2,2,0,0,0,2,2h16a2.006,2.006,0,0,0,2-2v-16A2,2,0,0,0,1574.55,309.59Zm-10.48,8.37a2.316,2.316,0,0,1,.71-1.66,2.414,2.414,0,0,1,3.41,0,2.414,2.414,0,0,1,0,3.4,2.389,2.389,0,0,1-1.71.71,2.424,2.424,0,0,1-2.41-2.41Zm6.16,7.17a1.8,1.8,0,0,1-1.27.46h-4.82a1.8,1.8,0,0,1-1.27-.46,1.687,1.687,0,0,1-.49-1.26,5.712,5.712,0,0,1,.02-.59,4.518,4.518,0,0,1,.08-.63c.04-.22.09-.43.15-.64a4.4,4.4,0,0,1,.26-.59,2.486,2.486,0,0,1,.4-.52,1.709,1.709,0,0,1,.56-.35,2.045,2.045,0,0,1,.73-.13.709.709,0,0,1,.39.16l.41.27a2.012,2.012,0,0,0,.52.23,2.033,2.033,0,0,0,1.29,0,1.933,1.933,0,0,0,.53-.23l.41-.26a.723.723,0,0,1,.39-.17,1.954,1.954,0,0,1,.72.13,1.625,1.625,0,0,1,.57.36,1.924,1.924,0,0,1,.39.51,2.783,2.783,0,0,1,.26.59,4.6,4.6,0,0,1,.16.64,4.518,4.518,0,0,1,.08.63,5.712,5.712,0,0,1,.02.59A1.687,1.687,0,0,1,1570.23,325.13Z" transform="translate(-1554.55 -307.59)" fill="#006a87"/></svg>