<svg xmlns="http://www.w3.org/2000/svg" width="24" height="24" viewBox="0 0 24 24"><g transform="translate(-1250 -5659)"><path d="M1909.68,294.73h-6v3h-4v-3h-6a2,2,0,0,0-2,1.99v16.01a1.993,1.993,0,0,0,2,2h16a2.006,2.006,0,0,0,2-2v-16A2.006,2.006,0,0,0,1909.68,294.73Zm-3.19,13.73a1.05,1.05,0,0,1-1.05,1.05h-2.45a4.533,4.533,0,0,0-3.22,1.35l-.32.32a.251.251,0,0,1-.21.1.3.3,0,0,1-.3-.3v-1.46H1897a1.05,1.05,0,0,1-1.05-1.05v-6.69a1.059,1.059,0,0,1,1.06-1.05h8.43a1.044,1.044,0,0,1,1.05,1.05Z" transform="translate(-639.68 5366.27)" fill="#006a87"/><rect width="24" height="24" transform="translate(1250 5659)" fill="none"/></g></svg>