<svg xmlns="http://www.w3.org/2000/svg" width="24" height="24" viewBox="0 0 24 24"><rect width="24" height="24" fill="none"/><path d="M1753.152,307.37h-6v3h-4v-3h-6a1.993,1.993,0,0,0-2,2v16a2,2,0,0,0,2,2h16a2.006,2.006,0,0,0,2-2v-16A2,2,0,0,0,1753.152,307.37Zm-7.25,16.4h-3.94a1,1,0,0,1,0-2h3.94a2.06,2.06,0,1,0,0-4.12h-.94v1.28a.408.408,0,0,1-.62.35l-3.8-2.28a.412.412,0,0,1,0-.7l3.8-2.28a.408.408,0,0,1,.62.35v1.28h.94a4.06,4.06,0,1,1,0,8.12Z" transform="translate(-1733.152 -305.37)" fill="#006a87"/></svg>