<svg xmlns="http://www.w3.org/2000/svg" width="24" height="24" viewBox="0 0 24 24"><rect width="24" height="24" fill="none"/><g transform="translate(-1383.75 -437.641)"><path d="M1406.75,445.93v1.58h-22v-1.58a2.42,2.42,0,0,1,2.4-2.42h17.185A2.41,2.41,0,0,1,1406.75,445.93Z" transform="translate(0 -1.869)" fill="#006a87"/><path d="M1384.75,444.29v8.58a2.42,2.42,0,0,0,2.4,2.42h17.185a2.41,2.41,0,0,0,2.42-2.42v-8.58Zm6.355,7.138a1.263,1.263,0,0,1-1.3,1.247h-1.247a1.285,1.285,0,0,1-1.247-1.247v-1.222a1.252,1.252,0,0,1,1.247-1.247h1.271a1.241,1.241,0,0,1,1.271,1.247Z" transform="translate(0 3.351)" fill="#006a87"/></g></svg>