<svg xmlns="http://www.w3.org/2000/svg" width="24" height="24" viewBox="0 0 24 24"><rect width="24" height="24" fill="none"/><path d="M1695.44,303.26h-15.98a1.993,1.993,0,0,0-2,2v12.66a1.982,1.982,0,0,0,2,1.98h3.66v2.79a.583.583,0,0,0,.57.57.528.528,0,0,0,.4-.19l.6-.61a8.679,8.679,0,0,1,6.12-2.56h4.66a1.967,1.967,0,0,0,1.97-1.97V305.26A1.993,1.993,0,0,0,1695.44,303.26Zm-3.28,11.69a1.008,1.008,0,0,1,0,1.42,1.014,1.014,0,0,1-1.42,0l-3.29-3.3-3.29,3.3a1.014,1.014,0,0,1-1.42,0,1.008,1.008,0,0,1,0-1.42l3.3-3.29-3.3-3.29a1,1,0,0,1,1.42-1.42l3.29,3.3,3.29-3.3a1,1,0,0,1,1.42,1.42l-3.3,3.29Z" transform="translate(-1675.45 -301.26)" fill="#006a87"/></svg>