<svg xmlns="http://www.w3.org/2000/svg" width="24" height="24" viewBox="0 0 24 24"><rect width="24" height="24" fill="none"/><g transform="translate(-1818.23 -326.76)"><path d="M1835.23,340.28a4.065,4.065,0,0,1-4.06,4.07h-.94v-2h.93a2.06,2.06,0,1,0,.01-4.12h-.94v-2h.93A4.057,4.057,0,0,1,1835.23,340.28Z" fill="#006a87"/><path d="M1830.23,342.35h-3.01a1,1,0,0,0,0,2h3.01v2.41h8v-16h-6v-2h6a1.982,1.982,0,0,1,2,1.98v16.02a2,2,0,0,1-2,2h-16a2.012,2.012,0,0,1-2-2v-16a2,2,0,0,1,2-2h6v3h2l-.01,3.19a.429.429,0,0,0-.06-.22.4.4,0,0,0-.56-.13l-3.8,2.28a.4.4,0,0,0-.13.13.418.418,0,0,0,.13.57l3.8,2.28a.428.428,0,0,0,.22.06.41.41,0,0,0,.4-.41" fill="#006a87"/></g></svg>