<svg xmlns="http://www.w3.org/2000/svg" width="24" height="24" viewBox="0 0 24 24"><rect width="24" height="24" fill="none"/><path d="M1720.08,301.37h-15.99a2.012,2.012,0,0,0-2,2v12.66a2,2,0,0,0,2,1.99h3.67v2.78a.574.574,0,0,0,.56.57.5.5,0,0,0,.4-.19l.6-.61a8.753,8.753,0,0,1,6.13-2.55h4.66a1.974,1.974,0,0,0,1.97-1.97V303.37A2,2,0,0,0,1720.08,301.37Zm-7.25,13.23h-3.94a1,1,0,0,1,0-2h3.94a2.06,2.06,0,1,0,0-4.12h-.94v1.28a.408.408,0,0,1-.62.35l-3.8-2.28a.412.412,0,0,1,0-.7l3.8-2.28a.408.408,0,0,1,.62.35v1.28h.94a4.06,4.06,0,1,1,0,8.12Z" transform="translate(-1700.085 -299.37)" fill="#006a87"/></svg>