<svg xmlns="http://www.w3.org/2000/svg" width="24" height="24" viewBox="0 0 24 24"><rect width="24" height="24" fill="none"/><path d="M1557.8,308.719h-6v3h-4v-3h-6a1.993,1.993,0,0,0-2,2v16a2,2,0,0,0,2,2h16a2.006,2.006,0,0,0,2-2v-16A2,2,0,0,0,1557.8,308.719Zm-3.91,11.77a2.814,2.814,0,0,1-.66,1.7,6.753,6.753,0,0,1-1.36,1.31,14.806,14.806,0,0,1-1.95,1.17.211.211,0,0,1-.13.05.269.269,0,0,1-.11-.05,12.433,12.433,0,0,1-1.95-1.17,7.968,7.968,0,0,1-1.36-1.3v-.01a2.613,2.613,0,0,1-.24-.34,2.854,2.854,0,0,1-.42-1.36v-4.32a.27.27,0,0,1,.21-.28l3.79-1.17h.17l3.81,1.17a.271.271,0,0,1,.2.28Z" transform="translate(-1537.8 -306.719)" fill="#006a87"/></svg>