<svg xmlns="http://www.w3.org/2000/svg" width="24" height="24" viewBox="0 0 24 24"><g transform="translate(-654 -5662)"><path d="M1877.94,291.4h-6v3h-4v-3h-6a1.993,1.993,0,0,0-2,2v16a2,2,0,0,0,2,2h16a2.006,2.006,0,0,0,2-2v-16A2,2,0,0,0,1877.94,291.4Zm-3.62,14.4a1.189,1.189,0,0,1,0,1.69,1.163,1.163,0,0,1-.85.35,1.2,1.2,0,0,1-.85-.35l-2.68-2.68-2.69,2.68a1.2,1.2,0,0,1-1.7-1.69l2.69-2.69-2.69-2.69a1.189,1.189,0,0,1,0-1.69,1.2,1.2,0,0,1,1.7,0l2.69,2.69,2.68-2.69a1.2,1.2,0,0,1,1.7,0,1.189,1.189,0,0,1,0,1.69l-2.69,2.69Z" transform="translate(-1203.94 5372.6)" fill="#006a87"/><rect width="24" height="24" transform="translate(654 5662)" fill="none"/></g></svg>