<svg xmlns="http://www.w3.org/2000/svg" width="0" height="0">
    <defs>
        <symbol id="order-payment" viewBox="0 0 24 24">
            <g transform="translate(-1383.75 -437.641)"><path d="M1406.75,445.93v1.58h-22v-1.58a2.42,2.42,0,0,1,2.4-2.42h17.185A2.41,2.41,0,0,1,1406.75,445.93Z" transform="translate(0 -1.869)" fill="currentColor"/><path d="M1384.75,444.29v8.58a2.42,2.42,0,0,0,2.4,2.42h17.185a2.41,2.41,0,0,0,2.42-2.42v-8.58Zm6.355,7.138a1.263,1.263,0,0,1-1.3,1.247h-1.247a1.285,1.285,0,0,1-1.247-1.247v-1.222a1.252,1.252,0,0,1,1.247-1.247h1.271a1.241,1.241,0,0,1,1.271,1.247Z" transform="translate(0 3.351)" fill="currentColor"/></g>
        </symbol>
        <symbol id="blog-comment" viewBox="0 0 24 24">
            <path d="M1525.19,311.91h-15.98a1.993,1.993,0,0,0-2,2v12.66a1.991,1.991,0,0,0,2,1.99h3.66v2.78a.57.57,0,0,0,.57.57.518.518,0,0,0,.4-.18l.6-.62a8.67,8.67,0,0,1,6.12-2.55h4.63a1.991,1.991,0,0,0,2-1.99V313.91A1.993,1.993,0,0,0,1525.19,311.91Zm-13.07,12a1,1,0,0,1,0-2h4.58a1,1,0,0,1,0,2Zm10.08-5h-10a1,1,0,0,1,0-2h10a1,1,0,0,1,0,2Z" transform="translate(-1505.2 -308.91)" fill="currentColor"/>
        </symbol>
        <symbol id="gdpr-data-request" viewBox="0 0 24 24">
            <g transform="translate(-280 -5870)">
                <g transform="translate(-1001.459 5617.669)">
                    <path d="M1293.528,253.331c-5,0-9.061,1.438-9.061,3.214v2.638c0,1.78,4.054,3.215,9.061,3.215s9.061-1.439,9.061-3.215v-2.638C1302.589,254.769,1298.532,253.331,1293.528,253.331Z" fill="currentColor"/>
                    <path d="M1293.528,264.264c-4.778,0-8.717-1.313-9.061-2.977-.017.079,0,4.357,0,4.357,0,1.779,4.054,3.214,9.061,3.214s9.061-1.438,9.061-3.214c0,0,.01-4.278-.006-4.357C1302.238,262.951,1298.305,264.264,1293.528,264.264Z" fill="currentColor"/>
                    <path d="M1302.58,267.76c-.344,1.663-4.275,2.977-9.052,2.977s-8.718-1.313-9.062-2.977v4.356c0,1.78,4.054,3.215,9.061,3.215s9.061-1.439,9.061-3.215Z" fill="currentColor"/>
                </g>
            </g>
        </symbol>
        <symbol id="gdpr-delete-request" viewBox="0 0 24 24">
            <g transform="translate(-381 -5880)">
                <g transform="translate(-921.92 5629.363)">
                    <path d="M1307.144,271.193a2.444,2.444,0,0,0,2.444,2.444h9.777a2.444,2.444,0,0,0,2.444-2.444V256.524h-14.665Z" fill="currentColor"/>
                    <path d="M1318.752,252.861l-1.22-1.224h-6.112l-1.224,1.224h-4.276v2.445h17.112v-2.445Z" fill="currentColor"/>
                </g>
            </g>
        </symbol>
        <symbol id="newsletter-subscription" viewBox="0 0 24 24">
            <path d="M1901.95,346.19l-8.854-6.2a2,2,0,0,0-2.292,0l-8.854,6.207v10.98a2.01,2.01,0,0,0,2.01,2.01h15.98a2.01,2.01,0,0,0,2.01-2.01V346.2l-.07.04Zm-10,6-7-4.2v-2.95h14V348Z" transform="translate(-1879.95 -337.19)" fill="currentColor"/>

        </symbol>
        <symbol id="order-by-admin" viewBox="0 0 24 24">
            <path d="M1557.8,308.719h-6v3h-4v-3h-6a1.993,1.993,0,0,0-2,2v16a2,2,0,0,0,2,2h16a2.006,2.006,0,0,0,2-2v-16A2,2,0,0,0,1557.8,308.719Zm-3.91,11.77a2.814,2.814,0,0,1-.66,1.7,6.753,6.753,0,0,1-1.36,1.31,14.806,14.806,0,0,1-1.95,1.17.211.211,0,0,1-.13.05.269.269,0,0,1-.11-.05,12.433,12.433,0,0,1-1.95-1.17,7.968,7.968,0,0,1-1.36-1.3v-.01a2.613,2.613,0,0,1-.24-.34,2.854,2.854,0,0,1-.42-1.36v-4.32a.27.27,0,0,1,.21-.28l3.79-1.17h.17l3.81,1.17a.271.271,0,0,1,.2.28Z" transform="translate(-1537.8 -306.719)" fill="currentColor"/>

        </symbol>
        <symbol id="order-by-user" viewBox="0 0 24 24">
            <path d="M1574.55,309.59h-6v3h-4v-3h-6a1.993,1.993,0,0,0-2,2v16a2,2,0,0,0,2,2h16a2.006,2.006,0,0,0,2-2v-16A2,2,0,0,0,1574.55,309.59Zm-10.48,8.37a2.316,2.316,0,0,1,.71-1.66,2.414,2.414,0,0,1,3.41,0,2.414,2.414,0,0,1,0,3.4,2.389,2.389,0,0,1-1.71.71,2.424,2.424,0,0,1-2.41-2.41Zm6.16,7.17a1.8,1.8,0,0,1-1.27.46h-4.82a1.8,1.8,0,0,1-1.27-.46,1.687,1.687,0,0,1-.49-1.26,5.712,5.712,0,0,1,.02-.59,4.518,4.518,0,0,1,.08-.63c.04-.22.09-.43.15-.64a4.4,4.4,0,0,1,.26-.59,2.486,2.486,0,0,1,.4-.52,1.709,1.709,0,0,1,.56-.35,2.045,2.045,0,0,1,.73-.13.709.709,0,0,1,.39.16l.41.27a2.012,2.012,0,0,0,.52.23,2.033,2.033,0,0,0,1.29,0,1.933,1.933,0,0,0,.53-.23l.41-.26a.723.723,0,0,1,.39-.17,1.954,1.954,0,0,1,.72.13,1.625,1.625,0,0,1,.57.36,1.924,1.924,0,0,1,.39.51,2.783,2.783,0,0,1,.26.59,4.6,4.6,0,0,1,.16.64,4.518,4.518,0,0,1,.08.63,5.712,5.712,0,0,1,.02.59A1.687,1.687,0,0,1,1570.23,325.13Z" transform="translate(-1554.55 -307.59)" fill="currentColor"/>

        </symbol>
        <symbol id="order-cancel-comment" viewBox="0 0 24 24">
            <path d="M1695.44,303.26h-15.98a1.993,1.993,0,0,0-2,2v12.66a1.982,1.982,0,0,0,2,1.98h3.66v2.79a.583.583,0,0,0,.57.57.528.528,0,0,0,.4-.19l.6-.61a8.679,8.679,0,0,1,6.12-2.56h4.66a1.967,1.967,0,0,0,1.97-1.97V305.26A1.993,1.993,0,0,0,1695.44,303.26Zm-3.28,11.69a1.008,1.008,0,0,1,0,1.42,1.014,1.014,0,0,1-1.42,0l-3.29-3.3-3.29,3.3a1.014,1.014,0,0,1-1.42,0,1.008,1.008,0,0,1,0-1.42l3.3-3.29-3.3-3.29a1,1,0,0,1,1.42-1.42l3.29,3.3,3.29-3.3a1,1,0,0,1,1.42,1.42l-3.3,3.29Z" transform="translate(-1675.45 -301.26)" fill="currentColor"/>

        </symbol>
        <symbol id="order-cancellation" viewBox="0 0 24 24">
            <g transform="translate(-654 -5662)">
                <path d="M1877.94,291.4h-6v3h-4v-3h-6a1.993,1.993,0,0,0-2,2v16a2,2,0,0,0,2,2h16a2.006,2.006,0,0,0,2-2v-16A2,2,0,0,0,1877.94,291.4Zm-3.62,14.4a1.189,1.189,0,0,1,0,1.69,1.163,1.163,0,0,1-.85.35,1.2,1.2,0,0,1-.85-.35l-2.68-2.68-2.69,2.68a1.2,1.2,0,0,1-1.7-1.69l2.69-2.69-2.69-2.69a1.189,1.189,0,0,1,0-1.69,1.2,1.2,0,0,1,1.7,0l2.69,2.69,2.68-2.69a1.2,1.2,0,0,1,1.7,0,1.189,1.189,0,0,1,0,1.69l-2.69,2.69Z" transform="translate(-1203.94 5372.6)" fill="currentColor"/>
            </g>
        </symbol>
        <symbol id="order-comment" viewBox="0 0 24 24">
            <g transform="translate(-1250 -5659)">
                <path d="M1909.68,294.73h-6v3h-4v-3h-6a2,2,0,0,0-2,1.99v16.01a1.993,1.993,0,0,0,2,2h16a2.006,2.006,0,0,0,2-2v-16A2.006,2.006,0,0,0,1909.68,294.73Zm-3.19,13.73a1.05,1.05,0,0,1-1.05,1.05h-2.45a4.533,4.533,0,0,0-3.22,1.35l-.32.32a.251.251,0,0,1-.21.1.3.3,0,0,1-.3-.3v-1.46H1897a1.05,1.05,0,0,1-1.05-1.05v-6.69a1.059,1.059,0,0,1,1.06-1.05h8.43a1.044,1.044,0,0,1,1.05,1.05Z" transform="translate(-639.68 5366.27)" fill="currentColor"/>

            </g>
        </symbol>
        <symbol id="order-partial-cancellation" viewBox="0 0 24 24">
            <g transform="translate(-1972.35 -292.94)">
                <path d="M1994.35,296.94v16a2,2,0,0,1-2,2h-16a2.006,2.006,0,0,1-2-2v-16a2,2,0,0,1,2-2h6v3h2v6.58l-2.29-2.29a1,1,0,0,0-1.41,1.41l2.3,2.3-2.3,2.29a1,1,0,0,0,0,1.41.978.978,0,0,0,1.41,0l2.29-2.29v5.59h8v-16h-6v-2h6A1.993,1.993,0,0,1,1994.35,296.94Z" fill="currentColor"/>
                <path d="M1988.06,308.23a1,1,0,0,1,0,1.41.978.978,0,0,1-1.41,0l-2.29-2.29h-.01v-2.82h.01l2.29-2.3a1,1,0,0,1,1.41,1.41l-2.29,2.3Z" fill="currentColor"/>
            </g>
        </symbol>
        <symbol id="order-partial-return" viewBox="0 0 24 24">
            <g transform="translate(-1818.23 -326.76)">
                <path d="M1835.23,340.28a4.065,4.065,0,0,1-4.06,4.07h-.94v-2h.93a2.06,2.06,0,1,0,.01-4.12h-.94v-2h.93A4.057,4.057,0,0,1,1835.23,340.28Z" fill="currentColor"/>
                <path d="M1830.23,342.35h-3.01a1,1,0,0,0,0,2h3.01v2.41h8v-16h-6v-2h6a1.982,1.982,0,0,1,2,1.98v16.02a2,2,0,0,1-2,2h-16a2.012,2.012,0,0,1-2-2v-16a2,2,0,0,1,2-2h6v3h2l-.01,3.19a.429.429,0,0,0-.06-.22.4.4,0,0,0-.56-.13l-3.8,2.28a.4.4,0,0,0-.13.13.418.418,0,0,0,.13.57l3.8,2.28a.428.428,0,0,0,.22.06.41.41,0,0,0,.4-.41" fill="currentColor"/>
            </g>
        </symbol>
        <symbol id="order-return" viewBox="0 0 24 24">
            <path d="M1753.152,307.37h-6v3h-4v-3h-6a1.993,1.993,0,0,0-2,2v16a2,2,0,0,0,2,2h16a2.006,2.006,0,0,0,2-2v-16A2,2,0,0,0,1753.152,307.37Zm-7.25,16.4h-3.94a1,1,0,0,1,0-2h3.94a2.06,2.06,0,1,0,0-4.12h-.94v1.28a.408.408,0,0,1-.62.35l-3.8-2.28a.412.412,0,0,1,0-.7l3.8-2.28a.408.408,0,0,1,.62.35v1.28h.94a4.06,4.06,0,1,1,0,8.12Z" transform="translate(-1733.152 -305.37)" fill="currentColor"/>

        </symbol>
        <symbol id="order-review" viewBox="0 0 24 24">
            <path d="M1786.227,296.261l2.386,4.831a1.076,1.076,0,0,0,.812.589l5.328.771a1.077,1.077,0,0,1,.6,1.838l-3.856,3.759a1.08,1.08,0,0,0-.309.955l.912,5.309a1.078,1.078,0,0,1-1.564,1.137l-4.77-2.508a1.083,1.083,0,0,0-1,0l-4.769,2.508a1.078,1.078,0,0,1-1.564-1.137l.912-5.309a1.077,1.077,0,0,0-.31-.955l-3.856-3.759a1.078,1.078,0,0,1,.6-1.838l5.328-.771a1.078,1.078,0,0,0,.812-.589l2.385-4.831A1.077,1.077,0,0,1,1786.227,296.261Z" transform="translate(-1773.262 -293.66)" fill="currentColor"/>

        </symbol>
        <symbol id="to-do-reminder" viewBox="0 0 24 24">
            <g transform="translate(-1815.75 -293.352)">
                <path d="M1832.433,300.042h0a1.172,1.172,0,0,0,1.173-1.171v-2.344a1.172,1.172,0,0,0-2.344,0v2.344A1.171,1.171,0,0,0,1832.433,300.042Z" fill="currentColor"/>
                <path d="M1823.059,300.042h0a1.172,1.172,0,0,0,1.173-1.171v-2.344a1.173,1.173,0,0,0-2.345,0v2.344A1.172,1.172,0,0,0,1823.059,300.042Z" fill="currentColor"/>
                <path d="M1835.61,297.69h-.83v1.17a2.341,2.341,0,0,1-4.68.1v-1.27h-4.69v1.17a2.345,2.345,0,0,1-4.69,0v-1.17h-.82a2.145,2.145,0,0,0-2.15,2.14v13.38a2.132,2.132,0,0,0,2.15,2.14h15.7a2.147,2.147,0,0,0,2.15-2.15V299.84A2.157,2.157,0,0,0,1835.61,297.69Zm-2.91,8.13-5.66,5.66a1.025,1.025,0,0,1-.71.29,1,1,0,0,1-.7-.29l-2.83-2.83a1,1,0,0,1,1.41-1.41l2.12,2.12,4.95-4.95a1.008,1.008,0,0,1,1.42,0A1,1,0,0,1,1832.7,305.82Z" fill="currentColor"/>
            </g>
        </symbol>
        <symbol id="user-registration" viewBox="0 0 24 24">
            <g transform="translate(-2307.46 994.6)">
                <path d="M2326.46-992.6h-14a3,3,0,0,0-3,3v14a3,3,0,0,0,3,3h14a3.009,3.009,0,0,0,3-3v-14A3,3,0,0,0,2326.46-992.6Zm-9.12,4.84a2.891,2.891,0,0,1,4.09,0,2.819,2.819,0,0,1,.85,2.04,2.825,2.825,0,0,1-.85,2.05,2.819,2.819,0,0,1-2.04.85,2.825,2.825,0,0,1-2.05-.85,2.816,2.816,0,0,1-.84-2.05A2.81,2.81,0,0,1,2317.34-987.76Zm6.54,10.6a2.168,2.168,0,0,1-1.53.56h-5.78a2.152,2.152,0,0,1-1.53-.56,1.981,1.981,0,0,1-.59-1.51c0-.24.01-.48.02-.71.02-.25.06-.51.1-.76a7.027,7.027,0,0,1,.19-.76,3.723,3.723,0,0,1,.31-.71,3.161,3.161,0,0,1,.47-.62,2.09,2.09,0,0,1,.68-.42,2.355,2.355,0,0,1,.87-.16.9.9,0,0,1,.47.2c.14.09.31.2.49.32a2.953,2.953,0,0,0,.63.28,2.562,2.562,0,0,0,1.55,0,3.039,3.039,0,0,0,.64-.28c.18-.12.34-.23.48-.32a.937.937,0,0,1,.47-.2,2.353,2.353,0,0,1,.87.16,2.093,2.093,0,0,1,.68.42,2.542,2.542,0,0,1,.47.62,3.763,3.763,0,0,1,.32.71,6.965,6.965,0,0,1,.18.76,6.638,6.638,0,0,1,.1.76c.02.23.03.47.03.71A2.018,2.018,0,0,1,2323.88-977.16Z" fill="currentColor"/>
            </g>
        </symbol>
    </defs>
</svg>
