<svg xmlns="http://www.w3.org/2000/svg" width="24" height="24" viewBox="0 0 24 24"><rect width="24" height="24" fill="none"/><g transform="translate(-1815.75 -293.352)"><path d="M1832.433,300.042h0a1.172,1.172,0,0,0,1.173-1.171v-2.344a1.172,1.172,0,0,0-2.344,0v2.344A1.171,1.171,0,0,0,1832.433,300.042Z" fill="#006a87"/><path d="M1823.059,300.042h0a1.172,1.172,0,0,0,1.173-1.171v-2.344a1.173,1.173,0,0,0-2.345,0v2.344A1.172,1.172,0,0,0,1823.059,300.042Z" fill="#006a87"/><path d="M1835.61,297.69h-.83v1.17a2.341,2.341,0,0,1-4.68.1v-1.27h-4.69v1.17a2.345,2.345,0,0,1-4.69,0v-1.17h-.82a2.145,2.145,0,0,0-2.15,2.14v13.38a2.132,2.132,0,0,0,2.15,2.14h15.7a2.147,2.147,0,0,0,2.15-2.15V299.84A2.157,2.157,0,0,0,1835.61,297.69Zm-2.91,8.13-5.66,5.66a1.025,1.025,0,0,1-.71.29,1,1,0,0,1-.7-.29l-2.83-2.83a1,1,0,0,1,1.41-1.41l2.12,2.12,4.95-4.95a1.008,1.008,0,0,1,1.42,0A1,1,0,0,1,1832.7,305.82Z" fill="#006a87"/></g></svg>