<svg xmlns="http://www.w3.org/2000/svg" width="24" height="24" viewBox="0 0 24 24"><rect width="24" height="24" fill="none"/><g transform="translate(-2307.46 994.6)"><path d="M2326.46-992.6h-14a3,3,0,0,0-3,3v14a3,3,0,0,0,3,3h14a3.009,3.009,0,0,0,3-3v-14A3,3,0,0,0,2326.46-992.6Zm-9.12,4.84a2.891,2.891,0,0,1,4.09,0,2.819,2.819,0,0,1,.85,2.04,2.825,2.825,0,0,1-.85,2.05,2.819,2.819,0,0,1-2.04.85,2.825,2.825,0,0,1-2.05-.85,2.816,2.816,0,0,1-.84-2.05A2.81,2.81,0,0,1,2317.34-987.76Zm6.54,10.6a2.168,2.168,0,0,1-1.53.56h-5.78a2.152,2.152,0,0,1-1.53-.56,1.981,1.981,0,0,1-.59-1.51c0-.24.01-.48.02-.71.02-.25.06-.51.1-.76a7.027,7.027,0,0,1,.19-.76,3.723,3.723,0,0,1,.31-.71,3.161,3.161,0,0,1,.47-.62,2.09,2.09,0,0,1,.68-.42,2.355,2.355,0,0,1,.87-.16.9.9,0,0,1,.47.2c.14.09.31.2.49.32a2.953,2.953,0,0,0,.63.28,2.562,2.562,0,0,0,1.55,0,3.039,3.039,0,0,0,.64-.28c.18-.12.34-.23.48-.32a.937.937,0,0,1,.47-.2,2.353,2.353,0,0,1,.87.16,2.093,2.093,0,0,1,.68.42,2.542,2.542,0,0,1,.47.62,3.763,3.763,0,0,1,.32.71,6.965,6.965,0,0,1,.18.76,6.638,6.638,0,0,1,.1.76c.02.23.03.47.03.71A2.018,2.018,0,0,1,2323.88-977.16Z" fill="#006a87"/></g></svg>