<svg xmlns="http://www.w3.org/2000/svg" width="48" height="48" viewBox="0 0 48 48">    
    <g transform="translate(0 -0.165)">
        <path class="b" fill="none" stroke="#000" stroke-width="2.2px" d="M-4979.93,404v21h-12.5v-15.75h-11V425h-12.5V404" transform="translate(5021.93 -380.839)"/>
        <path class="b" fill="none" stroke="#000" stroke-width="2.2px" d="M-4976.677,395.444v5.17a3.484,3.484,0,0,1-1.031,2.48,3.474,3.474,0,0,1-2.469,1.02,3.5,3.5,0,0,1-2.48-1.02,3.512,3.512,0,0,1-1.02-2.48,3.484,3.484,0,0,1-1.031,2.48,3.474,3.474,0,0,1-2.469,1.02,3.5,3.5,0,0,1-2.48-1.02,3.512,3.512,0,0,1-1.02-2.48,3.484,3.484,0,0,1-1.031,2.48,3.474,3.474,0,0,1-2.469,1.02,3.5,3.5,0,0,1-2.48-1.02,3.512,3.512,0,0,1-1.02-2.48,3.484,3.484,0,0,1-1.031,2.48,3.474,3.474,0,0,1-2.469,1.02,3.5,3.5,0,0,1-2.48-1.02,3.512,3.512,0,0,1-1.02-2.48,3.484,3.484,0,0,1-1.031,2.48,3.474,3.474,0,0,1-2.469,1.02,3.5,3.5,0,0,1-2.48-1.02,3.512,3.512,0,0,1-1.02-2.48,3.484,3.484,0,0,1-1.031,2.48,3.474,3.474,0,0,1-2.469,1.02,3.491,3.491,0,0,1-3.5-3.5v-5.17l3.94-10h34.02l3.939,10Z" transform="translate(5021.676 -381.114)"/>
    </g>
</svg>