<?xml version="1.0" encoding="utf-8"?>
<!-- Generator: Adobe Illustrator 24.1.3, SVG Export Plug-In . SVG Version: 6.00 Build 0)  -->
<svg version="1.1" id="Layer_1"
	xmlns="http://www.w3.org/2000/svg"
	xmlns:xlink="http://www.w3.org/1999/xlink" x="0px" y="0px" width="20px" height="20px" viewBox="0 0 20 20" enable-background="new 0 0 20 20" xml:space="preserve">
	<g>
		<g>
			<path fill="#010101" d="M14.7,20H5.3C4.6,20,4,19.4,4,18.7V1.3C4,0.6,4.6,0,5.3,0h9.3C15.4,0,16,0.6,16,1.3v17.3
			C16,19.4,15.4,20,14.7,20z M5,1.7l0,16.6C5,18.7,5.3,19,5.7,19l8.6,0c0.4,0,0.7-0.3,0.7-0.7l0-16.6C15,1.3,14.7,1,14.3,1L5.7,1
			C5.3,1,5,1.3,5,1.7z"/>
		</g>
		<path fill="#010101" d="M10,17L10,17c-0.6,0-1-0.4-1-1v0c0-0.6,0.4-1,1-1h0c0.6,0,1,0.4,1,1v0C11,16.6,10.6,17,10,17z"/>
	</g>
</svg>
