<svg xmlns="http://www.w3.org/2000/svg" width="48" height="48" viewBox="0 0 48 48">    
    <g transform="translate(-13.447 2.5)">
        <g transform="translate(17.756)">
            <path d="M52.988,17.775h-.106V15.167a15.167,15.167,0,0,0-30.334,0v2.608h-.639a4.334,4.334,0,0,0-4.151,4.47V28.9a4.2,4.2,0,0,0,4.1,4.31h3.993a1.011,1.011,0,0,0,.962-1.058c0-.02,0-.04,0-.06V19.052c0-.639-.373-1.277-.958-1.277H24.676V15.167a13.038,13.038,0,1,1,26.077,0v2.608H49.582c-.585,0-.958.639-.958,1.277V32.09a1.011,1.011,0,0,0,.9,1.113l.06,0h1.224l-.106.16a8.408,8.408,0,0,1-6.759,3.353A5.269,5.269,0,0,0,33.51,37.731,5.322,5.322,0,0,0,38.832,43a5.481,5.481,0,0,0,3.832-1.65A4.683,4.683,0,0,0,43.941,38.8a10.537,10.537,0,0,0,8.462-4.2l1.011-1.49c2.288-.16,3.725-1.6,3.725-3.672V22.777C57.139,20.489,55.436,17.775,52.988,17.775Zm-28.312,13.3H21.909a2.075,2.075,0,0,1-2.024-2.125c0-.019,0-.038,0-.057V22.245A2.207,2.207,0,0,1,21.909,19.9h2.767ZM41.121,39.86a3.14,3.14,0,0,1-2.288,1.011,3.246,3.246,0,0,1-3.193-3.14,3.14,3.14,0,1,1,6.28,0v0A2.821,2.821,0,0,1,41.121,39.86ZM55.01,29.43c0,1.437-1.384,1.65-2.022,1.65H50.753V19.9h2.235c1.171,0,2.022,1.65,2.022,2.874Z" transform="translate(-17.756)"/>
        </g>
    </g>
</svg>