<svg xmlns="http://www.w3.org/2000/svg" width="0" height="0">
    <defs>  
        <symbol id="restore-bar-close"  viewBox="0 0 28 28">
          <g id="close-restore-bar" transform="translate(-748 -4640)">
                <rect id="Rectangle_3363" data-name="Rectangle 3363" width="28" height="28" transform="translate(748 4640)" fill="none"/>
                <path id="Path_18288" data-name="Path 18288" d="M4971.222-2520.491l8.663-8.663a.749.749,0,0,0,0-1.061.75.75,0,0,0-1.061,0l-8.662,8.663-8.664-8.664a.749.749,0,0,0-1.06,0,.75.75,0,0,0,0,1.061l8.663,8.664-8.662,8.661a.75.75,0,0,0,0,1.061.749.749,0,0,0,.531.219.747.747,0,0,0,.53-.219l8.662-8.662,8.66,8.661a.751.751,0,0,0,.531.219.749.749,0,0,0,.53-.219.75.75,0,0,0,0-1.061Z" transform="translate(-4208.219 7174.436)"/>
            </g>
        </symbol>
        <symbol id="restore-bar-mobile"  viewBox="0 0 28 28">
                    <g id="moible" transform="translate(-622 -4804)">
                <rect id="Rectangle_3362" data-name="Rectangle 3362" width="28" height="28" transform="translate(622 4804)" fill="none"/>
                <g id="Group_11714" data-name="Group 11714" transform="translate(-4214.162 7338.241)">
                <path id="Path_18290" data-name="Path 18290" d="M4855.411-2533.241h-10.5a1.752,1.752,0,0,0-1.75,1.75v22a1.752,1.752,0,0,0,1.75,1.75h10.5a1.753,1.753,0,0,0,1.75-1.75v-22A1.752,1.752,0,0,0,4855.411-2533.241Zm.25,23.75a.251.251,0,0,1-.25.25h-10.5a.251.251,0,0,1-.25-.25v-22a.25.25,0,0,1,.25-.25h10.5a.25.25,0,0,1,.25.25Z"/>
                <path id="Path_18291" data-name="Path 18291" d="M4850.661-2511.241h-1a.75.75,0,0,0-.75.75.75.75,0,0,0,.75.75h1a.75.75,0,0,0,.75-.75A.75.75,0,0,0,4850.661-2511.241Z"/>
                </g>
            </g>
        </symbol>
        <symbol id="restore-bar-requestdemo"  viewBox="0 0 28 28">
            <g id="support" transform="translate(-401 -4794)">
                <rect id="Rectangle_3360" data-name="Rectangle 3360" width="28" height="28" transform="translate(401 4794)" fill="none"/>
                <path id="Path_18287" data-name="Path 18287" d="M4618.8-2522.333h-.34v-2.523a8.4,8.4,0,0,0-8.388-8.385,8.394,8.394,0,0,0-8.385,8.385v2.523h-.342a2.936,2.936,0,0,0-2.932,2.932v3.272a2.936,2.936,0,0,0,2.933,2.932h2.181a.75.75,0,0,0,.75-.75v-7.636a.75.75,0,0,0-.75-.75h-.34v-2.523a6.892,6.892,0,0,1,6.885-6.885,6.9,6.9,0,0,1,6.888,6.885v2.523h-.342a.75.75,0,0,0-.75.75v7.636a.75.75,0,0,0,.75.75h.215a2.519,2.519,0,0,1-2.4,1.773h-.451a2.928,2.928,0,0,0-2.822-2.182,2.936,2.936,0,0,0-2.933,2.932,2.937,2.937,0,0,0,2.933,2.933,2.928,2.928,0,0,0,2.822-2.183h.451a4.025,4.025,0,0,0,3.946-3.273h.417a2.935,2.935,0,0,0,2.931-2.932v-3.272A2.935,2.935,0,0,0,4618.8-2522.333Zm-16.023,7.636h-1.431a1.434,1.434,0,0,1-1.433-1.432v-3.272a1.435,1.435,0,0,1,1.433-1.432h1.431Zm8.387,5.456a1.435,1.435,0,0,1-1.433-1.433,1.435,1.435,0,0,1,1.433-1.432,1.434,1.434,0,0,1,1.432,1.432A1.435,1.435,0,0,1,4611.162-2509.241Zm9.067-6.888a1.433,1.433,0,0,1-1.431,1.432h-1.432v-6.136h1.432a1.434,1.434,0,0,1,1.431,1.432Z" transform="translate(-4195.411 7328.241)"/>
            </g>
        </symbol>
        <symbol id="restore-bar-desktop"  viewBox="0 0 28 28">
          <g id="monitor" transform="translate(-520 -4804)">
            <rect id="Rectangle_3361" data-name="Rectangle 3361" width="28" height="28" transform="translate(520 4804)" fill="none"/>
            <path id="Path_18289" data-name="Path 18289" d="M4741.161-2531.241h-22a1.752,1.752,0,0,0-1.75,1.75v15a1.752,1.752,0,0,0,1.75,1.75h10.25v2.5h-2.25a.75.75,0,0,0-.75.75.75.75,0,0,0,.75.75h6a.75.75,0,0,0,.75-.75.75.75,0,0,0-.75-.75h-2.25v-2.5h10.25a1.753,1.753,0,0,0,1.75-1.75v-15A1.752,1.752,0,0,0,4741.161-2531.241Zm.25,16.75a.251.251,0,0,1-.25.25h-22a.251.251,0,0,1-.25-.25v-15a.25.25,0,0,1,.25-.25h22a.25.25,0,0,1,.25.25Z" transform="translate(-4196.411 7338.241)" fill="#191919"/>
        </g>
        </symbol>
        <symbol id="restore-bar-arrow"  viewBox="0 0 100 100">
            <g>
                <path d="m67.41 45.41-2.82-2.82-14.59 14.58-14.59-14.58-2.82 2.82 17.41 17.42z"/>
            </g>
        </symbol>
        <symbol id="restore-bar-marketplace"  viewBox="0 0 28 28">
              <g id="shop" transform="translate(-273 -4804)">
                <rect id="Rectangle_3359" data-name="Rectangle 3359" width="28" height="28" transform="translate(273 4804)" fill="none"/>
                <path id="Path_18278" data-name="Path 18278" d="M4502.726-2526.625l-2.175-5.523a.751.751,0,0,0-.7-.475h-19.44a.752.752,0,0,0-.7.475l-2.252,5.715a.763.763,0,0,0-.052.275v2.953a2.752,2.752,0,0,0,1.714,2.544v11.547a.75.75,0,0,0,.75.75h7.144a.75.75,0,0,0,.75-.75v-8.25h4.786v8.25a.75.75,0,0,0,.75.75h7.143a.75.75,0,0,0,.75-.75v-11.546a2.725,2.725,0,0,0,.9-.595,2.76,2.76,0,0,0,.81-1.95v-2.953A.7.7,0,0,0,4502.726-2526.625Zm-8.671,16.761v-8.25a.75.75,0,0,0-.75-.75h-6.286a.75.75,0,0,0-.75.75v8.25h-5.644V-2520.5a2.74,2.74,0,0,0,1.476-.754c.019-.02.039-.04.057-.06.019.02.037.039.057.058a2.764,2.764,0,0,0,1.936.8h.017a2.75,2.75,0,0,0,1.933-.8c.019-.02.039-.04.057-.06.019.02.037.039.057.058a2.764,2.764,0,0,0,1.936.8h.017a2.75,2.75,0,0,0,1.933-.8c.019-.02.039-.04.057-.06.019.02.037.039.057.058a2.764,2.764,0,0,0,1.936.8h.015a2.751,2.751,0,0,0,1.935-.8c.019-.02.039-.04.057-.06.019.02.037.039.057.058a2.764,2.764,0,0,0,1.936.8h.017a2.75,2.75,0,0,0,1.933-.8c.019-.02.039-.04.057-.06.019.02.037.039.057.058a2.76,2.76,0,0,0,1.483.757v10.636Zm7.356-13.339a1.246,1.246,0,0,1-.37.885,1.225,1.225,0,0,1-.877.363h-.009a1.252,1.252,0,0,1-.879-.362,1.254,1.254,0,0,1-.365-.884v-.005a.75.75,0,0,0-.75-.749h0a.75.75,0,0,0-.749.75v0a1.246,1.246,0,0,1-.37.885,1.225,1.225,0,0,1-.877.363h-.009a1.252,1.252,0,0,1-.879-.362,1.254,1.254,0,0,1-.365-.884v-.005a.75.75,0,0,0-.75-.749h0a.75.75,0,0,0-.749.75v0a1.246,1.246,0,0,1-.37.885,1.228,1.228,0,0,1-.878.363h-.008a1.252,1.252,0,0,1-.879-.362,1.246,1.246,0,0,1-.365-.881v-.008a.75.75,0,0,0-.75-.749.75.75,0,0,0-.75.749v.008a1.251,1.251,0,0,1-.37.88,1.225,1.225,0,0,1-.877.363h-.009a1.252,1.252,0,0,1-.879-.362,1.254,1.254,0,0,1-.365-.884v-.005a.75.75,0,0,0-.75-.749h0a.75.75,0,0,0-.749.75v0a1.246,1.246,0,0,1-.37.885,1.225,1.225,0,0,1-.877.363h-.009a1.252,1.252,0,0,1-.879-.362,1.254,1.254,0,0,1-.365-.884v-.005a.75.75,0,0,0-.75-.749h0a.75.75,0,0,0-.749.75v0a1.246,1.246,0,0,1-.37.885,1.227,1.227,0,0,1-.876.363h0a1.251,1.251,0,0,1-1.25-1.25v-2.811l2.013-5.107h18.418l2.063,5.239.006.014Z" transform="translate(-4203.412 7338.623)"/>
            </g>
        </symbol>
        <symbol id="restore-bar-admin"  viewBox="0 0 28 28">
             <g id="dashboard" transform="translate(-149 -4802)">
                <rect id="Rectangle_3358" data-name="Rectangle 3358" width="28" height="28" transform="translate(149 4802)" fill="none"/>
                <g id="Group_11605" data-name="Group 11605" transform="translate(-4206.91 7336.036)">
                <g id="Rectangle_3348" data-name="Rectangle 3348">
                    <g id="Group_11706" data-name="Group 11706">
                    <path id="Path_18279" data-name="Path 18279" d="M4367.58-2533.036h-7.67a2.006,2.006,0,0,0-2,2v10.59a2.006,2.006,0,0,0,2,2h7.67a2.006,2.006,0,0,0,2-2v-10.59A2.006,2.006,0,0,0,4367.58-2533.036Zm.5,12.59a.508.508,0,0,1-.5.5h-7.67a.508.508,0,0,1-.5-.5v-10.59a.508.508,0,0,1,.5-.5h7.67a.508.508,0,0,1,.5.5Z" fill="none"/>
                    </g>
                    <g id="Group_11707" data-name="Group 11707">
                    <path id="Path_18280" data-name="Path 18280" d="M4367.58-2533.036h-7.67a2.006,2.006,0,0,0-2,2v10.59a2.006,2.006,0,0,0,2,2h7.67a2.006,2.006,0,0,0,2-2v-10.59A2.006,2.006,0,0,0,4367.58-2533.036Zm.5,12.59a.508.508,0,0,1-.5.5h-7.67a.508.508,0,0,1-.5-.5v-10.59a.508.508,0,0,1,.5-.5h7.67a.508.508,0,0,1,.5.5Z"/>
                    </g>
                </g>
                <g id="Rectangle_3351" data-name="Rectangle 3351">
                    <g id="Group_11708" data-name="Group 11708">
                    <path id="Path_18281" data-name="Path 18281" d="M4382.32-2521.126a2.011,2.011,0,0,0-.5-.82,2,2,0,0,0-1.41-.59h-7.67a2.006,2.006,0,0,0-2,2v10.59a2.006,2.006,0,0,0,2,2h7.67a1.955,1.955,0,0,0,1.41-.59,2.081,2.081,0,0,0,.5-.82,1.869,1.869,0,0,0,.09-.59v-10.59A1.868,1.868,0,0,0,4382.32-2521.126Zm-1.41,11.18a.5.5,0,0,1-.5.5h-7.67a.508.508,0,0,1-.5-.5v-10.59a.508.508,0,0,1,.5-.5h7.67a.5.5,0,0,1,.5.5Z" fill="none"/>
                    </g>
                    <g id="Group_11709" data-name="Group 11709">
                    <path id="Path_18282" data-name="Path 18282" d="M4382.32-2521.126a2.011,2.011,0,0,0-.5-.82,2,2,0,0,0-1.41-.59h-7.67a2.006,2.006,0,0,0-2,2v10.59a2.006,2.006,0,0,0,2,2h7.67a1.955,1.955,0,0,0,1.41-.59,2.081,2.081,0,0,0,.5-.82,1.869,1.869,0,0,0,.09-.59v-10.59A1.868,1.868,0,0,0,4382.32-2521.126Zm-1.41,11.18a.5.5,0,0,1-.5.5h-7.67a.508.508,0,0,1-.5-.5v-10.59a.508.508,0,0,1,.5-.5h7.67a.5.5,0,0,1,.5.5Z"/>
                    </g>
                </g>
                <g id="Rectangle_3349" data-name="Rectangle 3349">
                    <g id="Group_11710" data-name="Group 11710">
                    <path id="Path_18283" data-name="Path 18283" d="M4367.58-2517.286h-7.67a2.006,2.006,0,0,0-2,2v5.34a2.006,2.006,0,0,0,2,2h7.67a2.006,2.006,0,0,0,2-2v-5.34A2.006,2.006,0,0,0,4367.58-2517.286Zm.5,7.34a.508.508,0,0,1-.5.5h-7.67a.508.508,0,0,1-.5-.5v-5.34a.508.508,0,0,1,.5-.5h7.67a.508.508,0,0,1,.5.5Z" fill="none"/>
                    </g>
                    <g id="Group_11711" data-name="Group 11711">
                    <path id="Path_18284" data-name="Path 18284" d="M4367.58-2517.286h-7.67a2.006,2.006,0,0,0-2,2v5.34a2.006,2.006,0,0,0,2,2h7.67a2.006,2.006,0,0,0,2-2v-5.34A2.006,2.006,0,0,0,4367.58-2517.286Zm.5,7.34a.508.508,0,0,1-.5.5h-7.67a.508.508,0,0,1-.5-.5v-5.34a.508.508,0,0,1,.5-.5h7.67a.508.508,0,0,1,.5.5Z"/>
                    </g>
                </g>
                <g id="Rectangle_3350" data-name="Rectangle 3350">
                    <g id="Group_11712" data-name="Group 11712">
                    <path id="Path_18285" data-name="Path 18285" d="M4382.4-2531.146a.5.5,0,0,0-.01-.12.6.6,0,0,0-.02-.14,1.446,1.446,0,0,0-.05-.22,1.942,1.942,0,0,0-.15-.36.6.6,0,0,1-.06-.11l-.15-.21a1.764,1.764,0,0,0-.14-.14,2,2,0,0,0-1.41-.59h-7.67a2.006,2.006,0,0,0-2,2v5.34a2.006,2.006,0,0,0,2,2h7.67a2,2,0,0,0,1.41-.59l.14-.14.15-.21a.613.613,0,0,1,.06-.11,1.939,1.939,0,0,0,.15-.36,1.648,1.648,0,0,0,.05-.21.792.792,0,0,0,.02-.15.5.5,0,0,0,.01-.12.367.367,0,0,0,.01-.11v-5.34A.367.367,0,0,0,4382.4-2531.146Zm-1.49,5.45a.5.5,0,0,1-.5.5h-7.67a.508.508,0,0,1-.5-.5v-5.34a.508.508,0,0,1,.5-.5h7.67a.5.5,0,0,1,.5.5Z" fill="none"/>
                    </g>
                    <g id="Group_11713" data-name="Group 11713">
                    <path id="Path_18286" data-name="Path 18286" d="M4382.4-2531.146a.5.5,0,0,0-.01-.12.6.6,0,0,0-.02-.14,1.446,1.446,0,0,0-.05-.22,1.942,1.942,0,0,0-.15-.36.6.6,0,0,1-.06-.11l-.15-.21-.14-.14a2,2,0,0,0-1.41-.59h-7.67a2.006,2.006,0,0,0-2,2v5.34a2.006,2.006,0,0,0,2,2h7.67a2,2,0,0,0,1.41-.59l.14-.14.15-.21a.613.613,0,0,1,.06-.11,1.939,1.939,0,0,0,.15-.36,1.648,1.648,0,0,0,.05-.21.792.792,0,0,0,.02-.15.5.5,0,0,0,.01-.12.367.367,0,0,0,.01-.11v-5.34A.367.367,0,0,0,4382.4-2531.146Zm-1.49,5.45a.5.5,0,0,1-.5.5h-7.67a.508.508,0,0,1-.5-.5v-5.34a.508.508,0,0,1,.5-.5h7.67a.5.5,0,0,1,.5.5Z"/>
                    </g>
                </g>
                </g>
            </g>
        </symbol>
    </defs>
</svg>
