<svg xmlns="http://www.w3.org/2000/svg" width="24" height="24" viewBox="0 0 24 24">
	<g transform="translate(-495.625 -4614.625)">
		<g transform="translate(497.402 4615.76)">
			<path fill="#FFF" d="M10.168,1H1.655A.7.7,0,0,0,1,1.655v8.513a.7.7,0,0,0,.655.655h8.513a.7.7,0,0,0,.655-.655V1.655A.7.7,0,0,0,10.168,1M9.622,9.732H2.2c-.109,0-.109,0-.109-.109V2.2c0-.109,0-.109.109-.109H9.622c.109,0,.109,0,.109.109L9.622,9.732h0" transform="translate(-1 -1)" />
			<path fill="#FFF" d="M10.168,13.1H1.655A.7.7,0,0,0,1,13.755v8.513a.7.7,0,0,0,.655.655h8.513a.7.7,0,0,0,.655-.655V13.755a.7.7,0,0,0-.655-.655m-.546,8.732H2.2c-.109,0-.109,0-.109-.109V14.3c0-.109,0-.109.109-.109H9.622c.109,0,.109,0,.109.109l-.109,7.531h0" transform="translate(-1 -1.193)" />
			<g transform="translate(21.223 0.326) rotate(90)">
				<path fill="#FFF" d="M3.22,3.656a.4.4,0,0,1-.327-.109L.163.819A.409.409,0,0,1,.082.246.377.377,0,0,1,.163.164.41.41,0,0,1,.736.081.4.4,0,0,1,.818.164l2.4,2.4,2.4-2.4A.411.411,0,0,1,6.194.081a.426.426,0,0,1,.081.082.411.411,0,0,1,.082.574.426.426,0,0,1-.082.081L3.547,3.547a.4.4,0,0,1-.327.109" transform="translate(3.659 0) rotate(90)" />
				<rect fill="#FFF" width="20.837" height="0.992" rx="0.496" transform="translate(0.24 2.724)" />
			</g>
		</g>
	</g>
</svg>
