<svg xmlns="http://www.w3.org/2000/svg" width="24" height="24" viewBox="0 0 24 24">
	<g transform="translate(-221 -4644)">
		<g transform="translate(0 -1)">
			<path fill="#FFF" d="M10.24,1H1.66A.71.71,0,0,0,1,1.66v8.58a.71.71,0,0,0,.66.66h8.58a.71.71,0,0,0,.66-.66V1.66A.71.71,0,0,0,10.24,1M9.69,9.8H2.21c-.11,0-.11,0-.11-.11V2.21c0-.11,0-.11.11-.11H9.69c.11,0,.11,0,.11.11L9.69,9.8h0" transform="translate(233.1 4656)" />
			<path fill="#FFF" d="M10.24,13.1H1.66a.71.71,0,0,0-.66.66v8.58a.71.71,0,0,0,.66.66h8.58a.71.71,0,0,0,.66-.66V13.76a.71.71,0,0,0-.66-.66m-.55,8.8H2.21c-.11,0-.11,0-.11-.11V14.31c0-.11,0-.11.11-.11H9.69c.11,0,.11,0,.11.11L9.69,21.9h0" transform="translate(221 4643.9)" />
			<g transform="translate(222 4647)">
				<path fill="#FFF" d="M3.245,3.685a.4.4,0,0,1-.33-.11L.165.825A.412.412,0,0,1,.083.248.38.38,0,0,1,.165.165.413.413,0,0,1,.742.082.408.408,0,0,1,.825.165l2.42,2.42L5.665.165A.414.414,0,0,1,6.243.082a.43.43,0,0,1,.082.083.414.414,0,0,1,.083.578.43.43,0,0,1-.083.082l-2.75,2.75a.4.4,0,0,1-.33.11" transform="translate(3.688 0) rotate(90)" />
				<rect fill="#FFF" width="21" height="1" rx="0.5" transform="translate(0.242 2.745)" />
			</g>
		</g>
	</g>
</svg>
