<svg xmlns="http://www.w3.org/2000/svg" width="24" height="24" viewBox="0 0 24 24">
	<g transform="translate(-221 -4644)">
		<g transform="translate(0 -1)">
			<path fill="#FFF" d="M10.24,1H1.66A.71.71,0,0,0,1,1.66v8.58a.71.71,0,0,0,.66.66h8.58a.71.71,0,0,0,.66-.66V1.66A.71.71,0,0,0,10.24,1M9.69,9.8H2.21c-.11,0-.11,0-.11-.11V2.21c0-.11,0-.11.11-.11H9.69c.11,0,.11,0,.11.11L9.69,9.8h0" transform="translate(233.1 4656)" />
			<path fill="#FFF" d="M10.24,13.1H1.66a.71.71,0,0,0-.66.66v8.58a.71.71,0,0,0,.66.66h8.58a.71.71,0,0,0,.66-.66V13.76a.71.71,0,0,0-.66-.66m-.55,8.8H2.21c-.11,0-.11,0-.11-.11V14.31c0-.11,0-.11.11-.11H9.69c.11,0,.11,0,.11.11L9.69,21.9h0" transform="translate(221 4643.9)" />
			<path fill="#FFF" d="M3.245,0a.4.4,0,0,0-.33.11L.165,2.863a.412.412,0,0,0-.082.577.38.38,0,0,0,.082.083.413.413,0,0,0,.577.083.408.408,0,0,0,.083-.083L3.245,1.1l2.42,2.42a.414.414,0,0,0,.578.083.43.43,0,0,0,.082-.083.414.414,0,0,0,.083-.578.43.43,0,0,0-.083-.082L3.575.113A.4.4,0,0,0,3.245,0" transform="translate(243.242 4647) rotate(90)" />
			<rect fill="#FFF" width="21" height="1" rx="0.5" transform="translate(222 4650)" />
		</g>
	</g>
</svg>
