<?xml version="1.0" encoding="utf-8"?>
<!-- Generator: Adobe Illustrator 24.1.3, SVG Export Plug-In . SVG Version: 6.00 Build 0)  -->
<svg version="1.1" id="Layer_1" xmlns="http://www.w3.org/2000/svg" xmlns:xlink="http://www.w3.org/1999/xlink" x="0px" y="0px"
	 width="952px" height="572.8px" viewBox="0 0 952 572.8" enable-background="new 0 0 952 572.8" xml:space="preserve">
<g>
	<g>
		<g>
			<g>
				<path fill="#FFFFFF" d="M598.5,531.7l-152.3-50.6c-3.2-1.1-4.9-4.5-3.8-7.7l63.8-192c1.1-3.2,4.5-4.9,7.7-3.8l152.3,50.6
					c3.2,1.1,4.9,4.5,3.8,7.7l-63.8,192C605.1,531,601.7,532.8,598.5,531.7z"/>
				<path fill="none" stroke="#E5E9EA" stroke-width="1.5" stroke-miterlimit="10" stroke-dasharray="4.0191,4.0191" d="
					M598.5,531.7l-152.3-50.6c-3.2-1.1-4.9-4.5-3.8-7.7l63.8-192c1.1-3.2,4.5-4.9,7.7-3.8l152.3,50.6c3.2,1.1,4.9,4.5,3.8,7.7
					l-63.8,192C605.1,531,601.7,532.8,598.5,531.7z"/>
			</g>
			<path fill="#7F9FB0" d="M611.4,472.8l-140.2-46.6c-1.3-0.4-1.9-1.8-1.5-3.1l44-132.5c0.4-1.3,1.8-1.9,3.1-1.5L657,335.7
				c1.3,0.4,1.9,1.8,1.5,3.1l-44,132.5C614,472.5,612.7,473.2,611.4,472.8z"/>
			<g>
				
					<rect x="523.5" y="393.2" transform="matrix(0.3154 -0.949 0.949 0.3154 -74.4119 813.3509)" fill="#E4E8EA" width="6" height="130"/>
			</g>
			<g>
				
					<rect x="494.7" y="423.4" transform="matrix(0.3154 -0.949 0.949 0.3154 -98.0353 788.8781)" fill="#E4E8EA" width="6" height="78"/>
			</g>
			<g>
				
					<rect x="461.9" y="458.5" transform="matrix(0.3154 -0.949 0.949 0.3154 -124.9705 763.8368)" fill="#E4E8EA" width="10" height="20"/>
			</g>
			<g>
				
					<rect x="485.6" y="466.4" transform="matrix(0.3154 -0.949 0.949 0.3154 -116.2113 791.7479)" fill="#E4E8EA" width="10" height="20"/>
			</g>
		</g>
		<g>
			<path fill="#96BCCB" d="M582.3,405.8c0.7,0.2,1.5-0.1,1.7-0.9c0.2-0.7-0.1-1.5-0.9-1.7c-0.7-0.2-1.5,0.1-1.7,0.9
				C581.2,404.8,581.6,405.5,582.3,405.8z"/>
			<path fill="#96BCCB" d="M535.3,358.8c-0.2,1.6-0.1,3.1,0.1,4.6c0.9,4.8,0.6,9.4-0.7,13.2l-5.3,15.8c-0.2,0.7,0.1,1.5,0.9,1.7
				l5.1,1.7c0.7,0.2,1.5-0.1,1.7-0.9l4.8-14.3c1-2.9,2.6-5.6,4.7-7.8l0.2-0.2c4.4,7.1,7.1,15.1,7.9,23.4c0.4,3.8,2.9,7,6.4,8.2
				l10.5,3.5c5.1,1.7,9.1,2.9,12.2,3.4c1.6,0.2,6.3,1,7.5-2.5c0.7-2,0-5.4-1.7-8.7c-1.2-2.2-3.8-6.3-8.4-8.6c-0.4-0.2-0.8-0.2-1.2,0
				c-1.7,0.7-4.4,0.7-6.6,0c-3.1-1-5.7-3.9-6.2-6.6c0-0.1,0-0.1,0-0.2l-4.5-15.1c-2.8-9.3-6.9-18.2-12.1-26.4
				c-0.3-0.5-1-0.8-1.6-0.5c-2.5,0.9-4.8,2.3-6.9,4C538.2,350,535.8,354.5,535.3,358.8C535.3,358.8,535.3,358.8,535.3,358.8z
				 M539.3,379.9l-4.3,13l-2.6-0.9l4.8-14.6c0.1-0.4,0.3-0.8,0.4-1.2c1.9-7.2,0.4-12.8,0.3-14.3c2.8,2.6,5.2,5.5,7.4,8.6
				C543.2,372.3,540.7,375.9,539.3,379.9z M543.9,348.7c1.5-1.3,3.2-2.3,5-3.1c4.8,7.7,8.6,16.1,11.2,24.8l4.5,15
				c0.7,3.7,4,7.3,8,8.6c2.5,0.8,5.7,0.9,7.9,0.1c3.6,2,5.8,5.3,6.7,7.2c1.5,2.9,1.9,5.5,1.6,6.6c-0.4,1.1-2.6,1-4.5,0.7
				c-2.9-0.4-6.8-1.6-11.8-3.3l-10.5-3.5c-2.5-0.8-4.3-3.2-4.6-5.9c-1.4-14.5-8.3-28-19.3-37.5C538.7,355.1,540.6,351.5,543.9,348.7
				z"/>
			<path fill="#96BCCB" d="M562.8,399.3l14.4,4.8c0.7,0.2,1.5-0.1,1.7-0.9c0.2-0.7-0.1-1.5-0.9-1.7l-14.4-4.8
				c-0.7-0.2-1.5,0.1-1.7,0.9C561.7,398.3,562.1,399.1,562.8,399.3z"/>
		</g>
	</g>
	<g>
		<g>
			<g>
				<path fill="#FFFFFF" d="M510.8,486l-154.4,43.7c-3.2,0.9-6.6-1-7.5-4.2l-55.1-194.7c-0.9-3.2,1-6.6,4.2-7.5l154.4-43.7
					c3.2-0.9,6.6,1,7.5,4.2L515,478.5C515.9,481.7,514.1,485.1,510.8,486z"/>
				<path fill="none" stroke="#E5E9EA" stroke-width="1.5" stroke-miterlimit="10" stroke-dasharray="4.0191,4.0191" d="M510.8,486
					l-154.4,43.7c-3.2,0.9-6.6-1-7.5-4.2l-55.1-194.7c-0.9-3.2,1-6.6,4.2-7.5l154.4-43.7c3.2-0.9,6.6,1,7.5,4.2L515,478.5
					C515.9,481.7,514.1,485.1,510.8,486z"/>
			</g>
			<path fill="#ED7C8A" d="M488.4,430l-142.2,40.2c-1.3,0.4-2.6-0.4-3-1.7l-38-134.4c-0.4-1.3,0.4-2.6,1.7-3L449,291
				c1.3-0.4,2.6,0.4,3,1.7L490,427C490.4,428.3,489.7,429.6,488.4,430z"/>
			<g>
				
					<rect x="345" y="462.7" transform="matrix(0.9622 -0.2723 0.2723 0.9622 -111.3262 129.262)" fill="#E4E8EA" width="130" height="6"/>
			</g>
			<g>
				
					<rect x="349.5" y="482.3" transform="matrix(0.9622 -0.2723 0.2723 0.9622 -117.4733 124.1534)" fill="#E4E8EA" width="78" height="6"/>
			</g>
			<g>
				
					<rect x="356.5" y="502.7" transform="matrix(0.9622 -0.2723 0.2723 0.9622 -124.4085 118.9972)" fill="#E4E8EA" width="20" height="10"/>
			</g>
			<g>
				
					<rect x="380.5" y="495.9" transform="matrix(0.9622 -0.2723 0.2723 0.9622 -121.6448 125.2911)" fill="#E4E8EA" width="20" height="10"/>
			</g>
		</g>
		<g>
			<g>
				<g>
					<path fill="#F5A3B8" d="M388.7,349c-18.6,5.3-29.5,24.7-24.2,43.3c5.3,18.6,24.7,29.5,43.3,24.2c18.6-5.3,29.5-24.7,24.2-43.3
						C426.7,354.5,407.3,343.7,388.7,349z M407.1,414.3c-17.4,4.9-35.5-5.2-40.5-22.6s5.2-35.5,22.6-40.5s35.5,5.2,40.5,22.6
						C434.7,391.2,424.5,409.3,407.1,414.3z"/>
				</g>
			</g>
			<g>
				<g>
					<path fill="#F5A3B8" d="M432.4,384c-6.1-1.8-12.5-10.5-15.5-21.2c-1-3.4-1.6-6.9-1.8-10.2c0-0.6-0.6-1.1-1.2-1.1
						c-0.6,0-1.1,0.6-1.1,1.2c0.2,3.5,0.8,7.1,1.8,10.7c3.3,11.6,10.2,20.8,17.1,22.8c0.2,0.1,0.4,0.1,0.6,0
						c0.4-0.1,0.7-0.4,0.8-0.8C433.4,384.9,433,384.2,432.4,384z"/>
				</g>
			</g>
			<g>
				<g>
					<path fill="#F5A3B8" d="M380.6,352.6c-0.3,0-0.5,0-0.7,0.2c-13.4,8.2-19.7,24.4-15.5,39.5c5.3,18.6,24.7,29.5,43.3,24.2
						c5.6-1.6,10.7-4.5,14.8-8.5c0.3-0.2,0.4-0.6,0.4-0.9l-0.2-1.9l0-0.2c-0.4-3.6-0.9-7.3-1.9-11
						C414.4,371.1,398.2,354.5,380.6,352.6z M420.5,405.3l0.1,1.4c-3.8,3.5-8.4,6.1-13.4,7.6c-17.4,4.9-35.5-5.2-40.5-22.6
						c-4-14,1.8-29,14.1-36.7c16.5,2,31.7,17.8,37.8,39.6C419.6,398.1,420,401.8,420.5,405.3z"/>
				</g>
			</g>
			<g>
				<g>
					<path fill="#F5A3B8" d="M397.7,409.7c-2.3-0.1-4.8-0.6-7.4-1.4c-0.6-0.2-1.3,0.2-1.5,0.8s0.2,1.3,0.8,1.5
						c2.9,0.9,5.5,1.4,8,1.5c0.1,0,0.3,0,0.4,0c0.5-0.1,0.8-0.6,0.8-1.1C398.9,410.3,398.4,409.7,397.7,409.7z"/>
				</g>
			</g>
			<g>
				<g>
					<path fill="#F5A3B8" d="M383.7,405.5c-0.4-0.3-0.7-0.5-1.1-0.8c-1.2-0.8-2.5-1.7-3.3-2.6c-0.4-0.5-1.2-0.5-1.7-0.1
						c-0.5,0.4-0.5,1.2-0.1,1.7c1,1.1,2.5,2.1,3.7,3c0.4,0.3,0.8,0.5,1.1,0.8c0.3,0.2,0.7,0.3,1,0.2c0.2-0.1,0.5-0.2,0.6-0.4
						C384.4,406.6,384.3,405.9,383.7,405.5z"/>
				</g>
			</g>
			<g>
				<g>
					<path fill="#F5A3B8" d="M427,364.1c-33,9.1-49.4,25.6-57.2,37.9c-0.3,0.5-0.2,1.3,0.4,1.6c0.3,0.2,0.6,0.2,0.9,0.1
						c0.3-0.1,0.5-0.2,0.7-0.5c7.6-12,23.6-28.1,55.9-36.9c0,0,0,0,0,0c0.6-0.2,1-0.8,0.8-1.4C428.3,364.3,427.6,364,427,364.1z"/>
				</g>
			</g>
			<g>
				<g>
					<path fill="#F5A3B8" d="M368.3,366.9c-0.3,0.1-0.7,0.2-1,0.3c-0.6,0.2-1,0.8-0.9,1.4c0.1,0.6,0.8,1,1.4,0.9
						c0.4-0.1,0.8-0.2,1.1-0.3c14.9-4.2,31.1,6.7,36.1,24.4c2.2,7.9,2.3,15.4,0.2,21.7c-0.2,0.6,0.1,1.3,0.7,1.5
						c0.2,0.1,0.5,0.1,0.7,0c0.4-0.1,0.7-0.4,0.8-0.8c2.3-6.8,2.2-14.8-0.1-23.1C402,374,384.5,362.3,368.3,366.9z"/>
				</g>
			</g>
		</g>
	</g>
	<g>
		<g>
			<g>
				<path fill="#FFFFFF" d="M560.5,491.9H400.1c-3.3,0-6.1-2.7-6.1-6.1V283.5c0-3.3,2.7-6.1,6.1-6.1h160.5c3.3,0,6.1,2.7,6.1,6.1
					v202.3C566.6,489.2,563.9,491.9,560.5,491.9z"/>
				<path fill="none" stroke="#E5E9EA" stroke-width="1.5" stroke-miterlimit="10" stroke-dasharray="4.0191,4.0191" d="
					M560.5,491.9H400.1c-3.3,0-6.1-2.7-6.1-6.1V283.5c0-3.3,2.7-6.1,6.1-6.1h160.5c3.3,0,6.1,2.7,6.1,6.1v202.3
					C566.6,489.2,563.9,491.9,560.5,491.9z"/>
			</g>
			<path fill="#4B0082" d="M554.2,431.9H406.4c-1.3,0-2.4-1.1-2.4-2.4V289.8c0-1.3,1.1-2.4,2.4-2.4h147.8c1.3,0,2.4,1.1,2.4,2.4
				v139.6C556.6,430.8,555.5,431.9,554.2,431.9z"/>
			<g>
				<rect x="404" y="441.9" fill="#E4E8EA" width="130" height="6"/>
			</g>
			<g>
				<rect x="404" y="454.9" fill="#E4E8EA" width="78" height="6"/>
			</g>
			<g>
				<rect x="405.7" y="468.4" fill="#E4E8EA" width="20" height="10"/>
			</g>
			<g>
				<rect x="430.7" y="468.4" fill="#E4E8EA" width="20" height="10"/>
			</g>
		</g>
		<g id="outline">
			<path fill="#7744AD" d="M512.5,383.6l-12.9-20.8c-2.7-4.3-5.7-8.4-9-12.3l-2.6-3v-3.4c0-3.6,1.7-7.1,4.6-9.3l5.1-2.5
				c0.6-0.3,0.9-1.1,0.6-1.7c0-0.1-0.1-0.2-0.1-0.2l-5.2-6.5l0,0c-0.1-0.1-0.3-0.3-0.4-0.4l-5.2-2.6c-0.4-0.2-0.9-0.2-1.3,0.1
				c-1.7,1-3.7,1.6-5.8,1.6c-2,0-4.1-0.6-5.8-1.6l0,0c-0.4-0.2-0.8-0.2-1.2,0l-5.2,2.6c-0.2,0.1-0.3,0.2-0.4,0.4l0,0l-5.2,6.5
				c-0.4,0.6-0.4,1.4,0.2,1.8c0.1,0.1,0.1,0.1,0.2,0.1l5.1,2.5c2.9,2.2,4.6,5.6,4.6,9.3v3.4l-2.6,3c-3.3,3.8-6.3,7.9-9,12.3
				l-12.9,20.8c-0.3,0.4-0.3,1,0,1.4c1.1,1.7,2.7,3,4.6,3.9l-0.7,1.2h0c0,0.1-0.1,0.1-0.1,0.2c-0.3,0.7,0.1,1.4,0.7,1.7l1.5,0.6
				c2.7,1.1,5.6,1.5,8.5,1.2l-0.4,1.9c-0.2,0.7,0.3,1.4,1,1.6c0,0,0,0,0.1,0l2.9,0.5c3.3,0.5,6.6,0.8,9.9,0.8h8.4
				c3.3,0,6.6-0.3,9.9-0.8l2.9-0.5c0.7-0.1,1.2-0.8,1.1-1.5c0,0,0,0,0-0.1l-0.4-1.9c2.9,0.3,5.8-0.1,8.5-1.2l1.5-0.6
				c0.7-0.3,1-1,0.7-1.7c0-0.1-0.1-0.1-0.1-0.2h0l-0.7-1.2c1.9-0.8,3.4-2.2,4.6-3.9C512.8,384.6,512.8,384,512.5,383.6z
				 M493.3,331.6v-3.3l1.9,2.3L493.3,331.6z M485.4,324.2c-0.5,2.8-3.1,4.8-5.9,4.3c-2.2-0.4-3.9-2.1-4.3-4.3c1.6,0.6,3.4,1,5.1,1
				C482.1,325.2,483.8,324.8,485.4,324.2z M467.3,328.4v3.3l-1.9-0.9L467.3,328.4z M469.9,333.1v-7.6l2.6-1.3c0.4,4.3,4.2,7.4,8.5,7
				c3.7-0.4,6.6-3.3,7-7l2.6,1.3v7.6c-2.9,2.4-4.8,5.9-5.1,9.7c-2.1,0.2-4,1.3-5.2,3.1c-1.2-1.7-3.1-2.9-5.2-3.1
				C474.7,339,472.9,335.5,469.9,333.1z M481.9,348.4c0.6-1.5,2-2.7,3.6-2.9v2C484.5,348.2,483.2,348.6,481.9,348.4z M475.1,347.4
				v-2c1.6,0.3,3,1.4,3.6,2.9C477.4,348.6,476.1,348.2,475.1,347.4z M455.1,390.2l-0.1,0l8.3-14.3l-2.2-1.3l-7,12.1
				c-1.3-0.5-2.4-1.4-3.2-2.4l12.4-20.1c2.6-4.2,5.5-8.2,8.7-11.9l2.1-2.4c0.4,0.2,0.7,0.4,1.1,0.6l-3.6,9.4
				c-1.9,4.9-3.4,9.8-4.5,14.9l-3.7,16.4C460.5,391.5,457.7,391.2,455.1,390.2z M466.6,395.2l-1.6-0.3l4.5-19.6
				c1.1-5,2.6-9.8,4.4-14.6l3.7-9.6l-0.1,0c0.2,0,0.3,0,0.5,0c0.3,0,0.7,0,1-0.1v45h-2.9C472.9,395.9,469.8,395.7,466.6,395.2
				L466.6,395.2z M494,395.2c-3.1,0.5-6.3,0.8-9.4,0.8h-2.9v-45c0.3,0,0.7,0.1,1,0.1c0.2,0,0.3,0,0.5,0l-0.1,0l3.7,9.6
				c1.8,4.7,3.3,9.6,4.4,14.6l4.5,19.6L494,395.2z M508.6,385.5c-0.6,0.5-1.3,0.9-2,1.2l-7-12.1l-2.2,1.3l8.3,14.3l-0.1,0
				c-2.6,1-5.4,1.3-8.2,0.9l-3.7-16.4c-1.2-5.1-2.7-10.1-4.5-14.9l-3.6-9.4c0.4-0.2,0.8-0.4,1.1-0.6l2.1,2.4
				c3.2,3.7,6.1,7.7,8.7,11.9l12.4,20.1C509.5,384.7,509,385.1,508.6,385.5L508.6,385.5z"/>
		</g>
	</g>
	<path fill="#E4E8EA" d="M376.6,249l-3-1.3l1.3-3c0.3-0.7,0-1.6-0.8-2s-1.6,0-2,0.8l-1.3,3l-3-1.3c-0.7-0.3-1.6,0-2,0.8
		c-0.3,0.7,0,1.6,0.8,2l3,1.3l-1.3,3c-0.3,0.7,0,1.6,0.8,2c0.7,0.3,1.6,0,2-0.8l1.3-3l3,1.3c0.8,0.3,1.6,0,2-0.8
		C377.7,250.3,377.3,249.4,376.6,249z"/>
	<path fill="#E4E8EA" d="M258.4,397l-2-0.9l0.9-2c0.2-0.5,0-1.1-0.5-1.3c-0.5-0.2-1.1,0-1.3,0.5l-0.9,2l-2.1-0.9
		c-0.5-0.2-1.1,0-1.3,0.5s0,1.1,0.5,1.3l2.1,0.9l-0.9,2c-0.2,0.5,0,1.1,0.5,1.3s1.1,0,1.3-0.5l0.9-2l2,0.9c0.5,0.2,1.1,0,1.3-0.5
		C259.2,397.9,258.9,397.3,258.4,397z"/>
	<path fill="#E4E8EA" d="M703.1,438.3l-2-0.9l0.9-2c0.2-0.5,0-1.1-0.5-1.3c-0.5-0.2-1.1,0-1.3,0.5l-0.9,2l-2.1-0.9
		c-0.5-0.2-1.1,0-1.3,0.5s0,1.1,0.5,1.3l2.1,0.9l-0.9,2c-0.2,0.5,0,1.1,0.5,1.3c0.5,0.2,1.1,0,1.3-0.5l0.9-2l2,0.9
		c0.5,0.2,1.1,0,1.3-0.5C703.8,439.1,703.6,438.5,703.1,438.3z"/>
	<path fill="#E4E8EA" d="M291.9,477.9l-2-0.9l0.9-2c0.2-0.5,0-1.1-0.5-1.3c-0.5-0.2-1.1,0-1.3,0.5l-0.9,2l-2.1-0.9
		c-0.5-0.2-1.1,0-1.3,0.5c-0.2,0.5,0,1.1,0.5,1.3l2.1,0.9l-0.9,2c-0.2,0.5,0,1.1,0.5,1.3c0.5,0.2,1.1,0,1.3-0.5l0.9-2l2,0.9
		c0.5,0.2,1.1,0,1.3-0.5C292.6,478.7,292.4,478.1,291.9,477.9z"/>
	<path fill="#E4E8EA" d="M718.4,350.3l-2-0.9l0.9-2c0.2-0.5,0-1.1-0.5-1.3c-0.5-0.2-1.1,0-1.3,0.5l-0.9,2l-2.1-0.9
		c-0.5-0.2-1.1,0-1.3,0.5s0,1.1,0.5,1.3l2.1,0.9l-0.9,2c-0.2,0.5,0,1.1,0.5,1.3c0.5,0.2,1.1,0,1.3-0.5l0.9-2l2,0.9
		c0.5,0.2,1.1,0,1.3-0.5C719.1,351.2,718.9,350.6,718.4,350.3z"/>
	<path fill="#E4E8EA" d="M598,216.4c-3.3,0-6.1,2.7-6.1,6.1s2.7,6.1,6.1,6.1s6.1-2.7,6.1-6.1S601.3,216.4,598,216.4z M598,225.8
		c-1.9,0-3.4-1.5-3.4-3.4c0-1.9,1.5-3.4,3.4-3.4c1.9,0,3.4,1.5,3.4,3.4C601.4,224.3,599.9,225.8,598,225.8z"/>
	<path fill="#E4E8EA" d="M282.4,258.7c-3.3,0-6.1,2.7-6.1,6.1s2.7,6.1,6.1,6.1s6.1-2.7,6.1-6.1S285.8,258.7,282.4,258.7z
		 M282.4,268.1c-1.9,0-3.4-1.5-3.4-3.4s1.5-3.4,3.4-3.4c1.9,0,3.4,1.5,3.4,3.4S284.3,268.1,282.4,268.1z"/>
	<path fill="#E4E8EA" d="M523.9,238.9c-2.1,0-3.8,1.7-3.8,3.8c0,2.1,1.7,3.8,3.8,3.8s3.8-1.7,3.8-3.8
		C527.7,240.5,526,238.9,523.9,238.9z M523.9,244.7c-1.2,0-2.1-0.9-2.1-2.1c0-1.2,0.9-2.1,2.1-2.1s2.1,0.9,2.1,2.1
		C526,243.8,525.1,244.7,523.9,244.7z"/>
	<path fill="#E4E8EA" d="M249.6,326.2c-2.1,0-3.8,1.7-3.8,3.8s1.7,3.8,3.8,3.8s3.8-1.7,3.8-3.8S251.7,326.2,249.6,326.2z
		 M249.6,332.1c-1.2,0-2.1-0.9-2.1-2.1s0.9-2.1,2.1-2.1s2.1,0.9,2.1,2.1S250.8,332.1,249.6,332.1z"/>
	<path fill="#E4E8EA" d="M660.2,486.3c-2.1,0-3.8,1.7-3.8,3.8c0,2.1,1.7,3.8,3.8,3.8c2.1,0,3.8-1.7,3.8-3.8
		C664,488,662.3,486.3,660.2,486.3z M660.2,492.1c-1.2,0-2.1-0.9-2.1-2.1c0-1.2,0.9-2.1,2.1-2.1c1.2,0,2.1,0.9,2.1,2.1
		C662.3,491.2,661.4,492.1,660.2,492.1z"/>
	<g>
		<g>
			<rect x="265" y="530" fill="#E4E8EA" width="359.2" height="2.7"/>
		</g>
		<g>
			<rect x="654.7" y="530" fill="#E4E8EA" width="49" height="2.7"/>
		</g>
		<g>
			<rect x="241.7" y="530" fill="#E4E8EA" width="15.9" height="2.7"/>
		</g>
		<g>
			<rect x="298.6" y="551.7" fill="#E4E8EA" width="15.6" height="2.7"/>
		</g>
		<g>
			<rect x="336.5" y="551.7" fill="#E4E8EA" width="28.2" height="2.7"/>
		</g>
		<g>
			<rect x="564.2" y="551.7" fill="#E4E8EA" width="12.6" height="2.7"/>
		</g>
		<g>
			<rect x="591.9" y="551.7" fill="#E4E8EA" width="54.6" height="2.7"/>
		</g>
		<g>
			<rect x="275.6" y="570.1" fill="#E4E8EA" width="13.8" height="2.7"/>
		</g>
		<g>
			<rect x="653.4" y="570.1" fill="#E4E8EA" width="13.8" height="2.7"/>
		</g>
	</g>
	<path fill="none" stroke="#F0F0F2" stroke-width="2.4" stroke-miterlimit="10" d="M526.9,219.1h-82.4c-0.9-4.2-0.9-8.4,1.6-11.9
		c2.5-3.6,6.6-6,10.9-6.2c4-0.2,8,1.5,12,0.9c10.2-1.4,14.7-15.8,24.9-17.4c5.7-0.8,11.4,3.1,13.9,8.4c1.1,2.3,1.7,4.9,3.5,6.6
		c2,1.8,4.9,2.2,7.4,3.2C525,205.2,528,212.4,526.9,219.1z"/>
	<path fill="none" stroke="#F0F0F2" stroke-width="2.4" stroke-miterlimit="10" d="M681.5,278.8H627c-1.8-3.7-1.8-8.1,0.6-11.5
		c2.4-3.4,6.7-5.3,10.9-4.8c3.3,0.4,6.9,2.1,9.7,0.2c2.9-1.9,2.5-6.4,4.6-9.2c2-2.8,6.1-3.4,9.3-2.1c3.2,1.3,5.4,4.2,6.9,7.3
		c0.9,1.9,1.8,4.1,3.7,5c1.7,0.7,3.6,0.1,5.4,0.5c2.7,0.5,4.8,3,5.5,5.7S681.8,276,681.5,278.8z"/>
	<g>
		<path fill="#838383" d="M249,92.3V97h-2.4v-4.6l-5.2-8.6h2.6l3.9,6.4l3.9-6.4h2.4L249,92.3z"/>
		<path fill="#838383" d="M255.8,96.4c-0.8-0.4-1.5-1-1.9-1.8c-0.5-0.8-0.7-1.7-0.7-2.7c0-1,0.2-1.9,0.7-2.7
			c0.5-0.8,1.1-1.4,1.9-1.8c0.8-0.4,1.7-0.7,2.7-0.7c1,0,2,0.2,2.8,0.7c0.8,0.4,1.5,1,1.9,1.8c0.5,0.8,0.7,1.7,0.7,2.7
			c0,1-0.2,1.9-0.7,2.7c-0.5,0.8-1.1,1.4-1.9,1.8c-0.8,0.4-1.7,0.7-2.8,0.7C257.5,97.1,256.6,96.9,255.8,96.4z M260.7,94.2
			c0.6-0.6,0.8-1.3,0.8-2.3c0-0.9-0.3-1.7-0.8-2.3c-0.6-0.6-1.3-0.9-2.1-0.9c-0.9,0-1.6,0.3-2.1,0.9c-0.6,0.6-0.8,1.3-0.8,2.3
			c0,0.9,0.3,1.7,0.8,2.3c0.6,0.6,1.3,0.9,2.1,0.9C259.4,95.1,260.1,94.8,260.7,94.2z"/>
		<path fill="#838383" d="M275.5,86.9v10h-2.2v-1.3c-0.4,0.5-0.8,0.8-1.4,1c-0.6,0.2-1.2,0.4-1.8,0.4c-1.3,0-2.4-0.4-3.2-1.1
			c-0.8-0.7-1.2-1.9-1.2-3.3v-5.7h2.4v5.4c0,0.9,0.2,1.6,0.6,2c0.4,0.4,1,0.7,1.7,0.7c0.8,0,1.5-0.3,2-0.8c0.5-0.5,0.7-1.3,0.7-2.2
			v-5.1H275.5z"/>
		<path fill="#838383" d="M283.2,83.8h5.8c1.4,0,2.7,0.3,3.7,0.8c1.1,0.5,1.9,1.3,2.5,2.3c0.6,1,0.9,2.1,0.9,3.5
			c0,1.3-0.3,2.5-0.9,3.5c-0.6,1-1.4,1.8-2.5,2.3c-1.1,0.5-2.3,0.8-3.7,0.8h-5.8V83.8z M288.9,94.9c1,0,1.8-0.2,2.5-0.6
			c0.7-0.4,1.3-0.9,1.7-1.6c0.4-0.7,0.6-1.5,0.6-2.4c0-0.9-0.2-1.7-0.6-2.4s-1-1.2-1.7-1.6c-0.7-0.4-1.6-0.6-2.5-0.6h-3.2v9H288.9z"
			/>
		<path fill="#838383" d="M299.9,96.4c-0.8-0.4-1.5-1-1.9-1.8c-0.5-0.8-0.7-1.7-0.7-2.7c0-1,0.2-1.9,0.7-2.7
			c0.5-0.8,1.1-1.4,1.9-1.8c0.8-0.4,1.7-0.7,2.7-0.7c1,0,2,0.2,2.8,0.7c0.8,0.4,1.5,1,1.9,1.8c0.5,0.8,0.7,1.7,0.7,2.7
			c0,1-0.2,1.9-0.7,2.7c-0.5,0.8-1.1,1.4-1.9,1.8c-0.8,0.4-1.7,0.7-2.8,0.7C301.7,97.1,300.8,96.9,299.9,96.4z M304.8,94.2
			c0.6-0.6,0.8-1.3,0.8-2.3c0-0.9-0.3-1.7-0.8-2.3c-0.6-0.6-1.3-0.9-2.1-0.9c-0.9,0-1.6,0.3-2.1,0.9c-0.6,0.6-0.8,1.3-0.8,2.3
			c0,0.9,0.3,1.7,0.8,2.3c0.6,0.6,1.3,0.9,2.1,0.9C303.6,95.1,304.3,94.8,304.8,94.2z"/>
		<path fill="#838383" d="M318.7,87.9c0.8,0.7,1.1,1.8,1.1,3.3V97h-2.4v-5.5c0-0.9-0.2-1.5-0.6-2c-0.4-0.4-1-0.7-1.8-0.7
			c-0.9,0-1.5,0.3-2.1,0.8c-0.5,0.5-0.8,1.3-0.8,2.2V97h-2.4v-10h2.2v1.3c0.4-0.5,0.9-0.8,1.5-1.1c0.6-0.2,1.3-0.4,2-0.4
			C316.9,86.8,317.9,87.2,318.7,87.9z"/>
		<path fill="#838383" d="M324.2,83.3c0.3,0.3,0.4,0.7,0.4,1.1c0,0.2,0,0.4-0.1,0.7c-0.1,0.2-0.2,0.5-0.3,1l-1,2.7h-1.5l0.8-2.9
			c-0.3-0.1-0.5-0.3-0.6-0.5c-0.2-0.2-0.2-0.5-0.2-0.9c0-0.5,0.1-0.8,0.4-1.1c0.3-0.3,0.7-0.4,1.1-0.4
			C323.6,82.9,323.9,83,324.2,83.3z"/>
		<path fill="#838383" d="M332.7,96.4c-0.3,0.2-0.6,0.4-1,0.5c-0.4,0.1-0.8,0.2-1.3,0.2c-1.1,0-2-0.3-2.6-0.9
			c-0.6-0.6-0.9-1.4-0.9-2.5v-4.8h-1.7V87h1.7v-2.3h2.4V87h2.7v1.9h-2.7v4.8c0,0.5,0.1,0.9,0.4,1.1c0.2,0.3,0.6,0.4,1,0.4
			c0.5,0,1-0.1,1.3-0.4L332.7,96.4z"/>
		<path fill="#838383" d="M347.8,87.9c0.8,0.7,1.1,1.8,1.1,3.3V97h-2.4v-5.5c0-0.9-0.2-1.5-0.6-2c-0.4-0.4-1-0.7-1.8-0.7
			c-0.9,0-1.5,0.3-2.1,0.8c-0.5,0.5-0.8,1.3-0.8,2.2V97h-2.4V83h2.4v5.1c0.4-0.4,0.9-0.7,1.4-1c0.6-0.2,1.2-0.3,1.9-0.3
			C346,86.8,347.1,87.2,347.8,87.9z"/>
		<path fill="#838383" d="M358.8,87.9c0.8,0.7,1.2,1.8,1.2,3.2V97h-2.2v-1.2c-0.3,0.4-0.7,0.8-1.2,1c-0.5,0.2-1.2,0.3-1.9,0.3
			c-0.8,0-1.4-0.1-2-0.4c-0.6-0.3-1-0.6-1.3-1.1c-0.3-0.5-0.5-1-0.5-1.6c0-0.9,0.3-1.6,1-2.2c0.7-0.5,1.7-0.8,3.2-0.8h2.6v-0.2
			c0-0.7-0.2-1.2-0.6-1.6c-0.4-0.4-1-0.6-1.9-0.6c-0.6,0-1.1,0.1-1.7,0.3c-0.5,0.2-1,0.4-1.4,0.7l-0.9-1.7c0.5-0.4,1.2-0.7,1.9-0.9
			c0.7-0.2,1.5-0.3,2.4-0.3C356.9,86.8,358,87.2,358.8,87.9z M356.7,95c0.5-0.3,0.8-0.7,1-1.2v-1.2h-2.4c-1.4,0-2,0.4-2,1.3
			c0,0.4,0.2,0.8,0.5,1c0.3,0.3,0.8,0.4,1.4,0.4C355.7,95.4,356.2,95.2,356.7,95z"/>
		<path fill="#838383" d="M371.9,86.9l-4.3,10h-2.4l-4.3-10h2.4l3.1,7.5l3.2-7.5H371.9z"/>
		<path fill="#838383" d="M382.1,92.7h-7.9c0.1,0.7,0.5,1.3,1.1,1.8c0.6,0.4,1.3,0.6,2.2,0.6c1.1,0,2-0.4,2.7-1.1l1.3,1.4
			c-0.5,0.5-1,0.9-1.7,1.2c-0.7,0.3-1.5,0.4-2.3,0.4c-1.1,0-2.1-0.2-2.9-0.7c-0.8-0.4-1.5-1-1.9-1.8c-0.5-0.8-0.7-1.7-0.7-2.7
			c0-1,0.2-1.9,0.7-2.6c0.4-0.8,1.1-1.4,1.9-1.8c0.8-0.4,1.7-0.7,2.7-0.7c1,0,1.9,0.2,2.6,0.6c0.8,0.4,1.4,1,1.8,1.8
			c0.4,0.8,0.6,1.7,0.6,2.7C382.1,92.2,382.1,92.4,382.1,92.7z M375.1,89.4c-0.5,0.4-0.8,1-1,1.8h5.7c-0.1-0.7-0.4-1.3-0.9-1.8
			s-1.2-0.7-1.9-0.7C376.3,88.7,375.6,88.9,375.1,89.4z"/>
		<path fill="#838383" d="M396,87.9c0.8,0.7,1.2,1.8,1.2,3.2V97H395v-1.2c-0.3,0.4-0.7,0.8-1.2,1c-0.5,0.2-1.2,0.3-1.9,0.3
			c-0.8,0-1.4-0.1-2-0.4s-1-0.6-1.3-1.1c-0.3-0.5-0.5-1-0.5-1.6c0-0.9,0.3-1.6,1-2.2c0.7-0.5,1.7-0.8,3.2-0.8h2.6v-0.2
			c0-0.7-0.2-1.2-0.6-1.6c-0.4-0.4-1-0.6-1.9-0.6c-0.6,0-1.1,0.1-1.7,0.3c-0.5,0.2-1,0.4-1.4,0.7l-0.9-1.7c0.5-0.4,1.2-0.7,1.9-0.9
			c0.7-0.2,1.5-0.3,2.4-0.3C394.1,86.8,395.3,87.2,396,87.9z M393.9,95c0.5-0.3,0.8-0.7,1-1.2v-1.2h-2.4c-1.4,0-2,0.4-2,1.3
			c0,0.4,0.2,0.8,0.5,1c0.3,0.3,0.8,0.4,1.4,0.4C392.9,95.4,393.4,95.2,393.9,95z"/>
		<path fill="#838383" d="M408.6,87.9c0.8,0.7,1.1,1.8,1.1,3.3V97h-2.4v-5.5c0-0.9-0.2-1.5-0.6-2c-0.4-0.4-1-0.7-1.8-0.7
			c-0.9,0-1.5,0.3-2.1,0.8c-0.5,0.5-0.8,1.3-0.8,2.2V97h-2.4v-10h2.2v1.3c0.4-0.5,0.9-0.8,1.5-1.1c0.6-0.2,1.3-0.4,2-0.4
			C406.8,86.8,407.8,87.2,408.6,87.9z"/>
		<path fill="#838383" d="M421.6,86.9l-4.7,10.9c-0.4,1.1-1,1.9-1.6,2.3c-0.6,0.4-1.4,0.7-2.3,0.7c-0.5,0-1-0.1-1.5-0.2
			c-0.5-0.2-0.9-0.4-1.2-0.7l0.9-1.7c0.2,0.2,0.5,0.4,0.8,0.5c0.3,0.1,0.6,0.2,0.9,0.2c0.4,0,0.8-0.1,1-0.3c0.3-0.2,0.5-0.6,0.7-1.1
			l0.2-0.4l-4.4-10.1h2.4l3.2,7.4l3.2-7.4H421.6z"/>
		<path fill="#838383" d="M435.7,87.4c0.8,0.4,1.4,1,1.8,1.8c0.4,0.8,0.7,1.7,0.7,2.7c0,1-0.2,1.9-0.7,2.7c-0.4,0.8-1,1.4-1.8,1.8
			c-0.8,0.4-1.6,0.6-2.6,0.6c-1.4,0-2.4-0.5-3.2-1.4v4.9h-2.4V86.9h2.2v1.3c0.4-0.5,0.9-0.8,1.4-1.1c0.6-0.2,1.2-0.4,1.9-0.4
			C434,86.8,434.9,87,435.7,87.4z M434.9,94.2c0.6-0.6,0.8-1.3,0.8-2.3c0-0.9-0.3-1.7-0.8-2.3c-0.6-0.6-1.3-0.9-2.1-0.9
			c-0.6,0-1.1,0.1-1.5,0.4c-0.5,0.3-0.8,0.6-1.1,1.1c-0.3,0.5-0.4,1-0.4,1.7c0,0.6,0.1,1.2,0.4,1.7c0.3,0.5,0.6,0.8,1.1,1.1
			c0.5,0.3,1,0.4,1.5,0.4C433.7,95.1,434.4,94.8,434.9,94.2z"/>
		<path fill="#838383" d="M445.8,86.8V89c-0.2,0-0.4-0.1-0.5-0.1c-0.9,0-1.6,0.3-2.1,0.8c-0.5,0.5-0.8,1.3-0.8,2.3V97H440v-10h2.2
			v1.5C442.9,87.3,444.1,86.8,445.8,86.8z"/>
		<path fill="#838383" d="M449.1,96.4c-0.8-0.4-1.5-1-1.9-1.8c-0.5-0.8-0.7-1.7-0.7-2.7c0-1,0.2-1.9,0.7-2.7
			c0.5-0.8,1.1-1.4,1.9-1.8c0.8-0.4,1.7-0.7,2.7-0.7c1,0,2,0.2,2.8,0.7c0.8,0.4,1.5,1,1.9,1.8c0.5,0.8,0.7,1.7,0.7,2.7
			c0,1-0.2,1.9-0.7,2.7c-0.5,0.8-1.1,1.4-1.9,1.8c-0.8,0.4-1.7,0.7-2.8,0.7C450.9,97.1,449.9,96.9,449.1,96.4z M454,94.2
			c0.6-0.6,0.8-1.3,0.8-2.3c0-0.9-0.3-1.7-0.8-2.3c-0.6-0.6-1.3-0.9-2.1-0.9c-0.9,0-1.6,0.3-2.1,0.9c-0.6,0.6-0.8,1.3-0.8,2.3
			c0,0.9,0.3,1.7,0.8,2.3c0.6,0.6,1.3,0.9,2.1,0.9C452.7,95.1,453.5,94.8,454,94.2z"/>
		<path fill="#838383" d="M469,83v14h-2.3v-1.3c-0.4,0.5-0.9,0.8-1.4,1.1c-0.6,0.2-1.2,0.4-1.9,0.4c-1,0-1.8-0.2-2.6-0.6
			c-0.8-0.4-1.4-1-1.8-1.8c-0.4-0.8-0.7-1.7-0.7-2.7c0-1,0.2-1.9,0.7-2.7c0.4-0.8,1-1.4,1.8-1.8c0.8-0.4,1.6-0.6,2.6-0.6
			c0.7,0,1.3,0.1,1.8,0.3c0.6,0.2,1,0.6,1.4,1V83H469z M465.2,94.7c0.5-0.3,0.8-0.6,1.1-1.1c0.3-0.5,0.4-1,0.4-1.7
			c0-0.6-0.1-1.2-0.4-1.7c-0.3-0.5-0.6-0.8-1.1-1.1c-0.5-0.3-1-0.4-1.5-0.4s-1.1,0.1-1.5,0.4c-0.5,0.3-0.8,0.6-1.1,1.1
			c-0.3,0.5-0.4,1-0.4,1.7c0,0.6,0.1,1.2,0.4,1.7c0.3,0.5,0.6,0.8,1.1,1.1c0.5,0.3,1,0.4,1.5,0.4S464.7,95,465.2,94.7z"/>
		<path fill="#838383" d="M481.4,86.9v10h-2.2v-1.3c-0.4,0.5-0.8,0.8-1.4,1c-0.6,0.2-1.2,0.4-1.8,0.4c-1.3,0-2.4-0.4-3.2-1.1
			c-0.8-0.7-1.2-1.9-1.2-3.3v-5.7h2.4v5.4c0,0.9,0.2,1.6,0.6,2c0.4,0.4,1,0.7,1.7,0.7c0.8,0,1.5-0.3,2-0.8c0.5-0.5,0.7-1.3,0.7-2.2
			v-5.1H481.4z"/>
		<path fill="#838383" d="M485.9,96.4c-0.8-0.4-1.5-1-1.9-1.8c-0.5-0.8-0.7-1.7-0.7-2.7c0-1,0.2-1.9,0.7-2.7
			c0.5-0.8,1.1-1.4,1.9-1.8c0.8-0.4,1.8-0.7,2.8-0.7c1,0,1.9,0.2,2.6,0.6c0.7,0.4,1.3,1,1.7,1.7l-1.8,1.1c-0.3-0.5-0.6-0.8-1.1-1
			c-0.4-0.2-0.9-0.3-1.4-0.3c-0.9,0-1.6,0.3-2.2,0.9c-0.6,0.6-0.9,1.3-0.9,2.3c0,1,0.3,1.7,0.9,2.3s1.3,0.9,2.2,0.9
			c0.5,0,1-0.1,1.4-0.3c0.4-0.2,0.8-0.6,1.1-1l1.8,1.1c-0.4,0.8-1,1.3-1.7,1.7c-0.7,0.4-1.6,0.6-2.6,0.6
			C487.7,97.1,486.7,96.9,485.9,96.4z"/>
		<path fill="#838383" d="M500.8,96.4c-0.3,0.2-0.6,0.4-1,0.5c-0.4,0.1-0.8,0.2-1.3,0.2c-1.1,0-2-0.3-2.6-0.9
			c-0.6-0.6-0.9-1.4-0.9-2.5v-4.8h-1.7V87h1.7v-2.3h2.4V87h2.7v1.9h-2.7v4.8c0,0.5,0.1,0.9,0.4,1.1c0.2,0.3,0.6,0.4,1,0.4
			c0.5,0,1-0.1,1.3-0.4L500.8,96.4z"/>
		<path fill="#838383" d="M503.1,96.8c-0.8-0.2-1.4-0.5-1.9-0.8l0.9-1.8c0.5,0.3,1,0.5,1.6,0.7c0.6,0.2,1.3,0.3,1.9,0.3
			c1.4,0,2.1-0.4,2.1-1.1c0-0.4-0.2-0.6-0.5-0.7c-0.4-0.1-0.9-0.3-1.7-0.4c-0.8-0.1-1.5-0.3-2-0.4c-0.5-0.2-1-0.4-1.4-0.9
			c-0.4-0.4-0.6-1-0.6-1.7c0-1,0.4-1.7,1.2-2.3c0.8-0.6,1.9-0.9,3.2-0.9c0.7,0,1.4,0.1,2.1,0.2c0.7,0.2,1.3,0.4,1.7,0.6l-0.9,1.8
			c-0.9-0.5-1.8-0.8-2.9-0.8c-0.7,0-1.2,0.1-1.6,0.3c-0.4,0.2-0.5,0.5-0.5,0.8c0,0.4,0.2,0.6,0.6,0.8c0.4,0.2,1,0.3,1.8,0.4
			c0.8,0.1,1.5,0.3,2,0.4c0.5,0.2,1,0.4,1.3,0.8c0.4,0.4,0.6,0.9,0.6,1.7c0,0.9-0.4,1.7-1.2,2.3c-0.8,0.6-1.9,0.8-3.3,0.8
			C504.7,97.1,503.9,97,503.1,96.8z"/>
		<path fill="#838383" d="M513.6,94.4c0.3,0.3,0.4,0.7,0.4,1.1c0,0.2,0,0.4-0.1,0.6c-0.1,0.2-0.2,0.5-0.3,1l-1,2.7h-1.5l0.8-2.9
			c-0.3-0.1-0.5-0.3-0.6-0.5c-0.2-0.2-0.2-0.5-0.2-0.9c0-0.5,0.1-0.8,0.4-1.1c0.3-0.3,0.7-0.4,1.1-0.4
			C512.9,94,513.3,94.1,513.6,94.4z"/>
		<path fill="#838383" d="M530.1,86.9l-4.7,10.9c-0.4,1.1-1,1.9-1.6,2.3c-0.6,0.4-1.4,0.7-2.3,0.7c-0.5,0-1-0.1-1.5-0.2
			s-0.9-0.4-1.2-0.7l0.9-1.7c0.2,0.2,0.5,0.4,0.8,0.5c0.3,0.1,0.6,0.2,0.9,0.2c0.4,0,0.8-0.1,1-0.3c0.3-0.2,0.5-0.6,0.7-1.1l0.2-0.4
			l-4.4-10.1h2.4l3.2,7.4l3.2-7.4H530.1z"/>
		<path fill="#838383" d="M540.4,92.7h-7.9c0.1,0.7,0.5,1.3,1.1,1.8c0.6,0.4,1.3,0.6,2.2,0.6c1.1,0,2-0.4,2.7-1.1l1.3,1.4
			c-0.5,0.5-1,0.9-1.7,1.2c-0.7,0.3-1.5,0.4-2.3,0.4c-1.1,0-2.1-0.2-2.9-0.7c-0.8-0.4-1.5-1-1.9-1.8c-0.5-0.8-0.7-1.7-0.7-2.7
			c0-1,0.2-1.9,0.7-2.6c0.4-0.8,1.1-1.4,1.9-1.8c0.8-0.4,1.7-0.7,2.7-0.7c1,0,1.9,0.2,2.6,0.6c0.8,0.4,1.4,1,1.8,1.8
			c0.4,0.8,0.6,1.7,0.6,2.7C540.4,92.2,540.4,92.4,540.4,92.7z M533.4,89.4c-0.5,0.4-0.8,1-1,1.8h5.7c-0.1-0.7-0.4-1.3-0.9-1.8
			c-0.5-0.5-1.2-0.7-1.9-0.7C534.6,88.7,533.9,88.9,533.4,89.4z"/>
		<path fill="#838383" d="M548.3,96.4c-0.3,0.2-0.6,0.4-1,0.5c-0.4,0.1-0.8,0.2-1.3,0.2c-1.1,0-2-0.3-2.6-0.9
			c-0.6-0.6-0.9-1.4-0.9-2.5v-4.8h-1.7V87h1.7v-2.3h2.4V87h2.7v1.9H545v4.8c0,0.5,0.1,0.9,0.4,1.1c0.2,0.3,0.6,0.4,1,0.4
			c0.5,0,1-0.1,1.3-0.4L548.3,96.4z"/>
		<path fill="#838383" d="M549.7,96.7c-0.3-0.3-0.5-0.7-0.5-1.1c0-0.5,0.1-0.8,0.4-1.1c0.3-0.3,0.7-0.4,1.1-0.4
			c0.4,0,0.8,0.1,1.1,0.4c0.3,0.3,0.4,0.7,0.4,1.1c0,0.5-0.2,0.8-0.5,1.1c-0.3,0.3-0.7,0.4-1.1,0.4C550.4,97.1,550,96.9,549.7,96.7z
			"/>
		<path fill="#838383" d="M559.3,83.8h2.4v11.1h6.9V97h-9.3V83.8z"/>
		<path fill="#838383" d="M579.3,92.7h-7.9c0.1,0.7,0.5,1.3,1.1,1.8c0.6,0.4,1.3,0.6,2.2,0.6c1.1,0,2-0.4,2.7-1.1l1.3,1.4
			c-0.5,0.5-1,0.9-1.7,1.2c-0.7,0.3-1.5,0.4-2.3,0.4c-1.1,0-2.1-0.2-2.9-0.7c-0.8-0.4-1.5-1-1.9-1.8c-0.5-0.8-0.7-1.7-0.7-2.7
			c0-1,0.2-1.9,0.7-2.6c0.4-0.8,1.1-1.4,1.9-1.8c0.8-0.4,1.7-0.7,2.7-0.7c1,0,1.9,0.2,2.6,0.6c0.8,0.4,1.4,1,1.8,1.8
			c0.4,0.8,0.6,1.7,0.6,2.7C579.3,92.2,579.3,92.4,579.3,92.7z M572.4,89.4c-0.5,0.4-0.8,1-1,1.8h5.7c-0.1-0.7-0.4-1.3-0.9-1.8
			c-0.5-0.5-1.2-0.7-1.9-0.7C573.5,88.7,572.9,88.9,572.4,89.4z"/>
		<path fill="#838383" d="M587.3,96.4c-0.3,0.2-0.6,0.4-1,0.5c-0.4,0.1-0.8,0.2-1.3,0.2c-1.1,0-2-0.3-2.6-0.9
			c-0.6-0.6-0.9-1.4-0.9-2.5v-4.8h-1.7V87h1.7v-2.3h2.4V87h2.7v1.9h-2.7v4.8c0,0.5,0.1,0.9,0.4,1.1c0.2,0.3,0.6,0.4,1,0.4
			c0.5,0,1-0.1,1.3-0.4L587.3,96.4z"/>
		<path fill="#838383" d="M590.7,83.3c0.3,0.3,0.4,0.7,0.4,1.1c0,0.2,0,0.4-0.1,0.7c-0.1,0.2-0.2,0.5-0.3,1l-1,2.7h-1.5l0.8-2.9
			c-0.3-0.1-0.5-0.3-0.6-0.5c-0.2-0.2-0.2-0.5-0.2-0.9c0-0.5,0.1-0.8,0.4-1.1c0.3-0.3,0.7-0.4,1.1-0.4C590,82.9,590.4,83,590.7,83.3
			z"/>
		<path fill="#838383" d="M593.4,96.8c-0.8-0.2-1.4-0.5-1.9-0.8l0.9-1.8c0.5,0.3,1,0.5,1.6,0.7c0.6,0.2,1.3,0.3,1.9,0.3
			c1.4,0,2.1-0.4,2.1-1.1c0-0.4-0.2-0.6-0.5-0.7c-0.4-0.1-0.9-0.3-1.7-0.4c-0.8-0.1-1.5-0.3-2-0.4c-0.5-0.2-1-0.4-1.4-0.9
			c-0.4-0.4-0.6-1-0.6-1.7c0-1,0.4-1.7,1.2-2.3c0.8-0.6,1.9-0.9,3.2-0.9c0.7,0,1.4,0.1,2.1,0.2c0.7,0.2,1.3,0.4,1.7,0.6l-0.9,1.8
			c-0.9-0.5-1.8-0.8-2.9-0.8c-0.7,0-1.2,0.1-1.6,0.3c-0.4,0.2-0.5,0.5-0.5,0.8c0,0.4,0.2,0.6,0.6,0.8c0.4,0.2,1,0.3,1.8,0.4
			c0.8,0.1,1.5,0.3,2,0.4c0.5,0.2,1,0.4,1.3,0.8c0.4,0.4,0.6,0.9,0.6,1.7c0,0.9-0.4,1.7-1.2,2.3c-0.8,0.6-1.9,0.8-3.3,0.8
			C595,97.1,594.2,97,593.4,96.8z"/>
		<path fill="#838383" d="M615.6,93.9H609l-1.3,3h-2.5l5.9-13.2h2.4l5.9,13.2h-2.6L615.6,93.9z M614.8,92l-2.5-5.8l-2.5,5.8H614.8z"
			/>
		<path fill="#838383" d="M630.3,83v14h-2.3v-1.3c-0.4,0.5-0.9,0.8-1.4,1.1c-0.6,0.2-1.2,0.4-1.9,0.4c-1,0-1.8-0.2-2.6-0.6
			c-0.8-0.4-1.4-1-1.8-1.8c-0.4-0.8-0.7-1.7-0.7-2.7c0-1,0.2-1.9,0.7-2.7c0.4-0.8,1-1.4,1.8-1.8c0.8-0.4,1.6-0.6,2.6-0.6
			c0.7,0,1.3,0.1,1.8,0.3c0.6,0.2,1,0.6,1.4,1V83H630.3z M626.5,94.7c0.5-0.3,0.8-0.6,1.1-1.1c0.3-0.5,0.4-1,0.4-1.7
			c0-0.6-0.1-1.2-0.4-1.7c-0.3-0.5-0.6-0.8-1.1-1.1c-0.5-0.3-1-0.4-1.5-0.4c-0.6,0-1.1,0.1-1.5,0.4c-0.5,0.3-0.8,0.6-1.1,1.1
			c-0.3,0.5-0.4,1-0.4,1.7c0,0.6,0.1,1.2,0.4,1.7c0.3,0.5,0.6,0.8,1.1,1.1c0.5,0.3,1,0.4,1.5,0.4C625.6,95.1,626.1,95,626.5,94.7z"
			/>
		<path fill="#838383" d="M642.9,83v14h-2.3v-1.3c-0.4,0.5-0.9,0.8-1.4,1.1c-0.6,0.2-1.2,0.4-1.9,0.4c-1,0-1.8-0.2-2.6-0.6
			c-0.8-0.4-1.4-1-1.8-1.8c-0.4-0.8-0.7-1.7-0.7-2.7c0-1,0.2-1.9,0.7-2.7c0.4-0.8,1-1.4,1.8-1.8c0.8-0.4,1.6-0.6,2.6-0.6
			c0.7,0,1.3,0.1,1.8,0.3c0.6,0.2,1,0.6,1.4,1V83H642.9z M639.1,94.7c0.5-0.3,0.8-0.6,1.1-1.1c0.3-0.5,0.4-1,0.4-1.7
			c0-0.6-0.1-1.2-0.4-1.7c-0.3-0.5-0.6-0.8-1.1-1.1c-0.5-0.3-1-0.4-1.5-0.4c-0.6,0-1.1,0.1-1.5,0.4c-0.5,0.3-0.8,0.6-1.1,1.1
			c-0.3,0.5-0.4,1-0.4,1.7c0,0.6,0.1,1.2,0.4,1.7c0.3,0.5,0.6,0.8,1.1,1.1c0.5,0.3,1,0.4,1.5,0.4C638.1,95.1,638.6,95,639.1,94.7z"
			/>
		<path fill="#838383" d="M656.4,96.4c-0.3,0.2-0.6,0.4-1,0.5c-0.4,0.1-0.8,0.2-1.3,0.2c-1.1,0-2-0.3-2.6-0.9
			c-0.6-0.6-0.9-1.4-0.9-2.5v-4.8h-1.7V87h1.7v-2.3h2.4V87h2.7v1.9h-2.7v4.8c0,0.5,0.1,0.9,0.4,1.1c0.2,0.3,0.6,0.4,1,0.4
			c0.5,0,1-0.1,1.3-0.4L656.4,96.4z"/>
		<path fill="#838383" d="M666.7,87.9c0.8,0.7,1.1,1.8,1.1,3.3V97h-2.4v-5.5c0-0.9-0.2-1.5-0.6-2c-0.4-0.4-1-0.7-1.8-0.7
			c-0.9,0-1.5,0.3-2.1,0.8c-0.5,0.5-0.8,1.3-0.8,2.2V97H658V83h2.4v5.1c0.4-0.4,0.9-0.7,1.4-1c0.6-0.2,1.2-0.3,1.9-0.3
			C665,86.8,666,87.2,666.7,87.9z"/>
		<path fill="#838383" d="M680,92.7h-7.9c0.1,0.7,0.5,1.3,1.1,1.8c0.6,0.4,1.3,0.6,2.2,0.6c1.1,0,2-0.4,2.7-1.1l1.3,1.4
			c-0.5,0.5-1,0.9-1.7,1.2c-0.7,0.3-1.5,0.4-2.3,0.4c-1.1,0-2.1-0.2-2.9-0.7c-0.8-0.4-1.5-1-1.9-1.8c-0.5-0.8-0.7-1.7-0.7-2.7
			c0-1,0.2-1.9,0.7-2.6c0.4-0.8,1.1-1.4,1.9-1.8c0.8-0.4,1.7-0.7,2.7-0.7c1,0,1.9,0.2,2.6,0.6c0.8,0.4,1.4,1,1.8,1.8
			c0.4,0.8,0.6,1.7,0.6,2.7C680,92.2,680,92.4,680,92.7z M673.1,89.4c-0.5,0.4-0.8,1-1,1.8h5.7c-0.1-0.7-0.4-1.3-0.9-1.8
			c-0.5-0.5-1.2-0.7-1.9-0.7C674.2,88.7,673.6,88.9,673.1,89.4z"/>
		<path fill="#838383" d="M697.6,87.9c0.7,0.7,1.1,1.8,1.1,3.3V97h-2.4v-5.5c0-0.9-0.2-1.5-0.6-2c-0.4-0.4-0.9-0.7-1.7-0.7
			c-0.8,0-1.4,0.3-1.9,0.8c-0.5,0.5-0.7,1.3-0.7,2.2V97h-2.4v-5.5c0-0.9-0.2-1.5-0.6-2c-0.4-0.4-0.9-0.7-1.7-0.7
			c-0.8,0-1.4,0.3-1.9,0.8c-0.5,0.5-0.7,1.3-0.7,2.2V97h-2.4v-10h2.2v1.3c0.4-0.5,0.8-0.8,1.4-1c0.6-0.2,1.2-0.4,1.9-0.4
			c0.8,0,1.4,0.1,2,0.4c0.6,0.3,1,0.7,1.4,1.3c0.4-0.5,0.9-0.9,1.6-1.2c0.7-0.3,1.4-0.4,2.2-0.4C695.9,86.8,696.9,87.2,697.6,87.9z"
			/>
		<path fill="#838383" d="M701,96.7c-0.3-0.3-0.5-0.7-0.5-1.1c0-0.5,0.1-0.8,0.4-1.1c0.3-0.3,0.7-0.4,1.1-0.4c0.4,0,0.8,0.1,1.1,0.4
			c0.3,0.3,0.4,0.7,0.4,1.1c0,0.5-0.2,0.8-0.5,1.1c-0.3,0.3-0.7,0.4-1.1,0.4C701.7,97.1,701.3,96.9,701,96.7z"/>
	</g>
	<path fill="#ED4798" d="M508.6,134.7h-52.7c-0.7,0-1.2-0.6-1.2-1.2v-21c0-0.7,0.6-1.2,1.2-1.2h52.7c0.7,0,1.2,0.6,1.2,1.2v21
		C509.9,134.2,509.3,134.7,508.6,134.7z"/>
	<g>
		<path fill="#FFFFFF" stroke="#FFFFFF" stroke-width="0.2" stroke-miterlimit="10" d="M468.8,123.9h-2.5v2.5h-1.5v-2.5h-2.5v-1.4
			h2.5V120h1.5v2.5h2.5V123.9z"/>
		<path fill="#FFFFFF" d="M481.3,125.9h-4.9l-1,2.3h-1.9l4.4-9.9h1.8l4.5,9.9h-1.9L481.3,125.9z M480.7,124.4l-1.9-4.3l-1.8,4.3
			H480.7z"/>
		<path fill="#FFFFFF" d="M492.6,117.7v10.5h-1.7v-1c-0.3,0.4-0.7,0.6-1.1,0.8c-0.4,0.2-0.9,0.3-1.4,0.3c-0.7,0-1.4-0.2-2-0.5
			c-0.6-0.3-1-0.8-1.4-1.4c-0.3-0.6-0.5-1.3-0.5-2c0-0.8,0.2-1.4,0.5-2s0.8-1,1.4-1.4c0.6-0.3,1.2-0.5,2-0.5c0.5,0,1,0.1,1.4,0.3
			c0.4,0.2,0.8,0.4,1.1,0.8v-3.9H492.6z M489.8,126.4c0.3-0.2,0.6-0.5,0.8-0.8c0.2-0.4,0.3-0.8,0.3-1.2c0-0.5-0.1-0.9-0.3-1.2
			c-0.2-0.4-0.5-0.6-0.8-0.8c-0.3-0.2-0.7-0.3-1.1-0.3c-0.4,0-0.8,0.1-1.1,0.3c-0.3,0.2-0.6,0.5-0.8,0.8c-0.2,0.4-0.3,0.8-0.3,1.2
			c0,0.5,0.1,0.9,0.3,1.2c0.2,0.4,0.5,0.6,0.8,0.8s0.7,0.3,1.1,0.3C489,126.7,489.4,126.6,489.8,126.4z"/>
		<path fill="#FFFFFF" d="M502.3,117.7v10.5h-1.7v-1c-0.3,0.4-0.7,0.6-1.1,0.8c-0.4,0.2-0.9,0.3-1.4,0.3c-0.7,0-1.4-0.2-2-0.5
			c-0.6-0.3-1-0.8-1.4-1.4c-0.3-0.6-0.5-1.3-0.5-2c0-0.8,0.2-1.4,0.5-2s0.8-1,1.4-1.4c0.6-0.3,1.2-0.5,2-0.5c0.5,0,1,0.1,1.4,0.3
			c0.4,0.2,0.8,0.4,1.1,0.8v-3.9H502.3z M499.5,126.4c0.3-0.2,0.6-0.5,0.8-0.8c0.2-0.4,0.3-0.8,0.3-1.2c0-0.5-0.1-0.9-0.3-1.2
			c-0.2-0.4-0.5-0.6-0.8-0.8c-0.3-0.2-0.7-0.3-1.1-0.3c-0.4,0-0.8,0.1-1.1,0.3c-0.3,0.2-0.6,0.5-0.8,0.8c-0.2,0.4-0.3,0.8-0.3,1.2
			c0,0.5,0.1,0.9,0.3,1.2c0.2,0.4,0.5,0.6,0.8,0.8s0.7,0.3,1.1,0.3C498.7,126.7,499.1,126.6,499.5,126.4z"/>
	</g>
	<g>
		<path fill="#838383" d="M526,126.8h-6.6l-1.3,3h-2.5l5.9-13.2h2.4l5.9,13.2h-2.6L526,126.8z M525.2,124.9l-2.5-5.8l-2.5,5.8H525.2
			z"/>
		<path fill="#838383" d="M539.2,120.4c0.8,0.4,1.4,1,1.8,1.8c0.4,0.8,0.7,1.7,0.7,2.7c0,1-0.2,1.9-0.7,2.7c-0.4,0.8-1,1.4-1.8,1.8
			c-0.8,0.4-1.6,0.6-2.6,0.6c-0.7,0-1.3-0.1-1.9-0.4c-0.6-0.2-1.1-0.6-1.4-1.1v1.3H531v-14h2.4v5.1c0.4-0.4,0.9-0.8,1.4-1
			c0.5-0.2,1.1-0.3,1.8-0.3C537.5,119.7,538.4,119.9,539.2,120.4z M538.4,127.1c0.6-0.6,0.8-1.3,0.8-2.3c0-0.9-0.3-1.7-0.8-2.3
			c-0.6-0.6-1.3-0.9-2.1-0.9c-0.6,0-1.1,0.1-1.5,0.4c-0.5,0.3-0.8,0.6-1.1,1.1c-0.3,0.5-0.4,1-0.4,1.7c0,0.6,0.1,1.2,0.4,1.7
			c0.3,0.5,0.6,0.8,1.1,1.1c0.5,0.3,1,0.4,1.5,0.4C537.2,128,537.9,127.7,538.4,127.1z"/>
		<path fill="#838383" d="M545.3,129.4c-0.8-0.4-1.5-1-1.9-1.8c-0.5-0.8-0.7-1.7-0.7-2.7c0-1,0.2-1.9,0.7-2.7
			c0.5-0.8,1.1-1.4,1.9-1.8c0.8-0.4,1.7-0.7,2.7-0.7c1,0,1.9,0.2,2.8,0.7c0.8,0.4,1.5,1,1.9,1.8c0.5,0.8,0.7,1.7,0.7,2.7
			c0,1-0.2,1.9-0.7,2.7c-0.5,0.8-1.1,1.4-1.9,1.8c-0.8,0.4-1.7,0.7-2.8,0.7C547,130,546.1,129.8,545.3,129.4z M550.2,127.1
			c0.6-0.6,0.8-1.3,0.8-2.3c0-0.9-0.3-1.7-0.8-2.3c-0.6-0.6-1.3-0.9-2.1-0.9c-0.9,0-1.6,0.3-2.1,0.9c-0.6,0.6-0.8,1.3-0.8,2.3
			c0,0.9,0.3,1.7,0.8,2.3c0.6,0.6,1.3,0.9,2.1,0.9C548.9,128,549.6,127.7,550.2,127.1z"/>
		<path fill="#838383" d="M564.4,119.8l-4.3,10h-2.4l-4.3-10h2.4l3.1,7.5l3.2-7.5H564.4z"/>
		<path fill="#838383" d="M574.6,125.6h-7.9c0.1,0.7,0.5,1.3,1.1,1.8c0.6,0.4,1.3,0.6,2.2,0.6c1.1,0,2-0.4,2.7-1.1l1.3,1.4
			c-0.5,0.5-1,0.9-1.7,1.2c-0.7,0.3-1.5,0.4-2.3,0.4c-1.1,0-2.1-0.2-2.9-0.7c-0.8-0.4-1.5-1-1.9-1.8c-0.5-0.8-0.7-1.7-0.7-2.7
			c0-1,0.2-1.9,0.7-2.6c0.4-0.8,1.1-1.4,1.9-1.8c0.8-0.4,1.7-0.7,2.7-0.7c1,0,1.9,0.2,2.6,0.6c0.8,0.4,1.4,1,1.8,1.8
			c0.4,0.8,0.6,1.7,0.6,2.7C574.7,125.1,574.6,125.3,574.6,125.6z M567.7,122.3c-0.5,0.4-0.8,1-1,1.8h5.7c-0.1-0.7-0.4-1.3-0.9-1.8
			c-0.5-0.5-1.2-0.7-1.9-0.7C568.8,121.6,568.2,121.8,567.7,122.3z"/>
	</g>
	<g>
		<path fill="#838383" d="M374.7,129.2c-1.1-0.6-1.9-1.4-2.5-2.4c-0.6-1-0.9-2.2-0.9-3.5s0.3-2.5,0.9-3.5c0.6-1,1.5-1.8,2.5-2.4
			c1.1-0.6,2.3-0.9,3.6-0.9c1.1,0,2.1,0.2,3,0.6c0.9,0.4,1.6,0.9,2.3,1.6l-1.6,1.5c-1-1-2.1-1.5-3.5-1.5c-0.9,0-1.7,0.2-2.4,0.6
			c-0.7,0.4-1.3,0.9-1.7,1.6c-0.4,0.7-0.6,1.5-0.6,2.4c0,0.9,0.2,1.7,0.6,2.4c0.4,0.7,1,1.3,1.7,1.6c0.7,0.4,1.5,0.6,2.4,0.6
			c1.4,0,2.6-0.5,3.5-1.6l1.6,1.5c-0.6,0.7-1.4,1.3-2.3,1.6c-0.9,0.4-1.9,0.6-3,0.6C376.9,130.1,375.7,129.8,374.7,129.2z"/>
		<path fill="#838383" d="M385.2,115.9h2.4v14h-2.4V115.9z"/>
		<path fill="#838383" d="M390.4,117.8c-0.3-0.3-0.4-0.6-0.4-1c0-0.4,0.1-0.7,0.4-1c0.3-0.3,0.6-0.4,1.1-0.4c0.4,0,0.8,0.1,1.1,0.4
			c0.3,0.3,0.4,0.6,0.4,1c0,0.4-0.1,0.8-0.4,1c-0.3,0.3-0.6,0.4-1.1,0.4C391.1,118.2,390.7,118,390.4,117.8z M390.3,119.8h2.4v10
			h-2.4V119.8z"/>
		<path fill="#838383" d="M397.2,129.4c-0.8-0.4-1.5-1-1.9-1.8c-0.5-0.8-0.7-1.7-0.7-2.7c0-1,0.2-1.9,0.7-2.7
			c0.5-0.8,1.1-1.4,1.9-1.8c0.8-0.4,1.8-0.7,2.8-0.7c1,0,1.9,0.2,2.6,0.6c0.7,0.4,1.3,1,1.7,1.7l-1.8,1.1c-0.3-0.5-0.6-0.8-1.1-1
			c-0.4-0.2-0.9-0.3-1.4-0.3c-0.9,0-1.6,0.3-2.2,0.9c-0.6,0.6-0.9,1.3-0.9,2.3c0,1,0.3,1.7,0.9,2.3s1.3,0.9,2.2,0.9
			c0.5,0,1-0.1,1.4-0.3c0.4-0.2,0.8-0.6,1.1-1l1.8,1.1c-0.4,0.8-1,1.3-1.7,1.7c-0.7,0.4-1.6,0.6-2.6,0.6
			C398.9,130,398,129.8,397.2,129.4z"/>
		<path fill="#838383" d="M409.9,125.6l-1.8,1.7v2.7h-2.4v-14h2.4v8.4l4.9-4.5h2.8l-4.2,4.2l4.6,5.8h-2.9L409.9,125.6z"/>
		<path fill="#838383" d="M425,129.2c-1.1-0.6-1.9-1.4-2.5-2.4c-0.6-1-0.9-2.2-0.9-3.5c0-1.3,0.3-2.4,0.9-3.5c0.6-1,1.5-1.8,2.5-2.4
			c1.1-0.6,2.3-0.9,3.6-0.9c1.3,0,2.6,0.3,3.6,0.9c1.1,0.6,1.9,1.4,2.5,2.4c0.6,1,0.9,2.2,0.9,3.5s-0.3,2.5-0.9,3.5
			c-0.6,1-1.5,1.8-2.5,2.4c-1.1,0.6-2.3,0.9-3.6,0.9C427.3,130.1,426.1,129.8,425,129.2z M431,127.3c0.7-0.4,1.3-0.9,1.7-1.7
			c0.4-0.7,0.6-1.5,0.6-2.4c0-0.9-0.2-1.7-0.6-2.4c-0.4-0.7-1-1.3-1.7-1.7c-0.7-0.4-1.5-0.6-2.4-0.6c-0.9,0-1.7,0.2-2.4,0.6
			c-0.7,0.4-1.3,0.9-1.7,1.7c-0.4,0.7-0.6,1.5-0.6,2.4c0,0.9,0.2,1.7,0.6,2.4c0.4,0.7,1,1.3,1.7,1.7c0.7,0.4,1.5,0.6,2.4,0.6
			C429.5,127.9,430.3,127.7,431,127.3z"/>
		<path fill="#838383" d="M446.4,120.8c0.8,0.7,1.1,1.8,1.1,3.3v5.8h-2.4v-5.5c0-0.9-0.2-1.5-0.6-2c-0.4-0.4-1-0.7-1.8-0.7
			c-0.9,0-1.5,0.3-2.1,0.8c-0.5,0.5-0.8,1.3-0.8,2.2v5.1h-2.4v-10h2.2v1.3c0.4-0.5,0.9-0.8,1.5-1.1c0.6-0.2,1.3-0.4,2-0.4
			C444.7,119.7,445.7,120.1,446.4,120.8z"/>
	</g>
	<g>
		<path fill-rule="evenodd" clip-rule="evenodd" fill="#FFFFFF" d="M478,54c29.5-26,62.7-43.5,99.5-48.5
			C642.7-3.2,709.5,39.8,764,49c51.5,8.7,88.8,4.4,118-6c26-9.3,49.4-23.9,70-43"/>
		<g>
			<g>
				<path fill="none" stroke="#E5E9EA" stroke-width="1.5" stroke-miterlimit="10" stroke-dasharray="4,4" d="M478,54
					c29.5-26,62.7-43.5,99.5-48.5C642.7-3.2,709.5,39.8,764,49c51.5,8.7,88.8,4.4,118-6c23.2-8.3,44.4-20.8,63.2-37"/>
				<g>
					<path fill="#E5E9EA" d="M952,0c-2.1,4-4.3,9.5-4.9,13.8l-2.8-7.1l-6.7-3.6C942,3.1,947.8,1.6,952,0z"/>
				</g>
			</g>
		</g>
	</g>
	<path fill-rule="evenodd" clip-rule="evenodd" fill="#FFFFFF" d="M474,54c-20.6-19.1-44-33.7-70-43C374.8,0.6,337.5-3.7,286,5
		c-54.5,9.2-121.3,52.2-186.5,43.5C62.7,43.5,29.5,26,0,0"/>
</g>
</svg>
