<svg xmlns="http://www.w3.org/2000/svg" width="512" height="512" viewBox="0 0 512 512"><g transform="translate(-1344 -6488)"><rect width="512" height="512" transform="translate(1344 6488)" fill="none"/><g transform="translate(8 19.094)"><path d="M124.041,49.85,120.37,48.26l1.591-3.671a1.928,1.928,0,0,0-.979-2.447,1.788,1.788,0,0,0-2.447.979l-1.591,3.671L113.273,45.2a1.864,1.864,0,0,0-1.468,3.426l3.671,1.591-1.591,3.671a1.864,1.864,0,0,0,3.426,1.468l1.591-3.671,3.671,1.591a1.886,1.886,0,0,0,2.447-.979,2.057,2.057,0,0,0-.979-2.447" transform="translate(1634.856 6703.524)" fill="#e4e8ea"/><path d="M111.516,47.9l2.764-1.2-1.2-2.764a1.452,1.452,0,0,1,.737-1.842,1.346,1.346,0,0,1,1.842.737l1.2,2.764,2.764-1.2a1.4,1.4,0,0,1,1.105,2.579l-2.764,1.2,1.2,2.764a1.4,1.4,0,1,1-2.579,1.105l-1.2-2.764-2.764,1.2a1.42,1.42,0,0,1-1.842-.737,1.549,1.549,0,0,1,.737-1.842" transform="translate(1361.314 6646.051)" fill="#e4e8ea"/><path d="M111.525,47.962l2.794-1.211-1.211-2.794a1.467,1.467,0,0,1,.745-1.863,1.361,1.361,0,0,1,1.863.745l1.211,2.794,2.794-1.211a1.418,1.418,0,0,1,1.118,2.608l-2.794,1.211,1.211,2.794a1.418,1.418,0,1,1-2.608,1.118l-1.211-2.794-2.794,1.211a1.435,1.435,0,0,1-1.863-.745,1.566,1.566,0,0,1,.745-1.863" transform="translate(1609.314 6762.996)" fill="#e4e8ea"/><path d="M111.293,46.3l2.022-.876-.876-2.022a1.062,1.062,0,0,1,.539-1.348.985.985,0,0,1,1.348.539l.876,2.022,2.022-.876a1.026,1.026,0,1,1,.809,1.887l-2.022.876.876,2.022a1.026,1.026,0,0,1-1.887.809l-.876-2.022-2.022.876a1.039,1.039,0,0,1-1.348-.539,1.133,1.133,0,0,1,.539-1.348" transform="translate(1329.314 6806.051)" fill="#e4e8ea"/><path d="M122.6,49l-3.274-1.419,1.419-3.274a1.72,1.72,0,0,0-.873-2.183,1.6,1.6,0,0,0-2.183.873l-1.419,3.274-3.274-1.419a1.662,1.662,0,1,0-1.31,3.056l3.274,1.419L113.539,52.6a1.662,1.662,0,0,0,3.056,1.31l1.419-3.274,3.274,1.419a1.682,1.682,0,0,0,2.183-.873A1.835,1.835,0,0,0,122.6,49" transform="translate(1401.314 6825.094)" fill="#e4e8ea"/><path d="M121.648,48.434l-3.013-1.306,1.306-3.013a1.583,1.583,0,0,0-.8-2.009,1.467,1.467,0,0,0-2.009.8l-1.306,3.013-3.013-1.306A1.53,1.53,0,1,0,111.6,47.43l3.013,1.306-1.306,3.013a1.53,1.53,0,0,0,2.812,1.205l1.306-3.013,3.013,1.306a1.548,1.548,0,0,0,2.009-.8,1.688,1.688,0,0,0-.8-2.009" transform="translate(1313.314 6674.128)" fill="#e4e8ea"/><path d="M6.322,0A6.347,6.347,0,0,0,0,6.322a6.281,6.281,0,0,0,6.322,6.322,6.281,6.281,0,0,0,6.322-6.322A6.281,6.281,0,0,0,6.322,0m0,9.742A3.524,3.524,0,1,1,9.846,6.218,3.495,3.495,0,0,1,6.322,9.742" transform="translate(1728.043 6689.784) rotate(-141)" fill="#e4e8ea"/><path d="M65.537,84.206A5.057,5.057,0,0,0,60.5,89.243a5.037,5.037,0,1,0,5.037-5.037m0,7.761a2.807,2.807,0,1,1,2.807-2.807,2.784,2.784,0,0,1-2.807,2.807" transform="translate(1659.5 6785.721)" fill="#e4e8ea"/><path d="M64.5,84.206a4.016,4.016,0,0,0-4,4,4,4,0,1,0,4-4m0,6.164a2.23,2.23,0,1,1,2.23-2.23,2.211,2.211,0,0,1-2.23,2.23" transform="translate(1371.5 6715.794)" fill="#e4e8ea"/><path d="M68.468,84.206A8,8,0,0,0,60.5,92.174a7.968,7.968,0,1,0,7.968-7.968m0,12.279a4.441,4.441,0,1,1,4.441-4.441,4.4,4.4,0,0,1-4.441,4.441" transform="translate(1403.563 6675.857)" fill="#e4e8ea"/><path d="M66.61,84.206a6.134,6.134,0,0,0-6.11,6.11,6.11,6.11,0,1,0,6.11-6.11m0,9.415a3.406,3.406,0,1,1,3.406-3.406,3.377,3.377,0,0,1-3.406,3.406" transform="translate(1587.5 6787.794)" fill="#e4e8ea"/><g transform="translate(-7 -18.094)"><g transform="translate(-2796.643 7011.287)"><path d="M4489.863-291.3v113.075a9.6,9.6,0,0,1-9.566,9.531c-22.2.034-59.369,4.668-85.044,31.5h-.023c-25.652-26.83-62.813-31.464-85.044-31.5a9.571,9.571,0,0,1-9.543-9.531V-291.3a9.5,9.5,0,0,1,2.792-6.773,9.584,9.584,0,0,1,6.693-2.769h.023c22.265.057,62.734,5.206,83.8,39.129a8.786,8.786,0,0,1,1.3,4.486,8.537,8.537,0,0,1,1.281-4.486c21.064-33.935,61.532-39.072,83.8-39.129h.023a9.491,9.491,0,0,1,6.682,2.769A9.552,9.552,0,0,1,4489.863-291.3Z" fill="#fff" stroke="#e4e8ea" stroke-linecap="round" stroke-linejoin="round" stroke-width="6"/><path d="M4477.943-314.947V-189.9a8.388,8.388,0,0,1-8.36,8.33c-19.4.03-51.89,4.08-74.33,27.53h-.02c-22.42-23.45-54.9-27.5-74.33-27.53a8.365,8.365,0,0,1-8.34-8.33v-125.05a8.3,8.3,0,0,1,2.44-5.92,8.384,8.384,0,0,1,5.85-2.42h.02c19.46.05,54.83,4.55,73.24,34.2a7.672,7.672,0,0,1,1.14,3.92,7.459,7.459,0,0,1,1.12-3.92c18.41-29.66,53.78-34.15,73.24-34.2h.02a8.3,8.3,0,0,1,5.84,2.42A8.348,8.348,0,0,1,4477.943-314.947Z" fill="#e4e8ea"/></g><g transform="translate(1512 6584)"><path d="M3573.909-184.327v-.041a5.019,5.019,0,0,0-5.015-5.014h-17.562a5.015,5.015,0,0,0-5.015,5.014,5.015,5.015,0,0,0,5.015,5.014h17.562A4.993,4.993,0,0,0,3573.909-184.327Z" transform="translate(-3546.317 261.382)" fill="#ed7c8a"/><path d="M3569.043-189.67a5,5,0,0,0,7.074-.019,5,5,0,0,0-.02-7.073l-12.44-12.44a5.016,5.016,0,0,0-7.092.043,5.016,5.016,0,0,0,0,7.049Z" transform="translate(-3531.24 234.528)" fill="#ed7c8a"/><path d="M3594.535-189.656a5.1,5.1,0,0,0,3.566,1.446,5.006,5.006,0,0,0,3.527-1.446l12.44-12.44a5.013,5.013,0,0,0-.046-7.092,5.012,5.012,0,0,0-7.045,0l-12.441,12.44a5,5,0,0,0-.024,7.068Z" transform="translate(-3466.239 234.551)" fill="#ed7c8a"/><path d="M3581.4-191.859a5.021,5.021,0,0,0,5.015-5.014v-17.563a5.013,5.013,0,0,0-5.015-5.014,5.012,5.012,0,0,0-5.011,5.014v17.563A5.015,5.015,0,0,0,3581.4-191.859Z" transform="translate(-3494.803 219.45)" fill="#ed7c8a"/><path d="M3650.77-159.45a44.341,44.341,0,0,1-12.48,30.849,40.923,40.923,0,0,0-10.935,22.14,6.928,6.928,0,0,1-1.411,3.256H3586.6a7.483,7.483,0,0,1-1.356-3.229,41.168,41.168,0,0,0-10.988-22.194,44.476,44.476,0,0,1,1.221-62.865,44.475,44.475,0,0,1,62.864,1.221A44.492,44.492,0,0,1,3650.77-159.45Z" transform="translate(-3519.714 246.083)" fill="indigo"/><path d="M3566.409-177.931a21.38,21.38,0,0,1,21.357-21.359" transform="translate(-3503.657 261.769)" fill="none" stroke="#fff" stroke-linecap="round" stroke-miterlimit="10" stroke-width="6"/><path d="M3622.56-189.382h-17.566a5.016,5.016,0,0,0-5.013,5.014,5.016,5.016,0,0,0,5.013,5.014h17.566a5.013,5.013,0,0,0,5.011-5.014A5.013,5.013,0,0,0,3622.56-189.382Z" transform="translate(-3454.382 261.382)" fill="#ed7c8a"/><path d="M3611.81-166.79v16.659a11.14,11.14,0,0,1-11.124,11.124h-18.912a11.122,11.122,0,0,1-11.124-11.124V-166.79Z" transform="translate(-3504.629 315.79)" fill="indigo"/></g></g></g></g></svg>