<?xml version="1.0" encoding="utf-8"?>
<!-- Generator: Adobe Illustrator 24.1.3, SVG Export Plug-In . SVG Version: 6.00 Build 0)  -->
<svg version="1.1" id="Layer_1" xmlns="http://www.w3.org/2000/svg" xmlns:xlink="http://www.w3.org/1999/xlink" x="0px" y="0px"
	 width="150px" height="140px" viewBox="0 0 150 140" enable-background="new 0 0 150 140" xml:space="preserve">
<g>
	<ellipse fill="#F1F1F3" cx="75" cy="125.1" rx="75" ry="12.2"/>
	<g>
		<path fill="#525A7E" d="M106,98c-0.1-0.1-0.3-0.2-0.4-0.2s-0.3,0.1-0.4,0.2c-0.2,0.2-0.2,0.6,0,0.9l2.8,2.8
			c0.1,0.1,0.3,0.2,0.4,0.2c0.3,0,0.4-0.1,0.4-0.1c0.3-0.3,0.3-0.6,0-0.9L106,98z"/>
		<path fill="#525A7E" d="M110.6,94.4c-0.1-0.1-0.3-0.2-0.4-0.2c-0.2,0-0.3,0.1-0.4,0.2c-0.2,0.2-0.2,0.6,0,0.9l2.8,2.8
			c0.3,0.3,0.7,0.2,0.8,0c0.1-0.1,0.2-0.3,0.2-0.5c0-0.1-0.1-0.3-0.1-0.4l0,0L110.6,94.4z"/>
	</g>
	<circle fill="#F1F1F3" cx="82.4" cy="65.3" r="41.2"/>
	<g>
		<g>
			<g>
				<circle fill="#FFFFFF" cx="76" cy="65.3" r="41.2"/>
			</g>
			<g>
				<path fill="#525A7E" d="M76,106.6c-22.7,0-41.3-18.5-41.3-41.3c0-22.7,18.5-41.3,41.3-41.3c22.7,0,41.3,18.5,41.3,41.3
					C117.3,88.1,98.8,106.6,76,106.6z M76,24.2c-22.7,0-41.1,18.4-41.1,41.1s18.4,41.1,41.1,41.1s41.1-18.4,41.1-41.1
					C117.1,42.7,98.6,24.2,76,24.2z"/>
			</g>
		</g>
		<path fill="#525A7E" d="M76,23.6c-23,0-41.6,18.7-41.6,41.6S53,106.9,76,106.9s41.6-18.7,41.6-41.6C117.6,42.3,99,23.6,76,23.6z
			 M76,106c-22.5,0-40.7-18.3-40.7-40.7c0-22.5,18.3-40.7,40.7-40.7c22.5,0,40.7,18.3,40.7,40.7C116.7,87.8,98.5,106,76,106z"/>
	</g>
	<path fill="#525A7E" d="M76,26.9c-21.2,0-38.3,17.2-38.3,38.3c0,21.2,17.2,38.4,38.3,38.4c21.2,0,38.4-17.2,38.4-38.4
		C114.4,44.2,97.1,26.9,76,26.9z M76,102.5c-20.5,0-37.3-16.7-37.3-37.3S55.4,28,76,28s37.3,16.7,37.3,37.3
		C113.2,85.9,96.5,102.5,76,102.5z"/>
	<path fill="#E4E8EA" d="M145.4,48.5c-2.5,0-4.6,2.1-4.6,4.6c0,2.5,2.1,4.6,4.6,4.6s4.6-2.1,4.6-4.6C150,50.6,147.9,48.5,145.4,48.5
		z M145.4,55.9c-1.5,0-2.7-1.2-2.7-2.7s1.2-2.7,2.7-2.7c1.5,0,2.7,1.2,2.7,2.7C148.1,54.6,146.9,55.9,145.4,55.9z"/>
	<path fill="#E4E8EA" d="M17.2,63.4c-0.9,0-1.7,0.8-1.7,1.7c0,0.9,0.8,1.7,1.7,1.7s1.7-0.8,1.7-1.7C18.9,64.1,18.1,63.4,17.2,63.4z
		 M18,65.1c0,0.4-0.4,0.8-0.8,0.8c-0.4,0-0.8-0.4-0.8-0.8s0.4-0.8,0.8-0.8C17.6,64.3,18,64.6,18,65.1z"/>
	<path fill="#E4E8EA" d="M76.9,2.7c-0.9,0-1.7,0.8-1.7,1.7s0.8,1.7,1.7,1.7c0.9,0,1.7-0.8,1.7-1.7S77.8,2.7,76.9,2.7z M77.7,4.4
		c0,0.4-0.4,0.8-0.8,0.8s-0.8-0.4-0.8-0.8c0-0.4,0.4-0.8,0.8-0.8S77.7,4,77.7,4.4z"/>
	<path fill="#E4E8EA" d="M12.7,35.5c-0.2-0.2-0.4-0.3-0.7-0.3H7.5v-4.5c0-0.5-0.4-0.9-0.9-0.9s-0.9,0.4-0.9,0.9v4.5H0.9
		c-0.5,0-0.9,0.4-0.9,0.9c0,0.6,0.4,1,0.9,1h4.5v4.5c0,0.5,0.4,0.9,0.9,0.9s0.9-0.4,0.9-0.9v-4.4h4.6c0.6,0,0.9-0.4,0.9-0.9
		C12.9,36,12.8,35.7,12.7,35.5z"/>
	<path fill="#E4E8EA" d="M137.4,84.3h-1.1v-1.1c0-0.3-0.2-0.4-0.4-0.4s-0.4,0.2-0.4,0.4v1.1h-1.1c-0.3,0-0.4,0.2-0.4,0.4
		s0.2,0.4,0.4,0.4h1.1v1.1c0,0.3,0.2,0.4,0.4,0.4s0.4-0.2,0.4-0.4v-1.1h1.1c0.3,0,0.4-0.2,0.4-0.4S137.7,84.3,137.4,84.3z"/>
	<path fill="#E4E8EA" d="M39.1,15.2h-1.1v-1.1c0-0.3-0.2-0.4-0.4-0.4s-0.4,0.2-0.4,0.4v1.1h-1.1c-0.3,0-0.4,0.2-0.4,0.4
		c0,0.3,0.2,0.4,0.4,0.4h1.1v1.1c0,0.3,0.2,0.4,0.4,0.4s0.4-0.2,0.4-0.4v-1.1h1.1c0.3,0,0.4-0.2,0.4-0.4
		C39.6,15.4,39.4,15.2,39.1,15.2z"/>
	<path fill="#E4E8EA" d="M32.8,99.3h-1.1v-1.1c0-0.3-0.2-0.4-0.4-0.4c-0.3,0-0.4,0.2-0.4,0.4v1.1h-1.1c-0.3,0-0.4,0.2-0.4,0.4
		s0.2,0.4,0.4,0.4h1.1v1.1c0,0.3,0.2,0.4,0.4,0.4c0.3,0,0.4-0.2,0.4-0.4v-1.1h1.1c0.3,0,0.4-0.2,0.4-0.4
		C33.3,99.5,33.1,99.3,32.8,99.3z"/>
	<path fill="#E4E8EA" d="M124,13.9h7c0.7,0,1.3-0.6,1.3-1.3c0-0.8-0.6-1.3-1.3-1.3h-7v-7c0-0.7-0.6-1.3-1.3-1.3
		c-0.7,0-1.3,0.6-1.3,1.3v7h-7c-0.7,0-1.3,0.6-1.3,1.3c0,0.7,0.6,1.3,1.3,1.3h7v7c0,0.7,0.6,1.3,1.3,1.3c0.7,0,1.3-0.6,1.3-1.3V13.9
		z"/>
	<g>
		<g>
			<path fill="#FFFFFF" d="M136.7,125.1L136.7,125.1c-2.9,2.9-7.6,2.9-10.6,0l-15.7-15.7c-2.9-2.9-2.9-7.6,0-10.6l0,0
				c2.9-2.9,7.6-2.9,10.6,0l15.7,15.7C139.6,117.6,139.6,122.2,136.7,125.1z"/>
			<path fill="#525A7E" d="M131.4,127.4c-2,0-3.9-0.8-5.4-2.2l-15.6-15.7c-1.4-1.4-2.2-3.3-2.2-5.4c0-2,0.8-3.9,2.2-5.4
				s3.3-2.2,5.4-2.2c2,0,3.9,0.8,5.4,2.2l15.7,15.7c2.9,2.9,2.9,7.8,0,10.6C135.3,126.6,133.4,127.4,131.4,127.4z M115.7,96.8
				c-2,0-3.8,0.8-5.2,2.2c-2.9,2.9-2.9,7.5,0,10.4l15.7,15.7c2.9,2.9,7.5,2.9,10.4,0c2.9-2.9,2.9-7.5,0-10.4L120.9,99
				C119.6,97.6,117.7,96.8,115.7,96.8z"/>
		</g>
		<path fill="#525A7E" d="M137,114.2l-15.7-15.7c-1.5-1.5-3.5-2.3-5.6-2.3s-4.1,0.8-5.6,2.3s-2.4,3.6-2.4,5.7c0,2.1,0.8,4.1,2.4,5.6
			l15.7,15.7c1.5,1.5,3.5,2.3,5.6,2.3c2.1,0,4.2-0.9,5.6-2.3c1.5-1.5,2.4-3.5,2.4-5.6C139.4,117.8,138.5,115.8,137,114.2z
			 M136.3,124.8c-1.3,1.3-3,2-4.9,2c-1.8,0-3.6-0.7-4.9-2l-15.7-15.7c-1.3-1.4-2-3.1-2-4.9c0-1.9,0.7-3.6,2-4.9c1.4-1.3,3.1-2,4.9-2
			c1.9,0,3.6,0.8,4.9,2l15.7,15.7c1.3,1.4,2.1,3.1,2.1,4.9C138.3,121.8,137.6,123.5,136.3,124.8z"/>
	</g>
</g>
</svg>
