<svg xmlns="http://www.w3.org/2000/svg" xmlns:xlink="http://www.w3.org/1999/xlink" width="660" height="512" viewBox="0 0 660 512"><defs><clipPath id="b"><rect width="660" height="512"/></clipPath></defs><g id="a" clip-path="url(#b)"><rect width="660" height="512" fill="#fff"/><rect width="424.2" height="3.399" transform="translate(118 374.173)" fill="#b1b5c4"/><rect width="23.9" height="3.399" transform="translate(562.1 374.173)" fill="#ccd0d9"/><rect width="20.1" height="3.399" transform="translate(74 374.173)" fill="#ccd0d9"/><rect width="19.7" height="3.4" transform="translate(120.8 401.473)" fill="#ccd0d9"/><rect width="35.5" height="3.4" transform="translate(168.6 401.473)" fill="#ccd0d9"/><rect width="15.899" height="3.4" transform="translate(455.9 401.473)" fill="#ccd0d9"/><rect width="68.899" height="3.4" transform="translate(490.9 401.473)" fill="#ccd0d9"/><rect width="17.4" height="3.4" transform="translate(91.7 424.773)" fill="#ccd0d9"/><rect width="17.399" height="3.4" transform="translate(568.4 424.773)" fill="#ccd0d9"/><path d="M222.452,304.841c1.389-22.4-1.166-63.126,40.944-57.736,45.136,5.778,32.223,58.556,32.223,58.556Z" transform="translate(86.889 -33.619)" fill="#ccd0d9" stroke="#b1b5c4" stroke-width="2.4"/><g transform="translate(86.889 -33.619)"><circle cx="18.375" cy="18.375" r="18.375" transform="translate(233.138 254.625)" fill="#fff"/><path d="M253.927,254.654c-8.7-1.487-18.01,4.929-18.927,11.429l34.507,3.173C268.291,261.847,260.833,255.833,253.927,254.654Z" fill="#ccd0d9"/><path d="M265.576,272.543c-.247,4.8-2.865,8.574-5.848,8.421s-5.2-4.172-4.954-8.976,2.864-8.574,5.847-8.421S265.823,267.739,265.576,272.543Z" fill="#ccd0d9"/><path d="M251.514,292.375A19.375,19.375,0,1,1,270.889,273,19.4,19.4,0,0,1,251.514,292.375Zm0-36.75A17.375,17.375,0,1,0,268.889,273,17.4,17.4,0,0,0,251.514,255.625Z" fill="#b1b5c4"/></g><path d="M290.485,304.277a.583.583,0,0,1-.117-.013.5.5,0,0,1-.37-.6c.033-.135,3.22-13.694-.089-27.4a.5.5,0,1,1,.971-.235c3.368,13.951.124,27.735.091,27.873A.5.5,0,0,1,290.485,304.277Z" transform="translate(86.889 -33.619)" fill="#fff" opacity="0.3"/><path d="M287.7,268.759a.5.5,0,0,1-.455-.292,35.323,35.323,0,0,0-4.741-7.657.5.5,0,1,1,.774-.633,36.334,36.334,0,0,1,4.876,7.874.5.5,0,0,1-.454.708Z" transform="translate(86.889 -33.619)" fill="#fff" opacity="0.3"/><path d="M128.735,409.918c-.125,0-.248,0-.372-.005a5,5,0,1,1,.274-10h.1c2.889,0,9.839-3.51,24.378-26.43a5,5,0,0,1,7.509-1.09,206.935,206.935,0,0,0,37.143,25.477,5,5,0,0,1-4.525,8.917,213.261,213.261,0,0,1-34.8-23.147C146.254,401.965,137.211,409.918,128.735,409.918Z" transform="translate(86.889 -33.619)" fill="#b1b5c4"/><path d="M159.67,371.5a3.113,3.113,0,0,1-.428-.03,3,3,0,0,1-2.545-3.395c.711-4.976-.171-23.626-6.475-38.126a3,3,0,0,1,1.062-3.676c13.7-9.334,42.876-10.451,44.112-10.494a3,3,0,0,1,.209,6c-.271.01-25.78.989-38.888,8.2,5.584,14.438,6.849,32.436,5.919,38.947A3,3,0,0,1,159.67,371.5Z" transform="translate(86.889 -33.619)" fill="#b1b5c4"/><path d="M164.71,367.616c-2-4.706-10.988-4.172-16.268-.138-2.822,2.155-6.641,8.64-7.042,10.991a3.54,3.54,0,0,0,4.023,4.238c3.447-.3,8.181-5.309,8.181-5.309-3.149,3.088.914,5.267,6.977.8C163.944,375.722,166.944,372.886,164.71,367.616Z" transform="translate(86.889 -33.619)" fill="#ccd0d9"/><path d="M336.706,306.161a.517.517,0,0,1-.139-.019.5.5,0,0,1-.342-.619c1.332-4.639,2.787-7.474,4.7-9.05a5.2,5.2,0,0,1,.153-3.259,6.437,6.437,0,0,1,2.362-3,2.556,2.556,0,0,1-.591-2.382,6.174,6.174,0,0,1,2.136-3.156,2.3,2.3,0,0,1-.567-1.508c-.025-2.982,5.508-7.525,11.763-8.379a.49.49,0,0,1,.563.428.5.5,0,0,1-.429.562c-5.937.811-10.916,5.11-10.9,7.38a1.306,1.306,0,0,0,.362.9,12.256,12.256,0,0,1,9.283-1.864c3.069.587,4.317,1.236,4.172,2.167-.272,1.753-6.809,2.116-11.19,1.594a6.143,6.143,0,0,1-2.25-.645,5.4,5.4,0,0,0-1.969,2.73,1.579,1.579,0,0,0,.5,1.636c1.857-.957,4.47-1.358,7.916-.6,4.537,1,4.707,1.554,4.808,1.883a.66.66,0,0,1-.161.662c-.956,1.013-7.906.532-11.4-.323a5.047,5.047,0,0,1-1.2-.451,5.477,5.477,0,0,0-2.268,2.708,4.323,4.323,0,0,0-.225,2.3c.18-.107.363-.2.551-.3,2.069-.981,4.572-.817,7.654.5,2.045.876,3.031,1.651,3.1,2.44a1.1,1.1,0,0,1-.57,1.042c-1.525,1.013-6.87.859-9.649-.62a3.909,3.909,0,0,1-1.538-1.487c-1.634,1.493-2.953,4.166-4.156,8.356A.5.5,0,0,1,336.706,306.161Zm5.425-9.331a2.944,2.944,0,0,0,1.22,1.217c2.256,1.2,6.7,1.475,8.361.8.341-.138.392-.252.392-.253s-.055-.563-2.5-1.61c-2.8-1.2-5.037-1.367-6.831-.517A5.479,5.479,0,0,0,342.131,296.83Zm3.334-6.568c.087.025.173.048.259.07a32.91,32.91,0,0,0,9.933.743,22.663,22.663,0,0,0-3.636-1.017A11.332,11.332,0,0,0,345.465,290.262Zm1.262-5.622a6.365,6.365,0,0,0,1.437.323c4.982.59,9.382-.108,10.04-.729-.17-.154-.841-.582-3.329-1.057A11.262,11.262,0,0,0,346.727,284.64Z" transform="translate(86.889 -33.619)" fill="#b1b5c4"/><path d="M303.469,412.238l-117.8-3.9-4.889-114.222,139.111,3.111Z" transform="translate(86.889 -33.619)" fill="#ccd0d9" stroke="#b1b5c4" stroke-linecap="round" stroke-linejoin="round" stroke-width="2.4"/><path d="M222.452,410.053a.5.5,0,0,1-.5-.459L212.51,294.873a.5.5,0,0,1,1-.082l9.444,114.721a.5.5,0,0,1-.458.539Z" transform="translate(86.889 -33.619)" fill="#b1b5c4"/><path d="M303.469,412.238l31.662-4.82,9.972-106.21-25.215-3.986Z" transform="translate(86.889 -33.619)" fill="#ccd0d9" stroke="#b1b5c4" stroke-linecap="round" stroke-linejoin="round" stroke-width="2.4"/><path d="M195.734,386.316l-2.9-67.862a12.269,12.269,0,0,1,12.532-12.79l88.059,1.969a12.269,12.269,0,0,1,11.871,14l-9.763,68.391a12.269,12.269,0,0,1-12.553,10.528l-75.39-2.5A12.271,12.271,0,0,1,195.734,386.316Z" transform="translate(86.889 -33.619)" fill="#fff" stroke="#b1b5c4" stroke-width="2.4"/><path d="M282.57,372.872a1.286,1.286,0,0,1-.953-.419l-8.407-9.2-9.072,8.289a1.29,1.29,0,0,1-1.822-.082l-8.407-9.2-9.072,8.288a1.29,1.29,0,0,1-1.821-.082l-8.408-9.2-9.072,8.289a1.288,1.288,0,0,1-1.821-.082l-8.408-9.2-9.072,8.289a1.289,1.289,0,1,1-1.738-1.9l10.023-9.158a1.288,1.288,0,0,1,1.822.081l8.408,9.2,9.071-8.289a1.289,1.289,0,0,1,1.822.081l8.407,9.2,9.072-8.289a1.289,1.289,0,0,1,1.822.082l8.407,9.2,9.072-8.289a1.286,1.286,0,0,1,1.821.082l9.278,10.153a1.289,1.289,0,0,1-.952,2.159Z" transform="translate(87.667 -32.812)" fill="#ccd0d9"/><path d="M125.75,414.667l-6.258-2.985-5.583-27.167,3.03-3.337Z" transform="translate(86.889 -33.619)" fill="#b1b5c4"/><g transform="translate(86.889 -33.619)"><path d="M125.75,414.667l8.3-4.851-7.119-22.384-10-6.253Z" fill="#ccd0d9"/><path d="M125.75,414.667l8.3-4.851-7.119-22.384-10-6.253Z" fill="#ccd0d9" opacity="0.2"/></g><path d="M261.949,419.605c-.236,0-.467,0-.691-.009a5,5,0,1,1,.274-10c7.7.252,24.006-4.481,33.319-13.521a4.99,4.99,0,0,1,2.046-1.2c15.788-4.738,21.664,4.834,21.907,5.244l-8.608,5.09a1.356,1.356,0,0,0,.115.183c-.1-.132-2.331-3.04-9.451-1.241C289.173,414.822,271.233,419.605,261.949,419.605Z" transform="translate(86.889 -33.619)" fill="#b1b5c4"/><g transform="translate(86.889 -33.619)"><path d="M261.395,426.252,243.182,425.1l-1.437-33.576,24.476.915Z" fill="#ccd0d9"/><path d="M261.395,426.252l4.257-4.237,2.639-20.937-2.07-8.636Z" fill="#b1b5c4"/></g><path d="M366.91,413.537a2.991,2.991,0,0,1-1.813-.611c-10.394-7.9-24.445-21.926-29.837-35.457a3.042,3.042,0,0,1-.171-.614c-2.629-15.632-5.141-48.54-5.247-49.934a3,3,0,1,1,5.983-.453c.026.336,2.562,33.566,5.128,49.073,5.377,13.156,19.957,26.666,27.775,32.607a3,3,0,0,1-1.818,5.389Z" transform="translate(86.889 -33.619)" fill="#b1b5c4"/><path d="M380.778,415.053c-2.32,0-4.949-1.052-7.815-3.125a3,3,0,0,1,3.518-4.862c2.477,1.793,3.83,1.987,4.3,1.987a3,3,0,0,1,0,6Z" transform="translate(86.889 -33.619)" fill="#b1b5c4"/><path d="M373.8,411.842c3.21-9.535,16.37-7.651,20.9-6.235a48.068,48.068,0,0,1,11.069,4.8c2.455,1.605,2.495,4.285-.778,5.816-4.036,1.888-14.162.213-14.162.213,5.242,2.3-.01,5.972-9.2,2.36C378.637,417.623,372.671,415.336,373.8,411.842Z" transform="translate(86.889 -33.619)" fill="#ccd0d9"/><path d="M341.862,331.036c-1.191,8.1-7.9,14.076-13.358,13.274s-5.685-8.038-4.493-16.139,3.349-14,8.806-13.2S343.053,322.935,341.862,331.036Z" transform="translate(86.889 -33.619)" fill="#b1b5c4"/><circle cx="0.819" cy="0.819" r="0.819" transform="translate(295.944 263.437)" fill="#b1b5c4"/><path d="M218.208,303.778a.819.819,0,1,1-.819-.82A.819.819,0,0,1,218.208,303.778Z" transform="translate(86.889 -33.619)" fill="#b1b5c4"/><path d="M219.125,400.683a.82.82,0,1,1-.819-.82A.819.819,0,0,1,219.125,400.683Z" transform="translate(86.889 -33.619)" fill="#b1b5c4"/><path d="M226.639,406.586a.82.82,0,1,1-.82-.82A.82.82,0,0,1,226.639,406.586Z" transform="translate(86.889 -33.619)" fill="#b1b5c4"/><path d="M82.51,416.419a9.648,9.648,0,0,1-7.333-3.949A.5.5,0,1,1,76,411.9c1.866,2.7,5.979,4.131,7.805,3.281a1.4,1.4,0,0,0,.467-.339,6.069,6.069,0,0,1-3.525-4.482c-.227-1.267-.407-2.98.639-3.216,1.434-.323,3.31,3.146,4.032,5.775a3.559,3.559,0,0,1,.13,1.343,4.489,4.489,0,0,0,1.787.14,1.93,1.93,0,0,0,1.374-.745,5.842,5.842,0,0,1-2.3-4.189c-.388-2.735-.1-3.211.206-3.445a.674.674,0,0,1,.688-.078c1.069.455,2.365,4.334,2.613,6.53a3.09,3.09,0,0,1,0,.693,3.833,3.833,0,0,0,1.349.262,4.367,4.367,0,0,0,2.409-.629,3.445,3.445,0,0,1-.4-.3c-1.038-.887-1.456-2.3-1.281-4.331.136-1.568.493-2.424,1.123-2.694a1.138,1.138,0,0,1,1.208.24,6.909,6.909,0,0,1,1.725,5.556,2.934,2.934,0,0,1-.5,1.152c1.835.316,4.417-.2,6.643-.749a.5.5,0,1,1,.241.97c-2.71.67-5.627,1.215-7.688.618a5.685,5.685,0,0,1-3.5,1.162,4.857,4.857,0,0,1-1.639-.308,2.816,2.816,0,0,1-2.124,1.271,5.42,5.42,0,0,1-2.238-.192,2.276,2.276,0,0,1-1.013.886A4.116,4.116,0,0,1,82.51,416.419Zm-.865-8.277a4.444,4.444,0,0,0,.085,2.043,5.08,5.08,0,0,0,2.839,3.709,3.034,3.034,0,0,0-.116-.709C83.668,410.327,82.175,408.357,81.645,408.142Zm5.572-.872a13.842,13.842,0,0,0,.177,2.058,5.147,5.147,0,0,0,1.519,3.223A15.786,15.786,0,0,0,87.217,407.27Zm6.291-.869h0s-.376.191-.521,1.861.16,2.823.934,3.484a2.6,2.6,0,0,0,.6.379,2.135,2.135,0,0,0,.543-1.028,6.253,6.253,0,0,0-1.2-4.43C93.665,406.443,93.536,406.4,93.508,406.4Z" transform="translate(86.889 -33.619)" fill="#ccd0d9"/><g transform="translate(86.889 -33.619)"><path d="M228.873,423.978l2.71-4.7-2.71-4.7h-2.9l1.639,4.7-1.639,4.7Z" fill="#b1b5c4"/><path d="M226.163,421.728a2.445,2.445,0,1,1,0-4.89l-4.607-.922-1.223,3.721,2.056,3.139Z" fill="#b1b5c4"/><path d="M226.557,414.578h-5.43l-2.71,4.7,2.71,4.7h5.43l2.71-4.7Zm-2.71,7.15a2.445,2.445,0,1,1,2.44-2.45A2.454,2.454,0,0,1,223.847,421.728Z" fill="#ccd0d9"/></g><g transform="translate(86.889 -33.619)"><path d="M417.889,414.265l-2.013-3.491,2.013-3.49h2.155l-1.217,3.49,1.217,3.491Z" fill="#b1b5c4"/><path d="M419.9,412.594a1.816,1.816,0,1,0,0-3.632l3.422-.685.908,2.764-1.527,2.331Z" fill="#b1b5c4"/><path d="M419.61,407.284h4.033l2.012,3.49-2.012,3.491H419.61l-2.013-3.491Zm2.013,5.31a1.816,1.816,0,1,0-1.813-1.82A1.823,1.823,0,0,0,421.623,412.594Z" fill="#ccd0d9"/></g><g transform="translate(86.889 -33.619)"><path d="M342.948,418.9h4.518a2.145,2.145,0,0,0,2.139-2.139h0a2.146,2.146,0,0,0-2.139-2.139h-4.518a2.145,2.145,0,0,0-2.139,2.139h0A2.145,2.145,0,0,0,342.948,418.9Z" fill="#ccd0d9"/><path d="M335.73,414.863a4.455,4.455,0,1,1,2,6.18A4.6,4.6,0,0,1,335.73,414.863Z" fill="#b1b5c4"/><rect width="1.37" height="10.102" transform="matrix(-0.905, -0.426, 0.426, -0.905, 338.217, 421.62)" fill="#ccd0d9"/></g><text transform="matrix(0.998, 0.07, -0.07, 0.998, 290.218, 314.352)" fill="#ccd0d9" font-size="27" font-family="Muli-ExtraBold, Muli" font-weight="800"><tspan x="0" y="0">OOPS!</tspan></text><path d="M346.368,111.017l-5.8-1.1,1.1-5.9a2.746,2.746,0,1,0-5.4-1l-1.1,5.9-6-1.1a2.746,2.746,0,0,0-1.045,5.392l.045.008,6,1.1-1.1,5.9a2.746,2.746,0,1,0,5.4,1l1.1-5.9,5.8,1.1a2.746,2.746,0,1,0,1-5.4" transform="translate(109.732 -2.291)" fill="#ccd0d9"/><path d="M404.468,171.817a7.7,7.7,0,1,0,7.7,7.7,7.7,7.7,0,0,0-7.7-7.7h0m0,11.9a4.3,4.3,0,1,1,4.3-4.3h0a4.331,4.331,0,0,1-4.3,4.3" transform="translate(110.887 40.348)" fill="#ccd0d9"/><path d="M286.768,181.317v-.3a14.743,14.743,0,0,1,29.1-3.3,9.673,9.673,0,0,1,9.6.1,9.24,9.24,0,0,1,4.7,8.3v.6a10.316,10.316,0,0,1-3.6,20h-37a12.841,12.841,0,0,1-2.8-25.4Z" transform="translate(128.732 -8.291)" fill="none" stroke="#ccd0d9" stroke-miterlimit="10" stroke-width="2.4"/><path d="M94.868,263.017l-3.7-1.7,1.7-3.8a1.9,1.9,0,0,0-3.5-1.5l-1.7,3.8-3.8-1.7a1.906,1.906,0,0,0-2.5,1,1.873,1.873,0,0,0,.941,2.475l.059.025,3.8,1.7-1.7,3.8a1.9,1.9,0,0,0,1,2.5,1.872,1.872,0,0,0,2.475-.941c.009-.019.017-.039.025-.059l1.7-3.8,3.7,1.7a1.872,1.872,0,0,0,2.475-.941c.009-.019.017-.039.025-.059a2.1,2.1,0,0,0-1-2.5" transform="translate(107.732 -27.298)" fill="#ccd0d9"/><g transform="translate(-7367.065 -3068.696)"><circle cx="34.374" cy="34.374" r="34.374" transform="translate(7595.9 3212.948)" fill="#fff" stroke="#b1b5c4" stroke-miterlimit="10" stroke-width="1.942" stroke-dasharray="7.6" opacity="0.78"/><g transform="translate(7625.917 3228.354)"><path d="M238.9,251.306a2.474,2.474,0,0,0,2.464-2.265l1.67-19.957a4.148,4.148,0,1,0-8.268,0l1.671,19.957A2.472,2.472,0,0,0,238.9,251.306Z" transform="translate(-234.751 -224.588)" fill="#fec260"/><path d="M238.711,249.114a2.693,2.693,0,1,0,2.693,2.693A2.693,2.693,0,0,0,238.711,249.114Z" transform="translate(-234.562 -220.927)" fill="#fec260"/></g></g><path d="M67.468,155.017a4.8,4.8,0,0,0-4.8,4.8h0a4.739,4.739,0,0,0,4.677,4.8h.123a4.8,4.8,0,0,0,.006-9.6h-.006m0,7.4a2.582,2.582,0,0,1-2.6-2.564v-.036a2.6,2.6,0,1,1,2.6,2.6h0" transform="translate(124.732 -14.265)" fill="#ccd0d9"/><path d="M170.968,98.217l-2.5-1.1,1.1-2.6a1.278,1.278,0,0,0-.659-1.683l-.041-.017a1.278,1.278,0,0,0-1.683.659l-.017.041-1.1,2.6-2.6-1.1a1.278,1.278,0,0,0-1.683.659l-.017.041a1.248,1.248,0,0,0,.6,1.659.994.994,0,0,0,.1.041l2.6,1.1-1.1,2.6a1.3,1.3,0,0,0,2.4,1l1.1-2.6,2.5,1.1a1.247,1.247,0,0,0,1.659-.6.994.994,0,0,0,.041-.1,1.479,1.479,0,0,0-.7-1.7" transform="translate(90.732 -7.097)" fill="#ccd0d9"/><path d="M95.158,263.19l-3.778-1.736,1.736-3.881a1.944,1.944,0,0,0-3.574-1.532l-1.736,3.881-3.881-1.736a1.946,1.946,0,0,0-2.553,1.021,1.913,1.913,0,0,0,.961,2.527l.06.026,3.881,1.736-1.736,3.881a1.945,1.945,0,0,0,1.021,2.553,1.912,1.912,0,0,0,2.527-.961c.009-.019.017-.04.026-.06l1.736-3.881,3.778,1.736a1.912,1.912,0,0,0,2.527-.961c.009-.019.017-.04.026-.06a2.145,2.145,0,0,0-1.021-2.553" transform="translate(265.576 -102.929)" fill="#ccd0d9"/></g></svg>