<?xml version="1.0" encoding="utf-8"?>
<!-- Generator: Adobe Illustrator 23.1.0, SVG Export Plug-In . SVG Version: 6.00 Build 0)  -->
<svg version="1.1" id="zs-store-template" xmlns="http://www.w3.org/2000/svg" xmlns:xlink="http://www.w3.org/1999/xlink" x="0px"
	 y="0px" viewBox="0 0 64 54" style="enable-background:new 0 0 64 54;" xml:space="preserve">
<style type="text/css">
	.st0{fill-rule:evenodd;clip-rule:evenodd;fill:#FFFFFF;}
	.st1{fill-rule:evenodd;clip-rule:evenodd;fill:#E6EEF9;}
	.st2{fill:none;stroke:#001684;}
	.st3{fill-rule:evenodd;clip-rule:evenodd;fill:#001684;}
	.st4{fill:#001684;}
</style>
<g>
	<path class="st0" d="M0,0h64v54H0V0z"/>
	<path class="st1" d="M8,23h49v25H8V23z"/>
	<g>
		<path id="store-template-a" class="st0" d="M10,6h45v42H10V6z"/>
	</g>
	<path class="st2" d="M10.5,6.5h44v41h-44V6.5z"/>
	<path class="st3" d="M6,47h3v1H6V47z M4,47h1v1H4V47z M56,47h3v1h-3V47z M60,47h1v1h-1V47z"/>
	<g>
		<path id="store-template-b" class="st1" d="M10,6h45v8H10V6z"/>
	</g>
	<path class="st2" d="M10.5,6.5h44v7h-44V6.5z"/>
	<path class="st3" d="M13,9h2v2h-2V9z M17,9h2v2h-2V9z M21,9h2v2h-2V9z"/>
	<path class="st1" d="M15,17h7v6h-7V17z M29,17h7v6h-7V17z M43,17h7v6h-7V17z M15,27h7v6h-7V27z M43,27h7v6h-7V27z M15,37h7v6h-7V37
		z M29,37h7v6h-7V37z M43,37h7v6h-7V37z"/>
	<g>
		<path id="store-template-c" class="st0" d="M24,22h18v16H24V22z"/>
	</g>
	<path class="st2" d="M24.5,22.5h17v15h-17V22.5z"/>
	<path class="st4" d="M37,26.7c-0.1-0.1-0.3-0.1-0.5,0c0,0,0,0,0,0L32,31.2c-0.1,0.1-0.3,0.1-0.5,0l-2.1-1.9c-0.1-0.1-0.3-0.1-0.5,0
		c0,0,0,0,0,0l-0.7,0.8c-0.1,0.1-0.1,0.4,0,0.5l3.3,3c0.1,0.1,0.3,0.1,0.5,0l5.6-5.6c0.1-0.1,0.1-0.3,0-0.5L37,26.7L37,26.7z"/>
</g>
</svg>
