<svg xmlns="http://www.w3.org/2000/svg" width="24" height="24" viewBox="0 0 24 24"><rect width="24" height="24" fill="none"/><path d="M-2674-10998v-4h4" transform="translate(2677 11005)" fill="none" stroke="#000" stroke-width="1"/><path d="M-2674-11002v4h4" transform="translate(2677 11019)" fill="none" stroke="#000" stroke-width="1"/><path d="M-2670-10998v-4h-4" transform="translate(2691 11005)" fill="none" stroke="#000" stroke-width="1"/><path d="M-2670-11002v4h-4" transform="translate(2691 11019)" fill="none" stroke="#000" stroke-width="1"/><path d="M-2664-10992l-5,5" transform="matrix(0.966, -0.259, 0.259, 0.966, 5430.871, 9938.962)" fill="none" stroke="#000" stroke-width="1"/><path d="M-2668-10997l5,5" transform="translate(2675 11004)" fill="none" stroke="#000" stroke-width="1"/><path d="M-2658-10992h-5" transform="translate(2676 11004)" fill="none" stroke="#000" stroke-width="1"/><g transform="translate(9 9)" fill="#fff" stroke="#000" stroke-width="1"><circle cx="3" cy="3" r="3" stroke="none"/><circle cx="3" cy="3" r="2.5" fill="none"/></g><g transform="translate(17 11)" fill="#fff" stroke="#000" stroke-width="1"><circle cx="1" cy="1" r="1" stroke="none"/><circle cx="1" cy="1" r="1.5" fill="none"/></g><circle cx="1" cy="1" r="1" transform="matrix(0.966, -0.259, 0.259, 0.966, 7.946, 16.416)" fill="#fff" stroke="#000" stroke-width="1"/><g transform="translate(6 6)" fill="#fff" stroke="#000" stroke-width="1"><circle cx="2" cy="2" r="2" stroke="none"/><circle cx="2" cy="2" r="1.5" fill="none"/></g></svg>