<?xml version="1.0" encoding="utf-8"?>
<!-- Generator: Adobe Illustrator 24.1.3, SVG Export Plug-In . SVG Version: 6.00 Build 0)  -->
<svg version="1.1" id="Layer_1" xmlns="http://www.w3.org/2000/svg" xmlns:xlink="http://www.w3.org/1999/xlink" x="0px" y="0px"
	 width="512px" height="512px" viewBox="0 0 512 512" enable-background="new 0 0 512 512" xml:space="preserve">
<g>
	<path fill="#E5E9EB" d="M294,361.7h9.9v5H294V361.7z"/>
	<path fill="#E5E9EB" d="M284.1,371.6h27.2v5h-27.2V371.6z"/>
	<path fill="#E5E9EB" d="M399.4,308.1l-7.4-22.3c-0.2-0.6-0.8-1-1.5-1H261.7c-0.7,0-1.2,0.4-1.5,1l-7.4,22.3c-0.3,0.8,0.2,1.7,1,1.9
		c0.2,0.1,0.3,0.1,0.5,0.1h5.9v85.2c0,0.8,0.7,1.5,1.5,1.5h128.8c0.8,0,1.5-0.7,1.5-1.5v-85.2h5.9c0.8,0,1.5-0.7,1.5-1.5
		C399.5,308.4,399.5,308.2,399.4,308.1z M350.9,310.1H389v83.6h-44v-98l4.4,13.3C349.7,309.7,350.3,310.1,350.9,310.1z M389.4,287.8
		l6.4,19.2H352l-6.4-19.2H389.4z M341.4,287.8L335,307h-78.5l6.4-19.2H341.4z M342,295.7v98h-78.7v-83.6h72.8c0.7,0,1.2-0.4,1.5-1
		L342,295.7z"/>
	<g>
		<path fill="#FFE7AB" d="M163.2,189.3c-0.3,0-0.5,0-0.8-0.1l-14.5-3.8c-6,3.6-12.9,5.5-19.9,5.5c-21.5,0-38.9-17.5-38.9-38.9
			s17.4-39,38.9-39s38.9,17.5,38.9,38.9c0,7-1.9,13.9-5.5,19.9l4.2,14.2c0.3,0.9,0.1,1.9-0.6,2.5C164.5,189,163.9,189.3,163.2,189.3
			L163.2,189.3z"/>
		<path fill="#FEC260" d="M128,192.7c-22.5,0-40.8-18.3-40.8-40.8s18.3-40.8,40.8-40.8s40.8,18.3,40.8,40.8c0,7.1-1.9,14-5.4,20.2
			l3.9,13.4c0.5,1.5,0.1,3.2-1.1,4.4c-1.1,1.1-2.9,1.5-4.4,1.1l-13.7-3.6C142,190.9,135,192.7,128,192.7z M128,114.9
			c-20.4,0-37,16.6-37,37s16.6,37,37,37c6.7,0,13.2-1.8,19-5.3l0.7-0.4l15.4,4.1c0.2,0.1,0.4,0,0.6-0.1c0.1-0.1,0.2-0.4,0.1-0.6
			l-4.4-15.1l0.4-0.7c3.4-5.7,5.3-12.3,5.3-19C165,131.5,148.4,114.9,128,114.9z"/>
	</g>
	<path fill="#E5E9EB" d="M319.1,83.1l-5.8-1.1l1.1-5.9c0.3-1.5-0.7-2.9-2.2-3.2s-2.9,0.7-3.2,2.2l-1.1,5.9l-6-1.1
		c-1.5-0.3-2.9,0.7-3.2,2.2c-0.3,1.5,0.7,2.9,2.2,3.2l6,1.1l-1.1,5.9c-0.3,1.5,0.7,2.9,2.2,3.2s2.9-0.7,3.2-2.2l1.1-5.9l5.8,1.1
		c1.5,0.3,2.9-0.7,3.2-2.2C321.6,84.8,320.6,83.4,319.1,83.1z"/>
	<path fill="#E5E9EB" d="M67.6,235.1l-3.7-1.7l1.7-3.8c0.4-0.9,0-2.1-1-2.5c-0.9-0.4-2.1,0-2.5,1l-1.7,3.8l-3.8-1.7
		c-0.9-0.4-2.1,0-2.5,1s0,2.1,1,2.5l3.8,1.7l-1.7,3.8c-0.4,0.9,0,2.1,1,2.5s2.1,0,2.5-1l1.7-3.8l3.7,1.7c1,0.4,2.1,0,2.5-1
		C68.9,236.7,68.5,235.5,67.6,235.1z"/>
	<path fill="#E5E9EB" d="M360.6,225.4l-2.5-1.1l1.1-2.6c0.3-0.6,0-1.4-0.7-1.7c-0.6-0.3-1.4,0-1.7,0.7l-1.1,2.6l-2.6-1.1
		c-0.6-0.3-1.4,0-1.7,0.7c-0.3,0.6,0,1.4,0.7,1.7l2.6,1.1l-1.1,2.6c-0.3,0.6,0,1.4,0.7,1.7s1.4,0,1.7-0.7l1.1-2.6l2.5,1.1
		c0.7,0.3,1.4,0,1.7-0.7C361.6,226.5,361.3,225.7,360.6,225.4z"/>
	<path fill="#E5E9EB" d="M143.7,70.3l-2.5-1.1l1.1-2.6c0.3-0.6,0-1.4-0.7-1.7c-0.6-0.3-1.4,0-1.7,0.7l-1.1,2.6l-2.6-1.1
		c-0.6-0.3-1.4,0-1.7,0.7s0,1.4,0.7,1.7l2.6,1.1l-1.1,2.6c-0.3,0.6,0,1.4,0.7,1.7c0.6,0.3,1.4,0,1.7-0.7l1.1-2.6l2.5,1.1
		c0.7,0.3,1.4,0,1.7-0.7C144.6,71.4,144.3,70.6,143.7,70.3z"/>
	<path fill="#E5E9EB" d="M377.2,143.9c-4.2,0-7.7,3.4-7.7,7.7c0,4.2,3.4,7.7,7.7,7.7c4.2,0,7.7-3.4,7.7-7.7
		C384.9,147.4,381.4,143.9,377.2,143.9z M377.2,155.8c-2.3,0-4.3-1.9-4.3-4.3c0-2.3,1.9-4.3,4.3-4.3c2.3,0,4.3,1.9,4.3,4.3
		C381.5,153.9,379.5,155.8,377.2,155.8z"/>
	<path fill="#E5E9EB" d="M225.4,109.7c-2.6,0-4.8,2.1-4.8,4.8c0,2.6,2.1,4.8,4.8,4.8s4.8-2.1,4.8-4.8
		C230.1,111.9,228,109.7,225.4,109.7z M225.4,117.1c-1.5,0-2.6-1.2-2.6-2.6s1.2-2.6,2.6-2.6s2.6,1.2,2.6,2.6
		S226.8,117.1,225.4,117.1z"/>
	<path fill="#E5E9EB" d="M40.2,127.1c-2.6,0-4.8,2.1-4.8,4.8s2.1,4.8,4.8,4.8c2.6,0,4.8-2.1,4.8-4.8S42.8,127.1,40.2,127.1z
		 M40.2,134.5c-1.5,0-2.6-1.2-2.6-2.6s1.2-2.6,2.6-2.6s2.6,1.2,2.6,2.6S41.6,134.5,40.2,134.5z"/>
	<g>
		<g>
			<rect x="33.4" y="393.2" fill="#E5E9EB" width="424.2" height="3.4"/>
		</g>
		<g>
			<rect x="488.1" y="393.2" fill="#E5E9EB" width="23.9" height="3.4"/>
		</g>
		<g>
			<rect y="393.2" fill="#E5E9EB" width="20.1" height="3.4"/>
		</g>
		<g>
			<rect x="46.8" y="420.5" fill="#E5E9EB" width="19.7" height="3.4"/>
		</g>
		<g>
			<rect x="94.6" y="420.5" fill="#E5E9EB" width="35.5" height="3.4"/>
		</g>
		<g>
			<rect x="381.9" y="420.5" fill="#E5E9EB" width="15.9" height="3.4"/>
		</g>
		<g>
			<rect x="416.9" y="420.5" fill="#E5E9EB" width="68.9" height="3.4"/>
		</g>
		<g>
			<rect x="17.7" y="443.8" fill="#E5E9EB" width="17.4" height="3.4"/>
		</g>
		<g>
			<rect x="494.4" y="443.8" fill="#E5E9EB" width="17.4" height="3.4"/>
		</g>
	</g>
	<path id="Shape_41_" fill="#E8EAF0" d="M303.9,232.9c0,0.1,0,0.1,0,0.2V232.9z"/>
	<path id="Shape_40_" fill="#F1F1F3" d="M303.9,278.4V363c0,18-14.6,32.6-32.6,32.6H163c-17.9,0-32.5-14.5-32.6-32.4l-0.6-84.7
		h174.1V278.4z"/>
	<polygon id="Shape_39_" fill="#F1F1F3" points="297,209.8 297,229.8 281.2,222.4 	"/>
	<polygon id="Shape_38_" fill="#F1F1F3" points="153.2,222.4 134.5,231.3 134,210.4 	"/>
	<g id="Shape_36_">
		<g>
			<path fill="#E5E9EB" d="M134.5,232.9c-0.8,0-1.5-0.7-1.5-1.5l-0.5-21c0-0.8,0.6-1.5,1.5-1.5l0,0c0.8,0,1.5,0.7,1.5,1.5l0.5,21
				C136,232.1,135.3,232.8,134.5,232.9L134.5,232.9z"/>
		</g>
	</g>
	<g id="Shape_34_">
		<g>
			<path fill="#E5E9EB" d="M271.2,397L271.2,397H163c-18.7,0-34-15.2-34.1-33.9L128,233.7c0-0.8,0.7-1.5,1.5-1.5l0,0
				c0.8,0,1.5,0.7,1.5,1.5l0.9,129.4c0.1,17,14.1,30.8,31.1,30.8h108.3l0,0c8.3,0,16.1-3.2,22-9.1s9.1-13.7,9.1-22V232.6
				c0-0.8,0.7-1.5,1.5-1.5s1.5,0.7,1.5,1.5V363c0,9.1-3.6,17.7-10,24.1C288.9,393.5,280.4,397,271.2,397z"/>
		</g>
	</g>
	<g id="Shape_32_">
		<g>
			<path fill="#E5E9EB" d="M129.5,235.3c-0.7,0-1.3-0.5-1.5-1.2s0.2-1.4,0.8-1.7l21.2-10.1l-16.9-10.6l0,0c-0.6-0.4-0.9-1.2-0.7-1.9
				s0.9-1.2,1.6-1.3l163-0.6c0.6,0,1.3,0.4,1.6,1.1c0.3,0.7,0,1.5-0.5,1.9l-14,11.2l20.4,9.4c0.2,0.1,0.4,0.3,0.6,0.5l0,0
				c0.5,0.6,0.5,1.5,0,2.1l-0.1,0.1c-0.3,0.3-0.8,0.5-1.3,0.5L129.5,235.3L129.5,235.3z M138.5,211.5l15.5,9.7
				c0.5,0.3,0.7,0.8,0.7,1.4c0,0.6-0.4,1-0.9,1.3l-17.6,8.4l161.3-0.6l-17-7.9c-0.5-0.2-0.8-0.7-0.9-1.2s0.1-1,0.6-1.4l12.9-10.3
				L138.5,211.5z M303.7,231.6C303.6,231.6,303.6,231.6,303.7,231.6L303.7,231.6L303.7,231.6z M297,210.9
				C297,210.9,297.1,210.9,297,210.9L297,210.9z"/>
		</g>
	</g>
	<g id="Shape_30_">
		<g>
			<path fill="#E5E9EB" d="M297,231.3c-0.8,0-1.5-0.7-1.5-1.5v-19.9c0-0.8,0.7-1.5,1.5-1.5s1.5,0.7,1.5,1.5v19.9
				C298.5,230.6,297.9,231.3,297,231.3z"/>
		</g>
	</g>
	<g id="Shape_28_">
		<g>
			<path fill="#E5E9EB" d="M303.9,279.9H129.4c-0.8,0-1.5-0.7-1.5-1.5s0.7-1.5,1.5-1.5h174.4c0.8,0,1.5,0.7,1.5,1.5
				S304.7,279.9,303.9,279.9z"/>
		</g>
	</g>
	<g id="Shape_25_">
		<path fill="#E5E9EB" d="M216.6,347.3c-30,0-47.9-31.4-47.9-84.1c0-0.8,0.7-1.5,1.5-1.5s1.5,0.7,1.5,1.5c0,19,3.2,81.1,44.9,81.1
			c42.1,0,45.3-63,45.3-82.2c0-0.8,0.7-1.5,1.5-1.5s1.5,0.7,1.5,1.5C265,315.4,246.9,347.3,216.6,347.3z"/>
	</g>
	<g id="Oval_3_">
		<path fill="#E5E9EB" d="M170.2,264.7c-4.6,0-8.3-3.7-8.3-8.3s3.7-8.3,8.3-8.3s8.3,3.7,8.3,8.3S174.8,264.7,170.2,264.7z
			 M170.2,251.1c-2.9,0-5.3,2.4-5.3,5.3s2.4,5.3,5.3,5.3c2.9,0,5.3-2.4,5.3-5.3S173.1,251.1,170.2,251.1z"/>
	</g>
	<g id="Oval_2_">
		<path fill="#E5E9EB" d="M264.2,263.5c-4.6,0-8.3-3.7-8.3-8.3c0-4.6,3.7-8.3,8.3-8.3s8.3,3.7,8.3,8.3
			C272.5,259.8,268.8,263.5,264.2,263.5z M264.2,250c-2.9,0-5.3,2.4-5.3,5.3s2.4,5.3,5.3,5.3s5.3-2.4,5.3-5.3
			C269.5,252.3,267.1,250,264.2,250z"/>
	</g>
	<path id="Shape_21_" fill="none" stroke="#F1F1F3" stroke-width="2.4" stroke-miterlimit="10" d="M259.5,153.4c0-0.1,0-0.2,0-0.3
		c0-7.5,5.6-13.8,13.1-14.6c7.4-0.8,14.3,4,16,11.3c3-1.7,6.6-1.6,9.6,0.1s4.8,4.9,4.7,8.3c0,0.2,0,0.4,0,0.6
		c4.7,1.7,7.5,6.6,6.6,11.5s-5.2,8.5-10.2,8.5h-37c-6.6,0-12.2-5-12.9-11.5C248.7,160.9,253,154.8,259.5,153.4z"/>
	<g>
		<ellipse id="Oval-2_1_" fill-rule="evenodd" clip-rule="evenodd" fill="#FEC260" cx="114" cy="144.2" rx="4.2" ry="4.2"/>
		<ellipse id="Oval-2-Copy_1_" fill-rule="evenodd" clip-rule="evenodd" fill="#FEC260" cx="141.9" cy="144.2" rx="4.2" ry="4.2"/>
		<g id="Shape_20_">
			<path fill="#FEC260" d="M136.3,165.7c-0.4,0-0.9-0.1-1.2-0.4c-4.7-4-9.1-4-13.8,0c-0.8,0.7-2,0.6-2.7-0.2s-0.6-2,0.2-2.7
				c6.1-5.2,12.6-5.2,18.7,0c0.8,0.7,0.9,1.9,0.2,2.7C137.4,165.5,136.8,165.7,136.3,165.7z"/>
		</g>
	</g>
	<path fill="#E5E9EB" d="M308.9,361.7h9.9v5h-9.9V361.7z"/>
	<path fill="#E5E9EB" d="M369.5,336.9h9.9v5h-9.9V336.9z"/>
	<path fill="#E5E9EB" d="M354.6,336.9h9.9v5h-9.9V336.9z"/>
	<path fill="#E5E9EB" d="M316.3,371.6h9.9v5h-9.9V371.6z"/>
</g>
</svg>
