<svg xmlns="http://www.w3.org/2000/svg" width="320" height="320" viewBox="0 0 320 320"><defs><style>.a,.d,.e,.f{fill:none;}.b,.g{fill:#ccd0d9;}.b,.c,.e{stroke:#b1b5c4;}.b,.c{stroke-width:4px;}.c{fill:#fff;}.d,.f{stroke:#ccd0d9;}.d,.e,.f{stroke-linecap:round;}.d{stroke-linejoin:round;stroke-width:12px;}.e,.f{stroke-width:8px;}.h{stroke:none;}</style></defs><rect class="a" width="320" height="320"/><g transform="translate(45.405 45.405)"><circle class="b" cx="115" cy="115" r="115" transform="translate(-0.405 -0.405)"/><circle class="c" cx="102" cy="102" r="102" transform="translate(12.595 12.595)"/></g><path class="d" d="M669.838-7532l-47.259,47.258L592-7515.32" transform="translate(-462.27 7644.741)"/><g transform="translate(78.147 78.147)"><g transform="translate(0 81.853)"><path class="e" d="M528-7464h13.1" transform="translate(-528 7464)"/><path class="e" d="M528-7464h13.1" transform="translate(-377.39 7464)"/></g><g transform="translate(81.853 0) rotate(90)"><path class="e" d="M0,0H13.1" transform="translate(0)"/><path class="e" d="M0,0H13.1" transform="translate(150.61)"/></g></g><g transform="translate(192.432 192.432)"><g class="c" transform="translate(-0.432 -0.433)"><circle class="h" cx="46.5" cy="46.5" r="46.5"/><circle class="a" cx="46.5" cy="46.5" r="44.5"/></g><g transform="translate(4.649 46.286) rotate(-45)"><path class="f" d="M0,0V58.883" transform="translate(29.441 0)"/><path class="f" d="M0,0V58.883" transform="translate(0 29.441) rotate(-90)"/></g></g><path class="g" d="M938.185,657.308a12.973,12.973,0,1,0,12.973,12.973,13.09,13.09,0,0,0-12.973-12.973m0,20.049a7.173,7.173,0,0,1-7.076-7.076,7.076,7.076,0,1,1,14.152,0,7.173,7.173,0,0,1-7.076,7.076" transform="translate(-881.969 -397.848)"/><path class="g" d="M933.861,657.308a8.649,8.649,0,1,0,8.649,8.649,8.727,8.727,0,0,0-8.649-8.649m0,13.366a4.782,4.782,0,0,1-4.718-4.717,4.718,4.718,0,0,1,9.435,0,4.782,4.782,0,0,1-4.717,4.717" transform="translate(-899.266 -579.47)"/><path class="g" d="M933.135,657.308a7.923,7.923,0,1,0,7.923,7.923,7.995,7.995,0,0,0-7.923-7.923m0,12.245a4.381,4.381,0,0,1-4.322-4.322,4.322,4.322,0,1,1,8.644,0,4.381,4.381,0,0,1-4.322,4.322" transform="translate(-681.599 -629.911)"/><path class="g" d="M929.536,657.308a4.324,4.324,0,1,0,4.324,4.324,4.363,4.363,0,0,0-4.324-4.324m0,6.683a2.391,2.391,0,0,1-2.359-2.359,2.359,2.359,0,0,1,4.718,0,2.391,2.391,0,0,1-2.359,2.359" transform="translate(-639.807 -562.173)"/><path class="g" d="M23.427,413.546h-7.85v-7.913a2.534,2.534,0,0,0-5.069,0v7.913H2.534A2.587,2.587,0,0,0,0,416.081a2.507,2.507,0,0,0,2.534,2.534h7.912v7.85a2.534,2.534,0,1,0,5.069,0v-7.85h7.85a2.507,2.507,0,0,0,2.534-2.534,2.454,2.454,0,0,0-2.473-2.534" transform="translate(51.892 -377.154)"/><path class="g" d="M15.6,410.058H10.376v-5.271a1.688,1.688,0,0,0-3.376,0v5.271H1.688A1.723,1.723,0,0,0,0,411.746a1.67,1.67,0,0,0,1.688,1.688h5.27v5.229a1.688,1.688,0,1,0,3.376,0v-5.229h5.229a1.67,1.67,0,0,0,1.688-1.688,1.635,1.635,0,0,0-1.647-1.688" transform="translate(17.341 -195.486)"/><path class="g" d="M15.645,410.076H10.4v-5.284a1.692,1.692,0,0,0-3.385,0v5.284H1.692A1.727,1.727,0,0,0,0,411.768a1.674,1.674,0,0,0,1.692,1.692H6.976V418.7a1.692,1.692,0,1,0,3.385,0V413.46H15.6a1.674,1.674,0,0,0,1.692-1.692,1.639,1.639,0,0,0-1.651-1.692" transform="translate(294.054 -359.855)"/></svg>