<?xml version="1.0" encoding="utf-8"?>
<!-- Generator: Adobe Illustrator 24.1.3, SVG Export Plug-In . SVG Version: 6.00 Build 0)  -->
<svg version="1.1" id="Capa_1" xmlns="http://www.w3.org/2000/svg" xmlns:xlink="http://www.w3.org/1999/xlink" x="0px" y="0px"
	 width="512px" height="512px" viewBox="0 0 512 512" enable-background="new 0 0 512 512" xml:space="preserve">
<path d="M437,341.4c-27.8-27.8-60.5-48.4-97.3-61l-19.5-6.7l17-11.7c39.1-26.9,62.4-71.1,62.4-118.3C399.6,64.4,335.2,0,256,0
	S112.4,64.4,112.4,143.6c0,47.2,23.3,91.5,62.4,118.3l17,11.7l-19.5,6.7c-36.7,12.7-69.5,33.2-97.3,61C29.1,387.3,2.8,447.5,0.2,512
	h5.7H21h470h15h5.8C509.2,447.5,482.9,387.3,437,341.4z M133.2,143.6c0-67.7,55.1-122.8,122.8-122.8s122.8,55.1,122.8,122.8
	S323.7,266.4,256,266.4S133.2,211.3,133.2,143.6z M22.8,491.3c15.3-115.1,114-204.1,233.2-204.1s217.9,89.1,233.2,204.1H22.8z"/>
</svg>
