<svg xmlns="http://www.w3.org/2000/svg" width="120" height="120" viewBox="0 0 117.998 118">
    <defs>
        <style>.a{fill:#ff3a59;}.b{fill:#f95a80;}.c{fill:#f8b545;}.d{fill:#fde47c;}</style>
    </defs>
    <g transform="translate(-0.005)">
        <path class="a" d="M203.781,306.811l-16.749-44.423c-.021-.057-.044-.113-.066-.169a7.166,7.166,0,0,0-3.18-3.569c-1.036-.569-4.193.217-4.2.217-2.925,0-3.365,1.37-4.472,4.08-.019.046-16.4,43.073-16.4,43.073-1.211,3.182-2.159,5.457,1.02,6.669.722.275,2.017,1.412,2.746,1.412,1.241,0,2.438.674,3.45-.012a6.136,6.136,0,0,0,2.3-2.908l2.529-6.647a.691.691,0,0,1,.646-.446h17.7a.691.691,0,0,1,.647.448l2.5,6.628a6.159,6.159,0,1,0,11.524-4.353Zm-28.3-15.969,4.166-12.023a.691.691,0,0,1,1.307,0l4.131,12.023a.691.691,0,0,1-.654.916h-8.3A.691.691,0,0,1,175.482,290.842Z" transform="translate(-121.262 -198.881)"/>
        <g transform="translate(35.057 58.887)">
            <path class="b" d="M159.413,304.534l16.9-44.421c.018-.047.036-.093.055-.139a7.162,7.162,0,0,1,3.189-3.58,7.169,7.169,0,0,0-3.457-.886h-.008a7.154,7.154,0,0,0-6.637,4.466c-.019.046-.037.092-.055.139l-16.9,44.421a6.159,6.159,0,0,0,9.213,7.3,6.168,6.168,0,0,1-2.3-7.3Z" transform="translate(-152.094 -255.508)"/>
        </g>
        <path class="c" d="M50.588,256.618a6.154,6.154,0,0,0-8.521,1.8l-8.528,13.112a.691.691,0,0,1-1.159,0L23.747,258.3a6.159,6.159,0,0,0-6.544-2.637c-.686.159-1.167,1.32-1.791,1.728-2.848,1.861-1.109,5.074.75,7.924l12.816,19.627a.691.691,0,0,1,.112.379l-.078,18.252c-.008,3.4.286,7.944,3.688,7.952l.549-.078c2.92,0,5.031-.593,5.663-3.326a6.194,6.194,0,0,0,.159-1.381l.051-20.99a.69.69,0,0,1,.112-.375L52.39,265.147a6.167,6.167,0,0,0-1.8-8.529Z" transform="translate(-10.698 -196.619)"/>
        <path class="c" d="M369.146,256.617a6.154,6.154,0,0,0-8.521,1.8L352.1,271.532a.691.691,0,0,1-1.159,0L342.305,258.3a6.159,6.159,0,0,0-6.577-2.63c-.675.16-.074.447-.688.848a6.167,6.167,0,0,0-1.79,8.531l13.863,19.3a.691.691,0,0,1,.112.379l-.235,19.483c-.008,3.4.953,7.465,4.354,7.473.005,0,5.494-.829,6.126-3.561a6.192,6.192,0,0,0,.159-1.381l.051-20.99a.691.691,0,0,1,.112-.375l13.156-20.229a6.168,6.168,0,0,0-1.8-8.529Z" transform="translate(-255.671 -196.618)"/>
        <g transform="translate(1.732 59.043)">
            <path class="d" d="M32.591,308.805h-.015c-3.4-.008-4.539-1.853-4.531-5.258l.051-19.353a.692.692,0,0,0-.112-.379l-14.872-22.86a6.149,6.149,0,0,1-.84-4.768,6.168,6.168,0,0,0-3.77,9.377l13.259,20.325a.691.691,0,0,1,.112.379l-.051,20.966a6.162,6.162,0,0,0,6.144,6.18h.015a6.161,6.161,0,0,0,6-4.769,6.142,6.142,0,0,1-1.389.16Z" transform="translate(-7.5 -256.187)"/>
        </g>
        <g transform="translate(75.318 59.043)">
            <path class="d" d="M351.876,308.805h-.015c-3.4-.008-4.539-1.853-4.531-5.258l.051-19.353a.692.692,0,0,0-.112-.379L332.4,260.955a6.149,6.149,0,0,1-.84-4.768,6.168,6.168,0,0,0-3.77,9.377l13.259,20.325a.691.691,0,0,1,.112.379l-.051,20.966a6.162,6.162,0,0,0,6.144,6.18h.015a6.161,6.161,0,0,0,6-4.769,6.144,6.144,0,0,1-1.389.16Z" transform="translate(-326.785 -256.187)"/>
        </g>
        <path class="a" d="M129.6,46.774a54.192,54.192,0,0,1,1.557,7.115c.165,1.107-.508,1.292-.411,2.42a1.154,1.154,0,0,1-1.149,1.253l-7.8-.211a1.149,1.149,0,0,1-1.145-1.029q-.122-1.2-.309-2.371A42.753,42.753,0,0,0,90.868,19.924,54.1,54.1,0,0,0,76.558,17.9c-7.865,0-14.541,3.381-20.87,7.09a67.637,67.637,0,0,0-11.119,9.379,43,43,0,0,0-8.1,14.793,42.388,42.388,0,0,0-1.173,4.707c-.222,1.173-1.33,2.172-1.454,3.377-.06.584-.864.7-1.451.706l-8.238-.118c-.678,0-.412.244-.353-.431,1.3-15.039,7.865-28.49,18.888-37.541a54.511,54.511,0,0,1,70.313,1,51.138,51.138,0,0,1,16.6,25.911Z" transform="translate(-18.23 -5.775)"/>
        <g transform="translate(4.714 9.617)">
            <path class="b" d="M27.127,88.6a1.154,1.154,0,0,1-1.153-1.254A54.35,54.35,0,0,1,42.721,52.608,54.451,54.451,0,0,0,20.442,91.955,1.154,1.154,0,0,0,21.6,93.209l9.529-.032a1.149,1.149,0,0,0,1.141-1.03c.124-1.2.3-2.393.523-3.566Z" transform="translate(-20.438 -50.1)"/>
            <path class="b" d="M229.074,80.226l-6.356,0a1.149,1.149,0,0,1-1.145-1.029c-.081-.8-3.3-11.894-7.965-18.762a42.688,42.688,0,0,0-35.36-18.712c-7.865,0-12.776,1.283-19.1,4.991a67.6,67.6,0,0,0-5.593,4.205c-.922.771-1.788,1.539-2.6,2.3.913-.682,1.8-1.312,2.666-1.892A42.671,42.671,0,0,1,217.345,81.44q.187,1.175.309,2.371A1.148,1.148,0,0,0,218.8,84.84l9.525-.009a1.155,1.155,0,0,0,1.149-1.253c-.1-1.128-.234-2.245-.4-3.352Z" transform="translate(-120.868 -41.727)"/>
        </g>
        <path class="c" d="M385.6,90.727l0-.366c-.037-7.454-3.338-11.914-10.021-15.215l-.329-.162a.371.371,0,0,1,.162-.7l.366,0c3.256-.016,4.894-1.108,7.662-2.583a19.671,19.671,0,0,0,8.394-8.656l.162-.329a.371.371,0,0,1,.7.162l0,.366a19.68,19.68,0,0,0,10.965,17.548l.329.162a.371.371,0,0,1-.162.7l-.366,0a19.672,19.672,0,0,0-11.647,3.888c-2.455,1.825-3.947,2.17-5.354,5.017l-.162.329a.371.371,0,0,1-.7-.162Z" transform="translate(-288.6 -48.099)"/>
        <path class="c" d="M156.534,129.46l-.173-.129c-3.519-2.625-5.742-2.69-9.663-.716l-.193.1a.218.218,0,0,1-.273-.325l.129-.173c2.625-3.519,2.906-5.876.932-9.8l-.1-.193a.218.218,0,0,1,.325-.273l.173.129c1.316.981,1.73.473,3.273.826a11.589,11.589,0,0,0,7.8-.944l.193-.1a.218.218,0,0,1,.273.325l-.129.173a11.586,11.586,0,0,0-2.3,6.967c.006,1.765-.868,2.028-.044,3.664l.1.193a.218.218,0,0,1-.325.273Z" transform="translate(-112.491 -90.681)"/>
        <g transform="translate(0.005 0)">
            <path d="M234.168,337.334h0a2.421,2.421,0,0,0-2.287,1.628l-4.166,12.023A2.42,2.42,0,0,0,230,354.2h8.3a2.42,2.42,0,0,0,2.289-3.207l-4.131-12.023A2.421,2.421,0,0,0,234.168,337.334Zm-2.712,13.406,2.705-7.807,2.682,7.807Z" transform="translate(-175.131 -259.589)"/>
            <path d="M187.58,277.413a1.728,1.728,0,0,0-3.235,1.219l7.826,20.757a4.443,4.443,0,0,1-2.582,5.717,4.544,4.544,0,0,1-5.708-2.584l-2.5-6.628a2.431,2.431,0,0,0-2.264-1.566h-17.7a2.433,2.433,0,0,0-2.262,1.56l-2.529,6.647a4.505,4.505,0,0,1-5.716,2.567,4.442,4.442,0,0,1-2.564-5.725l16.906-44.429a5.448,5.448,0,0,1,10.17.018l6.078,16.121a1.728,1.728,0,1,0,3.235-1.219l-6.078-16.121a8.9,8.9,0,0,0-16.639-.021l-16.9,44.421a7.9,7.9,0,0,0,4.564,10.184,8.038,8.038,0,0,0,10.179-4.567l2.275-5.979H178.4l2.246,5.956a7.888,7.888,0,1,0,14.76-5.572Z" transform="translate(-111.274 -190.85)"/>
            <path d="M40.834,249.478a7.987,7.987,0,0,0-10.915,2.309l-7.66,11.777-7.764-11.9a7.889,7.889,0,1,0-13.21,8.629L5.5,266.751a1.728,1.728,0,1,0,2.9-1.889L4.181,258.4a4.444,4.444,0,0,1,1.288-6.14,4.516,4.516,0,0,1,6.131,1.289l8.634,13.234a2.412,2.412,0,0,0,2.027,1.1h0a2.412,2.412,0,0,0,2.027-1.1l8.528-13.112a4.515,4.515,0,0,1,6.129-1.3,4.443,4.443,0,0,1,1.3,6.138L27.086,278.742a2.416,2.416,0,0,0-.391,1.313l-.051,20.99a4.431,4.431,0,1,1-8.861-.022l.051-20.968a2.412,2.412,0,0,0-.393-1.327l-4.608-7.063a1.728,1.728,0,1,0-2.9,1.889l4.439,6.8-.051,20.656a7.888,7.888,0,1,0,15.776.039l.051-20.684L43.141,260.4a7.9,7.9,0,0,0-2.307-10.919Z" transform="translate(-0.005 -190.927)"/>
            <path d="M360.127,249.478a7.986,7.986,0,0,0-10.915,2.309l-7.66,11.777-7.764-11.9a7.889,7.889,0,1,0-13.21,8.629l13.09,20.066-.051,20.656a7.888,7.888,0,1,0,15.776.039l.008-3.325a1.729,1.729,0,0,0-1.724-1.733h0a1.729,1.729,0,0,0-1.728,1.724l-.008,3.325a4.431,4.431,0,1,1-8.861-.022l.051-20.968a2.414,2.414,0,0,0-.393-1.327L323.475,258.4a4.444,4.444,0,0,1,1.288-6.14,4.517,4.517,0,0,1,6.131,1.289l8.633,13.234a2.412,2.412,0,0,0,2.027,1.1h0a2.411,2.411,0,0,0,2.027-1.1l8.528-13.112a4.515,4.515,0,0,1,6.129-1.3,4.443,4.443,0,0,1,1.3,6.138l-13.158,20.231a2.413,2.413,0,0,0-.39,1.311l-.023,9.485a1.729,1.729,0,0,0,1.724,1.733h0a1.729,1.729,0,0,0,1.728-1.724l.023-9.18L362.435,260.4a7.9,7.9,0,0,0-2.307-10.92Z" transform="translate(-245.712 -190.927)"/>
            <path d="M14.159,105.817a1.845,1.845,0,0,0,1.835-1.616A52.615,52.615,0,0,1,31.917,69.714a1.729,1.729,0,1,0-2.407-2.481,56.065,56.065,0,0,0-16.966,36.75A1.729,1.729,0,0,0,14.159,105.817Z" transform="translate(-9.651 -51.362)"/>
            <path d="M113.629,13.315a52.792,52.792,0,0,1,65.336,3.077,1.729,1.729,0,1,0,2.268-2.609,56.248,56.248,0,0,0-69.619-3.277,1.728,1.728,0,1,0,2.014,2.809Z" transform="translate(-85.337 0)"/>
            <path d="M476.954,170.461a1.729,1.729,0,0,0-1.178,2.142,52.781,52.781,0,0,1,1.982,11.348,1.729,1.729,0,0,0,1.723,1.619,1.823,1.823,0,0,0,1.726-1.838,56.225,56.225,0,0,0-2.112-12.093A1.728,1.728,0,0,0,476.954,170.461Z" transform="translate(-366.073 -131.122)"/>
            <path d="M65.441,144.124a1.84,1.84,0,0,0,1.859-1.588,40.64,40.64,0,0,1,9.49-23.116,1.729,1.729,0,0,0-2.645-2.227,44.076,44.076,0,0,0-10.292,25.072A1.728,1.728,0,0,0,65.441,144.124Z" transform="translate(-49.134 -89.71)"/>
            <path d="M200.8,60.747a1.728,1.728,0,0,0,1.9-2.887,44.473,44.473,0,0,0-46.84-1.224,1.729,1.729,0,0,0,1.748,2.983A41.017,41.017,0,0,1,200.8,60.747Z" transform="translate(-119.285 -38.91)"/>
            <path d="M433.013,206.559a1.729,1.729,0,0,0-1.436,1.978c.171,1.077.3,2.175.385,3.263a1.729,1.729,0,0,0,1.722,1.595,1.82,1.82,0,0,0,1.725-1.862c-.092-1.179-.232-2.369-.418-3.538a1.727,1.727,0,0,0-1.978-1.436Z" transform="translate(-332.096 -158.937)"/>
            <path d="M118.9,189.8a1.728,1.728,0,0,0-2.193,1.08,36.464,36.464,0,0,0-1.692,7.64,1.728,1.728,0,0,0,1.563,1.879,1.836,1.836,0,0,0,1.88-1.563,33.089,33.089,0,0,1,1.522-6.844,1.728,1.728,0,0,0-1.08-2.193Z" transform="translate(-88.504 -145.983)"/>
            <path d="M260.6,130.287a1.729,1.729,0,0,0,1.718,1.556,1.815,1.815,0,0,0,1.722-1.9A31.674,31.674,0,0,0,253.489,109.4a36.014,36.014,0,0,0-21.854-8.82,36.439,36.439,0,0,0-6.027.5,1.728,1.728,0,1,0,.623,3.4,34.177,34.177,0,0,1,5.208-.453C246.894,104.912,259.158,115.952,260.6,130.287Z" transform="translate(-172.523 -77.394)"/>
            <path d="M174.56,196.086a21.757,21.757,0,0,0-2.111,6.587,1.728,1.728,0,0,0,1.521,1.914,1.829,1.829,0,0,0,1.914-1.521,18.482,18.482,0,0,1,1.78-5.456,1.729,1.729,0,0,0-3.1-1.524Z" transform="translate(-132.697 -150.15)"/>
            <path d="M221.46,159.879a18.619,18.619,0,0,1,6.13-1.158,16.058,16.058,0,0,1,15.834,13.722,1.729,1.729,0,0,0,1.709,1.486,1.808,1.808,0,0,0,1.714-1.972,19.455,19.455,0,0,0-19.257-16.693,22.025,22.025,0,0,0-7.468,1.427,1.729,1.729,0,0,0,1.337,3.188Z" transform="translate(-168.577 -119.481)"/>
            <path d="M363.159,66.5a2.1,2.1,0,0,0-.92,3.981,17.988,17.988,0,0,1,10.333,16.537,2.2,2.2,0,0,0,2.1,2.089,2.09,2.09,0,0,0,1.877-1.17,17.989,17.989,0,0,1,16.536-10.333,2.1,2.1,0,0,0,.92-3.982A17.989,17.989,0,0,1,383.676,57.09a2.1,2.1,0,0,0-3.981-.92A17.989,17.989,0,0,1,363.159,66.5Zm17.432-5.134a21.224,21.224,0,0,0,8.219,13.153,21.223,21.223,0,0,0-13.153,8.219,21.222,21.222,0,0,0-8.219-13.153A21.223,21.223,0,0,0,380.591,61.369Z" transform="translate(-277.855 -42.324)"/>
            <path d="M150.968,109.843a1.94,1.94,0,0,0-.069-2.416,2.123,2.123,0,0,0-2.56-.391,9.976,9.976,0,0,1-10.5-1.033,1.947,1.947,0,0,0-2.9,2.436,9.987,9.987,0,0,1-.936,10.7,1.939,1.939,0,0,0,.07,2.415,2.123,2.123,0,0,0,2.559.39,9.81,9.81,0,0,1,10.331.9,2.062,2.062,0,0,0,2.588.06,2.123,2.123,0,0,0,.391-2.56,9.976,9.976,0,0,1,1.033-10.5Zm-5.348,8.385a13.5,13.5,0,0,0-6.876-.6,13.188,13.188,0,0,0,.6-6.876,13.2,13.2,0,0,0,6.876.6A13.192,13.192,0,0,0,145.62,118.228Z" transform="translate(-102.817 -81.274)"/>
        </g>
    </g>
</svg>