<?xml version="1.0" encoding="utf-8"?>
<!-- Generator: Adobe Illustrator 24.1.3, SVG Export Plug-In . SVG Version: 6.00 Build 0)  -->
<svg version="1.1" id="Layer_1" xmlns="http://www.w3.org/2000/svg" xmlns:xlink="http://www.w3.org/1999/xlink" x="0px" y="0px"
	 width="462px" height="390px" viewBox="0 0 462 390" enable-background="new 0 0 462 390" xml:space="preserve">
<g>
	<path fill="#E4E8EA" d="M134.9,66l-3-1.3l1.3-3c0.3-0.7,0-1.6-0.8-2s-1.6,0-2,0.8l-1.3,3l-3-1.3c-0.7-0.3-1.6,0-2,0.8
		c-0.3,0.7,0,1.6,0.8,2l3,1.3l-1.3,3c-0.3,0.7,0,1.6,0.8,2c0.7,0.3,1.6,0,2-0.8l1.3-3l3,1.3c0.8,0.3,1.6,0,2-0.8
		C136,67.3,135.6,66.4,134.9,66z"/>
	<path fill="#E4E8EA" d="M16.7,214l-2-0.9l0.9-2c0.2-0.5,0-1.1-0.5-1.3s-1.1,0-1.3,0.5l-0.9,2l-2.1-0.9c-0.5-0.2-1.1,0-1.3,0.5
		s0,1.1,0.5,1.3l2.1,0.9l-0.9,2c-0.2,0.5,0,1.1,0.5,1.3s1.1,0,1.3-0.5l0.9-2l2,0.9c0.5,0.2,1.1,0,1.3-0.5
		C17.5,214.9,17.2,214.3,16.7,214z"/>
	<path fill="#E4E8EA" d="M461.4,195.3l-2-0.9l0.9-2c0.2-0.5,0-1.1-0.5-1.3s-1.1,0-1.3,0.5l-0.9,2l-2.1-0.9c-0.5-0.2-1.1,0-1.3,0.5
		s0,1.1,0.5,1.3l2.1,0.9l-0.9,2c-0.2,0.5,0,1.1,0.5,1.3s1.1,0,1.3-0.5l0.9-2l2,0.9c0.5,0.2,1.1,0,1.3-0.5
		C462.1,196.1,461.9,195.5,461.4,195.3z"/>
	<path fill="#E4E8EA" d="M30.6,295.3l-2-0.9l0.9-2c0.2-0.5,0-1.1-0.5-1.3c-0.5-0.2-1.1,0-1.3,0.5l-0.9,2l-2.1-0.9
		c-0.5-0.2-1.1,0-1.3,0.5c-0.2,0.5,0,1.1,0.5,1.3l2.1,0.9l-0.9,2c-0.2,0.5,0,1.1,0.5,1.3c0.5,0.2,1.1,0,1.3-0.5l0.9-2l2,0.9
		c0.5,0.2,1.1,0,1.3-0.5C31.3,296.1,31.1,295.5,30.6,295.3z"/>
	<path fill="#E4E8EA" d="M371.4,33.4c-3.3,0-6.1,2.7-6.1,6.1s2.7,6.1,6.1,6.1s6.1-2.7,6.1-6.1S374.7,33.4,371.4,33.4z M371.4,42.8
		c-1.9,0-3.4-1.5-3.4-3.4s1.5-3.4,3.4-3.4s3.4,1.5,3.4,3.4S373.3,42.8,371.4,42.8z"/>
	<path fill="#E4E8EA" d="M40.7,75.7c-3.3,0-6.1,2.7-6.1,6.1s2.7,6.1,6.1,6.1s6.1-2.7,6.1-6.1S44.1,75.7,40.7,75.7z M40.7,85.1
		c-1.9,0-3.4-1.5-3.4-3.4s1.5-3.4,3.4-3.4s3.4,1.5,3.4,3.4S42.6,85.1,40.7,85.1z"/>
	<path fill="#E4E8EA" d="M7.9,143.2c-2.1,0-3.8,1.7-3.8,3.8s1.7,3.8,3.8,3.8s3.8-1.7,3.8-3.8S10,143.2,7.9,143.2z M7.9,149.1
		c-1.2,0-2.1-0.9-2.1-2.1s0.9-2.1,2.1-2.1s2.1,0.9,2.1,2.1S9.1,149.1,7.9,149.1z"/>
	<path fill="#E4E8EA" d="M458.1,277.4c-2.1,0-3.8,1.7-3.8,3.8c0,2.1,1.7,3.8,3.8,3.8s3.8-1.7,3.8-3.8S460.1,277.4,458.1,277.4z
		 M458.1,283.2c-1.2,0-2.1-0.9-2.1-2.1s0.9-2.1,2.1-2.1s2.1,0.9,2.1,2.1S459.2,283.2,458.1,283.2z"/>
	<g>
		<g>
			<rect x="23.3" y="347" fill="#E4E8EA" width="359.2" height="2.7"/>
		</g>
		<g>
			<rect x="413" y="347" fill="#E4E8EA" width="49" height="2.7"/>
		</g>
		<g>
			<rect y="347" fill="#E4E8EA" width="15.9" height="2.7"/>
		</g>
		<g>
			<rect x="56.9" y="368.7" fill="#E4E8EA" width="15.6" height="2.7"/>
		</g>
		<g>
			<rect x="94.8" y="368.7" fill="#E4E8EA" width="28.2" height="2.7"/>
		</g>
		<g>
			<rect x="322.5" y="368.7" fill="#E4E8EA" width="12.6" height="2.7"/>
		</g>
		<g>
			<rect x="350.2" y="368.7" fill="#E4E8EA" width="54.6" height="2.7"/>
		</g>
		<g>
			<rect x="33.9" y="387.1" fill="#E4E8EA" width="13.8" height="2.7"/>
		</g>
		<g>
			<rect x="411.7" y="387.1" fill="#E4E8EA" width="13.8" height="2.7"/>
		</g>
	</g>
	<g>
		<path fill="#F0F0F2" d="M286.2,37.3h-84.4l-0.2-0.9c-1.1-5.3-0.6-9.6,1.8-12.8c2.8-4,7.2-6.5,11.8-6.7c1.9-0.1,3.8,0.2,5.7,0.5
			c2.2,0.4,4.2,0.7,6.2,0.4c4.7-0.6,8.2-4.4,11.8-8.3c3.7-4,7.6-8.2,13.1-9.1c5.9-0.8,12.3,3,15.2,9.1c0.3,0.7,0.6,1.4,0.9,2.1
			c0.6,1.6,1.3,3.1,2.4,4.2c1.2,1.1,2.8,1.6,4.6,2.1c0.8,0.2,1.6,0.5,2.4,0.8c6.4,2.6,10.2,10,8.9,17.7L286.2,37.3z M203.8,34.9
			h80.4c0.6-6.2-2.5-12-7.6-14.1c-0.7-0.3-1.5-0.5-2.2-0.8c-1.9-0.6-3.9-1.2-5.5-2.7c-1.5-1.4-2.2-3.3-3-5c-0.3-0.7-0.5-1.3-0.8-1.9
			c-2.4-5.2-7.7-8.4-12.7-7.7c-4.6,0.7-8.1,4.4-11.7,8.3c-3.8,4.1-7.7,8.3-13.2,9.1c-2.4,0.4-4.7,0-6.9-0.4
			c-1.8-0.3-3.5-0.6-5.2-0.5c-3.8,0.2-7.7,2.4-10,5.7C203.5,27.5,203,30.7,203.8,34.9z"/>
	</g>
	<g>
		<path fill="#F0F0F2" d="M418,128.4h-58.3l-0.3-0.7c-2.1-4.3-1.8-9.2,0.7-12.7c2.7-3.8,7.4-5.9,12-5.3c0.9,0.1,1.9,0.3,2.8,0.5
			c2.3,0.5,4.5,1,6.1-0.1c1.3-0.9,1.8-2.5,2.4-4.4c0.5-1.6,0.9-3.2,2-4.5c2.5-3.5,7.3-3.9,10.7-2.5c3.1,1.2,5.6,3.9,7.5,7.9l0.2,0.5
			c0.8,1.6,1.6,3.3,2.9,4c0.7,0.3,1.5,0.3,2.5,0.2c0.9,0,1.7,0,2.7,0.2c2.9,0.5,5.5,3.2,6.4,6.6c0.7,2.6,0.3,5.7,0,8.4L418,128.4z
			 M361.2,126h54.6c0.3-2.5,0.6-5.2,0-7.4c-0.6-2.5-2.5-4.4-4.6-4.8c-0.7-0.2-1.4-0.1-2.1-0.1c-1.1,0-2.3,0-3.5-0.4
			c-2.2-1-3.2-3.2-4.1-5.1l-0.2-0.5c-1.7-3.4-3.8-5.7-6.3-6.7s-6.1-0.8-7.9,1.7c-0.8,1-1.2,2.4-1.6,3.8c-0.6,2.2-1.3,4.4-3.3,5.7
			c-2.5,1.7-5.4,1-8,0.5c-0.9-0.2-1.7-0.4-2.6-0.5c-3.8-0.4-7.6,1.2-9.8,4.3C360.1,119.1,359.8,122.7,361.2,126z"/>
	</g>
	<g>
		<path fill="none" stroke="#E4E8EA" stroke-width="2" stroke-miterlimit="10" d="M189.4,301.6L189.4,301.6c8.3,0,15,6.7,15,15l0,0
			c0,8.3-6.7,15-15,15l0,0c-8.3,0-15-6.7-15-15l0,0C174.4,308.3,181.1,301.6,189.4,301.6z"/>
		<path fill="none" stroke="#E4E8EA" stroke-width="2" stroke-miterlimit="10" d="M327.2,301.6L327.2,301.6c8.3,0,15,6.7,15,15l0,0
			c0,8.3-6.7,15-15,15l0,0c-8.3,0-15-6.7-15-15l0,0C312.2,308.3,318.9,301.6,327.2,301.6z"/>
		<path fill="#E4E8EA" d="M122.6,299.7H95.8c-1.1,0-2,0.9-2,2c0,1,1,2,2,2h26.8c1.1,0,2-0.9,2-2S123.7,299.7,122.6,299.7z"/>
		<path fill="#E4E8EA" d="M122.6,287.7h-17.9c-1.1,0-2,0.9-2,2c0,1,1,2,2,2h17.9c1.1,0,2-0.9,2-2S123.7,287.7,122.6,287.7z"/>
		<path fill="#E4E8EA" d="M122.6,275.7h-6.9c-1.1,0-2,0.9-2,2c0,1,1,2,2,2h6.9c1.1,0,2-0.9,2-2S123.7,275.7,122.6,275.7z"/>
		<path fill="#E4E8EA" d="M154.9,128.4c-33.1,0-60.1,27-60.1,60.1s27,60.1,60.1,60.1s60.1-27,60.1-60.1S188,128.4,154.9,128.4z
			 M154.9,246.6c-32,0-58-26-58-58s26-58,58-58s58,26,58,58S186.9,246.6,154.9,246.6z"/>
		<path fill="#4B0082" d="M154.9,154.3c-14.7,0-26.7,12-26.7,26.7c0,17.9,25.6,43.1,25.9,43.4c0.2,0.2,0.6,0.3,0.9,0.3
			s0.5-0.1,0.7-0.3c0.3-0.3,26-25.5,26-43.4C181.6,166.3,169.6,154.3,154.9,154.3z"/>
		<path fill="#FFFFFF" d="M154.9,171.4c-5.3,0-9.7,4.4-9.7,9.7s4.4,9.7,9.7,9.7s9.7-4.4,9.7-9.7
			C164.6,175.7,160.3,171.4,154.9,171.4z"/>
		<path fill="#E4E8EA" d="M363.6,283.6h4.6c2.5,0,4.5-2,4.5-4.4c0-1.2-0.4-2.3-1.3-3.2c-0.9-0.9-2-1.4-3.2-1.4h-4.6
			c-2.5,0-4.5,2-4.5,4.4C359.1,281.6,361.1,283.6,363.6,283.6z"/>
		<path fill="#E4E8EA" d="M321.2,224.1h-9.8c-0.6,0-1,0.4-1,1c0,0.5,0.5,1,1,1h9.8c0.6,0,1-0.4,1-1S321.8,224.1,321.2,224.1z"/>
		<path fill="#E4E8EA" d="M271.7,297.7h-26.8c-0.6,0-1,0.4-1,1c0,0.5,0.5,1,1,1h26.8c0.6,0,1-0.4,1-1S272.3,297.7,271.7,297.7z"/>
		<path fill="#E4E8EA" d="M191.7,268.7h-39.8c-0.6,0-1,0.4-1,1c0,0.5,0.5,1,1,1h39.8c0.6,0,1-0.4,1-1S192.3,268.7,191.7,268.7z"/>
		<path fill="#E4E8EA" d="M145,317.6h13.7l0.4,3.4c0.9,6.5,8.5,26,30.2,26c24,0,30.5-22.1,30.5-28.3c0-0.6,0.1-1,0.1-1h76.5l0.4,3.4
			c0.9,6.5,4.1,12.7,8.9,17.4c0.3,0.3,7.6,8.5,21.4,8.5c26.4,0,30.1-25.2,30.2-26l0,0l0.4-3.4h13.7c6,0,10.9-4.9,10.9-10.9v-54.2
			c0-0.3-0.1-0.5-0.2-0.6l-0.1-0.1l-61.1-61.1c-2-2-4.8-3.2-7.7-3.2h-79.6c-0.6,0-1,0.5-1,1s0.5,1,1,1h23.6v72.8c0,0.6,0.5,1,1,1
			s1-0.5,1-1v-72.8h54c2.3,0,4.5,0.9,6.2,2.6l15,15h-31.8c-6.6,0-6,0-6,6v44.3c0,6.5,0,6,6,6h77.7v43.3c0,4.9-3.9,8.8-8.8,8.8h-13.7
			l-0.4-3.4c-1.1-8-5.4-15.2-11.9-20c-6.6-4.9-14.6-6.9-22.6-5.8c-13.3,1.9-23.9,12.5-25.9,25.9l-0.4,3.3h-76.5l-0.4-3.4
			c-1.1-8-5.4-15.2-11.9-20c-6.6-4.9-14.6-6.9-22.6-5.8c-13.3,1.9-23.9,12.5-25.9,25.9l-0.4,3.3h-13.7c-4.9,0-8.8-3.9-8.8-8.8v-39.4
			c0-0.6-0.5-1-1-1s-1,0.5-1,1v39.4c0,2.9,1.1,5.7,3.1,7.7C139.4,316.5,142.1,317.6,145,317.6z M298.7,261.4v-52.1h37.9l43.7,43.7
			v8.4H298.7z M327.2,288c15.7,0,28.5,12.8,28.5,28.5S342.9,345,327.2,345s-28.5-12.8-28.5-28.5S311.5,288,327.2,288z M189.4,288
			c15.7,0,28.5,12.8,28.5,28.5S205.1,345,189.4,345s-28.5-12.8-28.5-28.5S173.7,288,189.4,288z"/>
	</g>
</g>
</svg>
