<?xml version="1.0" encoding="utf-8"?>
<!-- Generator: Adobe Illustrator 24.1.3, SVG Export Plug-In . SVG Version: 6.00 Build 0)  -->
<svg version="1.1" id="Layer_1" xmlns="http://www.w3.org/2000/svg" xmlns:xlink="http://www.w3.org/1999/xlink" x="0px" y="0px"
	 width="462px" height="385.6px" viewBox="0 0 462 385.6" style="enable-background:new 0 0 462 385.6;" xml:space="preserve">
<style type="text/css">
	.st0{fill:#FFFFFF;stroke:#E5E9EA;stroke-width:1.5;stroke-miterlimit:10;stroke-dasharray:4.0191,4.0191;}
	.st1{fill:#E4E8EA;}
	.st2{fill:#7744AD;}
	.st3{fill:none;stroke:#F0F0F2;stroke-width:2.4;stroke-miterlimit:10;}
	.st4{fill:#4B0082;}
</style>
<g>
	<g>
		<path class="st0" d="M349.9,341.5L193,308.1c-3.2-0.7-5.4-3.9-4.7-7.2l31.7-149c0.7-3.2,3.9-5.4,7.2-4.7l157,33.5
			c3.2,0.7,5.4,3.9,4.7,7.2l-31.6,148.9C356.5,340.1,353.3,342.2,349.9,341.5z"/>
		<path class="st1" d="M345.9,330.4l-144.6-30.8c-1.3-0.3-2.1-1.6-1.8-2.8l29.1-136.6c0.3-1.3,1.6-2.1,2.8-1.8L376,189.2
			c1.3,0.3,2.1,1.6,1.8,2.8l-29.1,136.5C348.4,329.8,347.1,330.6,345.9,330.4z"/>
		<g id="outline_1_">
			<path class="st2" d="M315.2,274.4l-8.3-23c-1.7-4.8-3.8-9.4-6.2-13.9l-1.9-3.5l0.7-3.3c0.8-3.5,3.1-6.6,6.4-8.1l5.5-1.4
				c0.6-0.2,1.1-0.9,0.9-1.5c0-0.1-0.1-0.2-0.1-0.2l-3.7-7.4l0,0c-0.1-0.1-0.2-0.4-0.3-0.5l-4.5-3.6c-0.3-0.3-0.8-0.4-1.3-0.2
				c-1.9,0.6-4,0.8-6,0.4s-3.9-1.4-5.3-2.8l0,0c-0.3-0.3-0.7-0.4-1.2-0.3l-5.6,1.5c-0.2,0.1-0.3,0.1-0.5,0.3l0,0l-6.4,5.3
				c-0.5,0.5-0.7,1.3-0.2,1.8c0.1,0.1,0.1,0.1,0.2,0.1l4.5,3.5c2.4,2.8,3.3,6.4,2.6,10.1l-0.7,3.3l-3.2,2.4c-4,3-7.8,6.4-11.4,10.2
				l-17,17.7c-0.4,0.3-0.5,0.9-0.3,1.4c0.7,1.9,2,3.5,3.7,4.8l-0.9,1l0,0c0,0.1-0.1,0.1-0.1,0.2c-0.4,0.6-0.2,1.4,0.3,1.8l1.3,0.9
				c2.4,1.6,5.2,2.6,8.1,2.9l-0.8,1.8c-0.3,0.6,0,1.4,0.6,1.8c0,0,0,0,0.1,0l2.7,1.1c3.1,1.2,6.3,2.2,9.5,2.8l8.2,1.8
				c3.2,0.7,6.5,1.1,9.8,1.3l2.9,0.1c0.7,0,1.3-0.5,1.4-1.2c0,0,0,0,0-0.1v-1.9c2.8,0.9,5.7,1.1,8.6,0.6l1.6-0.3
				c0.7-0.1,1.2-0.8,1-1.5c0-0.1-0.1-0.1-0.1-0.2l0,0l-0.4-1.3c2-0.4,3.8-1.4,5.3-2.9C315.2,275.5,315.4,274.9,315.2,274.4z
				 M307.2,219.6l0.7-3.2l1.4,2.6L307.2,219.6z M301,210.7c-1.1,2.6-4,4-6.7,3c-2.1-0.8-3.4-2.9-3.3-5.1c1.4,0.9,3.1,1.7,4.8,2
				C297.6,211,299.3,210.9,301,210.7z M282.5,211l-0.7,3.2l-1.7-1.3L282.5,211z M284,216.2l1.6-7.4l2.8-0.7
				c-0.5,4.3,2.6,8.1,6.9,8.6c3.7,0.4,7.1-1.9,8.3-5.4l2.3,1.8l-1.6,7.4c-3.3,1.7-5.9,4.8-7,8.4c-2.1-0.2-4.2,0.4-5.7,1.9
				c-0.8-1.9-2.4-3.5-4.4-4.1C287.5,222.9,286.4,219.1,284,216.2z M292.6,233.6c0.9-1.3,2.5-2.2,4.1-2.1l-0.4,2
				C295.1,234,293.8,234.1,292.6,233.6z M286.1,231.2l0.4-2c1.5,0.6,2.6,2,2.9,3.6C288.1,232.9,286.9,232.2,286.1,231.2z
				 M257.6,268.9L257.6,268.9l11-12.3l-1.9-1.7l-9.4,10.4c-1.2-0.8-2.1-1.9-2.6-3l16.3-17.1c3.4-3.6,7.1-6.9,11-9.8l2.6-1.9
				c0.3,0.3,0.6,0.5,1,0.8l-5.5,8.4c-2.9,4.4-5.4,8.9-7.5,13.6l-7,15.3C262.6,271.3,260,270.4,257.6,268.9z M267.8,276.2l-1.5-0.6
				l8.5-18.2c2.1-4.7,4.6-9,7.3-13.4l5.6-8.6h-0.1c0.2,0,0.3,0.1,0.5,0.1c0.3,0.1,0.7,0.1,1,0.1l-9.4,44l-2.8-0.6
				C273.9,278.2,270.9,277.4,267.8,276.2L267.8,276.2z M294.6,281.9c-3.1-0.2-6.3-0.5-9.4-1.2l-2.8-0.6l9.4-44
				c0.3,0.1,0.7,0.2,1,0.3c0.2,0,0.3,0.1,0.5,0.1h-0.1l1.6,10.2c0.8,5,1.2,10.1,1.3,15.2l0.3,20.1L294.6,281.9z M310.9,275.5
				c-0.7,0.4-1.5,0.6-2.2,0.8l-4.3-13.3l-2.4,0.8l5.1,15.7H307c-2.8,0.4-5.6,0.1-8.2-0.8l-0.2-16.8c-0.1-5.2-0.5-10.4-1.3-15.5
				l-1.6-9.9c0.4-0.1,0.9-0.2,1.2-0.4l1.6,2.8c2.4,4.3,4.4,8.8,6,13.5l7.9,22.2C312,274.9,311.4,275.2,310.9,275.5L310.9,275.5z"/>
		</g>
	</g>
	<g>
		<path class="st0" d="M278.4,310.9l-157.5,30.6c-3.2,0.6-6.5-1.5-7.2-4.8l-29-149.5c-0.6-3.2,1.5-6.5,4.8-7.2l157.6-30.6
			c3.2-0.6,6.5,1.5,7.2,4.8l29,149.6C283.8,307.1,281.7,310.3,278.4,310.9z"/>
		<path class="st1" d="M270.3,302.3l-145.1,28.2c-1.3,0.2-2.6-0.6-2.8-1.9L95.8,191.5c-0.2-1.3,0.6-2.6,1.9-2.8l145.1-28.2
			c1.3-0.2,2.6,0.6,2.8,1.9l26.6,137C272.4,300.8,271.6,302.1,270.3,302.3z"/>
		<g id="outline_3_">
			<path class="st2" d="M220.1,262.8l-16.6-18c-3.5-3.7-7.2-7.2-11.2-10.4l-3.1-2.4l-0.6-3.3c-0.7-3.5,0.3-7.3,2.7-10l4.5-3.4
				c0.5-0.4,0.7-1.3,0.3-1.8c0-0.1-0.1-0.2-0.1-0.2l-6.3-5.4l0,0c-0.1-0.1-0.4-0.2-0.5-0.3l-5.6-1.6c-0.4-0.1-0.9,0-1.3,0.3
				c-1.5,1.3-3.3,2.3-5.4,2.7c-2,0.4-4.1,0.2-6-0.5l0,0c-0.4-0.1-0.8,0-1.2,0.2l-4.6,3.5c-0.2,0.1-0.3,0.3-0.3,0.5l0,0l-3.9,7.4
				c-0.3,0.7-0.1,1.5,0.5,1.7c0.1,0.1,0.1,0.1,0.2,0.1l5.5,1.5c3.3,1.6,5.6,4.6,6.3,8.3l0.6,3.3l-2,3.4c-2.5,4.4-4.7,9-6.5,13.8
				l-8.7,22.9c-0.2,0.4-0.1,1,0.3,1.4c1.4,1.5,3.2,2.4,5.3,3l-0.5,1.3l0,0c0,0.1-0.1,0.1-0.1,0.2c-0.2,0.7,0.4,1.4,1,1.5l1.6,0.3
				c2.9,0.6,5.8,0.4,8.6-0.4v1.9c-0.1,0.7,0.6,1.3,1.3,1.4c0,0,0,0,0.1,0l2.9-0.1c3.3-0.1,6.6-0.5,9.9-1.1l8.2-1.6
				c3.2-0.6,6.4-1.6,9.6-2.7l2.8-1c0.7-0.2,1-1,0.8-1.7c0,0,0,0,0-0.1l-0.8-1.8c2.9-0.3,5.7-1.2,8.1-2.8l1.4-0.9
				c0.6-0.4,0.8-1.2,0.4-1.8c0-0.1-0.1-0.1-0.1-0.2l0,0l-0.9-1c1.7-1.1,2.9-2.8,3.8-4.7C220.6,263.8,220.5,263.2,220.1,262.8z
				 M191.4,215.5l-0.6-3.2l2.3,1.9L191.4,215.5z M182.2,209.7c0,2.8-2.1,5.3-5,5.3c-2.2,0-4.2-1.3-5-3.4c1.7,0.3,3.5,0.3,5.2,0
				C179.2,211.3,180.8,210.6,182.2,209.7z M165.2,217.3l0.6,3.2l-2-0.5L165.2,217.3z M168.7,221.4l-1.4-7.5l2.3-1.8
				c1.2,4.1,5.5,6.5,9.7,5.3c3.6-1.1,5.9-4.5,5.5-8.2l2.8,0.8l1.4,7.5c-2.4,2.9-3.6,6.7-3.2,10.5c-2,0.6-3.7,2-4.5,4
				c-1.5-1.4-3.6-2.3-5.7-2.1C174.5,226.3,172.1,223.2,168.7,221.4z M183.4,234.1c0.3-1.6,1.4-3,3-3.5l0.4,2
				C185.9,233.4,184.7,234.1,183.4,234.1z M176.5,234.4l-0.4-2c1.6,0,3.2,0.8,4.1,2.2C179,235.2,177.7,235,176.5,234.4z M165,280.3
				L165,280.3l5.3-15.6l-2.4-0.9l-4.6,13.2c-1.4-0.2-2.6-0.9-3.6-1.7l8.3-22.1c1.8-4.6,3.8-9.1,6.3-13.3l1.6-2.8
				c0.4,0.1,0.8,0.3,1.2,0.4l-1.7,9.9c-0.9,5.2-1.5,10.3-1.6,15.5l-0.5,16.8C170.6,280.5,167.8,280.7,165,280.3z M177.3,283h-1.6
				l0.7-20.1c0.1-5.1,0.7-10.1,1.5-15.2l1.8-10.1h-0.1c0.2,0,0.3-0.1,0.5-0.1c0.3-0.1,0.7-0.1,1-0.3l8.6,44.2l-2.8,0.6
				C183.6,282.5,180.5,282.9,177.3,283L177.3,283z M204.2,277.8c-2.9,1.1-6,2-9.1,2.6l-2.8,0.6l-8.6-44.2c0.3-0.1,0.7,0,1-0.1
				c0.2,0,0.3-0.1,0.5-0.1h-0.1l5.5,8.7c2.7,4.3,5.1,8.8,7.1,13.5l8.2,18.4L204.2,277.8z M216.7,265.5c-0.5,0.6-1.1,1.1-1.7,1.6
				l-9.2-10.5l-1.9,1.7l10.9,12.5h-0.1c-2.4,1.5-5.1,2.3-7.9,2.4l-6.8-15.4c-2.1-4.8-4.6-9.4-7.3-13.8l-5.3-8.5
				c0.4-0.3,0.7-0.5,1-0.8l2.5,2c3.8,3,7.5,6.4,10.8,10l16,17.4C217.4,264.5,217,265,216.7,265.5L216.7,265.5z"/>
		</g>
	</g>
	<path class="st1" d="M134.9,61.8l-3-1.3l1.3-3c0.3-0.7,0-1.6-0.8-2s-1.6,0-2,0.8l-1.3,3l-3-1.3c-0.7-0.3-1.6,0-2,0.8
		c-0.3,0.7,0,1.6,0.8,2l3,1.3l-1.3,3c-0.3,0.7,0,1.6,0.8,2c0.7,0.3,1.6,0,2-0.8l1.3-3l3,1.3c0.8,0.3,1.6,0,2-0.8
		C136,63.1,135.6,62.2,134.9,61.8z"/>
	<path class="st1" d="M16.7,209.8l-2-0.9l0.9-2c0.2-0.5,0-1.1-0.5-1.3s-1.1,0-1.3,0.5l-0.9,2l-2.1-0.9c-0.5-0.2-1.1,0-1.3,0.5
		s0,1.1,0.5,1.3l2.1,0.9l-0.9,2c-0.2,0.5,0,1.1,0.5,1.3s1.1,0,1.3-0.5l0.9-2l2,0.9c0.5,0.2,1.1,0,1.3-0.5
		C17.5,210.7,17.2,210.1,16.7,209.8z"/>
	<path class="st1" d="M451.8,244.7l-2-0.9l0.9-2c0.2-0.5,0-1.1-0.5-1.3s-1.1,0-1.3,0.5l-0.9,2l-2.1-0.9c-0.5-0.2-1.1,0-1.3,0.5
		s0,1.1,0.5,1.3l2.1,0.9l-0.9,2c-0.2,0.5,0,1.1,0.5,1.3s1.1,0,1.3-0.5l0.9-2l2,0.9c0.5,0.2,1.1,0,1.3-0.5
		C452.5,245.5,452.3,244.9,451.8,244.7z"/>
	<path class="st1" d="M50.2,290.7l-2-0.9l0.9-2c0.2-0.5,0-1.1-0.5-1.3c-0.5-0.2-1.1,0-1.3,0.5l-0.9,2l-2.1-0.9
		c-0.5-0.2-1.1,0-1.3,0.5s0,1.1,0.5,1.3l2.1,0.9l-0.9,2c-0.2,0.5,0,1.1,0.5,1.3c0.5,0.2,1.1,0,1.3-0.5l0.9-2l2,0.9
		c0.5,0.2,1.1,0,1.3-0.5S50.7,290.9,50.2,290.7z"/>
	<path class="st1" d="M356.3,29.2c-3.3,0-6.1,2.7-6.1,6.1s2.7,6.1,6.1,6.1s6.1-2.7,6.1-6.1S359.6,29.2,356.3,29.2z M356.3,38.6
		c-1.9,0-3.4-1.5-3.4-3.4s1.5-3.4,3.4-3.4s3.4,1.5,3.4,3.4S358.2,38.6,356.3,38.6z"/>
	<path class="st1" d="M40.7,71.5c-3.3,0-6.1,2.7-6.1,6.1s2.7,6.1,6.1,6.1s6.1-2.7,6.1-6.1S44.1,71.5,40.7,71.5z M40.7,80.9
		c-1.9,0-3.4-1.5-3.4-3.4s1.5-3.4,3.4-3.4s3.4,1.5,3.4,3.4S42.6,80.9,40.7,80.9z"/>
	<path class="st1" d="M271.9,90.8c-2.1,0-3.8,1.7-3.8,3.8s1.7,3.8,3.8,3.8s3.8-1.7,3.8-3.8C275.7,92.4,274,90.8,271.9,90.8z
		 M271.9,96.6c-1.2,0-2.1-0.9-2.1-2.1s0.9-2.1,2.1-2.1s2.1,0.9,2.1,2.1S273.1,96.6,271.9,96.6z"/>
	<path class="st1" d="M7.9,139c-2.1,0-3.8,1.7-3.8,3.8s1.7,3.8,3.8,3.8s3.8-1.7,3.8-3.8S10,139,7.9,139z M7.9,144.9
		c-1.2,0-2.1-0.9-2.1-2.1s0.9-2.1,2.1-2.1s2.1,0.9,2.1,2.1S9.1,144.9,7.9,144.9z"/>
	<path class="st1" d="M418.5,299.1c-2.1,0-3.8,1.7-3.8,3.8c0,2.1,1.7,3.8,3.8,3.8s3.8-1.7,3.8-3.8S420.6,299.1,418.5,299.1z
		 M418.5,304.9c-1.2,0-2.1-0.9-2.1-2.1s0.9-2.1,2.1-2.1s2.1,0.9,2.1,2.1S419.7,304.9,418.5,304.9z"/>
	<g>
		<g>
			<rect x="23.3" y="342.8" class="st1" width="359.2" height="2.7"/>
		</g>
		<g>
			<rect x="413" y="342.8" class="st1" width="49" height="2.7"/>
		</g>
		<g>
			<rect y="342.8" class="st1" width="15.9" height="2.7"/>
		</g>
		<g>
			<rect x="56.9" y="364.5" class="st1" width="15.6" height="2.7"/>
		</g>
		<g>
			<rect x="94.8" y="364.5" class="st1" width="28.2" height="2.7"/>
		</g>
		<g>
			<rect x="322.5" y="364.5" class="st1" width="12.6" height="2.7"/>
		</g>
		<g>
			<rect x="350.2" y="364.5" class="st1" width="54.6" height="2.7"/>
		</g>
		<g>
			<rect x="33.9" y="382.9" class="st1" width="13.8" height="2.7"/>
		</g>
		<g>
			<rect x="411.7" y="382.9" class="st1" width="13.8" height="2.7"/>
		</g>
	</g>
	<path class="st3" d="M285.2,35.9h-82.4c-0.9-4.2-0.9-8.4,1.6-11.9c2.5-3.6,6.6-6,10.9-6.2c4-0.2,8,1.5,12,0.9
		c10.2-1.4,14.7-15.8,24.9-17.4c5.7-0.8,11.4,3.1,13.9,8.4c1.1,2.3,1.7,4.9,3.5,6.6c2,1.8,4.9,2.2,7.4,3.2
		C283.3,22,286.3,29.2,285.2,35.9z"/>
	<path class="st3" d="M438.5,113.2H384c-1.8-3.7-1.8-8.1,0.6-11.5s6.7-5.3,10.9-4.8c3.3,0.4,6.9,2.1,9.7,0.2
		c2.9-1.9,2.5-6.4,4.6-9.2c2-2.8,6.1-3.4,9.3-2.1c3.2,1.3,5.4,4.2,6.9,7.3c0.9,1.9,1.8,4.1,3.7,5c1.7,0.7,3.6,0.1,5.4,0.5
		c2.7,0.5,4.8,3,5.5,5.7S438.8,110.4,438.5,113.2z"/>
	<g>
		<path class="st0" d="M314.5,309.8H154.1c-3.3,0-6.1-2.7-6.1-6.1V151.4c0-3.3,2.7-6.1,6.1-6.1h160.5c3.3,0,6.1,2.7,6.1,6.1v152.3
			C320.6,307.1,317.9,309.8,314.5,309.8z"/>
		<path class="st4" d="M308.2,299.8H160.4c-1.3,0-2.4-1.1-2.4-2.4V157.7c0-1.3,1.1-2.4,2.4-2.4h147.8c1.3,0,2.4,1.1,2.4,2.4v139.6
			C310.6,298.7,309.5,299.8,308.2,299.8z"/>
		<path class="st2" d="M246,199c-1.9-1.9-5.1-1.9-7.2,0l-18.5,18.5l-5.2-5.2c-0.9-0.9-2.2-1.5-3.5-1.4c-1.3,0-2.6,0.5-3.5,1.5
			l-13.5,13.5c-1.4,1.4-1.9,3.6-1.1,5.5s2.6,3.1,4.6,3.1h17.5h9.4h44.1c2,0,3.9-1.3,4.6-3.1s0.3-4-1.1-5.5L246,199z"/>
		<circle class="st2" cx="211.4" cy="192.1" r="7.5"/>
		<g>
			<path class="st2" d="M197.8,247.5h5v13.8h8.5v4h-13.5V247.5z"/>
			<path class="st2" d="M216.9,264.4c-1.5-0.8-2.7-1.9-3.5-3.3c-0.9-1.4-1.3-3-1.3-4.7c0-1.8,0.4-3.3,1.3-4.7c0.9-1.4,2-2.5,3.5-3.3
				s3.2-1.2,5.1-1.2s3.6,0.4,5.1,1.2s2.7,1.9,3.5,3.3c0.9,1.4,1.3,3,1.3,4.7c0,1.8-0.4,3.3-1.3,4.7c-0.9,1.4-2,2.5-3.5,3.3
				s-3.2,1.2-5.1,1.2C220.1,265.6,218.4,265.2,216.9,264.4z M224.4,260.8c0.7-0.4,1.3-1,1.7-1.8s0.6-1.7,0.6-2.7s-0.2-1.9-0.6-2.6
				c-0.4-0.8-1-1.4-1.7-1.8s-1.5-0.6-2.4-0.6s-1.7,0.2-2.4,0.6c-0.7,0.4-1.3,1-1.7,1.8s-0.6,1.7-0.6,2.6c0,1,0.2,1.9,0.6,2.7
				c0.4,0.8,1,1.4,1.7,1.8s1.5,0.6,2.4,0.6C222.9,261.5,223.7,261.3,224.4,260.8z"/>
			<path class="st2" d="M246.4,256h4.4v7.4c-1,0.7-2.2,1.3-3.5,1.7c-1.3,0.4-2.6,0.6-4,0.6c-1.9,0-3.5-0.4-5-1.2
				c-1.5-0.8-2.7-1.9-3.5-3.3s-1.3-3-1.3-4.8c0-1.8,0.4-3.4,1.3-4.8c0.8-1.4,2-2.5,3.5-3.3s3.2-1.2,5.1-1.2c1.7,0,3.1,0.3,4.5,0.8
				c1.3,0.6,2.4,1.4,3.3,2.4l-3.2,2.9c-1.2-1.3-2.6-2-4.3-2c-1.5,0-2.7,0.5-3.7,1.4c-0.9,0.9-1.4,2.2-1.4,3.7c0,1,0.2,1.9,0.6,2.6
				c0.4,0.8,1,1.4,1.8,1.8s1.6,0.6,2.6,0.6s1.9-0.2,2.7-0.6L246.4,256L246.4,256z"/>
			<path class="st2" d="M257.9,264.4c-1.5-0.8-2.7-1.9-3.5-3.3c-0.9-1.4-1.3-3-1.3-4.7c0-1.8,0.4-3.3,1.3-4.7c0.9-1.4,2-2.5,3.5-3.3
				s3.2-1.2,5.1-1.2s3.6,0.4,5.1,1.2s2.7,1.9,3.5,3.3c0.9,1.4,1.3,3,1.3,4.7c0,1.8-0.4,3.3-1.3,4.7c-0.9,1.4-2,2.5-3.5,3.3
				s-3.2,1.2-5.1,1.2S259.4,265.2,257.9,264.4z M265.4,260.8c0.7-0.4,1.3-1,1.7-1.8c0.4-0.8,0.6-1.7,0.6-2.7s-0.2-1.9-0.6-2.6
				c-0.4-0.8-1-1.4-1.7-1.8s-1.5-0.6-2.4-0.6s-1.7,0.2-2.4,0.6c-0.7,0.4-1.3,1-1.7,1.8s-0.6,1.7-0.6,2.6c0,1,0.2,1.9,0.6,2.7
				c0.4,0.8,1,1.4,1.7,1.8s1.5,0.6,2.4,0.6C263.9,261.5,264.7,261.3,265.4,260.8z"/>
		</g>
	</g>
</g>
</svg>
