<?xml version="1.0" encoding="utf-8"?>
<!-- Generator: Adobe Illustrator 24.1.3, SVG Export Plug-In . SVG Version: 6.00 Build 0)  -->
<svg version="1.1" id="Layer_1" xmlns="http://www.w3.org/2000/svg" xmlns:xlink="http://www.w3.org/1999/xlink" x="0px" y="0px"
	 width="462px" height="389.8px" viewBox="0 0 462 389.8" style="enable-background:new 0 0 462 389.8;" xml:space="preserve">
<style type="text/css">
	.st0{fill:#E4E8EA;}
	.st1{fill:none;stroke:#F0F0F2;stroke-width:2.4;stroke-miterlimit:10;}
	.st2{fill:#D4D7D8;}
	.st3{fill:#FFFFFF;}
	.st4{fill:none;stroke:#4B0082;stroke-width:4;stroke-miterlimit:10;}
	.st5{fill:#4B0082;}
	.st6{fill:#FFFFFF;stroke:#7744AD;stroke-width:4;stroke-miterlimit:10;}
	.st7{fill:none;stroke:#7744AD;stroke-width:4;stroke-linecap:round;stroke-miterlimit:10;}
	.st8{enable-background:new    ;}
	.st9{fill:#7744AD;}
</style>
<g>
	<path class="st0" d="M134.9,66l-3-1.3l1.3-3c0.3-0.7,0-1.6-0.8-2s-1.6,0-2,0.8l-1.3,3l-3-1.3c-0.7-0.3-1.6,0-2,0.8
		c-0.3,0.7,0,1.6,0.8,2l3,1.3l-1.3,3c-0.3,0.7,0,1.6,0.8,2c0.7,0.3,1.6,0,2-0.8l1.3-3l3,1.3c0.8,0.3,1.6,0,2-0.8
		C136,67.3,135.6,66.4,134.9,66z"/>
	<path class="st0" d="M20.6,203.5l-2-0.9l0.9-2c0.2-0.5,0-1.1-0.5-1.3s-1.1,0-1.3,0.5l-0.9,2l-2.1-0.9c-0.5-0.2-1.1,0-1.3,0.5
		s0,1.1,0.5,1.3l2.1,0.9l-0.9,2c-0.2,0.5,0,1.1,0.5,1.3s1.1,0,1.3-0.5l0.9-2l2,0.9c0.5,0.2,1.1,0,1.3-0.5
		C21.4,204.4,21.1,203.8,20.6,203.5z"/>
	<path class="st0" d="M461.4,255.3l-2-0.9l0.9-2c0.2-0.5,0-1.1-0.5-1.3s-1.1,0-1.3,0.5l-0.9,2l-2.1-0.9c-0.5-0.2-1.1,0-1.3,0.5
		s0,1.1,0.5,1.3l2.1,0.9l-0.9,2c-0.2,0.5,0,1.1,0.5,1.3c0.5,0.2,1.1,0,1.3-0.5l0.9-2l2,0.9c0.5,0.2,1.1,0,1.3-0.5
		C462.1,256.1,461.9,255.5,461.4,255.3z"/>
	<path class="st0" d="M60.3,268.8l-2-0.9l0.9-2c0.2-0.5,0-1.1-0.5-1.3c-0.5-0.2-1.1,0-1.3,0.5l-0.9,2l-2.1-0.9
		c-0.5-0.2-1.1,0-1.3,0.5s0,1.1,0.5,1.3l2.1,0.9l-0.9,2c-0.2,0.5,0,1.1,0.5,1.3c0.5,0.2,1.1,0,1.3-0.5l0.9-2l2,0.9
		c0.5,0.2,1.1,0,1.3-0.5C61,269.6,60.8,269,60.3,268.8z"/>
	<path class="st0" d="M356.3,33.4c-3.3,0-6.1,2.7-6.1,6.1s2.7,6.1,6.1,6.1s6.1-2.7,6.1-6.1S359.6,33.4,356.3,33.4z M356.3,42.8
		c-1.9,0-3.4-1.5-3.4-3.4s1.5-3.4,3.4-3.4s3.4,1.5,3.4,3.4S358.2,42.8,356.3,42.8z"/>
	<path class="st0" d="M40.7,75.7c-3.3,0-6.1,2.7-6.1,6.1s2.7,6.1,6.1,6.1s6.1-2.7,6.1-6.1S44.1,75.7,40.7,75.7z M40.7,85.1
		c-1.9,0-3.4-1.5-3.4-3.4s1.5-3.4,3.4-3.4s3.4,1.5,3.4,3.4S42.6,85.1,40.7,85.1z"/>
	<path class="st0" d="M300,71.9c-2.1,0-3.8,1.7-3.8,3.8s1.7,3.8,3.8,3.8s3.8-1.7,3.8-3.8C303.8,73.5,302.1,71.9,300,71.9z M300,77.7
		c-1.2,0-2.1-0.9-2.1-2.1s0.9-2.1,2.1-2.1s2.1,0.9,2.1,2.1S301.2,77.7,300,77.7z"/>
	<path class="st0" d="M85.3,143.2c-2.1,0-3.8,1.7-3.8,3.8s1.7,3.8,3.8,3.8s3.8-1.7,3.8-3.8S87.4,143.2,85.3,143.2z M85.3,149.1
		c-1.2,0-2.1-0.9-2.1-2.1s0.9-2.1,2.1-2.1s2.1,0.9,2.1,2.1S86.5,149.1,85.3,149.1z"/>
	<path class="st0" d="M418.5,303.3c-2.1,0-3.8,1.7-3.8,3.8c0,2.1,1.7,3.8,3.8,3.8s3.8-1.7,3.8-3.8S420.6,303.3,418.5,303.3z
		 M418.5,309.1c-1.2,0-2.1-0.9-2.1-2.1s0.9-2.1,2.1-2.1s2.1,0.9,2.1,2.1S419.7,309.1,418.5,309.1z"/>
	<g>
		<g>
			<rect x="23.3" y="347" class="st0" width="359.2" height="2.7"/>
		</g>
		<g>
			<rect x="413" y="347" class="st0" width="49" height="2.7"/>
		</g>
		<g>
			<rect y="347" class="st0" width="15.9" height="2.7"/>
		</g>
		<g>
			<rect x="56.9" y="368.7" class="st0" width="15.6" height="2.7"/>
		</g>
		<g>
			<rect x="94.8" y="368.7" class="st0" width="28.2" height="2.7"/>
		</g>
		<g>
			<rect x="322.5" y="368.7" class="st0" width="12.6" height="2.7"/>
		</g>
		<g>
			<rect x="350.2" y="368.7" class="st0" width="54.6" height="2.7"/>
		</g>
		<g>
			<rect x="33.9" y="387.1" class="st0" width="13.8" height="2.7"/>
		</g>
		<g>
			<rect x="411.7" y="387.1" class="st0" width="13.8" height="2.7"/>
		</g>
	</g>
	<path class="st1" d="M273.2,35.9h-82.4c-0.9-4.2-0.9-8.4,1.6-11.9c2.5-3.6,6.6-6,10.9-6.2c4-0.2,8,1.5,12,0.9
		c10.2-1.4,14.7-15.8,24.9-17.4c5.7-0.8,11.4,3.1,13.9,8.4c1.1,2.3,1.7,4.9,3.5,6.6c2,1.8,4.9,2.2,7.4,3.2
		C271.3,22,274.3,29.2,273.2,35.9z"/>
	<path class="st1" d="M439.8,132.9h-54.5c-1.8-3.7-1.8-8.1,0.6-11.5s6.7-5.3,10.9-4.8c3.3,0.4,6.9,2.1,9.7,0.2
		c2.9-1.9,2.5-6.4,4.6-9.2c2-2.8,6.1-3.4,9.3-2.1c3.2,1.3,5.4,4.2,6.9,7.3c0.9,1.9,1.8,4.1,3.7,5c1.7,0.7,3.6,0.1,5.4,0.5
		c2.7,0.5,4.8,3,5.5,5.7S440.1,130.1,439.8,132.9z"/>
	<g>
		<g>
			<polygon class="st0" points="257.1,256.6 257.1,326.6 278.6,346.6 312.6,346.6 333.6,326.5 333.6,256.6 313.1,234.1 278.6,234.1 
							"/>
			<g>
				<path class="st2" d="M315.4,307.8h-40c-1.1,0-2-0.9-2-2s0.9-2,2-2h40c1.1,0,2,0.9,2,2S316.5,307.8,315.4,307.8z"/>
			</g>
			<g>
				<path class="st2" d="M315.4,318.8h-40c-1.1,0-2-0.9-2-2s0.9-2,2-2h40c1.1,0,2,0.9,2,2S316.5,318.8,315.4,318.8z"/>
			</g>
			<g>
				<circle class="st3" cx="295.4" cy="264.1" r="9.5"/>
				<path class="st2" d="M295.4,275.6c-6.3,0-11.5-5.2-11.5-11.5s5.2-11.5,11.5-11.5s11.5,5.2,11.5,11.5S301.8,275.6,295.4,275.6z
					 M295.4,256.6c-4.1,0-7.5,3.4-7.5,7.5s3.4,7.5,7.5,7.5s7.5-3.4,7.5-7.5S299.5,256.6,295.4,256.6z"/>
			</g>
			<path class="st4" d="M288.8,212.4"/>
			<g>
				<path class="st2" d="M295.4,264.1c-0.8,0.8-2.1,0.7-2.9-0.1c-4.9-5.4-20.5-23.8-19.2-36.4c0-1.1,0.3-8,4.5-11.9
					c2.1-2,4.9-2.8,8.1-2.5c0.8,0,4.4,0.3,7.6,3.6c3.6,3.6,5.3,9.5,5.2,17.3l-4-0.1c0.3-16.5-8.5-16.9-8.9-16.9h-0.2
					c-2.1-0.2-3.8,0.3-5.1,1.4c-3.2,2.9-3.2,9-3.2,9v0.2c-1.3,10.9,13.6,28.3,18.1,33.4C296.2,262.1,296.2,263.3,295.4,264.1
					L295.4,264.1z"/>
			</g>
		</g>
		<g>
			<path class="st5" d="M190.7,180.9l-54.5,105.9c-2.7,5.3-0.8,11.9,4.4,14.9l71.6,41.7c5.4,3.2,12.4,1.3,15.5-4.2l62-108.9
				l-12.4-41.2l-44.5-23L190.7,180.9z"/>
			<circle class="st6" cx="236" cy="210.2" r="11"/>
			<path class="st7" d="M236,210.2c0,0,60.4-74.7-8-91.7"/>
			<g class="st8">
				<path class="st9" d="M232,244.7l5.9,3.6l-45.1,20.1l-5.9-3.6L232,244.7z M195.1,244.3c-0.5-2.7,0.1-5.5,1.9-8.5
					c1.8-2.9,4-4.7,6.7-5.5c2.7-0.7,5.3-0.3,7.8,1.2c2.5,1.6,4.1,3.7,4.6,6.4s-0.1,5.5-1.9,8.4s-4,4.7-6.7,5.5s-5.3,0.3-7.8-1.2
					C197.2,249.1,195.6,247,195.1,244.3z M205.7,246.9c1.2-0.5,2.4-1.7,3.5-3.5s1.6-3.4,1.6-4.7c-0.1-1.3-0.7-2.3-1.8-3
					s-2.3-0.7-3.5-0.2s-2.4,1.7-3.5,3.5s-1.6,3.4-1.5,4.7c0.1,1.4,0.7,2.4,1.8,3C203.3,247.3,204.5,247.4,205.7,246.9z M209.4,277.7
					c-0.8-1.6-1.2-3.3-1-5.2c0.2-1.9,0.8-3.8,2-5.7c1.2-1.9,2.6-3.4,4.2-4.4s3.3-1.5,5.1-1.5s3.5,0.6,5.2,1.6
					c2.5,1.6,4.1,3.7,4.6,6.4c0.5,2.7-0.1,5.5-1.9,8.5c-1.8,2.9-4,4.7-6.7,5.5c-2.7,0.7-5.3,0.3-7.8-1.2
					C211.5,280.6,210.3,279.3,209.4,277.7z M219.2,277.8c1.2-0.5,2.4-1.7,3.5-3.5s1.6-3.3,1.6-4.7c-0.1-1.3-0.7-2.4-1.8-3.1
					s-2.3-0.8-3.5-0.2c-1.2,0.5-2.4,1.7-3.5,3.5s-1.6,3.4-1.5,4.7c0.1,1.3,0.7,2.3,1.8,3C216.8,278.3,218,278.3,219.2,277.8z"/>
			</g>
			<g>
				<path class="st9" d="M221.4,106.1c0.6-0.4,0.7-1.2,0.3-1.8l-5-7.4c-0.4-0.6-1.2-0.7-1.8-0.3s-0.7,1.2-0.3,1.8l5,7.4
					C219.9,106.2,220.8,106.5,221.4,106.1z"/>
				<path class="st9" d="M236.7,89.9c-0.7,0-1.3,0.6-1.4,1.3v8.9c0,0.7,0.6,1.3,1.3,1.4c0.3,0,0.5,0,0.7-0.2
					c0.4-0.2,0.5-0.7,0.6-1.1v-8.9C238,90.3,237.4,89.7,236.7,89.9z"/>
				<path class="st9" d="M210.9,118.6c0.2-0.2,0.3-0.4,0.4-0.6c0.2-0.7-0.1-1.5-0.7-1.8l-8.2-3.5c-0.7-0.2-1.5,0.1-1.8,0.7
					c-0.2,0.7,0.1,1.5,0.7,1.8l8.2,3.5C210.1,119,210.5,118.9,210.9,118.6z"/>
				<path class="st9" d="M207.7,130.6l-8.8,0.8c-0.6,0.1-1.3,0.7-1.2,1.5c0,0.7,0.7,1.3,1.5,1.2l8.8-0.8c0.3,0,0.4-0.1,0.5-0.2
					c0.4-0.2,0.7-0.8,0.5-1.2C209.1,131.1,208.4,130.6,207.7,130.6z"/>
				<path class="st9" d="M255.1,94.2c-0.6-0.3-1.4-0.1-1.8,0.6l-4.2,7.9c-0.3,0.6-0.1,1.4,0.6,1.8c0.5,0.2,1,0.2,1.3,0
					c0.2-0.2,0.3-0.4,0.4-0.4l4.2-7.9C256.1,95.4,255.7,94.6,255.1,94.2z"/>
			</g>
		</g>
	</g>
	<g>
		<circle class="st9" cx="146.8" cy="292.7" r="3"/>
		<circle class="st9" cx="156.6" cy="298.4" r="3"/>
		<circle class="st9" cx="166.6" cy="304.3" r="3"/>
		<circle class="st9" cx="176.4" cy="310.1" r="3"/>
		<circle class="st9" cx="186.5" cy="316" r="3"/>
		<circle class="st9" cx="196.3" cy="321.8" r="3"/>
		<circle class="st9" cx="206.3" cy="327.7" r="3"/>
		<circle class="st9" cx="216.1" cy="333.4" r="3"/>
	</g>
</g>
</svg>
