<?xml version="1.0" encoding="utf-8"?>
<!-- Generator: Adobe Illustrator 24.1.3, SVG Export Plug-In . SVG Version: 6.00 Build 0)  -->
<svg version="1.1" id="Layer_1" xmlns="http://www.w3.org/2000/svg" xmlns:xlink="http://www.w3.org/1999/xlink" x="0px" y="0px"
	 width="543.7px" height="101.2px" viewBox="0 0 543.7 101.2" style="enable-background:new 0 0 543.7 101.2;" xml:space="preserve"
	>
<style type="text/css">
	.st0{fill:none;stroke:#D1D1D1;stroke-miterlimit:10;}
	.st1{fill:none;stroke:#D1D1D1;stroke-miterlimit:10;stroke-dasharray:4.0058,2.0029;}
	.st2{fill:#D1D1D1;}
</style>
<g>
	<g>
		<g>
			<path class="st0" d="M0.9,100.5c0.3-0.6,0.6-1.2,0.9-1.8"/>
			<path class="st1" d="M2.8,97c13.4-24.3,32.4-44.4,56-57.9C79,27.6,116.3,17,167.6,23.3c33.9,4.1,63.9,14.1,102.8,31.7
				c54.8,24.7,87.5,44.5,134.8,44.6c43.1,0.1,71.3-13.1,87.8-25.5c21.7-16.2,37.1-39,45.5-64.9"/>
			<path class="st0" d="M538.7,8.2c0.2-0.6,0.4-1.3,0.6-1.9"/>
			<g>
				<path class="st2" d="M540.9,0.5c0.2,3,1,6.9,2.3,9.5l-4.1-2.9l-5,0.4C536.5,5.9,539.2,2.9,540.9,0.5z"/>
			</g>
		</g>
	</g>
</g>
</svg>
