<?xml version="1.0" encoding="utf-8"?>
<!-- Generator: Adobe Illustrator 24.1.3, SVG Export Plug-In . SVG Version: 6.00 Build 0)  -->
<svg version="1.1" id="Layer_1" xmlns="http://www.w3.org/2000/svg" xmlns:xlink="http://www.w3.org/1999/xlink" x="0px" y="0px"
	 width="462px" height="389.6px" viewBox="0 0 462 389.6" style="enable-background:new 0 0 462 389.6;" xml:space="preserve">
<style type="text/css">
	.st0{fill:#E4E8EA;}
	.st1{fill:none;stroke:#F0F0F2;stroke-width:2.4;stroke-miterlimit:10;}
	.st2{fill:none;stroke:#E5E9EA;stroke-width:1.5;stroke-miterlimit:10;}
	.st3{fill:#FFFFFF;stroke:#E5E9EA;stroke-width:1.5;stroke-miterlimit:10;}
	.st4{fill:#7744AD;}
	.st5{fill:#FFCC7D;}
	.st6{fill:#E5AF67;}
</style>
<g>
	<path class="st0" d="M134.9,65.8l-3-1.3l1.3-3c0.3-0.7,0-1.6-0.8-2s-1.6,0-2,0.8l-1.3,3l-3-1.3c-0.7-0.3-1.6,0-2,0.8
		c-0.3,0.7,0,1.6,0.8,2l3,1.3l-1.3,3c-0.3,0.7,0,1.6,0.8,2c0.7,0.3,1.6,0,2-0.8l1.3-3l3,1.3c0.8,0.3,1.6,0,2-0.8
		C136,67.1,135.6,66.2,134.9,65.8z"/>
	<path class="st0" d="M16.7,213.8l-2-0.9l0.9-2c0.2-0.5,0-1.1-0.5-1.3s-1.1,0-1.3,0.5l-0.9,2l-2.1-0.9c-0.5-0.2-1.1,0-1.3,0.5
		s0,1.1,0.5,1.3l2.1,0.9l-0.9,2c-0.2,0.5,0,1.1,0.5,1.3s1.1,0,1.3-0.5l0.9-2l2,0.9c0.5,0.2,1.1,0,1.3-0.5
		C17.5,214.7,17.2,214.1,16.7,213.8z"/>
	<path class="st0" d="M461.4,255.1l-2-0.9l0.9-2c0.2-0.5,0-1.1-0.5-1.3s-1.1,0-1.3,0.5l-0.9,2l-2.1-0.9c-0.5-0.2-1.1,0-1.3,0.5
		s0,1.1,0.5,1.3l2.1,0.9l-0.9,2c-0.2,0.5,0,1.1,0.5,1.3c0.5,0.2,1.1,0,1.3-0.5l0.9-2l2,0.9c0.5,0.2,1.1,0,1.3-0.5
		C462.1,255.9,461.9,255.3,461.4,255.1z"/>
	<path class="st0" d="M50.2,294.7l-2-0.9l0.9-2c0.2-0.5,0-1.1-0.5-1.3c-0.5-0.2-1.1,0-1.3,0.5l-0.9,2l-2.1-0.9
		c-0.5-0.2-1.1,0-1.3,0.5s0,1.1,0.5,1.3l2.1,0.9l-0.9,2c-0.2,0.5,0,1.1,0.5,1.3c0.5,0.2,1.1,0,1.3-0.5l0.9-2l2,0.9
		c0.5,0.2,1.1,0,1.3-0.5S50.7,294.9,50.2,294.7z"/>
	<path class="st0" d="M356.3,33.2c-3.3,0-6.1,2.7-6.1,6.1s2.7,6.1,6.1,6.1s6.1-2.7,6.1-6.1S359.6,33.2,356.3,33.2z M356.3,42.6
		c-1.9,0-3.4-1.5-3.4-3.4s1.5-3.4,3.4-3.4s3.4,1.5,3.4,3.4S358.2,42.6,356.3,42.6z"/>
	<path class="st0" d="M40.7,75.5c-3.3,0-6.1,2.7-6.1,6.1s2.7,6.1,6.1,6.1s6.1-2.7,6.1-6.1S44.1,75.5,40.7,75.5z M40.7,84.9
		c-1.9,0-3.4-1.5-3.4-3.4s1.5-3.4,3.4-3.4s3.4,1.5,3.4,3.4S42.6,84.9,40.7,84.9z"/>
	<path class="st0" d="M291.9,81.1c-2.1,0-3.8,1.7-3.8,3.8s1.7,3.8,3.8,3.8s3.8-1.7,3.8-3.8C295.7,82.7,294,81.1,291.9,81.1z
		 M291.9,86.9c-1.2,0-2.1-0.9-2.1-2.1s0.9-2.1,2.1-2.1s2.1,0.9,2.1,2.1S293.1,86.9,291.9,86.9z"/>
	<path class="st0" d="M7.9,143c-2.1,0-3.8,1.7-3.8,3.8s1.7,3.8,3.8,3.8s3.8-1.7,3.8-3.8S10,143,7.9,143z M7.9,148.9
		c-1.2,0-2.1-0.9-2.1-2.1s0.9-2.1,2.1-2.1s2.1,0.9,2.1,2.1S9.1,148.9,7.9,148.9z"/>
	<path class="st0" d="M418.5,303.1c-2.1,0-3.8,1.7-3.8,3.8c0,2.1,1.7,3.8,3.8,3.8s3.8-1.7,3.8-3.8S420.6,303.1,418.5,303.1z
		 M418.5,308.9c-1.2,0-2.1-0.9-2.1-2.1s0.9-2.1,2.1-2.1s2.1,0.9,2.1,2.1S419.7,308.9,418.5,308.9z"/>
	<g>
		<g>
			<rect x="23.3" y="346.8" class="st0" width="359.2" height="2.7"/>
		</g>
		<g>
			<rect x="413" y="346.8" class="st0" width="49" height="2.7"/>
		</g>
		<g>
			<rect y="346.8" class="st0" width="15.9" height="2.7"/>
		</g>
		<g>
			<rect x="56.9" y="368.5" class="st0" width="15.6" height="2.7"/>
		</g>
		<g>
			<rect x="94.8" y="368.5" class="st0" width="28.2" height="2.7"/>
		</g>
		<g>
			<rect x="322.5" y="368.5" class="st0" width="12.6" height="2.7"/>
		</g>
		<g>
			<rect x="350.2" y="368.5" class="st0" width="54.6" height="2.7"/>
		</g>
		<g>
			<rect x="33.9" y="386.9" class="st0" width="13.8" height="2.7"/>
		</g>
		<g>
			<rect x="411.7" y="386.9" class="st0" width="13.8" height="2.7"/>
		</g>
	</g>
	<path class="st1" d="M277.7,35.9h-82.4c-0.9-4.2-0.9-8.4,1.6-11.9c2.5-3.6,6.6-6,10.9-6.2c4-0.2,8,1.5,12,0.9
		c10.2-1.4,14.7-15.8,24.9-17.4c5.7-0.8,11.4,3.1,13.9,8.4c1.1,2.3,1.7,4.9,3.5,6.6c2,1.8,4.9,2.2,7.4,3.2
		C275.8,22,278.8,29.2,277.7,35.9z"/>
	<path class="st1" d="M439.8,123.7h-54.5c-1.8-3.7-1.8-8.1,0.6-11.5s6.7-5.3,10.9-4.8c3.3,0.4,6.9,2.1,9.7,0.2
		c2.9-1.9,2.5-6.4,4.6-9.2c2-2.8,6.1-3.4,9.3-2.1c3.2,1.3,5.4,4.2,6.9,7.3c0.9,1.9,1.8,4.1,3.7,5c1.7,0.7,3.6,0.1,5.4,0.5
		c2.7,0.5,4.8,3,5.5,5.7S440.1,120.9,439.8,123.7z"/>
	<path class="st2" d="M356.7,300.7h-89.9c-1.8,0-3.4-1.5-3.4-3.4V183.9c0-1.8,1.5-3.4,3.4-3.4h90c1.8,0,3.4,1.5,3.4,3.4v113.4
		C360.1,299.2,358.6,300.7,356.7,300.7z"/>
	<path class="st3" d="M335.2,325.5h-127c-2.6,0-4.8-2.1-4.8-4.8V160.5c0-2.6,2.1-4.8,4.8-4.8h127.1c2.6,0,4.8,2.1,4.8,4.8v160.1
		C340.1,323.3,337.9,325.5,335.2,325.5z"/>
	<path class="st2" d="M108.9,297.3V183.9c0-1.9,1.6-3.4,3.4-3.4h90c1.9,0,3.4,1.6,3.4,3.4v113.4c0,1.9-1.6,3.4-3.4,3.4h-89.9
		C110.5,300.7,109,299.2,108.9,297.3z"/>
	<path class="st3" d="M129,320.6V160.5c0-2.7,2.2-4.8,4.8-4.8h127.1c2.7,0,4.8,2.2,4.8,4.8v160.1c0,2.7-2.2,4.8-4.8,4.8h-127
		C131.2,325.5,129,323.3,129,320.6z"/>
	<path class="st3" d="M314.3,347.8H153.9c-3.3,0-6.1-2.7-6.1-6.1V139.4c0-3.3,2.7-6.1,6.1-6.1h160.5c3.3,0,6.1,2.7,6.1,6.1v202.3
		C320.4,345.1,317.7,347.8,314.3,347.8z"/>
	<g>
		<rect x="191.5" y="161.7" class="st0" width="112.3" height="6"/>
	</g>
	<g>
		<rect x="191.5" y="177.4" class="st0" width="76" height="6"/>
	</g>
	<g id="Outline_Flaticon">
		<path class="st4" d="M167.9,181.5c-1.1,0-2-0.9-2-2c0-0.1,0-0.2,0-0.3l0.8-4.8l-3.3-3.4c-0.8-0.8-0.8-2.1,0-2.8
			c0.3-0.3,0.7-0.5,1.1-0.5l4.5-0.7l2-4.2c0.5-1,1.7-1.4,2.7-0.9c0.4,0.2,0.7,0.5,0.9,0.9l2,4.2l4.5,0.7c1.1,0.2,1.9,1.2,1.7,2.3
			c-0.1,0.4-0.3,0.8-0.5,1.1l-3.3,3.4l0.8,4.8c0.2,1.1-0.6,2.1-1.7,2.3c-0.4,0.1-0.9,0-1.3-0.2l-3.9-2.2l-3.9,2.2
			C168.6,181.4,168.3,181.5,167.9,181.5z M172.8,177.1c0.3,0,0.7,0.1,1,0.3l3.9,2.2l-0.8-4.8c-0.1-0.6,0.1-1.3,0.5-1.7l3.3-3.4
			l-4.5-0.7c-0.7-0.1-1.2-0.5-1.5-1.1l-2-4.2l0,0l0,0l-2,4.2c-0.3,0.6-0.9,1-1.5,1.1l-4.5,0.7l3.3,3.4c0.4,0.5,0.6,1.1,0.5,1.7
			l-0.8,4.8l3.9-2.2C172.1,177.2,172.5,177.1,172.8,177.1L172.8,177.1z"/>
	</g>
	<g>
		<rect x="191.5" y="199.7" class="st0" width="112.3" height="6"/>
	</g>
	<g>
		<rect x="191.5" y="215.4" class="st0" width="76" height="6"/>
	</g>
	<g id="Outline_Flaticon_1_">
		<path class="st4" d="M167.9,219.5c-1.1,0-2-0.9-2-2c0-0.1,0-0.2,0-0.3l0.8-4.8l-3.3-3.4c-0.8-0.8-0.8-2.1,0-2.8
			c0.3-0.3,0.7-0.5,1.1-0.5l4.5-0.7l2-4.2c0.5-1,1.7-1.4,2.7-0.9c0.4,0.2,0.7,0.5,0.9,0.9l2,4.2l4.5,0.7c1.1,0.2,1.9,1.2,1.7,2.3
			c-0.1,0.4-0.3,0.8-0.5,1.1l-3.3,3.4l0.8,4.8c0.2,1.1-0.6,2.1-1.7,2.3c-0.4,0.1-0.9,0-1.3-0.2l-3.9-2.2l-3.9,2.2
			C168.6,219.4,168.3,219.5,167.9,219.5z M172.8,215.1c0.3,0,0.7,0.1,1,0.3l3.9,2.2l-0.8-4.8c-0.1-0.6,0.1-1.3,0.5-1.7l3.3-3.4
			l-4.5-0.7c-0.7-0.1-1.2-0.5-1.5-1.1l-2-4.2l0,0l0,0l-2,4.2c-0.3,0.6-0.9,1-1.5,1.1l-4.5,0.7l3.3,3.4c0.4,0.5,0.6,1.1,0.5,1.7
			l-0.8,4.8l3.9-2.2C172.1,215.2,172.5,215.1,172.8,215.1L172.8,215.1z"/>
	</g>
	<g>
		<rect x="191.5" y="237.7" class="st0" width="112.3" height="6"/>
	</g>
	<g>
		<rect x="191.5" y="253.4" class="st0" width="76" height="6"/>
	</g>
	<g id="Outline_Flaticon_2_">
		<path class="st4" d="M167.9,257.5c-1.1,0-2-0.9-2-2c0-0.1,0-0.2,0-0.3l0.8-4.8l-3.3-3.4c-0.8-0.8-0.8-2.1,0-2.8
			c0.3-0.3,0.7-0.5,1.1-0.5l4.5-0.7l2-4.2c0.5-1,1.7-1.4,2.7-0.9c0.4,0.2,0.7,0.5,0.9,0.9l2,4.2l4.5,0.7c1.1,0.2,1.9,1.2,1.7,2.3
			c-0.1,0.4-0.3,0.8-0.5,1.1l-3.3,3.4l0.8,4.8c0.2,1.1-0.6,2.1-1.7,2.3c-0.4,0.1-0.9,0-1.3-0.2l-3.9-2.2l-3.9,2.2
			C168.6,257.4,168.3,257.5,167.9,257.5z M172.8,253.1c0.3,0,0.7,0.1,1,0.3l3.9,2.2l-0.8-4.8c-0.1-0.6,0.1-1.3,0.5-1.7l3.3-3.4
			l-4.5-0.7c-0.7-0.1-1.2-0.5-1.5-1.1l-2-4.2l0,0l0,0l-2,4.2c-0.3,0.6-0.9,1-1.5,1.1l-4.5,0.7l3.3,3.4c0.4,0.5,0.6,1.1,0.5,1.7
			l-0.8,4.8l3.9-2.2C172.1,253.2,172.5,253.1,172.8,253.1L172.8,253.1z"/>
	</g>
	<g>
		<g>
			<g>
				<path class="st5" d="M234.2,284.4c-12.4,0-22.5,10.1-22.5,22.5s10.1,22.5,22.5,22.5s22.5-10.1,22.5-22.5
					S246.6,284.4,234.2,284.4z"/>
				<path class="st6" d="M229.3,303c0-1.6-1.3-2.9-2.9-2.9s-2.9,1.3-2.9,2.9s1.3,2.9,2.9,2.9S229.3,304.6,229.3,303z M225.4,303
					c0-0.5,0.4-1,1-1s1,0.4,1,1c0,0.5-0.4,1-1,1S225.4,303.5,225.4,303z"/>
				<path class="st6" d="M242,300.1c-1.6,0-2.9,1.3-2.9,2.9s1.3,2.9,2.9,2.9s2.9-1.3,2.9-2.9S243.6,300.1,242,300.1z M242,304
					c-0.5,0-1-0.4-1-1c0-0.5,0.4-1,1-1c0.5,0,1,0.4,1,1C243,303.5,242.5,304,242,304z"/>
				<path class="st6" d="M243.9,313.5c0.3-0.4,0.3-1-0.1-1.4c-0.2-0.1-0.5-0.2-0.7-0.2s-0.5,0.1-0.7,0.3c-2.1,2.3-5,3.6-8.1,3.6
					s-6.1-1.3-8.1-3.6c-0.4-0.4-1-0.5-1.4-0.1s-0.5,1-0.1,1.4c2.4,2.7,5.8,4.2,9.5,4.2C237.8,317.7,241.3,316.1,243.9,313.5z"/>
			</g>
		</g>
	</g>
</g>
</svg>
