<?xml version="1.0" encoding="utf-8"?>
<!-- Generator: Adobe Illustrator 24.1.3, SVG Export Plug-In . SVG Version: 6.00 Build 0)  -->
<svg version="1.1" id="Layer_1" xmlns="http://www.w3.org/2000/svg" xmlns:xlink="http://www.w3.org/1999/xlink" x="0px" y="0px"
	 width="475.5px" height="389.6px" viewBox="0 0 475.5 389.6" style="enable-background:new 0 0 475.5 389.6;" xml:space="preserve"
	>
<style type="text/css">
	.st0{fill:#ED4798;}
	.st1{fill:#FFFFFF;}
	.st2{fill:none;stroke:#E5E9EA;stroke-width:1.5;stroke-miterlimit:10;stroke-dasharray:4.0191,4.0191;}
	.st3{fill:#7F9FB0;}
	.st4{fill:#E4E8EA;}
	.st5{fill:#96BCCB;}
	.st6{fill:#4B0082;}
	.st7{fill:#7744AD;}
	.st8{fill:none;stroke:#F0F0F2;stroke-width:2.4;stroke-miterlimit:10;}
</style>
<g>
	<path class="st0" d="M246.7,248.2l0.1-6.3l6.3,0.1c1.5,0,2.8-1.2,2.9-2.9c0.1-1.7-1.2-2.8-2.9-2.9l-6.3-0.1l0.1-6.3
		c0-1.5-1.2-2.8-2.9-2.9c-1.5,0-2.8,1.2-2.9,2.9l-0.1,6.3l-6.3-0.1c-1.5,0-2.8,1.2-2.9,2.9c0,1.5,1.2,2.8,2.9,2.9l6.3,0.1l-0.1,6.3
		c0.1,1.6,1.2,2.8,2.9,2.9C245.2,251.1,246.5,249.8,246.7,248.2z"/>
	<g>
		<g>
			<g>
				<path class="st1" d="M440.8,345.5l-160.5,1.4c-3.4,0-6.1-2.7-6.1-6.1l-1.8-202.3c0-3.4,2.7-6.1,6.1-6.1L439,131
					c3.4,0,6.1,2.7,6.1,6.1l1.8,202.3C446.9,342.7,444.2,345.5,440.8,345.5z"/>
				<path class="st2" d="M440.8,345.5l-160.5,1.4c-3.4,0-6.1-2.7-6.1-6.1l-1.8-202.3c0-3.4,2.7-6.1,6.1-6.1L439,131
					c3.4,0,6.1,2.7,6.1,6.1l1.8,202.3C446.9,342.7,444.2,345.5,440.8,345.5z"/>
			</g>
			<path class="st3" d="M434,285.6l-147.8,1.2c-1.4,0-2.4-1.1-2.4-2.4l-1.2-139.6c0-1.4,1.1-2.4,2.4-2.4l147.7-1.3
				c1.4,0,2.4,1.1,2.4,2.4l1.2,139.6C436.3,284.5,435.3,285.5,434,285.6z"/>
			<g>
				
					<rect x="283.9" y="296.3" transform="matrix(1 -8.638109e-03 8.638109e-03 1 -2.5725 3.0251)" class="st4" width="130" height="6"/>
			</g>
			<g>
				
					<rect x="284.1" y="309.5" transform="matrix(1 -8.638109e-03 8.638109e-03 1 -2.6875 2.8027)" class="st4" width="78" height="6"/>
			</g>
			<g>
				
					<rect x="285.9" y="323.3" transform="matrix(1 -8.638109e-03 8.638109e-03 1 -2.825 2.5684)" class="st4" width="20" height="10"/>
			</g>
			<g>
				
					<rect x="310.9" y="323.1" transform="matrix(1 -8.638109e-03 8.638109e-03 1 -2.8223 2.7843)" class="st4" width="20" height="10"/>
			</g>
		</g>
		<g>
			<path class="st5" d="M384.8,231.6c0.7,0,1.4-0.6,1.3-1.4c0-0.7-0.6-1.4-1.4-1.3c-0.7,0-1.4,0.6-1.3,1.4
				C383.4,231,384,231.5,384.8,231.6z"/>
			<path class="st5" d="M325.1,202.3c0.3,1.6,0.9,3,1.6,4.3c2.4,4.3,3.6,8.7,3.6,12.7l0.1,16.7c0,0.7,0.6,1.4,1.4,1.3h5.4
				c0.7,0,1.4-0.6,1.3-1.4l-0.1-15.1c0-3.1,0.6-6.1,1.9-8.9l0.1-0.3c6.5,5.3,11.6,12,15,19.6c1.6,3.5,5,5.7,8.7,5.7l11.1-0.1
				c5.4,0,9.5-0.2,12.6-0.7c1.6-0.3,6.3-1.1,6.3-4.8c0-2.1-1.7-5.1-4.4-7.7c-1.8-1.7-5.6-4.7-10.7-5.4c-0.4-0.1-0.8,0.1-1.1,0.4
				c-1.4,1.2-3.9,2.1-6.2,2.1c-3.3,0.1-6.7-1.8-8-4.2c0-0.1,0-0.1-0.1-0.2l-9.1-12.8c-5.7-7.9-12.4-15-20-21.1
				c-0.4-0.4-1.2-0.4-1.7,0c-2.1,1.7-3.8,3.7-5.2,6C325,193.1,324.2,198.1,325.1,202.3L325.1,202.3z M335.7,221l0.1,13.7H333
				l-0.2-15.4c0-0.4,0-0.9,0-1.3c-0.5-7.4-3.8-12.2-4.3-13.6c3.5,1.6,6.7,3.5,9.8,5.7C336.9,212.5,335.7,216.8,335.7,221z M330,190
				c1-1.7,2.3-3.2,3.7-4.6c7,5.7,13.3,12.5,18.6,19.8l9.1,12.7c1.9,3.3,6.1,5.6,10.4,5.5c2.6-0.1,5.7-1,7.5-2.5
				c4.1,0.7,7.2,3.1,8.7,4.6c2.4,2.3,3.6,4.6,3.6,5.7c0,1.2-2.1,1.8-4,2.1c-2.9,0.6-7,0.7-12.2,0.7l-11.1,0.1
				c-2.6,0.1-5.1-1.6-6.3-4.1c-6-13.3-16.9-23.8-30.4-29.2C327.1,197.7,327.7,193.7,330,190z"/>
			<path class="st5" d="M364.2,231.8l15.2-0.1c0.7,0,1.4-0.6,1.3-1.4c0-0.7-0.6-1.4-1.4-1.3l-15.2,0.1c-0.7,0-1.4,0.6-1.3,1.4
				C362.8,231.2,363.5,231.8,364.2,231.8z"/>
		</g>
	</g>
	<g>
		<g>
			<g>
				<path class="st1" d="M205.6,346.2H45.2c-3.3,0-6.1-2.7-6.1-6.1V137.8c0-3.3,2.7-6.1,6.1-6.1h160.5c3.3,0,6.1,2.7,6.1,6.1v202.3
					C211.7,343.5,209,346.2,205.6,346.2z"/>
				<path class="st2" d="M205.6,346.2H45.2c-3.3,0-6.1-2.7-6.1-6.1V137.8c0-3.3,2.7-6.1,6.1-6.1h160.5c3.3,0,6.1,2.7,6.1,6.1v202.3
					C211.7,343.5,209,346.2,205.6,346.2z"/>
			</g>
			<path class="st6" d="M199.3,286.2H51.5c-1.3,0-2.4-1.1-2.4-2.4V144.1c0-1.3,1.1-2.4,2.4-2.4h147.8c1.3,0,2.4,1.1,2.4,2.4v139.6
				C201.7,285.1,200.6,286.2,199.3,286.2z"/>
			<g>
				<rect x="49.1" y="296.2" class="st4" width="130" height="6"/>
			</g>
			<g>
				<rect x="49.1" y="309.2" class="st4" width="78" height="6"/>
			</g>
			<g>
				<rect x="50.8" y="322.7" class="st4" width="20" height="10"/>
			</g>
			<g>
				<rect x="75.8" y="322.7" class="st4" width="20" height="10"/>
			</g>
		</g>
		<g id="outline">
			<path class="st7" d="M157.6,237.9l-12.9-20.8c-2.7-4.3-5.7-8.4-9-12.3l-2.6-3v-3.4c0-3.6,1.7-7.1,4.6-9.3l5.1-2.5
				c0.6-0.3,0.9-1.1,0.6-1.7c0-0.1-0.1-0.2-0.1-0.2l-5.2-6.5l0,0c-0.1-0.1-0.3-0.3-0.4-0.4l-5.2-2.6c-0.4-0.2-0.9-0.2-1.3,0.1
				c-1.7,1-3.7,1.6-5.8,1.6c-2,0-4.1-0.6-5.8-1.6l0,0c-0.4-0.2-0.8-0.2-1.2,0l-5.2,2.6c-0.2,0.1-0.3,0.2-0.4,0.4l0,0l-5.2,6.5
				c-0.4,0.6-0.4,1.4,0.2,1.8c0.1,0.1,0.1,0.1,0.2,0.1l5.1,2.5c2.9,2.2,4.6,5.6,4.6,9.3v3.4l-2.6,3c-3.3,3.8-6.3,7.9-9,12.3
				L93.2,238c-0.3,0.4-0.3,1,0,1.4c1.1,1.7,2.7,3,4.6,3.9l-0.7,1.2l0,0c0,0.1-0.1,0.1-0.1,0.2c-0.3,0.7,0.1,1.4,0.7,1.7l1.5,0.6
				c2.7,1.1,5.6,1.5,8.5,1.2l-0.4,1.9c-0.2,0.7,0.3,1.4,1,1.6c0,0,0,0,0.1,0l2.9,0.5c3.3,0.5,6.6,0.8,9.9,0.8h8.4
				c3.3,0,6.6-0.3,9.9-0.8l2.9-0.5c0.7-0.1,1.2-0.8,1.1-1.5c0,0,0,0,0-0.1l-0.4-1.9c2.9,0.3,5.8-0.1,8.5-1.2l1.5-0.6
				c0.7-0.3,1-1,0.7-1.7c0-0.1-0.1-0.1-0.1-0.2l0,0l-0.7-1.2c1.9-0.8,3.4-2.2,4.6-3.9C157.9,238.9,157.9,238.3,157.6,237.9z
				 M138.4,185.9v-3.3l1.9,2.3L138.4,185.9z M130.5,178.5c-0.5,2.8-3.1,4.8-5.9,4.3c-2.2-0.4-3.9-2.1-4.3-4.3c1.6,0.6,3.4,1,5.1,1
				C127.2,179.5,128.9,179.1,130.5,178.5z M112.4,182.7v3.3l-1.9-0.9L112.4,182.7z M115,187.4v-7.6l2.6-1.3c0.4,4.3,4.2,7.4,8.5,7
				c3.7-0.4,6.6-3.3,7-7l2.6,1.3v7.6c-2.9,2.4-4.8,5.9-5.1,9.7c-2.1,0.2-4,1.3-5.2,3.1c-1.2-1.7-3.1-2.9-5.2-3.1
				C119.8,193.3,118,189.8,115,187.4z M127,202.7c0.6-1.5,2-2.7,3.6-2.9v2C129.6,202.5,128.3,202.9,127,202.7z M120.2,201.7v-2
				c1.6,0.3,3,1.4,3.6,2.9C122.5,202.9,121.2,202.5,120.2,201.7z M100.2,244.5L100.2,244.5l8.2-14.3l-2.2-1.3l-7,12.1
				c-1.3-0.5-2.4-1.4-3.2-2.4l12.4-20.1c2.6-4.2,5.5-8.2,8.7-11.9l2.1-2.4c0.4,0.2,0.7,0.4,1.1,0.6l-3.6,9.4
				c-1.9,4.9-3.4,9.8-4.5,14.9l-3.7,16.4C105.6,245.8,102.8,245.5,100.2,244.5z M111.7,249.5l-1.6-0.3l4.5-19.6
				c1.1-5,2.6-9.8,4.4-14.6l3.7-9.6h-0.1c0.2,0,0.3,0,0.5,0c0.3,0,0.7,0,1-0.1v45h-2.9C118,250.2,114.9,250,111.7,249.5L111.7,249.5
				z M139.1,249.5c-3.1,0.5-6.3,0.8-9.4,0.8h-2.9v-45c0.3,0,0.7,0.1,1,0.1c0.2,0,0.3,0,0.5,0h-0.1l3.7,9.6c1.8,4.7,3.3,9.6,4.4,14.6
				l4.5,19.6L139.1,249.5z M153.7,239.8c-0.6,0.5-1.3,0.9-2,1.2l-7-12.1l-2.2,1.3l8.3,14.3h-0.1c-2.6,1-5.4,1.3-8.2,0.9l-3.7-16.4
				c-1.2-5.1-2.7-10.1-4.5-14.9l-3.6-9.4c0.4-0.2,0.8-0.4,1.1-0.6l2.1,2.4c3.2,3.7,6.1,7.7,8.7,11.9l12.4,20.1
				C154.6,239,154.1,239.4,153.7,239.8L153.7,239.8z"/>
		</g>
	</g>
	<path class="st4" d="M134.9,65.8l-3-1.3l1.3-3c0.3-0.7,0-1.6-0.8-2s-1.6,0-2,0.8l-1.3,3l-3-1.3c-0.7-0.3-1.6,0-2,0.8
		c-0.3,0.7,0,1.6,0.8,2l3,1.3l-1.3,3c-0.3,0.7,0,1.6,0.8,2c0.7,0.3,1.6,0,2-0.8l1.3-3l3,1.3c0.8,0.3,1.6,0,2-0.8
		C136,67.1,135.6,66.2,134.9,65.8z"/>
	<path class="st4" d="M13,227.4l-3-1.3l1.3-3c0.3-0.7,0-1.6-0.8-2s-1.6,0-2,0.8l-1.3,3l-3-1.3c-0.7-0.3-1.6,0-2,0.8
		c-0.3,0.7,0,1.6,0.8,2l3,1.3l-1.3,3c-0.3,0.7,0,1.6,0.8,2c0.7,0.3,1.6,0,2-0.8l1.3-3l3,1.3c0.8,0.3,1.6,0,2-0.8
		C14.1,228.7,13.7,227.8,13,227.4z"/>
	<path class="st4" d="M356.3,33.2c-3.3,0-6.1,2.7-6.1,6.1s2.7,6.1,6.1,6.1s6.1-2.7,6.1-6.1S359.6,33.2,356.3,33.2z M356.3,42.6
		c-1.9,0-3.4-1.5-3.4-3.4s1.5-3.4,3.4-3.4s3.4,1.5,3.4,3.4S358.2,42.6,356.3,42.6z"/>
	<path class="st4" d="M33.9,78.7c-3.3,0-6.1,2.7-6.1,6.1s2.7,6.1,6.1,6.1s6.1-2.7,6.1-6.1S37.3,78.7,33.9,78.7z M33.9,88.1
		c-1.9,0-3.4-1.5-3.4-3.4s1.5-3.4,3.4-3.4s3.4,1.5,3.4,3.4S35.8,88.1,33.9,88.1z"/>
	<path class="st4" d="M272.4,84.9c-2.1,0-3.8,1.7-3.8,3.8s1.7,3.8,3.8,3.8s3.8-1.7,3.8-3.8C276.2,86.5,274.5,84.9,272.4,84.9z
		 M272.4,90.7c-1.2,0-2.1-0.9-2.1-2.1s0.9-2.1,2.1-2.1s2.1,0.9,2.1,2.1S273.6,90.7,272.4,90.7z"/>
	<path class="st4" d="M469.5,206c-2.1,0-3.8,1.7-3.8,3.8s1.7,3.8,3.8,3.8s3.8-1.7,3.8-3.8S471.6,206,469.5,206z M469.5,211.8
		c-1.2,0-2.1-0.9-2.1-2.1s0.9-2.1,2.1-2.1s2.1,0.9,2.1,2.1S470.7,211.8,469.5,211.8z"/>
	<g>
		<g>
			<rect x="23.3" y="346.8" class="st4" width="452.2" height="2.7"/>
		</g>
		<g>
			<rect y="346.8" class="st4" width="15.9" height="2.7"/>
		</g>
		<g>
			<rect x="56.9" y="368.5" class="st4" width="15.6" height="2.7"/>
		</g>
		<g>
			<rect x="94.8" y="368.5" class="st4" width="28.2" height="2.7"/>
		</g>
		<g>
			<rect x="322.5" y="368.5" class="st4" width="12.6" height="2.7"/>
		</g>
		<g>
			<rect x="350.2" y="368.5" class="st4" width="54.6" height="2.7"/>
		</g>
		<g>
			<rect x="33.9" y="386.9" class="st4" width="13.8" height="2.7"/>
		</g>
		<g>
			<rect x="411.7" y="386.9" class="st4" width="13.8" height="2.7"/>
		</g>
	</g>
	<path class="st8" d="M272.9,35.9h-82.4c-0.9-4.2-0.9-8.4,1.6-11.9c2.5-3.6,6.6-6,10.9-6.2c4-0.2,8,1.5,12,0.9
		c10.2-1.4,14.7-15.8,24.9-17.4c5.7-0.8,11.4,3.1,13.9,8.4c1.1,2.3,1.7,4.9,3.5,6.6c2,1.8,4.9,2.2,7.4,3.2
		C271,22,274,29.2,272.9,35.9z"/>
	<path class="st8" d="M437.7,93.7h-54.5c-1.8-3.7-1.8-8.1,0.6-11.5s6.7-5.3,10.9-4.8c3.3,0.4,6.9,2.1,9.7,0.2
		c2.9-1.9,2.5-6.4,4.6-9.2c2-2.8,6.1-3.4,9.3-2.1c3.2,1.3,5.4,4.2,6.9,7.3c0.9,1.9,1.8,4.1,3.7,5c1.7,0.7,3.6,0.1,5.4,0.5
		c2.7,0.5,4.8,3,5.5,5.7S438,90.9,437.7,93.7z"/>
</g>
</svg>
