<?xml version="1.0" encoding="utf-8"?>
<!-- Generator: Adobe Illustrator 24.1.3, SVG Export Plug-In . SVG Version: 6.00 Build 0)  -->
<svg version="1.1" id="Layer_1" xmlns="http://www.w3.org/2000/svg" xmlns:xlink="http://www.w3.org/1999/xlink" x="0px" y="0px"
	 width="462px" height="389.6px" viewBox="0 0 462 389.6" style="enable-background:new 0 0 462 389.6;" xml:space="preserve">
<style type="text/css">
	.st0{fill:#E4E8EA;}
	.st1{fill:none;stroke:#64389E;stroke-width:2;stroke-linecap:round;stroke-linejoin:round;stroke-miterlimit:10;}
	.st2{fill:#FFFFFF;}
	.st3{fill:#64389E;}
	.st4{font-family:'Montserrat-ExtraBold';}
	.st5{font-size:19.3878px;}
	.st6{font-family:'Montserrat-Bold';}
	.st7{font-size:8.7646px;}
	.st8{font-family:'Oswald-DemiBold';}
	.st9{font-size:4.847px;}
	.st10{fill:#7F9FB0;}
	.st11{fill:#96BCCB;}
	.st12{font-size:29.0745px;}
	.st13{font-size:13.1436px;}
	.st14{font-size:7.2686px;}
	.st15{fill:#ED7C8A;}
	.st16{fill:#F5A3B8;}
	.st17{fill:none;stroke:#F0F0F2;stroke-width:2.4;stroke-miterlimit:10;}
	.st18{fill:#4B0082;}
	.st19{fill:none;stroke:#8767BA;stroke-miterlimit:10;stroke-dasharray:4.0191,4.0191;}
	.st20{enable-background:new    ;}
</style>
<g>
	<g>
		<path class="st0" d="M181.5,281.2h-70.2c-1.4,0-2.7-1.2-2.7-2.7v-97.4c0-1.4,1.2-2.7,2.7-2.7h70.3c1.4,0,2.7,1.2,2.7,2.7v97.4
			C184.2,280,183,281.2,181.5,281.2z"/>
		<g id="XMLID_33_">
			<g id="XMLID_34_">
				<g id="XMLID_43_">
					<path id="XMLID_48_" class="st1" d="M144.4,192.6L144.4,192.6L144.4,192.6c-0.4-0.7-0.4-1.4,0-2.1l0,0l0,0c1-0.3,2.1-0.3,3.1,0
						l0,0l0,0c0.3,0.7,0.3,1.4,0,2.1l0,0l0,0H144.4z"/>
					<path id="XMLID_47_" class="st1" d="M147.5,190.5c0,0,1.6-3.1,5.8-3.1c0,0,1.6,2.1,0,5.2h-5.8"/>
					<path id="XMLID_46_" class="st1" d="M144.3,190.5c0,0-1.6-3.1-5.8-3.1c0,0-1.6,2.1,0,5.2h5.8"/>
					<path id="XMLID_45_" class="st1" d="M142.7,192.6c0,0-4.1,2.1-4.1,7.3c0,0,1-1,2.1-1c0,0,1,0.5,1.6,1.6c0,0-0.5-5.2,1.6-7.8"/>
					<path id="XMLID_44_" class="st1" d="M149.1,192.6c0,0,4.1,2.1,4.1,7.3c0,0-1-1-2.1-1c0,0-1,0.5-1.6,1.6c0,0,0.5-5.2-1.6-7.8"/>
				</g>
				<g id="XMLID_35_">
					<line id="XMLID_42_" class="st1" x1="144.3" y1="195.7" x2="142.5" y2="195.7"/>
					<line id="XMLID_41_" class="st1" x1="149.3" y1="195.7" x2="147.5" y2="195.7"/>
					<polyline id="XMLID_40_" class="st1" points="152.2,195.7 157.4,195.7 158.5,195.7 158.5,192.6 153.2,192.6 149.1,192.6 
						148,192.6 147.5,192.6 144.3,192.6 143.8,192.6 142.7,192.6 138.6,192.6 134.4,192.6 134.4,195.7 135.4,195.7 139.6,195.7 
											"/>
					<line id="XMLID_39_" class="st1" x1="144.3" y1="195.7" x2="142.5" y2="195.7"/>
					<line id="XMLID_38_" class="st1" x1="149.3" y1="195.7" x2="147.5" y2="195.7"/>
					<polyline id="XMLID_37_" class="st1" points="152.2,195.7 157.4,195.7 157.4,211.4 147.5,211.4 144.3,211.4 135.4,211.4 
						135.4,195.7 139.6,195.7 					"/>
					<rect id="XMLID_36_" x="144.3" y="192.6" class="st1" width="3.1" height="18.8"/>
				</g>
			</g>
		</g>
		<g>
			<rect x="125" y="254.4" class="st2" width="42.8" height="2.6"/>
		</g>
		<g>
			<rect x="119.7" y="261.4" class="st2" width="53.5" height="2.6"/>
		</g>
		<g>
			<rect x="128.2" y="267.5" class="st3" width="36.4" height="2.6"/>
		</g>
		<g>
			<text transform="matrix(1 0 0 1 129.9621 244.9722)" class="st3 st4 st5">20</text>
			<text transform="matrix(1 0 0 1 154.8547 238.4332)" class="st3 st6 st7">%</text>
			<text transform="matrix(1 0 0 1 155.2424 245.1871)" class="st3 st8 st9">OFF</text>
		</g>
		<circle class="st2" cx="184.3" cy="178.4" r="8.5"/>
		<circle class="st2" cx="184.3" cy="281.1" r="8.5"/>
	</g>
	<g>
		<path class="st0" d="M357.5,281.2h-70.2c-1.4,0-2.7-1.2-2.7-2.7v-97.4c0-1.4,1.2-2.7,2.7-2.7h70.3c1.4,0,2.7,1.2,2.7,2.7v97.4
			C360.2,280,359,281.2,357.5,281.2z"/>
		<g id="XMLID_49_">
			<g id="XMLID_50_">
				<g id="XMLID_59_">
					<path id="XMLID_64_" class="st1" d="M320.4,192.6L320.4,192.6L320.4,192.6c-0.4-0.7-0.4-1.4,0-2.1l0,0l0,0c1-0.3,2.1-0.3,3.1,0
						l0,0l0,0c0.3,0.7,0.3,1.4,0,2.1l0,0l0,0H320.4z"/>
					<path id="XMLID_63_" class="st1" d="M323.5,190.5c0,0,1.6-3.1,5.8-3.1c0,0,1.6,2.1,0,5.2h-5.8"/>
					<path id="XMLID_62_" class="st1" d="M320.3,190.5c0,0-1.6-3.1-5.8-3.1c0,0-1.6,2.1,0,5.2h5.8"/>
					<path id="XMLID_61_" class="st1" d="M318.7,192.6c0,0-4.1,2.1-4.1,7.3c0,0,1-1,2.1-1c0,0,1,0.5,1.6,1.6c0,0-0.5-5.2,1.6-7.8"/>
					<path id="XMLID_60_" class="st1" d="M325.1,192.6c0,0,4.1,2.1,4.1,7.3c0,0-1-1-2.1-1c0,0-1,0.5-1.6,1.6c0,0,0.5-5.2-1.6-7.8"/>
				</g>
				<g id="XMLID_51_">
					<line id="XMLID_58_" class="st1" x1="320.3" y1="195.7" x2="318.5" y2="195.7"/>
					<line id="XMLID_57_" class="st1" x1="325.3" y1="195.7" x2="323.5" y2="195.7"/>
					<polyline id="XMLID_56_" class="st1" points="328.2,195.7 333.4,195.7 334.5,195.7 334.5,192.6 329.2,192.6 325.1,192.6 
						324,192.6 323.5,192.6 320.3,192.6 319.8,192.6 318.7,192.6 314.6,192.6 310.4,192.6 310.4,195.7 311.4,195.7 315.6,195.7 
											"/>
					<line id="XMLID_55_" class="st1" x1="320.3" y1="195.7" x2="318.5" y2="195.7"/>
					<line id="XMLID_54_" class="st1" x1="325.3" y1="195.7" x2="323.5" y2="195.7"/>
					<polyline id="XMLID_53_" class="st1" points="328.2,195.7 333.4,195.7 333.4,211.4 323.5,211.4 320.3,211.4 311.4,211.4 
						311.4,195.7 315.6,195.7 					"/>
					<rect id="XMLID_52_" x="320.3" y="192.6" class="st1" width="3.1" height="18.8"/>
				</g>
			</g>
		</g>
		<g>
			<rect x="301" y="254.4" class="st2" width="42.8" height="2.6"/>
		</g>
		<g>
			<rect x="295.7" y="261.4" class="st2" width="53.5" height="2.6"/>
		</g>
		<g>
			<rect x="304.2" y="267.5" class="st2" width="36.4" height="2.6"/>
		</g>
		<g>
			<text transform="matrix(1 0 0 1 305.9621 244.9722)" class="st3 st4 st5">20</text>
			<text transform="matrix(1 0 0 1 330.8547 238.4332)" class="st3 st6 st7">%</text>
			<text transform="matrix(1 0 0 1 331.2424 245.1871)" class="st3 st8 st9">OFF</text>
		</g>
		<circle class="st2" cx="284.5" cy="178.4" r="8.5"/>
		<circle class="st2" cx="284.5" cy="281.1" r="8.5"/>
	</g>
	<g>
		<path class="st10" d="M336.3,306.9H230.9c-2.2,0-4-1.8-4-4V156.8c0-2.2,1.8-4,4-4h105.5c2.2,0,4,1.8,4,4v146.1
			C340.3,305.1,338.5,306.9,336.3,306.9z"/>
		<g id="XMLID_1_">
			<g id="XMLID_2_">
				<g id="XMLID_11_">
					<path id="XMLID_16_" class="st1" d="M280.5,174L280.5,174L280.5,174c-0.5-1-0.5-2.2,0-3.2l0,0l0,0c1.5-0.5,3.1-0.5,4.6,0l0,0
						l0,0c0.5,1,0.5,2.2,0,3.1l0,0l0,0L280.5,174L280.5,174z"/>
					<path id="XMLID_15_" class="st1" d="M285.2,170.9c0,0,2.4-4.7,8.6-4.7c0,0,2.4,3.1,0,7.8h-8.6"/>
					<path id="XMLID_14_" class="st1" d="M280.5,170.9c0,0-2.4-4.7-8.6-4.7c0,0-2.4,3.1,0,7.8h8.6"/>
					<path id="XMLID_13_" class="st1" d="M278,174c0,0-6.1,3.1-6.1,11c0,0,1.6-1.6,3.1-1.6c0,0,1.6,0.8,2.4,2.4
						c0,0-0.8-7.8,2.4-11.8"/>
					<path id="XMLID_12_" class="st1" d="M287.7,174c0,0,6.1,3.1,6.1,11c0,0-1.6-1.6-3.1-1.6c0,0-1.6,0.8-2.4,2.4
						c0,0,0.8-7.8-2.4-11.8"/>
				</g>
				<g id="XMLID_3_">
					<line id="XMLID_10_" class="st1" x1="280.5" y1="178.7" x2="277.7" y2="178.7"/>
					<line id="XMLID_9_" class="st1" x1="288" y1="178.7" x2="285.2" y2="178.7"/>
					<polyline id="XMLID_8_" class="st1" points="292.3,178.7 300.1,178.7 301.7,178.7 301.7,174 293.8,174 287.7,174 286,174 
						285.2,174 280.5,174 279.7,174 278,174 271.9,174 265.6,174 265.6,178.7 267.2,178.7 273.4,178.7 					"/>
					<line id="XMLID_7_" class="st1" x1="280.5" y1="178.7" x2="277.7" y2="178.7"/>
					<line id="XMLID_6_" class="st1" x1="288" y1="178.7" x2="285.2" y2="178.7"/>
					<polyline id="XMLID_5_" class="st1" points="292.3,178.7 300.1,178.7 300.1,202.3 285.2,202.3 280.5,202.3 267.2,202.3 
						267.2,178.7 273.4,178.7 					"/>
					<rect id="XMLID_4_" x="280.5" y="174" class="st1" width="4.7" height="28.3"/>
				</g>
			</g>
		</g>
		<g>
			<rect x="251.6" y="266.8" class="st11" width="64.2" height="3.9"/>
		</g>
		<g>
			<rect x="243.5" y="277.2" class="st11" width="80.2" height="3.9"/>
		</g>
		<g>
			<rect x="256.3" y="286.4" class="st3" width="54.6" height="3.9"/>
		</g>
		<g>
			<text transform="matrix(1 0 0 1 258.9487 252.5748)" class="st3 st4 st12">20</text>
			<text transform="matrix(1 0 0 1 296.2778 242.77)" class="st3 st6 st13">%</text>
			<text transform="matrix(1 0 0 1 296.8598 252.896)" class="st3 st8 st14">OFF</text>
		</g>
		<circle class="st2" cx="226.8" cy="152.8" r="12.8"/>
		<circle class="st2" cx="226.8" cy="306.7" r="12.8"/>
	</g>
	<g>
		<path class="st15" d="M237.5,306.9H132.1c-2.2,0-4-1.8-4-4V156.8c0-2.2,1.8-4,4-4h105.5c2.2,0,4,1.8,4,4v146.1
			C241.5,305.1,239.7,306.9,237.5,306.9z"/>
		<g id="XMLID_17_">
			<g id="XMLID_18_">
				<g id="XMLID_27_">
					<path id="XMLID_32_" class="st1" d="M181.7,174L181.7,174L181.7,174c-0.5-1-0.5-2.2,0-3.2l0,0l0,0c1.5-0.5,3.1-0.5,4.6,0l0,0
						l0,0c0.5,1,0.5,2.2,0,3.1l0,0l0,0L181.7,174L181.7,174z"/>
					<path id="XMLID_31_" class="st1" d="M186.4,170.9c0,0,2.4-4.7,8.6-4.7c0,0,2.4,3.1,0,7.8h-8.6"/>
					<path id="XMLID_30_" class="st1" d="M181.7,170.9c0,0-2.4-4.7-8.6-4.7c0,0-2.4,3.1,0,7.8h8.6"/>
					<path id="XMLID_29_" class="st1" d="M179.2,174c0,0-6.1,3.1-6.1,11c0,0,1.6-1.6,3.1-1.6c0,0,1.6,0.8,2.4,2.4
						c0,0-0.8-7.8,2.4-11.8"/>
					<path id="XMLID_28_" class="st1" d="M188.9,174c0,0,6.1,3.1,6.1,11c0,0-1.6-1.6-3.1-1.6c0,0-1.6,0.8-2.4,2.4
						c0,0,0.8-7.8-2.4-11.8"/>
				</g>
				<g id="XMLID_19_">
					<line id="XMLID_26_" class="st1" x1="181.7" y1="178.7" x2="178.9" y2="178.7"/>
					<line id="XMLID_25_" class="st1" x1="189.2" y1="178.7" x2="186.4" y2="178.7"/>
					<polyline id="XMLID_24_" class="st1" points="193.5,178.7 201.3,178.7 202.9,178.7 202.9,174 195,174 188.9,174 187.2,174 
						186.4,174 181.7,174 180.9,174 179.2,174 173.1,174 166.8,174 166.8,178.7 168.4,178.7 174.6,178.7 					"/>
					<line id="XMLID_23_" class="st1" x1="181.7" y1="178.7" x2="178.9" y2="178.7"/>
					<line id="XMLID_22_" class="st1" x1="189.2" y1="178.7" x2="186.4" y2="178.7"/>
					<polyline id="XMLID_21_" class="st1" points="193.5,178.7 201.3,178.7 201.3,202.3 186.4,202.3 181.7,202.3 168.4,202.3 
						168.4,178.7 174.6,178.7 					"/>
					<rect id="XMLID_20_" x="181.7" y="174" class="st1" width="4.7" height="28.3"/>
				</g>
			</g>
		</g>
		<g>
			<rect x="152.8" y="266.8" class="st16" width="64.2" height="3.9"/>
		</g>
		<g>
			<rect x="144.7" y="277.2" class="st16" width="80.2" height="3.9"/>
		</g>
		<g>
			<rect x="157.5" y="286.4" class="st3" width="54.6" height="3.9"/>
		</g>
		<g>
			<text transform="matrix(1 0 0 1 160.1486 252.5748)" class="st3 st4 st12">20</text>
			<text transform="matrix(1 0 0 1 197.4777 242.77)" class="st3 st6 st13">%</text>
			<text transform="matrix(1 0 0 1 198.0598 252.896)" class="st3 st8 st14">OFF</text>
		</g>
		<circle class="st2" cx="241.6" cy="152.8" r="12.8"/>
		<circle class="st2" cx="241.6" cy="306.7" r="12.8"/>
	</g>
	<path class="st0" d="M134.9,65.8l-3-1.3l1.3-3c0.3-0.7,0-1.6-0.8-2s-1.6,0-2,0.8l-1.3,3l-3-1.3c-0.7-0.3-1.6,0-2,0.8
		c-0.3,0.7,0,1.6,0.8,2l3,1.3l-1.3,3c-0.3,0.7,0,1.6,0.8,2c0.7,0.3,1.6,0,2-0.8l1.3-3l3,1.3c0.8,0.3,1.6,0,2-0.8
		C136,67.1,135.6,66.2,134.9,65.8z"/>
	<path class="st0" d="M16.7,213.8l-2-0.9l0.9-2c0.2-0.5,0-1.1-0.5-1.3s-1.1,0-1.3,0.5l-0.9,2l-2.1-0.9c-0.5-0.2-1.1,0-1.3,0.5
		s0,1.1,0.5,1.3l2.1,0.9l-0.9,2c-0.2,0.5,0,1.1,0.5,1.3s1.1,0,1.3-0.5l0.9-2l2,0.9c0.5,0.2,1.1,0,1.3-0.5
		C17.5,214.7,17.2,214.1,16.7,213.8z"/>
	<path class="st0" d="M461.4,255.1l-2-0.9l0.9-2c0.2-0.5,0-1.1-0.5-1.3s-1.1,0-1.3,0.5l-0.9,2l-2.1-0.9c-0.5-0.2-1.1,0-1.3,0.5
		s0,1.1,0.5,1.3l2.1,0.9l-0.9,2c-0.2,0.5,0,1.1,0.5,1.3c0.5,0.2,1.1,0,1.3-0.5l0.9-2l2,0.9c0.5,0.2,1.1,0,1.3-0.5
		C462.1,255.9,461.9,255.3,461.4,255.1z"/>
	<path class="st0" d="M50.2,294.7l-2-0.9l0.9-2c0.2-0.5,0-1.1-0.5-1.3c-0.5-0.2-1.1,0-1.3,0.5l-0.9,2l-2.1-0.9
		c-0.5-0.2-1.1,0-1.3,0.5s0,1.1,0.5,1.3l2.1,0.9l-0.9,2c-0.2,0.5,0,1.1,0.5,1.3c0.5,0.2,1.1,0,1.3-0.5l0.9-2l2,0.9
		c0.5,0.2,1.1,0,1.3-0.5S50.7,294.9,50.2,294.7z"/>
	<path class="st0" d="M377.5,29.7c-3.3,0-6.1,2.7-6.1,6.1s2.7,6.1,6.1,6.1s6.1-2.7,6.1-6.1S380.8,29.7,377.5,29.7z M377.5,39.1
		c-1.9,0-3.4-1.5-3.4-3.4s1.5-3.4,3.4-3.4s3.4,1.5,3.4,3.4S379.4,39.1,377.5,39.1z"/>
	<path class="st0" d="M40.7,75.5c-3.3,0-6.1,2.7-6.1,6.1s2.7,6.1,6.1,6.1s6.1-2.7,6.1-6.1S44.1,75.5,40.7,75.5z M40.7,84.9
		c-1.9,0-3.4-1.5-3.4-3.4s1.5-3.4,3.4-3.4s3.4,1.5,3.4,3.4S42.6,84.9,40.7,84.9z"/>
	<path class="st0" d="M311.7,59.5c-2.1,0-3.8,1.7-3.8,3.8c0,2.1,1.7,3.8,3.8,3.8s3.8-1.7,3.8-3.8C315.5,61.1,313.8,59.5,311.7,59.5z
		 M311.7,65.3c-1.2,0-2.1-0.9-2.1-2.1c0-1.2,0.9-2.1,2.1-2.1s2.1,0.9,2.1,2.1S312.9,65.3,311.7,65.3z"/>
	<path class="st0" d="M7.9,143c-2.1,0-3.8,1.7-3.8,3.8s1.7,3.8,3.8,3.8s3.8-1.7,3.8-3.8S10,143,7.9,143z M7.9,148.9
		c-1.2,0-2.1-0.9-2.1-2.1s0.9-2.1,2.1-2.1s2.1,0.9,2.1,2.1S9.1,148.9,7.9,148.9z"/>
	<path class="st0" d="M418.5,303.1c-2.1,0-3.8,1.7-3.8,3.8c0,2.1,1.7,3.8,3.8,3.8s3.8-1.7,3.8-3.8S420.6,303.1,418.5,303.1z
		 M418.5,308.9c-1.2,0-2.1-0.9-2.1-2.1s0.9-2.1,2.1-2.1s2.1,0.9,2.1,2.1S419.7,308.9,418.5,308.9z"/>
	<path class="st17" d="M275.7,35.9h-82.4c-0.9-4.2-0.9-8.4,1.6-11.9c2.5-3.6,6.6-6,10.9-6.2c4-0.2,8,1.5,12,0.9
		c10.2-1.4,14.7-15.8,24.9-17.4c5.7-0.8,11.4,3.1,13.9,8.4c1.1,2.3,1.7,4.9,3.5,6.6c2,1.8,4.9,2.2,7.4,3.2
		C273.8,22,276.8,29.2,275.7,35.9z"/>
	<path class="st17" d="M447.4,126.5h-54.5c-1.8-3.7-1.8-8.1,0.6-11.5s6.7-5.3,10.9-4.8c3.3,0.4,6.9,2.1,9.7,0.2
		c2.9-1.9,2.5-6.4,4.6-9.2c2-2.8,6.1-3.4,9.3-2.1c3.2,1.3,5.4,4.2,6.9,7.3c0.9,1.9,1.8,4.1,3.7,5c1.7,0.7,3.6,0.1,5.4,0.5
		c2.7,0.5,4.8,3,5.5,5.7S447.7,123.7,447.4,126.5z"/>
	<g>
		<path class="st18" d="M314.5,347H154.1c-3.3,0-6.1-2.7-6.1-6.1V118.6c0-3.3,2.7-6.1,6.1-6.1h160.5c3.3,0,6.1,2.7,6.1,6.1v222.3
			C320.6,344.3,317.8,347,314.5,347z"/>
		<g id="XMLID_3666_">
			<g id="XMLID_3667_">
				<g id="XMLID_3676_">
					<path id="XMLID_3681_" class="st1" d="M229.6,144.9L229.6,144.9L229.6,144.9c-0.8-1.5-0.8-3.3-0.1-4.8l0,0h0.1
						c2.3-0.8,4.7-0.8,7,0h0.1l0,0c0.8,1.5,0.8,3.3,0,4.8l0,0h-0.1H229.6z"/>
					<path id="XMLID_3680_" class="st1" d="M236.7,140.1c0,0,3.6-7.2,13.1-7.2c0,0,3.6,4.8,0,11.9h-13.1"/>
					<path id="XMLID_3679_" class="st1" d="M229.5,140.1c0,0-3.6-7.2-13.1-7.2c0,0-3.6,4.8,0,11.9h13.1"/>
					<path id="XMLID_3678_" class="st1" d="M225.7,144.9c0,0-9.4,4.8-9.4,16.7c0,0,2.4-2.4,4.8-2.4c0,0,2.4,1.2,3.6,3.6
						c0,0-1.2-11.9,3.6-17.9"/>
					<path id="XMLID_3677_" class="st1" d="M240.5,144.9c0,0,9.4,4.8,9.4,16.7c0,0-2.4-2.4-4.8-2.4c0,0-2.4,1.2-3.6,3.6
						c0,0,1.2-11.9-3.6-17.9"/>
				</g>
				<g id="XMLID_3668_">
					<line id="XMLID_3675_" class="st1" x1="229.5" y1="152" x2="225.3" y2="152"/>
					<line id="XMLID_3674_" class="st1" x1="240.9" y1="152" x2="236.7" y2="152"/>
					<polyline id="XMLID_3673_" class="st1" points="247.4,152 259.4,152 261.8,152 261.8,144.9 249.8,144.9 240.5,144.9 
						237.9,144.9 236.7,144.9 229.5,144.9 228.3,144.9 225.7,144.9 216.4,144.9 206.8,144.9 206.8,152 209.2,152 218.8,152 					"/>
					<line id="XMLID_3672_" class="st1" x1="229.5" y1="152" x2="225.3" y2="152"/>
					<line id="XMLID_3671_" class="st1" x1="240.9" y1="152" x2="236.7" y2="152"/>
					<polyline id="XMLID_3670_" class="st1" points="247.4,152 259.4,152 259.4,187.9 236.7,187.9 229.5,187.9 209.2,187.9 
						209.2,152 218.8,152 					"/>
					<rect id="XMLID_3669_" x="229.5" y="144.9" class="st1" width="7.2" height="43"/>
				</g>
			</g>
		</g>
		<g>
			<rect x="185.5" y="286" class="st3" width="97.6" height="6"/>
		</g>
		<g>
			<rect x="173.2" y="301.9" class="st3" width="122.1" height="6"/>
		</g>
		<g>
			<rect x="192.8" y="315.8" class="st3" width="83" height="6"/>
		</g>
		<line class="st19" x1="147.8" y1="209.8" x2="320.6" y2="209.8"/>
		<g>
			<g class="st20">
				<path class="st3" d="M222.2,257.4v6.9h-24.1v-5.5l11.6-10.8c1.1-1.1,1.9-2,2.3-2.7c0.4-0.8,0.6-1.5,0.6-2.3c0-1-0.3-1.8-1-2.3
					c-0.7-0.6-1.7-0.8-3-0.8c-1.2,0-2.2,0.3-3.2,0.8s-1.7,1.3-2.4,2.2l-6.5-3.6c1.2-2,2.9-3.6,5.1-4.7c2.2-1.2,4.8-1.7,7.7-1.7
					c2.4,0,4.4,0.4,6.3,1.2c1.8,0.8,3.2,1.9,4.2,3.3s1.5,3.1,1.5,5c0,1.7-0.4,3.3-1.1,4.8s-2.1,3.2-4.2,5.1l-5.8,5.4h12L222.2,257.4
					L222.2,257.4z"/>
				<path class="st3" d="M231.3,263.1c-2.1-1.3-3.7-3.1-4.8-5.6c-1.2-2.4-1.7-5.3-1.7-8.6s0.6-6.2,1.7-8.6c1.2-2.4,2.8-4.3,4.8-5.6
					c2.1-1.3,4.4-1.9,7.1-1.9c2.6,0,5,0.6,7,1.9s3.7,3.1,4.8,5.6c1.2,2.4,1.7,5.3,1.7,8.6s-0.6,6.2-1.7,8.6
					c-1.2,2.4-2.8,4.3-4.8,5.6c-2.1,1.3-4.4,1.9-7,1.9C235.7,265,233.4,264.4,231.3,263.1z M241.9,255.7c0.9-1.4,1.3-3.7,1.3-6.8
					s-0.4-5.4-1.3-6.8s-2-2.1-3.5-2.1s-2.7,0.7-3.6,2.1s-1.3,3.7-1.3,6.8s0.4,5.4,1.3,6.8c0.9,1.4,2.1,2.1,3.6,2.1
					C239.8,257.8,241,257.1,241.9,255.7z"/>
			</g>
			<g class="st20">
				<path class="st3" d="M255,242c-0.6-0.7-1-1.6-1-2.8s0.3-2.1,1-2.8c0.6-0.7,1.5-1,2.5-1s1.9,0.4,2.5,1c0.6,0.7,1,1.6,1,2.8
					s-0.3,2.1-1,2.8c-0.6,0.7-1.5,1-2.5,1S255.7,242.7,255,242z M258.6,240.8c0.3-0.4,0.4-0.9,0.4-1.7s-0.1-1.3-0.4-1.7
					s-0.6-0.6-1.1-0.6c-0.4,0-0.8,0.2-1.1,0.6c-0.3,0.4-0.4,0.9-0.4,1.7s0.1,1.3,0.4,1.6c0.3,0.4,0.6,0.6,1.1,0.6
					C258,241.4,258.4,241.2,258.6,240.8z M265.9,235.5h2.4l-9.6,14h-2.4L265.9,235.5z M265.3,249.1c-0.5-0.3-0.9-0.8-1.2-1.4
					c-0.3-0.6-0.4-1.3-0.4-2c0-0.8,0.1-1.5,0.4-2c0.3-0.6,0.7-1,1.2-1.3s1.1-0.5,1.8-0.5c1,0,1.9,0.3,2.5,1s1,1.6,1,2.8
					s-0.3,2.1-1,2.8c-0.6,0.7-1.5,1-2.5,1C266.4,249.6,265.8,249.5,265.3,249.1z M268.1,247.4c0.3-0.4,0.4-0.9,0.4-1.7
					s-0.1-1.3-0.4-1.6c-0.3-0.4-0.6-0.6-1.1-0.6c-0.4,0-0.8,0.2-1.1,0.6c-0.3,0.4-0.4,0.9-0.4,1.7s0.1,1.3,0.4,1.7s0.6,0.6,1.1,0.6
					C267.5,248,267.9,247.8,268.1,247.4z"/>
			</g>
			<g class="st20">
				<path class="st3" d="M257.6,265c-0.5,0-0.9-0.1-1.2-0.2c-0.3-0.1-0.6-0.3-0.8-0.6c-0.2-0.3-0.4-0.6-0.4-0.9s-0.1-0.8-0.1-1.2
					v-3.3c0-0.5,0-0.9,0.1-1.2c0.1-0.4,0.2-0.7,0.4-0.9c0.2-0.3,0.5-0.4,0.8-0.6c0.3-0.1,0.8-0.2,1.2-0.2c0.9,0,1.6,0.2,2,0.7
					s0.6,1.2,0.6,2.2v3.3c0,1-0.2,1.7-0.6,2.2C259.2,264.7,258.5,265,257.6,265z M257.2,263.6c0.1,0,0.2,0.1,0.4,0.1
					c0.1,0,0.3,0,0.4-0.1c0.1,0,0.2-0.1,0.2-0.2c0.1-0.1,0.1-0.2,0.1-0.3s0.1-0.2,0.1-0.3c0-0.1,0-0.2,0-0.4v-4.2c0-0.1,0-0.3,0-0.4
					s0-0.2-0.1-0.3c0-0.1-0.1-0.2-0.1-0.3c-0.1-0.1-0.1-0.1-0.2-0.2c-0.1,0-0.2-0.1-0.4-0.1c-0.1,0-0.3,0-0.4,0.1
					c-0.1,0-0.2,0.1-0.2,0.2c-0.1,0.1-0.1,0.2-0.1,0.3c0,0.1-0.1,0.2-0.1,0.3s0,0.2,0,0.4v4.2c0,0.1,0,0.3,0,0.4s0,0.2,0.1,0.3
					c0,0.1,0.1,0.2,0.1,0.3C257.1,263.5,257.1,263.6,257.2,263.6z"/>
				<path class="st3" d="M261.4,264.9v-9h3.8v1.2h-2v2.4h1.6v1.3h-1.5v4h-1.9V264.9z"/>
				<path class="st3" d="M266.1,264.9v-9h3.8v1.2h-2v2.4h1.6v1.3h-1.6v4h-1.8V264.9z"/>
			</g>
		</g>
	</g>
	<g>
		<g>
			<rect x="23.3" y="346.8" class="st0" width="359.2" height="2.7"/>
		</g>
		<g>
			<rect x="413" y="346.8" class="st0" width="49" height="2.7"/>
		</g>
		<g>
			<rect y="346.8" class="st0" width="15.9" height="2.7"/>
		</g>
		<g>
			<rect x="56.9" y="368.5" class="st0" width="15.6" height="2.7"/>
		</g>
		<g>
			<rect x="94.8" y="368.5" class="st0" width="28.2" height="2.7"/>
		</g>
		<g>
			<rect x="322.5" y="368.5" class="st0" width="12.6" height="2.7"/>
		</g>
		<g>
			<rect x="350.2" y="368.5" class="st0" width="54.6" height="2.7"/>
		</g>
		<g>
			<rect x="33.9" y="386.9" class="st0" width="13.8" height="2.7"/>
		</g>
		<g>
			<rect x="411.7" y="386.9" class="st0" width="13.8" height="2.7"/>
		</g>
	</g>
</g>
</svg>
