<?xml version="1.0" encoding="utf-8"?>
<!-- Generator: Adobe Illustrator 24.1.3, SVG Export Plug-In . SVG Version: 6.00 Build 0)  -->
<svg version="1.1" id="Layer_1" xmlns="http://www.w3.org/2000/svg" xmlns:xlink="http://www.w3.org/1999/xlink" x="0px" y="0px"
	 width="462px" height="389.6px" viewBox="0 0 462 389.6" style="enable-background:new 0 0 462 389.6;" xml:space="preserve">
<style type="text/css">
	.st0{fill:#FFFFFF;}
	.st1{fill:none;stroke:#E5E9EA;stroke-width:1.5;stroke-miterlimit:10;stroke-dasharray:4.0191,4.0191;}
	.st2{fill:#7F9FB0;}
	.st3{fill:#E4E8EA;}
	.st4{fill:#96BCCB;}
	.st5{fill:#ED7C8A;}
	.st6{fill:#F5A3B8;}
	.st7{fill:#4B0082;}
	.st8{fill:#7744AD;}
	.st9{fill:none;stroke:#F0F0F2;stroke-width:2.4;stroke-miterlimit:10;}
</style>
<g>
	<g>
		<g>
			<g>
				<path class="st0" d="M356.8,348.5l-152.3-50.6c-3.2-1.1-4.9-4.5-3.8-7.7l63.8-192c1.1-3.2,4.5-4.9,7.7-3.8L424.5,145
					c3.2,1.1,4.9,4.5,3.8,7.7l-63.8,192C363.4,347.8,360,349.6,356.8,348.5z"/>
				<path class="st1" d="M356.8,348.5l-152.3-50.6c-3.2-1.1-4.9-4.5-3.8-7.7l63.8-192c1.1-3.2,4.5-4.9,7.7-3.8L424.5,145
					c3.2,1.1,4.9,4.5,3.8,7.7l-63.8,192C363.4,347.8,360,349.6,356.8,348.5z"/>
			</g>
			<path class="st2" d="M369.7,289.6L229.5,243c-1.3-0.4-1.9-1.8-1.5-3.1l44-132.5c0.4-1.3,1.8-1.9,3.1-1.5l140.2,46.6
				c1.3,0.4,1.9,1.8,1.5,3.1l-44,132.5C372.3,289.3,371,290,369.7,289.6z"/>
			<g>
				<rect x="281.7" y="210" transform="matrix(0.3154 -0.949 0.949 0.3154 -66.107 458.4711)" class="st3" width="6" height="130"/>
			</g>
			<g>
				<rect x="253" y="240.2" transform="matrix(0.3154 -0.949 0.949 0.3154 -89.7032 434.127)" class="st3" width="6" height="78"/>
			</g>
			<g>
				
					<rect x="220.2" y="275.3" transform="matrix(0.3154 -0.949 0.949 0.3154 -116.4936 409.0277)" class="st3" width="10" height="20"/>
			</g>
			<g>
				
					<rect x="243.9" y="283.2" transform="matrix(0.3154 -0.949 0.949 0.3154 -107.8165 436.9253)" class="st3" width="10" height="20"/>
			</g>
		</g>
		<g>
			<path class="st4" d="M340.6,222.6c0.7,0.2,1.5-0.1,1.7-0.9c0.2-0.7-0.1-1.5-0.9-1.7c-0.7-0.2-1.5,0.1-1.7,0.9
				C339.5,221.6,339.9,222.3,340.6,222.6z"/>
			<path class="st4" d="M293.6,175.6c-0.2,1.6-0.1,3.1,0.1,4.6c0.9,4.8,0.6,9.4-0.7,13.2l-5.3,15.8c-0.2,0.7,0.1,1.5,0.9,1.7
				l5.1,1.7c0.7,0.2,1.5-0.1,1.7-0.9l4.8-14.3c1-2.9,2.6-5.6,4.7-7.8l0.2-0.2c4.4,7.1,7.1,15.1,7.9,23.4c0.4,3.8,2.9,7,6.4,8.2
				l10.5,3.5c5.1,1.7,9.1,2.9,12.2,3.4c1.6,0.2,6.3,1,7.5-2.5c0.7-2,0-5.4-1.7-8.7c-1.2-2.2-3.8-6.3-8.4-8.6c-0.4-0.2-0.8-0.2-1.2,0
				c-1.7,0.7-4.4,0.7-6.6,0c-3.1-1-5.7-3.9-6.2-6.6c0-0.1,0-0.1,0-0.2l-4.5-15.1c-2.8-9.3-6.9-18.2-12.1-26.4
				c-0.3-0.5-1-0.8-1.6-0.5c-2.5,0.9-4.8,2.3-6.9,4C296.5,166.8,294.1,171.3,293.6,175.6L293.6,175.6z M297.6,196.7l-4.3,13
				l-2.6-0.9l4.8-14.6c0.1-0.4,0.3-0.8,0.4-1.2c1.9-7.2,0.4-12.8,0.3-14.3c2.8,2.6,5.2,5.5,7.4,8.6
				C301.5,189.1,299,192.7,297.6,196.7z M302.2,165.5c1.5-1.3,3.2-2.3,5-3.1c4.8,7.7,8.6,16.1,11.2,24.8l4.5,15c0.7,3.7,4,7.3,8,8.6
				c2.5,0.8,5.7,0.9,7.9,0.1c3.6,2,5.8,5.3,6.7,7.2c1.5,2.9,1.9,5.5,1.6,6.6c-0.4,1.1-2.6,1-4.5,0.7c-2.9-0.4-6.8-1.6-11.8-3.3
				l-10.5-3.5c-2.5-0.8-4.3-3.2-4.6-5.9c-1.4-14.5-8.3-28-19.3-37.5C297,171.9,298.9,168.3,302.2,165.5z"/>
			<path class="st4" d="M321.1,216.1l14.4,4.8c0.7,0.2,1.5-0.1,1.7-0.9c0.2-0.7-0.1-1.5-0.9-1.7l-14.4-4.8c-0.7-0.2-1.5,0.1-1.7,0.9
				C320,215.1,320.4,215.9,321.1,216.1z"/>
		</g>
	</g>
	<g>
		<g>
			<g>
				<path class="st0" d="M269.1,302.8l-154.4,43.7c-3.2,0.9-6.6-1-7.5-4.2L52.1,147.6c-0.9-3.2,1-6.6,4.2-7.5l154.4-43.7
					c3.2-0.9,6.6,1,7.5,4.2l55.1,194.7C274.2,298.5,272.4,301.9,269.1,302.8z"/>
				<path class="st1" d="M269.1,302.8l-154.4,43.7c-3.2,0.9-6.6-1-7.5-4.2L52.1,147.6c-0.9-3.2,1-6.6,4.2-7.5l154.4-43.7
					c3.2-0.9,6.6,1,7.5,4.2l55.1,194.7C274.2,298.5,272.4,301.9,269.1,302.8z"/>
			</g>
			<path class="st5" d="M246.7,246.8L104.5,287c-1.3,0.4-2.6-0.4-3-1.7l-38-134.4c-0.4-1.3,0.4-2.6,1.7-3l142.1-40.1
				c1.3-0.4,2.6,0.4,3,1.7l38,134.3C248.7,245.1,248,246.4,246.7,246.8z"/>
			<g>
				
					<rect x="103.2" y="279.5" transform="matrix(0.9622 -0.2723 0.2723 0.9622 -70.5687 56.4746)" class="st3" width="130" height="6"/>
			</g>
			<g>
				
					<rect x="107.8" y="299.1" transform="matrix(0.9622 -0.2723 0.2723 0.9622 -76.7135 51.3898)" class="st3" width="78" height="6"/>
			</g>
			<g>
				
					<rect x="114.7" y="319.5" transform="matrix(0.9622 -0.2723 0.2723 0.9622 -83.6492 46.2168)" class="st3" width="20" height="10"/>
			</g>
			<g>
				
					<rect x="138.8" y="312.7" transform="matrix(0.9622 -0.2723 0.2723 0.9622 -80.8857 52.5239)" class="st3" width="20" height="10"/>
			</g>
		</g>
		<g>
			<g>
				<g>
					<path class="st6" d="M147,165.8c-18.6,5.3-29.5,24.7-24.2,43.3s24.7,29.5,43.3,24.2s29.5-24.7,24.2-43.3
						C185,171.3,165.6,160.5,147,165.8z M165.4,231.1c-17.4,4.9-35.5-5.2-40.5-22.6s5.2-35.5,22.6-40.5s35.5,5.2,40.5,22.6
						S182.8,226.1,165.4,231.1z"/>
				</g>
			</g>
			<g>
				<g>
					<path class="st6" d="M190.7,200.8c-6.1-1.8-12.5-10.5-15.5-21.2c-1-3.4-1.6-6.9-1.8-10.2c0-0.6-0.6-1.1-1.2-1.1
						s-1.1,0.6-1.1,1.2c0.2,3.5,0.8,7.1,1.8,10.7c3.3,11.6,10.2,20.8,17.1,22.8c0.2,0.1,0.4,0.1,0.6,0c0.4-0.1,0.7-0.4,0.8-0.8
						C191.7,201.7,191.3,201,190.7,200.8z"/>
				</g>
			</g>
			<g>
				<g>
					<path class="st6" d="M138.9,169.4c-0.3,0-0.5,0-0.7,0.2c-13.4,8.2-19.7,24.4-15.5,39.5c5.3,18.6,24.7,29.5,43.3,24.2
						c5.6-1.6,10.7-4.5,14.8-8.5c0.3-0.2,0.4-0.6,0.4-0.9L181,222v-0.2c-0.4-3.6-0.9-7.3-1.9-11
						C172.7,187.9,156.5,171.3,138.9,169.4z M178.8,222.1l0.1,1.4c-3.8,3.5-8.4,6.1-13.4,7.6c-17.4,4.9-35.5-5.2-40.5-22.6
						c-4-14,1.8-29,14.1-36.7c16.5,2,31.7,17.8,37.8,39.6C177.9,214.9,178.3,218.6,178.8,222.1z"/>
				</g>
			</g>
			<g>
				<g>
					<path class="st6" d="M156,226.5c-2.3-0.1-4.8-0.6-7.4-1.4c-0.6-0.2-1.3,0.2-1.5,0.8s0.2,1.3,0.8,1.5c2.9,0.9,5.5,1.4,8,1.5
						c0.1,0,0.3,0,0.4,0c0.5-0.1,0.8-0.6,0.8-1.1C157.2,227.1,156.7,226.5,156,226.5z"/>
				</g>
			</g>
			<g>
				<g>
					<path class="st6" d="M142,222.3c-0.4-0.3-0.7-0.5-1.1-0.8c-1.2-0.8-2.5-1.7-3.3-2.6c-0.4-0.5-1.2-0.5-1.7-0.1s-0.5,1.2-0.1,1.7
						c1,1.1,2.5,2.1,3.7,3c0.4,0.3,0.8,0.5,1.1,0.8c0.3,0.2,0.7,0.3,1,0.2c0.2-0.1,0.5-0.2,0.6-0.4
						C142.7,223.4,142.6,222.7,142,222.3z"/>
				</g>
			</g>
			<g>
				<g>
					<path class="st6" d="M185.3,180.9c-33,9.1-49.4,25.6-57.2,37.9c-0.3,0.5-0.2,1.3,0.4,1.6c0.3,0.2,0.6,0.2,0.9,0.1
						s0.5-0.2,0.7-0.5c7.6-12,23.6-28.1,55.9-36.9l0,0c0.6-0.2,1-0.8,0.8-1.4C186.6,181.1,185.9,180.8,185.3,180.9z"/>
				</g>
			</g>
			<g>
				<g>
					<path class="st6" d="M126.6,183.7c-0.3,0.1-0.7,0.2-1,0.3c-0.6,0.2-1,0.8-0.9,1.4s0.8,1,1.4,0.9c0.4-0.1,0.8-0.2,1.1-0.3
						c14.9-4.2,31.1,6.7,36.1,24.4c2.2,7.9,2.3,15.4,0.2,21.7c-0.2,0.6,0.1,1.3,0.7,1.5c0.2,0.1,0.5,0.1,0.7,0
						c0.4-0.1,0.7-0.4,0.8-0.8c2.3-6.8,2.2-14.8-0.1-23.1C160.3,190.8,142.8,179.1,126.6,183.7z"/>
				</g>
			</g>
		</g>
	</g>
	<g>
		<g>
			<g>
				<path class="st0" d="M318.8,308.7H158.4c-3.3,0-6.1-2.7-6.1-6.1V100.3c0-3.3,2.7-6.1,6.1-6.1h160.5c3.3,0,6.1,2.7,6.1,6.1v202.3
					C324.9,306,322.2,308.7,318.8,308.7z"/>
				<path class="st1" d="M318.8,308.7H158.4c-3.3,0-6.1-2.7-6.1-6.1V100.3c0-3.3,2.7-6.1,6.1-6.1h160.5c3.3,0,6.1,2.7,6.1,6.1v202.3
					C324.9,306,322.2,308.7,318.8,308.7z"/>
			</g>
			<path class="st7" d="M312.5,248.7H164.7c-1.3,0-2.4-1.1-2.4-2.4V106.6c0-1.3,1.1-2.4,2.4-2.4h147.8c1.3,0,2.4,1.1,2.4,2.4v139.6
				C314.9,247.6,313.8,248.7,312.5,248.7z"/>
			<g>
				<rect x="162.3" y="258.7" class="st3" width="130" height="6"/>
			</g>
			<g>
				<rect x="162.3" y="271.7" class="st3" width="78" height="6"/>
			</g>
			<g>
				<rect x="164" y="285.2" class="st3" width="20" height="10"/>
			</g>
			<g>
				<rect x="189" y="285.2" class="st3" width="20" height="10"/>
			</g>
		</g>
		<g id="outline">
			<path class="st8" d="M270.8,200.4l-12.9-20.8c-2.7-4.3-5.7-8.4-9-12.3l-2.6-3v-3.4c0-3.6,1.7-7.1,4.6-9.3l5.1-2.5
				c0.6-0.3,0.9-1.1,0.6-1.7c0-0.1-0.1-0.2-0.1-0.2l-5.2-6.5l0,0c-0.1-0.1-0.3-0.3-0.4-0.4l-5.2-2.6c-0.4-0.2-0.9-0.2-1.3,0.1
				c-1.7,1-3.7,1.6-5.8,1.6c-2,0-4.1-0.6-5.8-1.6l0,0c-0.4-0.2-0.8-0.2-1.2,0l-5.2,2.6c-0.2,0.1-0.3,0.2-0.4,0.4l0,0l-5.2,6.5
				c-0.4,0.6-0.4,1.4,0.2,1.8c0.1,0.1,0.1,0.1,0.2,0.1l5.1,2.5c2.9,2.2,4.6,5.6,4.6,9.3v3.4l-2.6,3c-3.3,3.8-6.3,7.9-9,12.3
				l-12.9,20.8c-0.3,0.4-0.3,1,0,1.4c1.1,1.7,2.7,3,4.6,3.9l-0.7,1.2l0,0c0,0.1-0.1,0.1-0.1,0.2c-0.3,0.7,0.1,1.4,0.7,1.7l1.5,0.6
				c2.7,1.1,5.6,1.5,8.5,1.2l-0.4,1.9c-0.2,0.7,0.3,1.4,1,1.6c0,0,0,0,0.1,0l2.9,0.5c3.3,0.5,6.6,0.8,9.9,0.8h8.4
				c3.3,0,6.6-0.3,9.9-0.8l2.9-0.5c0.7-0.1,1.2-0.8,1.1-1.5c0,0,0,0,0-0.1l-0.4-1.9c2.9,0.3,5.8-0.1,8.5-1.2l1.5-0.6
				c0.7-0.3,1-1,0.7-1.7c0-0.1-0.1-0.1-0.1-0.2l0,0l-0.7-1.2c1.9-0.8,3.4-2.2,4.6-3.9C271.1,201.4,271.1,200.8,270.8,200.4z
				 M251.6,148.4v-3.3l1.9,2.3L251.6,148.4z M243.7,141c-0.5,2.8-3.1,4.8-5.9,4.3c-2.2-0.4-3.9-2.1-4.3-4.3c1.6,0.6,3.4,1,5.1,1
				C240.4,142,242.1,141.6,243.7,141z M225.6,145.2v3.3l-1.9-0.9L225.6,145.2z M228.2,149.9v-7.6l2.6-1.3c0.4,4.3,4.2,7.4,8.5,7
				c3.7-0.4,6.6-3.3,7-7l2.6,1.3v7.6c-2.9,2.4-4.8,5.9-5.1,9.7c-2.1,0.2-4,1.3-5.2,3.1c-1.2-1.7-3.1-2.9-5.2-3.1
				C233,155.8,231.2,152.3,228.2,149.9z M240.2,165.2c0.6-1.5,2-2.7,3.6-2.9v2C242.8,165,241.5,165.4,240.2,165.2z M233.4,164.2v-2
				c1.6,0.3,3,1.4,3.6,2.9C235.7,165.4,234.4,165,233.4,164.2z M213.4,207h-0.1l8.3-14.3l-2.2-1.3l-7,12.1c-1.3-0.5-2.4-1.4-3.2-2.4
				l12.4-20.1c2.6-4.2,5.5-8.2,8.7-11.9l2.1-2.4c0.4,0.2,0.7,0.4,1.1,0.6l-3.6,9.4c-1.9,4.9-3.4,9.8-4.5,14.9l-3.7,16.4
				C218.8,208.3,216,208,213.4,207z M224.9,212l-1.6-0.3l4.5-19.6c1.1-5,2.6-9.8,4.4-14.6l3.7-9.6h-0.1c0.2,0,0.3,0,0.5,0
				c0.3,0,0.7,0,1-0.1v45h-2.9C231.2,212.7,228.1,212.5,224.9,212L224.9,212z M252.3,212c-3.1,0.5-6.3,0.8-9.4,0.8H240v-45
				c0.3,0,0.7,0.1,1,0.1c0.2,0,0.3,0,0.5,0h-0.1l3.7,9.6c1.8,4.7,3.3,9.6,4.4,14.6l4.5,19.6L252.3,212z M266.9,202.3
				c-0.6,0.5-1.3,0.9-2,1.2l-7-12.1l-2.2,1.3L264,207h-0.1c-2.6,1-5.4,1.3-8.2,0.9l-3.7-16.4c-1.2-5.1-2.7-10.1-4.5-14.9l-3.6-9.4
				c0.4-0.2,0.8-0.4,1.1-0.6l2.1,2.4c3.2,3.7,6.1,7.7,8.7,11.9l12.4,20.1C267.8,201.5,267.3,201.9,266.9,202.3L266.9,202.3z"/>
		</g>
	</g>
	<path class="st3" d="M134.9,65.8l-3-1.3l1.3-3c0.3-0.7,0-1.6-0.8-2s-1.6,0-2,0.8l-1.3,3l-3-1.3c-0.7-0.3-1.6,0-2,0.8
		c-0.3,0.7,0,1.6,0.8,2l3,1.3l-1.3,3c-0.3,0.7,0,1.6,0.8,2c0.7,0.3,1.6,0,2-0.8l1.3-3l3,1.3c0.8,0.3,1.6,0,2-0.8
		C136,67.1,135.6,66.2,134.9,65.8z"/>
	<path class="st3" d="M16.7,213.8l-2-0.9l0.9-2c0.2-0.5,0-1.1-0.5-1.3s-1.1,0-1.3,0.5l-0.9,2l-2.1-0.9c-0.5-0.2-1.1,0-1.3,0.5
		s0,1.1,0.5,1.3l2.1,0.9l-0.9,2c-0.2,0.5,0,1.1,0.5,1.3s1.1,0,1.3-0.5l0.9-2l2,0.9c0.5,0.2,1.1,0,1.3-0.5
		C17.5,214.7,17.2,214.1,16.7,213.8z"/>
	<path class="st3" d="M453.5,245.2l-2-0.9l0.9-2c0.2-0.5,0-1.1-0.5-1.3s-1.1,0-1.3,0.5l-0.9,2l-2.1-0.9c-0.5-0.2-1.1,0-1.3,0.5
		s0,1.1,0.5,1.3l2.1,0.9l-0.9,2c-0.2,0.5,0,1.1,0.5,1.3s1.1,0,1.3-0.5l0.9-2l2,0.9c0.5,0.2,1.1,0,1.3-0.5
		C454.2,246,454,245.4,453.5,245.2z"/>
	<path class="st3" d="M50.2,294.7l-2-0.9l0.9-2c0.2-0.5,0-1.1-0.5-1.3c-0.5-0.2-1.1,0-1.3,0.5l-0.9,2l-2.1-0.9
		c-0.5-0.2-1.1,0-1.3,0.5s0,1.1,0.5,1.3l2.1,0.9l-0.9,2c-0.2,0.5,0,1.1,0.5,1.3c0.5,0.2,1.1,0,1.3-0.5l0.9-2l2,0.9
		c0.5,0.2,1.1,0,1.3-0.5S50.7,294.9,50.2,294.7z"/>
	<path class="st3" d="M356.3,33.2c-3.3,0-6.1,2.7-6.1,6.1s2.7,6.1,6.1,6.1s6.1-2.7,6.1-6.1S359.6,33.2,356.3,33.2z M356.3,42.6
		c-1.9,0-3.4-1.5-3.4-3.4s1.5-3.4,3.4-3.4s3.4,1.5,3.4,3.4S358.2,42.6,356.3,42.6z"/>
	<path class="st3" d="M40.7,75.5c-3.3,0-6.1,2.7-6.1,6.1s2.7,6.1,6.1,6.1s6.1-2.7,6.1-6.1S44.1,75.5,40.7,75.5z M40.7,84.9
		c-1.9,0-3.4-1.5-3.4-3.4s1.5-3.4,3.4-3.4s3.4,1.5,3.4,3.4S42.6,84.9,40.7,84.9z"/>
	<path class="st3" d="M282.2,55.7c-2.1,0-3.8,1.7-3.8,3.8s1.7,3.8,3.8,3.8s3.8-1.7,3.8-3.8C286,57.3,284.3,55.7,282.2,55.7z
		 M282.2,61.5c-1.2,0-2.1-0.9-2.1-2.1c0-1.2,0.9-2.1,2.1-2.1s2.1,0.9,2.1,2.1S283.4,61.5,282.2,61.5z"/>
	<path class="st3" d="M7.9,143c-2.1,0-3.8,1.7-3.8,3.8s1.7,3.8,3.8,3.8s3.8-1.7,3.8-3.8S10,143,7.9,143z M7.9,148.9
		c-1.2,0-2.1-0.9-2.1-2.1s0.9-2.1,2.1-2.1s2.1,0.9,2.1,2.1S9.1,148.9,7.9,148.9z"/>
	<path class="st3" d="M418.5,303.1c-2.1,0-3.8,1.7-3.8,3.8c0,2.1,1.7,3.8,3.8,3.8s3.8-1.7,3.8-3.8S420.6,303.1,418.5,303.1z
		 M418.5,308.9c-1.2,0-2.1-0.9-2.1-2.1s0.9-2.1,2.1-2.1s2.1,0.9,2.1,2.1S419.7,308.9,418.5,308.9z"/>
	<g>
		<g>
			<rect x="23.3" y="346.8" class="st3" width="359.2" height="2.7"/>
		</g>
		<g>
			<rect x="413" y="346.8" class="st3" width="49" height="2.7"/>
		</g>
		<g>
			<rect y="346.8" class="st3" width="15.9" height="2.7"/>
		</g>
		<g>
			<rect x="56.9" y="368.5" class="st3" width="15.6" height="2.7"/>
		</g>
		<g>
			<rect x="94.8" y="368.5" class="st3" width="28.2" height="2.7"/>
		</g>
		<g>
			<rect x="322.5" y="368.5" class="st3" width="12.6" height="2.7"/>
		</g>
		<g>
			<rect x="350.2" y="368.5" class="st3" width="54.6" height="2.7"/>
		</g>
		<g>
			<rect x="33.9" y="386.9" class="st3" width="13.8" height="2.7"/>
		</g>
		<g>
			<rect x="411.7" y="386.9" class="st3" width="13.8" height="2.7"/>
		</g>
	</g>
	<path class="st9" d="M285.2,35.9h-82.4c-0.9-4.2-0.9-8.4,1.6-11.9c2.5-3.6,6.6-6,10.9-6.2c4-0.2,8,1.5,12,0.9
		c10.2-1.4,14.7-15.8,24.9-17.4c5.7-0.8,11.4,3.1,13.9,8.4c1.1,2.3,1.7,4.9,3.5,6.6c2,1.8,4.9,2.2,7.4,3.2
		C283.3,22,286.3,29.2,285.2,35.9z"/>
	<path class="st9" d="M437.3,101.1h-46.6c-1.5-3.2-1.5-6.9,0.5-9.8c2.1-2.9,5.7-4.5,9.3-4.1c2.8,0.3,5.9,1.8,8.3,0.2
		c2.5-1.6,2.1-5.5,3.9-7.9c1.7-2.4,5.2-2.9,7.9-1.8c2.7,1.1,4.6,3.6,5.9,6.2c0.8,1.6,1.5,3.5,3.2,4.3c1.5,0.6,3.1,0.1,4.6,0.4
		c2.3,0.4,4.1,2.6,4.7,4.9C439.7,95.8,437.5,98.7,437.3,101.1z"/>
</g>
</svg>
