<?xml version="1.0" encoding="utf-8"?>
<!-- Generator: Adobe Illustrator 24.1.3, SVG Export Plug-In . SVG Version: 6.00 Build 0)  -->
<svg version="1.1" id="Layer_1" xmlns="http://www.w3.org/2000/svg" xmlns:xlink="http://www.w3.org/1999/xlink" x="0px" y="0px"
	 width="477.3px" height="386.2px" viewBox="0 0 477.3 386.2" style="enable-background:new 0 0 477.3 386.2;" xml:space="preserve"
	>
<style type="text/css">
	.st0{fill:#FFFFFF;}
	.st1{fill:none;stroke:#E5E9EA;stroke-width:1.5;stroke-miterlimit:10;}
	.st2{fill:#E4E8EA;}
	.st3{fill:#4B0082;}
	.st4{fill:none;stroke:#F0F0F2;stroke-width:2.4;stroke-miterlimit:10;}
</style>
<g>
	<g>
		<g>
			<g>
				<path class="st0" d="M288.5,303.5H128.1c-3.3,0-6.1-2.7-6.1-6.1V95.1c0-3.3,2.7-6.1,6.1-6.1h160.5c3.3,0,6.1,2.7,6.1,6.1v202.3
					C294.6,300.8,291.9,303.5,288.5,303.5z"/>
				<path class="st1" d="M289.4,303.5H129c-3.3,0-6.1-2.7-6.1-6.1V95.1c0-3.3,2.7-6.1,6.1-6.1h160.5c3.3,0,6.1,2.7,6.1,6.1v202.3
					C295.5,300.8,292.8,303.5,289.4,303.5z"/>
			</g>
			<path class="st2" d="M283.1,223.5H135.3c-1.3,0-2.4-1.1-2.4-2.4V101.4c0-1.3,1.1-2.4,2.4-2.4h147.8c1.3,0,2.4,1.1,2.4,2.4V221
				C285.5,222.4,284.4,223.5,283.1,223.5z"/>
			<g>
				<rect x="132.9" y="233.5" class="st2" width="151" height="6"/>
			</g>
			<g>
				<rect x="132.9" y="275.5" class="st2" width="151" height="6"/>
			</g>
			<g>
				<rect x="132.9" y="288.5" class="st2" width="151" height="6"/>
			</g>
			<g>
				<rect x="132.9" y="247.4" class="st2" width="30" height="20"/>
			</g>
			<g>
				<rect x="172.9" y="247.4" class="st2" width="30" height="20"/>
			</g>
			<g>
				<rect x="213.9" y="247.4" class="st2" width="30" height="20"/>
			</g>
			<g>
				<rect x="254.9" y="247.4" class="st2" width="30" height="20"/>
			</g>
		</g>
		<g>
			<g>
				<path class="st0" d="M339.5,343.4H179.1c-3.3,0-6.1-2.7-6.1-6.1V135c0-3.3,2.7-6.1,6.1-6.1h160.5c3.3,0,6.1,2.7,6.1,6.1v202.3
					C345.6,340.7,342.9,343.4,339.5,343.4z"/>
				<path class="st1" d="M340.4,343.4H180c-3.3,0-6.1-2.7-6.1-6.1V135c0-3.3,2.7-6.1,6.1-6.1h160.5c3.3,0,6.1,2.7,6.1,6.1v202.3
					C346.5,340.7,343.8,343.4,340.4,343.4z"/>
			</g>
			<path class="st3" d="M334.1,203.4H186.3c-1.3,0-2.4-1.1-2.4-2.4v-59.7c0-1.3,1.1-2.4,2.4-2.4h147.8c1.3,0,2.4,1.1,2.4,2.4v59.6
				C336.5,202.3,335.4,203.4,334.1,203.4z"/>
			<g>
				<rect x="183.9" y="213.4" class="st2" width="151" height="6"/>
			</g>
			<g>
				<rect x="183.9" y="225.4" class="st2" width="151" height="6"/>
			</g>
			<g>
				<rect x="183.9" y="237.4" class="st2" width="114" height="6"/>
			</g>
			<g>
				<rect x="183.9" y="248.4" class="st2" width="114" height="6"/>
			</g>
			<g>
				<rect x="183.9" y="259.4" class="st2" width="114" height="6"/>
			</g>
			<g>
				<rect x="183.9" y="273.4" class="st2" width="151" height="6"/>
			</g>
			<g>
				<rect x="183.9" y="315.4" class="st2" width="151" height="6"/>
			</g>
			<g>
				<rect x="183.9" y="328.4" class="st2" width="151" height="6"/>
			</g>
			<g>
				<rect x="305.9" y="237.4" class="st2" width="29" height="28"/>
			</g>
			<g>
				<rect x="183.9" y="287.3" class="st2" width="30" height="20"/>
			</g>
			<g>
				<rect x="223.9" y="287.3" class="st2" width="30" height="20"/>
			</g>
			<g>
				<rect x="264.9" y="287.3" class="st2" width="30" height="20"/>
			</g>
			<g>
				<rect x="305.9" y="287.3" class="st2" width="30" height="20"/>
			</g>
		</g>
	</g>
	<path class="st2" d="M121,42.5l-3-1.3l1.3-3c0.3-0.7,0-1.6-0.8-2s-1.6,0-2,0.8l-1.3,3l-3-1.3c-0.7-0.3-1.6,0-2,0.8
		c-0.3,0.7,0,1.6,0.8,2l3,1.3l-1.3,3c-0.3,0.7,0,1.6,0.8,2c0.7,0.3,1.6,0,2-0.8l1.3-3l3,1.3c0.8,0.3,1.6,0,2-0.8
		C122.1,43.8,121.7,42.9,121,42.5z"/>
	<path class="st2" d="M16.7,210.4l-2-0.9l0.9-2c0.2-0.5,0-1.1-0.5-1.3s-1.1,0-1.3,0.5l-0.9,2l-2.1-0.9c-0.5-0.2-1.1,0-1.3,0.5
		s0,1.1,0.5,1.3l2.1,0.9l-0.9,2c-0.2,0.5,0,1.1,0.5,1.3s1.1,0,1.3-0.5l0.9-2l2,0.9c0.5,0.2,1.1,0,1.3-0.5
		C17.5,211.3,17.2,210.7,16.7,210.4z"/>
	<path class="st2" d="M461.4,251.7l-2-0.9l0.9-2c0.2-0.5,0-1.1-0.5-1.3s-1.1,0-1.3,0.5l-0.9,2l-2.1-0.9c-0.5-0.2-1.1,0-1.3,0.5
		s0,1.1,0.5,1.3l2.1,0.9l-0.9,2c-0.2,0.5,0,1.1,0.5,1.3s1.1,0,1.3-0.5l0.9-2l2,0.9c0.5,0.2,1.1,0,1.3-0.5
		C462.1,252.5,461.9,251.9,461.4,251.7z"/>
	<path class="st2" d="M50.2,291.3l-2-0.9l0.9-2c0.2-0.5,0-1.1-0.5-1.3c-0.5-0.2-1.1,0-1.3,0.5l-0.9,2l-2.1-0.9
		c-0.5-0.2-1.1,0-1.3,0.5s0,1.1,0.5,1.3l2.1,0.9l-0.9,2c-0.2,0.5,0,1.1,0.5,1.3c0.5,0.2,1.1,0,1.3-0.5l0.9-2l2,0.9
		c0.5,0.2,1.1,0,1.3-0.5C50.9,292.1,50.7,291.5,50.2,291.3z"/>
	<path class="st2" d="M476.7,163.7l-2-0.9l0.9-2c0.2-0.5,0-1.1-0.5-1.3s-1.1,0-1.3,0.5l-0.9,2l-2.1-0.9c-0.5-0.2-1.1,0-1.3,0.5
		s0,1.1,0.5,1.3l2.1,0.9l-0.9,2c-0.2,0.5,0,1.1,0.5,1.3s1.1,0,1.3-0.5l0.9-2l2,0.9c0.5,0.2,1.1,0,1.3-0.5
		C477.4,164.6,477.2,164,476.7,163.7z"/>
	<path class="st2" d="M356.3,29.8c-3.3,0-6.1,2.7-6.1,6.1s2.7,6.1,6.1,6.1s6.1-2.7,6.1-6.1S359.6,29.8,356.3,29.8z M356.3,39.2
		c-1.9,0-3.4-1.5-3.4-3.4s1.5-3.4,3.4-3.4s3.4,1.5,3.4,3.4S358.2,39.2,356.3,39.2z"/>
	<path class="st2" d="M40.7,72.1c-3.3,0-6.1,2.7-6.1,6.1s2.7,6.1,6.1,6.1s6.1-2.7,6.1-6.1S44.1,72.1,40.7,72.1z M40.7,81.5
		c-1.9,0-3.4-1.5-3.4-3.4s1.5-3.4,3.4-3.4s3.4,1.5,3.4,3.4S42.6,81.5,40.7,81.5z"/>
	<path class="st2" d="M298.9,56.1c-2.1,0-3.8,1.7-3.8,3.8s1.7,3.8,3.8,3.8s3.8-1.7,3.8-3.8C302.7,57.7,301,56.1,298.9,56.1z
		 M298.9,61.9c-1.2,0-2.1-0.9-2.1-2.1c0-1.2,0.9-2.1,2.1-2.1s2.1,0.9,2.1,2.1S300.1,61.9,298.9,61.9z"/>
	<path class="st2" d="M7.9,139.6c-2.1,0-3.8,1.7-3.8,3.8s1.7,3.8,3.8,3.8s3.8-1.7,3.8-3.8S10,139.6,7.9,139.6z M7.9,145.5
		c-1.2,0-2.1-0.9-2.1-2.1s0.9-2.1,2.1-2.1s2.1,0.9,2.1,2.1S9.1,145.5,7.9,145.5z"/>
	<path class="st2" d="M418.5,299.7c-2.1,0-3.8,1.7-3.8,3.8c0,2.1,1.7,3.8,3.8,3.8s3.8-1.7,3.8-3.8S420.6,299.7,418.5,299.7z
		 M418.5,305.5c-1.2,0-2.1-0.9-2.1-2.1s0.9-2.1,2.1-2.1s2.1,0.9,2.1,2.1S419.7,305.5,418.5,305.5z"/>
	<g>
		<g>
			<rect x="23.3" y="343.4" class="st2" width="359.2" height="2.7"/>
		</g>
		<g>
			<rect x="413" y="343.4" class="st2" width="49" height="2.7"/>
		</g>
		<g>
			<rect y="343.4" class="st2" width="15.9" height="2.7"/>
		</g>
		<g>
			<rect x="56.9" y="365.1" class="st2" width="15.6" height="2.7"/>
		</g>
		<g>
			<rect x="94.8" y="365.1" class="st2" width="28.2" height="2.7"/>
		</g>
		<g>
			<rect x="322.5" y="365.1" class="st2" width="12.6" height="2.7"/>
		</g>
		<g>
			<rect x="350.2" y="365.1" class="st2" width="54.6" height="2.7"/>
		</g>
		<g>
			<rect x="33.9" y="383.5" class="st2" width="13.8" height="2.7"/>
		</g>
		<g>
			<rect x="411.7" y="383.5" class="st2" width="13.8" height="2.7"/>
		</g>
	</g>
	<path class="st4" d="M273.2,35.9h-82.4c-0.9-4.2-0.9-8.4,1.6-11.9c2.5-3.6,6.6-6,10.9-6.2c4-0.2,8,1.5,12,0.9
		c10.2-1.4,14.7-15.8,24.9-17.4c5.7-0.8,11.4,3.1,13.9,8.4c1.1,2.3,1.7,4.9,3.5,6.6c2,1.8,4.9,2.2,7.4,3.2
		C271.3,22,274.3,29.2,273.2,35.9z"/>
	<path class="st4" d="M439.8,92.2h-54.5c-1.8-3.7-1.8-8.1,0.6-11.5s6.7-5.3,10.9-4.8c3.3,0.4,6.9,2.1,9.7,0.2
		c2.9-1.9,2.5-6.4,4.6-9.2c2-2.8,6.1-3.4,9.3-2.1c3.2,1.3,5.4,4.2,6.9,7.3c0.9,1.9,1.8,4.1,3.7,5c1.7,0.7,3.6,0.1,5.4,0.5
		c2.7,0.5,4.8,3,5.5,5.7S440.1,89.4,439.8,92.2z"/>
</g>
</svg>
