<?xml version="1.0" encoding="utf-8"?>
<!-- Generator: Adobe Illustrator 24.1.3, SVG Export Plug-In . SVG Version: 6.00 Build 0)  -->
<svg version="1.1" id="Layer_1" xmlns="http://www.w3.org/2000/svg" xmlns:xlink="http://www.w3.org/1999/xlink" x="0px" y="0px"
	 width="462px" height="374.3px" viewBox="0 0 462 374.3" style="enable-background:new 0 0 462 374.3;" xml:space="preserve">
<style type="text/css">
	.st0{fill:#E4E8EA;}
	.st1{fill:none;stroke:#F0F0F2;stroke-width:2.4;stroke-miterlimit:10;}
	.st2{fill:#FFFFFF;}
	.st3{fill:none;stroke:#E5E9EA;stroke-width:1.5;stroke-miterlimit:10;}
	.st4{fill:#4B0082;}
	.st5{fill:#7744AD;}
</style>
<g>
	<path class="st0" d="M125.7,66.8l-3-1.3l1.3-3c0.3-0.7,0-1.6-0.8-2s-1.6,0-2,0.8l-1.3,3l-3-1.3c-0.7-0.3-1.6,0-2,0.8
		c-0.3,0.7,0,1.6,0.8,2l3,1.3l-1.3,3c-0.3,0.7,0,1.6,0.8,2c0.7,0.3,1.6,0,2-0.8l1.3-3l3,1.3c0.8,0.3,1.6,0,2-0.8
		C126.8,68.1,126.4,67.2,125.7,66.8z"/>
	<path class="st0" d="M440.8,124.6l-2-0.9l0.9-2c0.2-0.5,0-1.1-0.5-1.3c-0.5-0.2-1.1,0-1.3,0.5l-0.9,2l-2-0.9
		c-0.5-0.2-1.1,0-1.3,0.5s0,1.1,0.5,1.3l2.1,0.9l-0.9,2c-0.2,0.5,0,1.1,0.5,1.3s1.1,0,1.3-0.5l0.9-2l2,0.9c0.5,0.2,1.1,0,1.3-0.5
		C441.5,125.5,441.3,124.9,440.8,124.6z"/>
	<path class="st0" d="M353,17.9c-3.3,0-6.1,2.7-6.1,6.1s2.7,6.1,6.1,6.1s6.1-2.7,6.1-6.1S356.3,17.9,353,17.9z M353,27.3
		c-1.9,0-3.4-1.5-3.4-3.4s1.5-3.4,3.4-3.4s3.4,1.5,3.4,3.4S354.9,27.3,353,27.3z"/>
	<path class="st0" d="M63.7,60.1c-3.3,0-6.1,2.7-6.1,6.1c0,3.4,2.7,6.1,6.1,6.1s6.1-2.7,6.1-6.1S67.1,60.1,63.7,60.1z M63.7,69.5
		c-1.9,0-3.4-1.5-3.4-3.4s1.5-3.4,3.4-3.4c1.9,0,3.4,1.5,3.4,3.4S65.6,69.5,63.7,69.5z"/>
	<path class="st0" d="M305.2,55c-2.1,0-3.8,1.7-3.8,3.8s1.7,3.8,3.8,3.8s3.8-1.7,3.8-3.8C309,56.6,307.3,55,305.2,55z M305.2,60.8
		c-1.2,0-2.1-0.9-2.1-2.1s0.9-2.1,2.1-2.1s2.1,0.9,2.1,2.1S306.4,60.8,305.2,60.8z"/>
	<path class="st0" d="M7.9,108c-2.1,0-3.8,1.7-3.8,3.8s1.7,3.8,3.8,3.8s3.8-1.7,3.8-3.8S10,108,7.9,108z M7.9,113.9
		c-1.2,0-2.1-0.9-2.1-2.1s0.9-2.1,2.1-2.1s2.1,0.9,2.1,2.1S9.1,113.9,7.9,113.9z"/>
	<path class="st1" d="M258.7,35.9h-82.4c-0.9-4.2-0.9-8.4,1.6-11.9c2.5-3.6,6.6-6,10.9-6.2c4-0.2,8,1.5,12,0.9
		c10.2-1.4,14.7-15.8,24.9-17.4c5.7-0.8,11.4,3.1,13.9,8.4c1.1,2.3,1.7,4.9,3.5,6.6c2,1.8,4.9,2.2,7.4,3.2
		C256.8,22,259.8,29.2,258.7,35.9z"/>
	<path class="st1" d="M403.6,86.4h-54.5c-1.8-3.7-1.8-8.1,0.6-11.5s6.7-5.3,10.9-4.8c3.3,0.4,6.9,2.1,9.7,0.2
		c2.9-1.9,2.5-6.4,4.6-9.2c2-2.8,6.1-3.4,9.3-2.1c3.2,1.3,5.4,4.2,6.9,7.3c0.9,1.9,1.8,4.1,3.7,5c1.7,0.7,3.6,0.1,5.4,0.5
		c2.7,0.5,4.8,3,5.5,5.7S403.9,83.6,403.6,86.4z"/>
	<g>
		<g>
			<path class="st2" d="M123.3,291H20.2c-2.1,0-3.9-1.7-3.9-3.9v-130c0-2.1,1.7-3.9,3.9-3.9h103.2c2.1,0,3.9,1.7,3.9,3.9v130
				C127.3,289.3,125.5,291,123.3,291z"/>
			<path class="st3" d="M123.3,291H20.2c-2.1,0-3.9-1.7-3.9-3.9v-130c0-2.1,1.7-3.9,3.9-3.9h103.2c2.1,0,3.9,1.7,3.9,3.9v130
				C127.3,289.3,125.5,291,123.3,291z"/>
		</g>
		<path class="st0" d="M119.3,252.5h-95c-0.8,0-1.5-0.7-1.5-1.5v-89.8c0-0.8,0.7-1.5,1.5-1.5h95c0.8,0,1.5,0.7,1.5,1.5v89.7
			C120.8,251.8,120.1,252.5,119.3,252.5z"/>
		<g>
			<rect x="22.7" y="259" class="st0" width="83.6" height="3.9"/>
		</g>
		<g>
			<rect x="22.7" y="267.3" class="st0" width="30.1" height="3.9"/>
		</g>
		<g>
			<rect x="57.7" y="267.3" class="st0" width="30.1" height="3.9"/>
		</g>
		<g>
			<rect x="22.5" y="276" class="st0" width="42.9" height="6.4"/>
		</g>
	</g>
	<g>
		<g>
			<path class="st2" d="M441.7,291H338.6c-2.1,0-3.9-1.7-3.9-3.9v-130c0-2.1,1.7-3.9,3.9-3.9h103.2c2.1,0,3.9,1.7,3.9,3.9v130
				C445.6,289.3,443.9,291,441.7,291z"/>
			<path class="st3" d="M441.7,291H338.6c-2.1,0-3.9-1.7-3.9-3.9v-130c0-2.1,1.7-3.9,3.9-3.9h103.2c2.1,0,3.9,1.7,3.9,3.9v130
				C445.6,289.3,443.9,291,441.7,291z"/>
		</g>
		<path class="st0" d="M437.7,252.5h-95c-0.8,0-1.5-0.7-1.5-1.5v-89.8c0-0.8,0.7-1.5,1.5-1.5h95c0.8,0,1.5,0.7,1.5,1.5v89.7
			C439.2,251.8,438.5,252.5,437.7,252.5z"/>
		<g>
			<rect x="341.1" y="259" class="st0" width="63.6" height="3.9"/>
		</g>
		<g>
			<rect x="341.1" y="267.3" class="st0" width="50.1" height="3.9"/>
		</g>
		<g>
			<rect x="340.9" y="276" class="st0" width="22.9" height="6.4"/>
		</g>
	</g>
	<g>
		<g>
			<path class="st2" d="M313.3,332.5h-165c-3.4,0-6.3-2.8-6.3-6.3V118.1c0-3.4,2.8-6.3,6.3-6.3h165.1c3.4,0,6.3,2.8,6.3,6.3v208.1
				C319.6,329.7,316.8,332.5,313.3,332.5z"/>
			<path class="st3" d="M313.3,332.5h-165c-3.4,0-6.3-2.8-6.3-6.3V118.1c0-3.4,2.8-6.3,6.3-6.3h165.1c3.4,0,6.3,2.8,6.3,6.3v208.1
				C319.6,329.7,316.8,332.5,313.3,332.5z"/>
		</g>
		<path class="st4" d="M306.8,270.7h-152c-1.3,0-2.5-1.1-2.5-2.5V124.6c0-1.3,1.1-2.5,2.5-2.5h152c1.3,0,2.5,1.1,2.5,2.5v143.6
			C309.3,269.6,308.2,270.7,306.8,270.7z"/>
		<g>
			<rect x="152.4" y="281" class="st0" width="156.7" height="6.2"/>
		</g>
		<g>
			<rect x="152.4" y="294.4" class="st0" width="80.2" height="6.2"/>
		</g>
		<g>
			<rect x="237.4" y="294.4" class="st0" width="48.2" height="6.2"/>
		</g>
		<g>
			<rect x="152.3" y="308.3" class="st0" width="48.2" height="6.2"/>
		</g>
		<g>
			<rect x="204.6" y="308.3" class="st0" width="48.2" height="6.2"/>
		</g>
		<g>
			<rect x="257.5" y="308.3" class="st0" width="48.2" height="6.2"/>
		</g>
	</g>
	<g>
		<g>
			<rect x="23.3" y="331.5" class="st0" width="359.2" height="2.7"/>
		</g>
		<g>
			<rect x="413" y="331.5" class="st0" width="49" height="2.7"/>
		</g>
		<g>
			<rect y="331.5" class="st0" width="15.9" height="2.7"/>
		</g>
		<g>
			<rect x="56.9" y="353.2" class="st0" width="15.6" height="2.7"/>
		</g>
		<g>
			<rect x="94.8" y="353.2" class="st0" width="28.2" height="2.7"/>
		</g>
		<g>
			<rect x="322.5" y="353.2" class="st0" width="12.6" height="2.7"/>
		</g>
		<g>
			<rect x="350.2" y="353.2" class="st0" width="54.6" height="2.7"/>
		</g>
		<g>
			<rect x="33.9" y="371.6" class="st0" width="13.8" height="2.7"/>
		</g>
		<g>
			<rect x="411.7" y="371.6" class="st0" width="13.8" height="2.7"/>
		</g>
	</g>
	<g>
		<path class="st5" d="M241.8,193.1h-5.1c-0.7,0-1.2,0.5-1.2,1.2v4.3c0,0.7,0.5,1.2,1.2,1.2h5.1c0.7,0,1.2-0.5,1.2-1.2v-4.3
			C243,193.6,242.5,193.1,241.8,193.1L241.8,193.1z M240.6,197.3h-2.7v-1.8h2.7V197.3z"/>
		<path class="st5" d="M258.1,192.6h-3.2c-0.3-2.2-0.9-4.3-1.7-6.3c0-0.1,0-0.2-0.1-0.2c0-0.1-0.1-0.1-0.1-0.2
			c-1.4-3.2-3.4-6.1-5.9-8.5l-1.3-12.1c-0.1-0.6-0.6-1.1-1.2-1.1h-1.5v-7c0-0.7-0.5-1.2-1.2-1.2h-26.6c-0.7,0-1.2,0.5-1.2,1.2v7
			h-1.4c-0.6,0-1.1,0.5-1.2,1.1l-1.3,11.9v0.1c-4.3,4.1-7.2,9.8-7.9,16.1c-0.1,0.7,0.4,1.2,1,1.3c0.7,0.1,1.2-0.4,1.3-1
			c0.2-1.8,0.6-3.6,1.2-5.2l3.2,1.3c-0.7,2.1-1.1,4.3-1.1,6.6c0,2.4,0.4,4.8,1.2,7l-3.2,1.3c-0.7-2-1.2-4.1-1.4-6.3
			c-0.1-0.7-0.6-1.1-1.3-1.1c-0.7,0.1-1.1,0.6-1.1,1.3c0.5,6.4,3.4,12.4,8,16.8l1.3,12.1c0.1,0.6,0.6,1.1,1.2,1.1h1.4v7
			c0,0.7,0.5,1.2,1.2,1.2H242c0.7,0,1.2-0.5,1.2-1.2v-7h1.5c0.6,0,1.1-0.5,1.2-1.1l1.3-12.1c0.6-0.5,1.1-1.1,1.6-1.7
			c0.4-0.5,0.4-1.2-0.1-1.7c-0.5-0.4-1.2-0.4-1.7,0.1c-4.6,5.3-11.2,8.3-18.2,8.3c-6.1,0-11.9-2.3-16.4-6.4c-2.2-2.1-4-4.5-5.3-7.2
			l3.2-1.3c1,2,2.3,3.8,3.8,5.4l0.1,0.1l0.1,0.1c3.7,3.7,8.9,6,14.5,6s10.8-2.3,14.5-6l0.1-0.1l0.1-0.1c1.6-1.6,3-3.6,4-5.7l3.2,1.3
			c-0.3,0.7-0.7,1.4-1.1,2c-0.3,0.6-0.1,1.3,0.4,1.6c0.2,0.1,0.4,0.2,0.6,0.2c0.4,0,0.8-0.2,1-0.6c0.6-1,1.1-2.1,1.6-3.2
			c0-0.1,0.1-0.1,0.1-0.2s0-0.1,0.1-0.2c0.5-1.3,0.9-2.7,1.2-4.1h3.5c0.7,0,1.2-0.5,1.2-1.2v-7.1
			C259.3,193.1,258.8,192.6,258.1,192.6L258.1,192.6z M216.6,228.6h2.7v5.8h-2.7V228.6z M230.5,228.6v5.8h-3.6v-5.8H230.5z
			 M235.8,234.4h-2.9v-5.8h2.9V234.4z M224.5,234.4h-2.9v-5.8h2.9V234.4z M240.8,234.4h-2.7v-5.8h2.7V234.4z M244.5,217.7l-0.9,8.6
			H237h-5.3h-5.9h-5.3h-6.6l-0.9-8.6c4.5,3.4,10,5.2,15.8,5.2C234.4,222.9,239.9,221,244.5,217.7z M240.8,164.2h-2.7v-5.8h2.7V164.2
			z M226.9,164.2v-5.8h3.6v5.8H226.9z M221.6,158.4h2.9v5.8h-2.9V158.4z M232.9,158.4h2.9v5.8h-2.9V158.4z M216.6,158.4h2.7v5.8
			h-2.7V158.4z M213.8,166.6h6.6h5.3h5.9h5.3h6.6l0.9,8.6c-4.4-3.3-9.9-5.2-15.8-5.2s-11.3,1.9-15.8,5.2L213.8,166.6z M206.8,186.3
			c3.8-8.3,12.2-14,21.9-14c9.5,0,17.8,5.6,21.7,13.6l-3.1,1.3c-1-2-2.3-3.8-3.8-5.4l-0.1-0.1l-0.1-0.1c-3.7-3.7-8.9-6-14.5-6
			s-10.8,2.3-14.5,6l-0.1,0.1l-0.1,0.1c-1.6,1.6-3,3.6-4,5.7L206.8,186.3z M242.5,208.5l-1.1-1.1c-0.5-0.5-1.2-0.5-1.7,0
			s-0.5,1.2,0,1.7l1.1,1.1c-2.9,2.6-6.7,4.3-10.9,4.5v-1.6c0-0.7-0.5-1.2-1.2-1.2s-1.2,0.5-1.2,1.2v1.6c-4.2-0.3-7.9-1.9-10.9-4.5
			l1.1-1.1c0.5-0.5,0.5-1.2,0-1.7s-1.2-0.5-1.7,0l-1,1.1c-2.6-2.9-4.3-6.7-4.5-10.9h1.7c0.7,0,1.2-0.5,1.2-1.2s-0.5-1.2-1.2-1.2
			h-1.7c0.3-4.2,1.9-7.9,4.5-10.9l1.1,1.1c0.2,0.2,0.5,0.3,0.8,0.3s0.6-0.1,0.8-0.3c0.5-0.5,0.5-1.2,0-1.7l-1.1-1.1
			c2.9-2.6,6.7-4.3,10.9-4.5v1.6c0,0.7,0.5,1.2,1.2,1.2s1.2-0.5,1.2-1.2v-1.6c4.2,0.3,7.9,1.9,10.9,4.5l-1.1,1.1
			c-0.5,0.5-0.5,1.2,0,1.7c0.2,0.2,0.5,0.3,0.8,0.3s0.6-0.1,0.8-0.3l1.1-1.1c2.6,2.9,4.3,6.7,4.5,10.9h-1.7c-0.7,0-1.2,0.5-1.2,1.2
			s0.5,1.2,1.2,1.2h1.7C246.7,201.7,245.1,205.5,242.5,208.5L242.5,208.5z M248.3,203c0.7-2.1,1.1-4.3,1.1-6.6c0-2.4-0.4-4.8-1.2-7
			l3.1-1.3c1,2.6,1.5,5.4,1.5,8.3c0,2.7-0.5,5.4-1.3,7.9L248.3,203z M256.9,199.6h-1.7v-4.7h1.7V199.6z"/>
		<path class="st5" d="M228.7,183.6c-0.7,0-1.2,0.5-1.2,1.2v10.4h-4.4c-0.7,0-1.2,0.5-1.2,1.2s0.5,1.2,1.2,1.2h5.6
			c0.7,0,1.2-0.5,1.2-1.2v-11.6C229.9,184.2,229.4,183.6,228.7,183.6z"/>
	</g>
	<g>
		<path class="st2" d="M57.8,215.6L57.8,215.6c-0.4,0-0.8,0.3-0.8,0.8s0.3,0.8,0.8,0.8h0.5c0.1,0.4,0.3,0.9,0.4,1.3
			c0.5,1.3,1.7,2.2,3.1,2.2h0.5l1.5,9.6c0.2,1.1,1.1,2,2.3,2h8.5c1.1,0,2.1-0.8,2.3-2l1.5-9.6h0.5c1.4,0,2.6-0.9,3.1-2.2
			c0.2-0.4,0.3-0.9,0.4-1.3h0.4c0.4,0,0.8-0.3,0.8-0.8c0-0.4-0.3-0.7-0.7-0.8c0.6-2.2,1-4.6,1.1-7h1.7c0.8,0,1.4-0.6,1.4-1.4V205
			c0-0.8-0.6-1.4-1.4-1.4H84c-0.2-2.4-0.5-4.8-1.1-7c0.4,0,0.7-0.4,0.7-0.8s-0.3-0.8-0.8-0.8h-0.4c-0.1-0.4-0.3-0.9-0.4-1.3
			c-0.5-1.3-1.7-2.2-3.1-2.2h-0.5l-1.5-9.6c-0.2-1.1-1.1-2-2.3-2c-1.3,0-7.6,0-8.5,0c-1.1,0-2.1,0.8-2.3,2l-1.5,9.6h-0.5
			c-1.4,0-2.6,0.9-3.1,2.2c-0.2,0.4-0.3,0.9-0.4,1.3h-0.5c-0.4,0-0.8,0.3-0.8,0.8s0.3,0.8,0.8,0.8l0,0c-0.8,3-1.2,6.2-1.2,9.5
			C56.6,209.4,57,212.6,57.8,215.6L57.8,215.6z M84,205.1h1.5v2H84C84,206.3,84,205.7,84,205.1L84,205.1z M66,230.6
			c-0.4,0-0.7-0.3-0.8-0.7l0,0l-1.5-9.4h1.8l0.7,10L66,230.6L66,230.6z M72.8,230.6h-5l-0.7-10h6.3L72.8,230.6z M75.3,230
			c-0.1,0.4-0.4,0.7-0.8,0.7h-0.3l0.7-10h1.8L75.3,230z M67.8,181.5h5l0.2,3.3c0,0.4,0.4,0.7,0.8,0.7s0.7-0.4,0.7-0.8l-0.2-3.2h0.3
			c0.4,0,0.7,0.3,0.8,0.7l1.5,9.4H75l-0.2-3.3c0-0.4-0.4-0.7-0.8-0.7s-0.7,0.4-0.7,0.8l0.2,3.2h-6.3L67.8,181.5z M65.2,182.1
			c0.1-0.4,0.4-0.7,0.8-0.7h0.3l-0.7,10h-1.8L65.2,182.1z M60.1,194.2c0.3-0.7,0.9-1.2,1.7-1.2h17.1c0.7,0,1.4,0.5,1.7,1.2
			c1.4,3.7,2,7.9,2,11.8c0,4-0.6,8.1-2,11.8c-0.3,0.7-0.9,1.2-1.7,1.2c-0.3,0-16.4,0-17.1,0s-1.4-0.5-1.7-1.2c-1.3-3.5-2-7.6-2-11.8
			C58.1,201.8,58.8,197.7,60.1,194.2L60.1,194.2z"/>
		<path class="st2" d="M70.3,198.8c-0.4,0-0.8,0.3-0.8,0.8v4.4c-0.6,0.2-1.1,0.7-1.3,1.3h-2.1c-0.4,0-0.8,0.3-0.8,0.8
			s0.3,0.8,0.8,0.8h2.1c0.3,0.9,1.1,1.5,2.1,1.5c1.2,0,2.2-1,2.2-2.2c0-1-0.6-1.8-1.5-2.1v-4.4C71,199.2,70.7,198.8,70.3,198.8z
			 M70.3,206.8c-0.4,0-0.7-0.3-0.7-0.7s0.3-0.7,0.7-0.7c0.4,0,0.7,0.3,0.7,0.7C71,206.4,70.7,206.8,70.3,206.8z"/>
		<path class="st2" d="M63,217.1h9.5c0.4,0,0.8-0.3,0.8-0.8s-0.3-0.8-0.8-0.8H71v-0.4c0-0.4-0.3-0.8-0.8-0.8c-0.4,0-0.8,0.3-0.8,0.8
			v0.4h-6.5v-8.7h0.4c0.4,0,0.8-0.3,0.8-0.8c0-0.4-0.3-0.8-0.8-0.8h-0.4v-8.7h6.5v0.4c0,0.4,0.3,0.8,0.8,0.8c0.4,0,0.8-0.3,0.8-0.8
			v-0.4h6.5v8.7h-0.4c-0.4,0-0.8,0.3-0.8,0.8c0,0.4,0.3,0.8,0.8,0.8h0.4v8.7H76c-0.4,0-0.8,0.3-0.8,0.8s0.3,0.8,0.8,0.8h1.6
			c0.8,0,1.4-0.6,1.4-1.4v-19.2c0-0.8-0.6-1.4-1.4-1.4H63c-0.8,0-1.4,0.6-1.4,1.4v19.2C61.5,216.4,62.2,217.1,63,217.1L63,217.1z"/>
	</g>
	<g>
		<g>
			<g>
				<path class="st2" d="M395.8,186.4h-12.7c-0.4,0-0.7,0.3-0.7,0.7v2.8c0,0.4,0.3,0.7,0.7,0.7h12.7c0.4,0,0.7-0.3,0.7-0.7v-2.8
					C396.5,186.7,396.2,186.4,395.8,186.4z M395.1,189.2h-11.3v-1.4h11.3V189.2z"/>
			</g>
		</g>
		<g>
			<g>
				<path class="st2" d="M395.8,189.2h-12.7c-0.4,0-0.7,0.3-0.7,0.7v5.6c0,0.4,0.3,0.7,0.7,0.7s0.7-0.3,0.7-0.7v-4.9H395v4.9
					c0,0.4,0.3,0.7,0.7,0.7s0.7-0.3,0.7-0.7v-5.6C396.5,189.5,396.2,189.2,395.8,189.2z"/>
			</g>
		</g>
		<g>
			<g>
				<path class="st2" d="M395.8,183.5h-12.7c-0.4,0-0.7,0.3-0.7,0.7v2.8c0,0.4,0.3,0.7,0.7,0.7h12.7c0.4,0,0.7-0.3,0.7-0.7v-2.8
					C396.5,183.9,396.2,183.5,395.8,183.5z M395.1,186.4h-11.3V185h11.3V186.4z"/>
			</g>
		</g>
		<g>
			<g>
				<path class="st2" d="M395.8,215.9L395.8,215.9c-0.5,0-0.8,0.3-0.8,0.7c0,0.2,0.1,0.3,0.1,0.4v10.1h-11.3v-10.5
					c0-0.4-0.3-0.7-0.7-0.7s-0.7,0.3-0.7,0.7v11.2c0,0.4,0.3,0.7,0.7,0.7h12.7c0.4,0,0.7-0.3,0.7-0.7v-11.3
					C396.5,216.2,396.2,215.9,395.8,215.9z"/>
			</g>
		</g>
		<g>
			<g>
				<path class="st2" d="M389.5,193.4c-7,0-12.7,5.7-12.7,12.7s5.7,12.7,12.7,12.7s12.7-5.7,12.7-12.7S396.5,193.4,389.5,193.4z
					 M389.5,217.3c-6.2,0-11.3-5-11.3-11.3s5-11.3,11.3-11.3c6.2,0,11.3,5,11.3,11.3S395.7,217.3,389.5,217.3z"/>
			</g>
		</g>
		<g>
			<g>
				<path class="st2" d="M402.9,203.2h-1.4c-0.4,0-0.7,0.3-0.7,0.7v4.2c0,0.4,0.3,0.7,0.7,0.7h1.4c0.4,0,0.7-0.3,0.7-0.7v-4.2
					C403.6,203.6,403.2,203.2,402.9,203.2z"/>
			</g>
		</g>
		<g>
			<g>
				<path class="st2" d="M395.4,208.2l-5.2-2.6v-9.4c0-0.4-0.3-0.7-0.7-0.7s-0.7,0.3-0.7,0.7v9.8c0,0.3,0.2,0.5,0.4,0.6l5.6,2.8
					c0.1,0.1,0.2,0.1,0.3,0.1c0.3,0,0.5-0.1,0.6-0.4C395.9,208.8,395.8,208.4,395.4,208.2z"/>
			</g>
		</g>
	</g>
</g>
</svg>
