<?xml version="1.0" encoding="utf-8"?>
<!-- Generator: Adobe Illustrator 24.1.3, SVG Export Plug-In . SVG Version: 6.00 Build 0)  -->
<svg version="1.1" id="Layer_1" xmlns="http://www.w3.org/2000/svg" xmlns:xlink="http://www.w3.org/1999/xlink" x="0px" y="0px"
	 width="462px" height="385.6px" viewBox="0 0 462 385.6" style="enable-background:new 0 0 462 385.6;" xml:space="preserve">
<style type="text/css">
	.st0{fill:#E4E8EA;}
	.st1{fill:none;stroke:#F0F0F2;stroke-width:2.4;stroke-miterlimit:10;}
	.st2{fill:#4B0082;}
	.st3{fill:#7744AD;}
	.st4{fill:none;stroke:#E5E9EA;stroke-width:1.5;stroke-miterlimit:10;}
</style>
<g>
	<path class="st0" d="M123.6,55.9l-3-1.3l1.3-3c0.3-0.7,0-1.6-0.8-2s-1.6,0-2,0.8l-1.3,3l-3-1.3c-0.7-0.3-1.6,0-2,0.8
		c-0.3,0.7,0,1.6,0.8,2l3,1.3l-1.3,3c-0.3,0.7,0,1.6,0.8,2c0.7,0.3,1.6,0,2-0.8l1.3-3l3,1.3c0.8,0.3,1.6,0,2-0.8
		C124.7,57.2,124.3,56.3,123.6,55.9z"/>
	<path class="st0" d="M17.3,206.5l-2-0.9l0.9-2c0.2-0.5,0-1.1-0.5-1.3s-1.1,0-1.3,0.5l-0.9,2l-2.1-0.9c-0.5-0.2-1.1,0-1.3,0.5
		s0,1.1,0.5,1.3l2.1,0.9l-0.9,2c-0.2,0.5,0,1.1,0.5,1.3s1.1,0,1.3-0.5l0.9-2l2,0.9c0.5,0.2,1.1,0,1.3-0.5
		C18.1,207.4,17.8,206.8,17.3,206.5z"/>
	<path class="st0" d="M436.9,238.7l-2-0.9l0.9-2c0.2-0.5,0-1.1-0.5-1.3s-1.1,0-1.3,0.5l-0.9,2l-2.1-0.9c-0.5-0.2-1.1,0-1.3,0.5
		s0,1.1,0.5,1.3l2.1,0.9l-0.9,2c-0.2,0.5,0,1.1,0.5,1.3s1.1,0,1.3-0.5l0.9-2l2,0.9c0.5,0.2,1.1,0,1.3-0.5
		C437.6,239.5,437.4,238.9,436.9,238.7z"/>
	<path class="st0" d="M46.9,290.7l-2-0.9l0.9-2c0.2-0.5,0-1.1-0.5-1.3c-0.5-0.2-1.1,0-1.3,0.5l-0.9,2l-2.1-0.9
		c-0.5-0.2-1.1,0-1.3,0.5s0,1.1,0.5,1.3l2.1,0.9l-0.9,2c-0.2,0.5,0,1.1,0.5,1.3c0.5,0.2,1.1,0,1.3-0.5l0.9-2l2,0.9
		c0.5,0.2,1.1,0,1.3-0.5C47.6,291.5,47.4,290.9,46.9,290.7z"/>
	<path class="st0" d="M413.1,179.5l-2-0.9l0.9-2c0.2-0.5,0-1.1-0.5-1.3s-1.1,0-1.3,0.5l-0.9,2l-2.1-0.9c-0.5-0.2-1.1,0-1.3,0.5
		s0,1.1,0.5,1.3l2.1,0.9l-0.9,2c-0.2,0.5,0,1.1,0.5,1.3s1.1,0,1.3-0.5l0.9-2l2,0.9c0.5,0.2,1.1,0,1.3-0.5
		C413.8,180.4,413.6,179.8,413.1,179.5z"/>
	<path class="st0" d="M337.1,49.3c-3.3,0-6.1,2.7-6.1,6.1s2.7,6.1,6.1,6.1s6.1-2.7,6.1-6.1S340.4,49.3,337.1,49.3z M337.1,58.7
		c-1.9,0-3.4-1.5-3.4-3.4s1.5-3.4,3.4-3.4s3.4,1.5,3.4,3.4S339,58.7,337.1,58.7z"/>
	<path class="st0" d="M39.6,105.4c-3.3,0-6.1,2.7-6.1,6.1s2.7,6.1,6.1,6.1s6.1-2.7,6.1-6.1S43,105.4,39.6,105.4z M39.6,114.8
		c-1.9,0-3.4-1.5-3.4-3.4s1.5-3.4,3.4-3.4s3.4,1.5,3.4,3.4S41.5,114.8,39.6,114.8z"/>
	<path class="st0" d="M415.2,299.1c-2.1,0-3.8,1.7-3.8,3.8c0,2.1,1.7,3.8,3.8,3.8s3.8-1.7,3.8-3.8S417.3,299.1,415.2,299.1z
		 M415.2,304.9c-1.2,0-2.1-0.9-2.1-2.1s0.9-2.1,2.1-2.1s2.1,0.9,2.1,2.1S416.4,304.9,415.2,304.9z"/>
	<g>
		<g>
			<rect x="23.3" y="342.8" class="st0" width="359.2" height="2.7"/>
		</g>
		<g>
			<rect x="413" y="342.8" class="st0" width="49" height="2.7"/>
		</g>
		<g>
			<rect y="342.8" class="st0" width="15.9" height="2.7"/>
		</g>
		<g>
			<rect x="56.9" y="364.5" class="st0" width="15.6" height="2.7"/>
		</g>
		<g>
			<rect x="94.8" y="364.5" class="st0" width="28.2" height="2.7"/>
		</g>
		<g>
			<rect x="322.5" y="364.5" class="st0" width="12.6" height="2.7"/>
		</g>
		<g>
			<rect x="350.2" y="364.5" class="st0" width="54.6" height="2.7"/>
		</g>
		<g>
			<rect x="33.9" y="382.9" class="st0" width="13.8" height="2.7"/>
		</g>
		<g>
			<rect x="411.7" y="382.9" class="st0" width="13.8" height="2.7"/>
		</g>
	</g>
	<path class="st1" d="M272.4,35.9H190c-0.9-4.2-0.9-8.4,1.6-11.9c2.5-3.6,6.6-6,10.9-6.2c4-0.2,8,1.5,12,0.9
		c10.2-1.4,14.7-15.8,24.9-17.4c5.7-0.8,11.4,3.1,13.9,8.4c1.1,2.3,1.7,4.9,3.5,6.6c2,1.8,4.9,2.2,7.4,3.2
		C270.5,22,273.5,29.2,272.4,35.9z"/>
	<path class="st1" d="M436.5,111.5H382c-1.8-3.7-1.8-8.1,0.6-11.5s6.7-5.3,10.9-4.8c3.3,0.4,6.9,2.1,9.7,0.2
		c2.9-1.9,2.5-6.4,4.6-9.2c2-2.8,6.1-3.4,9.3-2.1s5.4,4.2,6.9,7.3c0.9,1.9,1.8,4.1,3.7,5c1.7,0.7,3.6,0.1,5.4,0.5
		c2.7,0.5,4.8,3,5.5,5.7S436.8,108.7,436.5,111.5z"/>
	<g>
		<path class="st2" d="M321.8,331.1H140.2c-1.6,0-2.9-1.4-2.9-2.9V156.5c0-1.6,1.4-2.9,2.9-2.9h181.6c1.6,0,2.9,1.4,2.9,2.9V328
			C324.8,329.7,323.4,331.1,321.8,331.1z"/>
		<g>
			<g>
				<path class="st3" d="M281.6,299.5l-6.9-86.4c-0.1-0.7-0.6-1.2-1.3-1.2h-84.8c-0.7,0-1.3,0.5-1.3,1.2l-6.9,86.4
					c-0.1,0.9,0.2,1.7,0.8,2.4s1.4,1,2.3,1h95.1c0.9,0,1.7-0.4,2.3-1C281.4,301.2,281.7,300.4,281.6,299.5z M278.9,300.1
					c-0.1,0.1-0.2,0.1-0.3,0.1h-95.1c-0.2,0-0.3-0.1-0.3-0.1c0-0.1-0.1-0.2-0.1-0.3l6.8-85.2l0,0h82.3l6.8,85.2
					C279,299.9,278.9,300.1,278.9,300.1z"/>
			</g>
			<g>
				<path class="st3" d="M273.4,214.5h-84.8c-0.6,0-1.1-0.4-1.3-0.9c-0.2-0.6,0-1.1,0.5-1.5l18.1-13.2l-11.1-9.5
					c-0.4-0.4-0.6-1-0.4-1.5s0.7-0.9,1.2-0.9h70.7c0.6,0,1.1,0.3,1.2,0.9c0.2,0.5,0.1,1.1-0.4,1.5l-11.1,9.5l18.1,13.2
					c0.5,0.3,0.7,0.9,0.5,1.5S274,214.5,273.4,214.5z M192.7,211.9h76.7l-16.1-11.7c-0.3-0.2-0.5-0.6-0.6-1c0-0.4,0.2-0.8,0.5-1.1
					l9.6-8.3h-63.5l9.6,8.3c0.3,0.3,0.5,0.7,0.4,1.1s-0.2,0.8-0.6,1L192.7,211.9z"/>
			</g>
			<g>
				<path class="st3" d="M195.7,209.4c-0.2,0-0.4-0.1-0.6-0.1c-0.4-0.2-0.7-0.7-0.7-1.2v-19.6c0-0.5,0.3-1,0.8-1.2s1-0.1,1.4,0.2
					l12.4,10.6c0.3,0.3,0.5,0.7,0.4,1.1s-0.2,0.8-0.6,1l-12.4,9C196.2,209.3,195.9,209.4,195.7,209.4z M197,191.3v14.1l8.9-6.5
					L197,191.3z"/>
			</g>
			<g>
				<path class="st3" d="M266.3,209.4c-0.3,0-0.6-0.1-0.8-0.3l-12.4-9c-0.3-0.2-0.5-0.6-0.6-1c0-0.4,0.2-0.8,0.5-1.1l12.4-10.6
					c0.4-0.3,1-0.4,1.4-0.2c0.5,0.2,0.8,0.7,0.8,1.2V208c0,0.5-0.3,1-0.7,1.2C266.7,209.3,266.5,209.4,266.3,209.4z M256.1,199
					l8.9,6.5v-14.1L256.1,199z"/>
			</g>
			<g>
				<path class="st3" d="M208,214.5L208,214.5h-19.4c-0.6,0-1.1-0.4-1.3-0.9c-0.2-0.6,0-1.1,0.5-1.5l19.4-14.1
					c0.4-0.3,0.9-0.3,1.4-0.1c0.4,0.2,0.7,0.7,0.7,1.2v14.1c0,0.3-0.1,0.7-0.4,1C208.7,214.4,208.4,214.5,208,214.5z M192.7,211.9
					h14v-10.2L192.7,211.9z"/>
			</g>
			<g>
				<path class="st3" d="M273.4,214.5H254c-0.7,0-1.3-0.6-1.3-1.3v-14.1c0-0.5,0.3-1,0.7-1.2s1-0.2,1.4,0.1l19.4,14.1
					c0.5,0.3,0.7,0.9,0.5,1.5C274.5,214.1,274,214.5,273.4,214.5z M255.3,211.9h14l-14-10.2L255.3,211.9L255.3,211.9z"/>
			</g>
			<path class="st3" d="M252.2,238.4c-4.1,0-7.5-3.4-7.5-7.5s3.4-7.5,7.5-7.5c4.1,0,7.5,3.4,7.5,7.5S256.3,238.4,252.2,238.4z
				 M252.2,226c-2.7,0-4.9,2.2-4.9,4.9s2.2,4.9,4.9,4.9s4.9-2.2,4.9-4.9S254.9,226,252.2,226z"/>
			<path class="st3" d="M209.8,238.4c-4.1,0-7.5-3.4-7.5-7.5s3.4-7.5,7.5-7.5s7.5,3.4,7.5,7.5S213.9,238.4,209.8,238.4z M209.8,226
				c-2.7,0-4.9,2.2-4.9,4.9s2.2,4.9,4.9,4.9s4.9-2.2,4.9-4.9S212.5,226,209.8,226z"/>
			<path class="st3" d="M231,264c-12.4,0-22.5-10.1-22.5-22.5v-5.3c0-0.7,0.6-1.3,1.3-1.3s1.3,0.6,1.3,1.3v5.3
				c0,11,8.9,19.9,19.9,19.9s19.9-8.9,19.9-19.9v-5.3c0-0.7,0.6-1.3,1.3-1.3s1.3,0.6,1.3,1.3v5.3C253.5,253.9,243.4,264,231,264z"/>
			<path class="st3" d="M287.5,280.8c-0.7,0-1.3-0.5-1.3-1.2l-3-37.5c-0.1-0.7,0.5-1.4,1.2-1.4c0.7-0.1,1.4,0.5,1.4,1.2l3,37.5
				c0.1,0.7-0.5,1.4-1.2,1.4C287.6,280.8,287.6,280.8,287.5,280.8z"/>
			<path class="st3" d="M283.9,235.7c-0.7,0-1.3-0.5-1.3-1.2l-0.5-5.9c-0.1-0.7,0.5-1.4,1.2-1.4c0.7-0.1,1.4,0.5,1.4,1.2l0.5,5.9
				c0.1,0.7-0.5,1.4-1.2,1.4C284,235.7,284,235.7,283.9,235.7z"/>
			<path class="st3" d="M177.1,248H177c-0.7-0.1-1.3-0.7-1.2-1.4l0.5-5.8c0.1-0.7,0.7-1.3,1.4-1.2s1.3,0.7,1.2,1.4l-0.5,5.8
				C178.3,247.5,177.8,248,177.1,248z"/>
			<path class="st3" d="M174.5,280.8h-0.1c-0.7-0.1-1.3-0.7-1.2-1.4l2-25.6c0.1-0.7,0.7-1.2,1.4-1.2c0.7,0.1,1.3,0.7,1.2,1.4
				l-2.1,25.6C175.7,280.3,175.1,280.8,174.5,280.8z"/>
		</g>
		<g>
			<path class="st4" d="M329.5,344H132.4c-4.1,0-7.5-3.3-7.5-7.5V148.1c0-4.1,3.3-7.5,7.5-7.5h197.2c4.1,0,7.5,3.3,7.5,7.5v188.4
				C337,340.7,333.7,344,329.5,344z"/>
		</g>
	</g>
</g>
</svg>
