<?xml version="1.0" encoding="utf-8"?>
<!-- Generator: Adobe Illustrator 24.1.3, SVG Export Plug-In . SVG Version: 6.00 Build 0)  -->
<svg version="1.1" id="Layer_1" xmlns="http://www.w3.org/2000/svg" xmlns:xlink="http://www.w3.org/1999/xlink" x="0px" y="0px"
	 width="466.3px" height="389.6px" viewBox="0 0 466.3 389.6" style="enable-background:new 0 0 466.3 389.6;" xml:space="preserve"
	>
<style type="text/css">
	.st0{fill:#FFFFFF;}
	.st1{fill:none;stroke:#E5E9EA;stroke-width:1.5;stroke-miterlimit:10;}
	.st2{fill:#E4E8EA;}
	.st3{fill:#4B0082;}
	.st4{fill:#7744AD;}
	.st5{fill:none;stroke:#F0F0F2;stroke-width:2.4;stroke-miterlimit:10;}
</style>
<g>
	<g>
		<g>
			<path class="st0" d="M401.4,306.4H298.3c-2.1,0-3.9-1.7-3.9-3.9v-130c0-2.1,1.7-3.9,3.9-3.9h103.2c2.1,0,3.9,1.7,3.9,3.9v130
				C405.3,304.7,403.6,306.4,401.4,306.4z"/>
			<path class="st1" d="M401.4,306.4H298.3c-2.1,0-3.9-1.7-3.9-3.9v-130c0-2.1,1.7-3.9,3.9-3.9h103.2c2.1,0,3.9,1.7,3.9,3.9v130
				C405.3,304.7,403.6,306.4,401.4,306.4z"/>
		</g>
		<path class="st2" d="M397.4,267.8h-95c-0.8,0-1.5-0.7-1.5-1.5v-89.8c0-0.8,0.7-1.5,1.5-1.5h95c0.8,0,1.5,0.7,1.5,1.5v89.7
			C398.9,267.1,398.2,267.8,397.4,267.8z"/>
		<g>
			<rect x="300.8" y="274.3" class="st2" width="83.6" height="3.9"/>
		</g>
		<g>
			<rect x="300.8" y="282.6" class="st2" width="50.1" height="3.9"/>
		</g>
		<g>
			<rect x="356" y="282.6" class="st2" width="28.1" height="3.9"/>
		</g>
		<g>
			<rect x="300.6" y="291.3" class="st2" width="12.9" height="6.4"/>
		</g>
		<g>
			<rect x="318" y="291.3" class="st2" width="12.9" height="6.4"/>
		</g>
	</g>
	<path class="st0" d="M365.8,241.2l-8.3-22.5v-3.2c0-1.9,0.3-3,0.7-4.3c0.4-1.4,0.9-3,0.9-5.8c0-2.9-2.5-9.3-2.6-9.5
		c-0.1-0.3-0.4-0.5-0.8-0.5h-2.5c-0.4,0-0.8,0.3-0.8,0.7l-0.2,2c-0.3,3-1.1,5.9-2.3,8.7c-1.2-2.8-2-5.7-2.3-8.7l-0.2-2
		c0-0.4-0.4-0.7-0.8-0.7h-2.5c-0.3,0-0.7,0.2-0.8,0.5s-2.6,6.6-2.6,9.5c0,2.8,0.5,4.4,0.9,5.8c0.4,1.3,0.7,2.4,0.7,4.3v3.2
		l-8.3,22.5c-0.1,0.4,0,0.8,0.4,1c0.3,0.1,7,3.4,15.5,3.4s15.2-3.3,15.5-3.4C365.7,242,365.9,241.6,365.8,241.2z M344.6,197h1.2
		l0.1,1.2c0.4,3.8,1.5,7.5,3.2,10.9c0.2,0.4,0.7,0.6,1.1,0.4c0.2-0.1,0.3-0.2,0.4-0.4c1.7-3.4,2.8-7.1,3.2-10.9l0.1-1.2h1.2
		c0.2,0.6,0.6,1.7,1,3c0.8,2.5,1.2,4.3,1.2,5.4c0,2.5-0.4,3.9-0.9,5.3c-0.3,1.1-0.7,2.3-0.8,3.9h-11.8c-0.1-1.7-0.4-2.8-0.8-3.9
		c-0.4-1.4-0.9-2.8-0.9-5.3C342.3,203.3,344,198.6,344.6,197z M344,218v-1.7h11.7v1.7H344z M349.9,244c-6.6,0-12.1-2.1-14-3
		l7.9-21.3h1.7l-2.3,10.7l1.6,0.4l2.4-11.1h1.8v6.7h1.7v-6.7h1.8l2.4,11.1l1.6-0.4l-2.3-10.7h1.7l7.9,21.3
		C362,241.8,356.4,244,349.9,244z"/>
	<g>
		<g>
			<path class="st0" d="M179,306.4H75.9c-2.1,0-3.9-1.7-3.9-3.9v-130c0-2.1,1.7-3.9,3.9-3.9h103.2c2.1,0,3.9,1.7,3.9,3.9v130
				C183,304.7,181.2,306.4,179,306.4z"/>
			<path class="st1" d="M179,306.4H75.9c-2.1,0-3.9-1.7-3.9-3.9v-130c0-2.1,1.7-3.9,3.9-3.9h103.2c2.1,0,3.9,1.7,3.9,3.9v130
				C183,304.7,181.2,306.4,179,306.4z"/>
		</g>
		<path class="st2" d="M175,267.8H80c-0.8,0-1.5-0.7-1.5-1.5v-89.8c0-0.8,0.7-1.5,1.5-1.5h95c0.8,0,1.5,0.7,1.5,1.5v89.7
			C176.5,267.1,175.8,267.8,175,267.8z"/>
		<g>
			<rect x="78.4" y="274.3" class="st2" width="83.6" height="3.9"/>
		</g>
		<g>
			<rect x="78.4" y="282.6" class="st2" width="50.1" height="3.9"/>
		</g>
		<g>
			<rect x="78.2" y="291.3" class="st2" width="22.9" height="6.4"/>
		</g>
	</g>
	<g>
		<g>
			<g>
				<g>
					<path class="st0" d="M321,347.8H156c-3.4,0-6.3-2.8-6.3-6.3V133.4c0-3.4,2.8-6.3,6.3-6.3h165.1c3.4,0,6.3,2.8,6.3,6.3v208.1
						C327.3,345,324.5,347.8,321,347.8z"/>
					<path class="st1" d="M321,347.8H156c-3.4,0-6.3-2.8-6.3-6.3V133.4c0-3.4,2.8-6.3,6.3-6.3h165.1c3.4,0,6.3,2.8,6.3,6.3v208.1
						C327.3,345,324.5,347.8,321,347.8z"/>
				</g>
				<path class="st3" d="M314.5,286h-152c-1.3,0-2.5-1.1-2.5-2.5V139.9c0-1.3,1.1-2.5,2.5-2.5h152c1.3,0,2.5,1.1,2.5,2.5v143.6
					C317,284.9,315.9,286,314.5,286z"/>
				<g>
					<rect x="160.1" y="296.3" class="st2" width="156.7" height="6.2"/>
				</g>
				<g>
					<rect x="160.1" y="309.7" class="st2" width="80.2" height="6.2"/>
				</g>
				<g>
					<rect x="245.1" y="309.7" class="st2" width="48.2" height="6.2"/>
				</g>
				<g>
					<rect x="159.8" y="323.6" class="st2" width="40.6" height="10.3"/>
				</g>
			</g>
			<g id="outline">
				<path class="st4" d="M271.7,236.4L258.4,215c-2.8-4.4-5.9-8.6-9.3-12.7l-2.7-3.1v-3.5c0-3.7,1.7-7.3,4.7-9.6l5.2-2.6
					c0.6-0.3,0.9-1.1,0.6-1.7c0-0.1-0.1-0.2-0.1-0.2l-5.3-6.7l0,0c-0.1-0.1-0.3-0.3-0.4-0.4l-5.3-2.7c-0.4-0.2-0.9-0.2-1.3,0.1
					c-1.7,1-3.8,1.6-6,1.6c-2.1,0-4.2-0.6-6-1.6l0,0c-0.4-0.2-0.8-0.2-1.2,0l-5.3,2.7c-0.2,0.1-0.3,0.2-0.4,0.4l0,0l-5.3,6.7
					c-0.4,0.6-0.4,1.4,0.2,1.9c0.1,0.1,0.1,0.1,0.2,0.1l5.2,2.6c3,2.3,4.7,5.8,4.7,9.6v3.5l-2.7,3.1c-3.4,3.9-6.5,8.1-9.3,12.7
					l-13.3,21.4c-0.3,0.4-0.3,1,0,1.4c1.1,1.7,2.8,3.1,4.7,4l-0.7,1.2l0,0c0,0.1-0.1,0.1-0.1,0.2c-0.3,0.7,0.1,1.4,0.7,1.7l1.5,0.6
					c2.8,1.1,5.8,1.5,8.7,1.2l-0.4,2c-0.2,0.7,0.3,1.4,1,1.6c0,0,0,0,0.1,0l3,0.5c3.4,0.5,6.8,0.8,10.2,0.8h8.6
					c3.4,0,6.8-0.3,10.2-0.8l3-0.5c0.7-0.1,1.2-0.8,1.1-1.5c0,0,0,0,0-0.1l-0.4-2c3,0.3,6-0.1,8.7-1.2l1.5-0.6c0.7-0.3,1-1,0.7-1.7
					c0-0.1-0.1-0.1-0.1-0.2l0,0l-0.7-1.2c2-0.8,3.5-2.3,4.7-4C272,237.4,272,236.8,271.7,236.4z M251.9,182.9v-3.4l2,2.4
					L251.9,182.9z M243.8,175.3c-0.5,2.9-3.2,4.9-6.1,4.4c-2.3-0.4-4-2.2-4.4-4.4c1.6,0.6,3.5,1,5.2,1
					C240.4,176.3,242.1,175.9,243.8,175.3z M225.2,179.6v3.4l-2-0.9L225.2,179.6z M227.8,184.4v-7.8l2.7-1.3
					c0.4,4.4,4.3,7.6,8.7,7.2c3.8-0.4,6.8-3.4,7.2-7.2l2.7,1.3v7.8c-3,2.5-4.9,6.1-5.2,10c-2.2,0.2-4.1,1.3-5.3,3.2
					c-1.2-1.7-3.2-3-5.3-3.2C232.8,190.5,230.9,186.9,227.8,184.4z M240.2,200.2c0.6-1.5,2.1-2.8,3.7-3v2.1
					C242.9,200,241.5,200.4,240.2,200.2z M233.2,199.1V197c1.6,0.3,3.1,1.4,3.7,3C235.6,200.4,234.2,200,233.2,199.1z M212.6,243.2
					h-0.1l8.5-14.7l-2.3-1.3l-7.2,12.4c-1.3-0.5-2.5-1.4-3.3-2.5l12.8-20.7c2.7-4.3,5.7-8.4,8.9-12.2l2.2-2.5
					c0.4,0.2,0.7,0.4,1.1,0.6l-3.7,9.7c-2,5-3.5,10.1-4.6,15.3l-3.8,16.9C218.2,244.5,215.3,244.2,212.6,243.2z M224.4,248.3
					l-1.6-0.3l4.6-20.2c1.1-5.1,2.7-10.1,4.5-15l3.8-9.9h-0.1c0.2,0,0.3,0,0.5,0c0.3,0,0.7,0,1-0.1v46.3h-3
					C230.9,249,227.7,248.8,224.4,248.3L224.4,248.3z M252.6,248.3c-3.2,0.5-6.5,0.8-9.7,0.8h-3v-46.3c0.3,0,0.7,0.1,1,0.1
					c0.2,0,0.3,0,0.5,0h-0.1l3.8,9.9c1.9,4.8,3.4,9.9,4.5,15l4.6,20.2L252.6,248.3z M267.6,238.3c-0.6,0.5-1.3,0.9-2.1,1.2
					l-7.2-12.4l-2.3,1.3l8.5,14.7h0.1c-2.7,1-5.6,1.3-8.4,0.9l-3.8-16.9c-1.2-5.2-2.8-10.4-4.6-15.3l-3.7-9.7
					c0.4-0.2,0.8-0.4,1.1-0.6l2.2,2.5c3.3,3.8,6.3,7.9,8.9,12.2l12.8,20.7C268.6,237.5,268.1,237.9,267.6,238.3L267.6,238.3z"/>
			</g>
		</g>
	</g>
	<path class="st2" d="M139.2,65.8l-3-1.3l1.3-3c0.3-0.7,0-1.6-0.8-2s-1.6,0-2,0.8l-1.3,3l-3-1.3c-0.7-0.3-1.6,0-2,0.8
		c-0.3,0.7,0,1.6,0.8,2l3,1.3l-1.3,3c-0.3,0.7,0,1.6,0.8,2c0.7,0.3,1.6,0,2-0.8l1.3-3l3,1.3c0.8,0.3,1.6,0,2-0.8
		C140.3,67.1,139.9,66.2,139.2,65.8z"/>
	<path class="st2" d="M7.3,213.9l-2-0.9l0.9-2c0.2-0.5,0-1.1-0.5-1.3s-1.1,0-1.3,0.5l-0.9,2l-2.1-0.9c-0.5-0.2-1.1,0-1.3,0.5
		s0,1.1,0.5,1.3l2.1,0.9l-0.9,2c-0.2,0.5,0,1.1,0.5,1.3s1.1,0,1.3-0.5l0.9-2l2,0.9c0.5,0.2,1.1,0,1.3-0.5
		C8.1,214.8,7.8,214.2,7.3,213.9z"/>
	<path class="st2" d="M465.7,255.1l-2-0.9l0.9-2c0.2-0.5,0-1.1-0.5-1.3s-1.1,0-1.3,0.5l-0.9,2l-2.1-0.9c-0.5-0.2-1.1,0-1.3,0.5
		s0,1.1,0.5,1.3l2.1,0.9l-0.9,2c-0.2,0.5,0,1.1,0.5,1.3c0.5,0.2,1.1,0,1.3-0.5l0.9-2l2,0.9c0.5,0.2,1.1,0,1.3-0.5
		S466.2,255.3,465.7,255.1z"/>
	<path class="st2" d="M360.6,33.2c-3.3,0-6.1,2.7-6.1,6.1s2.7,6.1,6.1,6.1s6.1-2.7,6.1-6.1S363.9,33.2,360.6,33.2z M360.6,42.6
		c-1.9,0-3.4-1.5-3.4-3.4s1.5-3.4,3.4-3.4s3.4,1.5,3.4,3.4S362.5,42.6,360.6,42.6z"/>
	<path class="st2" d="M45,75.5c-3.3,0-6.1,2.7-6.1,6.1s2.7,6.1,6.1,6.1s6.1-2.7,6.1-6.1S48.4,75.5,45,75.5z M45,84.9
		c-1.9,0-3.4-1.5-3.4-3.4s1.5-3.4,3.4-3.4s3.4,1.5,3.4,3.4S46.9,84.9,45,84.9z"/>
	<path class="st2" d="M313.5,81.1c-2.1,0-3.8,1.7-3.8,3.8s1.7,3.8,3.8,3.8s3.8-1.7,3.8-3.8C317.3,82.7,315.6,81.1,313.5,81.1z
		 M313.5,86.9c-1.2,0-2.1-0.9-2.1-2.1s0.9-2.1,2.1-2.1s2.1,0.9,2.1,2.1S314.7,86.9,313.5,86.9z"/>
	<path class="st2" d="M12.2,143c-2.1,0-3.8,1.7-3.8,3.8s1.7,3.8,3.8,3.8s3.8-1.7,3.8-3.8S14.3,143,12.2,143z M12.2,148.9
		c-1.2,0-2.1-0.9-2.1-2.1s0.9-2.1,2.1-2.1s2.1,0.9,2.1,2.1S13.4,148.9,12.2,148.9z"/>
	<g>
		<g>
			<rect x="27.6" y="346.8" class="st2" width="359.2" height="2.7"/>
		</g>
		<g>
			<rect x="417.3" y="346.8" class="st2" width="49" height="2.7"/>
		</g>
		<g>
			<rect x="4.3" y="346.8" class="st2" width="15.9" height="2.7"/>
		</g>
		<g>
			<rect x="61.2" y="368.5" class="st2" width="15.6" height="2.7"/>
		</g>
		<g>
			<rect x="99.1" y="368.5" class="st2" width="28.2" height="2.7"/>
		</g>
		<g>
			<rect x="326.8" y="368.5" class="st2" width="12.6" height="2.7"/>
		</g>
		<g>
			<rect x="354.5" y="368.5" class="st2" width="54.6" height="2.7"/>
		</g>
		<g>
			<rect x="38.2" y="386.9" class="st2" width="13.8" height="2.7"/>
		</g>
		<g>
			<rect x="416" y="386.9" class="st2" width="13.8" height="2.7"/>
		</g>
	</g>
	<path class="st5" d="M283.1,35.9h-82.4c-0.9-4.2-0.9-8.4,1.6-11.9c2.5-3.6,6.6-6,10.9-6.2c4-0.2,8,1.5,12,0.9
		c10.2-1.4,14.7-15.8,24.9-17.4c5.7-0.8,11.4,3.1,13.9,8.4c1.1,2.3,1.7,4.9,3.5,6.6c2,1.8,4.9,2.2,7.4,3.2
		C281.2,22,284.2,29.2,283.1,35.9z"/>
	<path class="st5" d="M456.6,128.2h-54.5c-1.8-3.7-1.8-8.1,0.6-11.5s6.7-5.3,10.9-4.8c3.3,0.4,6.9,2.1,9.7,0.2
		c2.9-1.9,2.5-6.4,4.6-9.2c2-2.8,6.1-3.4,9.3-2.1c3.2,1.3,5.4,4.2,6.9,7.3c0.9,1.9,1.8,4.1,3.7,5c1.7,0.7,3.6,0.1,5.4,0.5
		c2.7,0.5,4.8,3,5.5,5.7S456.9,125.4,456.6,128.2z"/>
	<g>
		<g>
			<path class="st0" d="M148.9,242.2c-0.1-0.4-2.8-14.3-14.3-25l1.8-3.6c0.8-1.5,1.4-3.1,1.8-4.7c0.5-1.6,0.8-3.3,1-5v-0.1v-4.5
				c0-1.6-1.3-2.9-2.9-2.9s-2.9,1.3-2.9,2.9v1.8c-0.9,0.3-2.1,0.8-3.4,1.6c-0.9,0.5-1.7,1.1-2.5,1.8c-0.8-0.7-1.6-1.3-2.5-1.8
				c-1.2-0.7-2.4-1.2-3.3-1.5v-1.8c0-1.6-1.3-2.9-2.9-2.9s-2.9,1.3-2.9,2.9v4.5v0.1c0.3,3.4,1.3,6.7,2.8,9.7l1.8,3.6
				c-11.5,10.6-14.2,24.2-14.3,24.7c0,0.2,0,0.3,0,0.5c0,2.2,1.8,3.9,3.9,3.9c1.2,0,2.2-0.5,2.9-1.3c0.7,0.8,1.8,1.3,2.9,1.3
				s2.2-0.5,2.9-1.3c0.7,0.8,1.8,1.3,2.9,1.3c1.2,0,2.2-0.5,2.9-1.3c0.7,0.8,1.8,1.3,2.9,1.3s2.2-0.5,2.9-1.3
				c0.7,0.8,1.8,1.3,2.9,1.3s2.2-0.5,2.9-1.3c0.7,0.8,1.8,1.3,2.9,1.3s2.2-0.5,2.9-1.3c0.7,0.8,1.8,1.3,2.9,1.3
				c2.2,0,3.9-1.8,3.9-3.9C149,242.4,148.9,242.3,148.9,242.2z M120.3,212.6c-1.4-2.8-2.2-5.7-2.6-8.8v-4.4c0-0.5,0.4-1,1-1
				c0.5,0,1,0.4,1,1v2.5c0,0.4,0.3,0.8,0.7,0.9h0.1c0.9,0.3,2.2,0.7,3.5,1.6c1,0.6,1.9,1.3,2.8,2.2c0.4,0.4,1,0.4,1.3,0
				c0.9-0.8,1.8-1.6,2.8-2.2c1.4-0.8,2.7-1.3,3.5-1.6h0.1c0.4-0.1,0.7-0.5,0.7-0.9v-2.5c0-0.5,0.4-1,1-1c0.5,0,1,0.4,1,1v4.4
				c-0.2,1.5-0.5,3.1-0.9,4.6s-1,2.9-1.7,4.3h-14.3L120.3,212.6L120.3,212.6z M133.7,214.5l-0.9,2c-1.2,0-9.2,0-10.6,0l-1-2H133.7z
				 M145,244.4c-1.1,0-2-0.9-2-2c0-0.5-0.4-1-1-1s-1,0.4-1,1c0,1.1-0.9,2-2,2s-2-0.9-2-2c0-0.5-0.4-1-1-1c-0.5,0-1,0.4-1,1
				c0,1.1-0.9,2-2,2s-2-0.9-2-2c0-0.5-0.4-1-1-1s-1,0.4-1,1c0,1.1-0.9,2-2,2c-1.1,0-2-0.9-2-2c0-0.5-0.4-1-1-1c-0.5,0-1,0.4-1,1
				c0,1.1-0.9,2-2,2s-2-0.9-2-2c0-0.5-0.4-1-1-1s-1,0.4-1,1c0,1.1-0.9,2-2,2s-2-0.9-2-2c0-0.5-0.4-1-1-1c-0.5,0-1,0.4-1,1
				c0,1.1-0.9,2-2,2s-2-0.9-2-2v-0.2c0.1-0.1,2.7-13.6,14-23.8h0.9c-1.5,2.9-2.8,6.1-3.8,9.6c-0.2,0.5,0.1,1.1,0.7,1.2
				c0.5,0.2,1.1-0.1,1.2-0.7c1.1-3.8,2.5-7.2,4.2-10.2h1.4v6.8c0,0.5,0.4,1,1,1c0.5,0,1-0.4,1-1v-6.8h1.5c1.6,3,3,6.4,4.1,10.1
				c0.2,0.5,0.7,0.8,1.2,0.7c0.5-0.2,0.8-0.7,0.7-1.2c-1.1-3.5-2.3-6.7-3.8-9.6h0.9c11.2,10.2,13.8,23.8,14,24.1
				C146.9,243.6,146.1,244.4,145,244.4z"/>
		</g>
	</g>
</g>
</svg>
