<?xml version="1.0" encoding="utf-8"?>
<!-- Generator: Adobe Illustrator 24.1.3, SVG Export Plug-In . SVG Version: 6.00 Build 0)  -->
<svg version="1.1" id="Layer_1" xmlns="http://www.w3.org/2000/svg" xmlns:xlink="http://www.w3.org/1999/xlink" x="0px" y="0px"
	 width="462px" height="372.2px" viewBox="0 0 462 372.2" style="enable-background:new 0 0 462 372.2;" xml:space="preserve">
<style type="text/css">
	.st0{fill:#E4E8EA;}
	.st1{fill:none;stroke:#F0F0F2;stroke-width:2.4;stroke-miterlimit:10;}
	.st2{fill:#FFFFFF;}
	.st3{fill:none;stroke:#E5E9EA;stroke-width:1.5;stroke-miterlimit:10;}
	.st4{fill:none;stroke:#7744AD;stroke-width:1.5;stroke-miterlimit:10;}
</style>
<g>
	<path class="st0" d="M156,64.7l-3-1.3l1.3-3c0.3-0.7,0-1.6-0.8-2s-1.6,0-2,0.8l-1.3,3l-3-1.3c-0.7-0.3-1.6,0-2,0.8
		c-0.3,0.7,0,1.6,0.8,2l3,1.3l-1.3,3c-0.3,0.7,0,1.6,0.8,2c0.7,0.3,1.6,0,2-0.8l1.3-3l3,1.3c0.8,0.3,1.6,0,2-0.8
		C157.1,66,156.7,65.1,156,64.7z"/>
	<path class="st0" d="M16.7,196.4l-2-0.9l0.9-2c0.2-0.5,0-1.1-0.5-1.3s-1.1,0-1.3,0.5l-0.9,2l-2.1-0.9c-0.5-0.2-1.1,0-1.3,0.5
		s0,1.1,0.5,1.3l2.1,0.9l-0.9,2c-0.2,0.5,0,1.1,0.5,1.3s1.1,0,1.3-0.5l0.9-2l2,0.9c0.5,0.2,1.1,0,1.3-0.5
		C17.5,197.3,17.2,196.7,16.7,196.4z"/>
	<path class="st0" d="M435.2,214.7l-2-0.9l0.9-2c0.2-0.5,0-1.1-0.5-1.3s-1.1,0-1.3,0.5l-0.9,2l-2.1-0.9c-0.5-0.2-1.1,0-1.3,0.5
		s0,1.1,0.5,1.3l2.1,0.9l-0.9,2c-0.2,0.5,0,1.1,0.5,1.3s1.1,0,1.3-0.5l0.9-2l2,0.9c0.5,0.2,1.1,0,1.3-0.5S435.7,214.9,435.2,214.7z"
		/>
	<path class="st0" d="M50.2,277.3l-2-0.9l0.9-2c0.2-0.5,0-1.1-0.5-1.3c-0.5-0.2-1.1,0-1.3,0.5l-0.9,2l-2.1-0.9
		c-0.5-0.2-1.1,0-1.3,0.5s0,1.1,0.5,1.3l2.1,0.9l-0.9,2c-0.2,0.5,0,1.1,0.5,1.3c0.5,0.2,1.1,0,1.3-0.5l0.9-2l2,0.9
		c0.5,0.2,1.1,0,1.3-0.5C50.9,278.1,50.7,277.5,50.2,277.3z"/>
	<path class="st0" d="M435.2,129.8l-2-0.9l0.9-2c0.2-0.5,0-1.1-0.5-1.3c-0.5-0.2-1.1,0-1.3,0.5l-0.9,2l-2.1-0.9
		c-0.5-0.2-1.1,0-1.3,0.5c-0.2,0.5,0,1.1,0.5,1.3l2.1,0.9l-0.9,2c-0.2,0.5,0,1.1,0.5,1.3s1.1,0,1.3-0.5l0.9-2l2,0.9
		c0.5,0.2,1.1,0,1.3-0.5C435.9,130.7,435.7,130.1,435.2,129.8z"/>
	<path class="st0" d="M377.5,70.1c-3.3,0-6.1,2.7-6.1,6.1s2.7,6.1,6.1,6.1s6.1-2.7,6.1-6.1C383.6,72.8,380.7,70.1,377.5,70.1z
		 M377.5,79.5c-1.9,0-3.4-1.5-3.4-3.4s1.5-3.4,3.4-3.4s3.4,1.5,3.4,3.4S379.4,79.5,377.5,79.5z"/>
	<path class="st0" d="M72.5,52c-3.3,0-6.1,2.7-6.1,6.1c0,3.4,2.7,6.1,6.1,6.1s6.1-2.7,6.1-6.1S75.9,52,72.5,52z M72.5,61.4
		c-1.9,0-3.4-1.5-3.4-3.4s1.5-3.4,3.4-3.4s3.4,1.5,3.4,3.4S74.4,61.4,72.5,61.4z"/>
	<path class="st0" d="M327.9,34.5c-2.1,0-3.8,1.7-3.8,3.8s1.7,3.8,3.8,3.8s3.8-1.7,3.8-3.8C331.7,36.1,330,34.5,327.9,34.5z
		 M327.9,40.3c-1.2,0-2.1-0.9-2.1-2.1c0-1.2,0.9-2.1,2.1-2.1s2.1,0.9,2.1,2.1S329.1,40.3,327.9,40.3z"/>
	<path class="st0" d="M47.7,121.8c-2.1,0-3.8,1.7-3.8,3.8s1.7,3.8,3.8,3.8s3.8-1.7,3.8-3.8S49.8,121.8,47.7,121.8z M47.7,127.7
		c-1.2,0-2.1-0.9-2.1-2.1s0.9-2.1,2.1-2.1s2.1,0.9,2.1,2.1S48.9,127.7,47.7,127.7z"/>
	<path class="st0" d="M418.5,285.7c-2.1,0-3.8,1.7-3.8,3.8c0,2.1,1.7,3.8,3.8,3.8s3.8-1.7,3.8-3.8S420.6,285.7,418.5,285.7z
		 M418.5,291.5c-1.2,0-2.1-0.9-2.1-2.1s0.9-2.1,2.1-2.1s2.1,0.9,2.1,2.1S419.7,291.5,418.5,291.5z"/>
	<g>
		<g>
			<rect x="23.3" y="329.4" class="st0" width="359.2" height="2.7"/>
		</g>
		<g>
			<rect x="413" y="329.4" class="st0" width="49" height="2.7"/>
		</g>
		<g>
			<rect y="329.4" class="st0" width="15.9" height="2.7"/>
		</g>
		<g>
			<rect x="56.9" y="351.1" class="st0" width="15.6" height="2.7"/>
		</g>
		<g>
			<rect x="94.8" y="351.1" class="st0" width="28.2" height="2.7"/>
		</g>
		<g>
			<rect x="322.5" y="351.1" class="st0" width="12.6" height="2.7"/>
		</g>
		<g>
			<rect x="350.2" y="351.1" class="st0" width="54.6" height="2.7"/>
		</g>
		<g>
			<rect x="33.9" y="369.5" class="st0" width="13.8" height="2.7"/>
		</g>
		<g>
			<rect x="411.7" y="369.5" class="st0" width="13.8" height="2.7"/>
		</g>
	</g>
	<path class="st1" d="M284.2,35.9h-82.4c-0.9-4.2-0.9-8.4,1.6-11.9c2.5-3.6,6.6-6,10.9-6.2c4-0.2,8,1.5,12,0.9
		c10.2-1.4,14.7-15.8,24.9-17.4c5.7-0.8,11.4,3.1,13.9,8.4c1.1,2.3,1.7,4.9,3.5,6.6c2,1.8,4.9,2.2,7.4,3.2
		C282.3,22,285.3,29.2,284.2,35.9z"/>
	<g>
		<g>
			<path class="st2" d="M177.2,270.7h-73.9c-1.5,0-2.8-1.2-2.8-2.8v-93.2c0-1.5,1.2-2.8,2.8-2.8h74c1.5,0,2.8,1.2,2.8,2.8v93.2
				C180,269.5,178.8,270.7,177.2,270.7z"/>
			<path class="st3" d="M177.6,270.7h-73.9c-1.5,0-2.8-1.2-2.8-2.8v-93.2c0-1.5,1.2-2.8,2.8-2.8h74c1.5,0,2.8,1.2,2.8,2.8v93.2
				C180.5,269.5,179.2,270.7,177.6,270.7z"/>
		</g>
		<path class="st0" d="M139.7,208.8H106c-0.3,0-0.5-0.3-0.5-0.6v-31.1c0-0.3,0.3-0.6,0.5-0.6h33.7c0.3,0,0.5,0.3,0.5,0.6v31.1
			C140.3,208.6,140,208.8,139.7,208.8z"/>
		<g>
			<rect x="144.6" y="176.6" class="st0" width="30.6" height="2.8"/>
		</g>
		<g>
			<rect x="144.6" y="183.4" class="st0" width="30.6" height="2.8"/>
		</g>
		<g>
			<rect x="144.6" y="190.1" class="st0" width="30.6" height="2.8"/>
		</g>
		<g>
			<rect x="144.6" y="196.9" class="st0" width="30.6" height="2.8"/>
		</g>
		<g>
			<rect x="144.6" y="203.6" class="st0" width="30.6" height="2.8"/>
		</g>
		<path class="st0" d="M174.8,245.2h-33.7c-0.3,0-0.5-0.3-0.5-0.6v-31.1c0-0.3,0.3-0.6,0.5-0.6h33.7c0.3,0,0.5,0.3,0.5,0.6v31.1
			C175.3,244.9,175.1,245.2,174.8,245.2z"/>
		<g>
			<rect x="105.7" y="212.9" class="st0" width="30.6" height="2.8"/>
		</g>
		<g>
			<rect x="105.7" y="219.7" class="st0" width="30.6" height="2.8"/>
		</g>
		<g>
			<rect x="105.7" y="226.5" class="st0" width="30.6" height="2.8"/>
		</g>
		<g>
			<rect x="105.7" y="233.2" class="st0" width="30.6" height="2.8"/>
		</g>
		<g>
			<rect x="105.7" y="240" class="st0" width="30.6" height="2.8"/>
		</g>
		<g>
			<rect x="105.5" y="256.9" class="st0" width="69.6" height="2.8"/>
		</g>
		<g>
			<rect x="105.6" y="249.8" class="st0" width="69.6" height="2.8"/>
		</g>
		<g>
			<rect x="105.5" y="263.6" class="st0" width="69.6" height="2.8"/>
		</g>
	</g>
	<g>
		<g>
			<path class="st2" d="M276.9,329.2H203c-1.5,0-2.8-1.2-2.8-2.8v-93.2c0-1.5,1.2-2.8,2.8-2.8h74c1.5,0,2.8,1.2,2.8,2.8v93.2
				C279.7,327.9,278.5,329.2,276.9,329.2z"/>
			<path class="st3" d="M277.3,329.2h-73.9c-1.5,0-2.8-1.2-2.8-2.8v-93.2c0-1.5,1.2-2.8,2.8-2.8h74c1.5,0,2.8,1.2,2.8,2.8v93.2
				C280.2,327.9,278.9,329.2,277.3,329.2z"/>
		</g>
		<path class="st0" d="M237.4,261.6h-31.7c-0.3,0-0.5-0.2-0.5-0.5v-25.7c0-0.3,0.2-0.5,0.5-0.5h31.7c0.3,0,0.5,0.2,0.5,0.5V261
			C237.9,261.4,237.7,261.6,237.4,261.6z"/>
		<path class="st0" d="M223.4,302.7h-17.7c-0.3,0-0.5-0.2-0.5-0.5v-22.7c0-0.3,0.2-0.5,0.5-0.5h17.7c0.3,0,0.5,0.2,0.5,0.5v22.6
			C223.9,302.5,223.7,302.7,223.4,302.7z"/>
		<path class="st0" d="M274.3,261.6h-31.7c-0.3,0-0.5-0.2-0.5-0.5v-25.7c0-0.3,0.2-0.5,0.5-0.5h31.7c0.3,0,0.5,0.2,0.5,0.5V261
			C274.8,261.4,274.6,261.6,274.3,261.6z"/>
		<g>
			<rect x="205.2" y="265.4" class="st0" width="69.6" height="2.8"/>
		</g>
		<g>
			<rect x="205.2" y="272.3" class="st0" width="69.6" height="2.8"/>
		</g>
		<g>
			<rect x="205.6" y="306.7" class="st0" width="69.6" height="2.8"/>
		</g>
		<g>
			<rect x="205.6" y="313.6" class="st0" width="69.6" height="2.8"/>
		</g>
		<g>
			<rect x="205.4" y="320.4" class="st0" width="19.6" height="2.8"/>
		</g>
		<g>
			<rect x="230.6" y="320.4" class="st0" width="19.6" height="2.8"/>
		</g>
		<g>
			<rect x="255.6" y="320.4" class="st0" width="19.6" height="2.8"/>
		</g>
		<g>
			<rect x="228.2" y="279" class="st0" width="46.6" height="2.8"/>
		</g>
		<g>
			<rect x="228.2" y="285.8" class="st0" width="46.6" height="2.8"/>
		</g>
		<g>
			<rect x="228.2" y="292.6" class="st0" width="46.6" height="2.8"/>
		</g>
		<g>
			<rect x="228.2" y="299.3" class="st0" width="46.6" height="2.8"/>
		</g>
	</g>
	<g>
		<g>
			<path class="st2" d="M276.9,208.8H203c-1.5,0-2.8-1.2-2.8-2.8v-93.2c0-1.5,1.2-2.8,2.8-2.8h74c1.5,0,2.8,1.2,2.8,2.8V206
				C279.7,207.6,278.5,208.8,276.9,208.8z"/>
			<path class="st4" d="M277.3,208.8h-73.9c-1.5,0-2.8-1.2-2.8-2.8v-93.2c0-1.5,1.2-2.8,2.8-2.8h74c1.5,0,2.8,1.2,2.8,2.8V206
				C280.2,207.6,278.9,208.8,277.3,208.8z"/>
		</g>
		<path class="st0" d="M274.4,172h-68.1c-0.6,0-1.1-0.5-1.1-1.1v-55.2c0-0.6,0.5-1.1,1.1-1.1h68.1c0.6,0,1.1,0.5,1.1,1.1v55.1
			C275.5,171.5,275,172,274.4,172z"/>
		<g>
			<rect x="205.2" y="176.6" class="st0" width="69.6" height="2.8"/>
		</g>
		<g>
			<rect x="224" y="183" class="st0" width="50.6" height="2.8"/>
		</g>
		<g>
			<rect x="224" y="189.4" class="st0" width="50.6" height="2.8"/>
		</g>
		<g>
			<rect x="224" y="196.4" class="st0" width="50.6" height="2.8"/>
		</g>
		<g>
			<rect x="205.2" y="183" class="st0" width="13.8" height="16.2"/>
		</g>
	</g>
	<g>
		<g>
			<path class="st2" d="M377.8,265.4h-73.9c-1.5,0-2.8-1.2-2.8-2.8v-93.2c0-1.5,1.2-2.8,2.8-2.8h74c1.5,0,2.8,1.2,2.8,2.8v93.2
				C380.6,264.2,379.4,265.4,377.8,265.4z"/>
			<path class="st3" d="M378.2,265.4h-73.9c-1.5,0-2.8-1.2-2.8-2.8v-93.2c0-1.5,1.2-2.8,2.8-2.8h74c1.5,0,2.8,1.2,2.8,2.8v93.2
				C381.1,264.2,379.8,265.4,378.2,265.4z"/>
		</g>
		<path class="st0" d="M375.3,228.5h-68.1c-0.6,0-1.1-0.5-1.1-1.1v-55.2c0-0.6,0.5-1.1,1.1-1.1h68.1c0.6,0,1.1,0.5,1.1,1.1v55.2
			C376.4,228,375.9,228.5,375.3,228.5z"/>
		<g>
			<rect x="306.1" y="233.1" class="st0" width="69.6" height="2.8"/>
		</g>
		<g>
			<rect x="324.9" y="239.5" class="st0" width="50.6" height="2.8"/>
		</g>
		<g>
			<rect x="324.9" y="246" class="st0" width="50.6" height="2.8"/>
		</g>
		<g>
			<rect x="306.1" y="252.4" class="st0" width="50.6" height="2.8"/>
		</g>
		<g>
			<rect x="306.1" y="258.4" class="st0" width="50.6" height="2.8"/>
		</g>
		<g>
			<rect x="306.1" y="239.5" class="st0" width="13.8" height="9.2"/>
		</g>
		<g>
			<rect x="361.7" y="252.4" class="st0" width="13.8" height="9.2"/>
		</g>
	</g>
</g>
</svg>
