<?xml version="1.0" encoding="utf-8"?>
<!-- Generator: Adobe Illustrator 24.1.3, SVG Export Plug-In . SVG Version: 6.00 Build 0)  -->
<svg version="1.1" id="Layer_1" xmlns="http://www.w3.org/2000/svg" xmlns:xlink="http://www.w3.org/1999/xlink" x="0px" y="0px"
	 width="462px" height="371.6px" viewBox="0 0 462 371.6" style="enable-background:new 0 0 462 371.6;" xml:space="preserve">
<style type="text/css">
	.st0{fill:#E4E8EA;}
	.st1{fill:none;stroke:#F0F0F2;stroke-width:2.4;stroke-miterlimit:10;}
	.st2{fill:#E5E9EA;}
	.st3{fill:#4B0082;}
	.st4{fill:none;stroke:#E5E9EA;stroke-width:1.5;stroke-miterlimit:10;}
	.st5{fill:#FFFFFF;stroke:#E5E9EA;stroke-width:1.5;stroke-miterlimit:10;}
	.st6{enable-background:new    ;}
	.st7{fill:#FFFFFF;}
</style>
<g>
	<path class="st0" d="M131.6,65.8l-3-1.3l1.3-3c0.3-0.7,0-1.6-0.8-2s-1.6,0-2,0.8l-1.3,3l-3-1.3c-0.7-0.3-1.6,0-2,0.8
		c-0.3,0.7,0,1.6,0.8,2l3,1.3l-1.3,3c-0.3,0.7,0,1.6,0.8,2c0.7,0.3,1.6,0,2-0.8l1.3-3l3,1.3c0.8,0.3,1.6,0,2-0.8
		C132.7,67.1,132.3,66.2,131.6,65.8z"/>
	<path class="st0" d="M13.4,223.8l-2-0.9l0.9-2c0.2-0.5,0-1.1-0.5-1.3s-1.1,0-1.3,0.5l-0.9,2l-2.1-0.9c-0.5-0.2-1.1,0-1.3,0.5
		s0,1.1,0.5,1.3l2.1,0.9l-0.9,2c-0.2,0.5,0,1.1,0.5,1.3s1.1,0,1.3-0.5l0.9-2l2,0.9c0.5,0.2,1.1,0,1.3-0.5
		C14.2,224.7,13.9,224.1,13.4,223.8z"/>
	<path class="st0" d="M446,240.8l-2-0.9l0.9-2c0.2-0.5,0-1.1-0.5-1.3s-1.1,0-1.3,0.5l-0.9,2l-2.1-0.9c-0.5-0.2-1.1,0-1.3,0.5
		s0,1.1,0.5,1.3l2.1,0.9l-0.9,2c-0.2,0.5,0,1.1,0.5,1.3s1.1,0,1.3-0.5l0.9-2l2,0.9c0.5,0.2,1.1,0,1.3-0.5
		C446.7,241.6,446.5,241,446,240.8z"/>
	<path class="st0" d="M46.9,294.7l-2-0.9l0.9-2c0.2-0.5,0-1.1-0.5-1.3c-0.5-0.2-1.1,0-1.3,0.5l-0.9,2l-2.1-0.9
		c-0.5-0.2-1.1,0-1.3,0.5s0,1.1,0.5,1.3l2.1,0.9l-0.9,2c-0.2,0.5,0,1.1,0.5,1.3c0.5,0.2,1.1,0,1.3-0.5l0.9-2l2,0.9
		c0.5,0.2,1.1,0,1.3-0.5C47.6,295.5,47.4,294.9,46.9,294.7z"/>
	<path class="st0" d="M353,33.2c-3.3,0-6.1,2.7-6.1,6.1s2.7,6.1,6.1,6.1s6.1-2.7,6.1-6.1S356.3,33.2,353,33.2z M353,42.6
		c-1.9,0-3.4-1.5-3.4-3.4s1.5-3.4,3.4-3.4s3.4,1.5,3.4,3.4S354.9,42.6,353,42.6z"/>
	<path class="st0" d="M37.4,75.5c-3.3,0-6.1,2.7-6.1,6.1s2.7,6.1,6.1,6.1s6.1-2.7,6.1-6.1S40.8,75.5,37.4,75.5z M37.4,84.9
		c-1.9,0-3.4-1.5-3.4-3.4s1.5-3.4,3.4-3.4s3.4,1.5,3.4,3.4S39.3,84.9,37.4,84.9z"/>
	<path class="st0" d="M275.2,75.7c-2.1,0-3.8,1.7-3.8,3.8s1.7,3.8,3.8,3.8s3.8-1.7,3.8-3.8C279,77.3,277.3,75.7,275.2,75.7z
		 M275.2,81.5c-1.2,0-2.1-0.9-2.1-2.1s0.9-2.1,2.1-2.1s2.1,0.9,2.1,2.1S276.4,81.5,275.2,81.5z"/>
	<path class="st0" d="M24.6,143c-2.1,0-3.8,1.7-3.8,3.8s1.7,3.8,3.8,3.8s3.8-1.7,3.8-3.8S26.7,143,24.6,143z M24.6,148.9
		c-1.2,0-2.1-0.9-2.1-2.1s0.9-2.1,2.1-2.1s2.1,0.9,2.1,2.1S25.8,148.9,24.6,148.9z"/>
	<path class="st0" d="M415.2,303.1c-2.1,0-3.8,1.7-3.8,3.8c0,2.1,1.7,3.8,3.8,3.8s3.8-1.7,3.8-3.8S417.3,303.1,415.2,303.1z
		 M415.2,308.9c-1.2,0-2.1-0.9-2.1-2.1s0.9-2.1,2.1-2.1s2.1,0.9,2.1,2.1S416.4,308.9,415.2,308.9z"/>
	<path class="st1" d="M271.3,35.9h-82.4c-0.9-4.2-0.9-8.4,1.6-11.9c2.5-3.6,6.6-6,10.9-6.2c4-0.2,8,1.5,12,0.9
		c10.2-1.4,14.7-15.8,24.9-17.4c5.7-0.8,11.4,3.1,13.9,8.4c1.1,2.3,1.7,4.9,3.5,6.6c2,1.8,4.9,2.2,7.4,3.2
		C269.4,22,272.4,29.2,271.3,35.9z"/>
	<path class="st1" d="M438.2,109.6h-54.5c-1.8-3.7-1.8-8.1,0.6-11.5s6.7-5.3,10.9-4.8c3.3,0.4,6.9,2.1,9.7,0.2
		c2.9-1.9,2.5-6.4,4.6-9.2c2-2.8,6.1-3.4,9.3-2.1c3.2,1.3,5.4,4.2,6.9,7.3c0.9,1.9,1.8,4.1,3.7,5c1.7,0.7,3.6,0.1,5.4,0.5
		c2.7,0.5,4.8,3,5.5,5.7S438.5,106.8,438.2,109.6z"/>
	<g>
		<path class="st2" d="M349.7,123.5c4.8,8.9-5.1,17.7-3.2,21.2l0.7,1.3l-11.2,6l-1.8-3.3c-2.6-4.8,4.5-12.2,1.6-17.6
			c-1.3-2.5-4-3.7-6.8-2.2c-3.5,1.9-2.7,5.1-1.3,7.8c0.3,0.6,0.6,1.1,1,1.7l-12.2,6.6c-0.5-0.8-1.1-1.5-1.5-2.4
			c-4.6-8.6,0.2-18,10.5-23.5C335.7,113.6,345.3,115.3,349.7,123.5z M343.9,168.6l-6.6-12.2l13.1-7l6.6,12.2L343.9,168.6z"/>
	</g>
	<path class="st3" d="M132.6,164.9h-19.1c-0.1,0-0.4-0.1-0.4-0.4v-19.3c0-0.1,0.1-0.4,0.4-0.4h19.3c0.1,0,0.4,0.1,0.4,0.4v19.3
		C132.9,164.7,132.8,164.9,132.6,164.9z"/>
	<g>
		<rect x="149" y="151.9" class="st0" width="106.6" height="6"/>
	</g>
	<g>
		<path class="st4" d="M264.9,177.4H105.5c-3.3,0-6.1-2.7-6.1-6.1V136c0-3.3,2.7-6.1,6.1-6.1H265c3.3,0,6.1,2.7,6.1,6.1v35.3
			C271,174.7,268.3,177.4,264.9,177.4z"/>
	</g>
	<g>
		<path class="st4" d="M361.6,252.9H202.2c-3.3,0-6.1-2.7-6.1-6.1v-35.3c0-3.3,2.7-6.1,6.1-6.1h159.5c3.3,0,6.1,2.7,6.1,6.1v35.3
			C367.7,250.2,365,252.9,361.6,252.9z"/>
	</g>
	<path class="st3" d="M229.3,240.4h-19.1c-0.1,0-0.4-0.1-0.4-0.4v-19.3c0-0.1,0.1-0.4,0.4-0.4h19.3c0.1,0,0.4,0.1,0.4,0.4V240
		C229.6,240.2,229.5,240.4,229.3,240.4z"/>
	<g>
		<rect x="245.7" y="227.4" class="st0" width="106.6" height="6"/>
	</g>
	<g>
		<path class="st5" d="M312.9,329H153.5c-3.3,0-6.1-2.7-6.1-6.1v-35.3c0-3.3,2.7-6.1,6.1-6.1H313c3.3,0,6.1,2.7,6.1,6.1v35.3
			C319,326.3,316.3,329,312.9,329z"/>
	</g>
	<path class="st3" d="M180.6,316.4h-19.1c-0.1,0-0.4-0.1-0.4-0.4v-19.3c0-0.1,0.1-0.4,0.4-0.4h19.3c0.1,0,0.4,0.1,0.4,0.4V316
		C180.9,316.2,180.8,316.4,180.6,316.4z"/>
	<g>
		<rect x="197" y="303.4" class="st0" width="106.6" height="6"/>
	</g>
	<g class="st6">
		<path class="st7" d="M122.2,155.6c0.2-0.3,0.6-0.7,1-1.1c0.3-0.3,0.6-0.5,0.7-0.8c0.2-0.2,0.2-0.4,0.2-0.7c0-0.4-0.1-0.7-0.4-0.9
			s-0.7-0.3-1.2-0.3s-0.9,0.1-1.2,0.3c-0.4,0.2-0.7,0.5-0.9,0.8l-1.8-1.1c0.4-0.6,1-1.1,1.7-1.5c0.7-0.3,1.6-0.5,2.5-0.5
			c1.1,0,2.1,0.2,2.8,0.7c0.7,0.5,1,1.2,1,2c0,0.4-0.1,0.8-0.2,1.1s-0.3,0.6-0.5,0.8s-0.4,0.5-0.8,0.7c-0.4,0.3-0.6,0.6-0.8,0.8
			c-0.2,0.2-0.3,0.5-0.3,0.8h-2.3C121.9,156.3,122,155.9,122.2,155.6z M122,160.2c-0.3-0.3-0.4-0.6-0.4-1s0.1-0.7,0.4-0.9
			c0.3-0.3,0.6-0.4,1-0.4s0.8,0.1,1,0.4c0.3,0.3,0.4,0.6,0.4,0.9s-0.1,0.7-0.4,1s-0.6,0.4-1,0.4S122.2,160.5,122,160.2z"/>
	</g>
	<g class="st6">
		<path class="st7" d="M219,231c0.2-0.3,0.6-0.7,1-1.1c0.3-0.3,0.6-0.5,0.7-0.8c0.2-0.2,0.2-0.4,0.2-0.7c0-0.4-0.1-0.7-0.4-0.9
			c-0.3-0.2-0.7-0.3-1.2-0.3s-0.9,0.1-1.2,0.3c-0.4,0.2-0.7,0.5-0.9,0.8l-1.8-1.1c0.4-0.6,1-1.1,1.7-1.5c0.7-0.3,1.6-0.5,2.5-0.5
			c1.1,0,2.1,0.2,2.8,0.7s1,1.2,1,2c0,0.4-0.1,0.8-0.2,1.1c-0.1,0.3-0.3,0.6-0.5,0.8s-0.4,0.5-0.8,0.7c-0.4,0.3-0.6,0.6-0.8,0.8
			s-0.3,0.5-0.3,0.8h-2.3C218.6,231.8,218.8,231.3,219,231z M218.8,235.6c-0.3-0.3-0.4-0.6-0.4-1s0.1-0.7,0.4-0.9
			c0.3-0.3,0.6-0.4,1-0.4s0.8,0.1,1,0.4c0.3,0.3,0.4,0.6,0.4,0.9s-0.1,0.7-0.4,1s-0.6,0.4-1,0.4C219.4,236,219,235.9,218.8,235.6z"
			/>
	</g>
	<g class="st6">
		<path class="st7" d="M170.3,307.1c0.2-0.3,0.6-0.7,1-1.1c0.3-0.3,0.6-0.5,0.7-0.8c0.2-0.2,0.2-0.4,0.2-0.7c0-0.4-0.1-0.7-0.4-0.9
			c-0.3-0.2-0.7-0.3-1.2-0.3s-0.9,0.1-1.2,0.3c-0.4,0.2-0.7,0.5-0.9,0.8l-1.8-1.1c0.4-0.6,1-1.1,1.7-1.5c0.7-0.3,1.6-0.5,2.5-0.5
			c1.1,0,2.1,0.2,2.8,0.7s1,1.2,1,2c0,0.4-0.1,0.8-0.2,1.1c-0.1,0.3-0.3,0.6-0.5,0.8s-0.4,0.5-0.8,0.7c-0.4,0.3-0.6,0.6-0.8,0.8
			c-0.2,0.2-0.3,0.5-0.3,0.8h-2.3C169.9,307.8,170,307.4,170.3,307.1z M170,311.7c-0.3-0.3-0.4-0.6-0.4-1s0.1-0.7,0.4-0.9
			c0.3-0.3,0.6-0.4,1-0.4s0.8,0.1,1,0.4c0.3,0.3,0.4,0.6,0.4,0.9s-0.1,0.7-0.4,1s-0.6,0.4-1,0.4S170.3,312,170,311.7z"/>
	</g>
	<g>
		<g>
			<rect x="23.3" y="328.8" class="st0" width="359.2" height="2.7"/>
		</g>
		<g>
			<rect x="413" y="328.8" class="st0" width="49" height="2.7"/>
		</g>
		<g>
			<rect y="328.8" class="st0" width="15.9" height="2.7"/>
		</g>
		<g>
			<rect x="56.9" y="350.5" class="st0" width="15.6" height="2.7"/>
		</g>
		<g>
			<rect x="94.8" y="350.5" class="st0" width="28.2" height="2.7"/>
		</g>
		<g>
			<rect x="322.5" y="350.5" class="st0" width="12.6" height="2.7"/>
		</g>
		<g>
			<rect x="350.2" y="350.5" class="st0" width="54.6" height="2.7"/>
		</g>
		<g>
			<rect x="33.9" y="368.9" class="st0" width="13.8" height="2.7"/>
		</g>
		<g>
			<rect x="411.7" y="368.9" class="st0" width="13.8" height="2.7"/>
		</g>
	</g>
</g>
</svg>
