<?xml version="1.0" encoding="utf-8"?>
<!-- Generator: Adobe Illustrator 23.1.0, SVG Export Plug-In . SVG Version: 6.00 Build 0)  -->
<svg version="1.1" id="Layer_1" xmlns="http://www.w3.org/2000/svg" xmlns:xlink="http://www.w3.org/1999/xlink" x="0px" y="0px"
	 width="230.2px" height="86.5px" viewBox="0 0 230.2 86.5" style="enable-background:new 0 0 230.2 86.5;" xml:space="preserve">
<style type="text/css">
	.st0{fill:#F13627;}
	.st1{clip-path:url(#SVGID_2_);}
	.st2{fill:#172EFF;}
	.st3{clip-path:url(#SVGID_4_);}
	.st4{fill:#057DE8;}
	.st5{clip-path:url(#SVGID_6_);}
	.st6{fill:#1666F4;}
	.st7{clip-path:url(#SVGID_8_);}
	.st8{fill:#16B0F4;}
	.st9{clip-path:url(#SVGID_10_);}
	.st10{fill:#169AF4;}
</style>
<title>28_OCT_2020_LOGO_FINAL_SVG_1</title>
<g>
	<path d="M181.9,31.4c-3.2-3.9-7.9-5.9-14.4-5.9c-1.6,0-3.2,0.2-4.8,0.7c-1.3,0.4-2.6,0.8-3.9,1.5V11h-14.9v55.7h7.6l2.5-3.8
		c1.8,1.4,3.9,2.5,6,3.4c2.1,0.9,4.4,1.4,6.8,1.4c7,0,12.1-2.1,15.2-6.2c3.2-4.4,4.9-9.7,4.7-15.2C186.6,40.3,185.1,35.4,181.9,31.4
		z M169.8,52.4c-0.8,1.9-2.7,3.1-4.8,3c-1.1,0-2.2-0.3-3.3-0.7c-1.1-0.4-2-1-2.9-1.8V38.8c0.8-0.4,1.7-0.6,2.5-0.8
		c0.8-0.2,1.6-0.3,2.4-0.3c2.2-0.1,4.3,0.9,5.5,2.7c1.3,1.8,2,4,1.9,6.2C171.2,48.6,170.7,50.6,169.8,52.4L169.8,52.4z"/>
	<path d="M130.4,21.5c-2.1,0-4.2-0.8-5.7-2.4c-1.5-1.5-2.4-3.5-2.4-5.6c0-2.2,0.8-4.3,2.4-5.8c1.5-1.6,3.5-2.4,5.7-2.4
		c2.2,0,4.3,0.8,5.8,2.4c1.6,1.5,2.4,3.6,2.4,5.8c0,2.1-0.9,4.2-2.4,5.6C134.6,20.7,132.6,21.6,130.4,21.5z"/>
	<rect x="123" y="26.9" width="14.9" height="39.8"/>
	<path d="M189.6,46.9c0-6.7,2.1-11.9,6.2-15.7c4.2-3.8,9.6-5.8,15.2-5.7c6.3,0,11.1,2,14.3,6.1c3.2,4.2,4.9,9.3,4.8,14.5v5.2h-24.2
		c0.6,1.4,1.6,2.6,3,3.3c1.5,0.7,3.1,1,4.8,1c1.8,0,3.6-0.2,5.4-0.5c1.7-0.3,3.4-0.9,5-1.6l4.2,10.1c-2.5,1.8-5.5,2.9-8.5,3.3
		c-2.5,0.4-5,0.7-7.6,0.7c-6.4,0-11.8-1.7-16.1-5C191.8,59.3,189.6,54,189.6,46.9z M215.8,42.4c-0.1-1.1-0.6-2.2-1.2-3.1
		c-0.9-1.2-2.4-1.9-3.9-1.8c-1.2,0-2.4,0.4-3.3,1.3c-0.9,1-1.6,2.2-1.8,3.6H215.8z"/>
	<path d="M168,77.2c0.5,0.3,1,0.7,1.3,1.3c0.6,1.2,0.6,2.5,0,3.7c-0.3,0.5-0.7,1-1.3,1.3c-0.6,0.3-1.2,0.5-1.8,0.4
		c-0.5,0-1-0.1-1.4-0.3c-0.4-0.2-0.8-0.5-1.1-0.9v1.1h-1.2v-9.8h1.3v3.8c0.3-0.4,0.6-0.6,1.1-0.8c0.4-0.2,0.9-0.3,1.4-0.3
		C166.8,76.8,167.4,76.9,168,77.2z M167.3,82.5c0.4-0.2,0.7-0.5,0.9-0.9c0.4-0.8,0.4-1.8,0-2.6c-0.2-0.4-0.5-0.7-0.9-0.9
		c-0.4-0.2-0.8-0.3-1.2-0.3c-0.4,0-0.8,0.1-1.2,0.3c-0.4,0.2-0.7,0.5-0.9,0.9c-0.4,0.8-0.4,1.8,0,2.6c0.2,0.4,0.5,0.7,0.9,0.9
		c0.4,0.2,0.8,0.3,1.2,0.3C166.5,82.8,166.9,82.7,167.3,82.5z"/>
	<path d="M177.5,76.9l-3.4,7.7c-0.2,0.6-0.6,1.1-1.1,1.5c-0.4,0.3-0.9,0.4-1.5,0.4c-0.3,0-0.7-0.1-1-0.2c-0.3-0.1-0.6-0.3-0.8-0.5
		l0.6-0.9c0.3,0.3,0.8,0.5,1.3,0.5c0.3,0,0.6-0.1,0.8-0.2c0.3-0.2,0.4-0.5,0.6-0.8l0.2-0.5l-3.1-7h1.3l2.5,5.6l2.4-5.6L177.5,76.9z"
		/>
	<path d="M186.7,80.6v3.3h-2.1v-3.3l-3.6-5.9h2.3l2.5,4.1l2.5-4.1h2.1L186.7,80.6z"/>
	<path d="M191.6,83.5c-0.6-0.3-1.1-0.7-1.4-1.3c-1-1.7-0.5-3.9,1.2-4.9c0.1,0,0.1-0.1,0.2-0.1c1.3-0.6,2.8-0.6,4.1,0
		c0.6,0.3,1.1,0.7,1.4,1.3c1,1.7,0.5,3.9-1.2,4.9c-0.1,0-0.1,0.1-0.2,0.1C194.4,84.1,192.9,84.1,191.6,83.5L191.6,83.5z M195,81.7
		c0.4-0.4,0.5-0.9,0.5-1.4c0-0.5-0.2-1-0.5-1.4c-0.7-0.7-1.9-0.7-2.6,0c-0.4,0.4-0.5,0.9-0.5,1.4c0,0.5,0.2,1,0.5,1.4
		C193.1,82.4,194.3,82.4,195,81.7z"/>
	<path d="M199,83.6c-0.2-0.2-0.4-0.5-0.4-0.8c0-0.3,0.1-0.6,0.4-0.8c0.5-0.4,1.3-0.4,1.8,0c0.2,0.2,0.4,0.5,0.4,0.8
		c0,0.3-0.1,0.6-0.4,0.8C200.3,84,199.5,84,199,83.6z M198.7,74.6h2.5l-0.4,6h-1.6L198.7,74.6z"/>
	<path d="M205.9,81l-1,1v1.8h-2.1v-9.8h2.1v5.5l3-2.8h2.5l-3,3l3.2,4.1h-2.5L205.9,81z"/>
	<path d="M216.9,77.4c0.6,0.6,1,1.5,0.9,2.4v4h-1.9V83c-0.5,0.7-1.3,1.1-2.2,1c-0.5,0-1-0.1-1.4-0.3c-0.4-0.2-0.7-0.4-0.9-0.8
		c-0.2-0.3-0.3-0.7-0.3-1.1c0-0.6,0.3-1.2,0.8-1.6c0.7-0.4,1.5-0.6,2.3-0.6h1.6c0-0.4-0.1-0.7-0.4-1c-0.4-0.3-0.8-0.4-1.2-0.4
		c-0.4,0-0.8,0.1-1.1,0.2c-0.3,0.1-0.7,0.3-0.9,0.5l-0.8-1.4c0.4-0.3,0.9-0.5,1.4-0.6c0.6-0.1,1.1-0.2,1.7-0.2
		C215.2,76.7,216.2,76.9,216.9,77.4z M215.1,82.3c0.3-0.2,0.5-0.4,0.6-0.7v-0.7h-1.4c-0.9,0-1.3,0.3-1.3,0.8c0,0.2,0.1,0.5,0.3,0.6
		c0.3,0.2,0.6,0.3,0.9,0.2C214.5,82.6,214.8,82.5,215.1,82.3z"/>
	<path d="M222.6,76.9c0.5-0.2,1-0.3,1.5-0.3v1.9h-0.5c-0.5,0-1,0.1-1.4,0.5c-0.4,0.4-0.5,0.9-0.5,1.5v3.3h-2.1v-7.1h2v0.9
		C221.9,77.3,222.2,77.1,222.6,76.9z"/>
	<path d="M230.2,83.5c-0.2,0.2-0.5,0.3-0.8,0.3c-0.3,0.1-0.6,0.1-0.9,0.1c-0.7,0.1-1.4-0.2-2-0.6c-0.5-0.5-0.7-1.2-0.7-1.9v-2.9
		h-1.1v-1.6h1.1v-1.7h2.1v1.7h1.8v1.6h-1.8v2.9c0,0.3,0.1,0.5,0.2,0.7c0.2,0.2,0.4,0.3,0.7,0.2c0.3,0,0.6-0.1,0.8-0.3L230.2,83.5z"
		/>
	<path d="M72.8,66.7v-44H56.5V11h47.7L104,22.7H87.8v44L72.8,66.7z"/>
	<path d="M117.2,27c-2.2,0-4.4,0.4-6.5,1.2c-2,0.7-4,1.6-5.8,2.8l-3.6-4h-7.5v39.7h14.9V42.5c1.7-1.3,3.6-2.2,5.7-2.8
		c0.9-0.3,1.9-0.4,2.8-0.6V27z"/>
	<path class="st0" d="M79.1,11c-8.9,0-17.1,4.5-21.9,12L57,23.3C43.6,44.9,18.7,46.7,1.1,36c0,0,16.9-7.6,23.3-15.6
		C37.7,4,50.7-4.3,69.1,3.3c0,0,7.8,3.7,14.9,7.7H79.1z"/>
	<path d="M23.5,42.8c-8,0-15.8-2.2-22.7-6.3L0,36l0.9-0.4C1,35.5,17.7,28,24,20.2C35.3,6.2,48.7-5.6,69.3,2.9c0.1,0,7.9,3.7,15,7.6
		l1.7,0.9h-6.9c-8.7-0.1-16.8,4.4-21.4,11.7l-0.2,0.4C49,37.1,36.1,42.8,23.5,42.8z M2.2,36.1c16.7,9.6,41.2,8.3,54.4-13.1l0.2-0.3
		c4.8-7.7,13.3-12.3,22.3-12.3h3C75.6,6.9,69,3.8,68.9,3.8C52.8-2.9,40,2,24.8,20.8C19.1,27.8,5.7,34.4,2.2,36.1z"/>
	<path d="M8.3,37.2c-2.2,0-4.3-0.2-6.5-0.6l0.3-1c0.2,0,21.7,5.2,37.8-15.9C55.6-1,77.1,7.7,84.2,10.5l-0.4,0.9
		c-6.9-2.8-27.9-11.2-43.1,8.8C29.7,34.7,16.1,37.2,8.3,37.2z"/>
	<path d="M41.5,38.5l-0.8-0.6c0.1-0.1,9.7-13.8,3.7-22.7l0.8-0.6C51.6,24.2,41.9,37.9,41.5,38.5z"/>
	<path d="M49,33.5L48.1,33c6.8-12-0.2-20-0.4-20.3l0.7-0.7C48.5,12.1,56.1,20.9,49,33.5z"/>
	<path d="M18.7,26.4l-0.5-0.9c0.3-0.1,7.2-3.7,17.5-0.7l-0.3,1C25.6,22.8,18.8,26.3,18.7,26.4z"/>
	<path d="M23.4,22.2l-0.3-0.9c0.4-0.1,8.6-3,15.9,0l-0.4,0.9C31.7,19.4,23.5,22.2,23.4,22.2z"/>
	<path d="M60.9,7.4c-5.5-5.6-17.7-3.2-17.8-3.2l-0.2-1c0.5-0.1,12.8-2.5,18.7,3.5L60.9,7.4z"/>
	<path d="M66.7,7.1C61.1,0.3,51,1.4,50.9,1.5l-0.1-1c0.4-0.1,10.8-1.3,16.7,6L66.7,7.1z"/>
	<path d="M18.6,42.5l-0.3-1c3.6-1,5.9-4.6,5.4-8.3l1-0.2C25.3,37.3,22.7,41.3,18.6,42.5z"/>
	<g>
		<defs>
			<polygon id="SVGID_1_" points="72.8,66.7 72.8,22.7 56.5,22.7 56.5,11 104.2,11 105.6,22.7 87.8,22.7 87.8,66.7 			"/>
		</defs>
		<clipPath id="SVGID_2_">
			<use xlink:href="#SVGID_1_"  style="overflow:visible;"/>
		</clipPath>
		<g class="st1">
			<path class="st0" d="M150.8,61.5c-3.3,0-6.6-0.2-9.8-0.6c-15.7-2.1-27.8-9.2-33.3-19.6C94.3,15.8,80.9,9.8,80.8,9.8l0.4-0.9
				c0.6,0.2,13.8,6.2,27.4,32c5.3,10,17.1,17,32.5,19c24.7,3.3,63-6,96.4-41.9l0.7,0.7C208.7,50.4,175.4,61.5,150.8,61.5z"/>
			<path class="st2" d="M128.7,57.7c-3.6-27.8-13.2-36.1-13.3-36.2l0.6-0.8c0.4,0.3,10.1,8.6,13.7,36.8L128.7,57.7z"/>
			<path class="st2" d="M137.4,60.3c-3.1-32.8-15.2-41.5-15.4-41.6l0.6-0.8c0.5,0.4,12.7,9,15.8,42.4L137.4,60.3z"/>
			<path class="st0" d="M89.8,47.6c-15.6,0-28.7-7.7-28.9-7.8l0.5-0.9c0.3,0.2,25.2,14.8,47,3.2L109,43
				C103.1,46.1,96.5,47.7,89.8,47.6z"/>
			<path class="st0" d="M86.7,58c-9.9,0-19.7-2.8-28.1-8.1l0.6-0.8c0.3,0.2,25.2,17.8,55.3,0l0.5,0.9C106.5,55.1,96.7,57.9,86.7,58z
				"/>
			<path class="st2" d="M176.1,56.8C174.3,29.2,145,7.7,144.7,7.5l0.6-0.8c0.3,0.2,30,22,31.8,50.1L176.1,56.8z"/>
			<path class="st2" d="M186.1,54c-7.5-38.3-34.2-50.2-34.5-50.4l0.4-0.9c0.3,0.1,27.5,12.3,35.1,51.1L186.1,54z"/>
			<path class="st2" d="M194,75.7l-0.4-0.9c7.3-2.7,12.1-6.8,14.4-12.3c3.8-9.1-0.5-18.9-0.5-19l0.9-0.4c0.2,0.4,4.5,10.3,0.6,19.8
				C206.5,68.6,201.5,72.9,194,75.7z"/>
			<path class="st2" d="M204.6,77.4l-0.6-0.8c21.1-15.1,10.2-36.9,10.1-37.1L215,39C215.1,39.3,226.4,61.8,204.6,77.4z"/>
		</g>
	</g>
	<g>
		<defs>
			<path id="SVGID_3_" d="M117.2,27c-2.2,0-4.4,0.4-6.5,1.2c-2,0.7-4,1.6-5.8,2.8l-3.6-4h-7.5v39.7h14.9V42.5
				c1.7-1.3,3.6-2.2,5.7-2.8c0.9-0.3,1.9-0.4,2.8-0.6V27z"/>
		</defs>
		<clipPath id="SVGID_4_">
			<use xlink:href="#SVGID_3_"  style="overflow:visible;"/>
		</clipPath>
		<g class="st3">
			<path class="st0" d="M150.8,61.5c-3.3,0-6.6-0.2-9.8-0.6c-15.7-2.1-27.8-9.2-33.3-19.6C94.3,15.8,80.9,9.8,80.8,9.8l0.4-0.9
				c0.6,0.2,13.8,6.2,27.4,32c5.3,10,17.1,17,32.5,19c24.7,3.3,63-6,96.4-41.9l0.7,0.7C208.7,50.4,175.4,61.5,150.8,61.5z"/>
			<path class="st4" d="M128.7,57.7c-3.6-27.8-13.2-36.1-13.3-36.2l0.6-0.8c0.4,0.3,10.1,8.6,13.7,36.8L128.7,57.7z"/>
			<path class="st4" d="M137.4,60.3c-3.1-32.8-15.2-41.5-15.4-41.6l0.6-0.8c0.5,0.4,12.7,9,15.8,42.4L137.4,60.3z"/>
			<path class="st0" d="M89.8,47.6c-15.6,0-28.7-7.7-28.9-7.8l0.5-0.9c0.3,0.2,25.2,14.8,47,3.2L109,43
				C103.1,46.1,96.5,47.7,89.8,47.6z"/>
			<path class="st0" d="M86.7,58c-9.9,0-19.7-2.8-28.1-8.1l0.6-0.8c0.3,0.2,25.2,17.8,55.3,0l0.5,0.9C106.5,55.1,96.7,57.9,86.7,58z
				"/>
			<path class="st4" d="M176.1,56.8C174.3,29.2,145,7.7,144.7,7.5l0.6-0.8c0.3,0.2,30,22,31.8,50.1L176.1,56.8z"/>
			<path class="st4" d="M186.1,54c-7.5-38.3-34.2-50.2-34.5-50.4l0.4-0.9c0.3,0.1,27.5,12.3,35.1,51.1L186.1,54z"/>
			<path class="st4" d="M194,75.7l-0.4-0.9c7.3-2.7,12.1-6.8,14.4-12.3c3.8-9.1-0.5-18.9-0.5-19l0.9-0.4c0.2,0.4,4.5,10.3,0.6,19.8
				C206.5,68.6,201.5,72.9,194,75.7z"/>
			<path class="st4" d="M204.6,77.4l-0.6-0.8c21.1-15.1,10.2-36.9,10.1-37.1L215,39C215.1,39.3,226.4,61.8,204.6,77.4z"/>
		</g>
	</g>
	<g>
		<defs>
			<rect id="SVGID_5_" x="123" y="26.9" width="14.9" height="39.8"/>
		</defs>
		<clipPath id="SVGID_6_">
			<use xlink:href="#SVGID_5_"  style="overflow:visible;"/>
		</clipPath>
		<g class="st5">
			<path class="st0" d="M150.8,61.5c-3.3,0-6.6-0.2-9.8-0.6c-15.7-2.1-27.8-9.2-33.3-19.6C94.3,15.8,80.9,9.8,80.8,9.8l0.4-0.9
				c0.6,0.2,13.8,6.2,27.4,32c5.3,10,17.1,17,32.5,19c24.7,3.3,63-6,96.4-41.9l0.7,0.7C208.7,50.4,175.4,61.5,150.8,61.5z"/>
			<path class="st0" d="M128.7,57.7c-3.6-27.8-13.2-36.1-13.3-36.2l0.6-0.8c0.4,0.3,10.1,8.6,13.7,36.8L128.7,57.7z"/>
			<path class="st0" d="M137.4,60.3c-3.1-32.8-15.2-41.5-15.4-41.6l0.6-0.8c0.5,0.4,12.7,9,15.8,42.4L137.4,60.3z"/>
			<path class="st6" d="M89.8,47.6c-15.6,0-28.7-7.7-28.9-7.8l0.5-0.9c0.3,0.2,25.2,14.8,47,3.2L109,43
				C103.1,46.1,96.5,47.7,89.8,47.6z"/>
			<path class="st6" d="M86.7,58c-9.9,0-19.7-2.8-28.1-8.1l0.6-0.8c0.3,0.2,25.2,17.8,55.3,0l0.5,0.9C106.5,55.1,96.7,57.9,86.7,58z
				"/>
			<path class="st6" d="M176.1,56.8C174.3,29.2,145,7.7,144.7,7.5l0.6-0.8c0.3,0.2,30,22,31.8,50.1L176.1,56.8z"/>
			<path class="st6" d="M186.1,54c-7.5-38.3-34.2-50.2-34.5-50.4l0.4-0.9c0.3,0.1,27.5,12.3,35.1,51.1L186.1,54z"/>
			<path class="st6" d="M194,75.7l-0.4-0.9c7.3-2.7,12.1-6.8,14.4-12.3c3.8-9.1-0.5-18.9-0.5-19l0.9-0.4c0.2,0.4,4.5,10.3,0.6,19.8
				C206.5,68.6,201.5,72.9,194,75.7z"/>
			<path class="st6" d="M204.6,77.4l-0.6-0.8c21.1-15.1,10.2-36.9,10.1-37.1L215,39C215.1,39.3,226.4,61.8,204.6,77.4z"/>
		</g>
	</g>
	<g>
		<defs>
			<path id="SVGID_7_" d="M143.9,66.7V11h14.9v16.7c1.2-0.6,2.5-1.1,3.9-1.5c1.6-0.4,3.2-0.7,4.8-0.7c6.4,0,11.2,2,14.4,5.9
				s4.8,8.9,4.8,14.8c0.2,5.4-1.5,10.8-4.7,15.2c-3.2,4.2-8.2,6.2-15.2,6.2c-2.3,0-4.6-0.5-6.8-1.4c-2.1-0.9-4.2-2-6-3.4l-2.5,3.8
				L143.9,66.7z M171.2,46.5c0-2.2-0.6-4.4-1.9-6.2c-1.3-1.8-3.4-2.8-5.5-2.7c-0.8,0-1.6,0.1-2.4,0.3c-0.9,0.2-1.7,0.5-2.5,0.8V53
				c0.8,0.8,1.8,1.4,2.9,1.8c1,0.4,2.2,0.7,3.3,0.7c2.1,0.1,4-1.1,4.8-3C170.7,50.6,171.2,48.6,171.2,46.5z"/>
		</defs>
		<clipPath id="SVGID_8_">
			<use xlink:href="#SVGID_7_"  style="overflow:visible;"/>
		</clipPath>
		<g class="st7">
			<path class="st0" d="M150.8,61.5c-3.3,0-6.6-0.2-9.8-0.6c-15.7-2.1-27.8-9.2-33.3-19.6C94.3,15.8,80.9,9.8,80.8,9.8l0.4-0.9
				c0.6,0.2,13.8,6.2,27.4,32c5.3,10,17.1,17,32.5,19c24.7,3.3,63-6,96.4-41.9l0.7,0.7C208.7,50.4,175.4,61.5,150.8,61.5z"/>
			<path class="st8" d="M128.7,57.7c-3.6-27.8-13.2-36.1-13.3-36.2l0.6-0.8c0.4,0.3,10.1,8.6,13.7,36.8L128.7,57.7z"/>
			<path class="st8" d="M137.4,60.3c-3.1-32.8-15.2-41.5-15.4-41.6l0.6-0.8c0.5,0.4,12.7,9,15.8,42.4L137.4,60.3z"/>
			<path class="st8" d="M89.8,47.6c-15.6,0-28.7-7.7-28.9-7.8l0.5-0.9c0.3,0.2,25.2,14.8,47,3.2L109,43
				C103.1,46.1,96.5,47.7,89.8,47.6z"/>
			<path class="st8" d="M86.7,58c-9.9,0-19.7-2.8-28.1-8.1l0.6-0.8c0.3,0.2,25.2,17.8,55.3,0l0.5,0.9C106.5,55.1,96.7,57.9,86.7,58z
				"/>
			<path class="st0" d="M176.1,56.8C174.3,29.2,145,7.7,144.7,7.5l0.6-0.8c0.3,0.2,30,22,31.8,50.1L176.1,56.8z"/>
			<path class="st0" d="M186.1,54c-7.5-38.3-34.2-50.2-34.5-50.4l0.4-0.9c0.3,0.1,27.5,12.3,35.1,51.1L186.1,54z"/>
			<path class="st8" d="M194,75.7l-0.4-0.9c7.3-2.7,12.1-6.8,14.4-12.3c3.8-9.1-0.5-18.9-0.5-19l0.9-0.4c0.2,0.4,4.5,10.3,0.6,19.8
				C206.5,68.6,201.5,72.9,194,75.7z"/>
			<path class="st0" d="M204.6,77.4l-0.6-0.8c21.1-15.1,10.2-36.9,10.1-37.1L215,39C215.1,39.3,226.4,61.8,204.6,77.4z"/>
		</g>
	</g>
	<g>
		<defs>
			<path id="SVGID_9_" d="M189.6,46.9c0-6.7,2.1-11.9,6.2-15.7c4.2-3.8,9.6-5.8,15.2-5.7c6.3,0,11.1,2,14.3,6.1
				c3.2,4.2,4.9,9.3,4.8,14.5v5.2h-24.2c0.6,1.4,1.6,2.6,3,3.3c1.5,0.7,3.1,1,4.8,1c1.8,0,3.6-0.2,5.4-0.5c1.7-0.3,3.4-0.9,5-1.6
				l4.2,10.1c-2.5,1.8-5.5,2.9-8.5,3.3c-2.5,0.4-5,0.7-7.6,0.7c-6.4,0-11.8-1.7-16.1-5C191.8,59.3,189.6,54,189.6,46.9z M215.8,42.4
				c-0.1-1.1-0.6-2.2-1.2-3.1c-0.9-1.2-2.4-1.9-3.9-1.8c-1.2,0-2.4,0.4-3.3,1.3c-0.9,1-1.6,2.2-1.8,3.6H215.8z"/>
		</defs>
		<clipPath id="SVGID_10_">
			<use xlink:href="#SVGID_9_"  style="overflow:visible;"/>
		</clipPath>
		<g class="st9">
			<path class="st0" d="M150.8,61.5c-3.3,0-6.6-0.2-9.8-0.6c-15.7-2.1-27.8-9.2-33.3-19.6C94.3,15.8,80.9,9.8,80.8,9.8l0.4-0.9
				c0.6,0.2,13.8,6.2,27.4,32c5.3,10,17.1,17,32.5,19c24.7,3.3,63-6,96.4-41.9l0.7,0.7C208.7,50.4,175.4,61.5,150.8,61.5z"/>
			<path class="st10" d="M128.7,57.7c-3.6-27.8-13.2-36.1-13.3-36.2l0.6-0.8c0.4,0.3,10.1,8.6,13.7,36.8L128.7,57.7z"/>
			<path class="st10" d="M137.4,60.3c-3.1-32.8-15.2-41.5-15.4-41.6l0.6-0.8c0.5,0.4,12.7,9,15.8,42.4L137.4,60.3z"/>
			<path class="st10" d="M89.8,47.6c-15.6,0-28.7-7.7-28.9-7.8l0.5-0.9c0.3,0.2,25.2,14.8,47,3.2L109,43
				C103.1,46.1,96.5,47.7,89.8,47.6z"/>
			<path class="st10" d="M86.7,58c-9.9,0-19.7-2.8-28.1-8.1l0.6-0.8c0.3,0.2,25.2,17.8,55.3,0l0.5,0.9C106.5,55.1,96.7,57.9,86.7,58
				z"/>
			<path class="st10" d="M176.1,56.8C174.3,29.2,145,7.7,144.7,7.5l0.6-0.8c0.3,0.2,30,22,31.8,50.1L176.1,56.8z"/>
			<path class="st10" d="M186.1,54c-7.5-38.3-34.2-50.2-34.5-50.4l0.4-0.9c0.3,0.1,27.5,12.3,35.1,51.1L186.1,54z"/>
			<path class="st0" d="M193,75.7l-0.4-0.9c7.3-2.7,12.1-6.8,14.4-12.3c3.8-9.1-0.5-18.9-0.5-19l0.9-0.4c0.2,0.4,4.5,10.3,0.6,19.8
				C205.5,68.6,200.5,72.9,193,75.7z"/>
			<path class="st0" d="M203.6,77.4l-0.6-0.8c21.1-15.1,10.2-36.9,10.1-37.1L214,39C214.1,39.3,225.4,61.8,203.6,77.4z"/>
		</g>
	</g>
</g>
</svg>
