<?xml version="1.0" encoding="utf-8"?>
<!-- Generator: Adobe Illustrator 24.1.3, SVG Export Plug-In . SVG Version: 6.00 Build 0)  -->
<svg version="1.1" id="Layer_1" xmlns="http://www.w3.org/2000/svg" xmlns:xlink="http://www.w3.org/1999/xlink" x="0px" y="0px"
	 viewBox="0 0 512 512" enable-background="new 0 0 512 512" xml:space="preserve" width="150" height="150">
<g>
	<path fill="#FAB545" d="M362.9,110c0,0,0.8-9.9-6.4-17.1c-7.2-7.2-17.1-6.4-17.1-6.4s10.8-0.1,17.1-6.4c6.3-6.3,6.4-17.1,6.4-17.1
		s-0.6,10.1,6.4,17.1c7,7,17.1,6.4,17.1,6.4s-10.1-0.6-17.1,6.4C362.3,100,362.9,110,362.9,110z"/>
	<path fill="#FDE47C" d="M411.8,240.1c0,0,0.3-4.5-2.9-7.8c-3.3-3.3-7.8-2.9-7.8-2.9s4.9,0,7.8-2.9c2.9-2.9,2.9-7.8,2.9-7.8
		s-0.3,4.6,2.9,7.8c3.2,3.2,7.8,2.9,7.8,2.9s-4.6-0.3-7.8,2.9S411.8,240.1,411.8,240.1z"/>
	<path fill="#FDE47C" d="M164.8,86.5c0,0,0.3-4.5-2.9-7.8s-7.8-2.9-7.8-2.9s4.9,0,7.8-2.9c2.9-2.9,2.9-7.8,2.9-7.8s-0.3,4.6,2.9,7.8
		c3.2,3.2,7.8,2.9,7.8,2.9s-4.6-0.3-7.8,2.9C164.5,81.9,164.8,86.5,164.8,86.5z"/>
	<path fill="#FAB545" d="M34.3,272.2c0,0,0.3-4.5-2.9-7.8c-3.3-3.3-7.8-2.9-7.8-2.9s4.9,0,7.8-2.9c2.9-2.9,2.9-7.8,2.9-7.8
		s-0.3,4.6,2.9,7.8c3.2,3.2,7.8,2.9,7.8,2.9s-4.6-0.3-7.8,2.9C34,267.6,34.3,272.2,34.3,272.2z"/>
	<circle fill="#FDE47C" cx="432" cy="317.2" r="5.1"/>
	<circle fill="#FDE47C" cx="268.5" cy="70.1" r="5.1"/>
	<g>
		<g>
			
				<ellipse transform="matrix(0.9922 -0.1248 0.1248 0.9922 -45.6102 7.1534)" fill="#E59D35" cx="34.3" cy="367.7" rx="34.3" ry="34.3"/>
			
				<ellipse transform="matrix(0.2321 -0.9727 0.9727 0.2321 -327.729 320.2791)" fill="#FDE47C" cx="39" cy="367.7" rx="34.3" ry="34.3"/>
			<circle fill="#F8B545" cx="39" cy="367.7" r="27.5"/>
			<path fill="#E59D35" d="M13.5,369.2c0-15.2,12.3-27.5,27.5-27.5c5.7,0,11,1.7,15.4,4.7c-4.7-3.9-10.8-6.2-17.4-6.2
				c-15.2,0-27.5,12.3-27.5,27.5c0,8.6,4,16.3,10.1,21.3c-2.7-2.8-4.9-6.2-6.3-9.9C14.2,376,13.5,372.7,13.5,369.2z"/>
		</g>
		<g>
			<path fill="#FDE47C" d="M34.5,369.5H30v4.4h-3.3v-4.4h-4.5v-3.2h4.5V362H30v4.4h4.5V369.5z"/>
			<path fill="#FDE47C" d="M50.3,359.7c1.2,0.5,2.1,1.3,2.7,2.3c0.6,1,1,2.1,1,3.5c0,1.3-0.3,2.5-1,3.5c-0.6,1-1.5,1.8-2.7,2.3
				c-1.2,0.5-2.6,0.8-4.2,0.8h-3.6v5h-4.2v-18.1h7.8C47.7,358.9,49.1,359.2,50.3,359.7z M48.7,367.8c0.7-0.5,1-1.3,1-2.3
				c0-1-0.3-1.8-1-2.3c-0.7-0.5-1.6-0.8-2.9-0.8h-3.4v6.3h3.4C47.1,368.6,48.1,368.3,48.7,367.8z"/>
		</g>
	</g>
	<g>
		<g>
			
				<ellipse transform="matrix(0.9922 -0.1248 0.1248 0.9922 -21.0635 47.7382)" fill="#E59D35" cx="370.6" cy="192" rx="20.5" ry="20.5"/>
			
				<ellipse transform="matrix(0.2321 -0.9727 0.9727 0.2321 99.9428 510.6403)" fill="#FDE47C" cx="373.4" cy="192" rx="20.5" ry="20.5"/>
			<circle fill="#F8B545" cx="373.4" cy="192" r="16.4"/>
			<path fill="#E59D35" d="M358.1,192.9c0-9.1,7.4-16.4,16.4-16.4c3.4,0,6.6,1,9.2,2.8c-2.8-2.3-6.5-3.7-10.4-3.7
				c-9.1,0-16.4,7.4-16.4,16.4c0,5.1,2.4,9.7,6.1,12.8c-1.6-1.7-2.9-3.7-3.7-5.9C358.5,197,358.1,195,358.1,192.9z"/>
		</g>
		<g>
			<path fill="#FDE47C" d="M370.7,193.1H368v2.6h-2v-2.6h-2.7v-1.9h2.7v-2.6h2v2.6h2.7V193.1z"/>
			<path fill="#FDE47C" d="M380.1,187.2c0.7,0.3,1.2,0.8,1.6,1.4c0.4,0.6,0.6,1.3,0.6,2.1c0,0.8-0.2,1.5-0.6,2.1
				c-0.4,0.6-0.9,1-1.6,1.4c-0.7,0.3-1.5,0.5-2.5,0.5h-2.2v3h-2.5v-10.8h4.7C378.6,186.8,379.4,186.9,380.1,187.2z M379.2,192.1
				c0.4-0.3,0.6-0.8,0.6-1.4c0-0.6-0.2-1.1-0.6-1.4c-0.4-0.3-1-0.5-1.7-0.5h-2v3.8h2C378.2,192.6,378.8,192.4,379.2,192.1z"/>
		</g>
	</g>
	<g>
		<g>
			
				<ellipse transform="matrix(0.9922 -0.1248 0.1248 0.9922 -15.4352 8.3207)" fill="#E59D35" cx="58.7" cy="127.4" rx="46.1" ry="46.1"/>
			
				<ellipse transform="matrix(0.2321 -0.9727 0.9727 0.2321 -74.0028 161.0339)" fill="#FDE47C" cx="65" cy="127.4" rx="46.1" ry="46.1"/>
			<circle fill="#F8B545" cx="65" cy="127.4" r="37"/>
			<path fill="#E59D35" d="M30.8,129.4c0-20.4,16.5-37,37-37c7.6,0,14.7,2.3,20.6,6.3C82,93.6,73.9,90.4,65,90.4
				c-20.4,0-37,16.5-37,37c0,11.6,5.3,21.9,13.6,28.7c-3.7-3.8-6.6-8.3-8.4-13.3C31.7,138.6,30.8,134.1,30.8,129.4z"/>
		</g>
		<g>
			<path fill="#FDE47C" d="M59,129.9h-6v5.9h-4.5v-5.9h-6v-4.2h6v-5.9h4.5v5.9h6V129.9z"/>
			<path fill="#FDE47C" d="M80.1,116.7c1.6,0.7,2.8,1.7,3.7,3.1c0.9,1.3,1.3,2.9,1.3,4.7c0,1.8-0.4,3.3-1.3,4.7
				c-0.9,1.3-2.1,2.4-3.7,3.1c-1.6,0.7-3.5,1.1-5.6,1.1h-4.9v6.7H64v-24.3h10.5C76.7,115.6,78.6,116,80.1,116.7z M78.1,127.5
				c0.9-0.7,1.3-1.8,1.3-3.1c0-1.4-0.4-2.4-1.3-3.1c-0.9-0.7-2.2-1.1-3.9-1.1h-4.6v8.4h4.6C75.9,128.6,77.2,128.3,78.1,127.5z"/>
		</g>
	</g>
	<g>
		<ellipse fill="#F9D1D7" cx="223.8" cy="426.5" rx="129.7" ry="22.5"/>
		<g>
			<g>
				<path fill="#FF3A59" d="M344.4,314.1l-14.9,115.1c-23.4,6.7-53.5,9.1-83.8,9.3c-65,0.5-130.5-9.3-130.5-9.3l-14.9-131.2
					L315,312.2L344.4,314.1z"/>
				<path fill="#F2F2F2" d="M100.3,298.1l3.6,31.7c0.6,4.9,7,6.3,9.5,2l0,0c2.3-3.9,8.2-3.1,9.4,1.3l3.5,12.9
					c1.2,4.5,7.3,5.2,9.5,1.1l5.8-11c2.1-4,8-3.5,9.4,0.8l1.7,5.1c1.3,3.9,6.3,4.8,8.9,1.6l7.6-9.4c2.3-2.9,6.8-2.4,8.5,0.8
					l9.1,17.2c1.9,3.6,7.1,3.6,9.1,0l8-14.8c1.9-3.5,7-3.6,9-0.1l5.2,9c2,3.4,6.9,3.4,8.9,0l2.8-4.7c2.2-3.8,7.8-3.2,9.3,0.9
					c1.7,5,4,11,6,16.5c2.2,5.8,10.2,6,12.8,0.4c2.2-4.8,4.5-10,6.4-14.2c1.7-3.8,7-4.1,9.1-0.5l4.7,7.9c1.9,3.2,6.5,3.4,8.6,0.3
					l8-11.4c1.9-2.7,5.8-2.9,8-0.5l9.9,11c2.4,2.7,6.8,2.1,8.4-1.1l1.4-2.9c1.9-3.9,7.5-3.7,9.3,0.2l5.1,11.5
					c0.4,0.9,1.8,0.7,1.9-0.3l5.9-45.7L100.3,298.1z"/>
				
					<ellipse transform="matrix(6.528408e-02 -0.9979 0.9979 6.528408e-02 -97.6429 507.9523)" fill="#FFFFFF" cx="222.3" cy="306.1" rx="14.5" ry="122.3"/>
				<path fill="#D31140" d="M327,207.4l-7.4,102.8c-19.1,4.8-49.7,5.1-80.6,3.5c-52.2-2.6-105.3-10.4-105.3-10.4l-10.1-87.1
					l166.6-7.2L327,207.4z"/>
				<path fill="#D31140" d="M344.4,314.1l-14.9,115.1c-23.4,6.7-53.5,9.1-83.8,9.3c0.6-0.5,1.3-1.1,2-1.5
					c8.9-6.2,19.6-9.1,29.8-12.9c10.2-3.8,20.5-8.9,26.6-17.9c5.9-8.9,6.7-20.1,7.3-30.7c0.6-9.8,1.2-19.5,1.7-29.3
					c0.5-8.6,1-17.3,1.5-25.9c0.2-2.7,0-5.5,0.3-8.1L344.4,314.1z"/>
				<path opacity="0.3" d="M327,207.4l-7.4,102.8c-19.1,4.8-49.7,5.1-80.6,3.5c0.8-1.6,2.2-3,3.7-4.2c8.5-6.9,19.1-10.9,28.1-17.3
					c8.8-6.2,16.1-15,19.2-25.3c2.2-7.3,2.2-15,2.2-22.6c0-11.8-0.1-23.7-2-35.3L327,207.4z"/>
				<path fill="#F2F2F2" d="M123.5,215.9l2.4,20.8c0.3,2.5,3.3,3.7,5.2,2l2.9-2.5c1.4-1.2,3.4-1,4.5,0.5l8.7,11.1
					c1.3,1.6,3.7,1.6,5,0l7.5-9.8c1.5-2,4.6-1.5,5.5,0.9l3.6,10.1c0.9,2.5,4.2,2.8,5.6,0.6l5.9-9.5c1.3-2,4.3-2,5.4,0.2l7.5,13.9
					c1.2,2.2,4.3,2.2,5.5,0l7.5-13.5c1.2-2.2,4.4-2.1,5.5,0.1l3.4,6.7c1.1,2.1,4,2.3,5.4,0.4l6.7-9.3c1.4-2,4.4-1.7,5.4,0.5l6,13
					c1.1,2.4,4.4,2.5,5.6,0.2l7.9-14.4c1.2-2.1,4.2-2.2,5.4-0.1l4.9,8.1c1.1,1.9,3.8,2,5.2,0.3l9.3-12c1.4-1.9,4.3-1.5,5.3,0.6
					l4.3,9c1.1,2.3,4.2,2.4,5.5,0.3l5.8-9.4c1.5-2.4,5.2-1.8,5.8,1l0.3,1.7c0.6,3,4.6,3.5,5.9,0.7l3.7-7.8c1.2-2.4,4.7-2.4,5.7,0.1
					l0,0c1.3,3.1,5.8,2.3,6-1l1.6-22.2L123.5,215.9z"/>
				
					<ellipse transform="matrix(0.9991 -4.215424e-02 4.215424e-02 0.9991 -8.7207 9.6838)" fill="#FFFFFF" cx="225.3" cy="211.6" rx="101.8" ry="12.2"/>
			</g>
			<g>
				<ellipse fill="#F2F2F2" cx="225.3" cy="210.4" rx="16" ry="3"/>
				
					<path fill="none" stroke="#442E26" stroke-width="0.75" stroke-linecap="round" stroke-linejoin="round" stroke-miterlimit="10" d="
					M224.7,119.4c1,9.5,1.9,19.2,0.2,28.6"/>
				<g>
					<polygon fill="#E0448C" points="218.2,134.4 220.2,211.6 229.3,211.6 232.3,134.4 					"/>
					<polygon fill="#D13B86" points="231.5,208.9 229.3,211.6 232.3,134.4 234.4,139.1 					"/>
				</g>
				<g opacity="0.8">
					<path fill="#FFBA06" d="M224.5,98.3c0,0-16.9,29.2,0.3,29.1C242.1,127.3,224.5,98.3,224.5,98.3z"/>
					<path fill="#FFCB57" d="M224.7,106c0,0-12.4,21.4,0.2,21.4C237.6,127.3,224.7,106,224.7,106z"/>
					<path fill="#FFDD99" d="M224.8,112.8c0,0-8.5,14.6,0.2,14.5C233.6,127.4,224.8,112.8,224.8,112.8z"/>
				</g>
			</g>
			<g>
				<ellipse fill="#F2F2F2" cx="281.9" cy="206.2" rx="10.6" ry="2"/>
				
					<path fill="none" stroke="#442E26" stroke-width="0.75" stroke-linecap="round" stroke-linejoin="round" stroke-miterlimit="10" d="
					M281.6,146c0.6,6.3,1.3,12.7,0.1,18.9"/>
				<g>
					<polygon fill="#E0448C" points="277.3,155.9 278.6,207 284.6,207 286.6,155.9 					"/>
					<polygon fill="#D13B86" points="286.1,205.2 284.6,207 286.6,155.9 288,159 					"/>
				</g>
				<g opacity="0.8">
					<path fill="#FFBA06" d="M281.5,132c0,0-11.2,19.3,0.2,19.3C293.1,151.2,281.5,132,281.5,132z"/>
					<path fill="#FFCB57" d="M281.6,137.1c0,0-8.2,14.2,0.2,14.2C290.1,151.3,281.6,137.1,281.6,137.1z"/>
					<path fill="#FFDD99" d="M281.7,141.7c0,0-5.6,9.6,0.1,9.6C287.5,151.3,281.7,141.7,281.7,141.7z"/>
				</g>
			</g>
			<g>
				<ellipse fill="#F2F2F2" cx="167.5" cy="209.1" rx="10.6" ry="2"/>
				
					<path fill="none" stroke="#442E26" stroke-width="0.75" stroke-linecap="round" stroke-linejoin="round" stroke-miterlimit="10" d="
					M167.2,148.9c0.6,6.3,1.3,12.7,0.1,18.9"/>
				<g>
					<polygon fill="#FFBA06" points="162.9,158.8 164.2,209.9 170.2,209.9 172.2,158.8 					"/>
					<polygon fill="#E29C00" points="171.7,208.1 170.2,209.9 172.2,158.8 173.6,161.9 					"/>
				</g>
				<g opacity="0.8">
					<path fill="#FFBA06" d="M167.1,134.9c0,0-11.2,19.3,0.2,19.3C178.7,154.1,167.1,134.9,167.1,134.9z"/>
					<path fill="#FFCB57" d="M167.2,140c0,0-8.2,14.2,0.2,14.2C175.7,154.1,167.2,140,167.2,140z"/>
					<path fill="#FFDD99" d="M167.3,144.5c0,0-5.6,9.6,0.1,9.6C173.1,154.2,167.3,144.5,167.3,144.5z"/>
				</g>
			</g>
			<g>
				<path opacity="0.8" d="M120.9,318.8c-0.6-0.3-1.2-0.4-1.9-0.4c-2.5,0-4.5,2-4.5,4.5c0,2,1.3,3.8,3.2,4.3
					c0.4,0.1,0.9,0.2,1.4,0.2c2.5,0,4.5-2,4.5-4.5C123.5,321.1,122.4,319.5,120.9,318.8z"/>
				<g>
					<path fill="#E0448C" d="M123,321.7c0,2.5-2,4.5-4.5,4.5c-0.5,0-0.9-0.1-1.4-0.2c-1.8-0.6-3.2-2.3-3.2-4.3c0-2.5,2-4.5,4.5-4.5
						c0.7,0,1.3,0.1,1.9,0.4C122,318.3,123,319.9,123,321.7z"/>
					<path opacity="0.3" d="M123,321.7c0,2.5-2,4.5-4.5,4.5c-0.5,0-0.9-0.1-1.4-0.2c0.1-0.3,0.4-0.6,0.6-0.9
						c0.6-0.6,1.3-1.1,1.9-1.7c0.8-0.9,1.1-2.2,1-3.4c0-0.7-0.3-1.6-0.3-2.5C122,318.3,123,319.9,123,321.7z"/>
					<path opacity="0.5" fill="#FFFFFF" d="M117.2,320.3c-0.3,0.9-0.9,1.5-1.5,1.3c-0.5-0.2-0.7-1-0.5-1.9c0.3-0.9,0.9-1.5,1.5-1.3
						C117.2,318.6,117.4,319.4,117.2,320.3z"/>
					<path opacity="0.5" fill="#FFFFFF" d="M118.8,319c-0.2,0.5-0.5,0.8-0.8,0.7c-0.3-0.1-0.4-0.6-0.3-1c0.2-0.5,0.5-0.8,0.8-0.7
						C118.8,318.1,118.9,318.5,118.8,319z"/>
				</g>
			</g>
			<g>
				<path opacity="0.8" d="M205,333c-0.6-0.3-1.2-0.4-1.9-0.4c-2.5,0-4.5,2-4.5,4.5c0,2,1.3,3.8,3.2,4.3c0.4,0.1,0.9,0.2,1.4,0.2
					c2.5,0,4.5-2,4.5-4.5C207.6,335.3,206.6,333.7,205,333z"/>
				<g>
					<path fill="#E0448C" d="M207.2,335.9c0,2.5-2,4.5-4.5,4.5c-0.5,0-0.9-0.1-1.4-0.2c-1.8-0.6-3.2-2.3-3.2-4.3
						c0-2.5,2-4.5,4.5-4.5c0.7,0,1.3,0.1,1.9,0.4C206.1,332.5,207.2,334.1,207.2,335.9z"/>
					<path opacity="0.3" d="M207.2,335.9c0,2.5-2,4.5-4.5,4.5c-0.5,0-0.9-0.1-1.4-0.2c0.1-0.3,0.4-0.6,0.6-0.9
						c0.6-0.6,1.3-1.1,1.9-1.7c0.8-0.9,1.1-2.2,1-3.4c0-0.7-0.3-1.6-0.3-2.5C206.1,332.5,207.2,334.1,207.2,335.9z"/>
					<path opacity="0.5" fill="#FFFFFF" d="M201.3,334.5c-0.3,0.9-0.9,1.5-1.5,1.3c-0.5-0.2-0.7-1-0.5-1.9c0.3-0.9,0.9-1.5,1.5-1.3
						C201.3,332.8,201.6,333.6,201.3,334.5z"/>
					<path opacity="0.5" fill="#FFFFFF" d="M202.9,333.2c-0.2,0.5-0.5,0.8-0.8,0.7c-0.3-0.1-0.4-0.6-0.3-1c0.2-0.5,0.5-0.8,0.8-0.7
						C203,332.3,203.1,332.7,202.9,333.2z"/>
				</g>
			</g>
			<g>
				<path opacity="0.8" d="M175.7,272.8c-0.6-0.3-1.2-0.4-1.9-0.4c-2.5,0-4.5,2-4.5,4.5c0,2,1.3,3.8,3.2,4.3
					c0.4,0.1,0.9,0.2,1.4,0.2c2.5,0,4.5-2,4.5-4.5C178.4,275,177.3,273.5,175.7,272.8z"/>
				<g>
					<path fill="#E0448C" d="M177.9,275.7c0,2.5-2,4.5-4.5,4.5c-0.5,0-0.9-0.1-1.4-0.2c-1.8-0.6-3.2-2.3-3.2-4.3
						c0-2.5,2-4.5,4.5-4.5c0.7,0,1.3,0.1,1.9,0.4C176.8,272.3,177.9,273.9,177.9,275.7z"/>
					<path opacity="0.3" d="M177.9,275.7c0,2.5-2,4.5-4.5,4.5c-0.5,0-0.9-0.1-1.4-0.2c0.1-0.3,0.4-0.6,0.6-0.9
						c0.6-0.6,1.3-1.1,1.9-1.7c0.8-0.9,1.1-2.2,1-3.4c0-0.7-0.3-1.6-0.3-2.5C176.8,272.3,177.9,273.9,177.9,275.7z"/>
					<path opacity="0.5" fill="#FFFFFF" d="M172,274.3c-0.3,0.9-0.9,1.5-1.5,1.3c-0.5-0.2-0.7-1-0.5-1.9c0.3-0.9,0.9-1.5,1.5-1.3
						C172,272.6,172.3,273.4,172,274.3z"/>
					<path opacity="0.5" fill="#FFFFFF" d="M173.6,273c-0.2,0.5-0.5,0.8-0.8,0.7c-0.3-0.1-0.4-0.6-0.3-1c0.2-0.5,0.5-0.8,0.8-0.7
						C173.7,272.1,173.8,272.5,173.6,273z"/>
				</g>
			</g>
			<g>
				<path opacity="0.8" d="M272.6,274.5c-0.6-0.3-1.2-0.4-1.9-0.4c-2.5,0-4.5,2-4.5,4.5c0,2,1.3,3.8,3.2,4.3
					c0.4,0.1,0.9,0.2,1.4,0.2c2.5,0,4.5-2,4.5-4.5C275.2,276.8,274.1,275.2,272.6,274.5z"/>
				<g>
					<path fill="#E0448C" d="M274.7,277.4c0,2.5-2,4.5-4.5,4.5c-0.5,0-0.9-0.1-1.4-0.2c-1.8-0.6-3.2-2.3-3.2-4.3
						c0-2.5,2-4.5,4.5-4.5c0.7,0,1.3,0.1,1.9,0.4C273.6,274,274.7,275.6,274.7,277.4z"/>
					<path opacity="0.3" d="M274.7,277.4c0,2.5-2,4.5-4.5,4.5c-0.5,0-0.9-0.1-1.4-0.2c0.1-0.3,0.4-0.6,0.6-0.9
						c0.6-0.6,1.3-1.1,1.9-1.7c0.8-0.9,1.1-2.2,1-3.4c0-0.7-0.3-1.6-0.3-2.5C273.6,274,274.7,275.6,274.7,277.4z"/>
					<path opacity="0.5" fill="#FFFFFF" d="M268.8,276c-0.3,0.9-0.9,1.5-1.5,1.3c-0.5-0.2-0.7-1-0.5-1.9c0.3-0.9,0.9-1.5,1.5-1.3
						C268.9,274.3,269.1,275.1,268.8,276z"/>
					<path opacity="0.5" fill="#FFFFFF" d="M270.5,274.7c-0.2,0.5-0.5,0.8-0.8,0.7c-0.3-0.1-0.4-0.6-0.3-1c0.2-0.5,0.5-0.8,0.8-0.7
						C270.5,273.8,270.6,274.2,270.5,274.7z"/>
				</g>
			</g>
			<g>
				<path opacity="0.8" d="M307.8,334.1c-0.6-0.3-1.2-0.4-1.9-0.4c-2.5,0-4.5,2-4.5,4.5c0,2,1.3,3.8,3.2,4.3
					c0.4,0.1,0.9,0.2,1.4,0.2c2.5,0,4.5-2,4.5-4.5C310.4,336.4,309.3,334.8,307.8,334.1z"/>
				<g>
					<path fill="#E0448C" d="M309.9,337.1c0,2.5-2,4.5-4.5,4.5c-0.5,0-0.9-0.1-1.4-0.2c-1.8-0.6-3.2-2.3-3.2-4.3
						c0-2.5,2-4.5,4.5-4.5c0.7,0,1.3,0.1,1.9,0.4C308.8,333.7,309.9,335.3,309.9,337.1z"/>
					<path opacity="0.3" d="M309.9,337.1c0,2.5-2,4.5-4.5,4.5c-0.5,0-0.9-0.1-1.4-0.2c0.1-0.3,0.4-0.6,0.6-0.9
						c0.6-0.6,1.3-1.1,1.9-1.7c0.8-0.9,1.1-2.2,1-3.4c0-0.7-0.3-1.6-0.3-2.5C308.8,333.7,309.9,335.3,309.9,337.1z"/>
					<path opacity="0.5" fill="#FFFFFF" d="M304,335.7c-0.3,0.9-0.9,1.5-1.5,1.3c-0.5-0.2-0.7-1-0.5-1.9c0.3-0.9,0.9-1.5,1.5-1.3
						C304.1,333.9,304.3,334.8,304,335.7z"/>
					<path opacity="0.5" fill="#FFFFFF" d="M305.7,334.4c-0.2,0.5-0.5,0.8-0.8,0.7c-0.3-0.1-0.4-0.6-0.3-1c0.2-0.5,0.5-0.8,0.8-0.7
						C305.7,333.4,305.8,333.9,305.7,334.4z"/>
				</g>
			</g>
			<g>
				<path opacity="0.8" d="M128.5,228.4c-0.4-0.2-0.9-0.3-1.4-0.3c-1.8,0-3.3,1.5-3.3,3.3c0,1.5,1,2.7,2.3,3.1
					c0.3,0.1,0.6,0.1,1,0.1c1.8,0,3.3-1.5,3.3-3.3C130.4,230.1,129.7,229,128.5,228.4z"/>
				<g>
					<path fill="#E0448C" d="M130.1,230.6c0,1.8-1.5,3.3-3.3,3.3c-0.3,0-0.7-0.1-1-0.1c-1.3-0.4-2.3-1.7-2.3-3.1
						c0-1.8,1.5-3.3,3.3-3.3c0.5,0,0.9,0.1,1.4,0.3C129.3,228.1,130.1,229.3,130.1,230.6z"/>
					<path opacity="0.3" d="M130.1,230.6c0,1.8-1.5,3.3-3.3,3.3c-0.3,0-0.7-0.1-1-0.1c0.1-0.2,0.3-0.5,0.4-0.6
						c0.4-0.4,1-0.8,1.4-1.3c0.6-0.7,0.8-1.6,0.7-2.4c0-0.5-0.2-1.2-0.2-1.8C129.3,228.1,130.1,229.3,130.1,230.6z"/>
					<path opacity="0.5" fill="#FFFFFF" d="M125.8,229.6c-0.2,0.6-0.7,1.1-1.1,0.9c-0.4-0.1-0.5-0.7-0.3-1.4
						c0.2-0.6,0.7-1.1,1.1-0.9C125.9,228.3,126,228.9,125.8,229.6z"/>
					<path opacity="0.5" fill="#FFFFFF" d="M127,228.6c-0.1,0.3-0.4,0.6-0.6,0.5c-0.2-0.1-0.3-0.4-0.2-0.8c0.1-0.3,0.4-0.6,0.6-0.5
						C127,227.9,127.1,228.3,127,228.6z"/>
				</g>
			</g>
			<g>
				<path opacity="0.8" d="M184.3,235.1c-0.4-0.2-0.9-0.3-1.4-0.3c-1.8,0-3.3,1.5-3.3,3.3c0,1.5,1,2.7,2.3,3.1
					c0.3,0.1,0.6,0.1,1,0.1c1.8,0,3.3-1.5,3.3-3.3C186.2,236.7,185.4,235.6,184.3,235.1z"/>
				<g>
					<path fill="#E0448C" d="M185.9,237.2c0,1.8-1.5,3.3-3.3,3.3c-0.3,0-0.7-0.1-1-0.1c-1.3-0.4-2.3-1.7-2.3-3.1
						c0-1.8,1.5-3.3,3.3-3.3c0.5,0,0.9,0.1,1.4,0.3C185.1,234.7,185.9,235.9,185.9,237.2z"/>
					<path opacity="0.3" d="M185.9,237.2c0,1.8-1.5,3.3-3.3,3.3c-0.3,0-0.7-0.1-1-0.1c0.1-0.2,0.3-0.5,0.4-0.6
						c0.4-0.4,1-0.8,1.4-1.3c0.6-0.7,0.8-1.6,0.7-2.4c0-0.5-0.2-1.2-0.2-1.8C185.1,234.7,185.9,235.9,185.9,237.2z"/>
					<path opacity="0.5" fill="#FFFFFF" d="M181.6,236.2c-0.2,0.6-0.7,1.1-1.1,0.9c-0.4-0.1-0.5-0.7-0.3-1.4
						c0.2-0.6,0.7-1.1,1.1-0.9C181.6,234.9,181.8,235.5,181.6,236.2z"/>
					<path opacity="0.5" fill="#FFFFFF" d="M182.8,235.2c-0.1,0.3-0.4,0.6-0.6,0.5c-0.2-0.1-0.3-0.4-0.2-0.8
						c0.1-0.3,0.4-0.6,0.6-0.5C182.8,234.6,182.9,234.9,182.8,235.2z"/>
				</g>
			</g>
			<g>
				<path opacity="0.8" d="M239.4,235c-0.4-0.2-0.9-0.3-1.4-0.3c-1.8,0-3.3,1.5-3.3,3.3c0,1.5,1,2.7,2.3,3.1c0.3,0.1,0.6,0.1,1,0.1
					c1.8,0,3.3-1.5,3.3-3.3C241.3,236.7,240.5,235.5,239.4,235z"/>
				<g>
					<path fill="#E0448C" d="M240.9,237.2c0,1.8-1.5,3.3-3.3,3.3c-0.3,0-0.7-0.1-1-0.1c-1.3-0.4-2.3-1.7-2.3-3.1
						c0-1.8,1.5-3.3,3.3-3.3c0.5,0,0.9,0.1,1.4,0.3C240.1,234.7,240.9,235.8,240.9,237.2z"/>
					<path opacity="0.3" d="M240.9,237.2c0,1.8-1.5,3.3-3.3,3.3c-0.3,0-0.7-0.1-1-0.1c0.1-0.2,0.3-0.5,0.4-0.6
						c0.4-0.4,1-0.8,1.4-1.3c0.6-0.7,0.8-1.6,0.7-2.4c0-0.5-0.2-1.2-0.2-1.8C240.1,234.7,240.9,235.8,240.9,237.2z"/>
					<path opacity="0.5" fill="#FFFFFF" d="M236.7,236.1c-0.2,0.6-0.7,1.1-1.1,0.9c-0.4-0.1-0.5-0.7-0.3-1.4
						c0.2-0.6,0.7-1.1,1.1-0.9C236.7,234.9,236.9,235.5,236.7,236.1z"/>
					<path opacity="0.5" fill="#FFFFFF" d="M237.9,235.2c-0.1,0.3-0.4,0.6-0.6,0.5c-0.2-0.1-0.3-0.4-0.2-0.8
						c0.1-0.3,0.4-0.6,0.6-0.5C237.9,234.5,238,234.8,237.9,235.2z"/>
				</g>
			</g>
			<g>
				<path opacity="0.8" d="M298.9,230.3c-0.4-0.2-0.9-0.3-1.4-0.3c-1.8,0-3.3,1.5-3.3,3.3c0,1.5,1,2.7,2.3,3.1
					c0.3,0.1,0.6,0.1,1,0.1c1.8,0,3.3-1.5,3.3-3.3C300.8,231.9,300.1,230.8,298.9,230.3z"/>
				<g>
					<path fill="#E0448C" d="M300.5,232.4c0,1.8-1.5,3.3-3.3,3.3c-0.3,0-0.7-0.1-1-0.1c-1.3-0.4-2.3-1.7-2.3-3.1
						c0-1.8,1.5-3.3,3.3-3.3c0.5,0,0.9,0.1,1.4,0.3C299.7,229.9,300.5,231.1,300.5,232.4z"/>
					<path opacity="0.3" d="M300.5,232.4c0,1.8-1.5,3.3-3.3,3.3c-0.3,0-0.7-0.1-1-0.1c0.1-0.2,0.3-0.5,0.4-0.6
						c0.4-0.4,1-0.8,1.4-1.3c0.6-0.7,0.8-1.6,0.7-2.4c0-0.5-0.2-1.2-0.2-1.8C299.7,229.9,300.5,231.1,300.5,232.4z"/>
					<path opacity="0.5" fill="#FFFFFF" d="M296.2,231.4c-0.2,0.6-0.7,1.1-1.1,0.9c-0.4-0.1-0.5-0.7-0.3-1.4
						c0.2-0.6,0.7-1.1,1.1-0.9C296.3,230.1,296.4,230.7,296.2,231.4z"/>
					<path opacity="0.5" fill="#FFFFFF" d="M297.4,230.4c-0.1,0.3-0.4,0.6-0.6,0.5s-0.3-0.4-0.2-0.8c0.1-0.3,0.4-0.6,0.6-0.5
						C297.4,229.7,297.5,230.1,297.4,230.4z"/>
				</g>
			</g>
			<g>
				<path opacity="0.8" d="M160.4,329c-0.6-0.3-1.2-0.4-1.9-0.4c-2.5,0-4.5,2-4.5,4.5c0,2,1.3,3.8,3.2,4.3c0.4,0.1,0.9,0.2,1.4,0.2
					c2.5,0,4.5-2,4.5-4.5C163.1,331.3,162,329.7,160.4,329z"/>
				<g>
					<path fill="#FFBA06" d="M162.6,332c0,2.5-2,4.5-4.5,4.5c-0.5,0-0.9-0.1-1.4-0.2c-1.8-0.6-3.2-2.3-3.2-4.3c0-2.5,2-4.5,4.5-4.5
						c0.7,0,1.3,0.1,1.9,0.4C161.5,328.6,162.6,330.1,162.6,332z"/>
					<path opacity="0.3" d="M162.6,332c0,2.5-2,4.5-4.5,4.5c-0.5,0-0.9-0.1-1.4-0.2c0.1-0.3,0.4-0.6,0.6-0.9
						c0.6-0.6,1.3-1.1,1.9-1.7c0.8-0.9,1.1-2.2,1-3.4c0-0.7-0.3-1.6-0.3-2.5C161.5,328.6,162.6,330.1,162.6,332z"/>
					<path opacity="0.5" fill="#FFFFFF" d="M156.7,330.6c-0.3,0.9-0.9,1.5-1.5,1.3c-0.5-0.2-0.7-1-0.5-1.9c0.3-0.9,0.9-1.5,1.5-1.3
						C156.8,328.8,157,329.7,156.7,330.6z"/>
					<path opacity="0.5" fill="#FFFFFF" d="M158.3,329.3c-0.2,0.5-0.5,0.8-0.8,0.7c-0.3-0.1-0.4-0.6-0.3-1c0.2-0.5,0.5-0.8,0.8-0.7
						C158.4,328.3,158.5,328.8,158.3,329.3z"/>
				</g>
			</g>
			<g>
				<path opacity="0.8" d="M114.5,380.7c-0.6-0.3-1.2-0.4-1.9-0.4c-2.5,0-4.5,2-4.5,4.5c0,2,1.3,3.8,3.2,4.3
					c0.4,0.1,0.9,0.2,1.4,0.2c2.5,0,4.5-2,4.5-4.5C117.2,383,116.1,381.4,114.5,380.7z"/>
				<g>
					<path fill="#FFBA06" d="M116.7,383.7c0,2.5-2,4.5-4.5,4.5c-0.5,0-0.9-0.1-1.4-0.2c-1.8-0.6-3.2-2.3-3.2-4.3
						c0-2.5,2-4.5,4.5-4.5c0.7,0,1.3,0.1,1.9,0.4C115.6,380.3,116.7,381.8,116.7,383.7z"/>
					<path opacity="0.3" d="M116.7,383.7c0,2.5-2,4.5-4.5,4.5c-0.5,0-0.9-0.1-1.4-0.2c0.1-0.3,0.4-0.6,0.6-0.9
						c0.6-0.6,1.3-1.1,1.9-1.7c0.8-0.9,1.1-2.2,1-3.4c0-0.7-0.3-1.6-0.3-2.5C115.6,380.3,116.7,381.8,116.7,383.7z"/>
					<path opacity="0.5" fill="#FFFFFF" d="M110.8,382.3c-0.3,0.9-0.9,1.5-1.5,1.3c-0.5-0.2-0.7-1-0.5-1.9c0.3-0.9,0.9-1.5,1.5-1.3
						C110.9,380.5,111.1,381.4,110.8,382.3z"/>
					<path opacity="0.5" fill="#FFFFFF" d="M112.4,381c-0.2,0.5-0.5,0.8-0.8,0.7c-0.3-0.1-0.4-0.6-0.3-1c0.2-0.5,0.5-0.8,0.8-0.7
						C112.5,380,112.6,380.5,112.4,381z"/>
				</g>
			</g>
			<g>
				<path opacity="0.8" d="M195.4,388.6c-0.6-0.3-1.2-0.4-1.9-0.4c-2.5,0-4.5,2-4.5,4.5c0,2,1.3,3.8,3.2,4.3
					c0.4,0.1,0.9,0.2,1.4,0.2c2.5,0,4.5-2,4.5-4.5C198.1,390.9,197,389.4,195.4,388.6z"/>
				<g>
					<path fill="#FFBA06" d="M197.6,391.6c0,2.5-2,4.5-4.5,4.5c-0.5,0-0.9-0.1-1.4-0.2c-1.8-0.6-3.2-2.3-3.2-4.3
						c0-2.5,2-4.5,4.5-4.5c0.7,0,1.3,0.1,1.9,0.4C196.5,388.2,197.6,389.8,197.6,391.6z"/>
					<path opacity="0.3" d="M197.6,391.6c0,2.5-2,4.5-4.5,4.5c-0.5,0-0.9-0.1-1.4-0.2c0.1-0.3,0.4-0.6,0.6-0.9
						c0.6-0.6,1.3-1.1,1.9-1.7c0.8-0.9,1.1-2.2,1-3.4c0-0.7-0.3-1.6-0.3-2.5C196.5,388.2,197.6,389.8,197.6,391.6z"/>
					<path opacity="0.5" fill="#FFFFFF" d="M191.7,390.2c-0.3,0.9-0.9,1.5-1.5,1.3c-0.5-0.2-0.7-1-0.5-1.9c0.3-0.9,0.9-1.5,1.5-1.3
						C191.8,388.5,192,389.3,191.7,390.2z"/>
					<path opacity="0.5" fill="#FFFFFF" d="M193.4,388.9c-0.2,0.5-0.5,0.8-0.8,0.7c-0.3-0.1-0.4-0.6-0.3-1c0.2-0.5,0.5-0.8,0.8-0.7
						C193.4,387.9,193.5,388.4,193.4,388.9z"/>
				</g>
			</g>
			<g>
				<path opacity="0.8" d="M287.7,387.5c-0.6-0.3-1.2-0.4-1.9-0.4c-2.5,0-4.5,2-4.5,4.5c0,2,1.3,3.8,3.2,4.3
					c0.4,0.1,0.9,0.2,1.4,0.2c2.5,0,4.5-2,4.5-4.5C290.4,389.8,289.3,388.2,287.7,387.5z"/>
				<g>
					<path fill="#FFBA06" d="M289.9,390.4c0,2.5-2,4.5-4.5,4.5c-0.5,0-0.9-0.1-1.4-0.2c-1.8-0.6-3.2-2.3-3.2-4.3
						c0-2.5,2-4.5,4.5-4.5c0.7,0,1.3,0.1,1.9,0.4C288.8,387,289.9,388.6,289.9,390.4z"/>
					<path opacity="0.3" d="M289.9,390.4c0,2.5-2,4.5-4.5,4.5c-0.5,0-0.9-0.1-1.4-0.2c0.1-0.3,0.4-0.6,0.6-0.9
						c0.6-0.6,1.3-1.1,1.9-1.7c0.8-0.9,1.1-2.2,1-3.4c0-0.7-0.3-1.6-0.3-2.5C288.8,387,289.9,388.6,289.9,390.4z"/>
					<path opacity="0.5" fill="#FFFFFF" d="M284,389c-0.3,0.9-0.9,1.5-1.5,1.3c-0.5-0.2-0.7-1-0.5-1.9c0.3-0.9,0.9-1.5,1.5-1.3
						C284.1,387.3,284.3,388.1,284,389z"/>
					<path opacity="0.5" fill="#FFFFFF" d="M285.6,387.7c-0.2,0.5-0.5,0.8-0.8,0.7c-0.3-0.1-0.4-0.6-0.3-1c0.2-0.5,0.5-0.8,0.8-0.7
						C285.7,386.8,285.8,387.2,285.6,387.7z"/>
				</g>
			</g>
			<g>
				<path opacity="0.8" d="M152.6,385.8c-0.6-0.3-1.2-0.4-1.9-0.4c-2.5,0-4.5,2-4.5,4.5c0,2,1.3,3.8,3.2,4.3
					c0.4,0.1,0.9,0.2,1.4,0.2c2.5,0,4.5-2,4.5-4.5C155.3,388.1,154.2,386.5,152.6,385.8z"/>
				<g>
					<path fill="#F2F2F2" d="M154.8,388.8c0,2.5-2,4.5-4.5,4.5c-0.5,0-0.9-0.1-1.4-0.2c-1.8-0.6-3.2-2.3-3.2-4.3
						c0-2.5,2-4.5,4.5-4.5c0.7,0,1.3,0.1,1.9,0.4C153.7,385.4,154.8,387,154.8,388.8z"/>
					<path opacity="0.3" d="M154.8,388.8c0,2.5-2,4.5-4.5,4.5c-0.5,0-0.9-0.1-1.4-0.2c0.1-0.3,0.4-0.6,0.6-0.9
						c0.6-0.6,1.3-1.1,1.9-1.7c0.8-0.9,1.1-2.2,1-3.4c0-0.7-0.3-1.6-0.3-2.5C153.7,385.4,154.8,387,154.8,388.8z"/>
					<path opacity="0.5" fill="#FFFFFF" d="M148.9,387.4c-0.3,0.9-0.9,1.5-1.5,1.3c-0.5-0.2-0.7-1-0.5-1.9s0.9-1.5,1.5-1.3
						C149,385.6,149.2,386.5,148.9,387.4z"/>
					<path opacity="0.5" fill="#FFFFFF" d="M150.5,386.1c-0.2,0.5-0.5,0.8-0.8,0.7c-0.3-0.1-0.4-0.6-0.3-1c0.2-0.5,0.5-0.8,0.8-0.7
						C150.6,385.1,150.7,385.6,150.5,386.1z"/>
				</g>
			</g>
			<g>
				<path opacity="0.8" d="M134.6,269.9c-0.6-0.3-1.2-0.4-1.9-0.4c-2.5,0-4.5,2-4.5,4.5c0,2,1.3,3.8,3.2,4.3
					c0.4,0.1,0.9,0.2,1.4,0.2c2.5,0,4.5-2,4.5-4.5C137.3,272.2,136.2,270.7,134.6,269.9z"/>
				<g>
					<path fill="#F2F2F2" d="M136.8,272.9c0,2.5-2,4.5-4.5,4.5c-0.5,0-0.9-0.1-1.4-0.2c-1.8-0.6-3.2-2.3-3.2-4.3
						c0-2.5,2-4.5,4.5-4.5c0.7,0,1.3,0.1,1.9,0.4C135.7,269.5,136.8,271.1,136.8,272.9z"/>
					<path opacity="0.3" d="M136.8,272.9c0,2.5-2,4.5-4.5,4.5c-0.5,0-0.9-0.1-1.4-0.2c0.1-0.3,0.4-0.6,0.6-0.9
						c0.6-0.6,1.3-1.1,1.9-1.7c0.8-0.9,1.1-2.2,1-3.4c0-0.7-0.3-1.6-0.3-2.5C135.7,269.5,136.8,271.1,136.8,272.9z"/>
					<path opacity="0.5" fill="#FFFFFF" d="M130.9,271.5c-0.3,0.9-0.9,1.5-1.5,1.3c-0.5-0.2-0.7-1-0.5-1.9c0.3-0.9,0.9-1.5,1.5-1.3
						C131,269.8,131.2,270.6,130.9,271.5z"/>
					<path opacity="0.5" fill="#FFFFFF" d="M132.6,270.2c-0.2,0.5-0.5,0.8-0.8,0.7c-0.3-0.1-0.4-0.6-0.3-1c0.2-0.5,0.5-0.8,0.8-0.7
						C132.6,269.2,132.7,269.7,132.6,270.2z"/>
				</g>
			</g>
			<g>
				<path opacity="0.8" d="M221.4,275.1c-0.6-0.3-1.2-0.4-1.9-0.4c-2.5,0-4.5,2-4.5,4.5c0,2,1.3,3.8,3.2,4.3
					c0.4,0.1,0.9,0.2,1.4,0.2c2.5,0,4.5-2,4.5-4.5C224,277.3,222.9,275.8,221.4,275.1z"/>
				<g>
					<path fill="#F2F2F2" d="M223.5,278c0,2.5-2,4.5-4.5,4.5c-0.5,0-0.9-0.1-1.4-0.2c-1.8-0.6-3.2-2.3-3.2-4.3c0-2.5,2-4.5,4.5-4.5
						c0.7,0,1.3,0.1,1.9,0.4C222.5,274.6,223.5,276.2,223.5,278z"/>
					<path opacity="0.3" d="M223.5,278c0,2.5-2,4.5-4.5,4.5c-0.5,0-0.9-0.1-1.4-0.2c0.1-0.3,0.4-0.6,0.6-0.9
						c0.6-0.6,1.3-1.1,1.9-1.7c0.8-0.9,1.1-2.2,1-3.4c0-0.7-0.3-1.6-0.3-2.5C222.5,274.6,223.5,276.2,223.5,278z"/>
					<path opacity="0.5" fill="#FFFFFF" d="M217.7,276.6c-0.3,0.9-0.9,1.5-1.5,1.3c-0.5-0.2-0.7-1-0.5-1.9c0.3-0.9,0.9-1.5,1.5-1.3
						C217.7,274.9,217.9,275.7,217.7,276.6z"/>
					<path opacity="0.5" fill="#FFFFFF" d="M219.3,275.3c-0.2,0.5-0.5,0.8-0.8,0.7c-0.3-0.1-0.4-0.6-0.3-1c0.2-0.5,0.5-0.8,0.8-0.7
						C219.3,274.4,219.4,274.8,219.3,275.3z"/>
				</g>
			</g>
			<g>
				<path opacity="0.8" d="M321.1,269.3c-0.6-0.3-1.2-0.4-1.9-0.4c-2.5,0-4.5,2-4.5,4.5c0,2,1.3,3.8,3.2,4.3
					c0.4,0.1,0.9,0.2,1.4,0.2c2.5,0,4.5-2,4.5-4.5C323.7,271.6,322.7,270,321.1,269.3z"/>
				<g>
					<path fill="#F2F2F2" d="M323.3,272.3c0,2.5-2,4.5-4.5,4.5c-0.5,0-0.9-0.1-1.4-0.2c-1.8-0.6-3.2-2.3-3.2-4.3
						c0-2.5,2-4.5,4.5-4.5c0.7,0,1.3,0.1,1.9,0.4C322.2,268.8,323.3,270.4,323.3,272.3z"/>
					<path opacity="0.3" d="M323.3,272.3c0,2.5-2,4.5-4.5,4.5c-0.5,0-0.9-0.1-1.4-0.2c0.1-0.3,0.4-0.6,0.6-0.9
						c0.6-0.6,1.3-1.1,1.9-1.7c0.8-0.9,1.1-2.2,1-3.4c0-0.7-0.3-1.6-0.3-2.5C322.2,268.8,323.3,270.4,323.3,272.3z"/>
					<path opacity="0.5" fill="#FFFFFF" d="M317.4,270.8c-0.3,0.9-0.9,1.5-1.5,1.3c-0.5-0.2-0.7-1-0.5-1.9c0.3-0.9,0.9-1.5,1.5-1.3
						C317.4,269.1,317.6,270,317.4,270.8z"/>
					<path opacity="0.5" fill="#FFFFFF" d="M319,269.5c-0.2,0.5-0.5,0.8-0.8,0.7c-0.3-0.1-0.4-0.6-0.3-1c0.2-0.5,0.5-0.8,0.8-0.7
						C319,268.6,319.2,269.1,319,269.5z"/>
				</g>
			</g>
			<g>
				<path opacity="0.8" d="M333.1,383.9c-0.6-0.3-1.2-0.4-1.9-0.4c-2.5,0-4.5,2-4.5,4.5c0,2,1.3,3.8,3.2,4.3
					c0.4,0.1,0.9,0.2,1.4,0.2c2.5,0,4.5-2,4.5-4.5C335.7,386.2,334.7,384.7,333.1,383.9z"/>
				<g>
					<path fill="#F2F2F2" d="M335.3,386.9c0,2.5-2,4.5-4.5,4.5c-0.5,0-0.9-0.1-1.4-0.2c-1.8-0.6-3.2-2.3-3.2-4.3
						c0-2.5,2-4.5,4.5-4.5c0.7,0,1.3,0.1,1.9,0.4C334.2,383.5,335.3,385.1,335.3,386.9z"/>
					<path opacity="0.3" d="M335.3,386.9c0,2.5-2,4.5-4.5,4.5c-0.5,0-0.9-0.1-1.4-0.2c0.1-0.3,0.4-0.6,0.6-0.9
						c0.6-0.6,1.3-1.1,1.9-1.7c0.8-0.9,1.1-2.2,1-3.4c0-0.7-0.3-1.6-0.3-2.5C334.2,383.5,335.3,385.1,335.3,386.9z"/>
					<path opacity="0.5" fill="#FFFFFF" d="M329.4,385.5c-0.3,0.9-0.9,1.5-1.5,1.3c-0.5-0.2-0.7-1-0.5-1.9c0.3-0.9,0.9-1.5,1.5-1.3
						C329.4,383.8,329.7,384.6,329.4,385.5z"/>
					<path opacity="0.5" fill="#FFFFFF" d="M331,384.2c-0.2,0.5-0.5,0.8-0.8,0.7c-0.3-0.1-0.4-0.6-0.3-1c0.2-0.5,0.5-0.8,0.8-0.7
						C331,383.2,331.2,383.7,331,384.2z"/>
				</g>
			</g>
			<g>
				<path opacity="0.8" d="M239.6,389.8c-0.6-0.3-1.2-0.4-1.9-0.4c-2.5,0-4.5,2-4.5,4.5c0,2,1.3,3.8,3.2,4.3
					c0.4,0.1,0.9,0.2,1.4,0.2c2.5,0,4.5-2,4.5-4.5C242.2,392.1,241.2,390.5,239.6,389.8z"/>
				<g>
					<path fill="#F2F2F2" d="M241.8,392.8c0,2.5-2,4.5-4.5,4.5c-0.5,0-0.9-0.1-1.4-0.2c-1.8-0.6-3.2-2.3-3.2-4.3
						c0-2.5,2-4.5,4.5-4.5c0.7,0,1.3,0.1,1.9,0.4C240.7,389.3,241.8,390.9,241.8,392.8z"/>
					<path opacity="0.3" d="M241.8,392.8c0,2.5-2,4.5-4.5,4.5c-0.5,0-0.9-0.1-1.4-0.2c0.1-0.3,0.4-0.6,0.6-0.9
						c0.6-0.6,1.3-1.1,1.9-1.7c0.8-0.9,1.1-2.2,1-3.4c0-0.7-0.3-1.6-0.3-2.5C240.7,389.3,241.8,390.9,241.8,392.8z"/>
					<path opacity="0.5" fill="#FFFFFF" d="M235.9,391.3c-0.3,0.9-0.9,1.5-1.5,1.3c-0.5-0.2-0.7-1-0.5-1.9c0.3-0.9,0.9-1.5,1.5-1.3
						C235.9,389.6,236.2,390.5,235.9,391.3z"/>
					<path opacity="0.5" fill="#FFFFFF" d="M237.5,390c-0.2,0.5-0.5,0.8-0.8,0.7c-0.3-0.1-0.4-0.6-0.3-1c0.2-0.5,0.5-0.8,0.8-0.7
						C237.6,389.1,237.7,389.6,237.5,390z"/>
				</g>
			</g>
			<g>
				<path opacity="0.8" d="M154.1,234.7c-0.4-0.2-0.9-0.3-1.3-0.3c-1.8,0-3.2,1.4-3.2,3.2c0,1.4,0.9,2.6,2.2,3
					c0.3,0.1,0.6,0.1,1,0.1c1.8,0,3.2-1.4,3.2-3.2C155.9,236.3,155.2,235.2,154.1,234.7z"/>
				<g>
					<path fill="#FFBA06" d="M155.6,236.8c0,1.8-1.4,3.2-3.2,3.2c-0.3,0-0.6-0.1-1-0.1c-1.3-0.4-2.2-1.6-2.2-3
						c0-1.8,1.4-3.2,3.2-3.2c0.5,0,0.9,0.1,1.3,0.3C154.8,234.4,155.6,235.5,155.6,236.8z"/>
					<path opacity="0.3" d="M155.6,236.8c0,1.8-1.4,3.2-3.2,3.2c-0.3,0-0.6-0.1-1-0.1c0.1-0.2,0.3-0.5,0.4-0.6
						c0.4-0.4,0.9-0.8,1.3-1.2c0.5-0.6,0.7-1.5,0.7-2.4c0-0.5-0.2-1.2-0.2-1.7C154.8,234.4,155.6,235.5,155.6,236.8z"/>
					<path opacity="0.5" fill="#FFFFFF" d="M151.4,235.8c-0.2,0.6-0.7,1-1,0.9c-0.4-0.1-0.5-0.7-0.3-1.3c0.2-0.6,0.7-1,1-0.9
						C151.5,234.6,151.6,235.2,151.4,235.8z"/>
					<path opacity="0.5" fill="#FFFFFF" d="M152.6,234.9c-0.1,0.3-0.4,0.6-0.6,0.5s-0.3-0.4-0.2-0.7s0.4-0.6,0.6-0.5
						C152.6,234.2,152.7,234.6,152.6,234.9z"/>
				</g>
			</g>
			<g>
				<path opacity="0.8" d="M212,236.7c-0.4-0.2-0.9-0.3-1.3-0.3c-1.8,0-3.2,1.4-3.2,3.2c0,1.4,0.9,2.6,2.2,3c0.3,0.1,0.6,0.1,1,0.1
					c1.8,0,3.2-1.4,3.2-3.2C213.9,238.3,213.1,237.2,212,236.7z"/>
				<g>
					<path fill="#FFBA06" d="M213.6,238.8c0,1.8-1.4,3.2-3.2,3.2c-0.3,0-0.6-0.1-1-0.1c-1.3-0.4-2.2-1.6-2.2-3
						c0-1.8,1.4-3.2,3.2-3.2c0.5,0,0.9,0.1,1.3,0.3C212.8,236.4,213.6,237.5,213.6,238.8z"/>
					<path opacity="0.3" d="M213.6,238.8c0,1.8-1.4,3.2-3.2,3.2c-0.3,0-0.6-0.1-1-0.1c0.1-0.2,0.3-0.5,0.4-0.6
						c0.4-0.4,0.9-0.8,1.3-1.2c0.5-0.6,0.7-1.5,0.7-2.4c0-0.5-0.2-1.2-0.2-1.7C212.8,236.4,213.6,237.5,213.6,238.8z"/>
					<path opacity="0.5" fill="#FFFFFF" d="M209.4,237.8c-0.2,0.6-0.7,1-1,0.9c-0.4-0.1-0.5-0.7-0.3-1.3c0.2-0.6,0.7-1,1-0.9
						S209.6,237.2,209.4,237.8z"/>
					<path opacity="0.5" fill="#FFFFFF" d="M210.6,236.9c-0.1,0.3-0.4,0.6-0.6,0.5c-0.2-0.1-0.3-0.4-0.2-0.7s0.4-0.6,0.6-0.5
						S210.7,236.5,210.6,236.9z"/>
				</g>
			</g>
			<g>
				<path opacity="0.8" d="M266.6,233.1c-0.4-0.2-0.9-0.3-1.3-0.3c-1.8,0-3.2,1.4-3.2,3.2c0,1.4,0.9,2.6,2.2,3
					c0.3,0.1,0.6,0.1,1,0.1c1.8,0,3.2-1.4,3.2-3.2C268.5,234.7,267.7,233.6,266.6,233.1z"/>
				<g>
					<path fill="#FFBA06" d="M268.1,235.2c0,1.8-1.4,3.2-3.2,3.2c-0.3,0-0.6-0.1-1-0.1c-1.3-0.4-2.2-1.6-2.2-3
						c0-1.8,1.4-3.2,3.2-3.2c0.5,0,0.9,0.1,1.3,0.3C267.4,232.8,268.1,233.9,268.1,235.2z"/>
					<path opacity="0.3" d="M268.1,235.2c0,1.8-1.4,3.2-3.2,3.2c-0.3,0-0.6-0.1-1-0.1c0.1-0.2,0.3-0.5,0.4-0.6
						c0.4-0.4,0.9-0.8,1.3-1.2c0.5-0.6,0.7-1.5,0.7-2.4c0-0.5-0.2-1.2-0.2-1.7C267.4,232.8,268.1,233.9,268.1,235.2z"/>
					<path opacity="0.5" fill="#FFFFFF" d="M264,234.2c-0.2,0.6-0.7,1-1,0.9c-0.4-0.1-0.5-0.7-0.3-1.3c0.2-0.6,0.7-1,1-0.9
						C264,233,264.2,233.6,264,234.2z"/>
					<path opacity="0.5" fill="#FFFFFF" d="M265.1,233.3c-0.1,0.3-0.4,0.6-0.6,0.5c-0.2-0.1-0.3-0.4-0.2-0.7
						c0.1-0.3,0.4-0.6,0.6-0.5C265.2,232.6,265.2,232.9,265.1,233.3z"/>
				</g>
			</g>
			<g>
				<path opacity="0.8" d="M322.3,224.8c-0.4-0.2-0.9-0.3-1.3-0.3c-1.8,0-3.2,1.4-3.2,3.2c0,1.4,0.9,2.6,2.2,3
					c0.3,0.1,0.6,0.1,1,0.1c1.8,0,3.2-1.4,3.2-3.2C324.1,226.4,323.4,225.3,322.3,224.8z"/>
				<g>
					<path fill="#FFBA06" d="M323.8,226.9c0,1.8-1.4,3.2-3.2,3.2c-0.3,0-0.6-0.1-1-0.1c-1.3-0.4-2.2-1.6-2.2-3
						c0-1.8,1.4-3.2,3.2-3.2c0.5,0,0.9,0.1,1.3,0.3C323,224.5,323.8,225.6,323.8,226.9z"/>
					<path opacity="0.3" d="M323.8,226.9c0,1.8-1.4,3.2-3.2,3.2c-0.3,0-0.6-0.1-1-0.1c0.1-0.2,0.3-0.5,0.4-0.6
						c0.4-0.4,0.9-0.8,1.3-1.2c0.5-0.6,0.7-1.5,0.7-2.4c0-0.5-0.2-1.2-0.2-1.7C323,224.5,323.8,225.6,323.8,226.9z"/>
					<path opacity="0.5" fill="#FFFFFF" d="M319.6,225.9c-0.2,0.6-0.7,1-1,0.9c-0.4-0.1-0.5-0.7-0.3-1.3c0.2-0.6,0.7-1,1-0.9
						C319.7,224.7,319.8,225.3,319.6,225.9z"/>
					<path opacity="0.5" fill="#FFFFFF" d="M320.8,225c-0.1,0.3-0.4,0.6-0.6,0.5c-0.2-0.1-0.3-0.4-0.2-0.7c0.1-0.3,0.4-0.6,0.6-0.5
						S320.9,224.6,320.8,225z"/>
				</g>
			</g>
			<g>
				<path opacity="0.8" d="M256.6,336.9c-0.6-0.3-1.2-0.4-1.9-0.4c-2.5,0-4.5,2-4.5,4.5c0,2,1.3,3.8,3.2,4.3
					c0.4,0.1,0.9,0.2,1.4,0.2c2.5,0,4.5-2,4.5-4.5C259.3,339.2,258.2,337.6,256.6,336.9z"/>
				<g>
					<path fill="#FFBA06" d="M258.8,339.9c0,2.5-2,4.5-4.5,4.5c-0.5,0-0.9-0.1-1.4-0.2c-1.8-0.6-3.2-2.3-3.2-4.3
						c0-2.5,2-4.5,4.5-4.5c0.7,0,1.3,0.1,1.9,0.4C257.7,336.5,258.8,338.1,258.8,339.9z"/>
					<path opacity="0.3" d="M258.8,339.9c0,2.5-2,4.5-4.5,4.5c-0.5,0-0.9-0.1-1.4-0.2c0.1-0.3,0.4-0.6,0.6-0.9
						c0.6-0.6,1.3-1.1,1.9-1.7c0.8-0.9,1.1-2.2,1-3.4c0-0.7-0.3-1.6-0.3-2.5C257.7,336.5,258.8,338.1,258.8,339.9z"/>
					<path opacity="0.5" fill="#FFFFFF" d="M252.9,338.5c-0.3,0.9-0.9,1.5-1.5,1.3c-0.5-0.2-0.7-1-0.5-1.9c0.3-0.9,0.9-1.5,1.5-1.3
						C253,336.7,253.2,337.6,252.9,338.5z"/>
					<path opacity="0.5" fill="#FFFFFF" d="M254.5,337.2c-0.2,0.5-0.5,0.8-0.8,0.7c-0.3-0.1-0.4-0.6-0.3-1c0.2-0.5,0.5-0.8,0.8-0.7
						C254.6,336.2,254.7,336.7,254.5,337.2z"/>
				</g>
			</g>
			<g>
				<path opacity="0.8" d="M340.4,331.8c-0.6-0.3-1.2-0.4-1.9-0.4c-2.5,0-4.5,2-4.5,4.5c0,2,1.3,3.8,3.2,4.3
					c0.4,0.1,0.9,0.2,1.4,0.2c2.5,0,4.5-2,4.5-4.5C343,334.1,342,332.5,340.4,331.8z"/>
				<g>
					<path fill="#FFBA06" d="M342.6,334.8c0,2.5-2,4.5-4.5,4.5c-0.5,0-0.9-0.1-1.4-0.2c-1.8-0.6-3.2-2.3-3.2-4.3
						c0-2.5,2-4.5,4.5-4.5c0.7,0,1.3,0.1,1.9,0.4C341.5,331.4,342.6,332.9,342.6,334.8z"/>
					<path opacity="0.3" d="M342.6,334.8c0,2.5-2,4.5-4.5,4.5c-0.5,0-0.9-0.1-1.4-0.2c0.1-0.3,0.4-0.6,0.6-0.9
						c0.6-0.6,1.3-1.1,1.9-1.7c0.8-0.9,1.1-2.2,1-3.4c0-0.7-0.3-1.6-0.3-2.5C341.5,331.4,342.6,332.9,342.6,334.8z"/>
					<path opacity="0.5" fill="#FFFFFF" d="M336.7,333.3c-0.3,0.9-0.9,1.5-1.5,1.3c-0.5-0.2-0.7-1-0.5-1.9c0.3-0.9,0.9-1.5,1.5-1.3
						C336.7,331.6,336.9,332.5,336.7,333.3z"/>
					<path opacity="0.5" fill="#FFFFFF" d="M338.3,332.1c-0.2,0.5-0.5,0.8-0.8,0.7c-0.3-0.1-0.4-0.6-0.3-1s0.5-0.8,0.8-0.7
						C338.3,331.1,338.5,331.6,338.3,332.1z"/>
				</g>
			</g>
			<g>
				<g opacity="0.3">
					<path d="M167.6,376.7c-0.6,0-1.3,0-2-0.1c-3.8-0.5-7.2-2.6-10.4-4.6c-1.4-0.9-2.7-1.7-4.1-2.4c-7.9-4.1-17.3-3.9-25.1,0.6
						c-1.1,0.6-2.3,0-2.8-1.2c-0.5-1.3,0-2.8,1-3.4c8.8-5.1,19.5-5.3,28.5-0.7c1.5,0.8,2.9,1.7,4.3,2.5c3,1.9,5.9,3.7,9,4.1
						c3.9,0.5,7.8-1.2,11.9-2.9c3.1-1.4,6.4-2.8,9.8-3.3c1.2-0.2,2.2,0.9,2.3,2.3c0.1,1.4-0.7,2.7-1.9,2.8c-3,0.4-5.8,1.7-8.9,3
						C175.6,375,171.7,376.7,167.6,376.7z"/>
				</g>
				<g>
					<path fill="#FFFFFF" d="M167.6,375.3c-0.6,0-1.3,0-2-0.1c-3.8-0.5-7.2-2.6-10.4-4.6c-1.4-0.9-2.7-1.7-4.1-2.4
						c-7.9-4.1-17.3-3.9-25.1,0.6c-1.1,0.6-2.3,0-2.8-1.2s0-2.8,1-3.4c8.8-5.1,19.5-5.3,28.5-0.7c1.5,0.8,2.9,1.7,4.3,2.5
						c3,1.9,5.9,3.7,9,4.1c3.9,0.5,7.8-1.2,11.9-2.9c3.1-1.4,6.4-2.8,9.8-3.3c1.2-0.2,2.2,0.9,2.3,2.3c0.1,1.4-0.7,2.7-1.9,2.8
						c-3,0.4-5.8,1.7-8.9,3C175.6,373.6,171.7,375.3,167.6,375.3z"/>
				</g>
			</g>
			<g>
				<g opacity="0.3">
					<path d="M281.6,383.8c-0.6,0-1.3,0-2-0.1c-3.8-0.5-7.2-2.6-10.4-4.6c-1.4-0.9-2.7-1.7-4.1-2.4c-7.9-4.1-17.3-3.9-25.1,0.6
						c-1.1,0.6-2.3,0-2.8-1.2c-0.5-1.3,0-2.8,1-3.4c8.8-5.1,19.5-5.3,28.5-0.7c1.5,0.8,2.9,1.7,4.3,2.5c3,1.9,5.9,3.7,9,4.1
						c3.9,0.5,7.8-1.2,11.9-2.9c3.1-1.4,6.4-2.8,9.8-3.3c1.2-0.2,2.2,0.9,2.3,2.3c0.1,1.4-0.7,2.7-1.9,2.8c-3,0.4-5.8,1.7-8.9,3
						C289.7,382.1,285.8,383.8,281.6,383.8z"/>
				</g>
				<g>
					<path fill="#FFFFFF" d="M281.6,382.4c-0.6,0-1.3,0-2-0.1c-3.8-0.5-7.2-2.6-10.4-4.6c-1.4-0.9-2.7-1.7-4.1-2.4
						c-7.9-4.1-17.3-3.9-25.1,0.6c-1.1,0.6-2.3,0-2.8-1.2c-0.5-1.3,0-2.8,1-3.4c8.8-5.1,19.5-5.3,28.5-0.7c1.5,0.8,2.9,1.7,4.3,2.5
						c3,1.9,5.9,3.7,9,4.1c3.9,0.5,7.8-1.2,11.9-2.9c3.1-1.4,6.4-2.8,9.8-3.3c1.2-0.2,2.2,0.9,2.3,2.3c0.1,1.4-0.7,2.7-1.9,2.8
						c-3,0.4-5.8,1.7-8.9,3C289.7,380.7,285.8,382.4,281.6,382.4z"/>
				</g>
			</g>
			<g>
				<g opacity="0.3">
					<path d="M227.7,423.8c-0.6,0-1.3,0-2-0.1c-3.8-0.5-7.2-2.6-10.4-4.6c-1.4-0.9-2.7-1.7-4.1-2.4c-7.9-4.1-17.3-3.9-25.1,0.6
						c-1.1,0.6-2.3,0-2.8-1.2c-0.5-1.3,0-2.8,1-3.4c8.8-5.1,19.5-5.3,28.5-0.7c1.5,0.8,2.9,1.7,4.3,2.5c3,1.9,5.9,3.7,9,4.1
						c3.9,0.5,7.8-1.2,11.9-2.9c3.1-1.4,6.4-2.8,9.8-3.3c1.2-0.2,2.2,0.9,2.3,2.3c0.1,1.4-0.7,2.7-1.9,2.8c-3,0.4-5.8,1.7-8.9,3
						C235.7,422.1,231.8,423.8,227.7,423.8z"/>
				</g>
				<g>
					<path fill="#FFBA06" d="M227.7,422.4c-0.6,0-1.3,0-2-0.1c-3.8-0.5-7.2-2.6-10.4-4.6c-1.4-0.9-2.7-1.7-4.1-2.4
						c-7.9-4.1-17.3-3.9-25.1,0.6c-1.1,0.6-2.3,0-2.8-1.2c-0.5-1.3,0-2.8,1-3.4c8.8-5.1,19.5-5.3,28.5-0.7c1.5,0.8,2.9,1.7,4.3,2.5
						c3,1.9,5.9,3.7,9,4.1c3.9,0.5,7.8-1.2,11.9-2.9c3.1-1.4,6.4-2.8,9.8-3.3c1.2-0.2,2.2,0.9,2.3,2.3c0.1,1.4-0.7,2.7-1.9,2.8
						c-3,0.4-5.8,1.7-8.9,3C235.7,420.7,231.8,422.4,227.7,422.4z"/>
				</g>
			</g>
			<g>
				<g opacity="0.3">
					<path d="M239,306.3c-0.6,0-1.2,0-1.8-0.1c-3.4-0.5-6.4-2.3-9.3-4.1c-1.2-0.8-2.4-1.5-3.6-2.1c-7.1-3.7-15.5-3.5-22.5,0.5
						c-0.9,0.5-2.1,0-2.5-1.1c-0.4-1.2,0-2.5,0.9-3.1c7.9-4.5,17.5-4.8,25.6-0.6c1.3,0.7,2.6,1.5,3.9,2.3c2.7,1.7,5.3,3.3,8.1,3.6
						c3.5,0.5,7-1,10.7-2.6c2.8-1.2,5.7-2.5,8.8-2.9c1-0.1,2,0.8,2.1,2c0.1,1.3-0.6,2.4-1.7,2.5c-2.6,0.4-5.2,1.5-8,2.7
						C246.2,304.8,242.8,306.3,239,306.3z"/>
				</g>
				<g>
					<path fill="#FFFFFF" d="M239,305.1c-0.6,0-1.2,0-1.8-0.1c-3.4-0.5-6.4-2.3-9.3-4.1c-1.2-0.8-2.4-1.5-3.6-2.1
						c-7.1-3.7-15.5-3.5-22.5,0.5c-0.9,0.5-2.1,0-2.5-1.1c-0.4-1.2,0-2.5,0.9-3.1c7.9-4.5,17.5-4.8,25.6-0.6
						c1.3,0.7,2.6,1.5,3.9,2.3c2.7,1.7,5.3,3.3,8.1,3.6c3.5,0.5,7-1,10.7-2.6c2.8-1.2,5.7-2.5,8.8-2.9c1-0.1,2,0.8,2.1,2
						c0.1,1.3-0.6,2.4-1.7,2.5c-2.6,0.4-5.2,1.5-8,2.7C246.2,303.5,242.8,305.1,239,305.1z"/>
				</g>
			</g>
			<g>
				<g opacity="0.3">
					<path d="M167.3,266.2c-0.5,0-0.9,0-1.4-0.1c-2.7-0.4-5-1.8-7.3-3.2c-1-0.6-1.9-1.2-2.8-1.6c-5.5-2.8-12.1-2.7-17.5,0.4
						c-0.7,0.4-1.6,0-2-0.9c-0.3-0.9,0-2,0.7-2.4c6.2-3.5,13.6-3.7,19.9-0.5c1,0.5,2,1.2,3,1.8c2.1,1.3,4.1,2.5,6.3,2.8
						c2.7,0.4,5.4-0.8,8.3-2.1c2.2-1,4.5-1.9,6.9-2.3c0.8-0.1,1.5,0.6,1.6,1.6c0.1,1-0.5,1.9-1.3,2c-2.1,0.3-4.1,1.2-6.2,2.1
						C172.9,265,170.2,266.2,167.3,266.2z"/>
				</g>
				<g>
					<path fill="#E0448C" d="M167.3,265.2c-0.5,0-0.9,0-1.4-0.1c-2.7-0.4-5-1.8-7.3-3.2c-1-0.6-1.9-1.2-2.8-1.6
						c-5.5-2.8-12.1-2.7-17.5,0.4c-0.7,0.4-1.6,0-2-0.9c-0.3-0.9,0-2,0.7-2.4c6.2-3.5,13.6-3.7,19.9-0.5c1,0.5,2,1.2,3,1.8
						c2.1,1.3,4.1,2.5,6.3,2.8c2.7,0.4,5.4-0.8,8.3-2.1c2.2-1,4.5-1.9,6.9-2.3c0.8-0.1,1.5,0.6,1.6,1.6c0.1,1-0.5,1.9-1.3,2
						c-2.1,0.3-4.1,1.2-6.2,2.1C172.9,264,170.2,265.2,167.3,265.2z"/>
				</g>
			</g>
			<g>
				<g opacity="0.3">
					<path d="M276.6,266c-0.5,0-0.9,0.1-1.4,0c-2.7-0.1-5.1-1.3-7.5-2.5c-1-0.5-2-1-3-1.4c-5.8-2.3-12.2-1.6-17.4,2
						c-0.7,0.5-1.6,0.2-2-0.7c-0.4-0.9-0.2-2,0.5-2.4c5.8-4.1,13.2-4.9,19.7-2.3c1.1,0.4,2.1,1,3.2,1.5c2.2,1.1,4.3,2.2,6.5,2.3
						c2.7,0.1,5.3-1.3,8.1-2.8c2.1-1.2,4.3-2.3,6.6-2.9c0.8-0.2,1.6,0.5,1.8,1.4c0.2,1-0.3,1.9-1.1,2.1c-2,0.5-3.9,1.5-6,2.6
						C282.1,264.3,279.5,265.7,276.6,266z"/>
				</g>
				<g>
					<path fill="#E0448C" d="M276.5,265c-0.5,0-0.9,0.1-1.4,0c-2.7-0.1-5.1-1.3-7.5-2.5c-1-0.5-2-1-3-1.4c-5.8-2.3-12.2-1.6-17.4,2
						c-0.7,0.5-1.6,0.2-2-0.7c-0.4-0.9-0.2-2,0.5-2.4c5.8-4.1,13.2-4.9,19.7-2.3c1.1,0.4,2.1,1,3.2,1.5c2.2,1.1,4.3,2.2,6.5,2.3
						c2.7,0.1,5.3-1.3,8.1-2.8c2.1-1.2,4.3-2.3,6.6-2.9c0.8-0.2,1.6,0.5,1.8,1.4c0.2,1-0.3,1.9-1.1,2.1c-2,0.5-3.9,1.5-6,2.6
						C282,263.3,279.4,264.8,276.5,265z"/>
				</g>
			</g>
		</g>
	</g>
	<g>
		<g>
			
				<ellipse transform="matrix(0.9922 -0.1248 0.1248 0.9922 -41.0062 55.3575)" fill="#E59D35" cx="421.4" cy="355" rx="79.7" ry="79.7"/>
			
				<ellipse transform="matrix(0.2321 -0.9727 0.9727 0.2321 -13.3797 693.1376)" fill="#FDE47C" cx="432.3" cy="355" rx="79.7" ry="79.7"/>
			<circle fill="#F8B545" cx="432.3" cy="355" r="63.9"/>
			<path fill="#E59D35" d="M373.1,358.6c0-35.3,28.6-63.9,63.9-63.9c13.2,0,25.5,4,35.7,10.9c-11-9-25.1-14.5-40.5-14.5
				c-35.3,0-63.9,28.6-63.9,63.9c0,20,9.2,37.8,23.6,49.6c-6.4-6.5-11.4-14.3-14.5-23.1C374.6,374.4,373.1,366.7,373.1,358.6z"/>
		</g>
		<g>
			<path fill="#FDE47C" d="M421.9,359.4h-10.5v10.2h-7.8v-10.2h-10.4V352h10.4v-10.2h7.8V352h10.5V359.4z"/>
			<path fill="#FDE47C" d="M458.5,336.5c2.7,1.2,4.9,3,6.3,5.3c1.5,2.3,2.2,5,2.2,8.1c0,3.1-0.7,5.8-2.2,8.1
				c-1.5,2.3-3.6,4.1-6.3,5.3c-2.7,1.2-6,1.8-9.7,1.8h-8.5v11.6h-9.7v-42.1h18.2C452.5,334.7,455.7,335.3,458.5,336.5z M454.9,355.3
				c1.5-1.3,2.3-3.1,2.3-5.4c0-2.4-0.8-4.2-2.3-5.4c-1.5-1.3-3.8-1.9-6.7-1.9h-7.9v14.6h7.9C451.2,357.2,453.4,356.6,454.9,355.3z"
				/>
		</g>
	</g>
</g>
</svg>
