<svg xmlns="http://www.w3.org/2000/svg" width="24" height="24" viewBox="0 0 24 24"><defs><style>.a{fill:none;}</style></defs><rect class="a" width="24" height="24" transform="translate(0 0)"/><path d="M8.8,12.2H3.2a.4.4,0,0,0-.4.4v4.8a.4.4,0,0,0,.4.4H8.8a.4.4,0,0,0,.4-.4V12.6A.4.4,0,0,0,8.8,12.2ZM8.4,17H3.6V13H8.4Z"/><path d="M4.4,14.6H5.6a.4.4,0,1,0,0-.8H4.4a.4.4,0,1,0,0,.8Z"/><path d="M4.4,16.2H6.8a.4.4,0,0,0,0-.8H4.4a.4.4,0,1,0,0,.8Z"/><path d="M19.2,17h-2a.4.4,0,1,0,0,.8h2a.8.8,0,1,1,0,1.6H17.765l.117-.117a.4.4,0,0,0-.565-.566h0l-.8.8a.4.4,0,0,0,0,.566h0l.8.8a.4.4,0,1,0,.565-.566l-.117-.117H19.2a1.6,1.6,0,1,0,0-3.2Z"/><path d="M22.726,17.8A4.4,4.4,0,0,0,18.8,14.218V1.4a.4.4,0,0,0-.4-.4H1.6a.4.4,0,0,0-.4.4V19a.4.4,0,0,0,.4.4H14.073a4.4,4.4,0,1,0,8.653-1.6ZM8.4,5.414V1.8h3.2V7.209l-1.452-.581a.4.4,0,0,0-.3,0L8.4,7.209ZM14,18.6H2V1.8H7.6v6a.4.4,0,0,0,.4.4.394.394,0,0,0,.148-.029L10,7.431l1.851.74a.4.4,0,0,0,.52-.223A.394.394,0,0,0,12.4,7.8v-6H18V14.218A4.4,4.4,0,0,0,14,18.6Zm4.4,3.6A3.6,3.6,0,1,1,22,18.6,3.6,3.6,0,0,1,18.4,22.2Z"/></svg>