<svg xmlns="http://www.w3.org/2000/svg" width="24" height="24" viewBox="0 0 24 24"><defs><style>.a{fill:none;}</style></defs><rect class="a" width="24" height="24" transform="translate(0 0)"/><path d="M1.294,18.752l10.535,4.215a.483.483,0,0,0,.347,0l2.988-1.2.11.095A4.675,4.675,0,0,0,23,18.321V6.381l.233-.075h0L23,6.331a.468.468,0,0,0-.266-.371L12.2,1.044a.456.456,0,0,0-.392,0L1.271,5.96A.468.468,0,0,0,1,6.331l-.24.048h0L1,6.39V18.321A.461.461,0,0,0,1.294,18.752ZM18.323,22.07a3.749,3.749,0,1,1,3.749-3.749A3.752,3.752,0,0,1,18.323,22.07Zm3.749-6.6-.407-.416a4.676,4.676,0,0,0-7.312,5.742l.15.241-2.036.814V10.909l9.605-3.841ZM12,1.977l.1.048,9.265,4.323L17.392,7.939,7.877,3.9ZM6.744,4.431l.1.042,9.325,3.956L12,10.1,2.637,6.348ZM1.932,7.068l9.6,3.841V21.848l-9.6-3.841Z"/><path d="M18.979,18.321,19.7,17.6a.463.463,0,0,0,.136-.327.464.464,0,0,0-.463-.466h0a.462.462,0,0,0-.329.136l-.725.726-.725-.726a.46.46,0,0,0-.328-.136h0a.462.462,0,0,0-.328.136.466.466,0,0,0,0,.657l.725.725-.725.725a.465.465,0,0,0,0,.657.474.474,0,0,0,.656,0l.725-.726.725.726a.473.473,0,0,0,.657,0,.464.464,0,0,0,0-.656Z"/></svg>