<svg xmlns="http://www.w3.org/2000/svg" width="142.941" height="142.823" viewBox="0 0 142.941 142.823"><defs><style>.a{fill:#f5c84c;}.b,.h,.i,.j,.k{fill:#fde47c;}.c{fill:#f1af40;}.d{fill:#f8b545;}.e{fill:#fab545;}.f{fill:#e59d35;}.g,.h,.j{isolation:isolate;}.h,.i{font-size:9px;}.h,.i,.j,.k{font-family:Montserrat-Bold, Montserrat;font-weight:700;}.j{font-size:15px;}.k{font-size:17px;}</style></defs><g transform="translate(-116.335 -920.517)"><path class="a" d="M216.47,369.637a7.54,7.54,0,0,1-6.07-5.916c0-.077-.077-.154-.154-.077a.075.075,0,0,0-.077.077,7.443,7.443,0,0,1-6.07,5.916.165.165,0,0,0-.153.154c0,.077.077.077.153.154a7.539,7.539,0,0,1,6.07,5.916c0,.077.077.154.154.077a.075.075,0,0,0,.077-.077,7.443,7.443,0,0,1,6.07-5.916.165.165,0,0,0,.154-.154C216.624,369.637,216.547,369.637,216.47,369.637Z" transform="translate(-37.958 687.37)"/><circle class="a" cx="2.305" cy="2.305" r="2.305" transform="translate(149.106 920.517)"/><g transform="translate(141 968.031)"><path class="b" d="M232.026,188.229v-9.878a2.391,2.391,0,0,0-2.394-2.394H155.1a2.391,2.391,0,0,0-2.394,2.394v9.921h79.323Z" transform="translate(-147.4 -165.096)"/><path class="b" d="M235.472,158.545v-8.809a2.053,2.053,0,0,0-2.053-2.053H169.449a2.053,2.053,0,0,0-2.053,2.053v8.809Z" transform="translate(-156.449 -147.684)"/><path class="c" d="M237.046,195.7a12.2,12.2,0,0,1-5.345-6.927.962.962,0,0,0-.941-.684H180.472a1.017,1.017,0,0,0-.941.684,12.336,12.336,0,0,1-5.345,6.927Z" transform="translate(-160.63 -172.568)"/><path class="d" d="M239.392,164.989a10.5,10.5,0,0,1-5.132-6.243.874.874,0,0,0-.812-.6H190.259a.874.874,0,0,0-.812.6,10.5,10.5,0,0,1-5.132,6.243Z" transform="translate(-166.868 -154.128)"/><g transform="translate(0 4.49)"><circle class="b" cx="1.283" cy="1.283" r="1.283" transform="translate(65.511 80.392)"/><circle class="b" cx="1.283" cy="1.283" r="1.283" transform="translate(2.224)"/><path class="b" d="M226.176,207.9H141.594A2.683,2.683,0,0,0,138.9,210.6v48.364a2.683,2.683,0,0,0,2.694,2.694h39.34v-4.575a2.951,2.951,0,0,1,5.9,0v4.575h39.34a2.683,2.683,0,0,0,2.694-2.694V210.64A2.747,2.747,0,0,0,226.176,207.9Z" transform="translate(-138.9 -189.259)"/></g><path class="d" d="M231.256,231.8a13.915,13.915,0,0,1-9.279-9.279,1.143,1.143,0,0,0-1.069-.812H163.864a1.1,1.1,0,0,0-1.069.813,13.915,13.915,0,0,1-9.279,9.279,1.142,1.142,0,0,0-.812,1.069v20.868a1.1,1.1,0,0,0,.813,1.069,13.916,13.916,0,0,1,9.279,9.279,1.143,1.143,0,0,0,1.069.813h25.657a2.961,2.961,0,0,1,3.592-2.138,2.868,2.868,0,0,1,2.138,2.138h25.657a1.1,1.1,0,0,0,1.069-.813,13.915,13.915,0,0,1,9.279-9.279,1.142,1.142,0,0,0,.813-1.069V232.867a1.185,1.185,0,0,0-.812-1.069Z" transform="translate(-147.4 -193.27)"/><path class="b" d="M247.692,273.362h-5.944a1.069,1.069,0,1,1,0-2.138h5.944a2.266,2.266,0,1,0,0-4.533h-3.72a4.4,4.4,0,0,1-.085-8.809h5.388a1.069,1.069,0,0,1,0,2.138h-5.26a2.288,2.288,0,1,0-.043,4.575h3.763a4.383,4.383,0,1,1-.043,8.766Z" transform="translate(-200.868 -215.548)"/><path class="b" d="M254.286,271.858a1.059,1.059,0,0,1-1.069-1.069v-17.96a1.069,1.069,0,1,1,2.138,0v17.96A1.059,1.059,0,0,1,254.286,271.858Z" transform="translate(-209.301 -211.778)"/><path class="b" d="M188.146,277.274h-3.207a1.069,1.069,0,1,1,0-2.138h3.207a1.069,1.069,0,1,1,0,2.138Z" transform="translate(-166.594 -226.174)"/><path class="b" d="M318.492,277.274h-3.207a1.069,1.069,0,1,1,0-2.138h3.207a1.058,1.058,0,0,1,1.069,1.069A1.086,1.086,0,0,1,318.492,277.274Z" transform="translate(-246.866 -226.174)"/></g><path class="b" d="M385.41,88.529A7.535,7.535,0,0,0,377.4,80.52s3.662-.036,5.818-2.192,2.191-5.817,2.191-5.817a7.536,7.536,0,0,0,8.008,8.009,7.535,7.535,0,0,0-8.008,8.009" transform="translate(-144.778 866.642)"/><path class="e" d="M447.87,161.316a3.448,3.448,0,0,0-3.665-3.665,3.448,3.448,0,0,0,3.665-3.665,3.449,3.449,0,0,0,3.665,3.665,3.448,3.448,0,0,0-3.665,3.665" transform="translate(-327.87 823.795)"/><path class="b" d="M330.045,38.064A3.448,3.448,0,0,0,326.38,34.4a4.293,4.293,0,0,0,2.662-1,4.293,4.293,0,0,0,1-2.662,3.449,3.449,0,0,0,3.665,3.665,3.449,3.449,0,0,0-3.665,3.665" transform="translate(-113.357 892.369)"/><path class="b" d="M174.806,180.4a3.449,3.449,0,0,0-3.664-3.665,3.448,3.448,0,0,0,3.664-3.665,3.449,3.449,0,0,0,3.665,3.665,3.449,3.449,0,0,0-3.665,3.665" transform="translate(-17.755 804.716)"/><path class="e" d="M154.083,117.174a3.448,3.448,0,0,0-3.665-3.665,3.448,3.448,0,0,0,3.665-3.665,3.449,3.449,0,0,0,3.665,3.665,3.449,3.449,0,0,0-3.665,3.665" transform="translate(-4.993 843.649)"/><path class="b" d="M457.213,207.46a1.735,1.735,0,1,1-1.735-1.735h0a1.734,1.734,0,0,1,1.734,1.734h0" transform="translate(-333.742 813.604)"/><path class="b" d="M235.147,125.294a.855.855,0,1,1-.855-.855.855.855,0,0,1,.855.855" transform="translate(-56.119 834.662)"/><path class="b" d="M370.675,125.328a.855.855,0,1,1-.855-.855.855.855,0,0,1,.855.855" transform="translate(-139.583 834.642)"/><path class="b" d="M308.012,109.483a1.227,1.227,0,1,1-1.227-1.227h0a1.226,1.226,0,0,1,1.227,1.227" transform="translate(-100.535 844.628)"/><g transform="translate(205.024 1009.523)"><path class="f" d="M380.019,349.232a25.948,25.948,0,1,1,0-.007v.007" transform="translate(-328.13 -323.261)"/><path class="b" d="M385.21,348.962a25.722,25.722,0,1,1-25.723-25.721h0a25.721,25.721,0,0,1,25.721,25.721h0" transform="translate(-330.957 -323.241)"/><path class="d" d="M384.815,354.087a20.628,20.628,0,1,1-20.628-20.628h0a20.628,20.628,0,0,1,20.628,20.628" transform="translate(-335.869 -328.366)"/><path class="d" d="M345.249,355.02A20.628,20.628,0,0,1,377.4,337.9,20.628,20.628,0,1,0,350.746,369.4q.28.238.57.465a21.649,21.649,0,0,1-6.067-14.841" transform="translate(-335.811 -328.147)"/></g><g transform="translate(168.659 934.629)"><path class="f" d="M246.191,57.021A15.694,15.694,0,1,1,230.5,41.327h0A15.693,15.693,0,0,1,246.191,57.02h0" transform="translate(-214.803 -41.312)"/><path class="b" d="M251.563,56.836A15.558,15.558,0,1,1,236,41.278h0a15.558,15.558,0,0,1,15.558,15.557h0" transform="translate(-218.745 -41.278)"/><path class="d" d="M255.19,63.972a12.478,12.478,0,1,1-12.478-12.478h0A12.478,12.478,0,0,1,255.19,63.972" transform="translate(-225.583 -48.414)"/><path class="d" d="M231.234,64.382a12.478,12.478,0,0,1,19.446-10.354,12.478,12.478,0,1,0-16.1,19.065q.161.136.326.266a13.1,13.1,0,0,1-3.669-8.977" transform="translate(-225.524 -48.126)"/><g transform="translate(9.903 9.268)"><g class="g" transform="translate(5.859 0.182)"><text class="h" transform="translate(0 9)"><tspan x="0" y="0">P</tspan></text></g><text class="i" transform="translate(2 9)"><tspan x="0" y="0">-</tspan></text></g></g><g transform="translate(222.464 1025.675)"><g class="g" transform="translate(9.686 0.301)"><text class="j" transform="translate(0 15)"><tspan x="0" y="0">P</tspan></text></g><text class="k" transform="translate(3 16)"><tspan x="0" y="0">-</tspan></text></g></g></svg>