<svg xmlns="http://www.w3.org/2000/svg" xmlns:xlink="http://www.w3.org/1999/xlink" width="140.603" height="104.949" viewBox="0 0 140.603 104.949"><defs><style>.a{fill:none;}.b{clip-path:url(#a);}.c{fill:#f5f5f5;}.d{fill:#d8d8d8;}.e,.g{fill:#ededed;}.f{fill:#fde47c;}.g{font-size:17.5px;font-family:Montserrat-Bold, Montserrat;font-weight:700;}</style><clipPath id="a"><rect class="a" width="140.603" height="104.949" transform="translate(0 0)"/></clipPath></defs><g class="b"><path class="c" d="M127.574,100.629c0,2.386-26.837,4.32-59.941,4.32s-59.941-1.934-59.941-4.32,26.836-4.32,59.941-4.32,59.941,1.934,59.941,4.32"/><path class="d" d="M76.807,88.929H31.539a3.717,3.717,0,0,1-3.716-3.717V80.945a3.717,3.717,0,0,1,3.716-3.717H76.807a3.717,3.717,0,0,1,3.717,3.717v4.267a3.717,3.717,0,0,1-3.717,3.717"/><path class="e" d="M80.563,88.929H35.295a3.717,3.717,0,0,1-3.716-3.717V80.945a3.717,3.717,0,0,1,3.716-3.717H80.563a3.717,3.717,0,0,1,3.717,3.717v4.267a3.717,3.717,0,0,1-3.717,3.717"/><path class="d" d="M76.807,100.629H31.539a3.717,3.717,0,0,1-3.716-3.717V92.645a3.716,3.716,0,0,1,3.716-3.716H76.807a3.717,3.717,0,0,1,3.717,3.716v4.267a3.717,3.717,0,0,1-3.717,3.717"/><path class="e" d="M80.563,100.629H35.295a3.717,3.717,0,0,1-3.716-3.717V92.645a3.716,3.716,0,0,1,3.716-3.716H80.563a3.717,3.717,0,0,1,3.717,3.716v4.267a3.717,3.717,0,0,1-3.717,3.717"/><path class="d" d="M79.11,89.229H33.175a.3.3,0,0,1,0-.6H79.11a.3.3,0,1,1,0,.6"/><path class="d" d="M76.807,77.228H31.539a3.716,3.716,0,0,1-3.716-3.716V69.245a3.717,3.717,0,0,1,3.716-3.717H76.807a3.717,3.717,0,0,1,3.717,3.717v4.267a3.717,3.717,0,0,1-3.717,3.716"/><path class="e" d="M80.563,77.228H35.295a3.716,3.716,0,0,1-3.716-3.716V69.245a3.717,3.717,0,0,1,3.716-3.717H80.563a3.717,3.717,0,0,1,3.717,3.717v4.267a3.717,3.717,0,0,1-3.717,3.716"/><path class="d" d="M79.11,77.529H33.175a.3.3,0,0,1,0-.6H79.11a.3.3,0,1,1,0,.6"/><path class="d" d="M76.807,65.528H31.539a3.717,3.717,0,0,1-3.716-3.717V57.544a3.716,3.716,0,0,1,3.716-3.716H76.807a3.716,3.716,0,0,1,3.717,3.716v4.267a3.717,3.717,0,0,1-3.717,3.717"/><path class="e" d="M80.563,65.528H35.295a3.717,3.717,0,0,1-3.716-3.717V57.544a3.716,3.716,0,0,1,3.716-3.716H80.563a3.716,3.716,0,0,1,3.717,3.716v4.267a3.717,3.717,0,0,1-3.717,3.717"/><path class="d" d="M79.11,65.828H33.175a.3.3,0,0,1,0-.6H79.11a.3.3,0,0,1,0,.6"/><path class="d" d="M84.28,97.213a.3.3,0,0,1-.3-.3V92.646a3.42,3.42,0,0,0-3.416-3.417.3.3,0,0,1,0-.6,3.419,3.419,0,0,0,3.416-3.415V80.944a3.421,3.421,0,0,0-3.416-3.416.3.3,0,1,1,0-.6,3.42,3.42,0,0,0,3.416-3.416V69.244a3.419,3.419,0,0,0-3.416-3.416.3.3,0,0,1,0-.6,3.42,3.42,0,0,0,3.416-3.415V57.543a.3.3,0,0,1,.6,0v4.269a4.022,4.022,0,0,1-2.492,3.715,4.024,4.024,0,0,1,2.492,3.717v4.268a4.025,4.025,0,0,1-2.492,3.717,4.021,4.021,0,0,1,2.492,3.715v4.268a4.024,4.024,0,0,1-2.492,3.716,4.023,4.023,0,0,1,2.492,3.718v4.266a.3.3,0,0,1-.3.3"/><path class="d" d="M111.376,37.512a9.444,9.444,0,0,0-2.563-6.806,9.444,9.444,0,0,0-6.806-2.563s4.284-.042,6.806-2.564,2.563-6.805,2.563-6.805a9.727,9.727,0,0,0,2.563,6.805,9.725,9.725,0,0,0,6.805,2.564,9.69,9.69,0,0,0-6.805,2.563,9.686,9.686,0,0,0-2.563,6.806"/><path class="e" d="M136.316,63.964a4.034,4.034,0,0,0-4.287-4.287,5.025,5.025,0,0,0,3.114-1.173,5.03,5.03,0,0,0,1.173-3.114,4.034,4.034,0,0,0,4.287,4.287,4.034,4.034,0,0,0-4.287,4.287"/><path class="e" d="M83.365,8.574A4.316,4.316,0,0,0,82.192,5.46a4.321,4.321,0,0,0-3.114-1.173,5.023,5.023,0,0,0,3.114-1.173A5.023,5.023,0,0,0,83.365,0a4.451,4.451,0,0,0,1.173,3.114,4.452,4.452,0,0,0,3.114,1.173A4.435,4.435,0,0,0,84.538,5.46a4.437,4.437,0,0,0-1.173,3.114"/><path class="e" d="M13.6,72.538a4.316,4.316,0,0,0-1.173-3.114,4.316,4.316,0,0,0-3.114-1.173,5.025,5.025,0,0,0,3.114-1.173A5.023,5.023,0,0,0,13.6,63.964a4.452,4.452,0,0,0,1.173,3.114,4.452,4.452,0,0,0,3.114,1.173,4.437,4.437,0,0,0-3.114,1.173A4.436,4.436,0,0,0,13.6,72.538"/><path class="d" d="M4.287,44.126a4.316,4.316,0,0,0-1.173-3.114A4.316,4.316,0,0,0,0,39.839a5.025,5.025,0,0,0,3.114-1.173,5.023,5.023,0,0,0,1.173-3.114A4.452,4.452,0,0,0,5.46,38.666a4.452,4.452,0,0,0,3.114,1.173A4.437,4.437,0,0,0,5.46,41.012a4.435,4.435,0,0,0-1.173,3.114"/><path class="e" d="M140.375,80.671a2.03,2.03,0,1,1-2.029-2.03,2.029,2.029,0,0,1,2.029,2.03"/><path class="f" d="M39.309,43.111a1,1,0,1,1-1-1,1,1,0,0,1,1,1"/><path class="e" d="M100.216,43.126a1,1,0,1,1-1-1,1,1,0,0,1,1,1"/><path class="f" d="M72.591,36.273a1.435,1.435,0,1,1-1.435-1.435,1.435,1.435,0,0,1,1.435,1.435"/><path class="d" d="M79.813,30.458A23.394,23.394,0,1,1,56.42,7.064,23.393,23.393,0,0,1,79.813,30.458"/><path class="e" d="M81.945,30.233A23.192,23.192,0,1,1,58.753,7.042,23.191,23.191,0,0,1,81.945,30.233"/><path class="d" d="M77.16,30.233a18.6,18.6,0,1,1-18.6-18.6,18.6,18.6,0,0,1,18.6,18.6"/><path class="d" d="M41.537,31.273A18.6,18.6,0,0,1,70.525,15.839,18.6,18.6,0,1,0,47.006,44.654a18.612,18.612,0,0,1-4.231-6.709,18.538,18.538,0,0,1-1.238-6.672"/></g><text class="g" transform="translate(52.154 36.545)"><tspan x="0" y="0">P</tspan></text><g class="b"><path class="d" d="M122.544,78.654a23.394,23.394,0,1,1-23.394-23.4,23.394,23.394,0,0,1,23.394,23.4"/><path class="e" d="M124.675,78.428a23.193,23.193,0,1,1-23.192-23.192,23.192,23.192,0,0,1,23.192,23.192"/><path class="d" d="M119.89,78.428a18.6,18.6,0,1,1-18.6-18.6,18.6,18.6,0,0,1,18.6,18.6"/><path class="d" d="M84.266,79.467a18.6,18.6,0,0,1,28.988-15.433A18.6,18.6,0,1,0,89.736,92.849a19.521,19.521,0,0,1-5.47-13.382"/></g><text class="g" transform="translate(94.885 84.74)"><tspan x="0" y="0">P</tspan></text></svg>