<svg xmlns="http://www.w3.org/2000/svg" width="130.476" height="130" viewBox="0 0 130.476 130">
    <defs>
        <style>.a{fill:none;}.b{fill:#e74f41;}.c{fill:#7744ad;}.d{fill:#efd466;}.e{fill:#f8b545;}.f{fill:#e59d35;}.g{fill:#e83d64;}.h{opacity:0.12;}.i{fill:#e72749;}.j{fill:#9e251b;}.k{fill:#c60032;}.l{fill:#ffc22a;}.m{fill:#1763b0;}.n{fill:#13579c;}.o{fill:#75231b;}.p{fill:#c7c7c7;}.q{fill:#fff;}</style>
    </defs>
    <g transform="translate(0.476)">
        <rect class="a" width="130" height="130" transform="translate(-0.476)"/>
        <path class="b" d="M128.483,307.543a5.68,5.68,0,0,1,6.358.079l.893-.722a6.041,6.041,0,0,0-8.5-.9Z" transform="translate(-102.777 -232.15)"/>
        <path class="c" d="M116.429,241.247l2.752-.36,1.923,1.533-4.513.085Z" transform="translate(-108.552 -190.437)"/>
        <g transform="translate(0 3.074)">
            <g transform="translate(0 51.074)">
                <path class="d" d="M185.778,437.3l-27.922-4.815-18.844,2.173-18.977-6.794-21.245,7.61-14.72-2.989-28.291,3.263,22.523,6.4,19.72-2.635,22.014,5.6,21.574-5.475,8.611,2.782Z" transform="translate(-55.778 -372.341)"/>
                <g transform="translate(1.43)">
                    <g transform="translate(0 21.988)">
                        <g transform="translate(71.918)">
                            <path class="e" d="M336.927,365.715l1.486,30.835,25.142-3.629L368.7,362.9Z" transform="translate(-317.32 -350.841)"/>
                            <path class="f" d="M300.194,365.715l1.486,30.835-14.545-3.629L282.05,362.9Z" transform="translate(-280.587 -350.841)"/>
                            <path class="f" d="M277.624,357.364l.751,6.273,18.332,2.619-.242-6.2Z" transform="translate(-277.624 -347.134)"/>
                            <path class="e" d="M369.491,357.364l-1.141,6.273-33.5,2.619-.242-6.2Z" transform="translate(-315.769 -347.134)"/>
                            <path class="e" d="M277.624,353.66l18.841,2.689,34.882-2.689-22.984-1.829Z" transform="translate(-277.624 -343.43)"/>
                            <path class="g" d="M302.537,356.184l29.914-2.6-5.3-.422-29.737,2.322Z" transform="translate(-290.874 -344.323)"/>
                            <path class="g" d="M352.448,355.928l-19.826-2.253-3.447.2,17.946,2.465Z" transform="translate(-312.13 -344.665)"/>
                            <path class="h" d="M284.436,376.866l.255,1.506,17.388,2.634,30.466-2.85.231-1.349-30.784,2.407-.726.057Z" transform="translate(-282.183 -360.149)"/>
                            <path class="i" d="M382.9,392.491l-4.807.692,1.772-32.283,5.327-.411Z" transform="translate(-344.876 -349.226)"/>
                            <path class="j" d="M300.69,391.92l4.256,1.062-2.408-32.1-5.119-.7Z" transform="translate(-290.874 -349.025)"/>
                            <g transform="translate(26.862)">
                                <path class="i" d="M371.672,327.151c-4.245-3.778-12.8,8.4-12.8,8.4l.244.839s9.867-5.4,12.951-5.636c2.432-.188,2.387,1.634-.145,2.536-2.307.822-12.806,3.1-12.806,3.1s-.162.156,8.034-1.162c6.512-1.047,7.986-2.32,8.024-4.251S373.47,328.75,371.672,327.151Z" transform="translate(-358.868 -326.423)"/>
                                <path class="k" d="M367.641,343.889c6.284-1.01,7.876-2.231,8.014-4.051a5.841,5.841,0,0,0-3.1-.423c2.432-.188,2.387,1.634-.145,2.536-2.307.822-12.806,3.1-12.806,3.1l0,0C359.633,345.066,360.087,345.1,367.641,343.889Z" transform="translate(-359.363 -335.088)"/>
                                <path class="k" d="M365.02,344.1s-.275-.709-1.643-.814-1.42-.841-1.42-.841a45.668,45.668,0,0,0-3.088,3.827l.244.839s2.813-1.539,5.9-3.01Z" transform="translate(-358.868 -337.146)"/>
                            </g>
                            <g transform="translate(10.558)">
                                <path class="i" d="M313.056,327.151c4.245-3.778,12.8,8.4,12.8,8.4l-.245.839s-9.867-5.4-12.951-5.636c-2.432-.188-2.387,1.634.145,2.536,2.307.822,12.806,3.1,12.806,3.1s.162.156-8.034-1.162c-6.512-1.047-7.986-2.32-8.024-4.251S311.259,328.75,313.056,327.151Z" transform="translate(-309.558 -326.423)"/>
                                <path class="k" d="M317.6,343.889c-6.284-1.01-7.876-2.231-8.014-4.051a5.842,5.842,0,0,1,3.1-.423c-2.432-.188-2.387,1.634.145,2.536,2.308.822,12.806,3.1,12.806,3.1v0C325.612,345.066,325.158,345.1,317.6,343.889Z" transform="translate(-309.579 -335.088)"/>
                                <path class="k" d="M340.262,344.1s.275-.709,1.643-.814,1.42-.841,1.42-.841a45.713,45.713,0,0,1,3.089,3.827l-.245.839s-2.813-1.539-5.9-3.01Z" transform="translate(-330.11 -337.146)"/>
                            </g>
                            <path class="i" d="M354.3,353.913h-6.386a.4.4,0,0,1-.4-.4h0a1.306,1.306,0,0,1,1.306-1.306h4.571a1.306,1.306,0,0,1,1.306,1.306h0A.4.4,0,0,1,354.3,353.913Z" transform="translate(-324.408 -343.684)"/>
                        </g>
                        <path class="f" d="M119.406,365.715l1.486,30.835,25.142-3.629L151.18,362.9Z" transform="translate(-99.798 -350.841)"/>
                        <path class="l" d="M82.672,365.715l1.486,30.835-14.545-3.629L64.529,362.9Z" transform="translate(-63.065 -350.841)"/>
                        <path class="l" d="M60.1,357.364l.751,6.273,18.332,2.619-.242-6.2Z" transform="translate(-60.102 -347.134)"/>
                        <path class="f" d="M151.97,357.364l-1.141,6.273-33.5,2.619-.242-6.2Z" transform="translate(-98.247 -347.134)"/>
                        <path class="e" d="M60.1,353.66l18.841,2.689,34.882-2.689L90.841,351.83Z" transform="translate(-60.102 -343.43)"/>
                        <path class="i" d="M85.016,356.184l29.914-2.6-5.3-.422L79.9,355.487Z" transform="translate(-73.353 -344.323)"/>
                        <path class="i" d="M134.926,355.928,115.1,353.675l-3.447.2,17.946,2.465Z" transform="translate(-94.609 -344.665)"/>
                        <path class="h" d="M66.914,376.866l.255,1.506,17.388,2.634,30.466-2.85.231-1.349-30.784,2.407-.726.057Z" transform="translate(-64.662 -360.149)"/>
                        <path class="i" d="M165.38,392.491l-4.807.692,1.772-32.283,5.327-.411Z" transform="translate(-127.355 -349.226)"/>
                        <path class="i" d="M83.169,391.92l4.256,1.062-2.408-32.1-5.119-.7Z" transform="translate(-73.353 -349.025)"/>
                        <g transform="translate(26.861)">
                            <path class="m" d="M154.151,327.151c-4.245-3.778-12.8,8.4-12.8,8.4l.245.839s9.867-5.4,12.951-5.636c2.432-.188,2.387,1.634-.145,2.536-2.307.822-12.806,3.1-12.806,3.1s-.162.156,8.034-1.162c6.512-1.047,7.986-2.32,8.024-4.251S155.948,328.75,154.151,327.151Z" transform="translate(-141.346 -326.423)"/>
                            <path class="n" d="M150.12,343.889c6.284-1.01,7.876-2.231,8.014-4.051a5.842,5.842,0,0,0-3.1-.423c2.432-.188,2.387,1.634-.145,2.536-2.307.822-12.806,3.1-12.806,3.1v0C142.112,345.066,142.566,345.1,150.12,343.889Z" transform="translate(-141.841 -335.088)"/>
                            <path class="n" d="M147.5,344.1s-.275-.709-1.643-.814-1.42-.841-1.42-.841a45.713,45.713,0,0,0-3.089,3.827l.245.839s2.813-1.539,5.9-3.01Z" transform="translate(-141.346 -337.146)"/>
                        </g>
                        <g transform="translate(10.559)">
                            <path class="m" d="M95.535,327.151c4.245-3.778,12.8,8.4,12.8,8.4l-.244.839s-9.867-5.4-12.951-5.636c-2.432-.188-2.387,1.634.145,2.536,2.307.822,12.806,3.1,12.806,3.1s.162.156-8.034-1.162c-6.512-1.047-7.986-2.32-8.024-4.251S93.738,328.75,95.535,327.151Z" transform="translate(-92.037 -326.423)"/>
                            <path class="n" d="M100.083,343.889c-6.284-1.01-7.876-2.231-8.014-4.051a5.842,5.842,0,0,1,3.1-.423c-2.432-.188-2.387,1.634.145,2.536,2.307.822,12.806,3.1,12.806,3.1l0,0C108.09,345.066,107.637,345.1,100.083,343.889Z" transform="translate(-92.058 -335.088)"/>
                            <path class="n" d="M122.74,344.1s.275-.709,1.643-.814,1.42-.841,1.42-.841a45.661,45.661,0,0,1,3.088,3.827l-.244.839s-2.813-1.539-5.9-3.01Z" transform="translate(-112.589 -337.146)"/>
                        </g>
                        <path class="g" d="M136.779,353.913h-6.386a.4.4,0,0,1-.4-.4h0a1.306,1.306,0,0,1,1.306-1.306h4.571a1.306,1.306,0,0,1,1.306,1.306h0A.4.4,0,0,1,136.779,353.913Z" transform="translate(-106.887 -343.684)"/>
                    </g>
                    <g transform="translate(24.895)">
                        <path class="i" d="M172.491,307.057l25.662,3.978,25.662-3.978-25.662-2.626Z" transform="translate(-160.227 -289.715)"/>
                        <path class="o" d="M211.3,315.731l12.831,1.989,12.831-1.989-12.831-1.313Z" transform="translate(-186.204 -296.4)"/>
                        <g transform="translate(40.059 2.073)">
                            <path class="e" d="M283.539,302.2l-3.1.269a28.433,28.433,0,0,1,12.528-26.095,24.372,24.372,0,0,0-1.006,2.666,25.163,25.163,0,0,1,2.737-.075A25.316,25.316,0,0,0,283.539,302.2Z" transform="translate(-272.469 -273.007)"/>
                            <path class="i" d="M301.67,299.219l-3.339-.515a30.825,30.825,0,0,1,19.908-24.26,26.336,26.336,0,0,0-1.745,2.549,27.342,27.342,0,0,1,2.9.625A27.447,27.447,0,0,0,301.67,299.219Z" transform="translate(-284.52 -271.715)"/>
                            <path class="c" d="M259.768,295.261l-3.209-.189a40.726,40.726,0,0,1,14.575-28.88,34.946,34.946,0,0,0-.71,5.022A37.515,37.515,0,0,0,259.768,295.261Z" transform="translate(-256.559 -266.191)"/>
                        </g>
                        <path class="k" d="M169.706,282.653l3.076-.5a28.432,28.432,0,0,0-18.535-22.234,13.2,13.2,0,0,0-1.044,2.936A25.316,25.316,0,0,1,169.706,282.653Z" transform="translate(-147.316 -259.92)"/>
                        <path class="c" d="M155.473,301.487l3.258-.893a30.825,30.825,0,0,0-22.545-21.83,26.33,26.33,0,0,1,2.024,2.334,27.172,27.172,0,0,0-2.812.952A27.447,27.447,0,0,1,155.473,301.487Z" transform="translate(-135.398 -272.534)"/>
                        <path class="e" d="M210.46,294.7l3.2-.278A40.727,40.727,0,0,0,198.3,265.956a35.011,35.011,0,0,1,.847,5A37.513,37.513,0,0,1,210.46,294.7Z" transform="translate(-177.5 -263.96)"/>
                        <path class="i" d="M250.107,316.351v48.5l19.945-4.744,5.717-47.73Z" transform="translate(-212.181 -295.031)"/>
                        <path class="k" d="M198.153,316.351v48.5L178.208,360.1l-5.717-47.73Z" transform="translate(-160.227 -295.031)"/>
                    </g>
                </g>
                <g transform="translate(29.466 53.689)">
                    <g transform="translate(43.203)">
                        <path class="p" d="M286.078,430.082s-2.45,1.077-2.956,6.2a9.6,9.6,0,0,1-1.046,3.722l-6.505,1.551a12.144,12.144,0,0,0,1.988-4.169c.616-2.67.693-3.335.693-3.335s.414-1.575,4.648-3.718A5.687,5.687,0,0,1,286.078,430.082Z" transform="translate(-275.57 -427.43)"/>
                        <path class="q" d="M283.678,428.93a8.017,8.017,0,0,1,3.964-5.4c8.836-4.548,19.721,5,19.721,5l-1.519-.161.338,1.631-1.8-.225.788,1.575-1.688-.338.45,1.238-1.8-.45-.245,1.937s-5.239-6.457-8.258-7.6A8.974,8.974,0,0,0,283.678,428.93Z" transform="translate(-280.997 -422.306)"/>
                    </g>
                    <g transform="translate(0 0.014)">
                        <path class="p" d="M192.863,430.125s2.341,1.339,3.1,6.536a11.3,11.3,0,0,0,.894,3.377l6.508,1.563a12.15,12.15,0,0,1-1.988-4.169c-.616-2.671-.693-3.335-.693-3.335s-.414-1.575-4.649-3.718A5.687,5.687,0,0,0,192.863,430.125Z" transform="translate(-177.005 -427.473)"/>
                        <path class="q" d="M168.584,428.973a8.018,8.018,0,0,0-3.964-5.4c-8.836-4.548-19.721,5-19.721,5l1.519-.161-.338,1.631,1.8-.225-.788,1.576,1.688-.338-.45,1.238,1.8-.45.245,1.937s5.449-6.366,8.468-7.512A8.613,8.613,0,0,1,168.584,428.973Z" transform="translate(-144.899 -422.349)"/>
                    </g>
                </g>
            </g>
            <g transform="translate(7.296)">
                <g transform="translate(11.857 36.481)">
                    <path class="e" d="M173.461,251.451a3.271,3.271,0,0,0-2.2-1.389q.152-.97.3-1.939a5.235,5.235,0,0,1,3.513,2.223Z" transform="translate(-149.622 -246.931)"/>
                    <path class="b" d="M331.843,265.765a2.9,2.9,0,0,0-2.138.859l-1.238-1.225a4.643,4.643,0,0,1,3.422-1.374Z" transform="translate(-254.848 -257.575)"/>
                    <path class="b" d="M252.1,245.494a2.9,2.9,0,0,0-.427,2.265l-1.7.384a4.644,4.644,0,0,1,.682-3.624Z" transform="translate(-202.232 -244.519)"/>
                    <path class="b" d="M218.293,262.29a2.9,2.9,0,0,0-1.258-1.931l.962-1.451a4.643,4.643,0,0,1,2.013,3.09Z" transform="translate(-180.258 -254.15)"/>
                    <path class="e" d="M108,282.7a3.012,3.012,0,0,0-2.2-.951q0-.9,0-1.808a4.818,4.818,0,0,1,3.513,1.521Z" transform="translate(-105.802 -268.229)"/>
                    <path class="b" d="M352.184,301.248a5.655,5.655,0,0,0-2.71.181,7.124,7.124,0,0,1,4.917-2.8q.1.872.191,1.745A5.369,5.369,0,0,0,352.184,301.248Z" transform="translate(-268.91 -280.739)"/>
                    <path class="f" d="M267.109,282.074a5.656,5.656,0,0,0-1.5,2.265,7.122,7.122,0,0,1,.755-5.607l1.5.906A5.367,5.367,0,0,0,267.109,282.074Z" transform="translate(-212.594 -267.42)"/>
                    <path class="c" d="M242.8,274.444l.916,2.49-1.023,2.117-1.032-4.189Z" transform="translate(-196.743 -264.55)"/>
                    <path class="c" d="M367.336,254.847l-2.615.448-1.324,1.943,4.146-1.2Z" transform="translate(-278.23 -251.432)"/>
                </g>
                <g transform="translate(0)">
                    <g transform="translate(30.414)">
                        <g transform="translate(6.972)">
                            <g transform="translate(22.361 5.238)">
                                <path class="l" d="M253.54,52.309s12.2-10.218,17.145-7.842c2.351,1.13,1.743,1.935,4.076,3.484,2.59,1.721,2.9,3.6,2.653,5.024-.472,2.743-1.094,2.634-2.231,6.917-1.7,6.4-22.221-4.434-22.221-4.434Z" transform="translate(-252.961 -44.109)"/>
                                <path class="e" d="M261.575,63.246c2.57-1.932,4.872-3.684,4.872-3.684a6.965,6.965,0,0,1-1.379-2.473c-.206-1.252.142-2.671-.843-4.11a10.124,10.124,0,0,1-1.36-3.094,59.559,59.559,0,0,0-9.326,6.291l-.579,3.149S256.961,61.437,261.575,63.246Z" transform="translate(-252.961 -47.975)"/>
                                <path class="f" d="M271.933,84.621c1.479-.452,1.911-2.2-.081-4.538-2.367-2.783-18.891-1.91-18.891-1.91S265.7,84.9,271.933,84.621Z" transform="translate(-252.961 -66.823)"/>
                            </g>
                            <path class="l" d="M208.269,41.7s-7.771-13.89-13.235-13.427c-2.6.22-2.317,1.188-5.048,1.807-3.033.687-3.988,2.329-4.266,3.752-.535,2.731.085,2.851-.375,7.259-.688,6.59,22.346,3.759,22.346,3.759Z" transform="translate(-185.329 -28.266)"/>
                            <path class="e" d="M217.824,54.043c-1.715-2.72-3.243-5.176-3.243-5.176a6.958,6.958,0,0,0,2.169-1.82c.638-1.1.817-2.547,2.251-3.542a10.118,10.118,0,0,0,2.371-2.408,59.545,59.545,0,0,1,6.478,9.2l-.579,3.149S222.78,53.994,217.824,54.043Z" transform="translate(-204.91 -36.855)"/>
                            <path class="f" d="M190.951,67.13c-1.222-.949-1.005-2.731,1.69-4.212,3.2-1.759,18.335,4.933,18.335,4.933S196.68,69.607,190.951,67.13Z" transform="translate(-188.615 -51.264)"/>
                            <path class="f" d="M247.867,57.984l-3.7-.68a2.151,2.151,0,0,0-2.5,1.727l-1.069,5.816,7.932,1.458,1.069-5.816A2.151,2.151,0,0,0,247.867,57.984Z" transform="translate(-222.321 -47.679)"/>
                        </g>
                        <g transform="translate(0 13.818)">
                            <path class="i" d="M276.2,89.647l.529-8.243-25.683-9.05-1.467,7.914Z" transform="translate(-221.362 -71.595)"/>
                            <path class="k" d="M164.241,77.942l2.461-7.884,27.22.759-1.467,7.914Z" transform="translate(-164.241 -70.058)"/>
                            <path class="i" d="M219.076,104.072l-26.621-9.379L164.241,93.9l26.869,8.043Z" transform="translate(-164.241 -86.02)"/>
                            <path class="k" d="M208.7,95.147l12.986,3.887,13.375,1.016-12.845-4.526Z" transform="translate(-193.998 -86.852)"/>
                        </g>
                        <path class="l" d="M279.22,83.621a22.836,22.836,0,0,1-.767,7.659,25.668,25.668,0,0,1-2.592,5.951l1.922-.563.066,1.935,1.619-.967.309,1.812,1.659-.911.092,1.626,1.494-.826.506,1.464a17.982,17.982,0,0,0,2.613-7.951,25.3,25.3,0,0,0-.22-6.868Z" transform="translate(-238.957 -65.319)"/>
                        <path class="l" d="M193.221,70.858a25.441,25.441,0,0,0-2.246,8.275,28.588,28.588,0,0,0,.332,7.223l-1.775-1.35-.838,1.987-1.3-1.65-1.042,1.763L184.987,85.5l-.742,1.655L183.018,85.7l-1.108,1.322a20.027,20.027,0,0,1,.442-9.312,28.19,28.19,0,0,1,2.958-7.059Z" transform="translate(-175.838 -56.638)"/>
                    </g>
                    <g transform="translate(0 25.593)">
                        <path class="i" d="M74.852,108.721a5.655,5.655,0,0,0-2.6.787,7.123,7.123,0,0,1,4.16-3.835l.579,1.657A5.366,5.366,0,0,0,74.852,108.721Z" transform="translate(-72.252 -105.673)"/>
                        <path class="e" d="M95.646,132.553a5.428,5.428,0,0,1,6.078.075l.853-.69a5.775,5.775,0,0,0-8.122-.857Z" transform="translate(-87.114 -121.82)"/>
                        <path class="c" d="M131.669,110.322l2.631-.344,1.839,1.465-4.314.082Z" transform="translate(-112.024 -108.555)"/>
                    </g>
                    <g transform="translate(93.5 19.751)">
                        <path class="b" d="M411.451,129.538a2.9,2.9,0,0,0-2.138.859l-1.237-1.225A4.642,4.642,0,0,1,411.5,127.8Z" transform="translate(-390.543 -114.639)"/>
                        <path class="e" d="M396.179,89.767a3.012,3.012,0,0,0-1.934,1.408l-1.557-.918A4.821,4.821,0,0,1,395.783,88Z" transform="translate(-380.244 -88.003)"/>
                        <path class="i" d="M356.815,97.426a5.653,5.653,0,0,0-1.5,2.265,7.122,7.122,0,0,1,.755-5.607l1.5.906A5.366,5.366,0,0,0,356.815,97.426Z" transform="translate(-355.049 -92.073)"/>
                        <path class="c" d="M373.031,122.564l-2.615.448-1.324,1.943,4.146-1.2Z" transform="translate(-364.449 -111.137)"/>
                    </g>
                </g>
            </g>
        </g>
    </g>
</svg>