<svg xmlns="http://www.w3.org/2000/svg" id="prefix__link-m" width="24" height="24" viewBox="0 0 24 24">
    <path id="prefix__Path_2495" d="M0 0h24v24H0z" data-name="Path 2495" style="fill:none"/>
    <path id="prefix__Path_2496" d="M17.657 14.828l-1.414-1.414L17.657 12A4 4 0 0 0 12 6.343l-1.414 1.414-1.414-1.414 1.414-1.414a6 6 0 1 1 8.485 8.485l-1.414 1.414zm-2.829 2.829l-1.414 1.414a6 6 0 1 1-8.485-8.485l1.414-1.414 1.414 1.414L6.343 12A4 4 0 0 0 12 17.657l1.414-1.414zm0-9.9l1.415 1.415-7.071 7.07-1.415-1.414 7.071-7.07z" data-name="Path 2496"/>
</svg>
