<svg xmlns="http://www.w3.org/2000/svg" width="24" height="24" viewBox="0 0 24 24"><defs><style>.a{fill:none;}</style></defs><rect class="a" width="24" height="24" transform="translate(0 0)"/><path d="M20.116,5.718,15.532,1.134A.457.457,0,0,0,15.208,1H5.583A1.835,1.835,0,0,0,3.75,2.833V21.167A1.835,1.835,0,0,0,5.583,23H18.417a1.835,1.835,0,0,0,1.833-1.833V6.042A.457.457,0,0,0,20.116,5.718ZM15.667,2.565l3.018,3.018h-2.1a.917.917,0,0,1-.916-.916Zm3.666,18.6a.917.917,0,0,1-.916.916H5.583a.917.917,0,0,1-.916-.916V2.833a.917.917,0,0,1,.916-.916H14.75v2.75A1.835,1.835,0,0,0,16.583,6.5h2.75Z"/><path d="M17.042,13.833H6.958a.459.459,0,0,0,0,.917H17.042a.459.459,0,0,0,0-.917Z"/><path d="M17.042,11.083H6.958a.459.459,0,0,0,0,.917H17.042a.459.459,0,0,0,0-.917Z"/><path d="M17.042,16.583H6.958a.459.459,0,0,0,0,.917H17.042a.459.459,0,0,0,0-.917Z"/><path d="M12.458,19.333h-5.5a.459.459,0,0,0,0,.917h5.5a.459.459,0,1,0,0-.917Z"/><path d="M11.083,8.792a.458.458,0,0,0,.459.458h5.5a.459.459,0,0,0,0-.917h-5.5A.458.458,0,0,0,11.083,8.792Z"/><path d="M7.875,8.333H6.958a.459.459,0,0,0,0,.917h.459a.458.458,0,0,0,.916,0V9.166A1.372,1.372,0,0,0,7.875,6.5a.459.459,0,0,1,0-.917h.917a.458.458,0,0,0,0-.916H8.333a.458.458,0,1,0-.916,0v.084a1.372,1.372,0,0,0,.458,2.666.458.458,0,0,1,0,.916Z"/></svg>