<?xml version="1.0" encoding="utf-8"?>
<!-- Generator: Adobe Illustrator 24.1.3, SVG Export Plug-In . SVG Version: 6.00 Build 0)  -->
<svg version="1.1" id="Layer_1" xmlns="http://www.w3.org/2000/svg" xmlns:xlink="http://www.w3.org/1999/xlink" x="0px" y="0px"
	 width="512px" height="512px" viewBox="0 0 512 512" enable-background="new 0 0 512 512" xml:space="preserve">
<g>
	<path fill="#525A7E" d="M507.4,231.8l-4.8,3.7l-3.8-4.9c-0.9-1.2-2.7-1.4-4-0.5c-1.2,0.9-1.4,2.7-0.5,4l3.8,4.9l-4.9,3.8
		c-1.2,0.9-1.4,2.7-0.5,4c0.9,1.2,2.7,1.4,4,0.5l4.9-3.8l3.8,4.9c0.9,1.2,2.7,1.4,4,0.5c1.2-0.9,1.4-2.7,0.5-4l-3.8-4.9l4.8-3.7
		c1.2-1,1.5-2.7,0.5-4C510.5,231.1,508.7,230.9,507.4,231.8z"/>
	<path fill="#525A7E" d="M41.5,34.8l-8.2-3.1l3.1-8.3c0.8-2.1-0.3-4.4-2.4-5.2c-2.1-0.8-4.4,0.3-5.2,2.4l-3.1,8.3l-8.4-3.2
		c-2.1-0.8-4.4,0.3-5.2,2.4s0.3,4.4,2.4,5.2l8.4,3.2l-3.1,8.3c-0.8,2.1,0.3,4.4,2.4,5.2s4.4-0.3,5.2-2.4l3.1-8.3l8.2,3.1
		c2.1,0.8,4.4-0.2,5.2-2.4C44.7,37.9,43.6,35.5,41.5,34.8z"/>
	<path fill="#525A7E" d="M11.3,228.5c-6.2,0-11.3,5.1-11.3,11.3s5.1,11.3,11.3,11.3s11.3-5.1,11.3-11.3S17.6,228.5,11.3,228.5z
		 M11.3,246.1c-3.5,0-6.3-2.8-6.3-6.3s2.8-6.3,6.3-6.3s6.3,2.8,6.3,6.3S14.8,246.1,11.3,246.1z"/>
	<path fill="#525A7E" d="M450.2,471.5c-6.2,0-11.3,5.1-11.3,11.3c0,6.2,5.1,11.3,11.3,11.3c6.2,0,11.3-5.1,11.3-11.3
		S456.4,471.5,450.2,471.5z M450.2,489.1c-3.5,0-6.3-2.8-6.3-6.3s2.8-6.3,6.3-6.3s6.3,2.8,6.3,6.3
		C456.4,486.3,453.6,489.1,450.2,489.1z"/>
	<path fill="#525A7E" d="M438.5,22.4c-10.3,0-18.6,8.4-18.6,18.6s8.4,18.6,18.6,18.6c10.3,0,18.6-8.4,18.6-18.6
		S448.8,22.4,438.5,22.4z M438.5,51.4c-5.7,0-10.4-4.6-10.4-10.4s4.6-10.4,10.4-10.4c5.7,0,10.4,4.6,10.4,10.4
		S444.2,51.4,438.5,51.4z"/>
	<g>
		<g>
			<g>
				<path fill="#EAEDF7" d="M348,74.4H93.6c-10,0-18.2,8.1-18.2,18.2v351c0,10,8.1,18.2,18.2,18.2H348c10,0,18.2-8.1,18.2-18.2v-351
					C366.1,82.5,358,74.4,348,74.4z"/>
			</g>
			<g>
				<path fill="#FFFFFF" d="M329.8,74.2H93.6c-10,0-18.2,8.1-18.2,18.2v345.2h236.2c10,0,18.2-8.1,18.2-18.2V74.2z"/>
			</g>
			<g>
				<path fill="#525A7E" d="M348,466.3H93.6c-12.5,0-22.7-10.2-22.7-22.7V92.3c0-12.5,10.2-22.7,22.7-22.7H348
					c12.5,0,22.7,10.2,22.7,22.7v351.3C370.7,456.1,360.5,466.3,348,466.3z M93.6,78.7c-7.5,0-13.6,6.1-13.6,13.6v351.3
					c0,7.5,6.1,13.6,13.6,13.6H348c7.5,0,13.6-6.1,13.6-13.6V92.3c0-7.5-6.1-13.6-13.6-13.6C348,78.7,93.6,78.7,93.6,78.7z"/>
			</g>
			<g>
				<path fill="#525A7E" d="M281.3,121.3H160.2c-12.5,0-22.7-10.2-22.7-22.7V74.4c0-2.5,2-4.5,4.5-4.5h157.5c2.5,0,4.5,2,4.5,4.5
					v24.2C304,111.2,293.9,121.3,281.3,121.3z M146.6,78.9v19.7c0,7.5,6.1,13.6,13.6,13.6h121.1c7.5,0,13.6-6.1,13.6-13.6V78.9
					H146.6z"/>
			</g>
			<g>
				<path fill="#525A7E" d="M190.3,357.3H142c-2.5,0-4.5-2-4.5-4.5s2-4.5,4.5-4.5h48.3c2.5,0,4.5,2,4.5,4.5
					C194.9,355.3,192.8,357.3,190.3,357.3z"/>
			</g>
			<g>
				<path fill="#525A7E" d="M117.8,357.3h-12.1c-2.5,0-4.5-2-4.5-4.5s2-4.5,4.5-4.5h12.1c2.5,0,4.5,2,4.5,4.5
					C122.4,355.3,120.3,357.3,117.8,357.3z"/>
			</g>
			<g>
				<path fill="#525A7E" d="M186.8,393.7L186.8,393.7h-44.7c-2.5,0-4.5-2-4.5-4.5s2-4.5,4.5-4.5l0,0h44.7c2.5,0,4.5,2,4.5,4.5
					C191.3,391.6,189.3,393.7,186.8,393.7z"/>
			</g>
			<g>
				<g>
					<path fill="#525A7E" d="M117.8,393.6h-12.1c-2.5,0-4.5-2-4.5-4.5s2-4.5,4.5-4.5h12.1c2.5,0,4.5,2,4.5,4.5
						C122.4,391.6,120.3,393.6,117.8,393.6z"/>
				</g>
			</g>
			<g>
				<path fill="#525A7E" d="M193.8,321H142c-2.5,0-4.5-2-4.5-4.5s2-4.5,4.5-4.5h51.8c2.5,0,4.5,2,4.5,4.5
					C198.4,318.9,196.3,321,193.8,321z"/>
			</g>
			<g>
				<path fill="#525A7E" d="M117.8,321h-12.1c-2.5,0-4.5-2-4.5-4.5s2-4.5,4.5-4.5h12.1c2.5,0,4.5,2,4.5,4.5
					C122.4,318.9,120.3,321,117.8,321z"/>
			</g>
			<g>
				<path fill="#525A7E" d="M197.3,284.6H142c-2.5,0-4.5-2-4.5-4.5s2-4.5,4.5-4.5h55.3c2.5,0,4.5,2,4.5,4.5
					C201.9,282.6,199.9,284.6,197.3,284.6z"/>
			</g>
			<g>
				<path fill="#525A7E" d="M117.8,284.6h-12.1c-2.5,0-4.5-2-4.5-4.5s2-4.5,4.5-4.5h12.1c2.5,0,4.5,2,4.5,4.5
					C122.4,282.6,120.3,284.6,117.8,284.6z"/>
			</g>
			<g>
				<path fill="#525A7E" d="M200.9,248.3H142c-2.5,0-4.5-2-4.5-4.5s2-4.5,4.5-4.5h58.8c2.5,0,4.5,2,4.5,4.5
					C205.4,246.2,203.4,248.3,200.9,248.3z"/>
			</g>
			<g>
				<g>
					<path fill="#525A7E" d="M117.8,248.3h-12.1c-2.5,0-4.5-2-4.5-4.5s2-4.5,4.5-4.5h12.1c2.5,0,4.5,2,4.5,4.5
						C122.4,246.2,120.3,248.3,117.8,248.3z"/>
				</g>
			</g>
			<g>
				<path fill="#525A7E" d="M211.2,211.9H142c-2.5,0-4.5-2-4.5-4.5s2-4.5,4.5-4.5h69.1c2.5,0,4.5,2,4.5,4.5
					C215.7,209.9,213.7,211.9,211.2,211.9z"/>
			</g>
			<g>
				<path fill="#525A7E" d="M117.8,211.9h-12.1c-2.5,0-4.5-2-4.5-4.5s2-4.5,4.5-4.5h12.1c2.5,0,4.5,2,4.5,4.5
					C122.4,209.9,120.3,211.9,117.8,211.9z"/>
			</g>
			<g>
				<path fill="#525A7E" d="M259.6,175.6h-52.7c-2.5,0-4.5-2-4.5-4.5s2-4.5,4.5-4.5h52.7c2.5,0,4.5,2,4.5,4.5
					S262.1,175.6,259.6,175.6z"/>
			</g>
			<g>
				<path fill="#525A7E" d="M182.7,175.6H142c-2.5,0-4.5-2-4.5-4.5s2-4.5,4.5-4.5h40.6c2.5,0,4.5,2,4.5,4.5S185.2,175.6,182.7,175.6
					z"/>
			</g>
			<g>
				<g>
					<path fill="#525A7E" d="M117.8,175.6h-12.1c-2.5,0-4.5-2-4.5-4.5s2-4.5,4.5-4.5h12.1c2.5,0,4.5,2,4.5,4.5
						S120.3,175.6,117.8,175.6z"/>
				</g>
			</g>
			<g>
				<path fill="#FFFFFF" d="M433.9,225.6h-196c-6.2,0-11.5,4.7-12.1,10.9L210,400.1c-0.7,7.1,4.9,13.3,12.1,13.3h227.7
					c7.2,0,12.7-6.2,12.1-13.3l-15.8-163.5C445.3,230.3,440.1,225.6,433.9,225.6z"/>
			</g>
			<g>
				<path fill="#EAEDF7" d="M445.9,236.5c-0.6-6.2-5.8-10.9-12.1-10.9H423l14.5,150.2c0.7,7.1-4.9,13.3-12.1,13.3H211l-1.1,10.9
					c-0.7,7.1,4.9,13.3,12.1,13.3h227.7c7.2,0,12.7-6.2,12.1-13.3L445.9,236.5z"/>
			</g>
			<g>
				<path fill="#525A7E" d="M449.7,417.9H222c-4.7,0-9.2-2-12.3-5.5c-3.2-3.5-4.7-8.1-4.2-12.8l15.8-163.5c0.8-8.6,8-15.1,16.6-15.1
					h196c8.6,0,15.7,6.5,16.6,15.1l15.8,163.5c0.5,4.7-1.1,9.3-4.2,12.8C458.9,415.9,454.4,417.9,449.7,417.9z M237.8,230.1
					c-3.9,0-7.2,2.9-7.5,6.8l-15.8,163.5c-0.2,2.2,0.5,4.2,1.9,5.8c1.5,1.6,3.4,2.5,5.6,2.5h227.7c2.2,0,4.2-0.9,5.6-2.5
					c1.5-1.6,2.1-3.7,1.9-5.8L441.4,237c-0.4-3.9-3.6-6.8-7.5-6.8L237.8,230.1L237.8,230.1z"/>
			</g>
			<g>
				<g>
					<path fill="#525A7E" d="M408.5,254.3c-2.5,0-4.5-2-4.5-4.5v-18.2c0-30.9-25.1-56-56-56h-24.2c-30.9,0-56,25.1-56,56v18.2
						c0,2.5-2,4.5-4.5,4.5s-4.5-2-4.5-4.5v-18.2c0-35.9,29.2-65.1,65.1-65.1H348c35.9,0,65.1,29.2,65.1,65.1v18.2
						C413.1,252.3,411,254.3,408.5,254.3z"/>
				</g>
			</g>
			<g>
				<path fill="#FFFFFF" d="M397.6,300.9c0-18.2-14.9-32.9-33.2-32.9c-12.2,0-22.8,6.5-28.6,16.2c-5.8-9.7-16.4-16.2-28.6-16.2
					c-18.3,0-33.2,14.7-33.2,32.9c0,38.7,61.8,76.1,61.8,76.1S397.6,339.6,397.6,300.9z"/>
			</g>
			<g>
				<path fill="#EAEDF7" d="M364.4,268c-2.6,0-5,0.3-7.4,0.9c7,6,11.5,14.8,11.5,24.7c0,29-34.7,57.3-52.1,69.7
					c10.8,8.5,19.4,13.7,19.4,13.7s61.8-37.4,61.8-76.1C397.6,282.7,382.8,268,364.4,268z"/>
			</g>
			<g>
				<path fill="#525A7E" d="M335.9,381.6c-0.8,0-1.6-0.2-2.3-0.7c-2.6-1.6-64-39.2-64-80c0-20.6,16.9-37.4,37.7-37.4
					c11,0,21.5,4.9,28.6,13c7.1-8.2,17.6-13,28.6-13c20.8,0,37.7,16.8,37.7,37.4c0,40.8-61.4,78.4-64,80
					C337.5,381.3,336.7,381.6,335.9,381.6z M307.3,272.5c-15.8,0-28.7,12.7-28.7,28.3c0,31.7,46.2,63.6,57.2,70.7
					c11-7.2,57.2-39.1,57.2-70.7c0-15.6-12.9-28.3-28.7-28.3c-10.1,0-19.5,5.4-24.7,14c-1.6,2.8-6.2,2.8-7.8,0
					C326.8,277.9,317.4,272.5,307.3,272.5z"/>
			</g>
		</g>
	</g>
</g>
</svg>
