<?xml version="1.0" encoding="utf-8"?>
<!-- Generator: Adobe Illustrator 24.1.3, SVG Export Plug-In . SVG Version: 6.00 Build 0)  -->
<svg version="1.1" id="Layer_1" xmlns="http://www.w3.org/2000/svg" xmlns:xlink="http://www.w3.org/1999/xlink" x="0px" y="0px"
	 width="512px" height="512px" viewBox="0 0 512 512" enable-background="new 0 0 512 512" xml:space="preserve">
<g>
	<path fill="#EAEDF7" d="M386.3,107.9v24.1H150.1c0,0-15.7,2.4-15.7-15.7V71.7c0,0-2.4-12.7,12.7-12.7h75.3L241.6,91h130.2
		C371.8,91,386.3,93.4,386.3,107.9z"/>
	<path fill="#525A7E" d="M350.7,104.2l-128.6,0L203.9,74c-0.7-1.1-1.9-1.8-3.2-1.8h-75.3c-6,0-10.6,1.8-13.4,5.3
		c-4,4.8-3.1,10.8-3,11.3v189c0,6.9,1.9,12,5.9,15.5c3.8,3.3,8.4,4,11.6,4c0.9,0,1.6,0,2.1-0.1h235.9c2,0,3.7-1.7,3.7-3.7V124.7
		C368.3,110.9,356.8,105.3,350.7,104.2z M116.4,277.8V88.6l0-0.6c0,0-0.5-3.5,1.3-5.7c1.4-1.7,4-2.5,7.7-2.5l1.3-0.1h71.8l18.2,30.1
		c0.7,1.1,1.9,1.8,3.2,1.8l129.7,0c1.1,0.2,11.2,2.4,11.2,13.2v165H128.4l-0.6,0c-0.5,0.1-4.9,0.5-8-2.1
		C117.6,285.7,116.4,282.4,116.4,277.8z"/>
	<ellipse fill="#F5F6F6" cx="319.4" cy="431.7" rx="165.8" ry="32"/>
	<g>
		<path fill="#525A7E" d="M395.2,359.2c-0.9-0.9-2.5-0.9-3.4,0c-0.9,0.9-0.9,2.5,0,3.4l7.2,7.2c0.5,0.5,1.1,0.7,1.7,0.7
			c0.7,0,1.3-0.2,1.7-0.7c0.9-0.9,0.9-2.5,0-3.4L395.2,359.2z"/>
		<path fill="#525A7E" d="M414.4,356.9l-7.2-7.2c-0.9-0.9-2.5-0.9-3.4,0c-0.9,0.9-0.9,2.5,0,3.4l7.2,7.2c0.5,0.5,1.1,0.7,1.7,0.7
			c0.6,0,1.3-0.2,1.7-0.7C415.3,359.3,415.3,357.7,414.4,356.9z"/>
	</g>
	<circle fill="#EAEDF7" cx="333.3" cy="274.2" r="108.4"/>
	<g>
		<g>
			<circle fill="#FFFFFF" cx="316.4" cy="274.2" r="108.4"/>
			<path fill="#525A7E" d="M316.4,382.9c-59.9,0-108.7-48.7-108.7-108.7c0-59.9,48.7-108.7,108.7-108.7
				c59.9,0,108.7,48.7,108.7,108.7C425.1,334.1,376.3,382.9,316.4,382.9z M316.4,166c-59.6,0-108.2,48.5-108.2,108.2
				c0,59.6,48.5,108.2,108.2,108.2c59.6,0,108.2-48.5,108.2-108.2C424.6,214.6,376,166,316.4,166z"/>
		</g>
		<path fill="#525A7E" d="M316.4,162.1c-61.8,0-112.1,50.3-112.1,112.1s50.3,112.1,112.1,112.1S428.5,336,428.5,274.2
			S378.2,162.1,316.4,162.1z M421.1,274.2c0,57.7-47,104.7-104.7,104.7c-57.7,0-104.7-47-104.7-104.7s47-104.7,104.7-104.7
			C374.1,169.5,421.1,216.5,421.1,274.2z"/>
	</g>
	<path fill="#525A7E" d="M316.4,178.9c-52.5,0-95.3,42.7-95.3,95.3s42.7,95.3,95.3,95.3c52.5,0,95.3-42.7,95.3-95.3
		S368.9,178.9,316.4,178.9z M404.2,274.2c0,48.4-39.4,87.8-87.8,87.8c-48.4,0-87.8-39.4-87.8-87.8c0-48.4,39.4-87.8,87.8-87.8
		C364.8,186.4,404.2,225.8,404.2,274.2z"/>
	<path fill="#525A7E" d="M499.1,229.3c-7.1,0-12.9,5.8-12.9,12.9s5.8,12.9,12.9,12.9c7.1,0,12.9-5.8,12.9-12.9
		S506.2,229.3,499.1,229.3z M505.4,242.2c0,3.5-2.8,6.3-6.3,6.3s-6.3-2.8-6.3-6.3s2.8-6.3,6.3-6.3S505.4,238.8,505.4,242.2z"/>
	<path fill="#525A7E" d="M367.9,146.1c-0.3-1.5-1.8-2.6-3.4-2.6H113.9c-1,0-1.9,0.4-2.5,1.1c-0.7,0.7-1,1.7-0.9,2.6
		c0.1,1.8,1.7,3.2,3.7,3.2h250.4c1.1,0,2.1-0.5,2.8-1.4C368,148.1,368.2,147.1,367.9,146.1z"/>
	<path fill="#525A7E" d="M36.8,82H26.6V71.7c0-2.3-1.9-4.2-4.2-4.2c-2.3,0-4.2,1.9-4.2,4.2V82H7.8c-2.3,0-4.2,1.9-4.2,4.2
		s1.9,4.2,4.2,4.2h10.3v10.2c0,2.3,1.9,4.2,4.2,4.2c2.3,0,4.2-1.9,4.2-4.2V90.5h10.1c2.4,0,4.2-1.9,4.2-4.2C41,83.9,39.1,82,36.8,82
		z"/>
	<path fill="#525A7E" d="M282.7,252.5l7.8-7.8c1.3-1.3,1.3-3.6,0-4.9c-1.3-1.3-3.6-1.3-4.9,0l-7.8,7.8l-7.8-7.8
		c-1.3-1.3-3.6-1.3-4.9,0c-1.3,1.3-1.3,3.6,0,4.9l7.8,7.8l-7.8,7.8c-1.3,1.3-1.3,3.6,0,4.9c0.7,0.7,1.5,1,2.4,1c0.9,0,1.8-0.3,2.4-1
		l7.8-7.8l7.8,7.8c0.7,0.7,1.5,1,2.4,1c0.9,0,1.8-0.3,2.4-1c1.3-1.3,1.3-3.6,0-4.9L282.7,252.5z"/>
	<path fill="#525A7E" d="M362.3,252.5l7.8-7.8c0.6-0.6,1-1.5,1-2.4s-0.4-1.8-1-2.4c-1.3-1.3-3.6-1.3-4.9,0l-7.8,7.8l-7.8-7.8
		c-1.3-1.3-3.6-1.3-4.9,0c-1.3,1.3-1.3,3.6,0,4.9l7.8,7.8l-7.8,7.8c-1.3,1.3-1.3,3.6,0,4.9c0.7,0.7,1.5,1,2.4,1c0.9,0,1.8-0.3,2.4-1
		l7.8-7.8l7.7,7.8c0.7,0.7,1.5,1,2.4,1c1,0,1.9-0.3,2.5-1c0.6-0.6,1-1.5,1-2.4c0-0.9-0.4-1.8-1-2.4L362.3,252.5z"/>
	<path fill="#525A7E" d="M487.5,69.9H470V52.5c0-2.3-1.9-4.2-4.2-4.2c-2.3,0-4.2,1.9-4.2,4.2v17.4h-17.4c-2.3,0-4.2,1.9-4.2,4.2
		c0,2.3,1.9,4.2,4.2,4.2h17.4v17.5c0,2.3,1.9,4.2,4.2,4.2c2.4,0,4.2-1.9,4.2-4.2V78.4h17.5c2.3,0,4.2-1.9,4.2-4.2
		C491.7,71.8,489.8,69.9,487.5,69.9z"/>
	<g>
		<path fill="none" stroke="#FFFFFF" stroke-miterlimit="10" d="M299.5,310.3c0,0,2.4-14.5,19.3-14.5c0,0,19.3,0,19.3,14.5"/>
		<path fill="#525A7E" d="M340.1,307.4c-2.5-13.1-13.8-15-20.3-15c-15.6,0-19.9,10-21.1,14.3c-0.3,1,0,2.2,0.7,3
			c0.7,0.8,1.7,1.3,2.7,1.2l0.2,0c1.3-0.1,2.5-1,3-2.4c1-3.4,4.1-9.1,14.5-9.1c1.3,0,12.5,0.3,13.7,9.1c0.1,1.6,1.6,2.9,3.4,2.9
			c1,0,1.9-0.5,2.6-1.2C340.1,309.4,340.3,308.4,340.1,307.4z"/>
	</g>
	<g>
		<g>
			<path fill="#FFFFFF" d="M476.1,431.7L476.1,431.7c-7.7,7.7-20.1,7.7-27.8,0l-41.2-41.2c-7.7-7.7-7.7-20.1,0-27.8l0,0
				c7.7-7.7,20.1-7.7,27.8,0l41.2,41.2C483.8,411.7,483.8,424,476.1,431.7z"/>
			<path fill="#525A7E" d="M462.2,437.7c-5.3,0-10.3-2.1-14.1-5.8L407,390.7c-3.8-3.8-5.8-8.8-5.8-14.1c0-5.3,2.1-10.3,5.8-14.1
				s8.8-5.8,14.1-5.8c5.3,0,10.3,2.1,14.1,5.8l41.2,41.2c7.7,7.7,7.7,20.4,0,28.1C472.5,435.7,467.5,437.7,462.2,437.7z M421,357.2
				c-5.2,0-10,2-13.7,5.7c-7.6,7.6-7.6,19.8,0,27.4l41.2,41.2c7.6,7.6,19.8,7.6,27.4,0s7.6-19.8,0-27.4l-41.2-41.2
				C431,359.2,426.2,357.2,421,357.2z"/>
		</g>
		<path fill="#525A7E" d="M478,402.1l-41.2-41.2c-8.7-8.7-22.8-8.7-31.5,0c-4.2,4.2-6.6,9.8-6.6,15.8c0,5.9,2.3,11.5,6.6,15.7
			l41.2,41.2c4.2,4.2,9.8,6.5,15.7,6.5s11.6-2.3,15.7-6.5c4.2-4.2,6.6-9.8,6.6-15.7C484.5,411.9,482.2,406.3,478,402.1z
			 M479.1,417.8c0,4.6-1.7,8.8-4.9,12c-6.6,6.6-17.3,6.6-23.9,0L409,388.6c-3.2-3.3-4.9-7.5-4.9-12c0-4.6,1.7-8.8,4.9-12
			c3.3-3.2,7.5-4.9,12-4.9c4.5,0,8.9,1.8,11.9,4.9l41.2,41.2C477.3,409.1,479.1,413.4,479.1,417.8z"/>
	</g>
	<path fill="#EAEDF7" d="M0.6,299.1L33,360.4c1.4,2.7,4.7,3.8,7.3,2.3l45.4-24.4c2.6-1.4,3.6-4.7,2.1-7.4l-36.1-65.2L2.8,291.9
		C0.2,293.3-0.8,296.6,0.6,299.1z"/>
	<path fill="#525A7E" d="M103.4,320.6l-27.5-50.1c-0.3-0.7-0.9-1.2-1.6-1.4l-18-5c-0.6-0.3-1.3-0.2-2,0.1L17.3,284
		c-1.9,1-3.2,2.6-3.9,4.6c-0.6,2-0.4,4.1,0.5,6L44,352.3c0.8,1.8,2.5,3.2,4.7,3.9c0.8,0.2,1.5,0.3,2.3,0.3c1.2,0,2.3-0.3,3.4-0.6
		l0.4-0.1l45.4-24.4c2-1,3.3-2.7,3.9-4.8C104.7,324.6,104.4,322.5,103.4,320.6z M63.2,276.2l-2.9-4.8l7.4,2.1L63.2,276.2z
		 M62.1,282.4l0.2,0c0.4,0,0.9-0.2,1.2-0.5l9.5-5.7l25.6,46.7c0.4,0.6,0.4,1.4,0.2,2.1c-0.2,0.8-0.9,1.3-1.3,1.6L52.1,351
		c-0.6,0.4-1.3,0.4-2,0.2c-0.7-0.2-1.3-0.8-1.7-1.4l-29.9-57.7c-0.6-1.3-0.2-3,1.1-3.8l33.9-18.1l6.6,11c0.3,0.4,0.8,0.9,1.5,1.1
		C61.7,282.4,62,282.4,62.1,282.4z"/>
	<g>
		<path fill="#525A7E" d="M31.1,303.3c-0.7,0-1.3-0.4-1.6-1c-0.5-0.9-0.1-2,0.8-2.4l24.3-12.4c0.9-0.4,2-0.1,2.4,0.8
			c0.5,0.9,0.1,2-0.8,2.4L32,303.1C31.7,303.2,31.4,303.3,31.1,303.3z"/>
	</g>
	<g>
		<path fill="#525A7E" d="M43.2,325.9c-0.7,0-1.3-0.4-1.6-1c-0.5-0.9-0.1-2,0.8-2.4l29.7-15.2c0.9-0.5,2-0.1,2.4,0.8
			c0.5,0.9,0.1,2-0.8,2.4L44,325.7C43.8,325.8,43.5,325.9,43.2,325.9z"/>
	</g>
	<g>
		<path fill="#525A7E" d="M48.9,336.7c-0.7,0-1.3-0.4-1.6-1c-0.5-0.9-0.1-2,0.8-2.4l31.1-15.9c0.9-0.4,2-0.1,2.4,0.8
			c0.5,0.9,0.1,2-0.8,2.4l-31.1,15.9C49.4,336.6,49.2,336.7,48.9,336.7z"/>
	</g>
	<g>
		<path fill="#525A7E" d="M36.4,314.6c-0.7,0-1.3-0.4-1.6-1c-0.5-0.9-0.1-2,0.8-2.4l29.7-15.2c0.9-0.5,2-0.1,2.4,0.8
			c0.5,0.9,0.1,2-0.8,2.4l-29.7,15.2C37,314.6,36.7,314.6,36.4,314.6z"/>
	</g>
</g>
</svg>
