<?xml version="1.0" encoding="utf-8"?>
<!-- Generator: Adobe Illustrator 24.1.3, SVG Export Plug-In . SVG Version: 6.00 Build 0)  -->
<svg version="1.1" id="Layer_1" xmlns="http://www.w3.org/2000/svg" xmlns:xlink="http://www.w3.org/1999/xlink" x="0px" y="0px"
	 width="512px" height="512px" viewBox="0 0 512 512" enable-background="new 0 0 512 512" xml:space="preserve">
<g>
	<path fill="#525A7E" d="M483,504.4l-4-1.4l1.4-4c0.4-1-0.2-2.1-1.2-2.5s-2.1,0.2-2.5,1.2l-1.4,4l-4.1-1.4c-1-0.4-2.1,0.2-2.5,1.2
		s0.2,2.1,1.2,2.5l4.1,1.4l-1.4,4c-0.4,1,0.2,2.1,1.2,2.5c1,0.4,2.1-0.2,2.5-1.2l1.4-4l4,1.4c1,0.4,2.1-0.2,2.5-1.2
		S484,504.8,483,504.4z"/>
	<path fill="#525A7E" d="M493.9,170.7l-7.6-4.9l4.9-7.7c1.2-1.9,0.6-4.5-1.3-5.7s-4.5-0.6-5.7,1.3l-4.9,7.7l-7.7-5
		c-1.9-1.2-4.5-0.6-5.7,1.3c-1.2,1.9-0.6,4.5,1.3,5.7l7.7,5l-4.9,7.7c-1.2,1.9-0.6,4.5,1.3,5.7s4.5,0.6,5.7-1.3l4.9-7.7l7.6,4.9
		c2,1.3,4.5,0.7,5.7-1.3C496.4,174.5,495.8,171.9,493.9,170.7z"/>
	<path fill="#525A7E" d="M26.7,137.8l-2.8-1.8l1.8-2.8c0.4-0.7,0.2-1.7-0.5-2.1c-0.7-0.4-1.7-0.2-2.1,0.5l-1.8,2.8l-2.8-1.8
		c-0.7-0.4-1.7-0.2-2.1,0.5s-0.2,1.7,0.5,2.1l2.8,1.8l-1.8,2.8c-0.4,0.7-0.2,1.7,0.5,2.1s1.7,0.2,2.1-0.5l1.8-2.8l2.8,1.8
		c0.7,0.5,1.6,0.3,2.1-0.5C27.6,139.2,27.4,138.2,26.7,137.8z"/>
	<path fill="#525A7E" d="M435.3,47.4l-1.8-1.2l1.2-1.8c0.3-0.5,0.2-1.1-0.3-1.4s-1.1-0.2-1.4,0.3l-1.2,1.8L430,44
		c-0.5-0.3-1.1-0.2-1.4,0.3s-0.2,1.1,0.3,1.4l1.8,1.2l-1.2,1.8c-0.3,0.5-0.2,1.1,0.3,1.4s1.1,0.2,1.4-0.3l1.2-1.8l1.8,1.2
		c0.5,0.3,1.1,0.2,1.4-0.3C435.9,48.3,435.8,47.7,435.3,47.4z"/>
	<path fill="#525A7E" d="M291.7,0c-2.9,0-5.2,2.3-5.2,5.2s2.3,5.2,5.2,5.2s5.2-2.3,5.2-5.2S294.5,0,291.7,0z M291.7,8.1
		c-1.6,0-2.9-1.3-2.9-2.9s1.3-2.9,2.9-2.9s2.9,1.3,2.9,2.9S293.3,8.1,291.7,8.1z"/>
	<path fill="#525A7E" d="M31.7,489.1c-5.5,0-9.9,4.4-9.9,9.9s4.4,9.9,9.9,9.9s9.9-4.4,9.9-9.9S37.1,489.1,31.7,489.1z M31.7,504.5
		c-3,0-5.5-2.5-5.5-5.5s2.5-5.5,5.5-5.5s5.5,2.5,5.5,5.5S34.7,504.5,31.7,504.5z"/>
	<path fill="#525A7E" d="M122.4,5.2c-5.9,0-10.6,4.8-10.6,10.6s4.8,10.6,10.6,10.6c5.9,0,10.6-4.8,10.6-10.6S128.2,5.2,122.4,5.2z
		 M122.4,21.7c-3.3,0-5.9-2.6-5.9-5.9s2.6-5.9,5.9-5.9s5.9,2.6,5.9,5.9S125.6,21.7,122.4,21.7z"/>
	<g>
		<g>
			<polygon fill="#FFFFFF" points="221.9,238.9 61.2,296.3 221.9,353.7 			"/>
		</g>
		<g>
			<polygon fill="#FFFFFF" points="412.1,310.8 256.9,255.4 256.9,366.2 			"/>
		</g>
		<g>
			<path fill="#22375F" d="M256.9,371.4c-0.6,0-1.2-0.1-1.8-0.3L59.5,301.2c-2.1-0.8-3.5-2.7-3.5-4.9c0-2.2,1.4-4.2,3.5-4.9
				l195.7-69.9c1.1-0.4,2.4-0.4,3.5,0l195.7,69.9c2.1,0.8,3.5,2.7,3.5,4.9c0,2.2-1.4,4.2-3.5,4.9l-195.7,69.9
				C258.1,371.3,257.5,371.4,256.9,371.4z M76.8,296.3l180.1,64.3L437,296.3L256.9,232L76.8,296.3z"/>
		</g>
		<g>
			<g>
				<polygon fill="#F1F1F3" points="228.9,177.5 33.3,247.4 61.2,296.3 256.9,226.4 				"/>
			</g>
		</g>
		<g>
			<path fill="#FFFFFF" d="M146.8,206.8L33.3,247.4L52.5,281l97.9-35c8.2-2.9,11.8-12.5,7.4-20.1L146.8,206.8z"/>
		</g>
		<g>
			<g>
				<path fill="#525A7E" d="M61.2,301.5c-1.8,0-3.6-1-4.6-2.6l-28-48.9c-0.8-1.4-0.9-3-0.4-4.4s1.7-2.6,3.2-3.1l195.7-69.9
					c2.4-0.9,5.1,0.1,6.3,2.3l28,48.9c0.8,1.3,0.9,3,0.4,4.4s-1.7,2.6-3.2,3.1L63,301.2C62.4,301.5,61.8,301.5,61.2,301.5z
					 M40.9,250.2l22.7,39.7l185.6-66.3l-22.7-39.7L40.9,250.2z"/>
			</g>
		</g>
		<g>
			<polygon fill="#EAEDF7" points="284.8,177.5 480.5,247.4 452.5,296.3 256.9,226.4 			"/>
		</g>
		<g>
			<path fill="#FFFFFF" d="M284.8,177.5l165,58.9l-12.4,21.8c-3.4,5.9-10.5,8.5-16.8,6.2l-154-55L284.8,177.5z"/>
		</g>
		<g>
			<path fill="#525A7E" d="M452.5,301.5c-0.6,0-1.2-0.1-1.8-0.3L255,231.3c-1.5-0.5-2.6-1.7-3.2-3.1c-0.5-1.5-0.4-3.1,0.4-4.4
				l28-48.9c1.3-2.2,3.9-3.2,6.3-2.3l195.7,69.9c1.5,0.5,2.6,1.7,3.2,3.1c0.5,1.5,0.4,3.1-0.4,4.4l-28,48.9
				C456.1,300.6,454.4,301.5,452.5,301.5z M264.5,223.6l185.6,66.3l22.7-39.7l-185.6-66.3L264.5,223.6z"/>
		</g>
		<g>
			<polygon fill="#EAEDF7" points="256.9,499 61.2,429.1 61.2,296.3 256.9,366.2 			"/>
		</g>
		<g>
			<path fill="#FFFFFF" d="M212.6,453.7L61.2,399.6V296.3l160.7,57.4v93.4C221.9,452,217.2,455.3,212.6,453.7z"/>
		</g>
		<g>
			<path fill="#525A7E" d="M256.9,504.2c-0.6,0-1.2-0.1-1.8-0.3L59.5,434c-2.1-0.7-3.5-2.7-3.5-4.9V296.3c0-1.7,0.8-3.3,2.2-4.3
				s3.2-1.2,4.8-0.7l195.7,69.9c2.1,0.7,3.5,2.7,3.5,4.9V499c0,1.7-0.8,3.3-2.2,4.3C259,503.9,258,504.2,256.9,504.2z M66.5,425.4
				l185.2,66.1V369.9L66.5,303.7V425.4z"/>
		</g>
		<g>
			<polygon fill="#EAEDF7" points="228.9,415.1 33.3,345.2 61.2,296.3 256.9,366.2 			"/>
		</g>
		<g>
			<path fill="#FFFFFF" d="M196.9,383.2l-154-55l18.2-31.9l165,58.9L213.8,377C210.4,382.9,203.3,385.5,196.9,383.2z"/>
		</g>
		<g>
			<path fill="#525A7E" d="M228.9,420.3c-0.6,0-1.2-0.1-1.8-0.3L31.5,350.2c-1.5-0.5-2.6-1.7-3.2-3.1c-0.5-1.5-0.4-3.1,0.4-4.4
				l28-48.9c1.3-2.2,3.9-3.2,6.3-2.3l195.7,69.9c1.5,0.5,2.6,1.7,3.2,3.1c0.5,1.5,0.4,3.1-0.4,4.4l-28,48.9
				C232.5,419.4,230.8,420.3,228.9,420.3z M40.9,342.4l185.6,66.3l22.7-39.7L63.6,302.7L40.9,342.4z"/>
		</g>
		<g>
			<polygon fill="#EAEDF7" points="256.9,499 452.5,429.1 452.5,296.3 256.9,366.2 			"/>
		</g>
		<g>
			<path fill="#FFFFFF" d="M256.9,468l158.4-56.6c5.6-2,9.3-7.3,9.3-13.2v-92l-167.7,59.9L256.9,468L256.9,468z"/>
		</g>
		<g>
			<path fill="#525A7E" d="M256.9,504.2c-1.1,0-2.1-0.3-3-1c-1.4-1-2.2-2.6-2.2-4.3V366.2c0-2.2,1.4-4.2,3.5-4.9l195.7-69.9
				c1.6-0.6,3.4-0.3,4.8,0.6c1.4,1,2.2,2.6,2.2,4.3v132.8c0,2.2-1.4,4.2-3.5,4.9l-195.7,69.9C258.1,504.1,257.5,504.2,256.9,504.2z
				 M262.1,369.9v121.6l185.2-66.1V303.7L262.1,369.9z"/>
		</g>
		<g>
			<polygon fill="#EAEDF7" points="284.8,415.1 480.5,345.2 452.5,296.3 256.9,366.2 			"/>
		</g>
		<g>
			<path fill="#FFFFFF" d="M274.4,396.9l148.4-53c8.2-2.9,11.7-12.5,7.4-20.1l-9.2-16.2l-164.2,58.6L274.4,396.9z"/>
		</g>
		<g>
			<path fill="#525A7E" d="M284.8,420.3c-1.8,0-3.6-1-4.6-2.6l-28-48.9c-0.8-1.3-0.9-3-0.4-4.4s1.7-2.6,3.2-3.1l195.7-69.9
				c2.4-0.8,5.1,0.1,6.3,2.3l28,48.9c0.8,1.3,0.9,3,0.4,4.4c-0.5,1.5-1.7,2.6-3.2,3.1L286.6,420C286,420.2,285.4,420.3,284.8,420.3z
				 M264.5,369l22.7,39.7l185.6-66.3l-22.7-39.7L264.5,369z"/>
		</g>
		<g>
			<path fill="#FFFFFF" d="M390.1,178.7l-2.9-2.1c-6.7-4.9-8.6-14.1-4.2-21.2l1.9-3c5.7-9.2,0.7-21.2-9.8-23.7l-3.5-0.8
				c-8.1-1.9-13.3-9.7-12-17.9l0.6-3.5c1.7-10.7-7.5-19.9-18.2-18.2l-3.5,0.6c-8.2,1.3-16-3.9-17.9-12l-0.8-3.5
				c-2.5-10.5-14.5-15.5-23.7-9.8l-3,1.9c-7.1,4.3-16.3,2.5-21.2-4.2l-2.1-2.9c-6.3-8.7-19.4-8.7-25.7,0l-2.1,2.9
				c-4.9,6.7-14.1,8.6-21.2,4.2l-3-1.9c-9.2-5.7-21.2-0.7-23.7,9.8l-0.8,3.5c-1.9,8.1-9.7,13.3-17.9,12l-3.5-0.6
				c-10.7-1.7-19.9,7.5-18.2,18.2l0.6,3.5c1.3,8.2-3.9,16-12,17.9l-3.4,0.8c-10.5,2.5-15.5,14.5-9.8,23.7l1.9,3
				c4.3,7.1,2.5,16.3-4.2,21.2l-2.9,2.1c-8.7,6.3-8.7,19.4,0,25.7l2.9,2.1c6.7,4.9,8.6,14.1,4.2,21.2l-1.9,3
				c-5.7,9.2-0.7,21.2,9.8,23.7l3.4,0.8c8.1,1.9,13.3,9.7,12,17.9l-0.6,3.5c-1.7,10.7,7.5,19.9,18.2,18.2l3.5-0.6
				c8.2-1.3,16,3.9,17.9,12l0.8,3.5c2.5,10.5,14.5,15.5,23.7,9.8l3-1.9c7.1-4.3,16.3-2.5,21.2,4.2l2.1,2.9c6.3,8.7,19.4,8.7,25.7,0
				l2.1-2.9c4.9-6.7,14.1-8.6,21.2-4.2l3,1.9c9.2,5.7,21.2,0.7,23.7-9.8l0.8-3.5c1.9-8.1,9.7-13.3,17.9-12l3.5,0.6
				c10.7,1.7,19.9-7.5,18.2-18.2l-0.6-3.5c-1.3-8.2,3.9-16,12-17.9l3.5-0.8c10.5-2.5,15.5-14.5,9.8-23.7l-1.9-3
				c-4.3-7.1-2.5-16.3,4.2-21.2l2.9-2.1C398.8,198,398.8,185,390.1,178.7z"/>
		</g>
		<g>
			<path fill="#EAEDF7" d="M390.1,178.7l-2.9-2.1c-6.7-4.9-8.6-14.1-4.2-21.2l1.9-3c5.7-9.2,0.7-21.2-9.8-23.7l-3.5-0.8
				c-4-0.9-7.3-3.4-9.4-6.5c4.2,13.3,6.5,27.5,6.5,42.2c0,77.2-62.6,139.8-139.8,139.8c-14.7,0-28.9-2.3-42.2-6.5
				c3.2,2.1,5.6,5.4,6.5,9.4l0.8,3.5c2.5,10.5,14.5,15.5,23.7,9.8l3-1.9c7.1-4.3,16.3-2.5,21.2,4.2l2.1,2.9c6.3,8.7,19.4,8.7,25.7,0
				l2.1-2.9c4.9-6.7,14.1-8.6,21.2-4.2l3,1.9c9.2,5.7,21.2,0.7,23.7-9.8l0.8-3.5c1.9-8.1,9.7-13.3,17.9-12l3.5,0.6
				c10.7,1.7,19.9-7.5,18.2-18.2l-0.6-3.5c-1.3-8.2,3.9-16,12-17.9l3.5-0.8c10.5-2.5,15.5-14.5,9.8-23.7l-1.9-3
				c-4.3-7.1-2.5-16.3,4.2-21.2l2.9-2.1C398.8,198,398.8,185,390.1,178.7z"/>
		</g>
		<g>
			<path fill="#525A7E" d="M256.9,336.5c-6.8,0-13.1-3.2-17.1-8.7l-2.1-2.9c-3.2-4.5-9.5-5.7-14.2-2.8l-3,1.9
				c-5.8,3.6-12.8,4.1-19.1,1.5s-10.9-7.9-12.4-14.6l-0.8-3.5c-1.3-5.4-6.5-8.9-12-8l-3.5,0.6c-6.8,1.1-13.4-1.1-18.3-5.9
				c-4.8-4.8-7-11.5-5.9-18.3l0.6-3.5c0.9-5.5-2.7-10.7-8-12l-3.4-0.8c-6.7-1.6-12-6.1-14.6-12.4c-2.6-6.3-2.1-13.3,1.5-19.1l1.9-3
				c2.9-4.7,1.7-10.9-2.8-14.2l-2.9-2.1c-5.5-4-8.7-10.2-8.7-17.1s3.2-13.1,8.7-17.1l2.9-2.1c4.5-3.2,5.7-9.5,2.8-14.2l-1.9-3
				c-3.6-5.8-4.1-12.8-1.5-19.1s7.9-10.9,14.6-12.5l3.4-0.8c5.4-1.3,8.9-6.6,8-12l-0.6-3.5c-1.1-6.8,1.1-13.4,5.9-18.2
				c4.8-4.8,11.5-7,18.3-5.9l3.5,0.6c5.5,0.9,10.7-2.7,12-8l0.8-3.5c1.6-6.7,6.1-12,12.4-14.6c6.3-2.6,13.3-2.1,19.1,1.5l3,1.9
				c4.7,2.9,10.9,1.7,14.2-2.8l2.1-2.9c4-5.5,10.2-8.7,17.1-8.7c6.9,0,13.1,3.2,17.1,8.7l2.1,2.9c3.2,4.5,9.5,5.7,14.2,2.8l3-1.9
				c5.8-3.6,12.8-4.1,19.1-1.5c6.3,2.6,10.9,7.9,12.5,14.6l0.8,3.5c1.3,5.4,6.6,8.9,12,8l3.5-0.6c6.8-1.1,13.4,1.1,18.2,5.9
				c4.8,4.8,7,11.5,5.9,18.2l-0.6,3.5c-0.9,5.5,2.7,10.7,8,12l3.4,0.8c6.7,1.6,12,6.1,14.6,12.5c2.6,6.3,2.1,13.3-1.5,19.1l-1.9,3
				c-2.9,4.7-1.6,10.9,2.8,14.2l2.9,2.1l0,0c5.5,4,8.7,10.2,8.7,17.1s-3.2,13.1-8.7,17.1l-2.9,2.1c-4.5,3.2-5.7,9.5-2.8,14.2l1.9,3
				c3.6,5.8,4.1,12.8,1.5,19.1s-7.9,10.9-14.6,12.4l-3.4,0.8c-5.4,1.3-8.9,6.6-8,12l0.6,3.5c1.1,6.8-1.1,13.4-5.9,18.3
				c-4.8,4.8-11.5,7-18.2,5.9l-3.5-0.6c-5.4-0.8-10.7,2.7-12,8l-0.8,3.4c-1.6,6.7-6.1,12-12.5,14.6c-6.3,2.6-13.3,2.1-19.1-1.5
				l-3-1.9c-4.7-2.9-10.9-1.7-14.2,2.8l-2.1,2.9C270,333.3,263.7,336.5,256.9,336.5z M229,310.1c6.6,0,13.1,3.1,17.2,8.7l2.1,2.9
				c4,5.6,13.2,5.6,17.2,0l2.1-2.9c6.4-8.9,18.8-11.3,28.1-5.6l3,1.9c2.9,1.8,6.4,2.1,9.6,0.8c3.2-1.3,5.5-4,6.3-7.3l0.8-3.4
				c2.6-10.7,13-17.7,23.9-15.9l3.5,0.6c3.4,0.5,6.7-0.5,9.2-3c2.4-2.4,3.5-5.8,3-9.2l-0.6-3.5c-1.7-10.8,5.3-21.3,15.9-23.9
				l3.5-0.8c3.4-0.8,6-3.1,7.3-6.3s1-6.7-0.8-9.6l-1.9-3c-5.7-9.4-3.3-21.7,5.6-28.1l2.9-2.1c2.8-2,4.4-5.2,4.4-8.6
				s-1.6-6.6-4.4-8.6l-2.9-2.1c-8.9-6.4-11.3-18.8-5.6-28.1l1.9-3c1.8-2.9,2.1-6.4,0.8-9.6c-1.3-3.2-4-5.5-7.3-6.3l-3.5-0.8
				c-10.7-2.6-17.7-13-15.9-23.9l0.6-3.5c0.5-3.4-0.5-6.7-3-9.2c-2.4-2.4-5.8-3.5-9.2-3l-3.5,0.6C328.4,96,318,89,315.4,78.4
				l-0.8-3.5c-0.8-3.3-3.1-6-6.3-7.3c-3.2-1.3-6.7-1-9.6,0.8l-3,1.9c-9.3,5.7-21.7,3.3-28.1-5.6l-2.1-2.9c-4-5.6-13.2-5.6-17.2,0
				l-2.1,2.9c-6.4,8.9-18.8,11.3-28.1,5.6l-3-1.9c-2.9-1.8-6.4-2.1-9.6-0.8c-3.2,1.3-5.5,4-6.3,7.3l-0.8,3.5
				c-2.5,10.7-13,17.7-23.9,15.9l-3.5-0.6c-3.4-0.5-6.8,0.5-9.2,3c-2.4,2.4-3.5,5.8-3,9.2l0.6,3.5c1.7,10.8-5.3,21.3-15.9,23.9
				l-3.5,0.8c-3.4,0.8-6,3.1-7.3,6.3s-1,6.7,0.8,9.6l1.9,3c5.7,9.3,3.3,21.7-5.6,28.1l-2.9,2.1c-2.8,2-4.4,5.2-4.4,8.6
				s1.6,6.6,4.4,8.6l2.9,2.1c8.9,6.4,11.3,18.8,5.6,28.1l-1.9,3c-1.8,2.9-2.1,6.4-0.8,9.6c1.3,3.2,4,5.5,7.3,6.3l3.5,0.8
				c10.7,2.5,17.7,13,15.9,23.9l-0.6,3.5c-0.5,3.4,0.5,6.7,3,9.2c2.4,2.4,5.8,3.5,9.2,3l3.5-0.6c10.8-1.7,21.3,5.3,23.9,15.9
				l0.8,3.5c0.8,3.4,3.1,6,6.3,7.3s6.7,1,9.6-0.8l3-1.9C221.5,311.1,225.3,310.1,229,310.1z"/>
		</g>
		<g>
			<circle fill="#FFFFFF" cx="256.9" cy="191.5" r="90.8"/>
		</g>
		<g>
			<g>
				<path fill="#EAEDF7" d="M309.7,117.7c10.7,14.9,17,33.1,17,52.8c0,50.2-40.7,90.8-90.8,90.8c-19.7,0-37.9-6.4-52.8-17
					c16.5,23,43.4,38,73.8,38c50.2,0,90.8-40.7,90.8-90.8C347.7,161.1,332.7,134.2,309.7,117.7z"/>
			</g>
		</g>
		<g>
			<path fill="#525A7E" d="M256.9,287.6c-53,0-96.1-43.1-96.1-96.1s43.1-96.1,96.1-96.1s96.1,43.1,96.1,96.1
				S309.9,287.6,256.9,287.6z M256.9,105.9c-47.2,0-85.6,38.4-85.6,85.6s38.4,85.6,85.6,85.6s85.6-38.4,85.6-85.6
				S304.1,105.9,256.9,105.9z"/>
		</g>
		<path fill="#EBEBEB" d="M251.6,163.4"/>
		<g>
			<g enable-background="new    ">
				<path fill="#525A7E" d="M285.8,153.4c5,2.3,8.8,5.4,11.5,9.6c2.7,4.1,4,9,4,14.7c0,5.6-1.3,10.5-4,14.7
					c-2.7,4.2-6.5,7.4-11.5,9.6c-5,2.2-10.8,3.3-17.6,3.3h-15.4v21h-17.6V150h33C275,150,280.9,151.2,285.8,153.4z M279.4,187.5
					c2.8-2.3,4.1-5.5,4.1-9.7c0-4.3-1.4-7.6-4.1-9.9c-2.8-2.3-6.8-3.4-12.1-3.4h-14.4v26.5h14.4
					C272.6,190.9,276.6,189.8,279.4,187.5z"/>
			</g>
		</g>
	</g>
</g>
</svg>
