<?xml version="1.0" encoding="utf-8"?>
<!-- Generator: Adobe Illustrator 24.1.3, SVG Export Plug-In . SVG Version: 6.00 Build 0)  -->
<svg version="1.1" id="Layer_1" xmlns="http://www.w3.org/2000/svg" xmlns:xlink="http://www.w3.org/1999/xlink" x="0px" y="0px"
	 width="512px" height="512px" viewBox="0 0 512 512" enable-background="new 0 0 512 512" xml:space="preserve">
<g>
	<path fill="#525A7E" d="M198.1,477.3l-3.4-1.3l1.3-3.5c0.3-0.9-0.1-1.9-1-2.2c-0.9-0.3-1.9,0.1-2.2,1l-1.3,3.5l-3.5-1.3
		c-0.9-0.3-1.9,0.1-2.2,1s0.1,1.9,1,2.2l3.5,1.3l-1.3,3.5c-0.3,0.9,0.1,1.9,1,2.2c0.9,0.3,1.9-0.1,2.2-1l1.3-3.5l3.4,1.3
		c0.9,0.3,1.9-0.1,2.2-1C199.4,478.6,199,477.6,198.1,477.3z"/>
	<path fill="#525A7E" d="M302.6,225.6l-3.4-1.3l1.3-3.5c0.3-0.9-0.1-1.9-1-2.2s-1.9,0.1-2.2,1l-1.3,3.5l-3.5-1.3
		c-0.9-0.3-1.9,0.1-2.2,1c-0.3,0.9,0.1,1.9,1,2.2l3.5,1.3l-1.3,3.5c-0.3,0.9,0.1,1.9,1,2.2s1.9-0.1,2.2-1l1.3-3.5l3.4,1.3
		c0.9,0.3,1.9-0.1,2.2-1C304,226.9,303.5,225.9,302.6,225.6z"/>
	<path fill="#525A7E" d="M315.4,34l-9.3-2.5l2.5-9.3c0.6-2.3-0.8-4.8-3.1-5.4s-4.8,0.8-5.4,3.1l-2.5,9.3l-9.4-2.5
		c-2.3-0.6-4.8,0.8-5.4,3.1s0.8,4.8,3.1,5.4l9.4,2.5l-2.5,9.3c-0.6,2.3,0.8,4.8,3.1,5.4c2.3,0.6,4.8-0.8,5.4-3.1l2.5-9.3l9.3,2.5
		c2.4,0.6,4.8-0.7,5.4-3.1C319.1,37.1,317.7,34.7,315.4,34z"/>
	<path fill="#525A7E" d="M507.6,268.5H498v-9.7c0-2.4-2-4.4-4.4-4.4s-4.4,2-4.4,4.4v9.7h-9.8c-2.4,0-4.4,2-4.4,4.4s2,4.4,4.4,4.4
		h9.8v9.7c0,2.4,2,4.4,4.4,4.4s4.4-2,4.4-4.4v-9.7h9.6c2.5,0,4.4-1.9,4.4-4.4C512,270.5,510,268.5,507.6,268.5z"/>
	<g>
		<circle fill="#FFFFFF" cx="104.4" cy="165.6" r="99.4"/>
	</g>
	<g>
		<path fill="#EAEDF7" d="M161.1,84c11.2,16.1,17.8,35.6,17.8,56.7c0,54.9-44.5,99.4-99.4,99.4c-21.1,0-40.6-6.6-56.7-17.8
			c18,25.8,47.8,42.7,81.6,42.7c54.9,0,99.4-44.5,99.4-99.4C203.8,131.8,186.9,101.9,161.1,84z"/>
	</g>
	<g>
		<path fill="#525A7E" d="M104.4,270C46.8,270,0,223.1,0,165.6C0,108,46.8,61.2,104.4,61.2S208.8,108,208.8,165.6
			C208.8,223.1,162,270,104.4,270z M104.4,71.1c-52.1,0-94.4,42.4-94.4,94.4c0,52.1,42.4,94.4,94.4,94.4s94.4-42.4,94.4-94.4
			S156.5,71.1,104.4,71.1z"/>
	</g>
	<g>
		<path fill="#525A7E" d="M170.7,415.8c-39.3,0-71.3-32-71.3-71.3V265c0-2.7,2.2-5,5-5c2.7,0,5,2.2,5,5v79.5
			c0,33.8,27.5,61.3,61.3,61.3s61.3-27.5,61.3-61.3V231.9c0-35.6,29-64.6,64.6-64.6s64.6,29,64.6,64.6v46.4c0,2.7-2.2,5-5,5
			c-2.7,0-5-2.2-5-5v-46.4c0-30.1-24.5-54.7-54.7-54.7s-54.7,24.5-54.7,54.7v112.7C241.9,383.8,210,415.8,170.7,415.8z"/>
	</g>
	<g>
		<path fill="#FFFFFF" d="M283.4,347.2v83.5c0,32.9,26.7,59.7,59.7,59.7h26.5c32.9,0,59.7-26.7,59.7-59.7v-83.5
			C387.2,383.3,325.3,383.3,283.4,347.2z"/>
	</g>
	<g>
		<g>
			<path fill="#EAEDF7" d="M409.3,360.8v63.3c0,25.6-20.8,46.4-46.4,46.4h-39.8c-11.4,0-22-3.2-31-8.8
				c10.5,17.2,29.3,28.6,50.9,28.6h26.5c32.9,0,59.7-26.7,59.7-59.7v-83.5C423,352.6,416.3,357,409.3,360.8z"/>
		</g>
	</g>
	<g>
		<path fill="#525A7E" d="M369.5,495.3H343c-35.6,0-64.6-29-64.6-64.6v-83.5c0-1.9,1.1-3.7,2.9-4.5s3.8-0.5,5.3,0.8
			c40.4,34.7,99,34.7,139.3,0c1.5-1.3,3.5-1.6,5.3-0.8c1.8,0.8,2.9,2.6,2.9,4.5v83.5C434.1,466.3,405.2,495.3,369.5,495.3z
			 M288.3,357.5v73.2c0,30.1,24.5,54.7,54.7,54.7h26.5c30.2,0,54.7-24.5,54.7-54.7v-73.2C383.4,386.7,329.1,386.7,288.3,357.5z"/>
	</g>
	<g>
		<path fill="#FFFFFF" d="M429.2,347.2v-9.3c0-32.9-26.7-59.7-59.7-59.7H343c-32.9,0-59.7,26.7-59.7,59.7v9.3
			C325.3,383.3,387.2,383.3,429.2,347.2z"/>
	</g>
	<g>
		<path fill="#EAEDF7" d="M382,279.6c12.6,10.9,20.6,27,20.6,45.1l0,0c0,6.2-3,12.1-8.1,15.7c-29.8,21.2-67.5,26-101,14.6
			c41.3,28.1,96.9,25.6,135.7-7.7V338C429.2,309.2,409,285.3,382,279.6z"/>
	</g>
	<g>
		<path fill="#525A7E" d="M356.3,379.4c-27,0-54.1-9.5-76.1-28.4c-1.1-0.9-1.7-2.3-1.7-3.8v-9.3c0-35.6,29-64.6,64.6-64.6h26.5
			c35.6,0,64.6,29,64.6,64.6v9.3c0,1.4-0.6,2.8-1.7,3.8C410.4,369.9,383.3,379.4,356.3,379.4z M288.3,344.9
			c39.7,32.7,96.1,32.7,135.9,0v-7c0-30.1-24.5-54.7-54.7-54.7H343c-30.1,0-54.7,24.5-54.7,54.7V344.9z M429.2,347.2L429.2,347.2
			L429.2,347.2z"/>
	</g>
	<g>
		<path fill="#525A7E" d="M356.3,351.1c-2.7,0-5-2.2-5-5v-39.8c0-2.7,2.2-5,5-5c2.7,0,5,2.2,5,5v39.8
			C361.2,348.9,359,351.1,356.3,351.1z"/>
	</g>
	<g>
		<circle fill="#FFFFFF" cx="159.1" cy="351.1" r="14.9"/>
	</g>
	<g>
		<path fill="#525A7E" d="M26.9,43.9c-2.2,0-4.1-1.8-4.1-4.1c0-2.2,1.8-4.1,4.1-4.1s4.1,1.8,4.1,4.1C31,42.1,29.2,43.9,26.9,43.9z
			 M26.9,37.8c-1.1,0-2,0.9-2,2s0.9,2,2,2s2-0.9,2-2C29,38.7,28.1,37.8,26.9,37.8z"/>
	</g>
	<g>
		<circle fill="#FFFFFF" cx="271.8" cy="132.4" r="14.9"/>
	</g>
	<g>
		<path fill="#525A7E" d="M482.3,491.2c-3.7,0-6.8-3-6.8-6.8s3-6.8,6.8-6.8c3.7,0,6.8,3,6.8,6.8S486,491.2,482.3,491.2z
			 M482.3,481.1c-1.9,0-3.4,1.5-3.4,3.4s1.5,3.4,3.4,3.4s3.4-1.5,3.4-3.4C485.7,482.6,484.2,481.1,482.3,481.1z"/>
	</g>
	<g>
		<circle fill="#FFFFFF" cx="192.2" cy="278.2" r="14.9"/>
	</g>
	<g>
		<path fill="#525A7E" d="M52,430.1c-7.7,0-13.9-6.2-13.9-13.9c0-7.7,6.2-13.9,13.9-13.9s14,6.1,14,13.8
			C66,423.8,59.7,430.1,52,430.1z M52,409.2c-3.8,0-7,3.1-7,7c0,3.8,3.1,7,7,7c3.8,0,7-3.1,7-7C59,412.3,55.9,409.2,52,409.2z"/>
	</g>
	<g>
		<path fill="#525A7E" d="M473.9,136.9c-11,0-19.9-8.9-19.9-19.9s8.9-19.9,19.9-19.9s19.9,8.9,19.9,19.9S484.9,136.9,473.9,136.9z
			 M473.9,107c-5.5,0-9.9,4.5-9.9,9.9c0,5.5,4.5,9.9,9.9,9.9c5.5,0,9.9-4.5,9.9-9.9C483.9,111.5,479.4,107,473.9,107z"/>
	</g>
	<path fill="#525A7E" d="M127.5,184.1c-4.6,0-8.8,1.9-11.8,5l-32-18.2c0.4-1.4,0.6-2.8,0.6-4.3s-0.2-2.9-0.6-4.3l32-18.2
		c3,3.1,7.2,5,11.8,5c9.1,0,16.5-7.4,16.5-16.5s-7.4-16.5-16.5-16.5s-16.5,7.4-16.5,16.5c0,1.5,0.2,2.9,0.6,4.3l-32,18.2
		c-3-3.1-7.2-5-11.8-5c-9.1,0-16.5,7.4-16.5,16.5s7.4,16.5,16.5,16.5c4.6,0,8.8-1.9,11.8-5l32,18.2c-0.4,1.4-0.6,2.8-0.6,4.3
		c0,9.1,7.4,16.5,16.5,16.5s16.5-7.4,16.5-16.5S136.6,184.1,127.5,184.1z M127.5,192.4c4.5,0,8.2,3.7,8.2,8.2s-3.7,8.2-8.2,8.2
		s-8.2-3.7-8.2-8.2C119.3,196.1,123,192.4,127.5,192.4z M67.8,174.9c-4.5,0-8.2-3.7-8.2-8.2s3.7-8.2,8.2-8.2s8.2,3.7,8.2,8.2
		S72.3,174.9,67.8,174.9z M119.3,132.7c0-4.5,3.7-8.2,8.2-8.2s8.2,3.7,8.2,8.2s-3.7,8.2-8.2,8.2S119.3,137.2,119.3,132.7z"/>
</g>
</svg>
