<?xml version="1.0" encoding="utf-8"?>
<!-- Generator: Adobe Illustrator 24.1.3, SVG Export Plug-In . SVG Version: 6.00 Build 0)  -->
<svg version="1.1" id="Layer_1" xmlns="http://www.w3.org/2000/svg" xmlns:xlink="http://www.w3.org/1999/xlink" x="0px" y="0px"
	 viewBox="0 0 512 512" enable-background="new 0 0 512 512" xml:space="preserve" width="150" height="150">
<g>
	<g>
		<g>
			<path fill="#EF405C" d="M152.4,335.2c-7.3,0-14.5-3.9-19-10.3c-1.4,0.4-2.9,0.7-4.5,0.8c-13.5,1-20.3-4.2-22.2-17.9
				c-0.3-1.8,1-3.5,2.8-3.8c1.8-0.3,3.5,1,3.8,2.8c1.2,8.5,3.5,13.1,15.1,12.2c0.6,0,1.2-0.1,1.7-0.2c-1.3-3.7-1.7-7.5-1-11.2
				c0.6-3,2.6-7.2,6.3-8.9c1.8-0.9,4.8-1.5,8.5,0.6c4.2,2.3,6.1,6.4,5.1,11c-0.9,4.2-4.4,8.8-9.3,11.9c3.6,4.2,9.3,7.3,15.3,6.1
				c1.8-0.4,3.6,0.8,3.9,2.6c0.4,1.8-0.8,3.6-2.6,3.9C155,335.1,153.7,335.2,152.4,335.2z M139.1,304.6c-0.4,0-0.6,0.1-0.7,0.2
				c-1.2,0.6-2.3,2.5-2.6,4.1c-0.4,2.4-0.2,4.9,0.6,7.4c3.2-2,5.6-4.9,6.1-7.5c0.4-1.7-0.1-2.9-1.8-3.7
				C140,304.7,139.4,304.6,139.1,304.6z"/>
		</g>
		<g>
			<path fill="#EF405C" d="M401.3,334.4h-13.9c-8.4-25.4-24.7-47.6-45.4-58.6c-2.1-12.1-5.4-26.9-8.6-28
				c-3.1-1.1-17.6,5.2-28.8,12.8c-10-2.1-28.3-3.4-39.1-3.4c-69.9,0-126.5,47.1-126.5,105.1c0,31.6,16.8,60,43.4,79.2l8.6,32.9
				c0.8,3.2,3.7,5.4,7,5.4h27.7c4,0,7.2-3.2,7.2-7.2v-8.8c10.4,2.3,21.3,3.5,32.6,3.5c9.4,0,18.5-0.9,27.3-2.5v7.7
				c0,4,3.2,7.2,7.2,7.2h27.7c3.3,0,6.2-2.2,7-5.4l7.4-28.6c20.8-13.2,36.5-31.6,44.3-53h14.9c6.8,0,12.3-5.5,12.3-12.3v-33.8
				C413.6,339.9,408.1,334.4,401.3,334.4z"/>
			<path fill="#D41E42" d="M391,357.5c0.8,14.6-4.6,35.3-4.6,35.3h10.5C397.2,383.8,396.2,371,391,357.5z"/>
			<path fill="#D41E42" d="M290.8,441.8c-72.7,0-131.6-45.6-131.6-101.7c0-20.7,8-40,21.8-56.1c-25.8,19.2-42.1,47.2-42.1,78.3
				c0,31.6,16.8,60,43.4,79.2l8.6,32.9c0.8,3.2,3.7,5.4,7,5.4h27.7c4,0,7.2-3.2,7.2-7.2v-8.8c10.4,2.3,21.3,3.5,32.6,3.5
				c9.4,0,18.5-0.9,27.3-2.5v7.7c0,4,3.2,7.2,7.2,7.2h27.7c3.3,0,6.2-2.2,7-5.4l7.4-28.6c8.4-5.4,16-11.6,22.6-18.5
				C341.4,436.5,315.5,441.8,290.8,441.8z"/>
			<g>
				<g>
					<path fill="#D41E42" d="M305.9,285.1c-27-9.2-56.3-9.2-83.3,0c0.6-3.1,1.3-6.1,2-9.2c25.8-7.8,53.4-7.8,79.3,0
						C304.6,279,305.3,282,305.9,285.1z"/>
				</g>
				<g>
					<path fill="#D41E42" d="M301.5,283.7c-24.3-7.4-50.2-7.4-74.5,0c-0.8-2.6-1.6-5.2-2.4-7.8c25.8-7.8,53.4-7.8,79.3,0
						C303.1,278.5,302.3,281.1,301.5,283.7z"/>
				</g>
			</g>
		</g>
		<path fill="#FFFFFF" d="M356.3,336.6c0,4.8-3.9,8.7-8.7,8.7c-4.8,0-8.7-3.9-8.7-8.7c0-4.8,3.9-8.7,8.7-8.7
			C352.4,327.9,356.3,331.8,356.3,336.6z"/>
		<circle fill="#EF405C" cx="349.5" cy="335.2" r="3.2"/>
		<g>
			<g>
				<g>
					<path fill="#FFD454" d="M244.5,275.1c-1.9,0-3.3-1.5-3.3-3.3V222c0-1.9,1.5-3.3,3.3-3.3c1.9,0,3.3,1.5,3.3,3.3v49.8
						C247.9,273.7,246.4,275.1,244.5,275.1z"/>
				</g>
				<g>
					<path fill="#FFD454" d="M264.2,262.4c-1.9,0-3.3-1.5-3.3-3.3v-49.8c0-1.9,1.5-3.3,3.3-3.3c1.9,0,3.3,1.5,3.3,3.3V259
						C267.6,260.9,266.1,262.4,264.2,262.4z"/>
				</g>
				<g>
					<path fill="#FFD454" d="M287.3,275.8c-1.9,0-3.3-1.5-3.3-3.3v-49.8c0-1.9,1.5-3.3,3.3-3.3c1.9,0,3.3,1.5,3.3,3.3v49.8
						C290.7,274.3,289.2,275.8,287.3,275.8z"/>
				</g>
			</g>
		</g>
	</g>
	<path fill="#F9B546" d="M89.9,132.9c0,0,0.8-10.5-6.8-18.1c-7.6-7.6-18.1-6.8-18.1-6.8s11.4-0.1,18.1-6.8s6.8-18.1,6.8-18.1
		s-0.6,10.6,6.8,18.1c7.4,7.4,18.1,6.8,18.1,6.8s-10.6-0.6-18.1,6.8C89.3,122.3,89.9,132.9,89.9,132.9z"/>
	<path fill="#FCE47E" d="M495.2,354c0,0,0.4-4.8-3.1-8.3s-8.3-3.1-8.3-3.1s5.2-0.1,8.3-3.1s3.1-8.3,3.1-8.3s-0.3,4.9,3.1,8.3
		s8.3,3.1,8.3,3.1s-4.9-0.3-8.3,3.1S495.2,354,495.2,354z"/>
	<path fill="#FCE47E" d="M411.1,168.4c0,0,0.4-4.8-3.1-8.3s-8.3-3.1-8.3-3.1s5.2-0.1,8.3-3.1c3.1-3.1,3.1-8.3,3.1-8.3
		s-0.3,4.9,3.1,8.3c3.4,3.4,8.3,3.1,8.3,3.1s-4.9-0.3-8.3,3.1S411.1,168.4,411.1,168.4z"/>
	<path fill="#F9B546" d="M11.4,283c0,0,0.4-4.8-3.1-8.3c-3.5-3.5-8.3-3.1-8.3-3.1s5.2-0.1,8.3-3.1s3.1-8.3,3.1-8.3s-0.3,4.9,3.1,8.3
		c3.4,3.4,8.3,3.1,8.3,3.1s-4.9-0.3-8.3,3.1C11.1,278.2,11.4,283,11.4,283z"/>
	<circle fill="#FCE47E" cx="89.9" cy="211.3" r="5.4"/>
	<g>
		<g>
			
				<ellipse transform="matrix(0.9922 -0.1245 0.1245 0.9922 -28.9756 61.0908)" fill="#E69E35" cx="474.3" cy="262.4" rx="33.2" ry="33.2"/>
			
				<ellipse transform="matrix(0.2323 -0.9726 0.9726 0.2323 112.3785 667.1705)" fill="#FCE47E" cx="478.8" cy="262.4" rx="33.2" ry="33.2"/>
			<circle fill="#F7B546" cx="478.8" cy="262.4" r="26.6"/>
			<path fill="#E69E35" d="M454.2,263.9c0-14.7,11.9-26.6,26.6-26.6c5.5,0,10.6,1.7,14.8,4.5c-4.6-3.8-10.4-6-16.8-6
				c-14.7,0-26.6,11.9-26.6,26.6c0,8.3,3.8,15.7,9.8,20.6c-2.7-2.7-4.7-6-6-9.6C454.9,270.5,454.2,267.2,454.2,263.9z"/>
		</g>
		<g>
			<path fill="#FCE47E" d="M473.6,264.4l-4.4,0v4.3h-3.2v-4.3h-4.3l0-3.1h4.3v-4.3h3.2v4.3l4.3,0V264.4z"/>
			<path fill="#FCE47E" d="M488.9,254.9c1.1,0.5,2,1.2,2.6,2.2c0.6,1,0.9,2.1,0.9,3.4c0,1.3-0.3,2.4-0.9,3.4c-0.6,1-1.5,1.7-2.6,2.2
				c-1.1,0.5-2.5,0.8-4,0.8h-3.5v4.8h-4.1l0-17.5h7.6C486.4,254.2,487.7,254.4,488.9,254.9z M487.4,262.8c0.6-0.5,1-1.3,1-2.2
				c0-1-0.3-1.7-1-2.3c-0.6-0.5-1.6-0.8-2.8-0.8h-3.3v6.1h3.3C485.8,263.6,486.8,263.3,487.4,262.8z"/>
		</g>
	</g>
	<g>
		<g>
			
				<ellipse transform="matrix(0.9922 -0.1248 0.1248 0.9922 -50.7236 15.4568)" fill="#E69E35" cx="98" cy="412.7" rx="70.1" ry="70.1"/>
			
				<ellipse transform="matrix(0.2321 -0.9727 0.9727 0.2321 -318.7946 421.5431)" fill="#FCE47E" cx="107.6" cy="412.7" rx="70.1" ry="70.1"/>
			<circle fill="#F7B546" cx="107.6" cy="412.7" r="56.2"/>
			<path fill="#E69E35" d="M55.6,415.8c0-31,25.2-56.2,56.2-56.2c11.6,0,22.4,3.5,31.4,9.6c-9.7-7.9-22.1-12.7-35.6-12.7
				c-31,0-56.2,25.2-56.2,56.2c0,17.6,8.1,33.3,20.7,43.6c-5.6-5.7-10-12.6-12.8-20.3C56.9,429.7,55.6,422.9,55.6,415.8z"/>
		</g>
		<g>
			<path fill="#FCE47E" d="M98.6,416.5h-9.2v9h-6.8v-9h-9.1V410h9.1v-9h6.8v9h9.2V416.5z"/>
			<path fill="#FCE47E" d="M130.8,396.4c2.4,1.1,4.3,2.6,5.6,4.6c1.3,2,2,4.4,2,7.1c0,2.7-0.7,5.1-2,7.1c-1.3,2-3.2,3.6-5.6,4.7
				c-2.4,1.1-5.3,1.6-8.5,1.6h-7.5v10.2h-8.6v-37h16C125.5,394.8,128.4,395.3,130.8,396.4z M127.7,412.9c1.3-1.1,2-2.7,2-4.7
				c0-2.1-0.7-3.7-2-4.8c-1.3-1.1-3.3-1.7-5.9-1.7h-7v12.8h7C124.4,414.6,126.3,414,127.7,412.9z"/>
		</g>
	</g>
	<g>
		<g>
			
				<ellipse transform="matrix(0.9922 -0.1248 0.1248 0.9922 -11.4649 32.9888)" fill="#E69E35" cx="257.6" cy="108" rx="78.7" ry="78.7"/>
			
				<ellipse transform="matrix(0.2321 -0.9727 0.9727 0.2321 101.0028 343.9773)" fill="#FCE47E" cx="268.3" cy="108" rx="78.7" ry="78.7"/>
			<circle fill="#F7B546" cx="268.3" cy="108" r="63.2"/>
			<path fill="#E69E35" d="M209.9,111.6c0-34.9,28.3-63.2,63.2-63.2c13.1,0,25.2,4,35.3,10.8c-10.9-8.9-24.8-14.3-40-14.3
				c-34.9,0-63.2,28.3-63.2,63.2c0,19.8,9.1,37.4,23.3,49c-6.3-6.4-11.2-14.2-14.4-22.8C211.4,127.2,209.9,119.5,209.9,111.6z"/>
		</g>
		<g>
			<path fill="#FCE47E" d="M258.3,112.3H248v10.1h-7.7v-10.1H230v-7.2h10.3V95h7.7v10.1h10.3V112.3z"/>
			<path fill="#FCE47E" d="M294.5,89.7c2.7,1.2,4.8,3,6.3,5.2c1.5,2.3,2.2,4.9,2.2,8c0,3.1-0.7,5.7-2.2,8c-1.5,2.3-3.6,4-6.3,5.2
				c-2.7,1.2-5.9,1.8-9.6,1.8h-8.4v11.5h-9.6V87.9h18C288.6,87.9,291.7,88.5,294.5,89.7z M290.9,108.3c1.5-1.2,2.3-3,2.3-5.3
				c0-2.3-0.8-4.1-2.3-5.4c-1.5-1.2-3.7-1.9-6.6-1.9h-7.8v14.4h7.8C287.2,110.2,289.4,109.5,290.9,108.3z"/>
		</g>
	</g>
</g>
</svg>
