<?xml version="1.0" encoding="utf-8"?>
<!-- Generator: Adobe Illustrator 24.1.3, SVG Export Plug-In . SVG Version: 6.00 Build 0)  -->
<svg version="1.1" id="Layer_1" xmlns="http://www.w3.org/2000/svg" xmlns:xlink="http://www.w3.org/1999/xlink" x="0px" y="0px"
	 viewBox="0 0 512 512" enable-background="new 0 0 512 512" xml:space="preserve" width="150" height="150">
<g>
	<g>
		<g>
			
				<ellipse transform="matrix(0.9922 -0.1248 0.1248 0.9922 -48.0015 15.1492)" fill="#E69E35" cx="96.9" cy="390.8" rx="54.8" ry="54.8"/>
			
				<ellipse transform="matrix(0.2321 -0.9727 0.9727 0.2321 -299.9459 401.6469)" fill="#FCE47E" cx="104.4" cy="390.8" rx="54.8" ry="54.8"/>
			<circle fill="#F7B546" cx="104.4" cy="390.8" r="43.9"/>
			<path fill="#E69E35" d="M63.7,393.2c0-24.3,19.7-43.9,43.9-43.9c9.1,0,17.5,2.8,24.5,7.5c-7.6-6.2-17.2-9.9-27.8-9.9
				c-24.3,0-43.9,19.7-43.9,43.9c0,13.7,6.3,26,16.2,34.1c-4.4-4.5-7.8-9.8-10-15.8C64.8,404.1,63.7,398.8,63.7,393.2z"/>
		</g>
		<g>
			<path fill="#FCE47E" d="M80.9,391.5h11.7v5.2H80.9V391.5z"/>
			<path fill="#FCE47E" d="M117.3,378.1c1.9,0.9,3.3,2.1,4.4,3.6s1.5,3.4,1.5,5.6c0,2.1-0.5,4-1.5,5.6c-1,1.6-2.5,2.8-4.4,3.6
				c-1.9,0.8-4.1,1.3-6.7,1.3h-5.8v8h-6.7v-28.9h12.5C113.2,376.8,115.4,377.2,117.3,378.1z M114.9,391c1-0.9,1.6-2.1,1.6-3.7
				c0-1.6-0.5-2.9-1.6-3.7c-1-0.9-2.6-1.3-4.6-1.3h-5.5v10h5.5C112.3,392.3,113.8,391.8,114.9,391z"/>
		</g>
	</g>
	<g>
		<g>
			
				<ellipse transform="matrix(0.9922 -0.1248 0.1248 0.9922 -27.9815 5.1775)" fill="#E69E35" cx="27.3" cy="226" rx="27.3" ry="27.3"/>
			
				<ellipse transform="matrix(0.2321 -0.9727 0.9727 0.2321 -195.9474 203.7521)" fill="#FCE47E" cx="31.1" cy="226" rx="27.3" ry="27.3"/>
			<circle fill="#F7B546" cx="31.1" cy="226" r="21.9"/>
			<path fill="#E69E35" d="M10.8,227.2c0-12.1,9.8-21.9,21.9-21.9c4.5,0,8.7,1.4,12.2,3.7c-3.8-3.1-8.6-5-13.9-5
				C19,204,9.1,213.9,9.1,226c0,6.9,3.2,13,8.1,17c-2.2-2.2-3.9-4.9-5-7.9C11.3,232.6,10.8,230,10.8,227.2z"/>
		</g>
		<g>
			<path fill="#FCE47E" d="M21.5,226.3h5.8v2.6h-5.8V226.3z"/>
			<path fill="#FCE47E" d="M39.7,219.6c0.9,0.4,1.7,1,2.2,1.8c0.5,0.8,0.8,1.7,0.8,2.8c0,1.1-0.3,2-0.8,2.8
				c-0.5,0.8-1.2,1.4-2.2,1.8c-0.9,0.4-2.1,0.6-3.3,0.6h-2.9v4h-3.3V219h6.2C37.7,219,38.8,219.2,39.7,219.6z M38.5,226.1
				c0.5-0.4,0.8-1,0.8-1.8c0-0.8-0.3-1.4-0.8-1.9c-0.5-0.4-1.3-0.7-2.3-0.7h-2.7v5h2.7C37.2,226.7,38,226.5,38.5,226.1z"/>
		</g>
	</g>
	<path fill="#F9B546" d="M66.1,148c0,0,0.7-9.3-6.1-16.1c-6.8-6.8-16.1-6.1-16.1-6.1s10.1-0.1,16.1-6.1c6-6,6.1-16.1,6.1-16.1
		s-0.5,9.5,6.1,16.1c6.6,6.6,16.1,6.1,16.1,6.1s-9.5-0.6-16.1,6.1C65.5,138.6,66.1,148,66.1,148z"/>
	<path fill="#FCE47E" d="M470.3,346.7c0,0,0.3-4.3-2.8-7.4c-3.1-3.1-7.4-2.8-7.4-2.8s4.6,0,7.4-2.8c2.7-2.7,2.8-7.4,2.8-7.4
		s-0.2,4.3,2.8,7.4c3,3,7.4,2.8,7.4,2.8s-4.3-0.3-7.4,2.8S470.3,346.7,470.3,346.7z"/>
	<path fill="#FCE47E" d="M421.1,157.1c0,0,0.3-4.3-2.8-7.4c-3.1-3.1-7.4-2.8-7.4-2.8s4.6,0,7.4-2.8c2.7-2.7,2.8-7.4,2.8-7.4
		s-0.2,4.3,2.8,7.4c3,3,7.4,2.8,7.4,2.8s-4.3-0.3-7.4,2.8S421.1,157.1,421.1,157.1z"/>
	<path fill="#F9B546" d="M421.1,86.5c0,0,0.3-4.3-2.8-7.4c-3.1-3.1-7.4-2.8-7.4-2.8s4.6,0,7.4-2.8c2.7-2.7,2.8-7.4,2.8-7.4
		s-0.2,4.3,2.8,7.4c3,3,7.4,2.8,7.4,2.8s-4.3-0.3-7.4,2.8C420.8,82.2,421.1,86.5,421.1,86.5z"/>
	<circle fill="#FCE47E" cx="116" cy="190" r="4.8"/>
	<g>
		<g>
			
				<ellipse transform="matrix(0.9922 -0.1245 0.1245 0.9922 -27.3567 61.5065)" fill="#E69E35" cx="478.5" cy="249.6" rx="29.5" ry="29.5"/>
			
				<ellipse transform="matrix(0.2323 -0.9726 0.9726 0.2323 127.5701 660.9265)" fill="#FCE47E" cx="482.5" cy="249.6" rx="29.5" ry="29.5"/>
			<circle fill="#F7B546" cx="482.5" cy="249.6" r="23.7"/>
			<path fill="#E69E35" d="M460.6,251c0-13.1,10.6-23.7,23.7-23.7c4.9,0,9.4,1.5,13.2,4c-4.1-3.3-9.3-5.4-15-5.4
				c-13.1,0-23.7,10.6-23.7,23.7c0,7.4,3.4,14,8.7,18.4c-2.4-2.4-4.2-5.3-5.4-8.5C461.1,256.8,460.6,254,460.6,251z"/>
		</g>
		<g>
			<path fill="#FCE47E" d="M471.1,250.2h6.3v2.8h-6.3L471.1,250.2z"/>
			<path fill="#FCE47E" d="M490.7,243c1,0.5,1.8,1.1,2.3,2c0.5,0.8,0.8,1.8,0.8,3c0,1.1-0.3,2.1-0.8,3c-0.6,0.9-1.3,1.5-2.3,2
				c-1,0.5-2.2,0.7-3.6,0.7H484v4.3h-3.6l0-15.6h6.8C488.5,242.3,489.7,242.6,490.7,243z M489.4,250c0.6-0.5,0.8-1.1,0.8-2
				c0-0.9-0.3-1.5-0.8-2c-0.6-0.5-1.4-0.7-2.5-0.7H484v5.4h2.9C488,250.7,488.9,250.4,489.4,250z"/>
		</g>
	</g>
	<polygon fill="#AB1D3E" points="348,208.1 348,240.7 372.4,240.7 	"/>
	<polygon fill="#AB1D3E" points="160.7,208.1 160.7,240.7 136.3,240.7 	"/>
	<rect x="136.3" y="183.7" fill="#D41E42" width="244.3" height="57"/>
	<polyline fill="#F05777" points="352.1,208.1 376.5,183.7 384.6,183.7 384.6,240.7 376.5,240.7 352.1,208.1 	"/>
	<polyline fill="#F05777" points="164.8,208.1 140.4,183.7 132.2,183.7 132.2,240.7 140.4,240.7 164.8,208.1 	"/>
	<g>
		<g>
			
				<ellipse transform="matrix(0.9922 -0.1248 0.1248 0.9922 -20.6428 33.0798)" fill="#E69E35" cx="253.8" cy="181.3" rx="69.1" ry="69.1"/>
			
				<ellipse transform="matrix(0.2321 -0.9727 0.9727 0.2321 25.7138 395.2445)" fill="#FCE47E" cx="263.2" cy="181.3" rx="69.1" ry="69.1"/>
			<path fill="#E69E35" d="M211.9,184.4c0-30.6,24.8-55.4,55.4-55.4c11.5,0,22.1,3.5,30.9,9.4c-9.6-7.8-21.8-12.5-35.1-12.5
				c-30.6,0-55.4,24.8-55.4,55.4c0,17.3,8,32.8,20.4,43c-5.5-5.6-9.9-12.4-12.6-20C213.2,198.1,211.9,191.4,211.9,184.4z"/>
			<circle fill="#F7B546" cx="263.2" cy="181.3" r="55.4"/>
		</g>
		<g>
			<path fill="#FCE47E" d="M236.9,182.2h14.8v6.5h-14.8V182.2z"/>
			<path fill="#FCE47E" d="M282.9,165.3c2.4,1.1,4.2,2.6,5.5,4.6c1.3,2,1.9,4.3,1.9,7c0,2.7-0.6,5-1.9,7c-1.3,2-3.1,3.5-5.5,4.6
				c-2.4,1.1-5.2,1.6-8.4,1.6h-7.4v10.1h-8.4v-36.5h15.8C277.7,163.7,280.5,164.2,282.9,165.3z M279.8,181.6c1.3-1.1,2-2.6,2-4.7
				c0-2.1-0.7-3.6-2-4.7c-1.3-1.1-3.2-1.6-5.8-1.6h-6.9v12.7h6.9C276.5,183.2,278.5,182.7,279.8,181.6z"/>
		</g>
	</g>
	<path fill="#EF405C" d="M369.4,468.6H147.5c-8.4,0-15.2-6.8-15.2-15.2V240.7h252.4v212.7C384.6,461.8,377.8,468.6,369.4,468.6z"/>
	<circle fill="#D41E42" cx="201.4" cy="273.2" r="12.2"/>
	<circle fill="#D41E42" cx="299.1" cy="273.2" r="12.2"/>
	<path fill="#FFFFFF" d="M250.3,350.6c-29.2,0-52.9-23.7-52.9-52.9v-24.4c0-2.3,1.8-4.1,4.1-4.1s4.1,1.8,4.1,4.1v24.4
		c0,24.7,20.1,44.8,44.8,44.8s44.8-20.1,44.8-44.8v-24.4c0-2.3,1.8-4.1,4.1-4.1s4.1,1.8,4.1,4.1v24.4
		C303.2,326.8,279.5,350.6,250.3,350.6z"/>
	<circle fill="#51C0A5" cx="370.6" cy="432.9" r="64.2"/>
	<path fill="#FFFFFF" d="M361.7,458c-1.9,0-3.7-0.7-5.1-1.9l-20.3-17.1c-3.3-2.8-3.7-7.8-0.9-11.1s7.8-3.7,11.1-0.9l15.1,12.7
		l33.1-29.7c3.1-3,8.1-2.9,11.1,0.2c3,3.1,2.9,8.1-0.2,11.1c-0.1,0.1-0.3,0.2-0.4,0.4L367,455.9C365.5,457.2,363.6,458,361.7,458
		L361.7,458z"/>
	<g>
		<g>
			<g>
				<path fill="#EF405C" d="M276.2,32l-17.1-16.7c-0.4-0.5-1.1-0.6-1.6-0.2c-0.1,0-0.1,0.1-0.2,0.2L240.3,32
					c-0.5,0.5-0.6,1.4-0.1,1.9c0.3,0.3,0.6,0.4,1,0.4h8.1V56c0.2,0.9,0.9,1.6,1.8,1.7h14.4c0.7,0,0.9-0.9,0.9-1.7V34.3h9
					c0.7,0,1.3-0.6,1.3-1.4C276.7,32.6,276.5,32.2,276.2,32z"/>
				<path fill="#EF405C" d="M265.5,60.4h-14.4c-0.7,0-1.3,0.6-1.3,1.3c0,0.7,0.6,1.3,1.3,1.3h14.4c0.7,0,1.3-0.6,1.3-1.3
					C266.8,61,266.2,60.4,265.5,60.4z"/>
				<path fill="#EF405C" d="M265.5,65.7h-14.4c-0.7,0-1.3,0.6-1.3,1.3c0,0.7,0.6,1.3,1.3,1.3h14.4c0.7,0,1.3-0.6,1.3-1.3
					C266.8,66.3,266.2,65.7,265.5,65.7z"/>
				<path fill="#EF405C" d="M265.5,71.1h-14.4c-0.7,0-1.3,0.6-1.3,1.3c0,0.7,0.6,1.3,1.3,1.3h14.4c0.7,0,1.3-0.6,1.3-1.3
					C266.8,71.7,266.2,71.1,265.5,71.1z"/>
			</g>
		</g>
	</g>
	<g>
		<g>
			<g>
				<path fill="#EF405C" d="M204.6,73.7l-10.7-10.5c-0.3-0.3-0.7-0.4-1-0.1c0,0-0.1,0.1-0.1,0.1L182,73.7c-0.3,0.3-0.4,0.9,0,1.2
					c0.2,0.2,0.4,0.3,0.6,0.3h5.1v13.6c0.1,0.6,0.6,1,1.1,1.1h9c0.5,0,0.6-0.6,0.6-1.1V75.2h5.7c0.5,0,0.8-0.4,0.8-0.9
					C204.9,74.1,204.8,73.8,204.6,73.7z"/>
				<path fill="#EF405C" d="M197.8,91.6h-9c-0.5,0-0.8,0.4-0.8,0.8s0.4,0.8,0.8,0.8h9c0.5,0,0.8-0.4,0.8-0.8S198.3,91.6,197.8,91.6z
					"/>
				<path fill="#EF405C" d="M197.8,94.9h-9c-0.5,0-0.8,0.4-0.8,0.8s0.4,0.8,0.8,0.8h9c0.5,0,0.8-0.4,0.8-0.8S198.3,94.9,197.8,94.9z
					"/>
				<path fill="#EF405C" d="M197.8,98.3h-9c-0.5,0-0.8,0.4-0.8,0.8s0.4,0.8,0.8,0.8h9c0.5,0,0.8-0.4,0.8-0.8S198.3,98.3,197.8,98.3z
					"/>
			</g>
		</g>
	</g>
	<g>
		<g>
			<g>
				<path fill="#EF405C" d="M325.3,73.7l-10.7-10.5c-0.3-0.3-0.7-0.4-1-0.1c0,0-0.1,0.1-0.1,0.1l-10.7,10.5c-0.3,0.3-0.4,0.9,0,1.2
					c0.2,0.2,0.4,0.3,0.6,0.3h5.1v13.6c0.1,0.6,0.6,1,1.1,1.1h9c0.5,0,0.6-0.6,0.6-1.1V75.2h5.7c0.5,0,0.8-0.4,0.8-0.9
					C325.6,74.1,325.5,73.8,325.3,73.7z"/>
				<path fill="#EF405C" d="M318.5,91.6h-9c-0.5,0-0.8,0.4-0.8,0.8s0.4,0.8,0.8,0.8h9c0.5,0,0.8-0.4,0.8-0.8S319,91.6,318.5,91.6z"
					/>
				<path fill="#EF405C" d="M318.5,94.9h-9c-0.5,0-0.8,0.4-0.8,0.8s0.4,0.8,0.8,0.8h9c0.5,0,0.8-0.4,0.8-0.8S319,94.9,318.5,94.9z"
					/>
				<path fill="#EF405C" d="M318.5,98.3h-9c-0.5,0-0.8,0.4-0.8,0.8s0.4,0.8,0.8,0.8h9c0.5,0,0.8-0.4,0.8-0.8S319,98.3,318.5,98.3z"
					/>
			</g>
		</g>
	</g>
</g>
</svg>
