<?xml version="1.0" encoding="utf-8"?>
<!-- Generator: Adobe Illustrator 24.1.3, SVG Export Plug-In . SVG Version: 6.00 Build 0)  -->
<svg version="1.1" id="Layer_1" xmlns="http://www.w3.org/2000/svg" xmlns:xlink="http://www.w3.org/1999/xlink" x="0px" y="0px"
	 viewBox="0 0 512 512" enable-background="new 0 0 512 512" xml:space="preserve" width="150" height="150">
<g>
	<path fill="#F5F5F5" d="M454.1,438.6c0,7.9-100.7,14.3-210.2,14.3c-109.5,0-198.3-6.4-198.3-14.3c0-7.9,88.8-14.3,198.3-14.3
		C353.4,424.3,454.1,430.7,454.1,438.6z"/>
	<path fill="#FAB545" d="M491.1,269.7c0,0,0.7-8.8-5.7-15.2c-6.4-6.4-15.2-5.7-15.2-5.7s9.6-0.1,15.2-5.7c5.6-5.6,5.7-15.2,5.7-15.2
		s-0.5,9,5.7,15.2c6.2,6.2,15.2,5.7,15.2,5.7s-8.9-0.5-15.2,5.7C490.6,260.8,491.1,269.7,491.1,269.7z"/>
	<path fill="#FDE47C" d="M276.7,142.1c0,0,0.3-4-2.6-7c-2.9-2.9-7-2.6-7-2.6s4.4,0,7-2.6c2.6-2.6,2.6-7,2.6-7s-0.2,4.1,2.6,7
		c2.9,2.9,7,2.6,7,2.6s-4.1-0.2-7,2.6C276.5,138,276.7,142.1,276.7,142.1z"/>
	<path fill="#FDE47C" d="M470.2,369.2c0,0,0.3-4-2.6-7c-2.9-2.9-7-2.6-7-2.6s4.4,0,7-2.6c2.6-2.6,2.6-7,2.6-7s-0.2,4.1,2.6,7
		c2.9,2.9,7,2.6,7,2.6s-4.1-0.2-7,2.6C469.9,365.2,470.2,369.2,470.2,369.2z"/>
	<path fill="#FAB545" d="M40.4,250c0,0,0.3-4-2.6-7c-2.9-2.9-7-2.6-7-2.6s4.4,0,7-2.6s2.6-7,2.6-7s-0.2,4.1,2.6,7s7,2.6,7,2.6
		s-4.1-0.2-7,2.6C40.2,245.9,40.4,250,40.4,250z"/>
	<circle fill="#FDE47C" cx="174.8" cy="138" r="4.5"/>
	<g>
		<g>
			
				<ellipse transform="matrix(0.9922 -0.1248 0.1248 0.9922 -10.0779 29.6083)" fill="#E59D35" cx="231.3" cy="95.3" rx="36.1" ry="36.1"/>
			
				<ellipse transform="matrix(0.2321 -0.9727 0.9727 0.2321 88.7699 302.9571)" fill="#FDE47C" cx="236.3" cy="95.3" rx="36.1" ry="36.1"/>
			<circle fill="#F8B545" cx="236.3" cy="95.3" r="29"/>
			<path fill="#E59D35" d="M209.4,96.9c0-16,13-29,29-29c6,0,11.6,1.8,16.2,4.9c-5-4.1-11.4-6.6-18.3-6.6c-16,0-29,13-29,29
				c0,9.1,4.2,17.2,10.7,22.5c-2.9-2.9-5.2-6.5-6.6-10.5C210.1,104,209.4,100.5,209.4,96.9z"/>
		</g>
		<g>
			<path fill="#FDE47C" d="M222.6,95.7h7.7v3.4h-7.7V95.7z"/>
			<path fill="#FDE47C" d="M246.6,86.9c1.2,0.6,2.2,1.4,2.9,2.4c0.7,1,1,2.3,1,3.7c0,1.4-0.3,2.6-1,3.7c-0.7,1-1.6,1.8-2.9,2.4
				c-1.2,0.6-2.7,0.8-4.4,0.8h-3.8v5.3H234V86h8.3C243.9,86,245.4,86.3,246.6,86.9z M245,95.4c0.7-0.6,1-1.4,1-2.4
				c0-1.1-0.3-1.9-1-2.5c-0.7-0.6-1.7-0.9-3-0.9h-3.6v6.6h3.6C243.3,96.3,244.3,96,245,95.4z"/>
		</g>
	</g>
	<g>
		<g>
			<g>
				<g>
					<path fill="#F95A80" d="M355.7,240.7l-35.7-45.7c-1.5-1.9-3.9-3.1-6.3-3.1H170.2c-2.5,0-4.8,1.1-6.3,3.1l-35.7,45.7H355.7z"/>
					<path fill="#D31140" d="M319.9,195.1c-1.5-2-3.9-3.1-6.3-3.1h-13.2c2.5,0,4.8,1.1,6.3,3.1l35.7,45.7h13.2L319.9,195.1z"/>
					<path fill="#FF3A59" d="M347.6,437.8H136.1c-4.4,0-8.1-3.6-8.1-8.1V240.7h227.6v189.1C355.7,434.2,352.1,437.8,347.6,437.8
						L347.6,437.8z"/>
					<path fill="#D31140" d="M355.7,240.7v189.1c0,4.4-3.6,8-8.1,8h-13.2c4.4,0,8.1-3.6,8.1-8V240.7H355.7z"/>
				</g>
				<g>
					<path fill="#FDE47C" d="M265.8,240.7l-8.5-48.7h-30.8l-8.5,48.7v66.8c0,3.2,2.6,5.9,5.9,5.9h36.2c3.2,0,5.9-2.6,5.9-5.9
						L265.8,240.7L265.8,240.7z"/>
				</g>
			</g>
			<path fill="#FDE47C" d="M366.1,134.5h-1.5l6.5-6.5c5.4-5.4,5.4-14.1,0-19.5c-5.4-5.4-14.1-5.4-19.5,0L316.2,144
				c-2.3,2.3-2.3,6.1,0,8.4l35.4,35.7c5.4,5.4,14.1,5.4,19.5,0c5.4-5.4,5.4-14.1,0-19.5l-6.5-6.5h1.4c27.8,0,50.3,22.5,50.3,50.3
				s-22.5,50.3-50.3,50.3h-33.6c-7.6,0-13.8,6.2-13.8,13.8c0,7.6,6.2,13.8,13.8,13.8l33.6,0c43,0,77.8-34.9,77.8-77.9
				C443.9,169.4,409.1,134.5,366.1,134.5L366.1,134.5z"/>
		</g>
	</g>
	<g>
		<g>
			
				<ellipse transform="matrix(0.9922 -0.1248 0.1248 0.9922 -44.0315 12.7683)" fill="#E59D35" cx="79.9" cy="357.9" rx="79.9" ry="79.9"/>
			
				<ellipse transform="matrix(0.2321 -0.9727 0.9727 0.2321 -278.4022 363.1677)" fill="#FDE47C" cx="90.8" cy="357.9" rx="79.9" ry="79.9"/>
			<path fill="#E59D35" d="M31.5,361.5c0-35.4,28.7-64.1,64.1-64.1c13.3,0,25.6,4,35.8,10.9c-11.1-9.1-25.2-14.5-40.6-14.5
				c-35.4,0-64.1,28.7-64.1,64.1c0,20,9.2,37.9,23.6,49.7c-6.4-6.5-11.4-14.4-14.6-23.1C33,377.3,31.5,369.6,31.5,361.5z"/>
			<circle fill="#F8B545" cx="90.8" cy="357.9" r="64.1"/>
		</g>
		<g>
			<path fill="#FDE47C" d="M60.5,358.9h17.1v7.5H60.5V358.9z"/>
			<path fill="#FDE47C" d="M113.6,339.3c2.8,1.2,4.9,3,6.4,5.3c1.5,2.3,2.2,5,2.2,8.1c0,3.1-0.7,5.8-2.2,8.1
				c-1.5,2.3-3.6,4.1-6.4,5.3c-2.8,1.2-6,1.8-9.7,1.8h-8.5v11.6h-9.8v-42.2h18.3C107.6,337.5,110.9,338.1,113.6,339.3z M110,358.2
				c1.5-1.3,2.3-3.1,2.3-5.4c0-2.4-0.8-4.2-2.3-5.5c-1.5-1.3-3.8-1.9-6.7-1.9h-8v14.7h8C106.3,360.1,108.5,359.4,110,358.2z"/>
		</g>
	</g>
</g>
</svg>
