<svg xmlns="http://www.w3.org/2000/svg" xmlns:xlink="http://www.w3.org/1999/xlink" width="334" height="334" viewBox="0 0 334 334"><defs><clipPath id="b"><rect width="334" height="334"/></clipPath></defs><g id="a" clip-path="url(#b)"><g transform="translate(70.112 67.12)"><g transform="translate(0 0)"><circle cx="82.902" cy="82.902" r="82.902" transform="translate(0 27.896) rotate(-7.169)" fill="#e69e35"/><circle cx="82.902" cy="82.902" r="82.902" transform="matrix(0.232, -0.973, 0.973, 0.232, 4.016, 161.277)" fill="#fce47e"/><circle cx="66.574" cy="66.574" r="66.574" transform="translate(36.888 32.88)" fill="#f7b546"/><path d="M210.151,115.161a66.547,66.547,0,0,1,103.759-55.2A66.556,66.556,0,1,0,229.744,163.09a69.735,69.735,0,0,1-19.593-47.929Z" transform="translate(-167.801 -11.561)" fill="#e69e35"/></g></g><g transform="translate(1.013 1.02)"><path d="M150.347,308.512A111.6,111.6,0,0,1,66,148.546l9.477,7.174.218-48.947L28.646,120.268,41.4,129.919a141.968,141.968,0,0,0,216.831,176.02l-22.672-20.716a111.218,111.218,0,0,1-85.209,23.288Z" transform="translate(0 -32.133)" fill="#f7b546"/><path d="M224.614,25.4A141.44,141.44,0,0,0,123.968,49.233l16.341,25.692A111.565,111.565,0,0,1,304.68,215.545l-9.588-7.258-.219,48.947,47.05-13.5-12.648-9.575A142.032,142.032,0,0,0,224.614,25.4Z" transform="translate(-38.803 0)" fill="#e69e35"/></g><g transform="translate(37.348 129)"><path d="M146.935,34.55a91.571,91.571,0,0,0-9.3-4.21,20.878,20.878,0,0,1-5.105-2.859c-3.032-2.419-2.451-6.346,1.1-7.9a8.962,8.962,0,0,1,3.126-.644,23.727,23.727,0,0,1,11.75,2.325c1.854.9,2.466.613,3.095-1.32.66-2.042,1.21-4.116,1.822-6.174a2.156,2.156,0,0,0-1.4-2.875,29.87,29.87,0,0,0-7.415-2.215c-3.362-.518-3.362-.534-3.377-3.911-.016-4.76-.016-4.76-4.791-4.76-.691,0-1.382-.016-2.074,0-2.231.063-2.608.456-2.67,2.7-.031,1.005,0,2.011-.016,3.032-.016,2.985-.031,2.938-2.89,3.974-6.912,2.513-11.185,7.226-11.64,14.766-.408,6.676,3.079,11.185,8.561,14.468,3.377,2.026,7.116,3.22,10.7,4.807a15.89,15.89,0,0,1,3.9,2.293c3.44,2.843,2.812,7.572-1.272,9.362a12.812,12.812,0,0,1-6.865.9,30.64,30.64,0,0,1-10.462-3.126c-1.932-1.005-2.5-.738-3.157,1.351-.566,1.806-1.068,3.629-1.571,5.451-.675,2.451-.424,3.032,1.916,4.179a33.4,33.4,0,0,0,9.425,2.7c2.545.408,2.623.518,2.655,3.157.016,1.194.016,2.4.031,3.6a2.136,2.136,0,0,0,2.293,2.419c1.759.031,3.534.031,5.294-.016a2.014,2.014,0,0,0,2.183-2.278c0-1.634.079-3.283.016-4.917a2.6,2.6,0,0,1,2.246-2.953,17.753,17.753,0,0,0,9.252-5.938C159.015,51.767,156.454,39.812,146.935,34.55Z" transform="translate(0 0)" fill="#fce47e"/></g></g></svg>