<?xml version="1.0" encoding="utf-8"?>
<!-- Generator: Adobe Illustrator 24.1.3, SVG Export Plug-In . SVG Version: 6.00 Build 0)  -->
<svg version="1.1" id="Objects" xmlns="http://www.w3.org/2000/svg" xmlns:xlink="http://www.w3.org/1999/xlink" x="0px" y="0px"
	 viewBox="0 0 512 512" enable-background="new 0 0 512 512" xml:space="preserve" width="150" height="150" >
<g>
	<path fill="#D31F42" d="M454.7,191.7v10.1H402v-24c0-12.5,8.3-23.9,20.4-26.5c17.1-3.7,32.3,9.2,32.3,25.7v3.9h13v-3.9
		c0-23.7-21-42.5-45.3-38.9c-19.5,2.9-33.4,20.5-33.4,40.2v36.6h78.7v-23.1H454.7z"/>
	<path fill="#FAB545" d="M82.9,160.7c0,0,1.1-14.9-9.7-25.8s-25.8-9.7-25.8-9.7s16.2-0.2,25.8-9.7s9.7-25.8,9.7-25.8
		s-0.9,15.2,9.7,25.8s25.8,9.7,25.8,9.7s-15.2-0.9-25.8,9.7S82.9,160.7,82.9,160.7z"/>
	<path fill="#FDE47C" d="M424,114.2c0,0,0.5-6.8-4.4-11.8S407.7,98,407.7,98s7.4-0.1,11.8-4.4c4.4-4.4,4.4-11.8,4.4-11.8
		s-0.4,7,4.4,11.8c4.8,4.8,11.8,4.4,11.8,4.4s-6.9-0.4-11.8,4.4S424,114.2,424,114.2z"/>
	<path fill="#FDE47C" d="M41.8,374.8c0,0,0.5-6.8-4.4-11.8s-11.8-4.4-11.8-4.4s7.4-0.1,11.8-4.4s4.4-11.8,4.4-11.8s-0.4,7,4.4,11.8
		s11.8,4.4,11.8,4.4s-6.9-0.4-11.8,4.4S41.8,374.8,41.8,374.8z"/>
	<path fill="#FAB545" d="M495.8,334.3c0,0,0.5-6.8-4.4-11.8s-11.8-4.4-11.8-4.4s7.4-0.1,11.8-4.4c4.4-4.4,4.4-11.8,4.4-11.8
		s-0.4,7,4.4,11.8c4.8,4.8,11.8,4.4,11.8,4.4s-6.9-0.4-11.8,4.4C495.4,327.3,495.8,334.3,495.8,334.3z"/>
	<circle fill="#FDE47C" cx="372.1" cy="222.9" r="4.9"/>
	<circle fill="#FDE47C" cx="417" cy="486" r="3.7"/>
	<g>
		<g>
			
				<ellipse transform="matrix(0.9922 -0.1248 0.1248 0.9922 -30.001 7.1724)" fill="#E59D35" cx="42.3" cy="243.1" rx="42.3" ry="42.3"/>
			
				<ellipse transform="matrix(0.2321 -0.9727 0.9727 0.2321 -200.3733 231.5739)" fill="#FDE47C" cx="46.5" cy="242.7" rx="41.9" ry="41.9"/>
			<circle fill="#F8B545" cx="46.5" cy="242.7" r="33.6"/>
			<path fill="#E59D35" d="M15.4,244.6c0-18.6,15-33.6,33.6-33.6c6.9,0,13.4,2.1,18.8,5.7c-5.8-4.7-13.2-7.6-21.3-7.6
				c-18.6,0-33.6,15-33.6,33.6c0,10.5,4.8,19.9,12.4,26.1c-3.4-3.4-6-7.5-7.6-12.1C16.2,252.9,15.4,248.8,15.4,244.6z"/>
		</g>
		<g>
			<path fill="#FDE47C" d="M41,245h-5.5v5.4h-4.1V245H26v-3.9h5.5v-5.4h4.1v5.4H41V245z"/>
			<path fill="#FDE47C" d="M60.2,232.9c1.4,0.7,2.6,1.6,3.3,2.8c0.8,1.2,1.2,2.6,1.2,4.3c0,1.6-0.4,3-1.2,4.3
				c-0.8,1.2-1.9,2.1-3.3,2.8c-1.4,0.6-3.1,1-5.1,1h-4.5v6.1h-5.1V232h9.6C57.1,232,58.8,232.3,60.2,232.9z M58.4,242.8
				c0.8-0.7,1.2-1.6,1.2-2.8c0-1.2-0.4-2.2-1.2-2.9c-0.8-0.7-2-1-3.5-1h-4.2v7.7h4.2C56.4,243.8,57.6,243.5,58.4,242.8z"/>
		</g>
	</g>
	<g>
		<g>
			
				<ellipse transform="matrix(0.9922 -0.1248 0.1248 0.9922 -55.1811 12.8941)" fill="#E59D35" cx="75.3" cy="447" rx="22.5" ry="22.5"/>
			
				<ellipse transform="matrix(0.2321 -0.9727 0.9727 0.2321 -374.9745 418.5588)" fill="#FDE47C" cx="77.6" cy="446.8" rx="22.3" ry="22.3"/>
			<circle fill="#F8B545" cx="77.6" cy="446.8" r="17.9"/>
			<path fill="#E59D35" d="M61,447.8c0-9.9,8-17.9,17.9-17.9c3.7,0,7.1,1.1,10,3.1c-3.1-2.5-7-4.1-11.3-4.1c-9.9,0-17.9,8-17.9,17.9
				c0,5.6,2.6,10.6,6.6,13.9c-1.8-1.8-3.2-4-4.1-6.5C61.4,452.2,61,450,61,447.8z"/>
		</g>
		<g>
			<path fill="#FDE47C" d="M74.7,448h-2.9v2.9h-2.2V448h-2.9v-2.1h2.9V443h2.2v2.9h2.9V448z"/>
			<path fill="#FDE47C" d="M84.9,441.6c0.8,0.4,1.4,0.8,1.8,1.5c0.4,0.6,0.6,1.4,0.6,2.3c0,0.9-0.2,1.6-0.6,2.3
				c-0.4,0.6-1,1.1-1.8,1.5c-0.8,0.3-1.7,0.5-2.7,0.5h-2.4v3.3h-2.7V441h5.1C83.3,441,84.2,441.2,84.9,441.6z M83.9,446.8
				c0.4-0.4,0.6-0.9,0.6-1.5c0-0.7-0.2-1.2-0.6-1.5c-0.4-0.4-1.1-0.5-1.9-0.5h-2.2v4.1h2.2C82.9,447.4,83.5,447.2,83.9,446.8z"/>
		</g>
	</g>
	<g>
		<g>
			
				<ellipse transform="matrix(0.9922 -0.1248 0.1248 0.9922 -10.2351 32.6442)" fill="#E59D35" cx="255.5" cy="98" rx="75.7" ry="75.7"/>
			
				<ellipse transform="matrix(0.2321 -0.9727 0.9727 0.2321 107.3487 330.5794)" fill="#FDE47C" cx="263" cy="97.3" rx="75" ry="75"/>
			<circle fill="#F8B545" cx="263" cy="97.3" r="60.2"/>
			<path fill="#E59D35" d="M207.3,100.7c0-33.2,26.9-60.2,60.2-60.2c12.4,0,24,3.8,33.6,10.2c-10.4-8.5-23.6-13.6-38.1-13.6
				c-33.2,0-60.2,26.9-60.2,60.2c0,18.8,8.6,35.6,22.2,46.6c-6-6.1-10.7-13.5-13.7-21.7C208.8,115.5,207.3,108.3,207.3,100.7z"/>
		</g>
		<g>
			<path fill="#FDE47C" d="M253.3,101.4h-9.8v9.6h-7.3v-9.6h-9.8v-6.9h9.8v-9.6h7.3v9.6h9.8V101.4z"/>
			<path fill="#FDE47C" d="M287.7,79.9c2.6,1.2,4.6,2.8,6,5c1.4,2.2,2.1,4.7,2.1,7.6c0,2.9-0.7,5.4-2.1,7.6c-1.4,2.2-3.4,3.8-6,5
				c-2.6,1.2-5.6,1.7-9.1,1.7h-8v10.9h-9.2V78.1h17.2C282.1,78.1,285.1,78.7,287.7,79.9z M284.3,97.5c1.4-1.2,2.2-2.9,2.2-5.1
				c0-2.2-0.7-3.9-2.2-5.1c-1.4-1.2-3.5-1.8-6.3-1.8h-7.5v13.8h7.5C280.8,99.3,282.9,98.7,284.3,97.5z"/>
		</g>
	</g>
	<g>
		<path fill="#DEE2E6" d="M404.1,455.2H142.7c-8.1,0-14.8-6.6-14.8-14.8V228.1c0-8.1,6.6-14.8,14.8-14.8h261.4
			c8.1,0,14.8,6.6,14.8,14.8v212.4C418.8,448.6,412.2,455.2,404.1,455.2z M142.7,217.1c-6.1,0-11,4.9-11,11v212.4
			c0,6.1,4.9,11,11,11h261.4c6.1,0,11-4.9,11-11V228.1c0-6.1-4.9-11-11-11H142.7z"/>
	</g>
	<path fill="#DEE2E6" d="M416.3,248.9v-26.5c0-4-4.2-7.2-9.3-7.2H138.5c-5.1,0-9.3,3.2-9.3,7.2v26.5H416.3z"/>
	<g>
		
			<ellipse transform="matrix(0.9732 -0.2298 0.2298 0.9732 -49.3606 40.1788)" fill="#FFFFFF" cx="147.9" cy="232.1" rx="6.6" ry="6.6"/>
		
			<ellipse transform="matrix(0.9732 -0.2298 0.2298 0.9732 -48.8945 44.1817)" fill="#FFFFFF" cx="165.3" cy="232.1" rx="6.6" ry="6.6"/>
		
			<ellipse transform="matrix(0.9871 -0.1602 0.1602 0.9871 -34.8124 32.2625)" fill="#FFFFFF" cx="182.7" cy="232.1" rx="6.6" ry="6.6"/>
	</g>
	<g>
		<rect x="174.8" y="324.7" fill="#DEE2E6" width="195.9" height="23.1"/>
	</g>
	<g>
		<rect x="174.8" y="357.1" fill="#DEE2E6" width="195.9" height="23.1"/>
	</g>
	<g>
		<path fill="#FF2844" d="M311.3,422h-77c-1.3,0-2.3-1-2.3-2.3v-17.3c0-1.3,1-2.3,2.3-2.3h77c1.3,0,2.3,1,2.3,2.3v17.3
			C313.6,421,312.6,422,311.3,422z"/>
	</g>
	<g>
		
			<ellipse transform="matrix(0.9239 -0.3827 0.3827 0.9239 -88.9987 126.2136)" fill="#DEE2E6" cx="272.8" cy="286.8" rx="25.6" ry="25.6"/>
		<path fill="#CBCFD3" d="M279.7,292.6c3.1-2.2,5.1-5.8,5.1-9.9c0-6.7-5.4-12.1-12.1-12.1c-6.7,0-12.1,5.4-12.1,12.1
			c0,4.1,2,7.7,5.2,9.9c-5.9,2.1-10.2,6.9-10.8,12.5c4.6,4.5,10.9,7.3,17.9,7.3c7,0,13.3-2.8,17.9-7.3
			C290,299.5,285.7,294.7,279.7,292.6z"/>
	</g>
	<g>
		<path fill="#EE3F5C" d="M468.3,270.9h-80c-5.3,0-9.7-4.3-9.7-9.7v-59.9c0-5.3,4.3-9.7,9.7-9.7h80c5.3,0,9.7,4.3,9.7,9.7v59.9
			C478,266.6,473.7,270.9,468.3,270.9z"/>
		<path fill="#FFFFFF" d="M442.8,225.8c0-9.1-8.4-16.2-17.9-14c-5.2,1.2-9.4,5.4-10.6,10.6c-1.6,7,1.8,13.4,7.4,16.3v15.6H435v-15.6
			C439.6,236.2,442.8,231.4,442.8,225.8z"/>
	</g>
</g>
</svg>
