<svg xmlns="http://www.w3.org/2000/svg" width="512" height="512" viewBox="0 0 512 512"><g transform="translate(-569 -6477)"><g transform="translate(0.869 6.944)"><g transform="translate(685.166 6551.738)"><g transform="translate(0 192.843)"><g transform="translate(0 0)"><path d="M406.967,377.951v-47.86a30.956,30.956,0,0,0-30.957-30.955H312.2a30.956,30.956,0,0,0-30.957,30.955v43.735A30.958,30.958,0,0,0,312.2,404.783h109.59Zm0,0" transform="translate(-281.246 -299.136)" fill="indigo"/><path d="M349.966,351.442h70.512a5.055,5.055,0,0,0,0-10.11H349.966a5.055,5.055,0,1,0,0,10.11Zm0,0" transform="translate(-321.875 -315.31)" fill="#fff"/><path d="M349.966,386.7h70.512a5.055,5.055,0,0,0,0-10.11H349.966a5.055,5.055,0,1,0,0,10.11Zm0,0" transform="translate(-321.875 -328.825)" fill="#fff"/><path d="M390.528,421.97H434.5a5.055,5.055,0,0,0,0-10.11H390.528a5.055,5.055,0,1,0,0,10.11Zm0,0" transform="translate(-361.6 -342.342)" fill="#fff"/></g><g transform="translate(171.678 0)"><path d="M140.028,0C112.994,0,91,22.291,91,49.325c0,27.478,9,46.1,9.384,46.862a4.459,4.459,0,0,0,3.987,2.464h12.323a36.064,36.064,0,0,1-12.323-27.04V66.975a13.413,13.413,0,0,1,12.457-13.341c11.378-.766,25.267-4.065,30.186-11.025A13.372,13.372,0,0,1,170.558,45.9c2.751,7.883,5.127,14.681,5.127,24.653a37.443,37.443,0,0,1-12.366,28.1h12.366a4.459,4.459,0,0,0,3.987-2.464c.383-.766,9.384-19.383,9.384-46.862C189.056,22.291,167.062,0,140.028,0Z" transform="translate(-82.216 0)" fill="#e4e8ea"/><path d="M111.16,369.846a215.308,215.308,0,0,0,86.011-.032,66.642,66.642,0,0,0-10.694-3.908c-7.082-2.114-15.143-4.2-19.721-11.942a34.065,34.065,0,0,1-24.98.031c-4.517,7.649-12.676,9.77-19.862,11.915A66.141,66.141,0,0,0,111.16,369.846Z" transform="translate(-96.386 -250.787)" fill="#e4e8ea"/><path d="M65.913,455.3H172.589a4.438,4.438,0,0,0,4.466-4.62c-.557-8.9-2.751-14.939-5.844-19.183a220.726,220.726,0,0,1-103.779-.168c-3.164,4.254-5.42,10.321-5.984,19.351a4.438,4.438,0,0,0,4.466,4.621Z" transform="translate(-61.439 -305.16)" fill="#e4e8ea"/><path d="M245.719,191.142c0-12.605-3.043-21.318-6.9-32.347a6.643,6.643,0,0,0-11.7-1.641c-12.262,17.36-42.5,21.188-54.93,22.025a6.645,6.645,0,0,0-6.2,6.63v6.909c0,21.98,17.88,40.3,39.859,40.3,23.487,0,39.859-19.931,39.859-41.879Z" transform="translate(-148.048 -128.424)" fill="none" stroke="#e4e8ea" stroke-width="4"/></g></g><g transform="translate(4.319)"><g transform="translate(137.839 55.282)"><path d="M296.092,326v47.921a31,31,0,0,0,31,30.994h63.888a31,31,0,0,0,31-30.994V330.133a31,31,0,0,0-31-31H281.246Zm0,0" transform="translate(-281.246 -299.136)" fill="#ed7c8a"/><path d="M416.627,341.332H349.708a4.8,4.8,0,0,0,0,9.6h66.919a4.8,4.8,0,0,0,0-9.6Zm0,0" transform="translate(-305.381 -271.344)" fill="#fff"/><path d="M416.627,376.594H349.708a4.8,4.8,0,0,0,0,9.595h66.919a4.8,4.8,0,0,0,0-9.595Zm0,0" transform="translate(-305.381 -328.501)" fill="#fff"/><path d="M432,411.86H390.27a4.8,4.8,0,1,0,0,9.595H432a4.8,4.8,0,0,0,0-9.595Zm0,0" transform="translate(-320.758 -385.664)" fill="#fff"/></g><g transform="translate(0)"><g transform="translate(0 114.973)"><path d="M7547.482-5244.336a26.491,26.491,0,0,0-18.728-7.813l-.135,0h-.038a12.2,12.2,0,0,1-6.821-2.076,1.578,1.578,0,0,0-1.884.116,28.463,28.463,0,0,1-18.083,6.547,28.34,28.34,0,0,1-17.945-6.455,1.6,1.6,0,0,0-1.887-.125,12.2,12.2,0,0,1-6.7,1.993h-.049a26.682,26.682,0,0,0-26.647,26.642v15.9a1.607,1.607,0,0,0,1.6,1.6h103.5a1.606,1.606,0,0,0,1.6-1.6v-15.88A26.481,26.481,0,0,0,7547.482-5244.336Zm-18.337,30.1h-8.066a3.775,3.775,0,0,1-3.772-3.771,3.776,3.776,0,0,1,3.772-3.773h8.066a3.775,3.775,0,0,1,3.77,3.773A3.775,3.775,0,0,1,7529.145-5214.232Z" transform="translate(-7448.569 5254.48)" fill="#e4e8ea"/></g><path d="M7600.564-5522.388l-.017-.159a1.947,1.947,0,0,0-1.933-1.764,1.547,1.547,0,0,0-.172.006,2.074,2.074,0,0,0-.346.065,103.077,103.077,0,0,1-15.982,3.413c-10.778.488-16.92-2.6-23.419-5.871a66.477,66.477,0,0,0-15.392-6.046,21.664,21.664,0,0,0-5.127-.616,21.679,21.679,0,0,0-21.027,16.519,21.679,21.679,0,0,0-.612,5.307c.009,1.545.022,3.093.035,4.7.029,3.542.065,7.559.065,12.442a42.045,42.045,0,0,0,42,42,42.046,42.046,0,0,0,42-42c0-6.562,0-11.529,0-15.3C7600.64-5521.462,7600.64-5521.583,7600.564-5522.388Z" transform="translate(-7504.14 5559.116)" fill="none" stroke="#e4e8ea" stroke-width="4"/><path d="M7568.264-5639.365v27.524a3.276,3.276,0,0,1-3.276,3.276h-3.725s.012-22.077-.057-22.9c-.013-.116-.024-.249-.037-.471a9.6,9.6,0,0,0-.315-1.718,9.533,9.533,0,0,0-9.17-6.96,9.543,9.543,0,0,0-2.554.347,93.3,93.3,0,0,1-12.126,2.675c-7.335.292-11.364-1.755-16.463-4.343a62.161,62.161,0,0,0-14.783-5.745,23.341,23.341,0,0,0-21.638,6.552c-7.864,8.527-5.39,21.868-5.39,32.565h-4.052a2.527,2.527,0,0,1-2.527-2.527v-22.072a55.4,55.4,0,0,1,2.5-16.3c5.61-17.617,20.256-28.987,40.085-29.754a65.09,65.09,0,0,1,30.175,6.426,1.666,1.666,0,0,1,.559.431,1.655,1.655,0,0,1,.379,1.223,1.659,1.659,0,0,1-.593,1.135l-1.7,1.421,2.154.535a35.717,35.717,0,0,1,15.45,8.275C7566.145-5654.917,7568.264-5646.323,7568.264-5639.365Z" transform="translate(-7465.767 5679.258)" fill="#e4e8ea"/></g></g></g><path d="M124.041,49.85,120.37,48.26l1.591-3.671a1.928,1.928,0,0,0-.979-2.447,1.788,1.788,0,0,0-2.447.979l-1.591,3.671L113.273,45.2a1.864,1.864,0,0,0-1.468,3.426l3.671,1.591-1.591,3.671a1.864,1.864,0,0,0,3.426,1.468l1.591-3.671,3.671,1.591a1.886,1.886,0,0,0,2.447-.979,2.057,2.057,0,0,0-.979-2.447" transform="translate(912.987 6583.911)" fill="#e4e8ea"/><path d="M111.516,47.9l2.764-1.2-1.2-2.764a1.452,1.452,0,0,1,.737-1.842,1.346,1.346,0,0,1,1.842.737l1.2,2.764,2.764-1.2a1.4,1.4,0,0,1,1.105,2.579l-2.764,1.2,1.2,2.764a1.4,1.4,0,1,1-2.579,1.105l-1.2-2.764-2.764,1.2a1.42,1.42,0,0,1-1.842-.737,1.549,1.549,0,0,1,.737-1.842" transform="translate(712.689 6497.999)" fill="#e4e8ea"/><path d="M111.525,47.962l2.794-1.211-1.211-2.794a1.467,1.467,0,0,1,.745-1.863,1.361,1.361,0,0,1,1.863.745l1.211,2.794,2.794-1.211a1.418,1.418,0,0,1,1.118,2.608l-2.794,1.211,1.211,2.794a1.418,1.418,0,1,1-2.608,1.118l-1.211-2.794-2.794,1.211a1.435,1.435,0,0,1-1.863-.745,1.566,1.566,0,0,1,.745-1.863" transform="translate(881.028 6688.158)" fill="#e4e8ea"/><path d="M111.982,51.243l4.318-1.871-1.871-4.318a2.268,2.268,0,0,1,1.152-2.879,2.1,2.1,0,0,1,2.879,1.151l1.871,4.318,4.318-1.871a2.192,2.192,0,1,1,1.727,4.03l-4.318,1.871,1.871,4.318a2.192,2.192,0,0,1-4.03,1.727L118.028,53.4l-4.318,1.871a2.218,2.218,0,0,1-2.879-1.151,2.42,2.42,0,0,1,1.151-2.879" transform="translate(505.378 6783.642)" fill="#e4e8ea"/><path d="M122.6,49l-3.274-1.419,1.419-3.274a1.72,1.72,0,0,0-.873-2.183,1.6,1.6,0,0,0-2.183.873l-1.419,3.274-3.274-1.419a1.662,1.662,0,1,0-1.31,3.056l3.274,1.419L113.539,52.6a1.662,1.662,0,0,0,3.056,1.31l1.419-3.274,3.274,1.419a1.682,1.682,0,0,0,2.183-.873A1.835,1.835,0,0,0,122.6,49" transform="translate(561.584 6839.812)" fill="#e4e8ea"/><path d="M121.648,48.434l-3.013-1.306,1.306-3.013a1.583,1.583,0,0,0-.8-2.009,1.467,1.467,0,0,0-2.009.8l-1.306,3.013-3.013-1.306A1.53,1.53,0,1,0,111.6,47.43l3.013,1.306-1.306,3.013a1.53,1.53,0,0,0,2.812,1.205l1.306-3.013,3.013,1.306a1.548,1.548,0,0,0,2.009-.8,1.688,1.688,0,0,0-.8-2.009" transform="translate(499.445 6585.213)" fill="#e4e8ea"/><path d="M6.322,0A6.347,6.347,0,0,0,0,6.322a6.281,6.281,0,0,0,6.322,6.322,6.281,6.281,0,0,0,6.322-6.322A6.281,6.281,0,0,0,6.322,0m0,9.742A3.524,3.524,0,1,1,9.846,6.218,3.495,3.495,0,0,1,6.322,9.742" transform="translate(949.029 6548.84) rotate(-141)" fill="#e4e8ea"/><path d="M69.537,84.206A9.073,9.073,0,0,0,60.5,93.243a9.037,9.037,0,1,0,9.037-9.037m0,13.925a5.037,5.037,0,1,1,5.037-5.037,5,5,0,0,1-5.037,5.037" transform="translate(950.601 6749.435)" fill="#e4e8ea"/><path d="M65.968,84.206A5.49,5.49,0,0,0,60.5,89.674a5.468,5.468,0,1,0,5.468-5.468m0,8.427a3.048,3.048,0,1,1,3.048-3.048,3.023,3.023,0,0,1-3.048,3.048" transform="translate(590.407 6462.063)" fill="#e4e8ea"/><path d="M68.468,84.206A8,8,0,0,0,60.5,92.174a7.968,7.968,0,1,0,7.968-7.968m0,12.279a4.441,4.441,0,1,1,4.441-4.441,4.4,4.4,0,0,1-4.441,4.441" transform="translate(574.471 6640.021)" fill="#e4e8ea"/><path d="M66.61,84.206a6.134,6.134,0,0,0-6.11,6.11,6.11,6.11,0,1,0,6.11-6.11m0,9.415a3.406,3.406,0,1,1,3.406-3.406,3.377,3.377,0,0,1-3.406,3.406" transform="translate(732.424 6825.447)" fill="#e4e8ea"/></g><rect width="512" height="512" transform="translate(569 6477)" fill="none"/></g></svg>